<?xml version="1.0" encoding="utf-8"?>
<!-- Generator: Adobe Illustrator 27.7.0, SVG Export Plug-In . SVG Version: 6.00 Build 0)  -->
<svg version="1.1" id="Layer_1" xmlns="http://www.w3.org/2000/svg" xmlns:xlink="http://www.w3.org/1999/xlink" x="0px" y="0px"
	 viewBox="0 0 983.8 744.6" style="enable-background:new 0 0 983.8 744.6;" xml:space="preserve">
<style type="text/css">
	.st0{fill:none;stroke:#000000;stroke-width:7;stroke-linecap:round;stroke-linejoin:round;stroke-miterlimit:10;}
	.st1{stroke:#000000;stroke-width:8.7749;stroke-linecap:round;stroke-linejoin:round;stroke-miterlimit:10;}
	.st2{fill:#FFFFFF;stroke:#000000;stroke-width:7;stroke-linecap:round;stroke-linejoin:round;stroke-miterlimit:10;}
	.st3{fill:#FFFFFF;stroke:#000000;stroke-width:7.0002;stroke-linecap:round;stroke-linejoin:round;stroke-miterlimit:10.0006;}
	.st4{stroke:#000000;stroke-width:5.6818;stroke-linecap:round;stroke-linejoin:round;stroke-miterlimit:10.0006;}
	.st5{fill:none;stroke:#000000;stroke-width:30;stroke-linecap:round;stroke-linejoin:round;stroke-miterlimit:10;}
	.st6{stroke:#000000;stroke-width:5;stroke-linecap:round;stroke-linejoin:round;stroke-miterlimit:10;}
	.st7{fill:none;stroke:#FFFFFF;stroke-width:11;stroke-linecap:round;stroke-linejoin:round;stroke-miterlimit:10;}
	.st8{fill:none;stroke:#FFFFFF;stroke-width:7;stroke-linecap:round;stroke-linejoin:round;stroke-miterlimit:10;}
	.st9{fill:none;stroke:#FFFFFF;stroke-width:4.0772;stroke-linecap:round;stroke-linejoin:round;stroke-miterlimit:10;}
</style>
<g id="expert">
	<g id="spray_paint">
		<path class="st0" d="M381.4,722.9c-16.7,26.2-82.3,27.3-152.5-17.9c-62.2-40-89.3-108.3-75.1-130.3c20.8-32.4,75.7-7.4,138,32.4
			C354.7,647.5,403.8,687.9,381.4,722.9z"/>
		<path class="st1" d="M357.3,282.3c0,0-146.5,229-179.5,280.7c-17.1,26.8,11.9,90.5,73.1,125.9c51,29.5,111.2,38.5,127.7,12.7
			C418,640.1,561,416.5,561,416.5L357.3,282.3z"/>
		<path class="st2" d="M568.8,420.1c-14.1,22-68.8,0.4-131.9-40.2c-62.2-40.1-99.9-89.7-85.8-111.8c14.1-22,70.3-2.9,131,39.4
			C541.9,349.2,582.8,398.1,568.8,420.1z"/>
		<path class="st2" d="M561,388.5c-14.1,24-66.8-0.8-112.1-30c-53.4-34.4-83.6-74.8-73.9-89.7c18.3-28.2,95.3-26.4,139.1,4.6
			C569.1,312.4,571.9,369.8,561,388.5z"/>
		<path class="st2" d="M506.2,240.4l-15.6,24.3c-3.2,5,2.6,14.5,13.1,21.2s21.5,8.1,24.7,3.1l15.6-24.3"/>
		
			<ellipse transform="matrix(0.5389 -0.8424 0.8424 0.5389 29.4348 558.636)" class="st3" cx="525" cy="252.4" rx="10.8" ry="22.4"/>
		
			<ellipse transform="matrix(0.5389 -0.8424 0.8424 0.5389 6.4182 568.2784)" class="st4" cx="522.3" cy="278.3" rx="2.7" ry="2.2"/>
	</g>
	<path class="st2" d="M980.3,531.8c-1.1,115.7-83.8,207.9-192.1,207.9c-114.6,0-209-84.3-206.7-201.1c0.9-48,19.4-95.1,43.9-120.5
		c-3.5-9-97.1-123.7-102.5-139.8c13.8,6.8,133,97.8,143.2,102.5c32.9-23.1,73-36.7,115.9-36.7C890.3,344.1,981.4,417.2,980.3,531.8z
		"/>
	<path class="st0" d="M693.4,187.4c-9.1,68.5-47.1,72.1-58,66.5c-38.5-19.6,26.1-154,73-137.6c48.2,17,18.3,105,11.7,119.3"/>
	<path class="st0" d="M680.2,231.1c-5.7,24.2,7,62.4,36,68.5c50.4,10.4,97.1-130.4,65.2-151.9c-26.8-18.1-44.1,24.2-46.7,29.4"/>
	<path class="st2" d="M657.5,96.8c43.2,18.5-30,158.4-66.5,139.5C557.3,218.9,621,81.2,657.5,96.8z"/>
	<g id="t">
		<path class="st0" d="M483.5,76c-67.2,5.2-82.1-66.6,8.5-71.1C584.5,0.3,592.3,74,518.7,76"/>
		<path class="st0" d="M471.1,78.6c-16.3,56.7-7.2,97.4,15,99.8c30.6,3.3,47.6-31.3,41.7-102.4"/>
	</g>
	<g id="r">
		<path class="st2" d="M402,134.6c5.2,7.2,31.3,49.5,7.2,65.2c-30.6,19.8-69.3-72.7-78.2-95.2c-9.8-24.8-24.1-53.5-4.6-75.6
			c27.9-31.6,74.2-36.8,97.1,1.3c28.7,47.6,15.6,73-15,85.4"/>
		<path class="st0" d="M419.6,168.5c17.6,19.6,44.3,9.8,46.9-5.9s-17.6-46.9-43.7-54.8"/>
		<path class="st0" d="M369.9,63.3c4.4,0.7,15,12.5,13.7,22.3"/>
		<path class="st0" d="M384.5,54.6c1.5,2.3,0.3,12.4-4.3,16.3"/>
		<path class="st0" d="M396.3,76.3c-1.3-2.4-7.3-8.1-13.9-3.2"/>
	</g>
	<g id="e">
		<path class="st2" d="M267.3,118.2c16.3-9.9,48.1-38.2,32.3-65.7c-15-26.2-63.1-12.1-85.2,41C200.1,128,239.8,243.3,314.8,238
			c34.7-2.4,79.7-45,56.7-78c-13-18.7-41.1-15.7-64.3,10.3"/>
		<path class="st0" d="M281.4,108.4c24.3-16.7,62.3,22.1,38.2,50.3"/>
	</g>
	<g id="p">
		<path class="st2" d="M235.8,228.6c7.4,2,60.2,34.8,38.3,66.6c-16,23.2-68.5-14.8-107.4-50.3c-38.6-35.1-39.9-46.3-40-54
			c-0.6-39.1,40.2-91.9,90.6-54.3c52,38.9,24.9,92.9,4.9,102.9"/>
		<path class="st0" d="M178,180.8c4.3-1.1,18.9,5.1,21.7,14.6"/>
		<path class="st0" d="M187.8,166.8c2.3,1.4,5.4,11.1,2.9,16.6"/>
		<path class="st0" d="M207.5,181.7c-2.1-1.7-10-4.3-14,2.9"/>
	</g>
	<g id="x">
		<path class="st0" d="M121.5,293.4c-15.4-2.9-64.3-4.3-69.1,30c-5,35.2,50.9,49.7,89.1,31.1"/>
		<path class="st2" d="M156.8,286.5c5.1-3.4,64.1-27.1,80.1,12c15.7,38.5-50,45.1-63.1,46.3"/>
		<path class="st0" d="M102.9,292.3c-2.9-4.6-26-51.1,3.1-63.7c29.1-12.6,52.8,25.8,62.5,52.1"/>
		<path class="st0" d="M132.1,358.9c9.1,37.8,32,67.7,56.8,58.5c24.9-9.1,26-38.5,5.1-74.8"/>
	</g>
	<g id="E">
		<path class="st2" d="M61.7,413.4c11.4-15.3,30.3-53.4,5.3-73c-23.8-18.7-63,12.5-63.6,69.9c-0.3,37.4,79.7,129.4,147.3,96.4
			c31.3-15.3,57-71.6,23.3-93.6c-19.1-12.5-44,0.9-55.7,33.7"/>
		<path class="st0" d="M71.2,399.1c16.3-24.6,66-2.9,54.3,32.3"/>
	</g>
	<g id="fun">
		<path class="st5" d="M655.4,543.8c4.1-28.6,8.2-56.3,11.4-86.5c0.2-2.2,1-4.4,3.2-4.6c15.1-1.9,30.4-0.3,46.3,1.5"/>
		<path class="st5" d="M669.3,505.4c7.9,0.7,15.4,0.7,23.7,1.4c0.2,0,0.5,0.1,0.7,0"/>
		<path class="st5" d="M747.8,485c-36.4,102.8,58.6,101.4,52,2.2"/>
		<path class="st5" d="M833.3,581.4c2.3-25.5,5.7-53.3,11.4-78.3c4.7,2.1,29.2,55.7,39.5,84.3c4.8,0.7,20.3-81.7,24.5-117.8"/>
		<path class="st5" d="M661.2,608c46.9,1.7,184.7,23.2,208.4,32.8"/>
		<path class="st6" d="M838.8,645.4c6.1,2.2,3.2,7.4,8.2,8.8c1.6,0.4,2.1-4.5,6.3-3c3.8,1.3-0.9,9,1.7,12.2c3.3,4,2.8-1.9,7.2-0.9
			c7.8,1.9-5,27.4,1.7,27.9c2.5,0.2,5.9-13.8,5.5-21.8c-0.4-7.2,1.9-14,6.7-17.1L838.8,645.4z"/>
	</g>
	<g id="can_text">
		<g id="_x33_0_x2B_">
			<path class="st7" d="M212.5,612.1c-7-7.8-6.1-21.4,1.9-28.2c2.5-2.1,5.7-3.7,9-3.6c5.6,0.1,10.2,4.9,12.1,10.2
				c1.8,5.3,1.5,11.1,1.1,16.6c1.5-8.1,9.6-14.2,17.9-14.2s16.1,5.5,19.7,13s3.2,16.5-0.1,24.1c-4.2,9.5-14.3,17.1-24.4,15"/>
			<path class="st7" d="M232.4,554.9c-0.2,5.1,1.8,10.1,4.6,14.4c4,6.3,10.7,12.1,18.1,11c4.4-0.7,8.2-3.8,10.6-7.6
				c4.6-7.5,3.8-17.9-1.9-24.6C254.8,537.7,233,538,232.4,554.9z"/>
			<path class="st7" d="M247.8,511.4c6.3,5.9,13.2,11.1,20.7,15.3"/>
			<path class="st7" d="M250.5,529.6c2.8-7.1,7.7-15.4,12.5-21.3"/>
		</g>
		<g id="years">
			<path class="st8" d="M283.7,517.3c3.7,2.4,7.1,4.6,10.6,6.7c2,1.1,4.1,2.7,6.3,2.1c2.1-0.6,3.4-2.7,4.4-4.6
				c1.2-2.2,3.4-5.8,4.2-8.1"/>
			<path class="st8" d="M292.6,500.5c13.8,8.6,27.5,15.9,41.6,24.8c0.8,0.5,1.5,1.3,1.9,2.2c0.5,1.2,0.4,2.5,0.1,3.7
				c-0.8,3.4-2.6,5.3-4.5,8.2c-0.5,0.7-0.9,1.5-1.7,1.9c-2,1.4-4.7,0.4-6.8-0.9c-5-3.1-5.2-2.5-10.3-5.8"/>
			<path class="st8" d="M318.5,482.2c-2.6-1.8-5.3-3.4-8.1-4.9c-0.6-0.3-1.1-0.7-1.7-0.8c-1.5-0.2-2.6,1.2-3.4,2.4
				c-2.4,3.4-4.8,7.7-3.1,11.5c0.9,2,2.8,3.4,4.7,4.7c10.4,7.1,21.1,13.9,31.9,20.4c1.7,1,3.7,2.1,5.6,1.6c1-0.3,1.9-1,2.6-1.8
				c2.6-2.6,3.5-4.5,4.8-7.9c0.2-0.6,0.5-1.2,0.4-1.9c-0.1-0.9-0.9-1.6-1.6-2.2c-3.6-3-7.4-5.4-11.4-7.8"/>
			<path class="st8" d="M327,495.6c-1.4,2.1-2.6,4.1-3.6,6.1"/>
			<path class="st8" d="M360.4,496c-13.6-8.8-24.9-16.7-38.4-25.5c-2.1-1.4-4.4-2.9-5.1-5.3c-0.7-2.3-0.1-4.8,1-6.9
				c2.5-4.6,3.8-6.9,8.9-7.2c2.8-0.2,6.7,2.9,9,4.4c13.3,8.4,21.4,14.3,34.1,23.6"/>
			<path class="st8" d="M338.5,477.8c2.1-4.5,4.7-8.8,7.9-12.6"/>
			<path class="st8" d="M376.9,469.7c-14.3-9.8-26.6-18.4-41.7-27.1c-1.1-0.6-3-1.8-3.3-3.1c-0.2-0.9,3.6-8.1,5.1-10
				c0.7-0.9,1.4-1.8,2.5-2.2c1.9-0.9,4.2,0,6.1,0.9c5.5,2.6,10.6,5.8,15.4,9.5c0.8,0.6,1.6,1.3,1.9,2.2c0.3,0.9,0.1,1.8-0.2,2.7
				c-1.1,3.7-3.2,7-5.3,10.3"/>
			<path class="st8" d="M387,456c-5.3-3.7-10.6-7.4-15.9-11.1c-0.8-0.6-1.7-1-2.6-1.3c-3.2-0.9-6.2,0.6-6.7,1.9"/>
			<path class="st8" d="M367,408.1c-4-3-11.3-7.4-12.7-6.8c-0.9,0.4-2,1.2-2.5,2c-0.8,1.3-1.7,2.4-2.4,3.8c-0.7,1.5-1.6,2.7-1.7,4.4
				c-0.1,3.9,3.6,6.6,7,8.7c3.2,2.1,5.6,4,9,5.7c1.2,0.6,2.6,1.2,3.9,0.8c1.7-0.5,3.4-2.9,4.4-4.4c1.1-1.6,1.7-3.2,3.2-4.5
				c0.5-0.5,1.1-0.9,1.9-1.1c1.1-0.2,2.3,0.2,3.3,0.7c5.6,3.1,11.1,6.4,16,10.5c0.6,0.5,1.3,1.1,1.7,1.9c1.1,2.1-0.1,4.6-1.3,6.6
				c-0.8,1.4-1.6,2.7-2.8,3.8c-1.2,1.1-3.4,2.2-7.2,0c-3.9-2.3-6.6-3.7-10.1-6.4"/>
		</g>
		<g id="experience">
			<path class="st8" d="M308.4,629.4c-2.6-1.8-5.3-3.4-8.1-4.9c-0.6-0.3-1.1-0.8-1.7-0.8c-1.5-0.2-2.6,1.2-3.4,2.4
				c-2.4,3.4-4.8,7.7-3.1,11.5c0.9,2,2.8,3.4,4.7,4.7c10.4,7.1,21,13.9,31.8,20.4c1.7,1,3.7,2.1,5.6,1.6c1-0.3,1.9-1,2.6-1.8
				c2.6-2.6,3.5-4.5,4.9-7.9c0.2-0.6,0.5-1.2,0.4-1.9c-0.1-0.9-0.9-1.6-1.6-2.2c-3.6-3-7.4-5.4-11.4-7.8"/>
			<path class="st8" d="M316.8,642.9c-1.4,2.1-2.6,4.1-3.6,6.1"/>
			<path class="st8" d="M354.8,555.6c-2.6-1.8-5.3-3.4-8.1-4.9c-0.6-0.3-1.1-0.8-1.7-0.8c-1.5-0.2-2.6,1.2-3.4,2.4
				c-2.4,3.4-4.8,7.7-3.1,11.5c0.9,2,2.8,3.4,4.7,4.7c10.4,7.1,21,13.9,31.8,20.4c1.7,1,3.7,2.1,5.6,1.6c1-0.3,1.9-1,2.6-1.8
				c2.6-2.6,3.5-4.5,4.9-7.9c0.2-0.6,0.5-1.2,0.4-1.9c-0.1-0.9-0.9-1.6-1.6-2.2c-3.6-3-7.4-5.4-11.4-7.8"/>
			<path class="st8" d="M363.3,569.1c-1.4,2.1-2.6,4.1-3.6,6.1"/>
			<path class="st8" d="M393.5,496.1c-2.6-1.8-5.3-3.4-8.1-4.9c-0.6-0.3-1.1-0.8-1.7-0.8c-1.5-0.2-2.6,1.2-3.4,2.4
				c-2.4,3.4-4.8,7.7-3.1,11.5c0.9,2,2.8,3.4,4.7,4.7c10.4,7.1,21,13.9,31.8,20.4c1.7,1,3.7,2.1,5.6,1.6c1-0.3,1.9-1,2.6-1.8
				c2.6-2.6,3.5-4.5,4.9-7.9c0.2-0.6,0.5-1.2,0.4-1.9c-0.1-0.9-0.9-1.6-1.6-2.2c-3.6-3-7.4-5.4-11.4-7.8"/>
			<path class="st8" d="M402,509.5c-1.4,2.1-2.6,4.1-3.6,6.1"/>
			<path class="st8" d="M441.3,419.2c-2.6-1.8-5.3-3.4-8.1-4.9c-0.6-0.3-1.1-0.8-1.7-0.8c-1.5-0.2-2.6,1.2-3.4,2.4
				c-2.4,3.4-4.8,7.7-3.1,11.5c0.9,2,2.8,3.4,4.7,4.7c10.4,7.1,21,13.9,31.8,20.4c1.7,1,3.7,2.1,5.6,1.6c1-0.3,1.9-1,2.6-1.8
				c2.6-2.6,3.5-4.5,4.9-7.9c0.2-0.6,0.5-1.2,0.4-1.9c-0.1-0.9-0.9-1.6-1.6-2.2c-3.6-3-7.4-5.4-11.4-7.8"/>
			<path class="st8" d="M449.8,432.6c-1.4,2.1-2.6,4.1-3.6,6.1"/>
			<path class="st8" d="M304.3,611.3c5.9,3.8,11.4,7,17.3,10.8c0.4,0.3,0.8,0.5,1.3,0.6c0.8,0.1,1.5-0.3,2.2-0.6
				c3.6-2,7.1-3.9,10.7-5.9c0.8-0.4,1.6-0.9,2.5-0.9c1,0,1.9,0.5,2.7,1c6,3.4,12.9,7,18.6,11"/>
			<path class="st8" d="M312.4,597.4c5.4,3.7,9.2,5.6,14.6,9.3c1,0.7,2.1,1.5,2.7,2.6c0.6,1,0.6,2.2,0.7,3.4
				c0.2,4.4,0.5,8.7,0.7,13.1c0.1,0.9,0.1,1.9,0.6,2.7s1.4,1.3,2.2,1.7c5.8,3.1,10.8,6.2,16.9,10.3"/>
			<path class="st8" d="M366.7,616.8c-14.7-9.2-27.9-17.4-43-26.1c-1.1-0.7-3-1.8-3.3-3.1c-0.2-0.9,3.6-8,5.1-10
				c0.7-0.9,1.4-1.8,2.5-2.2c1.9-0.9,4.2,0,6.1,0.9c5.4,2.6,10.6,5.8,15.4,9.5c0.8,0.6,1.6,1.3,1.9,2.2s0.1,1.8-0.2,2.7
				c-1.1,3.7-3.2,7-5.3,10.3"/>
			<path class="st8" d="M396.2,568.3c-14.3-9.9-26.6-18.4-41.6-27.2c-1.1-0.7-3-1.8-3.3-3.1c-0.2-0.9,3.6-8,5.1-10
				c0.7-0.9,1.4-1.8,2.5-2.2c1.9-0.9,4.2,0,6.1,0.9c5.4,2.6,10.6,5.8,15.4,9.5c0.8,0.6,1.6,1.3,1.9,2.2s0.1,1.8-0.2,2.7
				c-1.1,3.7-3.2,7-5.3,10.3"/>
			<path class="st8" d="M406.2,554.7c-5.3-3.7-10.6-7.4-15.9-11.1c-0.8-0.6-1.7-1-2.6-1.3c-3.2-0.9-6.2,0.6-6.7,1.9"/>
			<path class="st8" d="M366.4,513.2c4.6,2.8,45.6,28,47.9,29.8"/>
			<path class="st8" d="M426.1,444.3c-2.6-1.8-5.3-3.4-8.1-4.9c-0.6-0.3-1.1-0.8-1.7-0.8c-1.5-0.2-2.6,1.2-3.4,2.4
				c-2.4,3.4-4.8,7.7-3.1,11.5c0.9,2,2.8,3.4,4.7,4.7c10.4,7.1,21,13.9,31.8,20.4c1.7,1,3.7,2.1,5.6,1.6c1-0.3,1.9-1,2.6-1.8
				c2.6-2.6,3.5-4.5,4.9-7.9c0.2-0.6,0.5-1.2,0.4-1.9c-0.1-0.9-0.9-1.6-1.6-2.2c-3.6-3-7.4-5.4-11.4-7.8"/>
			<path class="st8" d="M434.2,510.3c-13.5-9.1-30-19.1-43.5-28.2c-3.1-2.5,2.5-11.8,6.8-9.3c5,2.4,27,16.6,40.8,24.9
				c0.6,0.3,1.2,0.6,1.9,0.5c0.7-0.1,1.2-0.7,1.6-1.3c1.9-2.7,2.7-4.3,3.5-7.5c-13.9-10.1-29.8-19.8-44.5-28.8"/>
		</g>
		<g id="of">
			<path class="st9" d="M393.4,396.2c-0.3-0.2-1.2-1-3-1.3c-0.8-0.2-1.5,0.7-2,1.4c-1.4,2-2.8,4.5-1.8,6.7c0.5,1.2,1.7,2,2.7,2.7
				c6.1,4.1,12.3,8.1,18.5,11.9c1,0.6,2.2,1.2,3.3,0.9c0.6-0.2,1.1-0.6,1.5-1c1.5-1.5,2-2.6,2.8-4.6c0.1-0.3,0.3-0.7,0.2-1.1
				c-0.1-0.5-0.5-0.9-0.9-1.3C410.9,407.1,395,397.1,393.4,396.2z"/>
			<path class="st9" d="M405.3,383.8c-1.5-1.1-3.1-2-4.7-2.9c-0.3-0.2-0.6-0.4-1-0.5c-0.9-0.1-1.5,0.7-2,1.4c-1.4,2-2.8,4.5-1.8,6.7
				c0.5,1.2,1.7,2,2.7,2.7c6.1,4.1,15.2,10.1,21.5,13.9"/>
			<path class="st9" d="M410.2,391.6c-0.8,1.2-1.5,2.4-2.1,3.6"/>
		</g>
	</g>
</g>
</svg>
