<?xml version="1.0" encoding="UTF-8"?><svg id="Layer_2" xmlns="http://www.w3.org/2000/svg" viewBox="0 0 266.9 97.7"><defs><style>.cls-1,.cls-2,.cls-3{fill:#fff;}.cls-1,.cls-4,.cls-5{stroke-width:5px;}.cls-1,.cls-4,.cls-5,.cls-3{stroke:#000;}.cls-1,.cls-4,.cls-3{stroke-linecap:round;stroke-linejoin:round;}.cls-4,.cls-5{fill:none;}.cls-5{stroke-miterlimit:10;}.cls-3{stroke-width:3px;}</style></defs><path class="cls-2" d="m45.35,15.42c101.6-2.6,129.5-2.2,144.2-1.9,64.8,1.5,67.3,23.3,67,35.8-.4,18.1-10.2,35-67,36.1-11.7.2-56.1.4-143.8-.8,0,0-17.3-4.9-17.3-33.9-.1-35.7,16.9-35.3,16.9-35.3Z"/><path d="m59.95,16.62c1.5.7.2,3.6,1.5,5.2s3.2,2.1,5.3,2,4.1-.5,6-1.2l4.5-1.5c1.4-.4,2.9-.8,4.3-.6,1.4.2,3.1,1.5,3.3,3,.3,1.6-1,3.1-2.6,3.7s-2.9.8-4.5.6c-1.4-.1-3.1-.3-4.5-.5-1.9-.2-3.9-.4-5.8.1-1.9.5-3.7,1.6-4.1,3.5s1.1,4.1,3,4c.5,0,.9-.2,1.4-.2,1.2-.1,2.4.8,2.7,2s-.3,2.5-1.4,3.1c-1,.5-2.2.3-3.3.5-2,.4-3.6,2-4.5,3.8s-1.1,3.9-1.4,5.9c0,0-1.5-2.7-2.2-7.3s-6.1-23.5-8.2-25.6,8.7-1.3,10.5-.5Z"/><path d="m79.25,48.82c1,0,2.1-.1,3-.6s1.6-1.4,1.6-2.4c0-1.2-1.1-2.1-2.2-2.5-1.5-.5-3.2-.4-4.6.4-1,.6-1.7,1.4-2.7,1.9-.7.3-1.4.5-2.1.6-2.6.6,1.2,1.8,1.9,2,1.6.4,3.4.6,5.1.6Z"/><path d="m63.35,62.22c1.8-.5,5.2-.3,4.8,1.9-.8,1.7-4.5.5-5.5,1.8-2.5,3.2.2,4.1,3.6,3.9,2.6-.2,6.6-2.3,7.1.7.5,3.2-4.5,2-6.4,4.2-1.8,2.1.6,4.8,10.3,5.1,6.2.2,11-3,13-.5,1.8,2.3-2.3,4.4-4.8,4.4-13.2-.4-23.4,1.8-36.1-.9,3.6-6.4,7.4-13.1,9.6-20.2.7-4.5.8.7,4.4-.4Z"/><path class="cls-5" d="m42.95,15.42c101.6-2.6,131.9-2.2,146.6-1.9,64.8,1.5,67.3,23.3,67,35.8-.4,18.1-10.2,35-67,36.1-11.7.2-58.5.4-146.2-.8"/><path class="cls-1" d="m42.85,84.62c-6.4-.5-13.6-17.3-14-34.5-.4-17.4,6.8-34.8,14.6-34.8,5.9,0,14.3,14.8,14.8,34.8.5,19.1-7.3,35.1-15.4,34.5Z"/><path d="m43.25,76.32c-4.2,0-9.3-13.3-9.6-26.5-.3-13.3,3.4-26.9,9.6-26.5,3.8.2,9.2,11.2,9.6,26.5.3,14.6-3,26.5-9.6,26.5Z"/><path class="cls-2" d="m42.85,64.02c-1.6,0-3.5-6.5-3.4-12.8,0-6.4,1.6-12.8,4-12.6,1.5.2,3.4,5.4,3.4,12.8,0,7-1.4,12.7-4,12.6Z"/><path class="cls-3" d="m12.75,51.32c-2,1.4-2.5,4.4-1.2,6.5,1.3,2.1,3.9,3.1,6.3,2.7,2.2-.4,4.3-2,4.6-4.2h17.5c5.5,0,5.1-10.2.2-10.2h-17.5c-.6-2.8-3.1-4.8-5.9-5.2-1.4-.2-2.8,0-4,.7s-2.1,1.9-2.4,3.2c-.4,1.9.5,4,2,5.2,1.5,1.3,3.5,1.8,5.5,1.8"/><path class="cls-3" d="m217.35,24.82c-3.4,1.1-9.1,12.7-9.4,24.1-.3,11.4,3.4,20.3,8.3,23.3,3,1.9,31.9,2,33.1-22.6,1.2-22.2-27.3-26.4-32-24.8Z"/><path class="cls-4" d="m126.05,41.92c7.5,5.1,14.7,10.6,21.6,16.5"/><path class="cls-4" d="m145.75,40.52c-5.4,6.3-11.9,13-18.4,18.2"/></svg>