<?xml version="1.0" encoding="utf-8"?>
<!-- Generator: Adobe Illustrator 27.7.0, SVG Export Plug-In . SVG Version: 6.00 Build 0)  -->
<svg version="1.1" id="Layer_2" xmlns="http://www.w3.org/2000/svg" xmlns:xlink="http://www.w3.org/1999/xlink" x="0px" y="0px"
	 viewBox="0 0 202.4 558.8" style="enable-background:new 0 0 202.4 558.8;" xml:space="preserve">
<style type="text/css">
	.st0{fill:none;stroke:#000000;stroke-width:7;stroke-miterlimit:10;}
	.st1{fill:none;stroke:#000000;stroke-width:5;stroke-linecap:round;stroke-linejoin:round;stroke-miterlimit:10;}
	.st2{fill:none;stroke:#000000;stroke-width:11;stroke-linecap:round;stroke-linejoin:round;stroke-miterlimit:10;}
	.st3{fill:#FFFFFF;stroke:#000000;stroke-width:5;stroke-linecap:round;stroke-linejoin:round;stroke-miterlimit:10;}
	.st4{fill:#FFFFFF;stroke:#000000;stroke-width:2.9805;stroke-linecap:round;stroke-linejoin:round;stroke-miterlimit:10;}
</style>
<path class="st0" d="M198.9,114.7c1.2,65.2-48.7,118-87.1,120.3C61.5,235.6,3.5,179.9,3.5,114.7C5.1,41.9,29.9,12.5,93.7,4.6
	C162.6-4.4,197.6,43,198.9,114.7z"/>
<path class="st1" d="M110.8,237.3c0.8,3.8-0.6,7.9-3.4,10.6"/>
<path class="st1" d="M119.8,236.2c-0.8,4.1,0.3,8.5,2.8,11.7"/>
<path class="st1" d="M122.7,246.5c3.6,0.8,6,1.3,6,3.6c0,3.2-6.1,4.4-13.6,4.4s-13.6-1.2-13.6-4.4c0-2.1,2.6-2.9,6.4-3.7"/>
<path class="st1" d="M107.6,241.3c4.3,0.9,8.7,1.1,13,0.7c0.7-0.1,1.3-0.1,1.9-0.4c0.1,0,0.2-0.1,0.2-0.2s-0.2-0.1-0.2,0"/>
<path class="st1" d="M115.2,257.2c0,10.8,0,24.2,0,37.9c0,8.8,0,18.2,0,27.9c0,8.4,0,17.1,0,26c0,18.7,0,38,0,57.2
	c0,21.5,0,42.8,0,62.5c0,23,0,43.9,0,60.6"/>
<path class="st2" d="M100.5,53.5c0.7,9.4,1.4,18.7,2.2,28.1"/>
<path class="st2" d="M123.3,51.7c1.2,8.9,2.1,17.8,2.8,26.8"/>
<path class="st2" d="M84.7,101.1c0.1,9.2,6.3,17.7,14.6,21.7c8.3,4,18.2,3.7,26.8,0.4c12.1-4.7,22.2-16.9,20.8-29.9
	c0.5-0.4,0.7,1,0.1,0.8"/>
<g>
	<defs>
		<path id="XMLID_00000152979680996925392350000011135057660165090432_" d="M48.2,548.7l17.2,6.5c0,0,108.1-10,115.4-10.7
			c8.3-2.2,7-19.6-2.5-19.5c-7.3,1-115.4,11.9-115.4,11.9l-15,9C46.8,546.5,46.9,548.2,48.2,548.7z"/>
	</defs>
	<use xlink:href="#XMLID_00000152979680996925392350000011135057660165090432_"  style="overflow:visible;fill:#FFFFFF;"/>
	<clipPath id="XMLID_00000107557415610736694080000015900587181787239297_">
		<use xlink:href="#XMLID_00000152979680996925392350000011135057660165090432_"  style="overflow:visible;"/>
	</clipPath>
	
		<use xlink:href="#XMLID_00000152979680996925392350000011135057660165090432_"  style="overflow:visible;fill:none;stroke:#000000;stroke-width:5;stroke-linecap:round;stroke-linejoin:round;stroke-miterlimit:10;"/>
</g>
<path class="st3" d="M63.6,537.4c-2.6,5.6-2.3,11.4,1.7,16.5"/>
<path class="st4" d="M140.5,529.9c-2.2,6.2-1.7,12.3,2.3,17.4"/>
<path class="st1" d="M132.1,556.3c0,0,29.8-2.5,32.8-3c3.6-0.6,3.8-4.8,3.6-7.6"/>
<path d="M55.1,543.3c-1.4,1.1-6.3,3.1-6.1,4.4c0.2,1.3,5.1,2.1,6.6,2.7C54.1,547.4,53.8,545.9,55.1,543.3z"/>
<path d="M142.3,528.6c1.5-0.2,32.8-3.1,35.9-3.4c11.9-1,10.4,18.4,0.9,19.3c-6.5,0.7-32.6,3.2-35,3.4
	C140.5,548.2,135.8,529.5,142.3,528.6z"/>
<path class="st1" d="M113.2,529.1c-2.4,3.7-3,17.9,2.4,23.3"/>
<path class="st1" d="M117.4,528.9c-3.5,2.1,1.2-11.8,10-15.5c4.9-2.1,9.7,1.4,7.3,6.4C132.2,525.1,120.5,527.1,117.4,528.9z"/>
<path class="st1" d="M112.8,530.4c3.9,1.3-4-11.1-13.4-12.8c-5.3-0.9-9.1,3.7-5.6,7.9C97.5,530.2,109.4,529.3,112.8,530.4z"/>
</svg>
