<?xml version="1.0" encoding="utf-8"?>
<!-- Generator: Adobe Illustrator 27.7.0, SVG Export Plug-In . SVG Version: 6.00 Build 0)  -->
<svg version="1.1" id="Layer_3" xmlns="http://www.w3.org/2000/svg" xmlns:xlink="http://www.w3.org/1999/xlink" x="0px" y="0px"
	 viewBox="0 0 983.8 744.6" style="enable-background:new 0 0 983.8 744.6;" xml:space="preserve">
<style type="text/css">
	.st0{fill:none;stroke:#000000;stroke-width:7;stroke-linecap:round;stroke-linejoin:round;stroke-miterlimit:10;}
	.st1{fill:none;stroke:#000000;stroke-width:12;stroke-linecap:round;stroke-linejoin:round;stroke-miterlimit:10;}
	.st2{fill:none;stroke:#000000;stroke-width:9;stroke-linecap:round;stroke-linejoin:round;stroke-miterlimit:10;}
	.st3{stroke:#000000;stroke-width:7.226;stroke-linecap:round;stroke-linejoin:round;stroke-miterlimit:10;}
	.st4{fill:none;stroke:#000000;stroke-width:10.6365;stroke-linecap:round;stroke-linejoin:round;stroke-miterlimit:10;}
</style>
<path class="st0" d="M319.5,45.6c-6.1,26-117.7,605.9-119.7,616.7c-2.3,12.1-4,18.6,4.5,20c6,1,53.5,10.6,60.4,11.3
	c8.5,0.8,11.4-3.3,14.4-9.3s6.6-12.6,8.5-16.7c4-8.5,8.8-15.8,24.3-13.8c11,1.4,75.8,10.5,82.7,11.6c17.5,2.8,20.2,8.6,23.7,17.2
	c2.5,6.2,7.4,19.5,9.9,25.7c3.7,9,4.8,13,16.4,15c11,1.9,57.9,9.8,66.4,11c8.2,1.1,10-4.4,11-16.4s71-672.7,71.7-683.9
	c1.1-16.7-8.5-22.9-23.4-23.7c-16.4-0.9-198.8,0.3-210.6,0.8C342.7,12,326.6,15.7,319.5,45.6z"/>
<path class="st0" d="M551.3,628.7c14.8,2.5,27.7,4.8,30.6,5.2c19.1,3,21.8,10.7,30,23.1c5.3,8.2,7.5,15.9,19.1,17.9
	c11,1.9,57.9,9.8,66.4,11c8.2,1.1,12.6-5.1,11-16.4c-1.7-11.9-92.6-627.1-94.3-638.1c-2.8-18-19.3-20.2-35.6-20.9"/>
<path class="st0" d="M700.6,686c11.9-1.4,24.4-4.8,21.3-24.9c-1.8-11.9-91.8-605.1-93.7-616.1c-4.8-26.6-20.1-32.5-40-33.6"/>
<path class="st0" d="M566.9,10.2c18.6,0,43.8,0.9,41.2,25.5C606,56.1,543.5,696.3,542,709.2c-2.4,20.7-11.4,23.7-27.4,25.2"/>
<path class="st0" d="M307.7,654.8c-4.4,8.5-9.6,19.6-14.4,29.2c-4.3,8.6-15.5,9.2-25.1,9.7"/>
<path class="st0" d="M380.3,34.1l153.6-0.7c3.5,0,6.2,3.2,5.5,6.7L530,85.8c-0.5,2.6-2.8,4.5-5.5,4.5l-154.8-0.4
	c-3.6,0-6.2-3.4-5.4-6.9l10.5-44.6C375.5,35.9,377.7,34.2,380.3,34.1z"/>
<path class="st0" d="M398.5,35.3l8.1,41.8c0.5,2.6,2.8,4.5,5.4,4.5L529.1,82"/>
<path class="st0" d="M413.9,35.3l6.9,34.7c0.5,2.6,2.8,4.5,5.4,4.5l104.3,0.4"/>
<path class="st0" d="M386.7,89.9c-3.6,0-6.2-3.4-5.4-6.9l10.5-44.6c0.6-2.5,2.8-4.3,5.4-4.3"/>
<path class="st1" d="M408.8,229.8L297.8,385c-5.5,7.7-0.5,18.4,8.9,19.2L490,419.4c9.1,0.8,15.8-8.4,12.2-16.9l-72.3-170.4
	C426.2,223.3,414.3,222,408.8,229.8z"/>
<path class="st2" d="M355.7,157c3-9-0.4-12.8-4.9-13.5c-5.3-0.8-12.4,6.3-16,18c-5.8,18.8-0.2,25.2,5.1,26.1
	c6.1,1,9.4-3.9,11.4-13.3"/>
<path class="st2" d="M362.1,188.4c4.5-15.2,9-28.2,15.2-42.4c3.6,14.5,5.2,28.6,7.9,43.3"/>
<path class="st2" d="M400.5,147.2c-2.2,12.7-4.7,25.6-2,38.3c2.2,6.6,10.8,6.9,14.5,1.3c3-4.5,5.9-24.2,7-38.9"/>
<path class="st2" d="M368.7,177.1c3.2,0.1,6.4,0.2,9.6,0.3c0.4,0,1,0.1,1.1,0.6"/>
<path class="st2" d="M432.7,146.5c4.8,0.2,9.7,0.4,14.5,0.6c1.8,0.1,3.7,0.1,5.5,0.2"/>
<path class="st2" d="M442.7,151.7c-1.6,13.7-2.5,25.8-4.1,39.6"/>
<path class="st2" d="M466.1,147.7c-1.5,15.2-2.9,29.9-4.3,45.1"/>
<path class="st2" d="M508.4,195.3c2.2-14.1,3.5-31,5.7-45.1c6.4,13.5,9.8,31.4,15.4,46.6c2.6-15.9,5.3-32.3,7-46.7"/>
<path class="st2" d="M483.7,149.7c-3.1,3.5-4.4,8.2-5.2,12.8c-1.1,6-1.4,12.2-1,18.3c0.2,3.2,1.3,8.4,3.1,11.1
	c1.8,2.7,5.2,4.6,8.2,3.6c3.4-1,6-5.3,7.1-8.7c2.3-7.7,2.3-16,2.5-24.1c0.1-2.8-0.4-6.7-1.3-9.4C495,147.2,488.4,144.4,483.7,149.7z
	"/>
<path class="st3" d="M404.3,299.5c0.8-2.8,1.7-5.6,3.3-7.6s4.1-2.6,5.7-0.8c1.2,1.4,1.5,3.8,1.5,6.1c0.2,5.6-0.6,11.2-1.6,16.7
	c-1.4,7.9-3.2,15.6-5.5,23.2c-1.3,4.4-3.5,12.2-7.2,10.8C396.9,346.4,400.7,312.7,404.3,299.5z"/>
<path class="st4" d="M400,364.9c-6.4-0.1-4.6,9.6,1.2,6.6C403.7,369.2,403.2,365.5,400,364.9z"/>
<path class="st1" d="M320.8,471.2c7.4,1.1,12.5,1.5,16.8-3.3c4.3-4.8,5.4-12.4,2.6-18.2c-0.6-1.3-1.4-2.5-2.5-3.5
	c-1.2-1.1-2.8-1.9-4.4-2.4c-3.7-1.2-8.5-0.3-12,1.5c-1.9,15.8-4.2,31.6-6.8,47.3c1,2.1,3.1,3.3,5.3,3.9c2.2,0.6,4.5,0.5,6.8,0.2
	c1.2-0.1,2.5-0.3,3.7-0.7c3.1-1.2,5.2-4.3,6.4-7.4c1.2-3.3,1.6-7,0.4-10.3c-1.2-3.3-5.5-6.4-14.7-6.7"/>
<path class="st1" d="M362.9,452.4c-2.5,2.8-3.7,6.5-4.6,10.1c-1.8,7-2.6,14.3-2.5,21.6c0,3.2,0.3,6.6,1.7,9.5
	c1.4,2.9,4.2,5.4,7.4,5.5c2.8,0.1,5.5-1.6,7.3-3.8c1.7-2.3,2.7-5,3.4-7.8c1.8-6.3,2.9-12.9,3.4-19.5c0.2-3.5,0.3-7.1-0.7-10.4
	C376.2,449.8,369.1,445.4,362.9,452.4z"/>
<path class="st1" d="M400,453.8c-1.6,15.2-3.2,30.4-4.8,45.6c5.3,1,10.7,1.5,16,1.5"/>
<path class="st1" d="M301.4,525.6c-2.1,15.1-4.3,30.3-6.4,45.4c5.2,1.2,10.6,1.9,16,2.1"/>
<path class="st1" d="M334.7,529.3c-2.1,15.1-4.3,30.3-6.4,45.4"/>
<path class="st1" d="M427.7,504.9c0.8-4.8,4-26.7,7.2-46.2c5.7-7.1,23.5-4.3,20.1,23.5C451.8,508.9,441.6,508.8,427.7,504.9z"/>
<polyline class="st1" points="350.3,579.4 357,531.5 377.4,584.2 383.5,534 "/>
<polyline class="st1" points="422.4,538.9 404.4,537.6 397.7,585 415.8,586.8 "/>
<line class="st1" x1="414.3" y1="562.5" x2="405.3" y2="561.9"/>
<path class="st1" d="M457,550.9c1.1-2.9,0.3-6.4-1.8-8.6s-5.6-3-8.5-2c-5,1.7-7.1,7.7-7.5,12.9c-0.3,4.3,0.5,9.4,4.2,11.5
	c2.1,1.2,4.7,1.1,6.7,2.4c3,1.9,3.7,5.9,3.7,9.4c0,3.5-0.5,7.2-2.2,10.3c-1.7,3.1-4.1,4.9-7.6,5.3c-3,0.4-6.7-0.1-8.6-2.5
	c-1.9-2.3-2.5-5.6-1.6-8.5"/>
</svg>
