<?xml version="1.0" encoding="utf-8"?>
<!-- Generator: Adobe Illustrator 27.7.0, SVG Export Plug-In . SVG Version: 6.00 Build 0)  -->
<svg version="1.1" xmlns="http://www.w3.org/2000/svg" xmlns:xlink="http://www.w3.org/1999/xlink" x="0px" y="0px"
	 viewBox="0 0 55.8 56.4" style="enable-background:new 0 0 55.8 56.4;" xml:space="preserve">
<style type="text/css">
	.st0{display:none;}
	.st1{display:inline;fill:#FFFFFF;}
	.st2{display:inline;fill:none;stroke:#000000;stroke-width:7;stroke-linecap:round;stroke-linejoin:round;}
	.st3{display:inline;}
	
		.st4{fill:none;stroke:#000000;stroke-width:5;stroke-linecap:round;stroke-linejoin:round;stroke-miterlimit:10;stroke-dasharray:12.0086;}
	.st5{fill:none;stroke:#000000;stroke-width:7;stroke-linecap:round;stroke-linejoin:round;stroke-miterlimit:10;}
	.st6{display:inline;fill:none;stroke:#000000;stroke-width:7;stroke-linecap:round;stroke-linejoin:round;stroke-miterlimit:10;}
	.st7{display:inline;stroke:#000000;stroke-width:5;stroke-linecap:round;stroke-linejoin:round;stroke-miterlimit:10;}
	
		.st8{display:inline;fill:#FFFFFF;stroke:#000000;stroke-width:5;stroke-linecap:round;stroke-linejoin:round;stroke-miterlimit:10;}
	.st9{display:inline;fill:none;stroke:#000000;stroke-width:5;stroke-linecap:round;stroke-linejoin:round;stroke-miterlimit:10;}
	
		.st10{display:inline;fill:none;stroke:#000000;stroke-width:6;stroke-linecap:round;stroke-linejoin:round;stroke-miterlimit:10;stroke-dasharray:9.0067;}
	
		.st11{display:inline;fill:#FFFFFF;stroke:#000000;stroke-width:6.6669;stroke-linecap:round;stroke-linejoin:round;stroke-miterlimit:10;}
	.st12{display:inline;stroke:#000000;stroke-width:5.2082;stroke-linecap:round;stroke-linejoin:round;stroke-miterlimit:10;}
	
		.st13{display:inline;fill:none;stroke:#000000;stroke-width:5.2082;stroke-linecap:round;stroke-linejoin:round;stroke-miterlimit:10;}
	
		.st14{display:inline;fill:none;stroke:#000000;stroke-width:7.2914;stroke-linecap:round;stroke-linejoin:round;stroke-miterlimit:10;}
	
		.st15{display:inline;fill:#FFFFFF;stroke:#000000;stroke-width:7.2914;stroke-linecap:round;stroke-linejoin:round;stroke-miterlimit:10;}
	
		.st16{display:inline;fill:#FFFFFF;stroke:#000000;stroke-width:5.2082;stroke-linecap:round;stroke-linejoin:round;stroke-miterlimit:10;}
	.st17{fill:none;stroke:#FFFFFF;stroke-width:5.2082;stroke-linecap:round;stroke-linejoin:round;stroke-miterlimit:10;}
	.st18{fill:none;stroke:#FFFFFF;stroke-width:3.1249;stroke-linecap:round;stroke-linejoin:round;stroke-miterlimit:10;}
	
		.st19{display:inline;fill:#FFFFFF;stroke:#000000;stroke-width:7;stroke-linecap:round;stroke-linejoin:round;stroke-miterlimit:10;}
	
		.st20{display:inline;fill:#FFFFFF;stroke:#000000;stroke-width:4.9996;stroke-linecap:round;stroke-linejoin:round;stroke-miterlimit:9.9997;}
	
		.st21{display:inline;fill:#FFFFFF;stroke:#000000;stroke-width:6.8393;stroke-linecap:round;stroke-linejoin:round;stroke-miterlimit:10;}
	.st22{display:inline;fill:none;stroke:#000000;stroke-width:7;stroke-miterlimit:10;}
	.st23{display:inline;stroke:#000000;stroke-width:0.5798;stroke-miterlimit:10;}
	.st24{display:inline;stroke:#000000;stroke-width:0.6254;stroke-miterlimit:10;}
	.st25{display:inline;fill:none;stroke:#000000;stroke-width:3;stroke-linecap:round;stroke-linejoin:round;stroke-miterlimit:10;}
	.st26{fill:none;stroke:#000000;stroke-width:5;stroke-linecap:round;stroke-linejoin:round;stroke-miterlimit:10;}
	
		.st27{display:inline;fill:none;stroke:#000000;stroke-width:2.5869;stroke-linecap:round;stroke-linejoin:round;stroke-miterlimit:10;}
	.st28{display:inline;stroke:#000000;stroke-width:3;stroke-linecap:round;stroke-linejoin:round;stroke-miterlimit:10;}
	.st29{stroke:#000000;stroke-width:5;stroke-linecap:round;stroke-linejoin:round;stroke-miterlimit:10;}
	.st30{fill:none;stroke:#FFFFFF;stroke-width:5;stroke-linecap:round;stroke-linejoin:round;stroke-miterlimit:10;}
	.st31{fill:none;stroke:#FFFFFF;stroke-width:4.2881;stroke-linecap:round;stroke-linejoin:round;stroke-miterlimit:10;}
	.st32{display:inline;fill:none;stroke:#000000;stroke-width:15;stroke-linecap:round;stroke-linejoin:round;stroke-miterlimit:10;}
	.st33{fill:#FFFFFF;stroke:#000000;stroke-width:7;stroke-linecap:round;stroke-linejoin:round;stroke-miterlimit:10;}
	.st34{fill:none;stroke:#000000;stroke-width:6.9994;stroke-linecap:round;stroke-linejoin:round;stroke-miterlimit:10;}
	.st35{display:inline;stroke:#000000;stroke-width:3.517;stroke-linecap:round;stroke-linejoin:round;stroke-miterlimit:10;}
	.st36{display:inline;fill:none;stroke:#000000;stroke-width:20;stroke-linecap:round;stroke-linejoin:round;stroke-miterlimit:10;}
	
		.st37{display:inline;fill:none;stroke:#000000;stroke-width:21.283;stroke-linecap:round;stroke-linejoin:round;stroke-miterlimit:10;}
	
		.st38{display:inline;fill:none;stroke:#000000;stroke-width:20.5052;stroke-linecap:round;stroke-linejoin:round;stroke-miterlimit:10;}
	
		.st39{display:inline;fill:none;stroke:#000000;stroke-width:7.449;stroke-linecap:round;stroke-linejoin:round;stroke-miterlimit:10;}
	.st40{display:inline;stroke:#000000;stroke-width:7;stroke-linecap:round;stroke-linejoin:round;stroke-miterlimit:10;}
	.st41{fill:#FFFFFF;stroke:#000000;stroke-width:5;stroke-linecap:round;stroke-linejoin:round;stroke-miterlimit:10;}
	.st42{fill:none;stroke:#000000;stroke-width:3.532;stroke-linecap:round;stroke-linejoin:round;stroke-miterlimit:10;}
	.st43{stroke:#000000;stroke-width:1.7747;stroke-linecap:round;stroke-linejoin:round;stroke-miterlimit:10;}
	.st44{fill:none;stroke:#000000;stroke-width:3.5324;stroke-linecap:round;stroke-linejoin:round;stroke-miterlimit:10.0009;}
	.st45{fill:none;stroke:#000000;stroke-width:3.5322;stroke-linecap:round;stroke-linejoin:round;stroke-miterlimit:10.0005;}
	.st46{fill:none;stroke:#000000;stroke-width:3.5323;stroke-linecap:round;stroke-linejoin:round;stroke-miterlimit:10.0009;}
	.st47{fill:none;stroke:#000000;stroke-width:3.5321;stroke-linecap:round;stroke-linejoin:round;stroke-miterlimit:10.0001;}
	.st48{fill:none;stroke:#000000;stroke-width:3.5321;stroke-linecap:round;stroke-linejoin:round;stroke-miterlimit:10.0003;}
	.st49{fill:none;stroke:#000000;stroke-width:3.5322;stroke-linecap:round;stroke-linejoin:round;stroke-miterlimit:10.0006;}
	.st50{fill:none;stroke:#000000;stroke-width:3.5323;stroke-linecap:round;stroke-linejoin:round;stroke-miterlimit:10.0007;}
	.st51{fill:none;stroke:#000000;stroke-width:3.5322;stroke-linecap:round;stroke-linejoin:round;stroke-miterlimit:10.0004;}
	.st52{fill:#FFFFFF;}
	.st53{display:inline;stroke:#000000;stroke-width:3.0358;stroke-linecap:round;stroke-linejoin:round;stroke-miterlimit:10;}
	.st54{stroke:#000000;stroke-width:7;stroke-linecap:round;stroke-linejoin:round;stroke-miterlimit:10;}
	.st55{display:inline;stroke:#000000;stroke-width:5.3859;stroke-linecap:round;stroke-linejoin:round;stroke-miterlimit:10;}
	
		.st56{display:inline;fill:none;stroke:#000000;stroke-width:5.3859;stroke-linecap:round;stroke-linejoin:round;stroke-miterlimit:10;}
	.st57{fill:#FFFFFF;stroke:#000000;stroke-width:5;stroke-linecap:round;stroke-linejoin:round;stroke-miterlimit:10.0005;}
	.st58{stroke:#000000;stroke-width:1.9373;stroke-linecap:round;stroke-linejoin:round;stroke-miterlimit:10;}
	.st59{fill:#FFFFFF;stroke:#000000;stroke-width:4.9999;stroke-linecap:round;stroke-linejoin:round;stroke-miterlimit:10.0003;}
	.st60{display:inline;fill:none;stroke:#000000;stroke-width:9;stroke-linecap:round;stroke-linejoin:round;stroke-miterlimit:10;}
	.st61{display:inline;fill:none;stroke:#FFFFFF;stroke-width:9;stroke-linecap:round;stroke-linejoin:round;stroke-miterlimit:10;}
	.st62{fill:none;stroke:#FFFFFF;stroke-width:9;stroke-linecap:round;stroke-linejoin:round;stroke-miterlimit:10;}
	.st63{display:inline;stroke:#000000;stroke-width:9;stroke-linecap:round;stroke-linejoin:round;stroke-miterlimit:10;}
	.st64{display:inline;fill:none;stroke:#FFFFFF;stroke-width:5;stroke-linecap:round;stroke-linejoin:round;stroke-miterlimit:10;}
	.st65{display:inline;stroke:#FFFFFF;stroke-width:9;stroke-linecap:round;stroke-linejoin:round;stroke-miterlimit:10;}
	.st66{display:inline;fill:none;stroke:#FFFFFF;stroke-width:7;stroke-linecap:round;stroke-linejoin:round;stroke-miterlimit:10;}
</style>
<g id="Decorative" class="st0">
	<g id="Pointing_Hand">
		<path class="st1" d="M3.7-98.6C-15.8-95.4-64.6-53.2-66-7.3c-0.8,25.8,24.5,41,28.7,46c1.8,7.2-2.8,75.9,0.1,98.3
			c2.1,16.4,13.8,41.3,27,40.9c14-0.4,19.9-13.7,19.9-27.7s-3.5-34.4-3.5-42.5S5,74,5.9,70.7c5.5,1.4,11.6,9.3,19.3,8.8
			c6.9-0.5,12.8-8.2,18.4-9.6c4.3-1,7.4,10.4,18.6,12.2c8.3,1.3,15.7-9.8,18-9.8c5.4,0,8,11.6,20.6,8.9
			c21.2-4.5,19.5-41.5,18.1-52.3s-6.4-64.4-10.5-77.2C103.5-63.4,92.9-84,69.7-90.5C56.7-94.2,20.7-101.3,3.7-98.6z"/>
		<path class="st2" d="M11.3-49.4C8.1-31.9-3.6-16.1-19.5-8.1C-9-2.5-0.2,6.1,5.7,16.4c3.5,6.1,5.9,13.5,3.4,20
			C5.5,45.5-6.3,48.5-16,47c-17.7-2.7-32.4-15.6-42.1-30.7c-3.5-5.4-6.5-11.3-7.5-17.7C-67.1-9.8-65-18.6-62-26.8
			c7.2-20.1,19.3-38.4,35-52.9c8.6-8,18.5-14.9,29.7-18s48.9-1.4,74.8,11.1c28.8,15.2,36.1,38.4,40.6,115.4"/>
		<path class="st2" d="M5.6,69.4c-2.9,26.6,4.3,53.3,3.8,80c-0.1,6-0.6,12.2-3.2,17.7S-1.3,177.2-7.3,178
			c-9.6,1.2-17.5-7.6-21.7-16.4c-8.3-17.5-9-37.6-9.1-56.9c-0.1-21.2,0.5-42.4,1.7-63.6"/>
		<path class="st2" d="M1.4,44.8c-0.5,6.7-0.2,12.5,2.1,18.8s6.8,12.1,13.1,14.5c10.5,4.1,22.8-2.4,28.6-12
			c5.9-9.6,6.7-21.4,6.3-32.6c-0.3-9.1-1.3-18.6-6.1-26.4S31.1-6.2,22.3-3.8C13.2-1.3,8,8.4,6.8,17.8"/>
		<path class="st2" d="M45.2,66.5c2.5,7.1,7.6,14.2,15,15.5c7.9,1.4,15.5-4.5,19.8-11.2c9.6-15.1,8.3-35.3,0.8-51.5
			c-3.1-6.8-7.6-13.4-14.4-16.4S50.1,2.1,47.3,9"/>
		<path class="st2" d="M80.5,69.9c2.5,7.1,5.9,10.8,13.4,12c7.9,1.4,15.5-4.5,19.8-11.2c9.6-15.1,8.3-35.3,0.8-51.5
			c-3.1-6.8-7.6-13.4-14.4-16.4s-17.8-0.1-20.6,8.3"/>
	</g>
	<g id="Newsletter">
		<g id="dotted_line" class="st3">
			<path class="st4" d="M-60.9-9.3c-46.5,11.7-69.3,63-26.4,93.5c63.4,34,69.8-50.6,152.8-44.9c58.5,0.6,82.9,54.4,62.8,80.3
				c-40.1,52-92.1-29-128.9,13.8c-12.6,14.6-17.2,24.8-17.1,40"/>
		</g>
		<g id="plane" class="st3">
			<polyline class="st5" points="154.1,-38.3 -72,19.7 -30.6,-24 164.5,-39.5 13.6,12.6 -3.8,3.4 			"/>
			<path class="st5" d="M-7.3-49.4l171.8,9.9l-139.4-31L-7.3-49.4c0,0,11.5,20.9,11.9,21.6"/>
		</g>
	</g>
	<g id="LinkedIn_NOT">
		<path class="st6" d="M-42.7-94.2c-10.2,66.7-43.6,167.5-62.4,209.9c53.7,27.9,82,39.6,142.8,57.3c12.6,4.3,61.2-18.8,68.3-28.6
			c18.4-40.4,48.6-136.7,55.7-182C94.2-50.3,18.9-71.8-42.7-94.2z"/>
		<path class="st6" d="M36.1,172.2c9.8,2,18.8-37.3,29.4-40c7.5-0.8,28.8,18.8,39.6,12"/>
		<path class="st7" d="M-14.5-4.8C-17.7,5.8-33,54-41.1,72.2c6.5,4.7,17.6,8.1,23.1,9c7.1-16.6,21.9-56,27.7-76.7
			C6.8,1-7.7-4-14.5-4.8z"/>
		<path class="st7" d="M23.3,9.2c-6.9,23.3-20.1,60.6-26.6,77c6.5,4.7,17.6,8.1,23.1,9c5.3-10.9,21.9-56,27.7-76.7
			C44.6,15,30.1,10,23.3,9.2z"/>
		<path class="st7" d="M43.5,27.2c2.9-1.8,9.4-9.7,28.8-3.7c36.8,11.6,12.4,52-0.8,90.3c-9.1-0.8-21.5-6.3-24.1-8.2
			C54,89.8,60,74,62.2,66c4.8-17.4,1.4-21.8-4.5-24.2c-6.8-2.7-15.1-1.1-18.7,4.1C34.8,50,43.5,27.2,43.5,27.2z"/>
		<path class="st7" d="M19.6-21.1c-2.4,7.4-9.1,12-17.8,9c-7.4-2.5-11.7-10.4-9.2-17.7c2.8-8.3,9.8-11.6,18.6-8.7
			C18.6-36,21.9-28.4,19.6-21.1z"/>
	</g>
	<g id="LinkedIn_00000150104747717848862800000002388172020763015823_">
		<path class="st6" d="M-57.2-66.5c4.2,110.2,1.1,161.2-43.6,235.3c9.3,0.5,20.4,1.4,31.8,1.4c6.7-7.3,11.7-16.4,19.1-34.4
			c1.8,0,20.1-1.2,25.9-1c-4.8,17.3-12.6,27.8-19.1,37.5c8.6-0.1,21.5,0.3,30.5,0c8.5-9.3,13.6-21.4,18.4-38
			c5.2-0.2,26.3-0.9,31.5-1.2c-3.5,17.1-12.3,28.1-17.6,37.1c12.9-0.8,26.6-1,34.9-2.8c5.2-9.7,13.1-21.3,15.4-36.4
			c5.9-0.4,27.3-2.7,32.6-3.1c-3.4,18.3-13,28.5-16.4,36.9c16.7-1.6,25.9-1.3,33.4-3c15.6-20.3,40.1-111.6,20.9-251.6
			C60.6-90.9,4.3-79.6-57.2-66.5z"/>
		<path class="st7" d="M-15.7-4.1c1,16.9-2.4,56.1-8.7,82.9c7.3,1.7,18.9,0.4,24.4-1.1c4.9-18,10.8-60.8,9.8-83.1
			C6.3-7.4-8.9-6.1-15.7-4.1z"/>
		<path class="st7" d="M24.2-6.6c0.8,25.7-3.8,63.1-8.7,82.9c7.3,1.7,18.9,0.4,24.4-1.1c4.3-14.2,10-61.6,9.8-83.1
			C46.1-9.9,30.9-8.6,24.2-6.6z"/>
		<path class="st7" d="M47.8,1.9C50.2-1,55.5-9.8,77.9-11.3c37.4-0.2,25.2,62.5,19.8,83.1c-9,3-22.3,2.9-25.2,2.3
			c4.2-18.7,5.8-33.2,6.1-41.6c0.8-18.2-7.3-23-13.7-22.8C57.7,10,50,14.9,47.6,21.2C44.4,26.8,47.8,1.9,47.8,1.9z"/>
		<path class="st7" d="M13.8-33.3c-0.7,7.9-6.2,14.9-15.3,15.8c-7.8,0.7-13.7-4.9-12.9-12.8c0.9-8.9,6.9-14.9,16.1-15.8
			C9.5-46.8,14.4-41.2,13.8-33.3z"/>
		<line class="st6" x1="43.1" y1="-66.5" x2="22.9" y2="-78.5"/>
		<path class="st8" d="M26.9-89.8c5.1,1.7,7.4,6.7,4.2,14.3c-2.6,6.3-8.5,9.4-13.7,7.3c-4.5-1.8-6.2-6.9-3.6-12.9
			C16.5-87.1,21.1-91.8,26.9-89.8z"/>
		<path class="st9" d="M55.6-73.9c-7.8,4.2-13,12.9-13,21.8"/>
		<path class="st9" d="M43.5-63.7c-3.7-0.4-7.7,1.5-9.6,4.6"/>
		<path class="st9" d="M45.6-69c-1.2-2-1.5-4.5-0.8-6.7"/>
		<path class="st10" d="M-71.3,114.8c26.2,1.1,70.4-0.4,106.9-1.8c36.6-1.4,78.7-4.1,105.9-7.4"/>
	</g>
	<g id="Cara">
		<path class="st11" d="M29,37.2c19.7,12.2,120.8,6.1,118-72c-1.8-50.9-68.5-62-110-52.7C-0.7-79.1-54.9-56.9-64.7,36.2
			c-14.2,135.6,186.4,171.2,211.3,78.9c15.1-56.2-54-76.2-69-74.6"/>
	</g>
	<g id="instagram_NOT">
		<path class="st12" d="M114.5-74.3c0.3-2.9,0.8-5.1,6.2-6.8c6.5-2.1,34.7-2.6,41.2,2.9s6.5,33.2,1.8,40s-21.5,4.4-21.5,4.4
			L114.5-74.3z"/>
		<path class="st1" d="M131,34.2c-1.2-19.1-2.4-34.7-2.6-42.6c-0.2-5.3-2.2-17.4,7.4-22.4c9.7-5,15.6-8.3,19.4-11.8
			c3.2-2.9,3.2-22.5,0.6-27.1c-2.9-5-31.2-4.7-35.3-4.4c-4.1,0.3-4.2,1.6-8.8,2.4c-7.4,1.2-3.5-5.3-26.5-8.5
			C76.1-81.5-2-85.8-13-84.6c-16.3,1.7-29.5,4.4-36.6,13.5"/>
		<path class="st1" d="M130.1-2.3c5,3.2,28.2,21.5,28.2,27.1s-0.9,42.4-8.2,46.5c-8.5,4.7-86.8,33.5-93.8,33.2
			c-7.1-0.3-137.6-21.1-139.4-23.2c-3.2-3.8-6.5-16.5-7.6-26.2c-1.2-9.7-1.3-29.6,1.2-31.8c3.2-2.9,37.6-19.7,37.6-19.7
			c0-10.9-0.4-57.1,0-65.6c0.6-12.4,11.8-14.7,36.5-14.4c24.7,0.3,85.6,3.8,100.6,5.9s25.9,8,27.4,25c1.5,17.6,1.2,70.9,0.9,85.3"/>
		<path class="st13" d="M131,34.2c-1.2-19.1-2.4-34.7-2.6-42.6c-0.2-5.3-2.2-17.4,7.4-22.4c9.7-5,15.6-8.3,19.4-11.8
			c3.2-2.9,3.2-22.5,0.6-27.1c-2.9-5-28.2-4.9-32.4-4.6c-2.2,0.2-7,1.3-9,2c-5.7,2-2.6-2.6-16.1-5.9c-3.2-0.8-7.4-1.5-13.1-2.1
			C76-81.3-2-85.9-13-84.7c-16.3,1.8-29.5,4.5-36.6,13.6"/>
		<path class="st14" d="M130.1-2.3c5,3.2,28.2,21.5,28.2,27.1s-0.9,42.4-8.2,46.5c-8.5,4.7-86.8,33.5-93.8,33.2
			c-7.1-0.3-137.6-21.1-139.4-23.2c-3.2-3.8-6.5-16.5-7.6-26.2c-1.2-9.7-1.3-29.6,1.2-31.8c3.2-2.9,37.6-19.7,37.6-19.7
			c0-10.9-0.4-57.1,0-65.6c0.6-12.4,11.8-14.7,36.5-14.4c24.7,0.3,85.6,3.8,100.6,5.9s25.9,8,27.4,25c1.5,17.6,1.2,70.9,0.9,85.3"/>
		<path class="st14" d="M158.4,24.8c-13.5,6.8-85.3,30-91.8,30.6S-86.3,34.5-90.2,33.9"/>
		<path class="st14" d="M-89.6,23.3c3.8,0.3,142.6,20,154.7,19.4c5.6-0.3,40.6-14.7,47.6-17.9"/>
		<path class="st14" d="M65.1,42.7c1.5,5.9,1.2,52.6-6.5,60.3"/>
		<line class="st14" x1="-53.4" y1="4.5" x2="111" y2="22.1"/>
		<path class="st15" d="M-61.3,56.1c-23.8,11.6-50.6,61.4-49.4,98.4c31.2,4.7,87.6,13.5,123.8,19.1c-2.6-59.1,22.6-85.9,34.4-96.2"
			/>
		<path class="st12" d="M-44,58.1c-16.4,7.5-39.1,32.4-47.4,69.4c26.2,3.8,60.2,9,90.2,13.7c3.5-31,18.6-58.1,38-71.1"/>
		<polyline class="st14" points="-74,63.3 -74.3,53.6 50.4,71.3 49.6,86 41,85.1 		"/>
		<polygon class="st13" points="64.3,-57.9 65.4,-29.1 95.4,-25.2 94.5,-54.6 		"/>
		<polyline class="st13" points="94,-34.6 75.3,-36.8 74.5,-56.1 		"/>
		<path class="st13" d="M-34.5-16.2c2.2-1.1,4.2-1.7,6.1-1.7c3-0.1,5.4,1.9,5.9,5.4c0.5,2.8,0,5.6-4.2,7.1c-0.8,0.3-2,0.8-4.6,1.1"
			/>
		<path class="st13" d="M-26.3-11.1c0.3,3.5-1.6,6.5-4.9,6.7c-4,0.2-6.5-2.3-6.8-5.9c-0.3-3.5,2.4-6.1,5.6-6.4
			C-29.2-16.9-26.6-14.6-26.3-11.1z"/>
		<path class="st12" d="M62.4-10.4c3.2-1.6,6.1-2.4,8.9-2.5c4.3-0.2,7.8,2.7,8.7,7.8c0.7,4.1,0,8.2-6.2,10.3c-1.2,0.4-3,1.1-6.7,1.6
			"/>
		<path class="st16" d="M74.2-3.1c0.4,5.2-2.4,9.5-7.2,9.8c-5.8,0.3-9.5-3.4-9.9-8.5c-0.4-5.2,3.5-9,8.2-9.3S73.8-8.2,74.2-3.1z"/>
		<path class="st14" d="M19.6-2.3c12.9-3.2,21.6-5.2,27-9.4c8.1-6.3,10.5-15.3,9.7-25C55-53,44.5-65.1,25.5-64.2
			c-8.7,0.4-20.3,2.7-27.1,6.9"/>
		<path class="st14" d="M42.3-31.4c0,18.8-13,29.4-29,29.7C-4.8-1.4-15.1-16.8-15.1-33.2S-2.7-61,13.3-61S42.3-47.7,42.3-31.4z"/>
		<path class="st12" d="M40.2-20.4c-3.3,5.2-8.9,8-15.3,8.1C13.4-12.1,6.8-22.4,6.8-33.4S14.7-52,24.9-52c5.6,0,10.6,2.7,14,6.9"/>
		<polyline class="st13" points="5.5,-1.7 5.5,10.9 -28.3,30.6 		"/>
		<polyline class="st13" points="33.8,-2 34.1,14.5 17.3,36.2 		"/>
		<polyline class="st13" points="14.7,1.2 14.7,12.1 -11.8,32.7 		"/>
		<polyline class="st13" points="24.1,0.9 24.1,13.3 3.8,34.2 		"/>
		<line class="st13" x1="146.9" y1="-64.3" x2="124" y2="-52.1"/>
		<line class="st13" x1="65.4" y1="-29.1" x2="75.3" y2="-36.8"/>
		<path class="st13" d="M100.9-77.4c6.5,1.9,14.7,8.3,16.6,14.1"/>
		<g id="Layer_7" class="st3">
			<path class="st17" d="M-56.7,99.7c-2.1-1.4-2.8-4-2.8-6.5c-0.1-4.4,1.7-8.8,4.8-12c3.4-3.4,8-5.3,12.7-6.4
				c5.3-1.3,11-1.8,16.4-0.6c5.4,1.3,10.4,4.5,13,9.4c1.3,2.4,2,5.2,2.2,8c0.2,2.2,0.2,4.4-0.5,6.4c-1.2,3.7-4.5,6.4-8,7.9
				c-3.6,1.5-7.5,1.8-11.4,1.8c-1.1,0-2.3,0-3.1,0.8c-0.4,0.4-0.7,1-1,1.5c-1,2.2-1.8,4.6-2.4,6.9c-0.1,1.2-1,1.8-2.1,1.9
				c-3.5,0.9-12.4-1-18.5-2.4C-66.8,114.5-61.9,110.9-56.7,99.7z"/>
			<path class="st18" d="M-47.8,90.6c3.7-2.9,5.2-3.6,9.7-5"/>
			<path class="st18" d="M-45.7,84.2c2.1,3.3,3.3,4.1,4.4,7.9"/>
			<path class="st18" d="M-32.5,94.2c3.7-2.9,5.2-3.6,9.7-5"/>
			<path class="st18" d="M-30.4,87.7c2.1,3.3,3.3,4.1,4.4,7.9"/>
			<path class="st18" d="M-42.6,107.7c-1.6,3.3-2.9,6.8-3.9,10.4"/>
			<path class="st18" d="M-50.2,105.8c-1.7,3.3-3,6.7-4.1,10.3"/>
		</g>
	</g>
	<g id="Instagram">
		<polygon class="st6" points="-101.2,-54 -103.7,87 112.6,161.4 113.2,13.5 		"/>
		<polyline class="st6" points="-101.2,-54 -42.1,-74.8 161.8,-14.5 159.3,126.5 112.6,161.4 		"/>
		<line class="st6" x1="113.2" y1="13.5" x2="157.6" y2="-10.5"/>
		<path class="st8" d="M118-18.6c-0.7,5-10.5,6.7-20.5,4s-17.4-7.5-15.6-13.8c1.4-4.9,10.5-6.7,20.5-4
			C112.4-29.6,118.9-25.3,118-18.6z"/>
		<path class="st9" d="M82-28.4c-0.7,2.5-1.2,11.8-1.2,11.8c0.3,5,6.4,7.8,16.3,10.6c10,2.7,19.2,1,20.5-4c0.7-3,0.9-7.5,0.6-9.3"/>
		<path class="st8" d="M-27.5-59.8c-0.3,3.7-6.6,5.5-13.1,4.1C-47.1-57-52-60-51-64.7c0.8-3.6,6.6-5.5,13.1-4.1
			C-31.4-67.5-27.1-64.8-27.5-59.8z"/>
		<path class="st9" d="M-51-64.7c-0.4,1.9-0.5,8.7-0.5,8.7c0.3,3.6,4.3,5.3,10.8,6.6s12.5-0.5,13.1-4.1c0.4-2.2,0.4-5.5,0.2-6.8"/>
		<polygon class="st9" points="150.6,9.5 123.5,24.8 123.3,35.5 150.5,19.5 		"/>
		<polygon class="st9" points="67,16.4 99,26.2 98.5,52.6 66.1,43.1 		"/>
		<path class="st19" d="M-71,5.5C-56.7-0.4-36.2-8.1-24.8-9.4C5.9-13,35.7,12.6,39.5,49c3,28-9.2,55.2-30.8,65.3
			C0.6,118.1-29.9,128-48.8,129"/>
		<path class="st19" d="M6.4,51.6c8.5,34.1-10.1,68.1-41.5,75.9c-31.4,7.9-58.7-15.9-67.2-49.9c-8.5-34.1,5-65.6,36.4-73.5
			C-34.5-3.7-2.1,17.5,6.4,51.6z"/>
		<path class="st3" d="M-16.5,105.9c-4.4,3.3-9.5,5.8-15.1,7.2c-24.5,6.1-44.6-12.9-51.3-39.5c-6.7-26.6,2.7-50.7,27.2-56.8
			c9.2-2.3,18.5-1.4,26.9,2c0,0,21.1,10.3,25.9,37.7C3.1,90.5-16.5,105.9-16.5,105.9z"/>
		<path class="st6" d="M-2.5,53.9c7.1,28.7-8.5,57.3-35,64c-26.5,6.6-48.6-13.8-55.8-42.5c-7.2-28.7,3.4-54.9,29.9-61.5
			C-37,7.2-9.7,25.2-2.5,53.9z"/>
		
			<ellipse transform="matrix(1.795697e-02 -0.9998 0.9998 1.795697e-02 -45.3771 218.8551)" class="st20" cx="88.7" cy="132.5" rx="7.6" ry="6.2"/>
		
			<ellipse transform="matrix(1.795697e-02 -0.9998 0.9998 1.795697e-02 -56.0491 -118.088)" class="st20" cx="-88.1" cy="-30.5" rx="6" ry="4.8"/>
		<path class="st21" d="M-15.2,38.7C-8,49.8-4,83.9-15.9,99.8c-4.8-49-13.6-58.4-17.7-70.1C-30.9,28.6-17.7,35.9-15.2,38.7z"/>
	</g>
	<g id="Prints">
		<path class="st6" d="M96.7-90.5c1.6,47,8,133.7,32,231.9c-75.5,6.7-106.2,12-172.4,27.5c-14.4-39-29.6-141.4-29.6-230
			C-16.8-75.5,33.7-87.3,96.7-90.5z"/>
		<path class="st3" d="M-19.2-14.5c-2-0.6-4.9,0.7-5.2,3c-0.6,3.5-3.1,6.4-7,5.7c-3.6-0.7-5.7-4.6-6-8c-0.5-4.4,0.9-9.6,2.9-13.5
			c1.1-2,4.8-6.2,6.4-2.4c0.9,2.1,4,2.6,5.8,1.5c2.2-1.3,2.4-3.7,1.5-5.8c-3.2-7.5-13.1-6.8-18.1-1.7c-5.4,5.5-7.9,15.6-6.9,23
			c0.9,7.1,5.7,13.9,13,15.2c7.8,1.3,15.4-4,16.6-11.8C-15.9-11.5-16.8-13.8-19.2-14.5z"/>
		<path class="st3" d="M10.9-32.1C9.2-36.5,6-40,2.5-43.1c-0.9-0.8-1.9-1.1-2.9-1.1c-3-0.9-6.4,0.3-8.7,2.7c-2.9,3-4.1,7.1-4.7,11.1
			c-1.2,8.5-1,19.2,7.8,23.7c8.9,4.6,17.1-2.7,18.2-11.6C12.8-22.9,12.5-27.9,10.9-32.1z M-2.8-35.8C-2.6-36.6-2.2-35.3-2.8-35.8
			L-2.8-35.8z M-0.6-13.8c-5-0.4-5.4-7.3-5.3-11c0.1-2.3,0.3-4.6,0.9-6.8c0.3-1.1,0.7-2.2,1.3-3.2c0.1-0.2,0.8-0.8,0.8-1l0,0
			c0.5,0.5,1.1,0.8,1.7,0.9c2.7,2.8,4.7,5.9,5,10.2C4.1-21.8,4.4-13.4-0.6-13.8z"/>
		<path class="st3" d="M35.7-47C35.7-47,35.7-47.1,35.7-47c-2-4.5-7.9-3.7-11.3-1.8c-3.5,1.9-6.1,5.3-7.5,9
			c-1.7,4.6-1.7,9.8-1.1,14.7c0.6,4.8,2.6,8.3,6.6,11c3.7,2.6,7.4,3.6,11.6,1.3c3.8-2.1,6.8-6,7.8-10.2C43.7-30.6,41-40.9,35.7-47z
			 M32.4-22.5c-0.5,0.8-1.2,1.4-2,2c-1.2,0.9-0.8,0.9-1.9,0.3c-2-1.2-3.6-2.3-4.1-4.6c-0.6-2.6-0.6-5.4-0.4-8.1
			c0.2-2.2,0.8-4.6,2.1-6.4c0.6-0.8,1.3-1.5,2.2-1.9c0.1-0.1,0.5-0.2,0.8-0.3c2.8,3.1,4,7.5,4.5,11.6C34-27.4,33.9-24.7,32.4-22.5z"
			/>
		<path class="st3" d="M69.3-26.4c-3.3,1.2-6.6,2.2-10,2.9c-0.1,0-0.3,0-0.6,0.1v-0.1c-0.4-1.6-0.7-3.2-1-4.8
			c-1-7-1.5-14.1-2.3-21.1c-0.2-2.3-1.8-4.2-4.2-4.2c-2.1,0-4.5,2-4.2,4.2c1,9.1,1.2,18.8,3.4,27.7c1.1,4.3,3.4,7.7,8.4,7
			c4.3-0.7,8.6-2,12.8-3.5C76.6-20,74.4-28.2,69.3-26.4z"/>
		<path class="st3" d="M-0.6,53c-2.9-12.9-7.3-25.4-13.2-37.3c-0.9-1.9-2.9-2.3-4.7-2.1c-7.6,0.7-8.4,12.1-9.4,17.8
			c-1.5,8.6-2.3,17.3-2.2,26.1c0,5.5,8.5,5.8,8.5,0.3c0-3.3,0.1-6.6,0.3-9.8c3.1-1.6,6.4-2.5,9.9-3c1,3.3,1.8,6.7,2.6,10
			C-7.7,60.2,0.6,58.3-0.6,53z M-20.4,38.2c0.1-0.4,0.1-0.8,0.2-1.2c0.5-3.2,1-6.4,1.7-9.6c0.1-0.4,0.2-0.8,0.3-1.2
			c1.5,3.5,2.9,7,4.2,10.6C-16.3,37-18.4,37.5-20.4,38.2z"/>
		<path class="st3" d="M33.8,45.8C29.5,41,24.5,37.1,19,34c5.7-6.9,10.2-16.8,2.9-23.7C14,2.8,1.5,8.6-3,16.9
			c-1.8,3.4,1.2,6.7,4.1,6.6c1.2,7.7,2.7,15.4,4.4,23c-0.1,0.5-0.1,1.1,0.1,1.6c0.2,0.6,0.4,1.1,0.6,1.7c1.8,5,9.5,3.6,8.3-1.9
			c-0.6-2.5-1.1-5-1.7-7.6c5.6,2.8,10.5,6.7,14.7,11.3C31.2,55.7,37.5,49.9,33.8,45.8z M8.6,16.6c0.5-0.3,1-0.5,1.5-0.7
			c1.8-0.6,4.6-0.9,6,0.7c1.8,2.1,0.4,6-0.7,8c-1.2,2.2-2.8,4.1-4.5,5.8C10.1,25.8,9.3,21.2,8.6,16.6z"/>
		<path class="st3" d="M62.1,0.1c-10,1.4-19.9,3.4-29.7,6c-5.3,1.4-3.4,9.7,1.9,8.3c3.3-0.9,6.6-1.7,10-2.4
			c1.6,11.1,3.4,22.3,5.3,33.4c0.9,5.4,9.2,3.5,8.3-1.9c-1.9-11-3.6-22.1-5.2-33.1c3.8-0.7,7.6-1.3,11.4-1.8
			C69.4,7.6,67.5-0.7,62.1,0.1z"/>
		<path class="st3" d="M-4.3,117.7c-3.5-12.2-6.5-24.4-9-36.8c-1.1-5.4-9.3-3.1-8.2,2.3c1,5.1,2.1,10.1,3.3,15.1
			c-3.8,1.4-7.6,2.9-11.2,4.8c-1.3-5.6-2.5-11.2-3.8-16.7c-1.2-5.3-9.4-3.1-8.2,2.3c2.8,12.5,5.6,25,8.5,37.5
			c1.2,5.3,9.4,3.1,8.2-2.3c-0.9-4.1-1.8-8.1-2.7-12.2c3.6-2,7.4-3.7,11.3-5.1c1.2,4.5,2.4,9,3.7,13.4C-11,125.2-2.8,123-4.3,117.7z
			"/>
		<path class="st3" d="M25.4,110.3c-0.6-2-3.1-3.9-5.2-3c-2.5,1.1-5.1,2.1-7.6,3.2c-1.5,0.6-3.6,2-5.5,2.5c-0.9-1.9-1.4-6.7-1.7-8.1
			c-0.1-0.3-0.1-0.7-0.2-1c2.6-1,5.2-2,7.8-3c2.1-0.8,3.6-2.9,3-5.2c-0.6-2-3.1-3.8-5.2-3c-2.4,0.9-4.7,1.8-7.1,2.7
			c-0.1-0.6-0.2-1.1-0.3-1.7c-0.3-2.4-1.7-6.8-0.2-9c1.8-2.5,6-2.8,8.8-3.2c2.3-0.4,3.5-3.2,3-5.2c-0.7-2.4-2.9-3.3-5.2-3
			c-6.1,1-12.8,3.1-15.1,9.5c-1.1,3-0.4,6.2,0,9.3c0.5,3.6,1,7.2,1.6,10.7c0.6,3.4,1.3,6.7,2.1,10c0.7,2.9,1.5,6.2,4.2,7.9
			c3.2,2,6.6,0.2,9.6-1l10.1-4.2C24.5,114.6,26,112.7,25.4,110.3z"/>
		<path class="st3" d="M56.7,105.9c-4.3-3.8-8.9-7.3-13.6-10.6c5.5-5.5,7.8-13.9,4.1-21.6c-5.3-10.8-22.6-6.2-26.3,3.6
			c-1.1,2.8,0.9,4.8,3.3,5.1c2,9.5,3.9,19,5.9,28.6c1.1,5.4,9.3,3.1,8.2-2.3c-0.5-2.5-1-5-1.5-7.5c4.9,3.2,9.6,6.8,14.1,10.7
			C54.8,115.5,60.9,109.5,56.7,105.9z M34.9,76.4c3.1-0.9,4.6-0.1,5.4,3.1c1,4.4-1,8.8-4.6,11.2c-0.4-0.1-0.8-0.2-1.2-0.2
			c-0.9-4.3-1.8-8.7-2.7-13C32.9,77,34.1,76.6,34.9,76.4z"/>
		<path class="st3" d="M82.3,98.9c-1.2-2.2-3.7-2.5-5.8-1.5c-1.8,0.8-3.7,1.4-5.6,1.8c-0.6,0.1-1.5,0.4-2.3,0.4
			c0-0.1-0.1-0.2-0.1-0.3c-0.1-0.3-0.1-0.5-0.2-0.8c-0.6-2.3-1.2-4.7-1.7-7.1c2.3-0.6,4.6-1.2,6.8-2s3.6-2.9,3-5.2
			c-0.6-2.1-3-3.7-5.2-3c-2,0.7-4.1,1.3-6.1,1.8c-0.2-1.4-0.4-2.8-0.6-4.2c-0.1-1.1-0.2-2.2-0.3-3.2c0-0.5-0.1-1.1-0.1-1.6
			c0-0.1,0-0.1,0-0.2c0.4-0.2,0.8-0.4,1.2-0.6c0.8-0.4,1.7-0.7,2.5-1c1.9-0.6,3.8-1,5.8-1.2c5.4-0.4,5.5-8.9,0-8.5
			c-5.2,0.4-12.9,1.7-16.4,5.9c-2.2,2.6-1.6,6.1-1.3,9.2c0.3,3.4,0.9,6.8,1.5,10.2c0.6,3.2,1.3,6.4,2,9.5c0.6,2.8,1.1,6.1,3.2,8.2
			c4.6,4.7,13.2,1.1,18.2-1.1C82.8,103.7,83.3,100.7,82.3,98.9z"/>
		<path class="st3" d="M94.7,82.9c-1.6-9.2-3-18.3-4.3-27.5c-0.3-2.3-3.2-3.5-5.2-3c-2.4,0.7-3.3,2.9-3,5.2
			c1.3,9.2,2.8,18.4,4.3,27.5C87.4,90.5,95.6,88.2,94.7,82.9z"/>
		<path class="st3" d="M98.7,98.4c-0.5-2-2.3-3.6-4.4-3.8c-1.5-0.4-3-0.1-4.3,0.6c-1.3,0.7-2.1,2.2-2.1,3.7c0,1.6,0.6,3.4,1.9,4.5
			c1.1,0.9,2.2,1.4,3.5,1.5c1,0.1,2-0.2,2.9-0.7C98.2,103,99.2,100.6,98.7,98.4z"/>
	</g>
	<g id="Clothing">
		<path class="st6" d="M-49.8-23.6c2,26.3,2.9,55.7,2.9,83.5c0,27.7-4.7,72.4-5,77.4s-2.5,12.1,0,16.7s35.6,18.6,79.5,17.9
			c43.9-0.6,77.9-14.4,80.1-22.6c1.7-6.2-0.2-19.3-0.9-25c-2-17.1-4.2-48.4-5.3-72.1c-0.6-14-1.2-37.8,1.2-75.9"/>
		<path class="st6" d="M101,19.1c7,0,42.7-6.5,43.6-15.8S130-58.9,124.7-67.5c-11.1-18.3-43.4-24.7-59.8-25
			c-3.4,1.1,3.8,31.1-30.5,31.1c-39,0-34.9-29.8-41.2-29.9c-9-0.1-45.8,5-59.9,22C-78.5-49.6-90.9-10.6-91.5,4.1
			c0,8.5,33.7,14.6,43.5,14.1"/>
		<path class="st9" d="M-17.3-91.4c0.6,10.9,12.1,44,50.4,43.4c38.4-0.6,43-31.1,42.7-43.4"/>
		<path class="st9" d="M5.5,54.1C-1.6,51.3-6.9,45-9.7,37.9s-3.1-14.9-2.1-22.5C-11,9.3-9.4,3.1-5.7-1.9c4.4-5.9,11.2-9.5,17.9-12.3
			c7.6-3.2,15.3-4.1,23.5-4.1s16.9,1,22.7,6.8c4.9,4.9,7.4,11.7,9.1,18.4c1.9,7.5,2.9,15.3,1.4,22.9c-1.5,7.6-5.7,14.8-12.4,18.7
			c-1.2,0.7-2.5,1.3-3.2,2.5c-0.6,1-0.6,2.3-0.6,3.5c0.1,4.8,0,9.6,0.3,14.5c0.2,3.4-1.7,5.2-3.3,6.1C39.5,81,26.3,83,14.6,80.6
			C2.2,78,6.1,74.1,5.5,54.1z"/>
		<path class="st9" d="M22.4,7.4C15.2,13.1,9.2,20.3,5,28.4"/>
		<path class="st9" d="M4.4,8c6,5.5,11.5,11.5,16.4,18"/>
		<path class="st9" d="M34.2,8c7.6,5.2,14,11.9,18.8,19.7"/>
		<path class="st9" d="M52.2,7.4C46.6,13.3,41.5,19.7,37,26.5"/>
		<path class="st9" d="M19,58.7c0,6.8,0,13.6,0,20.3"/>
		<path class="st9" d="M38.8,55.8c0.6,7.7,0.8,15.4,0.6,23.1"/>
		<path class="st6" d="M-6.8-91.3C6-92,9.5-88.2,31.6-88c18.1,0.2,20.5-5,33.3-4.5"/>
	</g>
	<g id="Objects">
		<path class="st22" d="M19.4-73.5c-82-11.7-129.2,65.9-128.2,103.2c1,40.8,20.6,85.7,47.1,99.7c18.7,9.8,63.8,20.1,108.5,14.3
			c44.7-5.9,121-39.3,117.9-91.4C161.9,3.7,101.2-61.7,19.4-73.5z"/>
		<ellipse class="st22" cx="19.8" cy="38.4" rx="33.5" ry="33.3"/>
		<ellipse class="st22" cx="-65.7" cy="42.4" rx="24.6" ry="31.8"/>
		<ellipse class="st23" cx="21.4" cy="49.4" rx="16.5" ry="16.6"/>
		<ellipse class="st24" cx="-66.8" cy="51.8" rx="15" ry="16.1"/>
		<path class="st9" d="M-43.3-42.6c1.3-0.3,2.8-0.2,4.1,0.4c1,0.5,1.9,1.3,2.8,2c3.4,2.6,7.4,4.2,11.7,4.6"/>
		<path class="st9" d="M45.9-56.2c-0.5,1.6,0.3,3.5,1.9,4.1c1.5,0.6,3.5-0.1,4.2-1.6"/>
		<path class="st9" d="M-64.4,112.9c5,2.7,9.5,6.5,13,11"/>
		<path class="st9" d="M90.9,90.5c-0.8-2.8,1-5.9,3.4-7.5s5.5-2.1,8.3-2.6c0.6-1,1.3-2,2.1-2.8"/>
		<path class="st9" d="M143.1,59.1c-0.3-1.9,0.5-3.8,1.9-5c0.6-0.5,1.2-0.9,1.6-1.5c1.1-1.7-0.2-3.9-1.6-5.4"/>
		<path class="st9" d="M75.3-17.2c6.8,5.3,15,8.5,23.1,11.5"/>
		<path class="st9" d="M82.9,9.5c1.2,2.4,5,2.7,5.8,5.2c0.3,1.2-0.1,2.6-0.1,3.8c0.1,2.3,2,4.3,4.2,5c2.2,0.8,4.6,0.7,6.9,0.6"/>
		<path class="st9" d="M1-63c1.4-1,2.9-2.1,4.3-3.1"/>
		<path class="st9" d="M-74.9-16.3c-1.6,1.7-4.3,1.8-6.5,1c-2.1-0.8-3.9-2.4-5.6-4"/>
		<path class="st9" d="M-97.9,79.6c1.4,2,2.9,4.2,5.2,5c1.4,0.5,3,0.4,4.4,0.7c1.4,0.2,3,1,3.5,2.4"/>
		<path class="st9" d="M61.5,132.8c3.5,2.7,7.6,4.5,11.9,5.2"/>
		<path class="st9" d="M14.5,96.8c3.1,2,6.7,4.2,10.3,3.2c1-0.3,2.2-0.8,3.1-0.3"/>
	</g>
	<g id="Toys">
		<path class="st6" d="M41.2-59.5c0-0.7,0.1-1.4,0.5-2s1.1-0.9,1.8-1.2c7.2-3.2,11-12,9.4-19.7s-7.8-14-15.1-16.8
			c-6.4-2.4-13.9-2.3-20.1,0.5c-6.2,2.8-11.2,8.6-12.8,15.3C3.3-76.7,5.2-69.2,10-64.3c0.7,0.8,1.6,1.5,2,2.5
			c0.4,0.9,0.4,1.9,0.4,2.8c0,1.7,0.1,3.4,0.1,5c0,1.2,0.1,2.4,0.6,3.4c0.9,1.5,2.8,2.1,4.4,2.5c3.9,1,7.8,2,11.9,2
			C32.5-46,37.2-47,40-48.7C42.6-50.1,41.4-53.5,41.2-59.5z"/>
		<path class="st6" d="M17.6-46.9c-1.1,3.7-2.6,5.8-6.3,6.8"/>
		<path class="st6" d="M38.5-47.6c-0.8,3.8,2,6.8,5.9,7.6"/>
		<path class="st6" d="M47.8-42c-1.2,1-2.2,2.3-3,3.7c-3.8,6.1-6.5,12.9-7.8,20c-0.2,1.2-0.4,2.5-0.9,3.6c-1.9,4-7.3,4.7-11.8,4.8
			c-1.8,0-4,0-5-1.5c-0.5-0.8-0.7-1.8-0.8-2.7c-1.1-8.7-3.5-17.4-7.1-25.4c-0.5-1.1-1.1-2.3-2-3.1c-0.9-0.7-2.1-1-3.3-1.2
			C1.5-44.3-3.4-42.5-6.5-39C-0.1-29.9,3.4-19.2,6-8.4C7.4-2.5,8.5,3.7,6.9,9.5c-1.7,5.8-7,11-13,10.6c1.2,5.1,3,8.7,5.5,12.6
			c0.4,0.6,1.8,2.8,6,1.2c3.8-0.7,7.4-2.7,9.9-5.7c2.5-2.9,4.2-6.7,7.7-8.2c2.9-1.2,6.2-0.5,9,0.9c2.7,1.4,5.1,3.5,7.7,5.2
			c5.3,3.5,11.6,5.5,17.9,5.6c1,0,2,0,2.8-0.5c1-0.6,1.7-1.5,2.2-2.6c1.6-3,2.5-6.4,2.7-9.8c-7,2.6-15-3.2-17.1-10.4
			c-2.1-7.2,0.7-15.8,3.2-22.9c3-8.4,6.6-16.6,14.7-25.2C62-43.5,51.6-45.1,47.8-42z"/>
		<path class="st6" d="M64.2-38c3.5-3.8,8.4-5.4,14.2-5c5.1,0.4,7.7,4.1,9.8,7.7c2.7,4.6,4.5,9.2,3.6,13.6c-0.1,0.6-0.2,2.1,0,2.6
			c0.3,0.6,1.1,0.5,1.8,0.9c4.2,2,7,4.4,9,7.9s3.2,6.8,3.4,10.8c0,1.2,0.1,2.3,0.5,3.4c0.3,0.7,0.8,1.3,1.3,1.9
			c3.8,2.2,6.8,5.6,9.4,10.8"/>
		<path class="st6" d="M108.2,44.8c-4.6-2.5-7.7-5.2-11.7-11.3c-2.9-4.5-4.5-9.7-5.6-15c-0.1-0.6-0.3-1.3-0.6-1.8s-0.9-0.8-1.4-1.1
			c-8-5.1-14.2-13-17.2-22.1c-0.5,9.1-4.2,18.8-10.2,24.9"/>
		<path class="st6" d="M-4,19.2c-6.3-6.9-10-15.7-12.8-24.6c-0.3,4.8-1.7,9.7-4.5,13.7s-7,7-11.8,8c-1.1,9.1-8.4,18.4-25.1,19.4"/>
		<path class="st6" d="M-49.5-1.8c2-7.2,9.2-12.6,12.2-13.1c-0.8-6.7,1.8-13.9,7.1-18.1c5.3-4.2,12.4-5.7,18.1-2.5
			c2.1-1.8,3.5-1.8,5.6-1.9"/>
		<path class="st6" d="M52.8,34.8c-15,4-30.9,3.1-46.3,0.8c-1.6-0.3-3.4-0.4-4.6,0.6C1,37,0.8,38.3,0.6,39.5
			C0.1,43.1-0.1,46.7,0,50.4c0,0.8,0.1,1.7,0.4,2.5c1.2,2.6,4.8,2.6,7.5,3.1c7,1.4,11.8,8.3,13,15.4c0.4,2.3,0.5,4.8,1.9,6.7
			c2.4,3.4,7.5,3.5,11.6,3c1.1-0.1,2.1-0.2,3.1-0.8c2.8-1.5,2.8-5.4,3.2-8.6c1-8.2,7.1-15.6,14.9-18.1c1.3-0.4,2.8-0.8,3.7-1.9
			c0.4-0.6,0.6-1.2,0.8-2c0.8-3.5,0.3-8.3-0.8-11.6C58.3,35.3,57.2,33.6,52.8,34.8z"/>
		<path class="st9" d="M59.5,40.8c-2.4,2-5.8,2.2-8.9,3c-3.7,0.9-7,2.9-9.6,5.8c-1.7,1.8-3,4.1-5.2,5.3c-1.5,0.9-3.3,1.1-5.1,1.2
			c-3.1,0.1-6.4-0.2-8.8-2.1c-2.4-2-3.6-5.3-6.2-6.9c-2.4-1.5-5.4-1.4-8.2-1.4S2,45.3,0.3,43"/>
		<path class="st6" d="M59.6,51.7c10.5,3.7,18.6,13.5,20.3,24.5c1,6.6-0.1,13.6,2.3,19.8c2.2,5.6,6.9,9.9,10.2,14.9
			c3.9,5.9,5.8,12.9,5.5,20c-0.2,4.7-1.4,9.4-1.8,14.1c-0.4,4.8,0,9.8,2.8,13.7c2.7,3.9,7.8,7,7.3,11.7c-0.2,1.2-0.7,2.4-1.4,3.4
			c-2.4,3.5-6.6,5.7-10.8,5.7s-8.4-2.3-10.8-5.8c-2.9-4.4-2.9-10-4.5-15c-1.4-4.4-4-8.3-6.5-12.2c-5.5-8.5-11-17.5-11.5-27.6
			c-0.2-4.7,0.6-9.6-1.3-13.9c-1.8-4.2-5.7-6.9-9-10c-4.8-4.4-8.5-9.9-10.9-15.9"/>
		<path class="st6" d="M22.8,79.8c-0.9,5.6-5.2,9.9-9,14.1c-3.8,4.2-7.5,9.4-6.7,15c0.3,2,1.1,3.8,1.8,5.7
			c2.9,8.4,2.3,17.9-1.7,25.9c-2.4,4.8-6.1,9.7-4.8,14.9c0.4,1.5,1.2,2.9,1.5,4.4c0.9,5.3-5,9-9.9,11.3c-4.2,1.9-7.3,4.9-11.8,6
			c-2.5,0.7-5.2,0.8-7.7,0.1c-2.5-0.7-5.3-3.5-5.3-6.1c0.2-4.5,6.1-5.9,9.4-8.8c5.1-4.7,3.6-12.9,2.2-19.8c-1.6-7.6-2.4-15.6-0.1-23
			c0.8-2.8,2.1-5.5,2.3-8.4c0.2-2.7-0.6-5.3-1.1-8c-3.7-18.4,3.8-37.4,19.4-47.9"/>
		<path class="st9" d="M64.4,129.4c10.7,3.3,27.1-0.5,30.4-12.4"/>
		<path class="st25" d="M67.2,137.9c10.7,3.3,27.1-0.5,30.4-12.4"/>
		<path class="st9" d="M-19.2,126.1c9.2,3.3,22.3,4.2,28.9-3.5"/>
		<path class="st25" d="M-19.1,134.6c9.2,3.3,22.3,4.2,28.9-3.5"/>
		<path class="st6" d="M136.6,65.5c-4.8,13.8-10.3,21.6-16.2,20.4c-11.4-2.5-13.7-23.3-8.3-47.7c6.2-28.2,16.2-43,24.6-41.2
			c6.4,1.4,9.4,14.2,8.1,31.3"/>
		<path class="st6" d="M146.3,47.9c-2.2,10.3-5.7,18.1-9.3,17.4c-4.9-1-5.9-9.8-3.7-20.1c2.6-11.8,6.9-18.1,10.4-17.3
			C147.3,28.6,148.5,37.6,146.3,47.9z"/>
		<path class="st9" d="M123.9,84.7c-7.2-6.7-8.1-24.6-3.6-45.2c4.9-22.4,12.2-36.4,19.2-40.2"/>
		<g class="st3">
			<g>
				
					<ellipse id="XMLID_00000035512170180265652930000011673928177780478130_" transform="matrix(0.139 -0.9903 0.9903 0.139 -99.1679 -31.5205)" class="st26" cx="-67.7" cy="41.3" rx="4.6" ry="6.7"/>
			</g>
		</g>
		<path class="st6" d="M-64.3,17.6c2.5,0,5.2-0.2,6.9-1.9c2.5,3.5,1.9,8.3,1.2,12.6c-0.2,1.4-0.5,2.8-1.1,4c-1,1.9-2.8,3.2-4.8,3.8
			s-4.1,0.7-6.2,0.4c-2-0.2-4.1-0.7-5.7-2c-2-1.6-3-4.2-3.1-6.8s0.4-5.1,1-7.6c0.3-1.2,0.5-2.5,1.2-3.5c0.6-1.1,1.6-2,2.8-2.2
			C-71.5,17.4-66.9,17.7-64.3,17.6z"/>
		<path class="st25" d="M-69,23.7c3.8,1.1,9.1,1.4,11.8-1.8"/>
		<path class="st25" d="M-69.1,28.6c3.8,1.1,9.1,1.4,11.8-1.8"/>
		<path class="st25" d="M-41.1,5.9c1.1,0.8,1.4,0.9,2.6,3"/>
		<path class="st25" d="M-29.8-16.9c2.4,0.7,4.3,2.5,5.4,4.7"/>
		<path class="st25" d="M-11.9-33.1c-6.4,6.6-7.5,19.4-4.5,29.3"/>
		<path class="st25" d="M11,75.1c-2,2.3-3.6,4.9-4.9,7.6"/>
		<path class="st25" d="M-16.4,109.7c1.6,3.4,4.2,3.4,7.2,3.6"/>
		<path class="st25" d="M71,112.6c3.5,1,7.6-0.5,9.7-3.5"/>
		<path class="st25" d="M52.7,76.7c2.3,2.5,4.4,5.1,6.3,8"/>
		<path class="st25" d="M100.6,7.8c-2.7,1.6-5.1,3.9-6.7,6.6"/>
		<path class="st25" d="M89.1-13.6c-2.8,0.4-5.5,1.9-7.3,4.2"/>
		<path class="st27" d="M66.2-36.5c-6,10.9-0.9,23.5,5.5,29.4"/>
		<path class="st25" d="M-8-5.2C-7-3.7-6-2.3-5-1c0.7,1,1.5,2,2.6,2.8c2.7,2,6.4,2,9.7,1.3"/>
		<path class="st25" d="M48.9,2.6c4.6-0.3,8.9-3.7,10.2-8.2"/>
		<path class="st25" d="M26.9-13.4C25.8-25.2,26.8-31,29.8-33"/>
		<path class="st25" d="M26.7-13.6c-0.4-10.2-1.8-17.1-5-18.6"/>
		<path class="st9" d="M-58.3-5.6l6.6-4.5c0,0,4.4-57.8,4.6-60.8s-8.3-17-11.5-17.2c-2.6-0.1-13.1,10.7-13.5,15.1
			c-0.7,8.3-4,61.3-4,61.3l5,5.5"/>
		<line class="st25" x1="-58.6" y1="-87.5" x2="-64" y2="-9.6"/>
		<circle class="st9" cx="-64.6" cy="1.6" r="8.8"/>
		<circle class="st28" cx="-64.6" cy="1.6" r="2.5"/>
		<path class="st9" d="M-74.6-1.3c-3.2-0.4-6.6-1.1-9.2-3.1c-2.5-2-4.2-4.9-4.8-8.1c-2.4,0.1-2.7,5.5-2.8,8.4
			c-0.1,2.3,0.2,4.5,1.5,6.5c1.8,2.6,5.7,3.8,8.9,4.3c3.2,0.5,5.7,0.6,7.9,0.8"/>
		<path class="st9" d="M-53.6-0.2c3.2,0.1,6.7-0.2,9.5-1.8c2.8-1.6,4.9-4.3,5.9-7.4c2.4,0.4,1.9,5.8,1.6,8.7
			c-0.2,2.3-0.8,4.5-2.3,6.2c-2.1,2.3-6.2,3-9.4,3c-3.2,0.1-5.8-0.1-7.9-0.3"/>
		<line class="st9" x1="-70.7" y1="9.8" x2="-71" y2="14.9"/>
		<line class="st9" x1="-58.6" y1="9.8" x2="-58.9" y2="15.3"/>
		<path class="st25" d="M10.8-90.4c7.3,4.3,16.2,5.2,24.7,5.8c5.4,0.4,10.8,0.6,16.2-0.2"/>
		<path class="st28" d="M29.9-84c-0.5,2.6-0.9,5.2-0.3,7.7s2.5,4.9,5.1,5.2c2.1,0.2,4.2-1,5.4-2.8c1.2-1.8,1.6-3.9,1.8-6
			c0.1-1.2,0-2.5-0.4-3.6L29.9-84z"/>
		<path class="st25" d="M22.8-81.1c-2.8,2.2-5.3,4.7-7.5,7.5"/>
		<path class="st25" d="M15.5-81.1c2.9,2.5,5.5,4.8,7.3,8.2"/>
		<path class="st25" d="M21.7-57.6c-0.3,2.8-0.2,6.7,0,9.4"/>
		<path class="st25" d="M30.5-56.4c-0.2,2.4-0.2,4.7-0.1,7.1"/>
		<path class="st6" d="M-53.1,9.5c-1.4,0.8-1.9,1.7-3.6,3.4"/>
	</g>
	<g id="Digital_Stuff">
		<g id="Layer_15" class="st3">
			<path class="st5" d="M127.8-5.7c8.5,4,14.2,18.7,13.9,81c-0.3,55.9-4.2,69.7-8.7,77.5c-12,20.6-53.9,22.9-158.9,20.7
				c-30.7-0.6-44.6-1.9-49.1-8.1c-6.1-8.2-8.8-30.7-10-78.5c-1-39.1-0.4-60.7,6.5-73c8.4-15.1,76.8-24.5,90.4-25.8
				C26.8-13.3,112.6-12.8,127.8-5.7z"/>
			<path class="st5" d="M120.7,7.2c8.2,6.6,9,27.8,9,69.4c0,39.7-2.4,61.4-8.1,69.1c-6.5,8.7-13.9,13.4-59.4,15.8
				c-30.3,1.6-48.1,1.9-58.1-4.2C-6.7,150.7-7.8,130.2-8.8,75c-0.8-47.1,0-55.9,7.4-65.5c6.5-8.4,20-9,61.3-8.4
				C105.2,1.7,115.9,3.3,120.7,7.2z"/>
			<path class="st26" d="M-13.6-7.7c-11,1.6-18.8,4.2-25.1,10.1c-3,2.8-5.2,6.4-6.8,10.2c-3.1,7.6-3.6,15.9-4,24.1
				c-1.3,29-1.7,58.2,0,87.2c1,17.2,2.8,28.6,5.3,33.1c1.6,2.7,3.8,5.1,6.3,7c6.8,5.5,14.2,8.4,25.5,8.7"/>
			<path class="st29" d="M4.4,22.5c-2.6,4.7-2.9,10.3-3.1,15.7c-0.7,19.3,0,34.6,0,53.9c0,12,0.7,25.9,2.3,37.8
				c1.6,11.9,6.9,15.7,11.3,17.4c9.5,3.8,47.3,1.6,53.6,1.3c37.5-1.9,44.9-9,45.2-47.1c0.1-16-0.7-59.7-2-65.7
				c-1.4-6-2.5-10.7-7.3-14.7c-5.9-4.8-12.3-6.1-20.3-6.8c-14.9-1.2-28.4-1.6-44.2-1.3C23.7,13.3,10.3,11.7,4.4,22.5z"/>
			<polygon class="st30" points="39,41.7 28.4,42 30.6,113.1 41.3,112.4 			"/>
			<polygon class="st30" points="80.4,40.4 69.7,40.8 72,111.8 82.6,111.1 			"/>
			<polygon class="st31" points="68.4,125.7 46.8,126.3 47.1,135.4 68.7,134.7 			"/>
			<path class="st26" d="M-39.5,20.4c0,7.9-0.1,15.7-0.1,23.6"/>
			<path class="st26" d="M-32.3,19.1c0,5,0.1,9.9,0.1,14.9"/>
			<path class="st26" d="M-24.9,18.5c0,2.6,0,5.2,0,7.7"/>
			<path class="st26" d="M112.4,19.3c1.4-1.5,2.7-3.1,4-4.8"/>
			<path class="st26" d="M111,141.5c1.4,1.2,1.5,1.7,2.9,2.9"/>
		</g>
		<g id="Layer_16" class="st3">
			<path class="st5" d="M-3.8-36.9C1.1-48.1,5.7-60.4,9.6-74.4c25.4-4.8,50.6-8,77-11.2c2.2-0.3,3.8,1.9,2.9,3.9
				C84.3-69.6,79-58.9,72.4-47.6c-1.3,2.2-3.4,3.6-5.9,4c-22.3,3.1-44.6,6.4-67,9.4c-3.3,0.5-6.2-2-6.4-5.3c-1-16-2.5-32-4.6-48
				c-0.3-2.2,1.1-4.2,3.2-4.7c5.6-1.5,11.2-2.3,17-3.4c5.3-1,5.7,3.3,5.8,4.5c16.5-3.2,32.2-5.3,48.9-7.3c2.3-0.3,4.6,0.4,5.3,2.7
				c1.1,3.4,1.3,6.3,1.8,10.3"/>
		</g>
	</g>
	<g id="Illustration">
		<path class="st32" d="M-80.1-75.5c1.2,15.1,2.3,30.2,3.5,45.3"/>
		<path class="st32" d="M-43.2-78.4c1.9,14.4,3.4,28.8,4.5,43.3"/>
		<path class="st32" d="M-105.6,1.3c0.2,14.8,10.2,28.6,23.5,35.1c13.4,6.4,29.4,6,43.3,0.6C-19.2,29.4-3,9.7-5.2-11.3
			C-4.4-11.9-4-9.7-5-10"/>
		<g class="st3">
			<g>
				<path id="XMLID_00000001630386699626138990000006594000924267428267_" class="st33" d="M18.1,41.9C11.4,34.7,4.9,29.9,4.2,21
					c-0.6-6.8,0-8.8-1-15.6c-0.3-1.7-4-7.1-6-10C-5.2-8-11.8-15.9-3-23.4c5.7-4.9,12.9-1,16.2,2.7c5.9,6.6,8.5,8.2,15.8,10.9
					c4.2,1.6,5.2,0.5,9.1,2.7c4.3,2.5,12,10,15.1,13.9"/>
			</g>
		</g>
		<g class="st3">
			<g>
				<path id="XMLID_00000155111931581208008370000005886672226985888921_" class="st5" d="M128.5,164.3L17.8,41.3
					c-5.5-5.3-2.2-17.6,7.3-27.5C34.6,4,46.7,0.3,52.2,5.5l110.7,123"/>
			</g>
		</g>
		<g class="st3">
			<g>
				
					<ellipse id="XMLID_00000062173956560616398320000003949754021253070506_" transform="matrix(0.6937 -0.7202 0.7202 0.6937 -60.891 149.7141)" class="st34" cx="145.6" cy="146.5" rx="24.8" ry="13.8"/>
			</g>
		</g>
		<path class="st35" d="M111.4,145.4c-5.5-5.3-2.2-17.6,7.3-27.5c9.5-9.8,21.6-13.5,27.1-8.3L132,93.3c-5.5-5.3-17.6-1.6-27.1,8.3
			c-9.5,9.9-12.8,22.2-7.3,27.5L111.4,145.4z"/>
		<path class="st35" d="M41,68c-5.5-5.3-2.7-16.3,6.8-26.1s22.4-14,27.9-8.7l-11-12.8c-5.5-5.3-17.6-1.6-27.1,8.3
			s-12.8,22.2-7.3,27.5L41,68z"/>
	</g>
	<g id="About">
		<path class="st36" d="M-26.1-15c-2.1,5.5-1.7,11.8,0.2,17.4c0.8,2.4,1.9,4.7,3.4,6.7C-17.3,16-6.8,18,0.9,13.9
			c7.6-4.1,11.8-13.6,10-22.1C7.5-25.3-18.5-34.6-26.1-15z"/>
		<path class="st37" d="M30-41.8c4.4,15,8.8,30.1,13.3,45.2"/>
		<path class="st37" d="M60-51.7c4.9,16,9.8,32,14.7,48"/>
		<path class="st37" d="M41.6-18.1c6.7-2.7,13.6-5,20.6-6.7"/>
		<path class="st38" d="M-17.8,59.6c5.5,16.4,11.1,32.7,16.6,49"/>
		<path class="st37" d="M14.3,48.4c5.7,17.4,11.5,34.7,17.2,52.1"/>
		<path class="st37" d="M-2.2,85c6.2-2.5,12.5-5,18.7-7.5"/>
		<path class="st37" d="M65.3,33.5c-6.9,2.2-13.8,4.4-20.7,6.6c-0.8,0.3-1.8,0.7-2.1,1.5c-0.2,0.6,0,1.3,0.2,1.9
			C47.8,59.3,52.9,75.1,58,90.8c7.7-2.4,15.5-4.7,23.3-7.1"/>
		<path class="st37" d="M55.6,65.8c4-1.2,7.9-2.3,11.8-3.6"/>
		<path class="st37" d="M86.5,26.8c7.8,5.4,16.2,10,24.9,13.8"/>
		<path class="st37" d="M119.3,16.8c-2.7,20-6.7,39.8-12.1,59.2"/>
		<path class="st39" d="M-69.9,37.9C-79.8-12.6-58.4-40-32-60.2c16.6-12.6,36.5-19,56.4-23.1c9.8-2,19.7-3.6,29.6-3.7
			c37.3-0.5,75,19.9,91.3,56.3c4.9,10.9,10,23.4,12.8,35.2c1.9,8.1,3.8,22.1,3.5,30.5c1.1,20.5-1.2,44.3-13.3,61.1
			c-12.1,16.8-25.2,27-46,36.1c-29.7,12.6-94.6,25.2-127.1,2.7c-17.6-11.7-31.6-32.4-35.2-52.3c-21.4-1.6-34.9-3.3-45.1-4.9
			c-2.2-0.4-3-3.2-1.3-4.8C-92,59.5-86.4,54.6-69.9,37.9z"/>
	</g>
	<g id="Shop">
		<path class="st40" d="M162.7,129.3c-0.3,4.1-6.5,12.2-13.8,12.1h-245c-13.8,0-13.2-4.2-13.2-14.3v-91c0.2-6,5.9-10.3,11.5-13.3"/>
		<path class="st19" d="M157.9,132.4H-95.3c-2.7,0-5-2.2-5-5V27.1c0-2.7,2.2-5,5-5h253.2c2.7,0,5,2.2,5,5v100.4
			C162.9,130.2,160.7,132.4,157.9,132.4z"/>
		<path class="st6" d="M26.1-69.6c-2.4,1.8-5,5.8-4.1,10.1c0.8,3.5,3.8,6.4,7.4,6.6c1.3,0.1,3.3,0,4.5-0.4c1.4-0.4,4.7-1.4,6.7-5.7"
			/>
		<path class="st19" d="M23.7-60.9c0.8,3.5,3.8,6.4,7.4,6.6c1.3,0.1,3.3,0,4.5-0.4c1.4-0.4,4.4-1.5,5.5-5.4
			C45.6-75.6,20.5-75.7,23.7-60.9z"/>
		<line class="st9" x1="20.2" y1="-57.3" x2="-57.7" y2="21"/>
		<line class="st9" x1="41.3" y1="-55.4" x2="114.7" y2="21"/>
		<path class="st36" d="M-70.5,60.4c-4.2,5.9-5.7,13.3-6.1,20.5c-0.2,3.7,0,7.4,1.4,10.8c1.9,4.4,5.9,7.7,10.3,9.5
			c10.8,4.4,25-0.8,29.3-11.7c2.9-7.4,2.8-25.2-3.9-32.6C-48.6,46.9-63.8,51-70.5,60.4z"/>
		<path class="st36" d="M-6.2,103.1C-7.1,87.7-8,72.2-8.9,56.8c-0.1-1-0.1-2.1,0.3-3.1c0.6-1.4,2.1-2.2,3.4-2.9
			c7.1-3.3,16.2-4.3,22.1,0.8c5.7,4.8,6.3,14.1,2.3,20.3c-4,6.3-11.6,9.7-19,9.9"/>
		<path class="st36" d="M72.8,51.8c-5.5-0.6-9.6,0.2-14.5,0.4c-2.6,0.1-5.5,0.5-7.5,2.2c-2.3,1.9-2.8,5.3-3.1,8.3
			c-1.2,13-1.9,26-2.1,39.1c0,0.8,0,1.7,0.5,2.3c0.7,0.9,2.1,0.9,3.3,0.8c7.7-0.8,15.5-1.6,23.2-2.3"/>
		<path class="st36" d="M63.6,78c-4.3,0.2-8.4,0.5-12.1,1.2"/>
		<path class="st36" d="M97.6,101.5c0.1-17.2,0.1-51.9,5.3-50.3c10.3,17.3,14.6,37.5,25.9,54.1c5.5,0.8,5.2-9.9,5.1-15.1
			c-0.2-13.8-0.4-27.5-0.7-41.3"/>
	</g>
	<g id="All">
		<g id="Layer_8" class="st3">
			<g id="Layer_5_copy_6">
				<g>
					<g>
						<path id="XMLID_00000026851119032004426630000013762290967966517683_" class="st41" d="M-71,16.4c-3.4-3.6-6.7-6.1-7-10.5
							c-0.3-3.4,0-4.4-0.5-7.9c-0.2-0.9-2-3.6-3-5c-1.2-1.7-4.5-5.7-0.1-9.5c2.9-2.5,6.5-0.5,8.2,1.4c3,3.3,4.3,4.1,8,5.5
							c2.1,0.8,2.6,0.3,4.6,1.4c2.2,1.3,6.1,5,7.6,7"/>
					</g>
				</g>
				<g>
					<g>
						<path id="XMLID_00000136372431126472163560000015328398838871835818_" class="st41" d="M-15.3,78.2l-55.9-62.1
							c-2.8-2.7-1.1-8.9,3.7-13.9c4.8-4.9,10.9-6.8,13.7-4.2L2.1,60.1"/>
					</g>
				</g>
				<g>
					<g>
						
							<ellipse id="XMLID_00000113331846856018391970000002562043483581015694_" transform="matrix(0.6937 -0.7202 0.7202 0.6937 -51.8849 16.3457)" class="st42" cx="-6.7" cy="69.2" rx="12.5" ry="7"/>
					</g>
				</g>
				<path class="st43" d="M-23.9,68.7c-2.8-2.7-1.1-8.9,3.7-13.9c4.8-4.9,10.9-6.8,13.7-4.2l-7-8.2c-2.8-2.7-8.9-0.8-13.7,4.2
					c-4.8,5-6.5,11.2-3.7,13.9L-23.9,68.7z"/>
				<path class="st43" d="M-59.4,29.6c-2.8-2.7-1.4-8.2,3.4-13.2s11.3-7.1,14.1-4.4l-5.6-6.5c-2.8-2.7-8.9-0.8-13.7,4.2
					s-6.5,11.2-3.7,13.9L-59.4,29.6z"/>
			</g>
			<g id="Layer_5_copy_7">
				<g>
					<g>
						<path id="XMLID_00000052076666957195030280000006744017234170423958_" class="st41" d="M-58.1-31c-1.1-2.3-2.9-7.4-3.1-9.9
							c-0.2-2.3,0.6-2.5,0.7-4.7c0.3-3.9,0.2-5.4-1.6-9.6c-1-2.3-1.2-6.4,2.3-8c5.3-2.4,7.5,2.3,8.5,4.1c0.9,1.5,2.6,4.4,3.3,4.9
							c2.9,1.9,3.9,2.1,6.9,3.8c3.9,2.2,4.7,6.2,6.5,10.8"/>
					</g>
				</g>
				<g>
					<g>
						<path id="XMLID_00000078040448630111126650000002954490102820431250_" class="st41" d="M-26.3,45.3l-32.3-77
							c-1.2-3.6,3.1-8.4,9.6-10.6c6.6-2.2,12.9-1.1,14.1,2.6l32.3,77"/>
					</g>
				</g>
				<g>
					<g>
						
							<ellipse id="XMLID_00000061442076935462725120000008361617191682144680_" transform="matrix(0.9476 -0.3196 0.3196 0.9476 -13.9083 -2.4134)" class="st44" cx="-14.3" cy="41.2" rx="12.5" ry="7"/>
					</g>
				</g>
				<path class="st43" d="M-11.9,15.6c-1.2-3.7-7.6-4.8-14.1-2.6c-6.6,2.2-10.9,6.9-9.6,10.6l4.5,9.8c-1.2-3.6,3.1-8.4,9.6-10.6
					c6.6-2.2,12.9-1.1,14.1,2.6L-11.9,15.6z"/>
				<path class="st43" d="M-30.7-30.8c-1.2-3.7-7.6-4.8-14.1-2.6c-6.6,2.2-10.9,6.9-9.6,10.6l3.5,7.8c-1.2-3.7,3.5-8.6,10-10.9
					c6.5-2.2,12.1-1.1,13.4,2.5L-30.7-30.8z"/>
			</g>
			<g id="Layer_5_copy_10">
				<g>
					<g>
						<path id="XMLID_00000092430902315439580300000001288642352838729088_" class="st41" d="M89.6-40c0.3-2.5,1.6-7.8,2.7-10
							c1.1-2,1.8-1.8,3.2-3.6c2.4-3.1,3.1-4.5,3.8-8.9c0.4-2.5,2.4-6.1,6.2-5.5c5.8,0.8,5.1,6,5,8.1c-0.1,1.8-0.2,5.1,0.1,5.9
							c1.4,3.2,2.2,3.9,3.8,6.9c2.1,4,0.6,7.8-0.3,12.7"/>
					</g>
				</g>
				<g>
					<g>
						<path id="XMLID_00000046341629099129139760000018364538508219863974_" class="st41" d="M75.4,41.4l14.3-82.3
							c1-3.7,7.1-5.4,13.8-3.7c6.7,1.7,11.4,6.1,10.5,9.8L99.7,47.5"/>
					</g>
				</g>
				<g>
					<g>
						
							<ellipse id="XMLID_00000080198162918767403980000016946273822723961274_" transform="matrix(0.2411 -0.9705 0.9705 0.2411 23.3347 118.762)" class="st45" cx="87.6" cy="44.5" rx="7" ry="12.5"/>
					</g>
				</g>
				<path class="st43" d="M103.4,24.2c0.9-3.7-3.8-8.1-10.5-9.8s-12.9,0-13.8,3.7l-1.5,10.7c1-3.7,7.1-5.4,13.8-3.7
					s11.4,6.1,10.5,9.8L103.4,24.2z"/>
				<path class="st43" d="M112.6-25c0.9-3.7-3.8-8.1-10.5-9.8c-6.7-1.7-12.9,0-13.8,3.7L87-22.7c0.9-3.7,7.6-5.4,14.3-3.8
					s10.8,5.6,9.9,9.3L112.6-25z"/>
			</g>
			<g id="Layer_5_copy_9">
				<g>
					<g>
						<path id="XMLID_00000023251232407051497130000009014476173381381282_" class="st41" d="M-21.1-37.4c-0.1-2.5,0.4-7.9,1.2-10.3
							c0.8-2.1,1.5-2,2.6-4c1.9-3.4,2.4-4.9,2.5-9.4c0-2.5,1.5-6.4,5.3-6.4c5.8,0,5.9,5.2,6.1,7.3c0.2,1.8,0.5,5.1,1,5.8
							c1.9,2.9,2.7,3.5,4.7,6.3c2.7,3.6,1.8,7.6,1.6,12.6"/>
					</g>
				</g>
				<g>
					<g>
						<path id="XMLID_00000133501158232537005230000008150153607201943451_" class="st41" d="M-23,45.2l1.9-83.5
							c0.4-3.8,6.2-6.4,13.1-5.7c6.9,0.7,12.2,4.3,11.8,8.1L1.9,47.6"/>
					</g>
				</g>
				<g>
					<g>
						
							<ellipse id="XMLID_00000014630187247591542000000014218896478204124064_" transform="matrix(9.410438e-02 -0.9956 0.9956 9.410438e-02 -55.6648 31.6278)" class="st46" cx="-10.5" cy="46.4" rx="7" ry="12.5"/>
					</g>
				</g>
				<path class="st43" d="M2.2,24c0.4-3.8-4.9-7.5-11.8-8.1c-6.9-0.7-12.7,1.9-13.1,5.7l0.1,10.8c0.4-3.8,6.2-6.4,13.1-5.7
					S2.7,31,2.3,34.8L2.2,24z"/>
				<path class="st43" d="M4-26.1c0.4-3.8-4.9-7.5-11.8-8.1c-6.9-0.7-12.7,1.9-13.1,5.7v8.5c0.4-3.8,6.7-6.5,13.5-5.8
					c6.9,0.6,11.5,3.9,11.2,7.8L4-26.1z"/>
			</g>
			<g id="Layer_5_copy_8">
				<g>
					<g>
						<path id="XMLID_00000142153344741413464880000009835587110510991039_" class="st41" d="M-30.9,3.7c0.2-2.5,1.4-7.8,2.5-10
							c1-2,1.8-1.8,3.1-3.7c2.3-3.2,3-4.6,3.7-9c0.4-2.5,2.3-6.1,6.1-5.6c5.8,0.7,5.2,5.9,5.1,8c0,1.8-0.1,5.1,0.2,5.9
							c1.5,3.1,2.3,3.8,3.9,6.9c2.2,4,0.7,7.8-0.1,12.7"/>
					</g>
				</g>
				<g>
					<g>
						<path id="XMLID_00000016754011138624469410000003253043150219897001_" class="st41" d="M-43.6,85.4l12.8-82.5
							c0.9-3.7,7-5.5,13.7-4c6.7,1.6,11.5,5.8,10.7,9.6L-19.2,91"/>
					</g>
				</g>
				<g>
					<g>
						
							<ellipse id="XMLID_00000150094467843864126650000005719910199885120662_" transform="matrix(0.2229 -0.9748 0.9748 0.2229 -110.256 38.0363)" class="st47" cx="-31.3" cy="88.2" rx="7" ry="12.5"/>
					</g>
				</g>
				<path class="st43" d="M-15.8,67.6c0.9-3.8-3.9-8-10.7-9.6c-6.7-1.6-12.9,0.2-13.7,4l-1.3,10.7c0.9-3.7,7-5.5,13.7-4
					c6.7,1.6,11.5,5.8,10.7,9.6L-15.8,67.6z"/>
				<path class="st43" d="M-7.6,18.2c0.9-3.8-3.9-8-10.7-9.6C-25,7-31.2,8.8-32,12.6l-1.1,8.4c0.9-3.8,7.5-5.5,14.2-4
					S-8,22.4-8.8,26.1L-7.6,18.2z"/>
			</g>
			<g id="Layer_5_copy">
				<g>
					<g>
						<path id="XMLID_00000173881645766798522040000013340669308517914755_" class="st41" d="M118.2-6.9c1.9-4.6,2.8-8.6,6.7-10.7
							c3-1.7,4-1.8,7-3.7c0.7-0.5,2.4-3.3,3.4-4.8c1.1-1.8,3.3-6.5,8.6-4c3.4,1.6,3.1,5.7,2.1,8c-1.8,4.1-2,5.6-1.7,9.5
							c0.1,2.3,0.8,2.5,0.6,4.7c-0.3,2.5-2.1,7.6-3.3,9.8"/>
					</g>
				</g>
				<g>
					<g>
						<path id="XMLID_00000075164544809095540640000016665898497132006278_" class="st41" d="M84.8,69.3l33.6-76.4
							c1.3-3.6,7.6-4.7,14.2-2.3c6.5,2.3,10.7,7.1,9.4,10.7l-33.6,76.4"/>
					</g>
				</g>
				<g>
					<g>
						
							<ellipse id="XMLID_00000161590606362195609950000017213302886385152914_" transform="matrix(0.3361 -0.9418 0.9418 0.3361 -5.0851 139.6634)" class="st48" cx="96.5" cy="73.4" rx="7" ry="12.5"/>
					</g>
				</g>
				<path class="st43" d="M89.9,57.5c1.3-3.6,7.6-4.7,14.2-2.3c6.5,2.3,10.7,7.1,9.4,10.7l4.6-9.7c1.3-3.6-2.9-8.4-9.4-10.7
					s-12.9-1.3-14.2,2.3L89.9,57.5z"/>
				<path class="st43" d="M110.9,9.1c1.3-3.6,6.9-4.6,13.4-2.3c6.5,2.3,11.1,7.4,9.8,11l3.6-7.7c1.3-3.6-2.9-8.4-9.4-10.7
					c-6.5-2.3-12.9-1.3-14.2,2.3L110.9,9.1z"/>
			</g>
			<g id="Layer_5_copy_2">
				<g>
					<g>
						<path id="XMLID_00000098194375559364107760000011630345850137789098_" class="st41" d="M79-16.1c-0.5-4.9-1.6-8.9,0.8-12.6
							c1.8-2.9,2.7-3.5,4.4-6.6c0.4-0.8,0.6-4.1,0.6-5.8c0.1-2.1-0.2-7.3,5.7-7.6c3.8-0.2,5.5,3.5,5.7,6c0.4,4.5,0.9,5.9,3,9.2
							c1.2,1.9,1.9,1.8,2.8,3.9c1,2.3,1.8,7.7,1.8,10.2"/>
					</g>
				</g>
				<g>
					<g>
						<path id="XMLID_00000170977915547642804510000017242364576426670231_" class="st41" d="M85.9,66.8l-6.8-83.2
							c-0.6-3.8,4.5-7.7,11.3-8.8c6.8-1,12.8,1.2,13.4,5l6.8,83.2"/>
					</g>
				</g>
				<g>
					<g>
						
							<ellipse id="XMLID_00000176744912776786627360000012338400791798913675_" transform="matrix(0.9883 -0.1526 0.1526 0.9883 -8.7476 15.7451)" class="st49" cx="98.2" cy="64.9" rx="12.5" ry="7"/>
					</g>
				</g>
				<path class="st43" d="M84.8,54c-0.6-3.8,4.5-7.7,11.3-8.8c6.8-1,12.8,1.2,13.4,5l-0.6-10.8c-0.6-3.8-6.6-6-13.4-5
					c-6.8,1.1-11.9,5-11.3,8.8L84.8,54z"/>
				<path class="st43" d="M80.2,1.4C79.6-2.4,84.1-6,90.9-7s13.3,1.2,13.9,5l-0.5-8.5c-0.6-3.8-6.6-6-13.4-5
					c-6.8,1.1-11.9,5-11.3,8.8L80.2,1.4z"/>
			</g>
			<g id="Layer_5_copy_5">
				<g>
					<g>
						<path id="XMLID_00000039840165684843096840000017884055180486716289_" class="st41" d="M11.4-59.3c-0.7-4.9-2.1-8.8,0.2-12.7
							c1.7-3,2.5-3.7,4-6.8c0.4-0.8,0.4-4.1,0.4-5.9c0-2.1-0.5-7.3,5.3-7.9c3.8-0.4,5.7,3.3,6,5.8c0.6,4.4,1.2,5.8,3.5,9
							c1.3,1.9,2,1.7,3,3.7c1.1,2.3,2.1,7.6,2.3,10.1"/>
					</g>
				</g>
				<g>
					<g>
						<path id="XMLID_00000075868655696783480630000017975363552922405775_" class="st41" d="M22.4,23.1L11.5-59.7
							c-0.8-3.8,4.1-7.9,10.9-9.4c6.8-1.4,12.8,0.6,13.6,4.3L46.9,18"/>
					</g>
				</g>
				<g>
					<g>
						
							<ellipse id="XMLID_00000140703063577948928170000008699709989270424738_" transform="matrix(0.9796 -0.201 0.201 0.9796 -3.4292 7.3719)" class="st49" cx="34.6" cy="20.6" rx="12.5" ry="7"/>
					</g>
				</g>
				<path class="st43" d="M20.7,10.4C19.9,6.6,24.8,2.5,31.6,1c6.8-1.4,12.8,0.6,13.6,4.3L44.1-5.4c-0.8-3.8-6.9-5.7-13.6-4.3
					c-6.8,1.4-11.7,5.6-10.9,9.4L20.7,10.4z"/>
				<path class="st43" d="M13.5-41.9c-0.8-3.8,3.5-7.6,10.3-8.9s13.3,0.6,14.1,4.4L37-54.9c-0.8-3.8-6.9-5.7-13.6-4.3
					c-6.8,1.4-11.7,5.6-10.9,9.4L13.5-41.9z"/>
			</g>
			<g id="Layer_5_copy_3">
				<g>
					<g>
						<path id="XMLID_00000031191200402484740700000016091059530069043901_" class="st41" d="M52.6-49c0.3-5-0.2-9,2.8-12.4
							c2.3-2.6,3.2-3.1,5.4-5.8c0.5-0.7,1.2-3.9,1.6-5.7c0.4-2.1,1-7.2,6.8-6.6c3.8,0.4,4.9,4.4,4.7,6.9c-0.4,4.5,0,6,1.5,9.6
							c0.9,2.1,1.6,2.1,2.2,4.3c0.6,2.4,0.5,7.9,0.2,10.4"/>
					</g>
				</g>
				<g>
					<g>
						<path id="XMLID_00000164483825644636481210000002586567882359470259_" class="st41" d="M46.3,33.9l6.4-83.3
							c0-3.9,5.7-6.9,12.6-6.9c6.9,0.1,12.5,3.2,12.5,7L71.4,34"/>
					</g>
				</g>
				<g>
					<g>
						
							<ellipse id="XMLID_00000081616945084094133530000010737233354301517480_" transform="matrix(5.679325e-03 -1 1 5.679325e-03 24.5584 92.5151)" class="st50" cx="58.8" cy="33.9" rx="7" ry="12.5"/>
					</g>
				</g>
				<path class="st43" d="M47.3,21.1c0-3.9,5.7-6.9,12.6-6.9c6.9,0.1,12.5,3.2,12.5,7l1.2-10.7c0-3.9-5.5-7-12.5-7
					c-6.9,0-12.6,3-12.6,6.9L47.3,21.1z"/>
				<path class="st43" d="M51.1-31.6c0-3.9,5-6.7,11.9-6.6s12.9,3.3,12.9,7.2l0.8-8.5c0-3.9-5.5-7-12.5-7s-12.6,3-12.6,6.9
					L51.1-31.6z"/>
			</g>
			<g id="Layer_5_copy_4">
				<g>
					<g>
						<path id="XMLID_00000083773839323747035400000014070671981083343545_" class="st41" d="M29.9-31.1c1.8-4.6,2.5-8.6,6.4-10.9
							c3-1.8,4-1.9,6.9-3.9c0.7-0.5,2.3-3.4,3.2-4.9c1-1.8,3.2-6.6,8.5-4.2c3.5,1.5,3.3,5.6,2.3,8c-1.7,4.1-1.9,5.7-1.5,9.6
							c0.2,2.3,0.9,2.5,0.8,4.7c-0.2,2.5-1.9,7.6-3,9.9"/>
					</g>
				</g>
				<g>
					<g>
						<path id="XMLID_00000031926757594660617630000005367484897423066793_" class="st41" d="M-1.4,45.9l31.5-77.3
							c1.2-3.7,7.5-4.9,14.1-2.7c6.5,2.2,10.9,6.8,9.7,10.5L22.4,53.7"/>
					</g>
				</g>
				<g>
					<g>
						
							<ellipse id="XMLID_00000065768881016882986250000000893919231545672115_" transform="matrix(0.3104 -0.9506 0.9506 0.3104 -40.0901 44.2268)" class="st51" cx="10.4" cy="49.7" rx="7" ry="12.5"/>
					</g>
				</g>
				<path class="st43" d="M3.4,34c1.2-3.7,7.5-4.9,14.1-2.7c6.5,2.2,10.9,6.8,9.7,10.5l4.4-9.9c1.2-3.7-3.1-8.3-9.7-10.5
					C15.3,19.3,9,20.5,7.8,24.1L3.4,34z"/>
				<path class="st43" d="M23.1-15c1.2-3.7,6.8-4.8,13.3-2.7c6.5,2.2,11.3,7.1,10.1,10.8l3.4-7.8c1.2-3.7-3.1-8.3-9.7-10.5
					c-6.6-2.1-12.9-0.9-14.1,2.7L23.1-15z"/>
			</g>
			<g id="Layer_5_copy_11">
				<g>
					<g>
						<path id="XMLID_00000078729146179761497330000007385066882846072483_" class="st41" d="M60.1,8.7c0.2-2.5,1.4-7.8,2.5-10
							c1-2,1.8-1.8,3.1-3.7c2.3-3.2,3-4.6,3.7-9c0.4-2.5,2.3-6.1,6.1-5.6c5.8,0.7,5.2,5.9,5.1,8c0,1.8-0.1,5.1,0.2,5.9
							c1.5,3.1,2.3,3.8,3.9,6.9c2.2,4,0.7,7.8-0.1,12.7"/>
					</g>
				</g>
				<g>
					<g>
						<path id="XMLID_00000079451286813547216020000008415705171758025857_" class="st41" d="M47.4,90.4L60.2,7.9
							c0.9-3.7,7-5.5,13.7-4c6.7,1.6,11.5,5.8,10.7,9.6L71.8,96"/>
					</g>
				</g>
				<g>
					<g>
						
							<ellipse id="XMLID_00000159462490132306391750000006393971619574838404_" transform="matrix(0.2229 -0.9748 0.9748 0.2229 -44.4193 130.6331)" class="st47" cx="59.7" cy="93.2" rx="7" ry="12.5"/>
					</g>
				</g>
				<path class="st43" d="M75.2,72.6c0.9-3.8-3.9-8-10.7-9.6c-6.7-1.6-12.9,0.2-13.7,4l-1.3,10.7c0.9-3.7,7-5.5,13.7-4
					c6.7,1.6,11.5,5.8,10.7,9.6L75.2,72.6z"/>
				<path class="st43" d="M83.4,23.2c0.9-3.8-3.9-8-10.7-9.6C66,12,59.8,13.8,59,17.6L57.9,26c0.9-3.8,7.5-5.5,14.2-4
					s10.9,5.4,10.1,9.1L83.4,23.2z"/>
			</g>
			<g id="Layer_5">
				<g>
					<g>
						<path id="XMLID_00000076591273443184792960000003540392528782546086_" class="st41" d="M7,1.4C4.3-2.8,1.5-5.7,1.9-10.2
							c0.3-3.4,0.8-4.4,0.9-7.8c0-0.9-1.4-3.9-2.1-5.5c-0.9-1.9-3.5-6.4,1.5-9.4c3.3-1.9,6.5,0.6,7.8,2.8c2.4,3.8,3.5,4.8,6.9,6.8
							c1.9,1.2,2.5,0.7,4.3,2.1c1.9,1.6,5.1,6,6.3,8.2"/>
					</g>
				</g>
				<g>
					<g>
						<path id="XMLID_00000173873028057923494980000012044895501357837707_" class="st41" d="M51.2,71.9L6.9,1.1
							c-2.3-3.1,0.4-8.9,6-13c5.6-4,11.9-4.8,14.2-1.8l44.3,70.8"/>
					</g>
				</g>
				<g>
					<g>
						
							<ellipse id="XMLID_00000158708511020330363680000009725648612006525370_" transform="matrix(0.8074 -0.59 0.59 0.8074 -26.2579 48.5192)" class="st45" cx="61.2" cy="64.5" rx="12.5" ry="7"/>
					</g>
				</g>
				<path class="st43" d="M44.3,61c-2.3-3.1,0.4-8.9,6-13c5.6-4,11.9-4.8,14.2-1.8l-5.4-9.3c-2.3-3.1-8.6-2.3-14.2,1.8
					c-5.6,4.1-8.3,9.9-6,13L44.3,61z"/>
				<path class="st43" d="M16.1,16.4c-2.3-3.1,0.1-8.3,5.6-12.4c5.6-4,12.4-5,14.6-1.9l-4.4-7.3c-2.3-3.1-8.6-2.3-14.2,1.8
					c-5.6,4.1-8.3,9.9-6,13L16.1,16.4z"/>
			</g>
		</g>
		<g id="Layer_9" class="st3">
			<path class="st52" d="M-60.8,33.6l92.9,9.6l99.7-11l35.9,37.6L129.3,74c0,0-0.6,66.6-1.7,66.6s-94,15.5-94,15.5l-105.4-16.6
				l-1.4-70c0,0-27.1-2.8-27.4-3.7c-0.3-0.8,3.4-5.6,3.4-5.6l-13.6-1.7L-60.8,33.6z"/>
		</g>
		<path class="st6" d="M20.3,42.1c4.5,0.4,9,0.7,13.5,0.7c6.8-0.1,13.6-1.1,20.3-2c24-3.3,48.2-5.7,72.3-8.1
			c1.6-0.2,3.2-0.3,4.7,0.2c1.6,0.5,2.9,1.6,4.1,2.8c11.5,10.4,22.2,21.8,31.9,33.9c-33.5,2-66.9,6.6-99.7,13.7
			C54.6,70,41.8,56.6,29,43.3C18.3,53.5,7.5,63.7-3.2,73.9C-4,74.7-4.9,75.5-6,76c-1.4,0.5-2.9,0.4-4.4,0.2
			c-30.3-3.5-60.6-7-90.9-10.5c1.9-1.7,8.2-7,9.7-8.2c3.4-2.8,6.9-5.6,10.4-8.4c3.3-2.6,6.7-5.2,10.1-7.8c3-2.3,6.5-5.2,9.8-7.1
			c0.9-0.5,3.2-0.1,10.5,0.5c4.4,0.4,9.1,1,13.4,1.5c9.1,1.1,18.2,2.1,27.3,3.1C0.1,40.3,10.2,41.3,20.3,42.1z"/>
		<path class="st6" d="M129.2,74.8c0.1,22.1-0.5,44.2-1.6,66.2c-26.2,7.8-54.2,11.1-80.1,14.3c-12.4,1.5-13.8,1.1-25.4-0.3
			c-31.4-3.8-63.1-9-94-15.5c-1.5-26.5-1.2-50.3-0.9-69.4"/>
		<path class="st6" d="M32.9,48.9c1.5,34,0.6,70.5,0.4,104.5"/>
		<path class="st6" d="M-62,34.2c-18.6,6.5-31.9,13-49.4,25.1c5.3,0,10.5,0.3,15.8,0.3"/>
		<path class="st9" d="M76.7,149.1c0-6.4,0-12.7,0-19.1c6.7-1.4,13.5-2.1,20.3-3.5c0.5,7.4,0.2,13.2,0.3,20.9"/>
	</g>
	<g id="_x33_D">
		<path class="st6" d="M-112.7-13.8c0.7-1.1,164,40.9,166.1,41.5c2.2,0.6,84.1-27.4,92.4-29.9c8.3-2.5,14.4,2.7,17.1,6.7
			c2.5,3.7,6.4,18.9,3.4,31.4c-1,4.3-7,7-10.1,2.5c-2.5-3.7,0-19.6-3.7-19.8c-5.5-0.3-36,11.9-36,11.9L86.3,71.4
			c0,0-31.1,14.3-32.3,14.6s-7-1.2-8.5-1.2s-3.3,4.5-4.6,4.3c-8.2-1.2-61.6-21-64.3-23.5c-3.4-3-9.5-21.6-10.7-24.4
			c-1.8-4.6-8.2-5.8-11.3-1.8c-1.6,2.1-5.3,12.7-7.6,14.3c-4.3,3.1-48.8-13.1-51.5-15.6c-0.5-0.5-2.2-5.5-2.8-6.4
			c-0.6-0.9-3.1,0.3-3.4-1.2C-110.9,28.8-113.3-12.9-112.7-13.8z"/>
		<path class="st6" d="M-112.9-14.4c5.6-1.3,124.5-12.3,131.8-12.9c7.8-0.7,14.1,2.5,17,5.4c2.2,2.2,11.9,18.7,9.3,29.4
			c-0.9,3.7-6.3,6.2-8.6,2.1C34.8,6.5,30.5-8,26.3-7.9c-4.7,0.1-53.2,6.3-53.2,6.3L-37,3.8"/>
		<line class="st6" x1="53.4" y1="27.6" x2="52.2" y2="84"/>
		<path class="st9" d="M21.5,30.4c-2.8-1.1-30-8.9-33-9c-13.8-0.7-6.4,35.4,2.2,38.9c4,1.6,26.7,10,31.1,11.4
			C35.9,76.1,35.8,36,21.5,30.4z"/>
		<path class="st9" d="M-68.9,5.8c-2.3-1-21.8-6.7-25.1-7.1c-11.7-1.5-7.5,31.4-0.1,34.4c3.4,1.4,21.5,7,25.3,8.2
			C-56.5,45.1-56.8,11.1-68.9,5.8z"/>
	</g>
	<g id="_x33_D_copy">
		<path class="st6" d="M-87-91C-85.7-91.6,46.3,40.8,47.9,42.6c1.7,1.8,95.7,21.5,105,23.8s12.2,10.7,12.5,16.1
			c0.3,4.9-4.6,21.7-14.6,31.8c-3.4,3.5-10.7,2.7-11-3.4c-0.2-4.9,11.1-18.7,7.7-21c-5.1-3.4-41-9-41-9l-51.9,21.9
			c0,0-37.8-3.9-39.1-4.3c-1.3-0.4-6-5.1-7.4-6S2.4,94.9,1.3,94c-7.2-5.8-46.8-54.9-48-58.8c-1.5-4.8,3.1-26,3.6-29.3
			c0.8-5.4-4.5-10.2-9.7-8.1c-2.7,1.1-12.3,9.1-15.4,9.3c-5.6,0.4-38.9-40.2-40.2-44.1c-0.2-0.7,1.1-6.5,1-7.7s-3.1-1.4-2.5-3
			C-109.4-49.3-88.1-90.5-87-91z"/>
		<path class="st6" d="M-86.8-91.6c6.1,1.9,125.6,58.8,133,62.3c7.8,3.8,12,10.4,13.2,14.8c0.9,3.4,0.8,24.5-7.8,33.3
			c-3,3-9.5,2.3-9.4-2.9c0-4,4.2-20.3,0.1-22.5C37.7-9.2-12-30.8-12-30.8l-12.7-0.6"/>
		<line class="st6" x1="48" y1="42.6" x2="14.9" y2="95.7"/>
		<path class="st9" d="M16,27.1C13.9,24.4-7.6,1.7-10.4-0.2c-12.7-8.4-26.1,30.1-20,38.3c2.9,3.8,19.8,24.6,23.2,28.5
			C3.9,78.9,26.5,40.6,16,27.1z"/>
		<path class="st9" d="M-56.3-47.5c-1.6-2.2-17-18.7-19.9-21c-10.4-8-24.9,25.7-19.6,32.7c2.5,3.3,16.6,18.9,19.5,22.2
			C-66.7-3-47.7-35.6-56.3-47.5z"/>
	</g>
	<g id="Animation">
		<polygon class="st6" points="85.3,-54.5 67.5,-87.9 -111.4,-0.5 -96.4,29.8 		"/>
		<polygon class="st6" points="106.7,49.2 103.1,11.5 -95.8,35 -91.8,69.4 		"/>
		<polyline class="st6" points="104.4,50.3 112.9,139.5 -80.2,155.9 -88.1,70 		"/>
		<line class="st9" x1="88.6" y1="72" x2="-67.7" y2="86.8"/>
		<line class="st9" x1="91.9" y1="105.1" x2="-64.4" y2="119.8"/>
		<line class="st9" x1="94.3" y1="124" x2="-62" y2="138.7"/>
		<line class="st9" x1="41.8" y1="78" x2="44.8" y2="108.3"/>
		<line class="st9" x1="-27.6" y1="83.8" x2="-25" y2="114"/>
		<path class="st9" d="M56.9,87.8c1,0.4,2.1,0.8,3.1,0.6c1.1-0.2,1.9-1,2.7-1.7c0.9-0.7,2-1.2,3-0.8c0.4,0.2,0.8,0.5,1.2,0.7
			c1.7,0.7,3.6-1.2,5.4-0.7c0.4,0.1,0.8,0.4,1.3,0.6c1.6,0.4,3.1-1.6,4.7-1.1"/>
		<path class="st9" d="M60.7,97.5c0.8-1.3,2.6-2.1,4.1-1.7c0.4,0.1,0.8,0.3,1.2,0.3c0.5,0,1-0.3,1.5-0.4c1.2-0.3,2.4,0.5,3.6,0.4
			c0.9-0.1,1.6-0.8,2.4-1.1s2-0.2,2.3,0.6"/>
		<path class="st9" d="M24.3,91.4c-1.5-1.2-3.7-1.1-5.5-0.5s-3.6,1.5-5.5,1.6c-1.3,0-2.6-0.3-3.8-0.3c-1.4-0.1-2.8,0.2-4.1,0.5
			c-3.4,0.7-6.8,1.4-10.2,2C-5.9,94.9-7,95.1-8,94.8c-0.6-0.2-1.2-0.5-1.9-0.7c-2.2-0.4-4.3,2-6.4,1.4"/>
		<path class="st9" d="M-12.1,103.9c1.1-1.4,3-1.7,4.7-1.5s3.4,0.8,5.1,1c1.8,0.2,3.5-0.1,5.2-0.3c1.6-0.2,3.2-0.4,4.6-1.1
			c0.6-0.3,1-0.6,1.6-0.8c0.8-0.2,1.6,0,2.5,0.1c2.6,0.4,5.4,0.1,7.9-0.8"/>
		<path class="st9" d="M-60.9,100.1c1.8-1.5,3.8-3.2,6.2-3.2c2.4,0,4.7,1.6,6.9,0.9c1.1-0.4,2.2-1.3,3.2-0.7
			c0.4,0.2,0.7,0.6,1.2,0.8c0.4,0.1,0.8,0,1.2-0.1c1.4-0.4,2.8-0.8,4.1-1.2"/>
		<path class="st9" d="M-54.1,128.5c0.5-1.4,2.5-1.6,4-1.2c1.5,0.4,2.9,1.2,4.4,0.8c1.2-0.3,2-1.2,3.2-1.6c1.7-0.6,4,0.1,5.2-1.3
			c0.4,0.4,0.6,0.9,0.5,1.5c2.2-0.2,4.5-0.5,6.7-0.8"/>
		<path class="st9" d="M4.7,123.2c6.2-4.1,15.1,0.6,21.8-2.7c0.6-0.3,1.2-0.6,1.8-0.7c0.6,0,1.2,0.2,1.8,0.4c2.5,0.8,5.4,0.4,7.7-1
			c0.6-0.3,1.1-0.7,1.7-0.8c1-0.2,1.9,0.3,2.9,0.5c2,0.6,4.1,0.3,6.2,0c1.3-0.2,2.6-0.4,4-0.6c2.4-0.4,4.7-0.7,7.1-1.1"/>
		<polygon class="st3" points="82.2,-54 20.4,-63.9 2.5,-55.6 64.2,-44.8 		"/>
		<polygon class="st3" points="72.3,-79.5 56,-82.2 38.4,-73.5 78.4,-66.6 		"/>
		<polygon class="st3" points="47.9,-35.7 -13.9,-45.6 -31.8,-37.2 29.8,-26.5 		"/>
		<polygon class="st3" points="8,-18.3 -53.8,-28.1 -71.7,-19.8 -10,-9.1 		"/>
		<polygon class="st3" points="-31.4,-0.8 -93.2,-10.6 -111.1,-2.3 -49.4,8.4 		"/>
		<polygon class="st3" points="-68.9,17.2 -104.9,11.4 -99.7,23.9 -87.6,26 		"/>
		<polygon class="st3" points="100.5,12.9 53,53.6 33.4,55.9 80.4,14.5 		"/>
		<polygon class="st3" points="105.4,39.9 92.9,50.6 73.4,52.4 103.8,25.6 		"/>
		<polygon class="st3" points="61.6,15.7 14,56.4 -5.5,58.7 41.4,17.3 		"/>
		<polygon class="st3" points="18.6,21.2 -29,61.8 -48.6,64.1 -1.6,22.8 		"/>
		<polygon class="st3" points="-24.2,26.8 -71.7,67.5 -91.3,69.8 -44.4,28.4 		"/>
		<polygon class="st3" points="-65.5,31.1 -93.1,54.8 -95.3,41.5 -86,33.4 		"/>
		<line class="st9" x1="167.6" y1="-37.9" x2="119.3" y2="-30.3"/>
		<line class="st9" x1="152.3" y1="7.9" x2="120.4" y2="-1.2"/>
		<line class="st9" x1="141.6" y1="-75.7" x2="111.2" y2="-58.9"/>
		<path class="st53" d="M158.1,14.4"/>
		<path class="st3" d="M123.7,5.2"/>
	</g>
	<g id="Animation_00000011739293302612624920000014059660964061508243_">
		<g id="outline" class="st3">
			<polygon class="st5" points="4.8,-99.3 -60.6,115.4 117.4,117.7 58.4,-98.7 			"/>
			<polygon class="st54" points="-60.6,115.4 -16.5,167.2 82.6,167.8 117.4,117.7 			"/>
			<polygon class="st5" points="45.6,-78.7 17.3,-78.3 -27.9,84.4 15.3,84.6 28.4,64.3 41.4,85.3 87.4,85 			"/>
		</g>
		<g id="ticker" class="st3">
			<line class="st5" x1="112.5" y1="-75" x2="115.4" y2="-80.2"/>
			<line class="st5" x1="31.2" y1="68.7" x2="98.9" y2="-50.6"/>
			<polygon class="st5" points="92.9,-82.4 89.3,-58.7 111.7,-46.6 129.5,-62.1 			"/>
		</g>
		<g id="measures" class="st3">
			<line class="st26" x1="30.6" y1="-57.8" x2="28.4" y2="64.3"/>
			<line class="st26" x1="22.6" y1="-45.8" x2="39.7" y2="-45.7"/>
			<line class="st26" x1="21.4" y1="-22.4" x2="38.5" y2="-22.3"/>
			<line class="st26" x1="21.2" y1="1.3" x2="38.4" y2="1.4"/>
			<line class="st26" x1="20.7" y1="24.8" x2="37.9" y2="24.9"/>
			<line class="st26" x1="19.1" y1="49" x2="36.3" y2="49.1"/>
		</g>
	</g>
	<g id="_x32_D">
		<path class="st6" d="M-6.5,37c2.1-4.4,1.6-8.4,5.8-11.7c23.6-18.5,57-43.7,76.4-59.4c8.8-7.1,25.6-19.4,34.5-26.4
			c12.4-9.6,12-9.3,16.8-9.4c5,0,22.2,0.4,29.3,1.1c8.2,0.8,7.6-0.2,6,8.3c-1.5,7.9-2.4,10.9-4.4,18.7c-3.6,14.2-1.6,10.8-16.7,22.3
			C110.8,3.6,63.8,38.7,29.6,63.2c-5.6,4-5.4,3.5-12.9,2.9"/>
		<path class="st55" d="M160.1-66.1c0.7,1.7-1.9,10.6-2.6,12.3c-0.4,0.8-4.6-1.2-7.3-4.8c-2.2-3.1-2.8-7.6-1.9-7.8
			C150.1-66.9,159.7-67.3,160.1-66.1z"/>
		<line class="st56" x1="6.3" y1="40" x2="125.5" y2="-52.3"/>
		<line class="st9" x1="15.9" y1="54.6" x2="137.4" y2="-35.6"/>
		<path class="st9" d="M124.1-68.9c-3.4,2.7-3.2,10.1,3.7,13.9c-1.4,4.1,0.7,8.5,2.9,11.7s4.7,4.6,8.7,5.3c1.2,6.7,11,9.5,15.7,5.9"
			/>
		<path class="st6" d="M-16.8,37.4c-10,2.3-17.9,11.3-19.3,21.4c-1.4,10.1,3.6,20.8,12.1,26.4c2.4,1.6,5.1,2.9,8,3.4
			c3.9,0.8,8.1,0.2,11.9-1c7.8-2.4,15-8,18-15.6C20.7,54.6,1,33.3-16.8,37.4z"/>
		<path class="st9" d="M-14.3,48.6c-5.7,1.3-10.2,6.4-11,12.2s2.1,11.8,6.9,15.1c1.4,0.9,2.9,1.6,4.6,2c2.2,0.4,4.6,0.1,6.8-0.5
			c4.5-1.4,8.5-4.5,10.2-8.9C7.1,58.4-4.1,46.3-14.3,48.6z"/>
		<path class="st6" d="M-37,54.3c-8.4-13.7-16.4-24.9-26.4-37.4c-1.4-1.8-2-5.4-0.2-6.8c1.2-0.9,3-0.1,4.3,0.7
			c1.2-7.1,5.6-13.6,11.9-17.2s14.1-4.2,20.8-1.6c1.8,0.7,3.9,2.4,3,4.2c-0.5,1-1.7,1.4-2.8,1.9c-7.1,2.8-9.8,12-8,19.4
			s7,13.4,12.1,19.2"/>
		<path class="st6" d="M-9.6,89.9C1,102.1,9.2,113.1,18,126.4c1.3,1.9,4.6,3.5,6.4,2.2c1.2-0.9,1-2.8,0.6-4.3c7.1,1,14.6-1.3,20-6.1
			c5.3-4.9,8.3-12.2,7.8-19.3c-0.1-1.9-1.1-4.4-3.1-4.2c-1.1,0.1-1.9,1.2-2.6,2.1c-4.9,5.9-14.4,5.7-20.9,1.7S15.5,87.7,11.6,81.2"
			/>
		<path class="st6" d="M-37.9,63.1C-53.6,81-74.8,99.5-97.4,111.7c-3.2,1.7-6.6,3.5-8.4,6.6c-2.8,5.2,3.7,13.8,8.2,17.6
			c2.9,2.5,6.8,4.3,10.5,3.2c2.5-0.8,4.4-2.8,6.3-4.8c18-19.1,39.6-34.7,63.4-45.8"/>
		<path class="st9" d="M-48.3,76.9c1.5,7.1,5.4,14.1,12.8,18.4"/>
		<path class="st9" d="M-61.8,89.2c2.8,7.9,6.5,12.4,13.3,17.3"/>
		<path class="st9" d="M-76.9,101.2c2.9,6.3,7.3,11.8,12.8,16"/>
		<path class="st6" d="M-92.6,111.5c2.6,8,8.7,14.8,16.4,18.1"/>
		<path class="st9" d="M-31,43.3c-4.3-5.3-8.3-10.8-12.2-16.4c-1.6-2.3-3.1-4.6-4-7.2c-1.7-4.9-1.1-10.5,1.7-14.8"/>
		<path class="st9" d="M2.8,87.8c3.8,5.6,7.9,11.1,12.1,16.4c1.7,2.2,3.5,4.3,5.7,6c4.1,3.1,9.7,4.1,14.7,2.7"/>
		<path class="st9" d="M-23,63.4c8.4-1.4,17.2-0.5,25,2.8"/>
		<path class="st9" d="M-10.7,51.3c0.4,7.9-0.2,15.9-1.9,23.6"/>
	</g>
	<g id="Everything">
		<g id="heart" class="st3">
			<path class="st33" d="M-13.7-56.3c-19.6,3.1-36.4,18-43.1,36.6c-6.2,16.9-4.5,36,1.9,52.9S-37.8,64.9-26,78.6
				c14.3,16.5,30.4,31.5,48.8,43.2c5.3,3.4,11.1,6.5,17.4,6.9c6,0.3,11.8-2,17.1-4.6c31.8-15.8,54.8-45.4,70.7-77.2
				c3.7-7.4,7.1-15.1,9.1-23.2c4.9-19.8,0.5-42.2-13.5-57.1s-39.8-21.7-58-12.5c-4.3,2.2-6.7,4.1-10.2,7.4
				c-4.9,4.7-7.6,9.2-11.8,12.5c-5.9,4.5-9-9.7-13-14.3C19.8-52.6,2.4-58.8-13.7-56.3z"/>
		</g>
		<g id="Layer_23" class="st3">
			<g>
				<g>
					<path id="XMLID_00000154384741056905611480000009164331945301209278_" class="st52" d="M144.5,132.4L83.9,64.3
						c-1.2-1.2-1.7-3.1-1.3-5.2c3.2-0.7,7-2.6,10.1-5.7c3.9-4,6.1-6.4,7.3-9.9c1.2,0.1,2.2,0.5,3,1.3l60.6,68.1"/>
				</g>
			</g>
			<g>
				<g>
					<path id="XMLID_00000044155461908980460110000008728632422358899640_" class="st26" d="M101.4,44.2c0.9,0.2,0.9-0.1,1.6,0.6
						l60.6,68.1"/>
					<path id="XMLID_00000050628200781200605040000008360177928360007077_" class="st26" d="M144.5,132.4L83.9,64.3
						c-1.1-1.1-1.5-2-1.3-3.9"/>
				</g>
			</g>
			<g>
				<g>
					
						<ellipse id="XMLID_00000043419272542832784870000002033762770891514522_" transform="matrix(0.6979 -0.7162 0.7162 0.6979 -41.3626 147.2929)" class="st57" cx="153.9" cy="122.7" rx="13.7" ry="7.6"/>
				</g>
			</g>
			<path class="st58" d="M135.1,122c-3-2.9-1.2-9.7,4.1-15.1c5.3-5.4,11.9-7.4,15-4.5l-7.5-9c-3-2.9-9.7-0.9-15,4.5
				s-7.1,12.2-4.1,15.1L135.1,122z"/>
			<path class="st58" d="M96.6,79.1c-3-2.9-1.4-9,3.8-14.4c5.3-5.4,12.4-7.6,15.4-4.7l-6-7.1c-3-2.9-9.7-0.9-15,4.5
				s-7.1,12.2-4.1,15.1L96.6,79.1z"/>
		</g>
		<g id="Layer_27_copy_2" class="st3">
			<path class="st26" d="M67.7,59.7c7,3.6,13.2,1.8,19.9-2.3c5.3-3.3,10-7.6,13.3-12.9c3.3-5.3,5-10.1,4.3-16.3"/>
			<path class="st26" d="M76.7,77c5.5-4.8,5.8-9.5,4.4-15"/>
			<path class="st26" d="M102,44.3c4.5,2.7,11.1,2,15.2-5.2"/>
		</g>
		<g id="Layer_23_copy" class="st3">
			<g>
				<g>
					<path id="XMLID_00000091002657052226280760000014981285410027381950_" class="st41" d="M14.8,70.5c-0.7,2.4,0,2.9-1,5.1
						c-1.1,2.5-4.9,7.1-6.8,9"/>
					<path id="XMLID_00000026122712618725891690000016661577392349640856_" class="st41" d="M-14.1,67.3c3.6-4.1,5.9-7.9,10.7-8.7
						c2.5-0.5,3.9-0.5,5.6-0.8"/>
				</g>
			</g>
			<g>
				<g>
					<path id="XMLID_00000141420563084093370260000001184979726973597083_" class="st41" d="M-75.4,134.2L-13.8,67
						c2.6-3.3,9.5-2.1,15.5,2.6c5.9,4.7,8.5,11.1,6,14.4l-61.6,67.2"/>
				</g>
			</g>
			<g>
				<g>
					
						<ellipse id="XMLID_00000068665490834423270110000001614266894838992564_" transform="matrix(0.6219 -0.7831 0.7831 0.6219 -136.1758 3.1653)" class="st57" cx="-64.8" cy="142.6" rx="7.6" ry="13.7"/>
				</g>
			</g>
			<path class="st58" d="M-65.9,123.8c2.6-3.3,9.5-2.1,15.5,2.6c5.9,4.7,8.5,11.1,6,14.4l8.2-8.4c2.6-3.3,0-9.7-6-14.4
				c-5.9-4.7-12.8-5.9-15.5-2.6L-65.9,123.8z"/>
			<path class="st58" d="M-27.2,81.2c2.6-3.3,8.8-2.3,14.7,2.4c5.9,4.7,8.9,11.5,6.2,14.8l6.4-6.7c2.6-3.3,0-9.7-6-14.4
				c-5.9-4.7-12.8-5.9-15.5-2.6L-27.2,81.2z"/>
		</g>
		<g id="Layer_27_copy_3" class="st3">
			<path class="st26" d="M-3.4,42.6c0,11.4,24.6,34.7,36.8,35.5"/>
			<path class="st26" d="M-13.6,50.7c5.3,5,7.6,5.1,12.9,3.2"/>
			<path class="st26" d="M18.8,73.1c-1.4,4.4,0.6,9.3,6.6,14.7"/>
		</g>
		<g id="Layer_23_copy_2" class="st3">
			<g>
				<g>
					<path id="XMLID_00000031913609600418535380000017780927310963067066_" class="st52" d="M-102.1-31.1l68.8,16.4l-3.8,27.1
						l-69.4-16.5"/>
				</g>
			</g>
			<g>
				<g>
					<path id="XMLID_00000065037916043182766800000002181175471271369138_" class="st26" d="M-37.2,12.4l-69.4-16.5"/>
					<path id="XMLID_00000064320509432827778710000003987003283839990919_" class="st26" d="M-102.1-31.1l68.8,16.4"/>
				</g>
			</g>
			<g>
				<g>
					
						<ellipse id="XMLID_00000026874385010017141970000005539207354889540534_" transform="matrix(0.1618 -0.9868 0.9868 0.1618 -69.9449 -117.8069)" class="st59" cx="-104.3" cy="-17.7" rx="13.7" ry="7.6"/>
				</g>
			</g>
			<path class="st58" d="M-88.5-27.9c4.2,0.7,6.5,7.3,5.3,14.8c-1.2,7.4-5.6,12.9-9.7,12.2l11.4,3.1c4.2,0.7,8.5-4.8,9.7-12.2
				c1.2-7.5-1.1-14.1-5.3-14.8L-88.5-27.9z"/>
		</g>
		<g id="Layer_27_copy" class="st3">
			<path class="st26" d="M-22.7-22.2c-7.6,2-11,7.4-13.3,15c-1.8,6-2.4,12.3-1.3,18.5c1.1,6.1,3,10.8,7.6,15"/>
			<path class="st26" d="M-40.9-29.1c-0.9,7.2,2,11,6.7,14.1"/>
			<path class="st26" d="M-37.9,12.2c-5.2,1-9.6,5.9-7.9,14"/>
		</g>
	</g>
</g>
<g id="Functional">
	<g id="Plus_line" class="st0">
		<path class="st9" d="M53.3,27.9c0,14.1-9.9,25.4-25,25.9C14.1,54.4,2.8,45.7,2.5,30.2C2.2,14.6,13,2.8,28.2,2.5
			C42.4,2.2,53.3,12.7,53.3,27.9z"/>
		<path class="st60" d="M28.3,14.9c-0.6,8.9-0.8,17.9-0.4,26.8"/>
		<path class="st60" d="M14.9,28.1c8.6-0.6,17.3-0.9,26-0.9"/>
	</g>
	<g id="Plus_filled" class="st0">
		<path class="st7" d="M53.3,27.9c0,14.1-9.9,25.4-25,25.9C14.1,54.4,2.8,45.7,2.5,30.2C2.2,14.6,13,2.8,28.2,2.5
			C42.4,2.2,53.3,12.7,53.3,27.9z"/>
		<path class="st61" d="M28.3,14.9c-0.6,8.9-0.8,17.9-0.4,26.8"/>
		<path class="st61" d="M14.9,28.1c8.6-0.6,17.3-0.9,26-0.9"/>
	</g>
	<g id="Minus_line" class="st0">
		<path class="st9" d="M53.3,27.9c0,14.1-9.9,25.4-25,25.9C14.1,54.4,2.8,45.7,2.5,30.2C2.2,14.6,13,2.8,28.2,2.5
			C42.4,2.2,53.3,12.7,53.3,27.9z"/>
		<path class="st60" d="M14.9,28.1c8.6-0.6,17.3-0.9,26-0.9"/>
	</g>
	<g id="Minus_filled" class="st0">
		<path class="st7" d="M53.3,27.9c0,14.1-9.9,25.4-25,25.9C14.1,54.4,2.8,45.7,2.5,30.2C2.2,14.6,13,2.8,28.2,2.5
			C42.4,2.2,53.3,12.7,53.3,27.9z"/>
		<path class="st61" d="M14.9,28.1c8.6-0.6,17.3-0.9,26-0.9"/>
	</g>
	<g id="Close_black" class="st0">
		<path class="st9" d="M53.3,27.9c0,14.1-9.9,25.4-25,25.9C14.1,54.4,2.8,45.7,2.5,30.2C2.2,14.6,13,2.8,28.2,2.5
			C42.4,2.2,53.3,12.7,53.3,27.9z"/>
		<path class="st60" d="M36.5,38.7c-5.3-7.2-11.1-14.1-17.2-20.6"/>
		<path class="st60" d="M37,18.6c-6.5,5.4-13.2,12-18.5,18.5"/>
	</g>
	<g id="Close_white">
		<path class="st30" d="M53.3,27.9c0,14.1-9.9,25.4-25,25.9C14.1,54.4,2.8,45.7,2.5,30.2C2.2,14.6,13,2.8,28.2,2.5
			C42.4,2.2,53.3,12.7,53.3,27.9z"/>
		<path class="st62" d="M36.5,38.7c-5.3-7.2-11.1-14.1-17.2-20.6"/>
		<path class="st62" d="M37,18.6c-6.5,5.4-13.2,12-18.5,18.5"/>
	</g>
	<g id="Radio_unchecked" class="st0">
		<path class="st9" d="M53.3,27.9c0,14.1-9.9,25.4-25,25.9C14.1,54.4,2.8,45.7,2.5,30.2C2.2,14.6,13,2.8,28.2,2.5
			C42.4,2.2,53.3,12.7,53.3,27.9z"/>
	</g>
	<g id="Radio_checked" class="st0">
		<path class="st9" d="M53.3,27.9c0,14.1-9.9,25.4-25,25.9C14.1,54.4,2.8,45.7,2.5,30.2C2.2,14.6,13,2.8,28.2,2.5
			C42.4,2.2,53.3,12.7,53.3,27.9z"/>
		<path class="st7" d="M40.7,28.1c0,7.1-5,12.8-12.6,13c-7.1,0.3-12.8-4.1-13-11.9c-0.1-7.8,5.2-13.8,12.9-13.9
			C35.2,15.2,40.7,20.4,40.7,28.1z"/>
	</g>
	<g id="Error_Black" class="st0">
		<path class="st9" d="M53.3,27.9c0,14.1-9.9,25.4-25,25.9C14.1,54.4,2.8,45.7,2.5,30.2C2.2,14.6,13,2.8,28.2,2.5
			C42.4,2.2,53.3,12.7,53.3,27.9z"/>
		<path class="st60" d="M27.7,12.2c0.1,6.6,0.2,11.1,0.3,17.7"/>
		<ellipse class="st63" cx="28.1" cy="42.8" rx="0.8" ry="0.7"/>
	</g>
	<g id="Error_Whitepy" class="st0">
		<path class="st64" d="M53.3,27.9c0,14.1-9.9,25.4-25,25.9C14.1,54.4,2.8,45.7,2.5,30.2C2.2,14.6,13,2.8,28.2,2.5
			C42.4,2.2,53.3,12.7,53.3,27.9z"/>
		<path class="st61" d="M27.7,12.2c0.1,6.6,0.2,11.1,0.3,17.7"/>
		<ellipse class="st65" cx="28.1" cy="42.8" rx="0.8" ry="0.7"/>
	</g>
	<g id="Menu_black" class="st0">
		<path class="st6" d="M9.8,6.1c12.8-0.5,26.4-0.3,39.2,0"/>
		<path class="st6" d="M9.8,26.2c12.8-0.5,26.4-0.3,39.2,0"/>
		<path class="st6" d="M9.8,46.2c12.8-0.5,26.4-0.3,39.2,0"/>
	</g>
	<g id="Menu_whiteopy" class="st0">
		<path class="st66" d="M9.8,6.1c12.8-0.5,26.4-0.3,39.2,0"/>
		<path class="st66" d="M9.8,26.2c12.8-0.5,26.4-0.3,39.2,0"/>
		<path class="st66" d="M9.8,46.2c12.8-0.5,26.4-0.3,39.2,0"/>
	</g>
	<g id="Drop_down" class="st0">
		<path class="st7" d="M10.4,11.3C7.6,12.1,27,47.3,29,47.7c1.4,0.3,6.1-9.1,11.3-18.1c8.2-14.1,9.9-16.7,7.9-17.5
			C44.8,10.6,15.3,9.8,10.4,11.3z"/>
	</g>
	<g id="heckbox_unchecked" class="st0">
		<path class="st9" d="M49.4,7.3C47.3,5.8,9.7,5.7,8.7,7.6c-1.4,2.8-2.3,39.8,0,42.6c1,1.2,39.2,1.7,40.4,0.3
			C50.5,48.8,51.4,8.7,49.4,7.3z"/>
	</g>
	<g id="heckbox_checked" class="st0">
		<path class="st9" d="M49.4,7.3C47.3,5.8,9.7,5.7,8.7,7.6c-1.4,2.8-2.3,39.8,0,42.6c1,1.2,39.2,1.7,40.4,0.3
			C50.5,48.8,51.4,8.7,49.4,7.3z"/>
		<path class="st60" d="M18,31.9c4,2.5,7.7,5.3,11.3,8.5c7.9-15.8,16.4-29.6,24.9-41.8"/>
	</g>
</g>
</svg>
