<?xml version="1.0" encoding="utf-8"?>
<!-- Generator: Adobe Illustrator 27.7.0, SVG Export Plug-In . SVG Version: 6.00 Build 0)  -->
<svg version="1.1" id="Layer_1" xmlns="http://www.w3.org/2000/svg" xmlns:xlink="http://www.w3.org/1999/xlink" x="0px" y="0px"
	 viewBox="0 0 633.8 623.8" style="enable-background:new 0 0 633.8 623.8;" xml:space="preserve">
<style type="text/css">
	.st0{fill:#FFFFFF;}
	.st1{fill:none;stroke:#000000;stroke-width:11;stroke-linecap:round;stroke-linejoin:round;stroke-miterlimit:10;}
	.st2{fill:none;stroke:#000000;stroke-width:11.0003;stroke-linecap:round;stroke-linejoin:round;stroke-miterlimit:10.0003;}
	.st3{fill:none;stroke:#000000;stroke-width:6;stroke-linecap:round;stroke-linejoin:round;stroke-miterlimit:10;}
</style>
<path id="XMLID_00000075867900759228032990000005547815212325056914_" class="st0" d="M422.4,44.3
	c57.1,44.8,191.2,154.1,191.2,154.1c26.8,19.2,15.9,80-24.2,136.2s-94.2,86.1-121,67.1c0,0-140.7-110.2-191.3-154.2
	C215.4,198.1,361.5-5.3,422.4,44.3z"/>
<path class="st0" d="M583.9,169.1c36.8,5.8,40.3-74.8,21.6-112.5c-18.7-37.7-65.3-59-106-48.4c-13,3.4-25.6,9.8-34.2,20.2
	c-8.7,10.3-17.3,26.2-10,37.6c9.8,8.3,20.3,20.2,31.9,29.9c-21.3-57.3,39.3-59.6,64-43.8c25.8,12.4,53.9,75.3,1.1,94.4
	C565.5,156.5,572.8,161.2,583.9,169.1z"/>
<g>
	<g>
		<path id="XMLID_00000137835232645804793400000003639828711953585073_" class="st1" d="M422.4,44.3l191.2,154.1
			c26.8,19.2,15.9,80-24.2,136.2s-94.2,86.1-121,67.1L277.2,247.4"/>
	</g>
</g>
<g>
	<g>
		
			<ellipse id="XMLID_00000029047202515043840770000018354750541032763577_" transform="matrix(0.5815 -0.8136 0.8136 0.5815 27.8344 345.5236)" class="st2" cx="349.7" cy="145.7" rx="124.9" ry="59.5"/>
	</g>
</g>
<ellipse transform="matrix(0.5815 -0.8136 0.8136 0.5815 28.5978 344.0692)" class="st2" cx="348.7" cy="144.2" rx="93.3" ry="32.5"/>
<path class="st1" d="M583.9,169.1c34.8-13.3,40.3-74.8,21.6-112.5c-18.7-37.7-65.3-59-106-48.4c-13,3.4-25.6,9.8-34.2,20.2
	c-8.7,10.3-13.3,24.5-10,37.6"/>
<path class="st1" d="M554,147.2c9.6-0.9,17.5-8.5,22.3-16.9c10.6-19.1,7.6-44.5-6-61.7c-13.6-17.2-35.5-27.6-57.2-25
	c-10,1.2-22,7.1-27.1,15.9c-5.2,9.1-3.2,20.4-1.1,30.6"/>
<g>
	<g>
		<path id="XMLID_00000054261691405275646330000016628036463518085533_" d="M305.2,212.7c-20.8,14.2-29.8,35-29.8,60.1
			c0,7.5,0.9,15.5-3,21.8c-3.9,6.4-15.2,8-17.9,1.1c-2-5.2,1.3-13.4-4-15.4c-5.9-2.5-11,5.3-11.6,11.6c-1.2,13.4,4.1,26.6,4.3,40
			c0.1,13.4-8.6,29.2-22,28.4c-13.3-0.8-19.9-16.6-21.5-29.8c-7.4-58.4,23.3-119.6,74.3-148.7c13.7-7.8,28.7-13.5,41.3-22.9
			c13.6-10.2,23.9-24.1,37.1-34.7s32-19.4,47.1-11.6C339.6,215.6,305.2,212.8,305.2,212.7z"/>
	</g>
	<g>
		<path id="XMLID_00000123401653743652145040000004177842295019939505_" class="st3" d="M305.2,212.7c-20.8,14.2-29.8,35-29.8,60.1
			c0,7.5,0.9,15.5-3,21.8c-3.9,6.4-15.2,8-17.9,1.1c-2-5.2,1.3-13.4-4-15.4c-5.9-2.5-11,5.3-11.6,11.6c-1.2,13.4,4.1,26.6,4.3,40
			c0.1,13.4-8.6,29.2-22,28.4c-13.3-0.8-19.9-16.6-21.5-29.8c-7.4-58.4,23.3-119.6,74.3-148.7c13.7-7.8,28.7-13.5,41.3-22.9
			c13.6-10.2,23.9-24.1,37.1-34.7s32-19.4,47.1-11.6C339.6,215.6,305.2,212.8,305.2,212.7z"/>
	</g>
</g>
<g>
	<g>
		<path id="XMLID_00000015344020507648284290000013739975330937815457_" d="M245.1,449.9c2.7,6.4,3.4,13.3,4.8,19.9
			c2.8,13.8,8,27.2,15.5,39.1c4.3,7,9.6,13.8,11.9,21.7c2.4,8,1.1,17.7-5.5,22.6c-6.7,4.9-18.7,1.1-18.8-7.2
			c-7.8,5.7-8,17.2-5.3,26.5c2.7,9.2,7.8,17.9,8.6,27.4c0.7,9.7-5.3,20.9-15,20.9c-5.7-0.1-10.7-4.1-14.4-8.6
			c-11.9-14.5-15.2-33.9-17.5-52.5c-4.4-35.4-6.5-72.2,4.8-106.1C219.9,436,237.3,430.9,245.1,449.9z"/>
	</g>
	<g>
		<path id="XMLID_00000072279319781659156390000004933468731042619787_" class="st3" d="M245.1,449.9c2.7,6.4,3.4,13.3,4.8,19.9
			c2.8,13.8,8,27.2,15.5,39.1c4.3,7,9.6,13.8,11.9,21.7c2.4,8,1.1,17.7-5.5,22.6c-6.7,4.9-18.7,1.1-18.8-7.2
			c-7.8,5.7-8,17.2-5.3,26.5c2.7,9.2,7.8,17.9,8.6,27.4c0.7,9.7-5.3,20.9-15,20.9c-5.7-0.1-10.7-4.1-14.4-8.6
			c-11.9-14.5-15.2-33.9-17.5-52.5c-4.4-35.4-6.5-72.2,4.8-106.1C219.9,436,237.3,430.9,245.1,449.9z"/>
	</g>
</g>
<g>
	<g>
		<path id="XMLID_00000079460872779072173710000003521797038726598531_" d="M186.6,147.5c-5.2,1.3-10.8,0.1-16.1-0.9
			c-5.3-1-11-1.6-16,0.5c-2.4,1-4.4,2.7-6.5,4.2c-5.3,4.1-10.7,8.1-17.1,9.9s-13.9,1-18.6-3.7c-3.8-3.8-5.2-9.5-5.7-14.8
			c-0.7-6.5-0.4-13.3,2.9-18.9c2.5-4.2,6.5-7.2,10.8-9.6c12.5-7.1,27.8-8.8,41.5-4.8C171.8,112.2,213.9,140.7,186.6,147.5z"/>
	</g>
	<g>
		<path id="XMLID_00000013891264740459210470000010567064573358685581_" class="st3" d="M186.6,147.5c-5.2,1.3-10.8,0.1-16.1-0.9
			c-5.3-1-11-1.6-16,0.5c-2.4,1-4.4,2.7-6.5,4.2c-5.3,4.1-10.7,8.1-17.1,9.9s-13.9,1-18.6-3.7c-3.8-3.8-5.2-9.5-5.7-14.8
			c-0.7-6.5-0.4-13.3,2.9-18.9c2.5-4.2,6.5-7.2,10.8-9.6c12.5-7.1,27.8-8.8,41.5-4.8C171.8,112.2,213.9,140.7,186.6,147.5z"/>
	</g>
</g>
<g>
	<g>
		<path id="XMLID_00000065068072363165775410000007756246814762052029_" d="M78.4,302.2c-2.7,3.8-7,6-10.4,9.1
			c-9,8.1-11.5,20.9-14.9,32.6c-3.5,11.6-9.8,24.3-21.6,27.2c-10.4,2.5-21.6-4.2-25.9-13.9c-4.4-9.7-2.8-21.3,2-30.8
			s12.7-17,21-23.6c9.7-7.8,20.7-14.6,33-16.6C70.4,284.7,86.7,290.7,78.4,302.2z"/>
	</g>
	<g>
		<path id="XMLID_00000133498817848023911650000009243084766489515143_" class="st3" d="M78.4,302.2c-2.7,3.8-7,6-10.4,9.1
			c-9,8.1-11.5,20.9-14.9,32.6c-3.5,11.6-9.8,24.3-21.6,27.2c-10.4,2.5-21.6-4.2-25.9-13.9c-4.4-9.7-2.8-21.3,2-30.8
			s12.7-17,21-23.6c9.7-7.8,20.7-14.6,33-16.6C70.4,284.7,86.7,290.7,78.4,302.2z"/>
	</g>
</g>
</svg>
