<?xml version="1.0" encoding="utf-8"?>
<!-- Generator: Adobe Illustrator 27.7.0, SVG Export Plug-In . SVG Version: 6.00 Build 0)  -->
<svg version="1.1" xmlns="http://www.w3.org/2000/svg" xmlns:xlink="http://www.w3.org/1999/xlink" x="0px" y="0px"
	 viewBox="0 0 739.3 808.9" style="enable-background:new 0 0 739.3 808.9;" xml:space="preserve">
<style type="text/css">
	.st0{stroke:#000000;stroke-width:7;stroke-miterlimit:10;}
	.st1{fill:none;stroke:#000000;stroke-width:7;stroke-linecap:round;stroke-linejoin:round;stroke-miterlimit:10;}
	.st2{fill:#FFFFFF;stroke:#000000;stroke-width:5;stroke-linecap:round;stroke-linejoin:round;stroke-miterlimit:10;}
	.st3{fill:none;stroke:#000000;stroke-width:12;stroke-linecap:round;stroke-linejoin:round;stroke-miterlimit:10;}
	.st4{fill:none;stroke:#FFFFFF;stroke-width:1.1552;stroke-linejoin:round;stroke-miterlimit:10;}
	.st5{fill:#FFFFFF;stroke:#000000;stroke-width:7;stroke-linecap:round;stroke-linejoin:round;stroke-miterlimit:10;}
	.st6{fill:none;stroke:#000000;stroke-width:15;stroke-linecap:round;stroke-linejoin:round;stroke-miterlimit:10;}
</style>
<g id="Layer_2">
	<polygon class="st0" points="119.1,667.1 356.3,530.4 592.9,667.1 356.8,803.2 	"/>
	<line class="st1" x1="356.3" y1="502.9" x2="356.3" y2="530.4"/>
	<polygon class="st1" points="356.3,499.9 93.1,651.8 355.7,805.4 621.1,652.4 	"/>
</g>
<g id="Layer_3">
	<line class="st1" x1="6" y1="348.2" x2="23.8" y2="355.9"/>
	<polyline class="st1" points="303.4,228.8 267.8,227.1 3.5,346.6 67,625.2 89.3,641 23.8,355.9 303.4,228.8 352.5,489.1 89.3,641 	
		"/>
	<polyline class="st1" points="338.9,438.9 75.6,580.1 53.6,564.3 	"/>
	<polyline class="st1" points="328.8,383 61.1,521.9 41.6,510 	"/>
	<polyline class="st1" points="320.3,330.5 49.2,464.3 29.8,455 	"/>
	<polyline class="st1" points="310.1,283 39.1,408.4 16.2,397.4 	"/>
	<path class="st2" d="M147,605.6c1.7-1.2,17.1-9.4,17.1-9.4c3.1-1.7,5.3,2.4,5.8,6.7c0.5,4.3-0.5,6.6-3,8.2
		c-4.2,2.7-15.2,9.4-17.3,9.7"/>
	<ellipse transform="matrix(0.9928 -0.1194 0.1194 0.9928 -72.1616 22.1392)" class="st2" cx="148.6" cy="613.1" rx="4" ry="7.8"/>
	<path class="st2" d="M281.9,527.3c1.6-1.3,16.9-9.8,16.9-9.8c3.1-1.7,5.3,2.3,5.9,6.6c0.6,4.3-0.4,6.6-2.8,8.3
		c-4.1,2.8-14.9,9.7-17.1,10.1"/>
	<ellipse transform="matrix(0.9898 -0.1422 0.1422 0.9898 -73.1516 45.767)" class="st2" cx="283.7" cy="534.8" rx="4" ry="7.8"/>
	<line class="st3" x1="97.6" y1="335.4" x2="153.7" y2="587.2"/>
	<line class="st3" x1="236.2" y1="272.6" x2="286.1" y2="508.9"/>
	<ellipse transform="matrix(0.9818 -0.1899 0.1899 0.9818 -62.4353 24.905)" class="st4" cx="98.8" cy="338.3" rx="2.8" ry="3"/>
	<ellipse transform="matrix(0.9818 -0.1899 0.1899 0.9818 -66.4327 26.2234)" class="st4" cx="103.6" cy="359.8" rx="2.8" ry="3"/>
	<ellipse transform="matrix(0.9818 -0.1899 0.1899 0.9818 -72.4036 28.1531)" class="st4" cx="110.7" cy="392" rx="2.8" ry="3"/>
	<ellipse transform="matrix(0.9818 -0.1899 0.1899 0.9818 -76.4011 29.4716)" class="st4" cx="115.6" cy="413.5" rx="2.8" ry="3"/>
	<ellipse transform="matrix(0.9818 -0.1899 0.1899 0.9818 -82.4486 31.3381)" class="st4" cx="122.3" cy="446" rx="2.8" ry="3"/>
	<ellipse transform="matrix(0.9818 -0.1899 0.1899 0.9818 -86.446 32.6566)" class="st4" cx="127.2" cy="467.5" rx="2.8" ry="3"/>
	<ellipse transform="matrix(0.9818 -0.1899 0.1899 0.9818 -92.7477 34.6821)" class="st4" cx="134.6" cy="501.4" rx="2.8" ry="3"/>
	<ellipse transform="matrix(0.9818 -0.1899 0.1899 0.9818 -96.7451 36.0006)" class="st4" cx="139.5" cy="522.9" rx="2.8" ry="3"/>
	<ellipse transform="matrix(0.9818 -0.1899 0.1899 0.9818 -103.4408 38.1313)" class="st4" cx="147.3" cy="558.9" rx="2.8" ry="3"/>
	<ellipse transform="matrix(0.9818 -0.1899 0.1899 0.9818 -107.4383 39.4497)" class="st4" cx="152.2" cy="580.5" rx="2.8" ry="3"/>
	<ellipse transform="matrix(0.9818 -0.1899 0.1899 0.9818 -47.9665 50.0505)" class="st4" cx="237.2" cy="275.4" rx="2.8" ry="3"/>
	<ellipse transform="matrix(0.9818 -0.1899 0.1899 0.9818 -51.9639 51.369)" class="st4" cx="242.1" cy="296.9" rx="2.8" ry="3"/>
	<ellipse transform="matrix(0.9818 -0.1899 0.1899 0.9818 -57.4292 52.9822)" class="st4" cx="247.8" cy="326.2" rx="2.8" ry="3"/>
	<ellipse transform="matrix(0.9818 -0.1899 0.1899 0.9818 -61.4266 54.3007)" class="st4" cx="252.7" cy="347.7" rx="2.8" ry="3"/>
	<ellipse transform="matrix(0.9818 -0.1899 0.1899 0.9818 -67.0485 55.9478)" class="st4" cx="258.5" cy="377.9" rx="2.8" ry="3"/>
	<ellipse transform="matrix(0.9818 -0.1899 0.1899 0.9818 -71.0459 57.2662)" class="st4" cx="263.4" cy="399.4" rx="2.8" ry="3"/>
	<ellipse transform="matrix(0.9818 -0.1899 0.1899 0.9818 -76.8389 59.0082)" class="st4" cx="269.6" cy="430.5" rx="2.8" ry="3"/>
	<ellipse transform="matrix(0.9818 -0.1899 0.1899 0.9818 -80.8364 60.3267)" class="st4" cx="274.4" cy="452.1" rx="2.8" ry="3"/>
	<ellipse transform="matrix(0.9818 -0.1899 0.1899 0.9818 -86.7971 62.1282)" class="st4" cx="280.9" cy="484.1" rx="2.8" ry="3"/>
	<ellipse transform="matrix(0.9818 -0.1899 0.1899 0.9818 -90.7946 63.4466)" class="st4" cx="285.7" cy="505.6" rx="2.8" ry="3"/>
</g>
<g id="Layer_5">
	<path class="st5" d="M287.3,761.3C328.4,656,413.2,439.1,418.5,425.7c11.9-29.6,50.8-12.7,41.5,14.4
		c-4.8,14.1-92.1,239.3-133.5,346.1"/>
	<path class="st5" d="M454.5,748.6c41.9-107.2,92.1-235.6,96.1-245.8c11.9-29.6,50.8-12.7,41.5,14.4c-3,8.8-38.4,100.5-74.6,194"/>
	<path class="st5" d="M526.1,559.6c0,0-96.8-56.2-105.9-61c-12.3-6.5-22,11.9-10.2,18.6c11.9,6.8,108.4,62.7,108.4,62.7"/>
	<path class="st5" d="M498.1,635.8c0,0-96.8-56.2-105.9-61c-12.3-6.5-22,11.9-10.2,18.6c11.9,6.8,108.4,62.7,108.4,62.7"/>
	<path class="st5" d="M468.4,709.5c0,0-96.8-56.2-105.9-61c-12.3-6.5-22,11.9-10.2,18.6c11.9,6.8,108.4,62.7,108.4,62.7"/>
	<path class="st5" d="M415.1,769.6c-29.1-16.8-78-45.1-84.3-48.5c-12.3-6.5-22,11.9-10.2,18.6c7.1,4,44.4,25.6,73.3,42.4"/>
	<line class="st1" x1="355.7" y1="805.4" x2="621.1" y2="652.4"/>
</g>
<g id="Layer_6">
	<path class="st6" d="M436,109.7c-12.1-12.8-1.6-33.1,3.8-49.8c3.7-11.3,4.6-24.1-0.4-34.9S422.7,5.9,411,7.8
		c-7,1.1-13.1,5.4-17.9,10.6c-10.9,11.9-15.6,29.2-12.2,45c1.6,7.4,4.9,14.3,6.4,21.7c3.1,14.8-0.8,30.1-4.5,44.8
		c-3.7,14.7-7,30.2-2.9,44.8s18.5,27.4,33.3,24.4c11-2.2,19.1-12.4,22-23.3s1.6-22.4,0-33.5"/>
	<path class="st6" d="M466.2,94.9c2.3,12.6,1.4,25.8,0,38.5c-2.1,19.8-11.8,39.3-3.2,57.3c5.5,11.6,19.9,17.3,32.5,14.9
		s23.1-11.8,29.3-23c7-12.7,8.9-28.1,5.3-42.1c-3.1-12.3-10.2-23.4-12.3-36c-3.1-19.4,8.4-53.5-19.1-59.6
		C469.2,38.3,462.5,74.8,466.2,94.9z"/>
	<path class="st6" d="M536.1,218.1c17.5-15.2,28.7-32.2,27.3-54s-10.7-39.7-15.4-61c-15.9-57.6,35.2-75.6,45.1-37.8
		c1.3,10.6-1.4,21.4-0.4,32c1.3,13.9,8.9,26.9,8.9,40.9c0.1,23.9-21.3,48.6-9,69"/>
	<path class="st6" d="M593.8,95.1c5.7-22.4,27.8-22.6,37.5-14.7s11.8,22.1,9.9,34.5c-1.9,12.4-7,24.1-9.1,36.4
		c-6.2,36,13.2,84.7-12.8,117.7"/>
	<path class="st6" d="M668.4,201.7c6.7,5.5,16.9-1.7,31.5-2.7c12.6-0.8,24.9,8.8,30.2-2.7c3.1-6.7,1.4-14.6-0.6-21.7
		c-2.8-10-5.9-19.9-9.4-29.6c-1.7-4.7-3.5-9.4-6.9-13c-7.2-7.6-19.8-7.8-29-2.8c-9.2,5-15.3,14.2-19.9,23.6
		c-2.2,4.5-4.1,9.2-4.8,14.2c-2.3,16.9,9.5,33.3,7.2,50.2c-1.3,9.5-6.9,17.9-9,27.2c-3.3,14.2,1.8,32.7,15.4,37.8
		c50.6,18.8,30.3-30.8,48.5-38.8"/>
	<path class="st6" d="M457.3,392.3c11.9-13,15.9-25.2,14.6-43.7c-0.4-6-2.2-11.7-3.6-17.5c-4.7-20.1-3.7-34,1.5-54
		c1.4-5.5,3.3-11,6.8-15.2c3.4-4.2,8.7-6.8,13.5-5.3c5.4,1.7,8.9,8.1,9.7,14.4c0.8,6.4-0.5,12.8-1.7,19.1
		c-6.4,34.1-5.3,68.6,3.2,102.1c2.3,9.2,7.7,20.8,16.1,21.4c14.4,1,21.2-23.3,12.2-58.8c-2.9-11.4-5.5-23.2-4.3-35
		c1.8-18.8,17.2-28.9,13.8-59.4"/>
	<path class="st6" d="M377.7,361.2c-3.4-13,3.9-20,3.4-36.3c-0.5-15.3-7.3-30.2-8.7-45.4c-1.5-16.8,4.1-44,23.3-49.8
		c12.8-3.9,29.4-0.7,37.3,12.3c2.4,4,4.4,8.5,5.1,13.5c1.4,9.4-4.1,24.9-4,34.5c0.2,11.4,2,27.9,4.5,38.9
		c4.5,19.4-1.1,35.5-10.2,45.4C413.8,390.2,386.1,393.2,377.7,361.2z"/>
	<path class="st6" d="M613.2,474.5c8.2-25-5.7-61.5,2.3-86.1c5.6-17.5,10.2-27.9,13.2-57c3.3-14,7.2-28.3,18.7-27.1
		c16.1,1.7,13.2,23.8,12,36.4c-0.3,17.9-8.2,34.3-13.3,51.3c-8.5,28.6,1.5,79.2,12.9,98.1c2.6,4.4,7.2,7.1,11.8,7.1
		c20.3,0,16-23.6,10-60.7c-3.7-22.6-1-44.2,4.6-62.4c6.9-22.2,12.6-32.6,22.4-40.4"/>
	<path class="st6" d="M577.2,451.9c11.3-23.5,2.9-53.5,10-79.1c2.2-7.9,5.8-15.1,8.6-22.7c5.2-13.9,3.7-25.9,1.4-40.8"/>
	<path class="st6" d="M722.7,436.8c-3-21.9,7.4-29.4,3.6-46.3"/>
	<path d="M726.5,453.3c-4.6,0-8.3,3.7-8.3,8.3s3.7,8.3,8.3,8.3s8.3-3.7,8.3-8.3S731.1,453.3,726.5,453.3z"/>
</g>
</svg>
