<svg xmlns="http://www.w3.org/2000/svg" xmlns:xlink="http://www.w3.org/1999/xlink" preserveAspectRatio="xMidYMid meet" width="900" height="1250" viewBox="0 0 900 1250" style="width:100%;height:100%"><defs><animate repeatCount="indefinite" dur="4.5s" begin="0s" xlink:href="#_R_G_L_0_G_D_72_P_0" fill="freeze" attributeName="opacity" from="0" to="0" keyTimes="0;0.0833333;0.0925926;0.1111111;0.1203704;0.1296296;0.1944444;0.2037037;0.212963;0.2222222;0.2407407;0.25;0.3703704;0.3796296;0.3888889;0.3981481;0.4074074;0.4351852;0.4444444;0.5462963;0.5555556;0.6018519;0.6111111;1" values="0;0;1;1;0;0;0;1;0;1;1;0;0;1;1;0;1;1;0;0;1;1;0;0" keySplines="0.167 0.167 0.833 0.833;0.167 0.167 0.833 0.833;0.167 0.167 0.833 0.833;0.167 0.167 0.833 0.833;0.167 0.167 0.833 0.833;0.167 0.167 0.833 0.833;0.167 0.167 0.833 0.833;0.167 0.167 0.833 0.833;0.167 0.167 0.833 0.833;0.167 0.167 0.833 0.833;0.167 0.167 0.833 0.833;0.167 0.167 0.833 0.833;0.167 0.167 0.833 0.833;0.167 0.167 0.833 0.833;0.167 0.167 0.833 0.833;0.167 0.167 0.833 0.833;0.167 0.167 0.833 0.833;0.167 0.167 0.833 0.833;0.167 0.167 0.833 0.833;0.167 0.167 0.833 0.833;0.167 0.167 0.833 0.833;0.167 0.167 0.833 0.833;0 0 0 0" calcMode="spline"/><animate repeatCount="indefinite" dur="4.5s" begin="0s" xlink:href="#_R_G_L_0_G_D_73_P_0" fill="freeze" attributeName="opacity" from="0" to="0" keyTimes="0;0.0833333;0.0925926;0.1111111;0.1203704;0.1296296;0.1944444;0.2037037;0.212963;0.2222222;0.2407407;0.25;0.3703704;0.3796296;0.3888889;0.3981481;0.4074074;0.4351852;0.4444444;0.5462963;0.5555556;0.6018519;0.6111111;1" values="0;0;1;1;0;0;0;1;0;1;1;0;0;1;1;0;1;1;0;0;1;1;0;0" keySplines="0.167 0.167 0.833 0.833;0.167 0.167 0.833 0.833;0.167 0.167 0.833 0.833;0.167 0.167 0.833 0.833;0.167 0.167 0.833 0.833;0.167 0.167 0.833 0.833;0.167 0.167 0.833 0.833;0.167 0.167 0.833 0.833;0.167 0.167 0.833 0.833;0.167 0.167 0.833 0.833;0.167 0.167 0.833 0.833;0.167 0.167 0.833 0.833;0.167 0.167 0.833 0.833;0.167 0.167 0.833 0.833;0.167 0.167 0.833 0.833;0.167 0.167 0.833 0.833;0.167 0.167 0.833 0.833;0.167 0.167 0.833 0.833;0.167 0.167 0.833 0.833;0.167 0.167 0.833 0.833;0.167 0.167 0.833 0.833;0.167 0.167 0.833 0.833;0 0 0 0" calcMode="spline"/><animate repeatCount="indefinite" dur="4.5s" begin="0s" xlink:href="#_R_G_L_0_G_D_74_P_0" fill="freeze" attributeName="opacity" from="0" to="0" keyTimes="0;0.0833333;0.0925926;0.1111111;0.1203704;0.1296296;0.1944444;0.2037037;0.212963;0.2222222;0.2407407;0.25;0.3703704;0.3796296;0.3888889;0.3981481;0.4074074;0.4351852;0.4444444;0.5462963;0.5555556;0.6018519;0.6111111;1" values="0;0;1;1;0;0;0;1;0;1;1;0;0;1;1;0;1;1;0;0;1;1;0;0" keySplines="0.167 0.167 0.833 0.833;0.167 0.167 0.833 0.833;0.167 0.167 0.833 0.833;0.167 0.167 0.833 0.833;0.167 0.167 0.833 0.833;0.167 0.167 0.833 0.833;0.167 0.167 0.833 0.833;0.167 0.167 0.833 0.833;0.167 0.167 0.833 0.833;0.167 0.167 0.833 0.833;0.167 0.167 0.833 0.833;0.167 0.167 0.833 0.833;0.167 0.167 0.833 0.833;0.167 0.167 0.833 0.833;0.167 0.167 0.833 0.833;0.167 0.167 0.833 0.833;0.167 0.167 0.833 0.833;0.167 0.167 0.833 0.833;0.167 0.167 0.833 0.833;0.167 0.167 0.833 0.833;0.167 0.167 0.833 0.833;0.167 0.167 0.833 0.833;0 0 0 0" calcMode="spline"/><animate repeatCount="indefinite" dur="4.5s" begin="0s" xlink:href="#_R_G_L_0_G_D_75_P_0" fill="freeze" attributeName="opacity" from="0" to="0" keyTimes="0;0.0185185;0.0277778;0.0555556;0.0648148;0.0740741;0.0833333;0.0925926;0.1388889;0.1481481;0.1944444;0.2037037;0.4351852;0.4444444;0.462963;0.4722222;0.4814815;0.5092593;0.5185185;0.5277778;0.537037;0.5555556;0.5648148;1" values="0;0;1;1;0;1;1;0;0;1;1;0;0;1;1;0;0;0;1;0;1;1;0;0" keySplines="0.167 0.167 0.833 0.833;0.167 0.167 0.833 0.833;0.167 0.167 0.833 0.833;0.167 0.167 0.833 0.833;0.167 0.167 0.833 0.833;0.167 0.167 0.833 0.833;0.167 0.167 0.833 0.833;0.167 0.167 0.833 0.833;0.167 0.167 0.833 0.833;0.167 0.167 0.833 0.833;0.167 0.167 0.833 0.833;0.167 0.167 0.833 0.833;0.167 0.167 0.833 0.833;0.167 0.167 0.833 0.833;0.167 0.167 0.833 0.833;0.167 0.167 0.833 0.833;0.167 0.167 0.833 0.833;0.167 0.167 0.833 0.833;0.167 0.167 0.833 0.833;0.167 0.167 0.833 0.833;0.167 0.167 0.833 0.833;0.167 0.167 0.833 0.833;0 0 0 0" calcMode="spline"/><animate repeatCount="indefinite" dur="4.5s" begin="0s" xlink:href="#_R_G_L_0_G_D_76_P_0" fill="freeze" attributeName="opacity" from="0" to="0" keyTimes="0;0.0185185;0.0277778;0.0555556;0.0648148;0.0740741;0.0833333;0.0925926;0.1388889;0.1481481;0.1944444;0.2037037;0.4351852;0.4444444;0.462963;0.4722222;0.4814815;0.5092593;0.5185185;0.5277778;0.537037;0.5555556;0.5648148;1" values="0;0;1;1;0;1;1;0;0;1;1;0;0;1;1;0;0;0;1;0;1;1;0;0" keySplines="0.167 0.167 0.833 0.833;0.167 0.167 0.833 0.833;0.167 0.167 0.833 0.833;0.167 0.167 0.833 0.833;0.167 0.167 0.833 0.833;0.167 0.167 0.833 0.833;0.167 0.167 0.833 0.833;0.167 0.167 0.833 0.833;0.167 0.167 0.833 0.833;0.167 0.167 0.833 0.833;0.167 0.167 0.833 0.833;0.167 0.167 0.833 0.833;0.167 0.167 0.833 0.833;0.167 0.167 0.833 0.833;0.167 0.167 0.833 0.833;0.167 0.167 0.833 0.833;0.167 0.167 0.833 0.833;0.167 0.167 0.833 0.833;0.167 0.167 0.833 0.833;0.167 0.167 0.833 0.833;0.167 0.167 0.833 0.833;0.167 0.167 0.833 0.833;0 0 0 0" calcMode="spline"/><animate repeatCount="indefinite" dur="4.5s" begin="0s" xlink:href="#_R_G_L_0_G_D_77_P_0" fill="freeze" attributeName="opacity" from="0" to="0" keyTimes="0;0.0185185;0.0277778;0.0555556;0.0648148;0.0740741;0.0833333;0.0925926;0.1388889;0.1481481;0.1944444;0.2037037;0.4351852;0.4444444;0.462963;0.4722222;0.4814815;0.5092593;0.5185185;0.5277778;0.537037;0.5555556;0.5648148;1" values="0;0;1;1;0;1;1;0;0;1;1;0;0;1;1;0;0;0;1;0;1;1;0;0" keySplines="0.167 0.167 0.833 0.833;0.167 0.167 0.833 0.833;0.167 0.167 0.833 0.833;0.167 0.167 0.833 0.833;0.167 0.167 0.833 0.833;0.167 0.167 0.833 0.833;0.167 0.167 0.833 0.833;0.167 0.167 0.833 0.833;0.167 0.167 0.833 0.833;0.167 0.167 0.833 0.833;0.167 0.167 0.833 0.833;0.167 0.167 0.833 0.833;0.167 0.167 0.833 0.833;0.167 0.167 0.833 0.833;0.167 0.167 0.833 0.833;0.167 0.167 0.833 0.833;0.167 0.167 0.833 0.833;0.167 0.167 0.833 0.833;0.167 0.167 0.833 0.833;0.167 0.167 0.833 0.833;0.167 0.167 0.833 0.833;0.167 0.167 0.833 0.833;0 0 0 0" calcMode="spline"/><animate repeatCount="indefinite" dur="4.5s" begin="0s" xlink:href="#_R_G_L_0_G_D_78_P_0" fill="freeze" attributeName="opacity" from="0" to="0" keyTimes="0;0.2222222;0.2314815;0.2777778;0.4537037;0.462963;0.4722222;0.4814815;0.4907407;0.5185185;0.5277778;0.537037;0.6111111;0.7037037;1" values="0;0;1;1;1;0;1;0;1;1;0;1;1;0;0" keySplines="0.167 0.167 0.833 0.833;0.167 0.167 0.833 0.833;0.167 0.167 0.833 0.833;0.167 0.167 0.833 0.833;0.167 0.167 0.833 0.833;0.167 0.167 0.833 0.833;0.167 0.167 0.833 0.833;0.167 0.167 0.833 0.833;0.167 0.167 0.833 0.833;0.167 0.167 0.833 0.833;0.167 0.167 0.833 0.833;0.167 0.167 0.833 0.833;0.167 0.167 0 0.877;0 0 0 0" calcMode="spline"/><animate repeatCount="indefinite" dur="4.5s" begin="0s" xlink:href="#_R_G_L_0_G_D_79_P_0" fill="freeze" attributeName="opacity" from="0" to="0" keyTimes="0;0.2222222;0.2314815;0.2777778;0.4537037;0.462963;0.4722222;0.4814815;0.4907407;0.5185185;0.5277778;0.537037;0.6111111;0.7037037;1" values="0;0;1;1;1;0;1;0;1;1;0;1;1;0;0" keySplines="0.167 0.167 0.833 0.833;0.167 0.167 0.833 0.833;0.167 0.167 0.833 0.833;0.167 0.167 0.833 0.833;0.167 0.167 0.833 0.833;0.167 0.167 0.833 0.833;0.167 0.167 0.833 0.833;0.167 0.167 0.833 0.833;0.167 0.167 0.833 0.833;0.167 0.167 0.833 0.833;0.167 0.167 0.833 0.833;0.167 0.167 0.833 0.833;0.167 0.167 0 0.877;0 0 0 0" calcMode="spline"/><animate repeatCount="indefinite" dur="4.5s" begin="0s" xlink:href="#_R_G_L_0_G_D_80_P_0" fill="freeze" attributeName="opacity" from="0" to="0" keyTimes="0;0.2222222;0.2314815;0.2777778;0.4537037;0.462963;0.4722222;0.4814815;0.4907407;0.5185185;0.5277778;0.537037;0.6111111;0.7037037;1" values="0;0;1;1;1;0;1;0;1;1;0;1;1;0;0" keySplines="0.167 0.167 0.833 0.833;0.167 0.167 0.833 0.833;0.167 0.167 0.833 0.833;0.167 0.167 0.833 0.833;0.167 0.167 0.833 0.833;0.167 0.167 0.833 0.833;0.167 0.167 0.833 0.833;0.167 0.167 0.833 0.833;0.167 0.167 0.833 0.833;0.167 0.167 0.833 0.833;0.167 0.167 0.833 0.833;0.167 0.167 0.833 0.833;0.167 0.167 0 0.877;0 0 0 0" calcMode="spline"/><animate repeatCount="indefinite" dur="4.5s" begin="0s" xlink:href="#_R_G_L_0_G_D_81_P_0" fill="freeze" attributeName="opacity" from="0" to="0" keyTimes="0;0.0925926;0.1018519;0.2222222;0.2314815;1" values="0;0;1;1;0;0" keySplines="0.167 0.167 0.833 0.833;0.167 0.167 0.833 0.833;0.167 0.167 0.833 0.833;0.167 0.167 0.833 0.833;0 0 0 0" calcMode="spline"/><animate repeatCount="indefinite" dur="4.5s" begin="0s" xlink:href="#_R_G_L_0_G_D_82_P_0" fill="freeze" attributeName="opacity" from="0" to="0" keyTimes="0;0.0925926;0.1018519;0.2222222;0.2314815;1" values="0;0;1;1;0;0" keySplines="0.167 0.167 0.833 0.833;0.167 0.167 0.833 0.833;0.167 0.167 0.833 0.833;0.167 0.167 0.833 0.833;0 0 0 0" calcMode="spline"/><animate repeatCount="indefinite" dur="4.5s" begin="0s" xlink:href="#_R_G_L_0_G_D_82_P_0" fill="freeze" attributeName="opacity" from="0" to="0" keyTimes="0;0.0925926;0.1018519;0.2222222;0.2314815;1" values="0;0;1;1;0;0" keySplines="0.167 0.167 0.833 0.833;0.167 0.167 0.833 0.833;0.167 0.167 0.833 0.833;0.167 0.167 0.833 0.833;0 0 0 0" calcMode="spline"/><animate repeatCount="indefinite" dur="4.5s" begin="0s" xlink:href="#_R_G_L_0_G_D_83_P_0" fill="freeze" attributeName="opacity" from="0" to="0" keyTimes="0;0.0925926;0.1018519;0.2222222;0.2314815;1" values="0;0;1;1;0;0" keySplines="0.167 0.167 0.833 0.833;0.167 0.167 0.833 0.833;0.167 0.167 0.833 0.833;0.167 0.167 0.833 0.833;0 0 0 0" calcMode="spline"/><animate repeatCount="indefinite" dur="4.5s" begin="0s" xlink:href="#_R_G_L_0_G_D_84_P_0" fill="freeze" attributeName="opacity" from="1" to="0" keyTimes="0;0.0925926;0.1018519;1" values="1;1;0;0" keySplines="0.167 0.167 0.833 0.833;0.167 0.167 0.833 0.833;0 0 0 0" calcMode="spline"/><animate repeatCount="indefinite" dur="4.5s" begin="0s" xlink:href="#_R_G_L_0_G_D_85_P_0" fill="freeze" attributeName="opacity" from="1" to="0" keyTimes="0;0.0925926;0.1018519;1" values="1;1;0;0" keySplines="0.167 0.167 0.833 0.833;0.167 0.167 0.833 0.833;0 0 0 0" calcMode="spline"/><animate repeatCount="indefinite" dur="4.5s" begin="0s" xlink:href="#_R_G_L_0_G_D_85_P_0" fill="freeze" attributeName="opacity" from="1" to="0" keyTimes="0;0.0925926;0.1018519;1" values="1;1;0;0" keySplines="0.167 0.167 0.833 0.833;0.167 0.167 0.833 0.833;0 0 0 0" calcMode="spline"/><animate repeatCount="indefinite" dur="4.5s" begin="0s" xlink:href="#_R_G_L_0_G_D_86_P_0" fill="freeze" attributeName="opacity" from="1" to="0" keyTimes="0;0.0925926;0.1018519;1" values="1;1;0;0" keySplines="0.167 0.167 0.833 0.833;0.167 0.167 0.833 0.833;0 0 0 0" calcMode="spline"/><animate attributeType="XML" attributeName="opacity" dur="5s" from="0" to="1" xlink:href="#time_group"/></defs><g id="_R_G"><g id="_R_G_L_0_G" transform=" translate(486, 657) translate(-957, -683)"><path id="_R_G_L_0_G_D_0_P_0" fill="#ffffff" fill-opacity="1" fill-rule="nonzero" d=" M1217.2 316.4 C1217.2,316.4 1127.4,233.7 1081.3,228.4 C1052.3,228 925.7,223.8 805.1,223.5 C681.9,223.1 586.1,213.1 573,227.3 C557.1,229.1 507.4,528.3 487.2,643.8 C527.8,705.5 609.8,805.2 609.8,805.2 C609.8,805.2 606,828.1 606,828.1 C606,828.1 682.8,911.1 682.8,911.1 C682.8,911.1 1216.5,861.5 1216.5,861.5 C1216.5,861.5 1351.1,391.7 1351.1,391.7 C1351.1,391.7 1259.2,315.8 1259.2,315.8 C1259.2,315.8 1217.2,316.4 1217.2,316.4z "/><path id="_R_G_L_0_G_D_1_P_0" fill="#ffffff" fill-opacity="1" fill-rule="nonzero" d=" M660.7 872 C658.6,878.9 651,892 643.8,897.5 C625.6,905.6 596.2,915.7 590.6,939.5 C587.5,952.9 602.3,959.8 605.9,945.7 C609.5,931.6 612.1,929.7 625.9,921.3 C640.4,912.5 649.9,914.2 658.8,905.1 C667.7,896 672.6,890 674.3,883.7 C676,877.4 660.7,872 660.7,872z "/><path id="_R_G_L_0_G_D_2_P_0" fill="#ffffff" fill-opacity="1" fill-rule="nonzero" d=" M555.4 959.6 C555.4,959.6 512.4,963.5 512.4,963.5 C512.4,963.5 516.4,976.1 516.4,976.1 C516.4,976.1 485.2,988.3 485.2,988.3 C485.2,988.3 537.3,986.9 537.3,986.9 C537.3,986.9 532.6,972.2 532.6,972.2 C532.6,972.2 555.4,959.6 555.4,959.6z "/><path id="_R_G_L_0_G_D_3_P_0" fill="#ffffff" fill-opacity="1" fill-rule="nonzero" d=" M580.6 977.2 C580.6,977.2 537.3,1025.3 537.3,1025.3 C537.3,1025.3 544.9,1033.4 544.9,1033.4 C544.9,1033.4 518.9,1077.9 518.9,1077.9 C518.9,1077.9 576.6,1036.6 576.6,1036.6 C576.6,1036.6 566.6,1025 566.2,1024.9 C565.7,1024.7 580.6,977.2 580.6,977.2z "/><path id="_R_G_L_0_G_D_4_P_0" fill="#ffffff" fill-opacity="1" fill-rule="nonzero" d=" M605.3 988.2 C605.3,988.2 602,1033.6 602,1033.6 C602,1033.6 615.2,1033.1 614.8,1033.3 C614.4,1033.5 621.4,1075.3 621.4,1075.3 C621.4,1075.3 631.5,1017.7 631.5,1017.7 C631.5,1017.7 615.5,1018.9 615.5,1018.9 C615.5,1018.9 605.3,988.2 605.3,988.2z "/><path id="_R_G_L_0_G_D_5_P_0" fill="#ffffff" fill-opacity="1" fill-rule="nonzero" d=" M734 897.8 C734.2,902.5 731.2,914.9 723.2,922.9 C715.2,930.9 689,953.7 683.2,962.8 C664.9,987.2 660.2,1018.2 660.1,1023.4 C660,1028.6 672.1,1035.2 676.5,1027.6 C677.7,1018.9 680.2,993 691,979 C701.7,964.9 725.5,946.1 735.1,932.5 C744.7,919 750.8,905.3 749.9,899.5 C749,893.7 733.8,894.3 734,897.8z "/><path id="_R_G_L_0_G_D_6_P_0" fill="#ffffff" fill-opacity="1" fill-rule="nonzero" d=" M817.4 892.1 C812.8,896.8 805.9,905.1 802,913.5 C798.1,922 801.1,940.3 813.4,952 C825.7,963.7 838.5,960.4 848.5,965.6 C866.7,976.3 874.7,991.3 870.5,1019.3 C869.1,1025.6 881.4,1030.1 882.7,1022.8 C887.1,1005.2 882.3,987.5 879,977.7 C875.6,967.5 863.8,955.4 851.7,952.5 C833.5,950 816.8,942.2 815.7,931 C812.7,914.2 821.8,904.3 829.8,896.7 C837.7,889.1 819.9,889.7 817.4,892.1z "/><path id="_R_G_L_0_G_D_7_P_0" fill="#ffffff" fill-opacity="1" fill-rule="nonzero" d=" M844.8 888.7 C846.2,894 854.3,924.5 850.5,939.2 C846.7,953.9 837.6,976.1 823.3,986.3 C800.3,1002.4 780.5,1003.2 775.7,1004.9 C770.9,1006.6 772.4,1022.3 777.3,1021.6 C782.2,1020.9 811.5,1015.2 826.7,1002.2 C836,995.7 853.2,980.5 863.1,952.3 C870.1,932.5 865.4,900.2 861.7,889.8 C857.9,879.4 843.4,883.5 844.8,888.7z "/><path id="_R_G_L_0_G_D_8_P_0" fill="#ffffff" fill-opacity="1" fill-rule="nonzero" d=" M915.6 882.8 C912.6,886.9 905.1,900.9 903.4,911.6 C899.5,937.4 922.5,964.1 922.6,980.8 C922.7,1002.3 910.2,1020.8 906.4,1035.5 C900.1,1057.9 909.1,1093.1 913.5,1101.1 C917.9,1109.2 930.7,1104 928.3,1098.5 C919,1081.2 915.1,1060.1 919.5,1043.8 C927.8,1011.7 934.3,1009.5 936.6,996.1 C939,981.9 926.5,952.6 922.4,943.3 C910.3,916.8 923,895.4 926.8,887.4 C930.6,879.4 919.8,877 915.6,882.8z "/><path id="_R_G_L_0_G_D_9_P_0" fill="#ffffff" fill-opacity="1" fill-rule="nonzero" d=" M934.3 881.1 C934.8,893.8 940.5,917.1 965.7,939.9 C969.4,941.9 965.2,953.7 957,953.2 C947.9,945.9 922.3,916.1 921.2,900.8 C921.1,893.2 930.2,880.3 934.3,881.1z "/><path id="_R_G_L_0_G_D_10_P_0" fill="#ffffff" fill-opacity="1" fill-rule="nonzero" d=" M958.3 879.8 C964.3,882.1 993.8,892 1000,901.5 C1006.2,911 1003.2,927.9 981.1,967.8 C958.9,1007.7 962.5,1039.1 976.4,1067.8 C990.3,1096.5 1033.5,1123.3 1065.5,1119.7 C1074.6,1119.2 1069.6,1103.4 1068.1,1103.2 C1058.2,1103 1020.2,1101.1 997.3,1071.3 C977.3,1048.1 977.6,1010 992.3,983.1 C1007.1,956.1 1029.4,922.7 1018,901.7 C1009.5,890.9 1001.2,881.3 985,875.1 C971.1,876.1 952,877.4 958.3,879.8z "/><path id="_R_G_L_0_G_D_11_P_0" fill="#ffffff" fill-opacity="1" fill-rule="nonzero" d=" M1147.5 1199.3 C1147.5,1199.3 1125.7,1153.2 1125.7,1153.2 C1125.7,1153.2 1115.2,1163.9 1115.2,1163.9 C1115.2,1163.9 1092.6,1145.4 1092.6,1145.4 C1092.6,1145.4 1114.8,1187.7 1114.8,1187.7 C1114.8,1187.7 1124.3,1177.2 1124.3,1177.2 C1124.3,1177.2 1147.5,1199.3 1147.5,1199.3z "/><path id="_R_G_L_0_G_D_12_P_0" fill="#ffffff" fill-opacity="1" fill-rule="nonzero" d=" M1215.6 1134.9 C1215.6,1134.9 1157.6,1099 1157.6,1099 C1157.6,1099 1150.6,1112.9 1150.6,1112.9 C1150.6,1112.9 1100.5,1116.8 1100.5,1116.8 C1100.5,1116.8 1162.3,1139.3 1162.3,1139.3 C1162.3,1139.3 1166.5,1128.9 1166.5,1128.9 C1166.5,1128.9 1215.6,1134.9 1215.6,1134.9z "/><path id="_R_G_L_0_G_D_13_P_0" fill="#ffffff" fill-opacity="1" fill-rule="nonzero" d=" M1173.6 1042.4 C1173.6,1042.4 1118.8,1055.3 1118.8,1055.3 C1118.8,1055.3 1125.4,1069.7 1125.4,1069.7 C1125.4,1069.7 1102.7,1088.7 1102.7,1088.7 C1102.7,1088.7 1144.4,1076 1144.4,1076 C1144.4,1076 1140,1064.3 1140,1064.3 C1140,1064.3 1173.6,1042.4 1173.6,1042.4z "/><path id="_R_G_L_0_G_D_14_P_0" fill="#ffffff" fill-opacity="1" fill-rule="nonzero" d=" M1041.9 870.4 C1041.3,875.1 1037.5,883.5 1040.9,893.4 C1044.3,903.3 1059.4,932.4 1059.4,940.2 C1058,948.9 1057.8,953.1 1053.5,960 C1050.8,964.6 1056.1,972.4 1065.8,966.7 C1069.6,962.3 1076.1,953.5 1073.4,934 C1071.3,918.9 1056,899.9 1056,891.5 C1056,883.1 1057.3,874.2 1057.9,870.4 C1058.5,866.5 1042.5,866 1041.9,870.4z "/><path id="_R_G_L_0_G_D_15_P_0" fill="#ffffff" fill-opacity="1" fill-rule="nonzero" d=" M922.1 1131.1 C919.6,1130.6 922.9,1134.9 917.7,1138.7 C912.5,1142.5 898.9,1146.4 897.7,1153.8 C894.7,1161.6 902.3,1167.6 909,1165.4 C915.5,1160.8 925.7,1146.2 925.4,1139.8 C925.2,1133.4 922.8,1131.2 922.1,1131.1z "/><path id="_R_G_L_0_G_D_16_P_0" fill="#ffffff" fill-opacity="1" fill-rule="nonzero" d=" M861.3 1169.6 C865.6,1172 867.4,1181.9 865.1,1185.4 C862.8,1188.9 832.8,1232.7 823.7,1235.3 C814.6,1237.9 814.4,1235.1 814.7,1231.5 C815,1227.9 824.7,1208.2 837.6,1199.9 C850.5,1191.6 849.6,1188.6 846.9,1187.1 C844.3,1185.6 840.7,1188.7 839.3,1185.5 C837.9,1182.3 838.6,1176.1 845,1172.5 C851.4,1168.9 858.7,1168.2 861.3,1169.6z "/><path id="_R_G_L_0_G_D_17_P_0" fill="#000000" fill-opacity="1" fill-rule="nonzero" d=" M842 470.6 C842,470.6 1244.2,456.6 1244.2,456.6 C1244.2,456.6 1164.4,756.6 1164.4,756.6 C1164.4,756.6 768,786.7 768,786.7 C768,786.7 842,470.6 842,470.6z "/><path id="_R_G_L_0_G_D_18_P_0" stroke="#000000" stroke-linecap="round" stroke-linejoin="round" fill="none" stroke-width="7" stroke-opacity="1" d=" M1216 861.3 C1216,861.3 1351.4,392.8 1351.4,392.8 C1351.4,392.8 1259.2,316.4 1259.2,316.4 C1259.2,316.4 717,333.1 717,333.1 C717,333.1 607.1,827.7 607.1,827.7 C607.1,827.7 681.5,910.1 681.5,910.1 C681.5,910.1 1216,861.3 1216,861.3z "/><path id="_R_G_L_0_G_D_19_P_0" stroke="#000000" stroke-linecap="round" stroke-linejoin="round" fill="none" stroke-width="7" stroke-opacity="1" d=" M1351.4 392.8 C1351.4,392.8 793.9,408.9 793.9,408.9 C793.9,408.9 681.5,910.1 681.5,910.1 "/><path id="_R_G_L_0_G_D_20_P_0" stroke="#000000" stroke-linecap="round" stroke-linejoin="round" fill="none" stroke-width="7" stroke-opacity="1" d=" M794.1 408.6 C794.1,408.6 716.6,338.5 716.6,338.5 "/><path id="_R_G_L_0_G_D_21_P_0" stroke="#000000" stroke-linecap="round" stroke-linejoin="round" fill="none" stroke-width="7" stroke-opacity="1" d=" M1195.5 782 C1195.5,782 1283,456.3 1283,456.3 C1283,456.3 842.4,472.1 842.4,472.1 C842.4,472.1 761.6,815.1 761.6,815.1 C761.6,815.1 1195.5,782 1195.5,782z "/><path id="_R_G_L_0_G_D_22_P_0" stroke="#000000" stroke-linecap="round" stroke-linejoin="round" fill="none" stroke-width="9" stroke-opacity="1" d=" M1241.1 458.6 C1241.1,458.6 1163.1,757.3 1163.1,757.3 C1163.1,757.3 770.3,785.2 770.3,785.2 "/><path id="_R_G_L_0_G_D_23_P_0" stroke="#000000" stroke-linecap="round" stroke-linejoin="round" fill="none" stroke-width="7" stroke-opacity="1" d=" M1163.1 757.3 C1163.1,757.3 1195.5,782 1195.5,782 "/><path id="_R_G_L_0_G_D_24_P_0" stroke="#000000" stroke-linecap="round" stroke-linejoin="round" fill="none" stroke-width="7" stroke-opacity="1" d=" M610.1 808.1 C610.1,808.1 505.5,671.6 495.6,658.2 C485.7,644.9 485.9,641.8 490.5,618.4 C495.1,595 556.6,273.4 559.6,257.4 C562.6,241.4 572.2,219.8 596.5,220.7 C620.7,221.6 1045.6,226.8 1063.8,227.2 C1081.9,227.6 1110.4,234 1140.6,255.9 C1170.8,277.8 1219.8,316.9 1219.8,316.9 "/><path id="_R_G_L_0_G_D_25_P_0" stroke="#000000" stroke-linecap="round" stroke-linejoin="round" fill="none" stroke-width="5" stroke-opacity="1" d=" M526.1 636.7 C526.1,636.7 589.1,714.4 589.1,714.4 "/><path id="_R_G_L_0_G_D_26_P_0" stroke="#000000" stroke-linecap="round" stroke-linejoin="round" fill="none" stroke-width="5" stroke-opacity="1" d=" M533.1 609 C533.1,609 596.1,686.7 596.1,686.7 "/><path id="_R_G_L_0_G_D_27_P_0" stroke="#000000" stroke-linecap="round" stroke-linejoin="round" fill="none" stroke-width="5" stroke-opacity="1" d=" M539.7 578.9 C539.7,578.9 602.7,656.6 602.7,656.6 "/><path id="_R_G_L_0_G_D_28_P_0" stroke="#000000" stroke-linecap="round" stroke-linejoin="round" fill="none" stroke-width="7" stroke-opacity="1" d=" M585.6 241.3 C610.1,251.7 653.9,281.8 696.7,321.8 "/><path id="_R_G_L_0_G_D_29_P_0" stroke="#000000" stroke-linecap="round" stroke-linejoin="round" fill="none" stroke-width="5" stroke-opacity="1" d=" M769.89 855 C779.79,844.38 793.91,841.43 801.42,848.44 C808.94,855.44 807.01,869.73 797.1,880.36 C787.2,890.98 773.09,893.93 765.57,886.92 C758.05,879.92 759.99,865.63 769.89,855z "/><path id="_R_G_L_0_G_D_30_P_0" stroke="#000000" stroke-linecap="round" stroke-linejoin="round" fill="none" stroke-width="5" stroke-opacity="1" d=" M801.4 848.5 C801.4,848.5 790.8,840 790.8,840 C783.3,833 769.2,836 759.3,846.6 C749.4,857.2 747.5,871.5 755,878.5 C755,878.5 765.6,887 765.6,887 "/><path id="_R_G_L_0_G_D_31_P_0" stroke="#000000" stroke-linecap="round" stroke-linejoin="round" fill="none" stroke-width="5" stroke-opacity="1" d=" M1172.98 826.12 C1178.14,820.58 1185.5,819.05 1189.42,822.7 C1193.34,826.36 1192.33,833.81 1187.18,839.34 C1182.02,844.88 1174.66,846.4 1170.74,842.75 C1166.82,839.1 1167.83,831.65 1172.98,826.12z "/><path id="_R_G_L_0_G_D_32_P_0" stroke="#000000" stroke-linecap="round" stroke-linejoin="round" fill="none" stroke-width="5" stroke-opacity="1" d=" M1189.6 822.7 C1189.6,822.7 1184.1,818.3 1184.1,818.3 C1180.2,814.7 1172.8,816.2 1167.7,821.7 C1162.5,827.2 1161.5,834.7 1165.4,838.3 C1165.4,838.3 1170.9,842.7 1170.9,842.7 "/><path id="_R_G_L_0_G_D_33_P_0" stroke="#000000" stroke-linecap="round" stroke-linejoin="round" fill="none" stroke-width="5" stroke-opacity="1" d=" M1129.79 829.77 C1134.94,824.24 1142.3,822.71 1146.22,826.36 C1150.14,830.01 1149.14,837.46 1143.98,843 C1138.83,848.53 1131.47,850.06 1127.55,846.41 C1123.63,842.76 1124.63,835.31 1129.79,829.77z "/><path id="_R_G_L_0_G_D_34_P_0" stroke="#000000" stroke-linecap="round" stroke-linejoin="round" fill="none" stroke-width="5" stroke-opacity="1" d=" M1146.2 826.4 C1146.2,826.4 1140.7,822 1140.7,822 C1136.8,818.4 1129.4,819.9 1124.3,825.4 C1119.1,830.9 1118.1,838.4 1122,842 C1122,842 1127.5,846.4 1127.5,846.4 "/><path id="_R_G_L_0_G_D_35_P_0" stroke="#000000" stroke-linecap="round" stroke-linejoin="round" fill="none" stroke-width="5" stroke-opacity="1" d=" M1082.47 834.66 C1087.63,829.12 1094.99,827.6 1098.91,831.25 C1102.83,834.9 1101.83,842.35 1096.67,847.88 C1091.51,853.42 1084.15,854.95 1080.23,851.3 C1076.31,847.64 1077.32,840.2 1082.47,834.66z "/><path id="_R_G_L_0_G_D_36_P_0" stroke="#000000" stroke-linecap="round" stroke-linejoin="round" fill="none" stroke-width="5" stroke-opacity="1" d=" M1098.9 831.3 C1098.9,831.3 1093.4,826.9 1093.4,826.9 C1089.5,823.3 1082.1,824.8 1077,830.3 C1071.8,835.8 1070.8,843.3 1074.7,846.9 C1074.7,846.9 1080.2,851.3 1080.2,851.3 "/><path id="_R_G_L_0_G_D_37_P_0" fill="#ffffff" fill-opacity="1" fill-rule="nonzero" d=" M856.5 261.8 C856.8,238.1 819.9,207 773.7,206.4 C727.5,205.7 689.7,235.7 689.3,259.4 C689,283.1 735.4,295.9 781.6,296.6 C827.8,297.2 856.2,285.5 856.5,261.8z "/><path id="_R_G_L_0_G_D_38_P_0" stroke="#000000" stroke-linecap="round" stroke-linejoin="round" fill="none" stroke-width="7" stroke-opacity="1" d=" M856.5 261.8 C856.8,238.1 819.9,207 773.7,206.4 C727.5,205.7 689.7,235.7 689.3,259.4 C689,283.1 735.4,295.9 781.6,296.6 C827.8,297.2 856.2,285.5 856.5,261.8z "/><path id="_R_G_L_0_G_D_39_P_0" stroke="#000000" stroke-linecap="round" stroke-linejoin="round" fill="none" stroke-width="5" stroke-opacity="1" d=" M774.9 221.7 C774.9,221.7 775.4,187.9 775.4,187.9 C775.4,187.9 764.5,176.3 764.5,176.3 C764.5,176.3 792.7,169.9 792.7,169.9 C792.7,169.9 768.7,156.6 768.7,156.6 C768.7,156.6 788.8,149.5 788.8,149.5 C788.8,149.5 774.6,138.2 774.6,138.2 C774.6,138.2 762.6,102.6 762.6,102.6 "/><path id="_R_G_L_0_G_D_40_P_0" stroke="#000000" stroke-linecap="round" stroke-linejoin="round" fill="none" stroke-width="5" stroke-opacity="1" d=" M745.8 82.75 C748.43,75.77 756.09,72.2 762.92,74.77 C769.74,77.34 773.14,85.08 770.51,92.05 C767.88,99.03 760.22,102.6 753.4,100.03 C746.58,97.46 743.18,89.72 745.8,82.75z "/><path id="_R_G_L_0_G_D_41_P_0" stroke="#000000" stroke-linecap="round" stroke-linejoin="round" fill="none" stroke-width="5" stroke-opacity="1" d=" M993.8 882.3 C1010.8,885.9 1022.6,903 1020.8,920.4 C1019,937.8 1008.7,953.1 1000.5,968.6 C983.8,1000 971.1,1026.1 991.8,1063.3 C1005.3,1087.6 1032.7,1101.9 1067.4,1104 "/><path id="_R_G_L_0_G_D_42_P_0" stroke="#000000" stroke-linecap="round" stroke-linejoin="round" fill="none" stroke-width="5" stroke-opacity="1" d=" M955.7 886.5 C975.3,886 989,890.4 998.6,900.8 C1008.9,912 1001.8,928.8 987.5,955.5 C978.6,972.1 969.6,989.1 966.5,1007.6 C961.9,1035.4 970.5,1065.1 989.1,1086.2 C1007.7,1107.4 1037.6,1119.7 1065.8,1119 "/><path id="_R_G_L_0_G_D_43_P_0" fill="#ffffff" fill-opacity="1" fill-rule="nonzero" d=" M1071.4 1111.8 C1071,1116.1 1068.8,1119.4 1066.3,1119.2 C1063.7,1119 1061.8,1115.2 1062.2,1111 C1062.6,1106.7 1064.9,1103.5 1067.5,1103.7 C1070.1,1103.9 1071.7,1107.5 1071.4,1111.8z "/><path id="_R_G_L_0_G_D_44_P_0" stroke="#000000" stroke-linecap="round" stroke-linejoin="round" fill="none" stroke-width="5" stroke-opacity="1" d=" M1071.4 1111.8 C1071,1116.1 1068.8,1119.4 1066.3,1119.2 C1063.7,1119 1061.8,1115.2 1062.2,1111 C1062.6,1106.7 1064.9,1103.5 1067.5,1103.7 C1070.1,1103.9 1071.7,1107.5 1071.4,1111.8z "/><path id="_R_G_L_0_G_D_45_P_0" stroke="#000000" stroke-linecap="round" stroke-linejoin="round" fill="none" stroke-width="5" stroke-opacity="1" d=" M676 1026.8 C678.7,1000.1 688.5,978.1 704.1,963.6 C720.8,948.1 744.9,926.9 748.5,906.2 "/><path id="_R_G_L_0_G_D_46_P_0" stroke="#000000" stroke-linecap="round" stroke-linejoin="round" fill="none" stroke-width="5" stroke-opacity="1" d=" M660.8 1024.6 C661.2,999.5 673.3,972.6 690.8,953.9 C703.1,940.7 727.8,924.8 732.4,905.8 "/><path id="_R_G_L_0_G_D_47_P_0" fill="#ffffff" fill-opacity="1" fill-rule="nonzero" d=" M667.9 1030.5 C663.7,1030 660.4,1027.6 660.7,1025.1 C661,1022.5 664.8,1020.8 669.1,1021.3 C673.3,1021.8 676.5,1024.3 676.2,1026.9 C675.8,1029.4 672.1,1031 667.9,1030.5z "/><path id="_R_G_L_0_G_D_48_P_0" stroke="#000000" stroke-linecap="round" stroke-linejoin="round" fill="none" stroke-width="5" stroke-opacity="1" d=" M667.9 1030.5 C663.7,1030 660.4,1027.6 660.7,1025.1 C661,1022.5 664.8,1020.8 669.1,1021.3 C673.3,1021.8 676.5,1024.3 676.2,1026.9 C675.8,1029.4 672.1,1031 667.9,1030.5z "/><path id="_R_G_L_0_G_D_49_P_0" stroke="#000000" stroke-linecap="round" stroke-linejoin="round" fill="none" stroke-width="5" stroke-opacity="1" d=" M846.8 897.5 C851.9,918.2 853.6,936 845.7,955.7 C835.4,981.6 810,999.2 775.9,1005.6 "/><path id="_R_G_L_0_G_D_50_P_0" stroke="#000000" stroke-linecap="round" stroke-linejoin="round" fill="none" stroke-width="5" stroke-opacity="1" d=" M862.9 897.3 C871.4,933.7 864.5,957.8 850.7,978.3 C834.9,1001.6 806.9,1017.7 778.8,1020.6 "/><path id="_R_G_L_0_G_D_51_P_0" fill="#ffffff" fill-opacity="1" fill-rule="nonzero" d=" M772.3 1014.1 C773.2,1018.3 775.8,1021.4 778.3,1020.8 C780.8,1020.3 782.3,1016.3 781.4,1012.1 C780.5,1007.9 777.7,1005 775.2,1005.5 C772.7,1006 771.4,1009.9 772.3,1014.1z "/><path id="_R_G_L_0_G_D_52_P_0" stroke="#000000" stroke-linecap="round" stroke-linejoin="round" fill="none" stroke-width="5" stroke-opacity="1" d=" M772.3 1014.1 C773.2,1018.3 775.8,1021.4 778.3,1020.8 C780.8,1020.3 782.3,1016.3 781.4,1012.1 C780.5,1007.9 777.7,1005 775.2,1005.5 C772.7,1006 771.4,1009.9 772.3,1014.1z "/><path id="_R_G_L_0_G_D_53_P_0" stroke="#000000" stroke-linecap="round" stroke-linejoin="round" fill="none" stroke-width="5" stroke-opacity="1" d=" M934.6 889.1 C938.6,907.2 949.5,925 966.3,940.7 "/><path id="_R_G_L_0_G_D_54_P_0" stroke="#000000" stroke-linecap="round" stroke-linejoin="round" fill="none" stroke-width="5" stroke-opacity="1" d=" M921.8 901 C926.5,920 940.4,939.5 955.9,951.7 "/><path id="_R_G_L_0_G_D_55_P_0" fill="#ffffff" fill-opacity="1" fill-rule="nonzero" d=" M964.9 949.6 C961.9,952.6 958,953.8 956.2,952 C954.4,950.2 955.3,946.1 958.3,943 C961.3,940 965.2,938.9 967.1,940.8 C969,942.7 967.9,946.6 964.9,949.6z "/><path id="_R_G_L_0_G_D_56_P_0" stroke="#000000" stroke-linecap="round" stroke-linejoin="round" fill="none" stroke-width="5" stroke-opacity="1" d=" M964.9 949.6 C961.9,952.6 958,953.8 956.2,952 C954.4,950.2 955.3,946.1 958.3,943 C961.3,940 965.2,938.9 967.1,940.8 C969,942.7 967.9,946.6 964.9,949.6z "/><path id="_R_G_L_0_G_D_57_P_0" stroke="#000000" stroke-linecap="round" stroke-linejoin="round" fill="none" stroke-width="5" stroke-opacity="1" d=" M927 888.5 C922.4,897.9 917.6,907.5 917.1,918 C915.7,942.7 937.6,964 936.8,988.6 C936.3,1003.2 927.9,1016.3 923,1030.1 C915.2,1052.2 916.8,1077.4 927.4,1098.3 "/><path id="_R_G_L_0_G_D_58_P_0" stroke="#000000" stroke-linecap="round" stroke-linejoin="round" fill="none" stroke-width="5" stroke-opacity="1" d=" M912.2 888.7 C907.6,898.1 903.5,906.3 902.9,916.7 C901.5,941.4 923.4,962.7 922.6,987.3 C922.1,1001.9 913.7,1015 908.8,1028.8 C901,1050.9 904.1,1081.2 914.6,1102.1 "/><path id="_R_G_L_0_G_D_59_P_0" fill="#ffffff" fill-opacity="1" fill-rule="nonzero" d=" M921.7 1104.9 C925.5,1104.4 928.5,1102 928.1,1099.5 C927.7,1097 924.3,1095.2 920.4,1095.7 C916.6,1096.2 913.7,1098.7 914.1,1101.3 C914.4,1103.8 917.8,1105.4 921.7,1104.9z "/><path id="_R_G_L_0_G_D_60_P_0" stroke="#000000" stroke-linecap="round" stroke-linejoin="round" fill="none" stroke-width="5" stroke-opacity="1" d=" M921.7 1104.9 C925.5,1104.4 928.5,1102 928.1,1099.5 C927.7,1097 924.3,1095.2 920.4,1095.7 C916.6,1096.2 913.7,1098.7 914.1,1101.3 C914.4,1103.8 917.8,1105.4 921.7,1104.9z "/><path id="_R_G_L_0_G_D_61_P_0" stroke="#000000" stroke-linecap="round" stroke-linejoin="round" fill="none" stroke-width="5" stroke-opacity="1" d=" M841.1 963.4 C837.1,962.5 833.1,961.9 829.2,960.7 C816.1,956.8 804.9,946.1 801.6,932.8 C798.3,919.5 803.3,905.9 813.6,897.5 "/><path id="_R_G_L_0_G_D_62_P_0" stroke="#000000" stroke-linecap="round" stroke-linejoin="round" fill="none" stroke-width="5" stroke-opacity="1" d=" M862.5 957.3 C870.2,962.1 875,968.7 879.2,978 C884.8,990.3 886.6,1008.1 882.9,1021 C880.7,1029.7 869.3,1027.3 870.3,1020.9 C871.7,1010.3 872.3,999.2 868.9,989.1 C866.6,982.1 862.4,975.5 856.7,970.8 "/><path id="_R_G_L_0_G_D_63_P_0" stroke="#000000" stroke-linecap="round" stroke-linejoin="round" fill="none" stroke-width="5" stroke-opacity="1" d=" M828.7 899 C821.9,905.4 814.8,914.3 814.8,923.6 C814.8,926.5 815.5,929.3 816.6,932 C819.2,938.5 824.3,944 830.7,947.1 C835.4,949.4 841.3,950.2 846.8,951.3 "/><path id="_R_G_L_0_G_D_64_P_0" stroke="#000000" stroke-linecap="round" stroke-linejoin="round" fill="none" stroke-width="5" stroke-opacity="1" d=" M655.2 885.8 C648.4,897.8 633.8,902.5 621,907.7 C608.2,912.9 592.3,926.5 590.9,940.3 C588.9,953.5 604,957.6 605.2,946.3 C606.5,932.5 619.9,923.5 632.7,918.2 C645.5,913 660.1,908.3 666.9,896.3 "/><path id="_R_G_L_0_G_D_65_P_0" stroke="#000000" stroke-linecap="round" stroke-linejoin="round" fill="none" stroke-width="5" stroke-opacity="1" d=" M1056 879.6 C1053.3,893.2 1061.2,906.3 1067.4,918.6 C1073.6,930.9 1076.7,951.7 1068.7,963 C1061.6,974.3 1047.5,967.5 1054,958.1 C1062,946.9 1057.9,931.3 1051.7,918.9 C1045.5,906.6 1037.6,893.5 1040.3,879.9 "/><path id="_R_G_L_0_G_D_66_P_0" stroke="#000000" stroke-linecap="round" stroke-linejoin="round" fill="none" stroke-width="5" stroke-opacity="1" d=" M526.8 459.5 C539,459 551.2,458.5 563.4,458 C567,457.8 570.7,457.7 574.2,458.9 C581.9,461.5 585.6,469.9 591.4,475.5 C603.6,487.3 605.5,487.9 612.4,479.4 "/><path id="_R_G_L_0_G_D_67_P_0" stroke="#000000" stroke-linecap="round" stroke-linejoin="round" fill="none" stroke-width="5" stroke-opacity="1" d=" M555.9 455.2 C555.2,452.1 557.6,449.1 560.3,447.4 C563,445.7 566.2,444.9 568.8,443.1 C572,440.9 574,437.4 575.9,434.1 "/><path id="_R_G_L_0_G_D_68_P_0" stroke="#000000" stroke-linecap="round" stroke-linejoin="round" fill="none" stroke-width="5" stroke-opacity="1" d=" M1282.9 629.9 C1279.5,626.8 1276.2,623.7 1272.8,620.6 C1269.7,622.7 1266.6,624.8 1263.4,626.9 C1261.6,628.1 1259.3,629.3 1257.5,628.2 C1257.1,627.9 1256.7,627.6 1256.2,627.4 C1255.7,627.3 1255,627.7 1255.2,628.2 C1255.3,628.7 1256.3,628.3 1256,628 "/><path id="_R_G_L_0_G_D_69_P_0" stroke="#000000" stroke-linecap="round" stroke-linejoin="round" fill="none" stroke-width="5" stroke-opacity="1" d=" M1089.8 321.9 C1095.2,326.3 1099.6,331.9 1102.5,338.2 C1103.7,340.9 1104.8,343.8 1107,345.7 C1109.1,347.5 1111.9,348.1 1114.6,348.7 C1121.6,350.3 1128.7,351.8 1135.7,353.4 "/><path id="_R_G_L_0_G_D_70_P_0" stroke="#000000" stroke-linecap="round" stroke-linejoin="round" fill="none" stroke-width="5" stroke-opacity="1" d=" M1119.2 350.5 C1120.6,353.9 1122,357.4 1123.4,360.8 C1123.5,361.1 1123.6,361.3 1123.6,361.6 C1123.6,361.8 1123.5,362 1123.4,362.1 C1121.9,364.7 1120.4,367.4 1118.9,370 "/><path id="_R_G_L_0_G_D_71_P_0" stroke="#000000" stroke-linecap="round" stroke-linejoin="round" fill="none" stroke-width="5" stroke-opacity="1" d=" M669.6 803 C674.7,801.1 679.6,798.5 684.1,795.4 C689.2,804 694.7,812.4 700.7,820.5 "/><g id="_R_G_L_0_G_D_72_P_0_G_0_T_0"><g id="_R_G_L_0_G_D_72_P_0_G_1_T_0" transform=" translate(1121.05, 1174.8) translate(0, 0)"><path id="_R_G_L_0_G_D_72_P_0" stroke="#000000" stroke-linecap="round" stroke-linejoin="round" fill="none" stroke-width="5" stroke-opacity="1" d=" M-29.45 -30.2 C-29.45,-30.2 -5.65,12.4 -5.65,12.4 C-5.65,12.4 3.35,2.4 3.35,2.4 C3.35,2.4 29.45,30.2 29.45,30.2 C29.45,30.2 5.15,-21.4 5.15,-21.4 C5.15,-21.4 -5.85,-10.5 -5.85,-10.5 C-5.85,-10.5 -29.45,-30.2 -29.45,-30.2z "/></g></g><g id="_R_G_L_0_G_D_73_P_0_G_0_T_0"><g id="_R_G_L_0_G_D_73_P_0_G_1_T_0" transform=" translate(1159.85, 1119) translate(0, 0)"><path id="_R_G_L_0_G_D_73_P_0" stroke="#000000" stroke-linecap="round" stroke-linejoin="round" fill="none" stroke-width="5" stroke-opacity="1" d=" M-63.15 -2.5 C-63.15,-2.5 2.05,20.3 2.05,20.3 C2.05,20.3 5.65,10.2 5.65,10.2 C5.65,10.2 63.15,18.8 63.15,18.8 C63.15,18.8 -2.75,-20.3 -2.75,-20.3 C-2.75,-20.3 -9.25,-5.9 -9.25,-5.9 C-9.25,-5.9 -63.15,-2.5 -63.15,-2.5z "/></g></g><g id="_R_G_L_0_G_D_74_P_0_G_0_T_0"><g id="_R_G_L_0_G_D_74_P_0_G_1_T_0" transform=" translate(1138.6, 1066.1) translate(0, 0)"><path id="_R_G_L_0_G_D_74_P_0" stroke="#000000" stroke-linecap="round" stroke-linejoin="round" fill="none" stroke-width="5" stroke-opacity="1" d=" M-38.2 24.6 C-38.2,24.6 6.2,10.3 6.2,10.3 C6.2,10.3 0.9,-1.3 0.9,-1.3 C0.9,-1.3 38.2,-24.6 38.2,-24.6 C38.2,-24.6 -20.8,-10.4 -20.8,-10.4 C-20.8,-10.4 -12.7,3.8 -12.7,3.8 C-12.7,3.8 -38.2,24.6 -38.2,24.6z "/></g></g><g id="_R_G_L_0_G_D_75_P_0_G_0_T_0"><g id="_R_G_L_0_G_D_75_P_0_G_1_T_0" transform=" translate(520.25, 974) translate(0, 0)"><path id="_R_G_L_0_G_D_75_P_0" stroke="#000000" stroke-linecap="round" stroke-linejoin="round" fill="none" stroke-width="5" stroke-opacity="1" d=" M39.25 -15.6 C39.25,-15.6 -9.35,-10 -9.35,-10 C-9.35,-10 -3.45,2.2 -3.45,2.2 C-3.45,2.2 -39.25,15.6 -39.25,15.6 C-39.25,15.6 17.85,13 17.85,13 C17.85,13 11.85,-1.4 11.85,-1.4 C11.85,-1.4 39.25,-15.6 39.25,-15.6z "/></g></g><g id="_R_G_L_0_G_D_76_P_0_G_0_T_0"><g id="_R_G_L_0_G_D_76_P_0_G_1_T_0" transform=" translate(549.3, 1028.15) translate(0, 0)"><path id="_R_G_L_0_G_D_76_P_0" stroke="#000000" stroke-linecap="round" stroke-linejoin="round" fill="none" stroke-width="5" stroke-opacity="1" d=" M34.1 -54.25 C34.1,-54.25 -11.9,-2.75 -11.9,-2.75 C-11.9,-2.75 -4,4.35 -4,4.35 C-4,4.35 -34.1,54.25 -34.1,54.25 C-34.1,54.25 27.4,8.25 27.4,8.25 C27.4,8.25 16.6,-3.25 16.6,-3.25 C16.6,-3.25 34.1,-54.25 34.1,-54.25z "/></g></g><g id="_R_G_L_0_G_D_77_P_0_G_0_T_0"><g id="_R_G_L_0_G_D_77_P_0_G_1_T_0" transform=" translate(616.75, 1031.95) translate(0, 0)"><path id="_R_G_L_0_G_D_77_P_0" stroke="#000000" stroke-linecap="round" stroke-linejoin="round" fill="none" stroke-width="5" stroke-opacity="1" d=" M-10.95 -44.75 C-10.95,-44.75 -14.75,1.85 -14.75,1.85 C-14.75,1.85 -2.05,1.35 -2.05,1.35 C-2.05,1.35 5.15,44.75 5.15,44.75 C5.15,44.75 14.75,-15.25 14.75,-15.25 C14.75,-15.25 -1.45,-13.25 -1.45,-13.25 C-1.45,-13.25 -10.95,-44.75 -10.95,-44.75z "/></g></g><g id="_R_G_L_0_G_D_78_P_0_G_0_T_0"><g id="_R_G_L_0_G_D_78_P_0_G_1_T_0" transform=" translate(949.973, 566.68) translate(0, 0)"><path id="_R_G_L_0_G_D_78_P_0" fill="#ffffff" fill-opacity="1" fill-rule="nonzero" d=" M43.12 28.88 C34.21,15.16 25.22,3.92 15.49,-6.18 C23.36,-13.88 31.58,-21.25 40.15,-28.23 C44.43,-31.72 45.07,-38.02 41.58,-42.3 C38.09,-46.58 31.79,-47.22 27.51,-43.73 C18.29,-36.22 9.45,-28.29 1,-19.99 C-7.34,-27.32 -16.34,-34.35 -26.33,-41.73 C-30.78,-45.01 -37.04,-44.06 -40.32,-39.62 C-43.6,-35.18 -42.65,-28.92 -38.21,-25.63 C-28.85,-18.72 -20.54,-12.26 -12.91,-5.61 C-23.67,6.11 -33.7,18.47 -42.92,31.42 C-46.12,35.92 -45.07,42.16 -40.57,45.37 C-38.81,46.62 -36.79,47.22 -34.78,47.22 C-31.65,47.22 -28.58,45.76 -26.62,43.02 C-17.95,30.83 -8.53,19.2 1.58,8.18 C10.3,17.29 18.31,27.39 26.34,39.76 C28.26,42.71 31.46,44.32 34.74,44.32 C36.6,44.32 38.49,43.8 40.17,42.71 C44.8,39.7 46.12,33.51 43.12,28.88z "/></g></g><g id="_R_G_L_0_G_D_79_P_0_G_0_T_0"><g id="_R_G_L_0_G_D_79_P_0_G_1_T_0" transform=" translate(1085.973, 560.38) translate(0, 0)"><path id="_R_G_L_0_G_D_79_P_0" fill="#ffffff" fill-opacity="1" fill-rule="nonzero" d=" M43.12 28.88 C34.21,15.16 25.22,3.92 15.49,-6.18 C23.36,-13.88 31.58,-21.25 40.15,-28.23 C44.43,-31.72 45.07,-38.02 41.58,-42.3 C38.09,-46.58 31.79,-47.22 27.51,-43.73 C18.29,-36.22 9.45,-28.29 1,-19.99 C-7.34,-27.32 -16.34,-34.35 -26.33,-41.72 C-30.78,-45.01 -37.04,-44.06 -40.32,-39.62 C-43.6,-35.17 -42.65,-28.91 -38.21,-25.63 C-28.85,-18.72 -20.54,-12.26 -12.91,-5.61 C-23.67,6.11 -33.7,18.47 -42.92,31.42 C-46.12,35.92 -45.07,42.17 -40.57,45.37 C-38.81,46.62 -36.79,47.22 -34.78,47.22 C-31.65,47.22 -28.58,45.76 -26.62,43.02 C-17.95,30.84 -8.53,19.2 1.58,8.18 C10.3,17.29 18.31,27.39 26.34,39.77 C28.26,42.72 31.46,44.32 34.74,44.32 C36.6,44.32 38.49,43.8 40.17,42.71 C44.8,39.7 46.12,33.51 43.12,28.88z "/></g></g><g id="_R_G_L_0_G_D_80_P_0_G_0_T_0"><g id="_R_G_L_0_G_D_80_P_0_G_1_T_0" transform=" translate(1009.4, 689.45) translate(0, 0)"><path id="_R_G_L_0_G_D_80_P_0" stroke="#ffffff" stroke-linecap="round" stroke-linejoin="round" fill="none" stroke-width="20" stroke-opacity="1" d=" M104.1 -23.25 C104.1,-23.25 84.8,13.95 84.8,13.95 C84.8,13.95 43.3,-23.25 43.3,-23.25 C43.3,-23.25 -1.4,23.25 -1.4,23.25 C-1.4,23.25 -41.1,-16.65 -41.1,-16.65 C-41.1,-16.65 -87.6,21.05 -87.6,21.05 C-87.6,21.05 -104.1,-12.95 -104.1,-12.95 "/></g></g><g id="_R_G_L_0_G_D_81_P_0_G_0_T_0"><g id="_R_G_L_0_G_D_81_P_0_G_1_T_0" transform=" translate(1074.349, 611.213) translate(0, 0)"><path id="_R_G_L_0_G_D_81_P_0" fill="#ffffff" fill-opacity="1" fill-rule="nonzero" d=" M54.51 -126.08 C50.37,-131.09 42.36,-133.76 33.09,-133.21 C17.46,-132.29 2.48,-122.62 -0.32,-111.66 C-0.32,-111.66 -57.02,114.84 -57.02,114.84 C-58.12,119.17 -57.25,123.22 -54.51,126.55 C-50.72,131.13 -43.71,133.76 -35.45,133.76 C-34.67,133.76 -33.89,133.73 -33.09,133.69 C-17.46,132.77 -2.47,123.1 0.32,112.13 C0.32,112.13 57.02,-114.37 57.02,-114.37 C58.12,-118.7 57.25,-122.75 54.51,-126.08z "/></g></g><g id="_R_G_L_0_G_D_82_P_0_G_0_T_0"><g id="_R_G_L_0_G_D_82_P_0_G_0_T_0"><path id="_R_G_L_0_G_D_82_P_0" fill="#ffffff" fill-opacity="1" fill-rule="nonzero" d=" M1051.12 486.52 C1051.12,486.51 1051.11,486.51 1051.11,486.51 C1046.62,483.06 1039.93,481.39 1032.24,481.8 C1032.24,481.8 959.64,485.9 959.64,485.9 C944.01,486.82 929.02,496.49 926.23,507.46 C926.23,507.46 869.43,733.95 869.43,733.95 C868.33,738.29 869.2,742.35 871.95,745.68 C875.73,750.25 882.71,752.87 890.91,752.87 C891.68,752.87 892.47,752.84 893.26,752.8 C908.89,751.88 923.88,742.21 926.67,731.24 C926.67,731.24 951.79,631.16 951.79,631.16 C951.79,631.16 967,630.28 967,630.28 C967,630.28 942.03,729.75 942.03,729.75 C940.93,734.09 941.8,738.14 944.54,741.46 C948.68,746.48 956.7,749.14 965.96,748.6 C981.59,747.68 996.58,738.01 999.37,727.04 C999.37,727.04 1056.06,500.58 1056.06,500.58 C1057.57,495.31 1055.76,490.19 1051.12,486.52z  M993.43 524.96 C993.43,524.96 977.21,589.84 977.21,589.84 C977.21,589.84 962,590.72 962,590.72 C962,590.72 978.18,526.42 978.18,526.42 C978.39,525.51 979.45,524.66 980.16,524.6 C980.16,524.6 992.78,523.9 992.78,523.9 C992.81,523.9 992.84,523.89 992.87,523.89 C993.16,523.89 993.27,524.02 993.3,524.06 C993.46,524.25 993.51,524.6 993.43,524.96z "/></g></g><g id="_R_G_L_0_G_D_83_P_0_G_0_T_0"><path id="_R_G_L_0_G_D_83_P_0" fill="#000000" fill-opacity="1" fill-rule="nonzero" d=" M993.43 524.96 C993.43,524.96 977.21,589.84 977.21,589.84 C977.21,589.84 962,590.72 962,590.72 C962,590.72 978.18,526.42 978.18,526.42 C978.39,525.51 979.45,524.66 980.16,524.6 C980.16,524.6 992.78,523.9 992.78,523.9 C992.81,523.9 992.84,523.89 992.87,523.89 C993.16,523.89 993.27,524.02 993.3,524.06 C993.46,524.25 993.51,524.6 993.43,524.96z "/></g><g id="_R_G_L_0_G_D_84_P_0_G_0_T_0"><g id="_R_G_L_0_G_D_84_P_0_G_1_T_0" transform=" translate(933.581, 616.713) translate(0, 0)"><path id="_R_G_L_0_G_D_84_P_0" fill="#ffffff" fill-opacity="1" fill-rule="nonzero" d=" M95.38 -128.21 C91.22,-133.2 83.25,-135.86 74.06,-135.31 C58.43,-134.39 43.44,-124.72 40.65,-113.76 C40.65,-113.76 24.18,-47.88 24.18,-47.88 C24.18,-47.88 16.21,-116.73 16.21,-116.73 C15.78,-120.3 13.9,-123.46 10.77,-125.87 C5.54,-129.89 -2.59,-131.47 -11.52,-130.2 C-26.29,-128.12 -38.83,-119.23 -41.35,-109.06 C-41.35,-109.06 -97.95,116.94 -97.95,116.94 C-99.06,121.28 -98.18,125.33 -95.43,128.66 C-91.66,133.24 -84.68,135.85 -76.47,135.85 C-75.7,135.85 -74.91,135.83 -74.12,135.79 C-58.49,134.87 -43.5,125.2 -40.71,114.23 C-40.71,114.23 -24.04,47.75 -24.04,47.75 C-24.04,47.75 -16.07,116.61 -16.07,116.61 C-15.65,120.17 -13.77,123.33 -10.64,125.74 C-5.4,129.76 2.72,131.34 11.66,130.08 C26.17,128.02 38.99,118.93 41.49,108.93 C41.49,108.93 97.99,-116.47 97.99,-116.47 C99.06,-120.82 98.15,-124.88 95.38,-128.21z "/></g></g><g id="_R_G_L_0_G_D_85_P_0_G_0_T_0"><g id="_R_G_L_0_G_D_85_P_0_G_0_T_0"><path id="_R_G_L_0_G_D_85_P_0" fill="#ffffff" fill-opacity="1" fill-rule="nonzero" d=" M1177.36 481 C1173.24,476.01 1165.28,473.36 1156.04,473.9 C1156.04,473.9 1083.44,478 1083.44,478 C1067.82,478.92 1052.84,488.54 1050.03,499.46 C1050.03,499.46 993.23,725.95 993.23,725.95 C992.13,730.29 993,734.35 995.75,737.68 C999.53,742.25 1006.51,744.87 1014.71,744.87 C1015.48,744.87 1016.27,744.85 1017.06,744.8 C1017.06,744.8 1089.66,740.7 1089.66,740.7 C1105.28,739.78 1120.26,730.16 1123.07,719.24 C1123.07,719.24 1179.87,492.75 1179.87,492.75 C1180.98,488.39 1180.11,484.33 1177.36,481z  M1117.13 517.87 C1117.13,517.87 1071.24,700.62 1071.24,700.62 C1071.04,701.41 1070.36,701.98 1069.55,702.02 C1069.55,702.02 1058.22,702.68 1058.22,702.68 C1057.64,702.71 1057.07,702.47 1056.69,702.01 C1056.31,701.55 1056.17,700.95 1056.32,700.37 C1056.32,700.37 1101.77,519.23 1101.77,519.23 C1102.07,517.98 1103.4,516.77 1104.55,516.7 C1104.55,516.7 1115.96,516.1 1115.96,516.1 C1116,516.1 1116.03,516.1 1116.07,516.1 C1116.34,516.1 1116.68,516.16 1116.91,516.43 C1117.18,516.75 1117.26,517.27 1117.13,517.87z "/></g></g><g id="_R_G_L_0_G_D_86_P_0_G_0_T_0"><path id="_R_G_L_0_G_D_86_P_0" fill="#000000" fill-opacity="1" fill-rule="nonzero" d=" M1117.13 517.87 C1117.13,517.87 1071.24,700.62 1071.24,700.62 C1071.04,701.41 1070.36,701.98 1069.55,702.02 C1069.55,702.02 1058.22,702.68 1058.22,702.68 C1057.64,702.71 1057.07,702.47 1056.69,702.01 C1056.31,701.55 1056.17,700.95 1056.32,700.37 C1056.32,700.37 1101.77,519.23 1101.77,519.23 C1102.07,517.98 1103.4,516.77 1104.55,516.7 C1104.55,516.7 1115.96,516.1 1115.96,516.1 C1116,516.1 1116.03,516.1 1116.07,516.1 C1116.34,516.1 1116.68,516.16 1116.91,516.43 C1117.18,516.75 1117.26,517.27 1117.13,517.87z "/></g></g></g><g id="time_group"/></svg>