<?xml version="1.0" encoding="utf-8"?>
<!-- Generator: Adobe Illustrator 27.7.0, SVG Export Plug-In . SVG Version: 6.00 Build 0)  -->
<svg version="1.1" xmlns="http://www.w3.org/2000/svg" xmlns:xlink="http://www.w3.org/1999/xlink" x="0px" y="0px"
	 viewBox="0 0 234 279.6" style="enable-background:new 0 0 234 279.6;" xml:space="preserve">
<style type="text/css">
	.st0{display:none;}
	.st1{display:inline;fill:#FFFFFF;}
	.st2{display:inline;fill:none;stroke:#000000;stroke-width:7;stroke-linecap:round;stroke-linejoin:round;}
	.st3{display:inline;}
	
		.st4{fill:none;stroke:#000000;stroke-width:5;stroke-linecap:round;stroke-linejoin:round;stroke-miterlimit:10;stroke-dasharray:12.0086;}
	.st5{fill:none;stroke:#000000;stroke-width:7;stroke-linecap:round;stroke-linejoin:round;stroke-miterlimit:10;}
	.st6{display:inline;fill:none;stroke:#000000;stroke-width:7;stroke-linecap:round;stroke-linejoin:round;stroke-miterlimit:10;}
	.st7{display:inline;stroke:#000000;stroke-width:5;stroke-linecap:round;stroke-linejoin:round;stroke-miterlimit:10;}
	
		.st8{display:inline;fill:#FFFFFF;stroke:#000000;stroke-width:7;stroke-linecap:round;stroke-linejoin:round;stroke-miterlimit:10;}
	
		.st9{display:inline;fill:#FFFFFF;stroke:#000000;stroke-width:5;stroke-linecap:round;stroke-linejoin:round;stroke-miterlimit:10;}
	.st10{display:inline;fill:none;stroke:#000000;stroke-width:5;stroke-linecap:round;stroke-linejoin:round;stroke-miterlimit:10;}
	
		.st11{display:inline;fill:none;stroke:#000000;stroke-width:6;stroke-linecap:round;stroke-linejoin:round;stroke-miterlimit:10;stroke-dasharray:9.0067;}
	
		.st12{display:inline;fill:#FFFFFF;stroke:#000000;stroke-width:6.6669;stroke-linecap:round;stroke-linejoin:round;stroke-miterlimit:10;}
	.st13{display:inline;stroke:#000000;stroke-width:5.2082;stroke-linecap:round;stroke-linejoin:round;stroke-miterlimit:10;}
	
		.st14{display:inline;fill:none;stroke:#000000;stroke-width:5.2082;stroke-linecap:round;stroke-linejoin:round;stroke-miterlimit:10;}
	
		.st15{display:inline;fill:none;stroke:#000000;stroke-width:7.2914;stroke-linecap:round;stroke-linejoin:round;stroke-miterlimit:10;}
	
		.st16{display:inline;fill:#FFFFFF;stroke:#000000;stroke-width:7.2914;stroke-linecap:round;stroke-linejoin:round;stroke-miterlimit:10;}
	
		.st17{display:inline;fill:#FFFFFF;stroke:#000000;stroke-width:5.2082;stroke-linecap:round;stroke-linejoin:round;stroke-miterlimit:10;}
	.st18{fill:none;stroke:#FFFFFF;stroke-width:5.2082;stroke-linecap:round;stroke-linejoin:round;stroke-miterlimit:10;}
	.st19{fill:none;stroke:#FFFFFF;stroke-width:3.1249;stroke-linecap:round;stroke-linejoin:round;stroke-miterlimit:10;}
	
		.st20{display:inline;fill:#FFFFFF;stroke:#000000;stroke-width:5;stroke-linecap:round;stroke-linejoin:round;stroke-miterlimit:10.0005;}
	
		.st21{display:inline;fill:#FFFFFF;stroke:#000000;stroke-width:6.8393;stroke-linecap:round;stroke-linejoin:round;stroke-miterlimit:10;}
	.st22{display:inline;fill:none;stroke:#000000;stroke-width:7;stroke-miterlimit:10;}
	.st23{display:inline;stroke:#000000;stroke-width:0.5798;stroke-miterlimit:10;}
	.st24{display:inline;stroke:#000000;stroke-width:0.6254;stroke-miterlimit:10;}
	.st25{display:inline;fill:none;stroke:#000000;stroke-width:3;stroke-linecap:round;stroke-linejoin:round;stroke-miterlimit:10;}
	.st26{fill:none;stroke:#000000;stroke-width:5;stroke-linecap:round;stroke-linejoin:round;stroke-miterlimit:9.9998;}
	
		.st27{display:inline;fill:none;stroke:#000000;stroke-width:2.5869;stroke-linecap:round;stroke-linejoin:round;stroke-miterlimit:10;}
	.st28{display:inline;stroke:#000000;stroke-width:3;stroke-linecap:round;stroke-linejoin:round;stroke-miterlimit:10;}
	.st29{fill:none;stroke:#000000;stroke-width:5;stroke-linecap:round;stroke-linejoin:round;stroke-miterlimit:10;}
	.st30{stroke:#000000;stroke-width:5;stroke-linecap:round;stroke-linejoin:round;stroke-miterlimit:10;}
	.st31{fill:none;stroke:#FFFFFF;stroke-width:5;stroke-linecap:round;stroke-linejoin:round;stroke-miterlimit:10;}
	.st32{fill:none;stroke:#FFFFFF;stroke-width:4.2881;stroke-linecap:round;stroke-linejoin:round;stroke-miterlimit:10;}
</style>
<g id="Pointing_Hand" class="st0">
	<path class="st1" d="M92.6,3.3C73.1,6.5,24.3,48.7,22.9,94.6c-0.8,25.8,24.5,41,28.7,46c1.8,7.2-2.8,75.9,0.1,98.3
		c2.1,16.4,13.8,41.3,27,40.9c14-0.4,19.9-13.7,19.9-27.7c0-14-3.5-34.4-3.5-42.5c0-8.1-1.2-33.7-0.3-37c5.5,1.4,11.6,9.3,19.3,8.8
		c6.9-0.5,12.8-8.2,18.4-9.6c4.3-1,7.4,10.4,18.6,12.2c8.3,1.3,15.7-9.8,18-9.8c5.4,0,8,11.6,20.6,8.9c21.2-4.5,19.5-41.5,18.1-52.3
		s-6.4-64.4-10.5-77.2c-4.9-15.1-15.5-35.7-38.7-42.2C145.6,7.7,109.6,0.6,92.6,3.3z"/>
	<path class="st2" d="M100.2,52.5C97,70,85.3,85.8,69.4,93.8c10.5,5.6,19.3,14.2,25.2,24.5c3.5,6.1,5.9,13.5,3.4,20
		c-3.6,9.1-15.4,12.1-25.1,10.6c-17.7-2.7-32.4-15.6-42.1-30.7c-3.5-5.4-6.5-11.3-7.5-17.7c-1.5-8.4,0.6-17.2,3.6-25.4
		c7.2-20.1,19.3-38.4,35-52.9c8.6-8,18.5-14.9,29.7-18s48.9-1.4,74.8,11.1c28.8,15.2,36.1,38.4,40.6,115.4"/>
	<path class="st2" d="M94.5,171.3c-2.9,26.6,4.3,53.3,3.8,80c-0.1,6-0.6,12.2-3.2,17.7s-7.5,10.1-13.5,10.9
		c-9.6,1.2-17.5-7.6-21.7-16.4c-8.3-17.5-9-37.6-9.1-56.9c-0.1-21.2,0.5-42.4,1.7-63.6"/>
	<path class="st2" d="M90.3,146.7c-0.5,6.7-0.2,12.5,2.1,18.8s6.8,12.1,13.1,14.5c10.5,4.1,22.8-2.4,28.6-12
		c5.9-9.6,6.7-21.4,6.3-32.6c-0.3-9.1-1.3-18.6-6.1-26.4S120,95.7,111.2,98.1c-9.1,2.5-14.3,12.2-15.5,21.6"/>
	<path class="st2" d="M134.1,168.4c2.5,7.1,7.6,14.2,15,15.5c7.9,1.4,15.5-4.5,19.8-11.2c9.6-15.1,8.3-35.3,0.8-51.5
		c-3.1-6.8-7.6-13.4-14.4-16.4s-16.3-0.8-19.1,6.1"/>
	<path class="st2" d="M169.4,171.8c2.5,7.1,5.9,10.8,13.4,12c7.9,1.4,15.5-4.5,19.8-11.2c9.6-15.1,8.3-35.3,0.8-51.5
		c-3.1-6.8-7.6-13.4-14.4-16.4s-17.8-0.1-20.6,8.3"/>
</g>
<g id="Newsletter" class="st0">
	<g id="dotted_line" class="st3">
		<path class="st4" d="M27.9,92.6c-46.5,11.7-69.3,63-26.4,93.5c63.4,34,69.8-50.6,152.8-44.9c58.5,0.6,82.9,54.4,62.8,80.3
			c-40.1,52-92.1-29-128.9,13.8c-12.6,14.6-17.2,24.8-17.1,40"/>
	</g>
	<g id="plane" class="st3">
		<polyline class="st5" points="242.9,63.6 16.8,121.6 58.2,78 253.3,62.4 102.4,114.6 85,105.4 		"/>
		<path class="st5" d="M81.5,52.5l171.8,9.9l-139.4-31L81.5,52.5c0,0,11.5,20.9,11.9,21.6"/>
	</g>
</g>
<g id="LinkedIn_NOT" class="st0">
	<path class="st6" d="M46.1,7.7C35.9,74.4,2.5,175.2-16.3,217.6c53.7,27.9,82,39.6,142.8,57.3c12.6,4.3,61.2-18.8,68.3-28.6
		c18.4-40.4,48.6-136.7,55.7-182C183,51.7,107.7,30.1,46.1,7.7z"/>
	<path class="st6" d="M124.9,274.1c9.8,2,18.8-37.3,29.4-40c7.5-0.8,28.8,18.8,39.6,12"/>
	<path class="st7" d="M74.3,97.1c-3.2,10.6-18.5,58.8-26.6,77c6.5,4.7,17.6,8.1,23.1,9c7.1-16.6,21.9-56,27.7-76.7
		C95.6,102.9,81.1,97.9,74.3,97.1z"/>
	<path class="st7" d="M112.1,111.1c-6.9,23.3-20.1,60.6-26.6,77c6.5,4.7,17.6,8.1,23.1,9c5.3-10.9,21.9-56,27.7-76.7
		C133.4,116.9,118.9,111.9,112.1,111.1z"/>
	<path class="st7" d="M132.3,129.1c2.9-1.8,9.4-9.7,28.8-3.7c36.8,11.6,12.4,52-0.8,90.3c-9.1-0.8-21.5-6.3-24.1-8.2
		c6.6-15.8,12.6-31.6,14.8-39.6c4.8-17.4,1.4-21.8-4.5-24.2c-6.8-2.7-15.1-1.1-18.7,4.1C123.6,151.9,132.3,129.1,132.3,129.1z"/>
	<path class="st7" d="M108.4,80.9c-2.4,7.4-9.1,12-17.8,9c-7.4-2.5-11.7-10.4-9.2-17.7c2.8-8.3,9.8-11.6,18.6-8.7
		C107.4,66,110.7,73.5,108.4,80.9z"/>
</g>
<g id="LinkedIn_00000150104747717848862800000002388172020763015823_" class="st0">
	<path class="st6" d="M31.6,35.5c4.2,110.2,1.1,161.2-43.6,235.3c9.3,0.5,20.4,1.4,31.8,1.4c6.7-7.3,11.7-16.4,19.1-34.4
		c1.8,0,20.1-1.2,25.9-1C60,254,52.2,264.5,45.7,274.3c8.6-0.1,21.5,0.3,30.5,0c8.5-9.3,13.6-21.4,18.4-38
		c5.2-0.2,26.3-0.9,31.5-1.2c-3.5,17.1-12.3,28.1-17.6,37.1c12.9-0.8,26.6-1,34.9-2.8c5.2-9.7,13.1-21.3,15.4-36.4
		c5.9-0.4,27.3-2.7,32.6-3.1c-3.4,18.3-13,28.5-16.4,36.9c16.7-1.6,25.9-1.3,33.4-3c15.6-20.3,40.1-111.6,20.9-251.6
		C149.5,11.1,93.1,22.3,31.6,35.5z"/>
	<path class="st7" d="M73.1,97.9c1,16.9-2.4,56.1-8.7,82.9c7.3,1.7,18.9,0.4,24.4-1.1c4.9-18,10.8-60.8,9.8-83.1
		C95.1,94.5,79.9,95.8,73.1,97.9z"/>
	<path class="st7" d="M113,95.3c0.8,25.7-3.8,63.1-8.7,82.9c7.3,1.7,18.9,0.4,24.4-1.1c4.3-14.2,10-61.6,9.8-83.1
		C135,92,119.7,93.3,113,95.3z"/>
	<path class="st7" d="M136.6,103.9c2.4-2.9,7.7-11.7,30.1-13.2c37.4-0.2,25.2,62.5,19.8,83.1c-9,3-22.3,2.9-25.2,2.3
		c4.2-18.7,5.8-33.2,6.1-41.6c0.8-18.2-7.3-23-13.7-22.8c-7.2,0.3-14.9,5.2-17.3,11.5C133.2,128.8,136.6,103.9,136.6,103.9z"/>
	<path class="st7" d="M102.6,68.6c-0.7,7.9-6.2,14.9-15.3,15.8c-7.8,0.7-13.7-4.9-12.9-12.8c0.9-8.9,6.9-14.9,16.1-15.8
		C98.3,55.1,103.3,60.8,102.6,68.6z"/>
	<line class="st8" x1="132" y1="35.4" x2="111.7" y2="23.4"/>
	<path class="st9" d="M115.8,12.1c5.1,1.7,7.4,6.7,4.2,14.3c-2.6,6.3-8.5,9.4-13.7,7.3c-4.5-1.8-6.2-6.9-3.6-12.9
		C105.3,14.9,109.9,10.1,115.8,12.1z"/>
	<path class="st10" d="M144.4,28.1c-7.8,4.2-13,12.9-13,21.8"/>
	<path class="st10" d="M132.3,38.2c-3.7-0.4-7.7,1.5-9.6,4.6"/>
	<path class="st10" d="M134.4,32.9c-1.2-2-1.5-4.5-0.8-6.7"/>
	<path class="st11" d="M17.5,216.8c26.2,1.1,70.4-0.4,106.9-1.8c36.6-1.4,78.7-4.1,105.9-7.4"/>
</g>
<g id="Cara" class="st0">
	<path class="st12" d="M117.8,139.1c19.7,12.2,120.8,6.1,118-72c-1.8-50.9-68.5-62-110-52.7C88.1,22.9,34,45,24.1,138.2
		C9.9,273.8,210.5,309.3,235.4,217c15.1-56.2-54-76.2-69-74.6"/>
</g>
<g id="instagram_NOT" class="st0">
	<path class="st13" d="M203.4,27.6c0.3-2.9,0.8-5.1,6.2-6.8c6.5-2.1,34.7-2.6,41.2,2.9c6.5,5.6,6.5,33.2,1.8,40
		c-4.7,6.8-21.5,4.4-21.5,4.4L203.4,27.6z"/>
	<path class="st1" d="M219.8,136.1c-1.2-19.1-2.4-34.7-2.6-42.6c-0.2-5.3-2.2-17.4,7.4-22.4c9.7-5,15.6-8.3,19.4-11.8
		c3.2-2.9,3.2-22.5,0.6-27.1c-2.9-5-31.2-4.7-35.3-4.4c-4.1,0.3-4.2,1.6-8.8,2.4c-7.4,1.2-3.5-5.3-26.5-8.5
		c-9.1-1.3-87.2-5.6-98.2-4.4C59.5,19,46.3,21.7,39.3,30.8"/>
	<path class="st1" d="M219,99.6c5,3.2,28.2,21.5,28.2,27.1c0,5.6-0.9,42.4-8.2,46.5c-8.5,4.7-86.8,33.5-93.8,33.2
		c-7.1-0.3-137.6-21.1-139.4-23.2c-3.2-3.8-6.5-16.5-7.6-26.2c-1.2-9.7-1.3-29.6,1.2-31.8c3.2-2.9,37.6-19.7,37.6-19.7
		c0-10.9-0.4-57.1,0-65.6c0.6-12.4,11.8-14.7,36.5-14.4S159,29.3,174,31.4s25.9,8,27.4,25c1.5,17.6,1.2,70.9,0.9,85.3"/>
	<path class="st14" d="M219.8,136.1c-1.2-19.1-2.4-34.7-2.6-42.6c-0.2-5.3-2.2-17.4,7.4-22.4c9.7-5,15.6-8.3,19.4-11.8
		c3.2-2.9,3.2-22.5,0.6-27.1c-2.9-5-28.2-4.9-32.4-4.6c-2.2,0.2-7,1.3-9,2c-5.7,2-2.6-2.6-16.1-5.9c-3.2-0.8-7.4-1.5-13.1-2.1
		c-9.2-1-87.2-5.6-98.2-4.4C59.5,19,46.3,21.7,39.3,30.8"/>
	<path class="st15" d="M219,99.6c5,3.2,28.2,21.5,28.2,27.1c0,5.6-0.9,42.4-8.2,46.5c-8.5,4.7-86.8,33.5-93.8,33.2
		c-7.1-0.3-137.6-21.1-139.4-23.2c-3.2-3.8-6.5-16.5-7.6-26.2c-1.2-9.7-1.3-29.6,1.2-31.8c3.2-2.9,37.6-19.7,37.6-19.7
		c0-10.9-0.4-57.1,0-65.6c0.6-12.4,11.8-14.7,36.5-14.4S159,29.3,174,31.4s25.9,8,27.4,25c1.5,17.6,1.2,70.9,0.9,85.3"/>
	<path class="st15" d="M247.2,126.7c-13.5,6.8-85.3,30-91.8,30.6S2.5,136.4-1.3,135.8"/>
	<path class="st15" d="M-0.7,125.2c3.8,0.3,142.6,20,154.7,19.4c5.6-0.3,40.6-14.7,47.6-17.9"/>
	<path class="st15" d="M154,144.6c1.5,5.9,1.2,52.6-6.5,60.3"/>
	<line class="st15" x1="35.4" y1="106.4" x2="199.8" y2="124"/>
	<path class="st16" d="M27.5,158c-23.8,11.6-50.6,61.4-49.4,98.4c31.2,4.7,87.6,13.5,123.8,19.1c-2.6-59.1,22.6-85.9,34.4-96.2"/>
	<path class="st13" d="M44.8,160c-16.4,7.5-39.1,32.4-47.4,69.4c26.2,3.8,60.2,9,90.2,13.7c3.5-31,18.6-58.1,38-71.1"/>
	<polyline class="st15" points="14.8,165.3 14.5,155.6 139.2,173.2 138.4,187.9 129.8,187 	"/>
	<polygon class="st14" points="153.1,44 154.2,72.9 184.2,76.7 183.4,47.3 	"/>
	<polyline class="st14" points="182.8,67.3 164.2,65.1 163.4,45.8 	"/>
	<path class="st14" d="M54.3,85.8c2.2-1.1,4.2-1.7,6.1-1.7c3-0.1,5.4,1.9,5.9,5.4c0.5,2.8,0,5.6-4.2,7.1c-0.8,0.3-2,0.8-4.6,1.1"/>
	<path class="st14" d="M62.5,90.8c0.3,3.5-1.6,6.5-4.9,6.7c-4,0.2-6.5-2.3-6.8-5.9s2.4-6.1,5.6-6.4S62.2,87.3,62.5,90.8z"/>
	<path class="st13" d="M151.2,91.5c3.2-1.6,6.1-2.4,8.9-2.5c4.3-0.2,7.8,2.7,8.7,7.8c0.7,4.1,0,8.2-6.2,10.3c-1.2,0.4-3,1.1-6.7,1.6
		"/>
	<path class="st17" d="M163,98.9c0.4,5.2-2.4,9.5-7.2,9.8c-5.8,0.3-9.5-3.4-9.9-8.5c-0.4-5.2,3.5-9,8.2-9.3
		C158.9,90.5,162.7,93.7,163,98.9z"/>
	<path class="st15" d="M108.5,99.6c12.9-3.2,21.6-5.2,27-9.4c8.1-6.3,10.5-15.3,9.7-25c-1.3-16.3-11.8-28.4-30.8-27.5
		c-8.7,0.4-20.3,2.7-27.1,6.9"/>
	<path class="st15" d="M131.1,70.6c0,18.8-13,29.4-29,29.7c-18.1,0.3-28.4-15.1-28.4-31.5s12.4-27.8,28.4-27.8
		S131.1,54.2,131.1,70.6z"/>
	<path class="st13" d="M129,81.6c-3.3,5.2-8.9,8-15.3,8.1c-11.5,0.2-18.1-10.1-18.1-21.1s7.9-18.6,18.1-18.6c5.6,0,10.6,2.7,14,6.9"
		/>
	<polyline class="st14" points="94.4,100.2 94.4,112.9 60.5,132.6 	"/>
	<polyline class="st14" points="122.6,99.9 122.9,116.4 106.1,138.2 	"/>
	<polyline class="st14" points="103.5,103.2 103.5,114 77,134.6 	"/>
	<polyline class="st14" points="112.9,102.9 112.9,115.2 92.6,136.1 	"/>
	<line class="st14" x1="235.7" y1="37.6" x2="212.8" y2="49.8"/>
	<line class="st13" x1="154.2" y1="72.9" x2="164.2" y2="65.1"/>
	<path class="st14" d="M189.7,24.5c6.5,1.9,14.7,8.3,16.6,14.1"/>
	<g id="Layer_7" class="st3">
		<path class="st18" d="M32.1,201.7c-2.1-1.4-2.8-4-2.8-6.5c-0.1-4.4,1.7-8.8,4.8-12c3.4-3.4,8-5.3,12.7-6.4
			c5.3-1.3,11-1.8,16.4-0.6c5.4,1.3,10.4,4.5,13,9.4c1.3,2.4,2,5.2,2.2,8c0.2,2.2,0.2,4.4-0.5,6.4c-1.2,3.7-4.5,6.4-8,7.9
			c-3.6,1.5-7.5,1.8-11.4,1.8c-1.1,0-2.3,0-3.1,0.8c-0.4,0.4-0.7,1-1,1.5c-1,2.2-1.8,4.6-2.4,6.9c-0.1,1.2-1,1.8-2.1,1.9
			c-3.5,0.9-12.4-1-18.5-2.4C22,216.4,26.9,212.9,32.1,201.7z"/>
		<path class="st19" d="M41,192.6c3.7-2.9,5.2-3.6,9.7-5"/>
		<path class="st19" d="M43.1,186.1c2.1,3.3,3.3,4.1,4.4,7.9"/>
		<path class="st19" d="M56.3,196.1c3.7-2.9,5.2-3.6,9.7-5"/>
		<path class="st19" d="M58.4,189.6c2.1,3.3,3.3,4.1,4.4,7.9"/>
		<path class="st19" d="M46.3,209.6c-1.6,3.3-2.9,6.8-3.9,10.4"/>
		<path class="st19" d="M38.6,207.8c-1.7,3.3-3,6.7-4.1,10.3"/>
	</g>
</g>
<g id="Instagram" class="st0">
	<polygon class="st6" points="-12.4,47.9 -14.9,189 201.5,263.3 202,115.4 	"/>
	<polyline class="st6" points="-12.4,47.9 46.7,27.2 250.6,87.4 248.1,228.4 201.5,263.3 	"/>
	<line class="st6" x1="202" y1="115.4" x2="246.5" y2="91.4"/>
	<path class="st9" d="M206.8,83.4c-0.7,5-10.5,6.7-20.5,4c-10-2.7-17.4-7.5-15.6-13.8c1.4-4.9,10.5-6.7,20.5-4
		C201.2,72.3,207.7,76.6,206.8,83.4z"/>
	<path class="st10" d="M170.8,73.5c-0.7,2.5-1.2,11.8-1.2,11.8c0.3,5,6.4,7.8,16.3,10.6s19.2,1,20.5-4c0.7-3,0.9-7.5,0.6-9.3"/>
	<path class="st9" d="M61.3,42.2c-0.3,3.7-6.6,5.5-13.1,4.1c-6.5-1.3-11.4-4.3-10.4-9c0.8-3.6,6.6-5.5,13.1-4.1
		C57.4,34.5,61.7,37.2,61.3,42.2z"/>
	<path class="st10" d="M37.8,37.3c-0.4,1.9-0.5,8.7-0.5,8.7c0.3,3.6,4.3,5.3,10.8,6.6c6.5,1.3,12.5-0.5,13.1-4.1
		c0.4-2.2,0.4-5.5,0.2-6.8"/>
	<polygon class="st10" points="239.4,111.5 212.4,126.7 212.1,137.4 239.3,121.4 	"/>
	<polygon class="st10" points="155.8,118.3 187.8,128.1 187.3,154.5 154.9,145.1 	"/>
	<path class="st8" d="M17.8,107.4c14.3-5.9,34.8-13.6,46.2-14.9c30.7-3.6,60.5,22,64.3,58.4c3,28-9.2,55.2-30.8,65.3
		C89.5,220.1,59,230,40,231"/>
	<path class="st8" d="M95.2,153.6c8.5,34.1-10.1,68.1-41.5,75.9c-31.4,7.9-58.7-15.9-67.2-49.9c-8.5-34.1,5-65.6,36.4-73.5
		C54.3,98.2,86.7,119.5,95.2,153.6z"/>
	<path class="st3" d="M72.3,207.9c-4.4,3.3-9.5,5.8-15.1,7.2c-24.5,6.1-44.6-12.9-51.3-39.5s2.7-50.7,27.2-56.8
		c9.2-2.3,18.5-1.4,26.9,2c0,0,21.1,10.3,25.9,37.7C91.9,192.4,72.3,207.9,72.3,207.9z"/>
	<path class="st6" d="M86.3,155.8c7.1,28.7-8.5,57.3-35,64C24.8,226.4,2.7,206-4.5,177.3s3.4-54.9,29.9-61.5
		C51.8,109.1,79.1,127.1,86.3,155.8z"/>
	
		<ellipse transform="matrix(1.795558e-02 -0.9998 0.9998 1.795558e-02 -60.1381 407.7265)" class="st20" cx="177.5" cy="234.5" rx="7.6" ry="6.2"/>
	
		<ellipse transform="matrix(1.795558e-02 -0.9998 0.9998 1.795558e-02 -70.8458 70.9066)" class="st20" cx="0.7" cy="71.5" rx="6" ry="4.8"/>
	<path class="st21" d="M73.7,140.6c7.2,11.1,11.2,45.2-0.7,61.1c-4.8-49-13.6-58.4-17.7-70.1C57.9,130.6,71.2,137.8,73.7,140.6z"/>
</g>
<g id="Prints" class="st0">
	<path class="st6" d="M185.6,11.4c1.6,47,8,133.7,32,231.9c-75.5,6.7-106.2,12-172.4,27.5c-14.4-39-29.6-141.4-29.6-230
		C72,26.4,122.5,14.6,185.6,11.4z"/>
	<path class="st3" d="M69.6,87.5c-2-0.6-4.9,0.7-5.2,3c-0.6,3.5-3.1,6.4-7,5.7c-3.6-0.7-5.7-4.6-6-8c-0.5-4.4,0.9-9.6,2.9-13.5
		c1.1-2,4.8-6.2,6.4-2.4c0.9,2.1,4,2.6,5.8,1.5c2.2-1.3,2.4-3.7,1.5-5.8c-3.2-7.5-13.1-6.8-18.1-1.7c-5.4,5.5-7.9,15.6-6.9,23
		c0.9,7.1,5.7,13.9,13,15.2c7.8,1.3,15.4-4,16.6-11.8C72.9,90.4,72,88.1,69.6,87.5z"/>
	<path class="st3" d="M99.7,69.8c-1.7-4.4-4.9-7.9-8.4-11c-0.9-0.8-1.9-1.1-2.9-1.1c-3-0.9-6.4,0.3-8.7,2.7c-2.9,3-4.1,7.1-4.7,11.1
		c-1.2,8.5-1,19.2,7.8,23.7c8.9,4.6,17.1-2.7,18.2-11.6C101.6,79.1,101.4,74,99.7,69.8z M86,66.2C86.2,65.3,86.6,66.6,86,66.2
		L86,66.2z M88.2,88.1c-5-0.4-5.4-7.3-5.3-11c0.1-2.3,0.3-4.6,0.9-6.8c0.3-1.1,0.7-2.2,1.3-3.2c0.1-0.2,0.8-0.8,0.8-1c0,0,0,0,0,0
		c0.5,0.5,1.1,0.8,1.7,0.9c2.7,2.8,4.7,5.9,5,10.2C92.9,80.2,93.2,88.5,88.2,88.1z"/>
	<path class="st3" d="M124.5,54.9C124.5,54.9,124.5,54.9,124.5,54.9c-2-4.5-7.9-3.7-11.3-1.8c-3.5,1.9-6.1,5.3-7.5,9
		c-1.7,4.6-1.7,9.8-1.1,14.7c0.6,4.8,2.6,8.3,6.6,11c3.7,2.6,7.4,3.6,11.6,1.3c3.8-2.1,6.8-6,7.8-10.2
		C132.5,71.3,129.9,61,124.5,54.9z M121.2,79.4c-0.5,0.8-1.2,1.4-2,2c-1.2,0.9-0.8,0.9-1.9,0.3c-2-1.2-3.6-2.3-4.1-4.6
		c-0.6-2.6-0.6-5.4-0.4-8.1c0.2-2.2,0.8-4.6,2.1-6.4c0.6-0.8,1.3-1.5,2.2-1.9c0.1-0.1,0.5-0.2,0.8-0.3c2.8,3.1,4,7.5,4.5,11.6
		C122.8,74.6,122.7,77.2,121.2,79.4z"/>
	<path class="st3" d="M158.1,75.6c-3.3,1.2-6.6,2.2-10,2.9c-0.1,0-0.3,0-0.6,0.1c0,0,0-0.1,0-0.1c-0.4-1.6-0.7-3.2-1-4.8
		c-1-7-1.5-14.1-2.3-21.1c-0.2-2.3-1.8-4.2-4.2-4.2c-2.1,0-4.5,2-4.2,4.2c1,9.1,1.2,18.8,3.4,27.7c1.1,4.3,3.4,7.7,8.4,7
		c4.3-0.7,8.6-2,12.8-3.5C165.4,81.9,163.2,73.7,158.1,75.6z"/>
	<path class="st3" d="M88.2,154.9c-2.9-12.9-7.3-25.4-13.2-37.3c-0.9-1.9-2.9-2.3-4.7-2.1c-7.6,0.7-8.4,12.1-9.4,17.8
		c-1.5,8.6-2.3,17.3-2.2,26.1c0,5.5,8.5,5.8,8.5,0.3c0-3.3,0.1-6.6,0.3-9.8c3.1-1.6,6.4-2.5,9.9-3c1,3.3,1.8,6.7,2.6,10
		C81.1,162.2,89.4,160.2,88.2,154.9z M68.4,140.2c0.1-0.4,0.1-0.8,0.2-1.2c0.5-3.2,1-6.4,1.7-9.6c0.1-0.4,0.2-0.8,0.3-1.2
		c1.5,3.5,2.9,7,4.2,10.6C72.6,138.9,70.4,139.5,68.4,140.2z"/>
	<path class="st3" d="M122.6,147.7c-4.3-4.8-9.3-8.7-14.8-11.8c5.7-6.9,10.2-16.8,2.9-23.7c-7.9-7.5-20.4-1.7-24.9,6.6
		c-1.8,3.4,1.2,6.7,4.1,6.6c1.2,7.7,2.7,15.4,4.4,23c-0.1,0.5-0.1,1.1,0.1,1.6c0.2,0.6,0.4,1.1,0.6,1.7c1.8,5,9.5,3.6,8.3-1.9
		c-0.6-2.5-1.1-5-1.7-7.6c5.6,2.8,10.5,6.7,14.7,11.3C120,157.6,126.3,151.8,122.6,147.7z M97.5,118.5c0.5-0.3,1-0.5,1.5-0.7
		c1.8-0.6,4.6-0.9,6,0.7c1.8,2.1,0.4,6-0.7,8c-1.2,2.2-2.8,4.1-4.5,5.8C98.9,127.7,98.1,123.1,97.5,118.5z"/>
	<path class="st3" d="M150.9,102c-10,1.4-19.9,3.4-29.7,6c-5.3,1.4-3.4,9.7,1.9,8.3c3.3-0.9,6.6-1.7,10-2.4
		c1.6,11.1,3.4,22.3,5.3,33.4c0.9,5.4,9.2,3.5,8.3-1.9c-1.9-11-3.6-22.1-5.2-33.1c3.8-0.7,7.6-1.3,11.4-1.8
		C158.2,109.5,156.3,101.3,150.9,102z"/>
	<path class="st3" d="M84.5,219.6c-3.5-12.2-6.5-24.4-9-36.8c-1.1-5.4-9.3-3.1-8.2,2.3c1,5.1,2.1,10.1,3.3,15.1
		c-3.8,1.4-7.6,2.9-11.2,4.8c-1.3-5.6-2.5-11.2-3.8-16.7c-1.2-5.3-9.4-3.1-8.2,2.3c2.8,12.5,5.6,25,8.5,37.5
		c1.2,5.3,9.4,3.1,8.2-2.3c-0.9-4.1-1.8-8.1-2.7-12.2c3.6-2,7.4-3.7,11.3-5.1c1.2,4.5,2.4,9,3.7,13.4
		C77.8,227.1,86.1,224.9,84.5,219.6z"/>
	<path class="st3" d="M114.2,212.2c-0.6-2-3.1-3.9-5.2-3c-2.5,1.1-5.1,2.1-7.6,3.2c-1.5,0.6-3.6,2-5.5,2.5c-0.9-1.9-1.4-6.7-1.7-8.1
		c-0.1-0.3-0.1-0.7-0.2-1c2.6-1,5.2-2,7.8-3c2.1-0.8,3.6-2.9,3-5.2c-0.6-2-3.1-3.8-5.2-3c-2.4,0.9-4.7,1.8-7.1,2.7
		c-0.1-0.6-0.2-1.1-0.3-1.7c-0.3-2.4-1.7-6.8-0.2-9c1.8-2.5,6-2.8,8.8-3.2c2.3-0.4,3.5-3.2,3-5.2c-0.7-2.4-2.9-3.3-5.2-3
		c-6.1,1-12.8,3.1-15.1,9.5c-1.1,3-0.4,6.2,0,9.3c0.5,3.6,1,7.2,1.6,10.7c0.6,3.4,1.3,6.7,2.1,10c0.7,2.9,1.5,6.2,4.2,7.9
		c3.2,2,6.6,0.2,9.6-1l10.1-4.2C113.3,216.5,114.9,214.6,114.2,212.2z"/>
	<path class="st3" d="M145.6,207.8c-4.3-3.8-8.9-7.3-13.6-10.6c5.5-5.5,7.8-13.9,4.1-21.6c-5.3-10.8-22.6-6.2-26.3,3.6
		c-1.1,2.8,0.9,4.8,3.3,5.1c2,9.5,3.9,19,5.9,28.6c1.1,5.4,9.3,3.1,8.2-2.3c-0.5-2.5-1-5-1.5-7.5c4.9,3.2,9.6,6.8,14.1,10.7
		C143.7,217.4,149.7,211.5,145.6,207.8z M123.7,178.3c3.1-0.9,4.6-0.1,5.4,3.1c1,4.4-1,8.8-4.6,11.2c-0.4-0.1-0.8-0.2-1.2-0.2
		c-0.9-4.3-1.8-8.7-2.7-13C121.7,178.9,122.9,178.6,123.7,178.3z"/>
	<path class="st3" d="M171.1,200.8c-1.2-2.2-3.7-2.5-5.8-1.5c-1.8,0.8-3.7,1.4-5.6,1.8c-0.6,0.1-1.5,0.4-2.3,0.4
		c0-0.1-0.1-0.2-0.1-0.3c-0.1-0.3-0.1-0.5-0.2-0.8c-0.6-2.3-1.2-4.7-1.7-7.1c2.3-0.6,4.6-1.2,6.8-2c2.2-0.8,3.6-2.9,3-5.2
		c-0.6-2.1-3-3.7-5.2-3c-2,0.7-4.1,1.3-6.1,1.8c-0.2-1.4-0.4-2.8-0.6-4.2c-0.1-1.1-0.2-2.2-0.3-3.2c0-0.5-0.1-1.1-0.1-1.6
		c0-0.1,0-0.1,0-0.2c0.4-0.2,0.8-0.4,1.2-0.6c0.8-0.4,1.7-0.7,2.5-1c1.9-0.6,3.8-1,5.8-1.2c5.4-0.4,5.5-8.9,0-8.5
		c-5.2,0.4-12.9,1.7-16.4,5.9c-2.2,2.6-1.6,6.1-1.3,9.2c0.3,3.4,0.9,6.8,1.5,10.2c0.6,3.2,1.3,6.4,2,9.5c0.6,2.8,1.1,6.1,3.2,8.2
		c4.6,4.7,13.2,1.1,18.2-1.1C171.7,205.7,172.1,202.6,171.1,200.8z"/>
	<path class="st3" d="M183.5,184.8c-1.6-9.2-3-18.3-4.3-27.5c-0.3-2.3-3.2-3.5-5.2-3c-2.4,0.7-3.3,2.9-3,5.2
		c1.3,9.2,2.8,18.4,4.3,27.5C176.3,192.4,184.4,190.2,183.5,184.8z"/>
	<path class="st3" d="M187.5,200.3c-0.5-2-2.3-3.6-4.4-3.8c-1.5-0.4-3-0.1-4.3,0.6c-1.3,0.7-2.1,2.2-2.1,3.7c0,1.6,0.6,3.4,1.9,4.5
		c1.1,0.9,2.2,1.4,3.5,1.5c1,0.1,2-0.2,2.9-0.7C187,204.9,188,202.6,187.5,200.3z"/>
</g>
<g id="Clothing" class="st0">
	<path class="st6" d="M39,78.4c2,26.3,2.9,55.7,2.9,83.5c0,27.7-4.7,72.4-5,77.4c-0.3,5-2.5,12.1,0,16.7
		c2.5,4.6,35.6,18.6,79.5,17.9c43.9-0.6,77.9-14.4,80.1-22.6c1.7-6.2-0.2-19.3-0.9-25c-2-17.1-4.2-48.4-5.3-72.1
		c-0.6-14-1.2-37.8,1.2-75.9"/>
	<path class="st6" d="M189.8,121.1c7,0,42.7-6.5,43.6-15.8c0.9-9.3-14.7-62.2-19.9-70.8c-11.1-18.3-43.4-24.7-59.8-25
		c-3.4,1.1,3.8,31.1-30.5,31.1c-39,0-34.9-29.8-41.2-29.9c-9-0.1-45.8,5-59.9,22C10.3,52.3-2.1,91.3-2.7,106
		c0,8.5,33.7,14.6,43.5,14.1"/>
	<path class="st10" d="M71.5,10.5c0.6,10.9,12.1,44,50.4,43.4s43-31.1,42.7-43.4"/>
	<path class="st10" d="M94.3,156c-7.1-2.8-12.4-9.1-15.2-16.2c-2.7-7.1-3.1-14.9-2.1-22.5c0.8-6.1,2.4-12.3,6.1-17.3
		c4.4-5.9,11.2-9.5,17.9-12.3c7.6-3.2,15.3-4.1,23.5-4.1c8.2,0,16.9,1,22.7,6.8c4.9,4.9,7.4,11.7,9.1,18.4
		c1.9,7.5,2.9,15.3,1.4,22.9c-1.5,7.6-5.7,14.8-12.4,18.7c-1.2,0.7-2.5,1.3-3.2,2.5c-0.6,1-0.6,2.3-0.6,3.5c0.1,4.8,0,9.6,0.3,14.5
		c0.2,3.4-1.7,5.2-3.3,6.1c-10.2,5.9-23.4,7.9-35.1,5.5C91.1,179.9,94.9,176,94.3,156z"/>
	<path class="st10" d="M111.2,109.3c-7.2,5.7-13.2,12.9-17.4,21"/>
	<path class="st10" d="M93.2,110c6,5.5,11.5,11.5,16.4,18"/>
	<path class="st10" d="M123,110c7.6,5.2,14,11.9,18.8,19.7"/>
	<path class="st10" d="M141,109.4c-5.6,5.9-10.7,12.3-15.2,19.1"/>
	<path class="st10" d="M107.9,160.6c0,6.8,0,13.6,0,20.3"/>
	<path class="st10" d="M127.6,157.8c0.6,7.7,0.8,15.4,0.6,23.1"/>
	<path class="st6" d="M82.1,10.6c12.8-0.7,16.3,3.1,38.4,3.3c18.1,0.2,20.5-5,33.3-4.5"/>
</g>
<g id="Objects" class="st0">
	<path class="st22" d="M108.2,28.5C26.2,16.7-21,94.3-20,131.6c1,40.8,20.6,85.7,47.1,99.7c18.7,9.8,63.8,20.1,108.5,14.3
		c44.7-5.9,121-39.3,117.9-91.4C250.7,105.6,190,40.2,108.2,28.5z"/>
	<ellipse class="st22" cx="108.6" cy="140.3" rx="33.5" ry="33.3"/>
	<ellipse class="st22" cx="23.1" cy="144.3" rx="24.6" ry="31.8"/>
	<ellipse class="st23" cx="110.2" cy="151.3" rx="16.5" ry="16.6"/>
	<ellipse class="st24" cx="22.1" cy="153.8" rx="15" ry="16.1"/>
	<path class="st10" d="M45.5,59.3c1.3-0.3,2.8-0.2,4.1,0.4c1,0.5,1.9,1.3,2.8,2c3.4,2.6,7.4,4.2,11.7,4.6"/>
	<path class="st10" d="M134.7,45.7c-0.5,1.6,0.3,3.5,1.9,4.1c1.5,0.6,3.5-0.1,4.2-1.6"/>
	<path class="st10" d="M24.4,214.9c5,2.7,9.5,6.5,13,11"/>
	<path class="st10" d="M179.8,192.4c-0.8-2.8,1-5.9,3.4-7.5c2.4-1.6,5.5-2.1,8.3-2.6c0.6-1,1.3-2,2.1-2.8"/>
	<path class="st10" d="M231.9,161.1c-0.3-1.9,0.5-3.8,1.9-5c0.6-0.5,1.2-0.9,1.6-1.5c1.1-1.7-0.2-3.9-1.6-5.4"/>
	<path class="st10" d="M164.2,84.7c6.8,5.3,15,8.5,23.1,11.5"/>
	<path class="st10" d="M171.8,111.4c1.2,2.4,5,2.7,5.8,5.2c0.3,1.2-0.1,2.6-0.1,3.8c0.1,2.3,2,4.3,4.2,5c2.2,0.8,4.6,0.7,6.9,0.6"/>
	<path class="st10" d="M89.8,39c1.4-1,2.9-2.1,4.3-3.1"/>
	<path class="st10" d="M13.9,85.6c-1.6,1.7-4.3,1.8-6.5,1s-3.9-2.4-5.6-4"/>
	<path class="st10" d="M-9.1,181.5c1.4,2,2.9,4.2,5.2,5c1.4,0.5,3,0.4,4.4,0.7c1.4,0.2,3,1,3.5,2.4"/>
	<path class="st10" d="M150.3,234.7c3.5,2.7,7.6,4.5,11.9,5.2"/>
	<path class="st10" d="M103.3,198.7c3.1,2,6.7,4.2,10.3,3.2c1-0.3,2.2-0.8,3.1-0.3"/>
</g>
<g id="Toys" class="st0">
	<path class="st6" d="M130,42.5c0-0.7,0.1-1.4,0.5-2c0.4-0.6,1.1-0.9,1.8-1.2c7.2-3.2,11-12,9.4-19.7s-7.8-14-15.1-16.8
		c-6.4-2.4-13.9-2.3-20.1,0.5c-6.3,2.9-11.2,8.6-12.8,15.3s0.3,14.2,5.1,19.1c0.7,0.8,1.6,1.5,2,2.5c0.4,0.9,0.4,1.9,0.4,2.8
		c0,1.7,0.1,3.4,0.1,5c0,1.2,0.1,2.4,0.6,3.4c0.9,1.5,2.8,2.1,4.4,2.5c3.9,1,7.8,2,11.9,2c3.1,0.1,7.8-0.9,10.6-2.6
		C131.4,51.9,130.2,48.5,130,42.5z"/>
	<path class="st6" d="M106.4,55c-1.1,3.7-2.6,5.8-6.3,6.8"/>
	<path class="st6" d="M127.3,54.3c-0.8,3.8,2,6.8,5.9,7.6"/>
	<path class="st6" d="M136.6,59.9c-1.2,1-2.2,2.3-3,3.7c-3.8,6.1-6.5,12.9-7.8,20c-0.2,1.2-0.4,2.5-0.9,3.6c-1.9,4-7.3,4.7-11.8,4.8
		c-1.8,0-4,0-5-1.5c-0.5-0.8-0.7-1.8-0.8-2.7c-1.1-8.7-3.5-17.4-7.1-25.4c-0.5-1.1-1.1-2.3-2-3.1c-0.9-0.7-2.1-1-3.3-1.2
		c-4.6-0.5-9.5,1.3-12.6,4.8c6.4,9.1,9.9,19.8,12.5,30.6c1.4,5.9,2.5,12.1,0.9,17.9c-1.7,5.8-7,11-13,10.6c1.2,5.1,3,8.7,5.5,12.6
		c0.4,0.6,1.8,2.8,6,1.2c3.8-0.7,7.4-2.7,9.9-5.7c2.5-2.9,4.2-6.7,7.7-8.2c2.9-1.2,6.2-0.5,9,0.9c2.7,1.4,5.1,3.5,7.7,5.2
		c5.3,3.5,11.6,5.5,17.9,5.6c1,0,2,0,2.8-0.5c1-0.6,1.7-1.5,2.2-2.6c1.6-3,2.5-6.4,2.7-9.8c-7,2.6-15-3.2-17.1-10.4
		s0.7-15.8,3.2-22.9c3-8.4,6.6-16.6,14.7-25.2C150.9,58.4,140.4,56.8,136.6,59.9z"/>
	<path class="st6" d="M153,64c3.5-3.8,8.4-5.4,14.2-5c5.1,0.4,7.7,4.1,9.8,7.7c2.7,4.6,4.5,9.2,3.6,13.6c-0.1,0.6-0.2,2.1,0,2.6
		c0.3,0.6,1.1,0.5,1.8,0.9c4.2,2,7,4.4,9,7.9c2,3.5,3.2,6.8,3.4,10.8c0,1.2,0.1,2.3,0.5,3.4c0.3,0.7,0.8,1.3,1.3,1.9
		c3.8,2.2,6.8,5.6,9.4,10.8"/>
	<path class="st6" d="M197,146.8c-4.6-2.5-7.7-5.2-11.7-11.3c-2.9-4.5-4.5-9.7-5.6-15c-0.1-0.6-0.3-1.3-0.6-1.8
		c-0.3-0.5-0.9-0.8-1.4-1.1c-8-5.1-14.2-13-17.2-22.1c-0.5,9.1-4.2,18.8-10.2,24.9"/>
	<path class="st6" d="M84.8,121.1c-6.3-6.9-10-15.7-12.8-24.6c-0.3,4.8-1.7,9.7-4.5,13.7c-2.8,4-7,7-11.8,8
		c-1.1,9.1-8.4,18.4-25.1,19.4"/>
	<path class="st6" d="M39.3,100.1c2-7.2,9.2-12.6,12.2-13.1c-0.8-6.7,1.8-13.9,7.1-18.1c5.3-4.2,12.4-5.7,18.1-2.5
		c2.1-1.8,3.5-1.8,5.6-1.9"/>
	<path class="st6" d="M141.6,136.7c-15,4-30.9,3.1-46.3,0.8c-1.6-0.3-3.4-0.4-4.6,0.6c-0.9,0.8-1.1,2.1-1.3,3.3
		c-0.5,3.6-0.7,7.2-0.6,10.9c0,0.8,0.1,1.7,0.4,2.5c1.2,2.6,4.8,2.6,7.5,3.1c7,1.4,11.8,8.3,13,15.4c0.4,2.3,0.5,4.8,1.9,6.7
		c2.4,3.4,7.5,3.5,11.6,3c1.1-0.1,2.1-0.2,3.1-0.8c2.8-1.5,2.8-5.4,3.2-8.6c1-8.2,7.1-15.6,14.9-18.1c1.3-0.4,2.8-0.8,3.7-1.9
		c0.4-0.6,0.6-1.2,0.8-2c0.8-3.5,0.3-8.3-0.8-11.6C147.1,137.2,146,135.6,141.6,136.7z"/>
	<path class="st10" d="M148.3,142.8c-2.4,2-5.8,2.2-8.9,3c-3.7,0.9-7,2.9-9.6,5.8c-1.7,1.8-3,4.1-5.2,5.3c-1.5,0.9-3.3,1.1-5.1,1.2
		c-3.1,0.1-6.4-0.2-8.8-2.1c-2.4-2-3.6-5.3-6.2-6.9c-2.4-1.5-5.4-1.4-8.2-1.4s-5.5-0.4-7.2-2.7"/>
	<path class="st6" d="M148.5,153.7c10.5,3.7,18.6,13.5,20.3,24.5c1,6.6-0.1,13.6,2.3,19.8c2.2,5.6,6.9,9.9,10.2,14.9
		c3.9,5.9,5.8,12.9,5.5,20c-0.2,4.7-1.4,9.4-1.8,14.1c-0.4,4.8,0,9.8,2.8,13.7c2.7,3.9,7.8,7,7.3,11.7c-0.2,1.2-0.7,2.4-1.4,3.4
		c-2.4,3.5-6.6,5.7-10.8,5.7c-4.2,0-8.4-2.3-10.8-5.8c-2.9-4.4-2.9-10-4.5-15c-1.4-4.4-4-8.3-6.5-12.2c-5.5-8.5-11-17.5-11.5-27.6
		c-0.2-4.7,0.6-9.6-1.3-13.9c-1.8-4.2-5.7-6.9-9-10c-4.8-4.4-8.5-9.9-10.9-15.9"/>
	<path class="st6" d="M111.6,181.7c-0.9,5.6-5.2,9.9-9,14.1c-3.8,4.2-7.5,9.4-6.7,15c0.3,2,1.1,3.8,1.8,5.7
		c2.9,8.4,2.3,17.9-1.7,25.9c-2.4,4.8-6.1,9.7-4.8,14.9c0.4,1.5,1.2,2.9,1.5,4.4c0.9,5.3-5,9-9.9,11.3c-4.2,1.9-7.3,4.9-11.8,6
		c-2.5,0.7-5.2,0.8-7.7,0.1c-2.5-0.7-5.3-3.5-5.3-6.1c0.2-4.5,6.1-5.9,9.4-8.8c5.1-4.7,3.6-12.9,2.2-19.8c-1.6-7.6-2.4-15.6-0.1-23
		c0.8-2.8,2.1-5.5,2.3-8.4c0.2-2.7-0.6-5.3-1.1-8c-3.7-18.4,3.8-37.4,19.4-47.9"/>
	<path class="st10" d="M153.2,231.4c10.7,3.3,27.1-0.5,30.4-12.4"/>
	<path class="st25" d="M156,239.9c10.7,3.3,27.1-0.5,30.4-12.4"/>
	<path class="st10" d="M69.7,228c9.2,3.3,22.3,4.2,28.9-3.5"/>
	<path class="st25" d="M69.7,236.5c9.2,3.3,22.3,4.2,28.9-3.5"/>
	<path class="st6" d="M225.4,167.4c-4.8,13.8-10.3,21.6-16.2,20.4c-11.4-2.5-13.7-23.3-8.3-47.7c6.2-28.2,16.2-43,24.6-41.2
		c6.4,1.4,9.4,14.2,8.1,31.3"/>
	<path class="st6" d="M235.1,149.8c-2.2,10.3-5.7,18.1-9.3,17.4c-4.9-1-5.9-9.8-3.7-20.1c2.6-11.8,6.9-18.1,10.4-17.3
		S237.3,139.5,235.1,149.8z"/>
	<path class="st10" d="M212.7,186.7c-7.2-6.7-8.1-24.6-3.6-45.2c4.9-22.4,12.2-36.4,19.2-40.2"/>
	<g class="st3">
		<g>
			
				<ellipse id="XMLID_00000035512170180265652930000011673928177780478130_" transform="matrix(0.139 -0.9903 0.9903 0.139 -123.6762 144.1596)" class="st26" cx="21.1" cy="143.2" rx="4.6" ry="6.7"/>
		</g>
	</g>
	<path class="st6" d="M24.5,119.6c2.5,0,5.2-0.2,6.9-1.9c2.5,3.5,1.9,8.3,1.2,12.6c-0.2,1.4-0.5,2.8-1.1,4c-1,1.9-2.8,3.2-4.8,3.8
		s-4.1,0.7-6.2,0.4c-2-0.2-4.1-0.7-5.7-2c-2-1.6-3-4.2-3.1-6.8c-0.1-2.6,0.4-5.1,1-7.6c0.3-1.2,0.5-2.5,1.2-3.5
		c0.6-1.1,1.6-2,2.8-2.2C17.3,119.4,21.9,119.6,24.5,119.6z"/>
	<path class="st25" d="M19.8,125.6c3.8,1.1,9.1,1.4,11.8-1.8"/>
	<path class="st25" d="M19.7,130.5c3.8,1.1,9.1,1.4,11.8-1.8"/>
	<path class="st25" d="M47.7,107.8c1.1,0.8,1.4,0.9,2.6,3"/>
	<path class="st25" d="M59,85.1c2.4,0.7,4.3,2.5,5.4,4.7"/>
	<path class="st25" d="M76.9,68.8c-6.4,6.6-7.5,19.4-4.5,29.3"/>
	<path class="st25" d="M99.8,177c-2,2.3-3.6,4.9-4.9,7.6"/>
	<path class="st25" d="M72.4,211.6c1.6,3.4,4.2,3.4,7.2,3.6"/>
	<path class="st25" d="M159.9,214.5c3.5,1,7.6-0.5,9.7-3.5"/>
	<path class="st25" d="M141.5,178.6c2.3,2.5,4.4,5.1,6.3,8"/>
	<path class="st25" d="M189.4,109.8c-2.7,1.6-5.1,3.9-6.7,6.6"/>
	<path class="st25" d="M178,88.3c-2.8,0.4-5.5,1.9-7.3,4.2"/>
	<path class="st27" d="M155,65.5c-6,10.9-0.9,23.5,5.5,29.4"/>
	<path class="st25" d="M80.8,96.7c1,1.5,2,2.9,3,4.2c0.7,1,1.5,2,2.6,2.8c2.7,2,6.4,2,9.7,1.3"/>
	<path class="st25" d="M137.7,104.5c4.6-0.3,8.9-3.7,10.2-8.2"/>
	<path class="st25" d="M115.7,88.5c-1.1-11.8-0.1-17.6,2.9-19.6"/>
	<path class="st25" d="M115.5,88.3c-0.4-10.2-1.8-17.1-5-18.6"/>
	<path class="st10" d="M30.5,96.4l6.6-4.5c0,0,4.4-57.8,4.6-60.8s-8.3-17-11.5-17.2c-2.6-0.2-13.2,10.6-13.6,15.1
		c-0.7,8.3-4,61.3-4,61.3l5,5.5"/>
	<line class="st25" x1="30.3" y1="14.4" x2="24.8" y2="92.4"/>
	<circle class="st10" cx="24.2" cy="103.5" r="8.8"/>
	<circle class="st28" cx="24.2" cy="103.5" r="2.5"/>
	<path class="st10" d="M14.3,100.7c-3.2-0.4-6.6-1.1-9.2-3.1s-4.2-4.9-4.8-8.1c-2.4,0.1-2.7,5.5-2.8,8.4c-0.1,2.3,0.2,4.5,1.5,6.5
		c1.8,2.6,5.7,3.8,8.9,4.3c3.2,0.5,5.7,0.6,7.9,0.8"/>
	<path class="st10" d="M35.2,101.7c3.2,0.1,6.7-0.2,9.5-1.8c2.8-1.6,4.9-4.3,5.9-7.4c2.4,0.4,1.9,5.8,1.6,8.7
		c-0.2,2.3-0.8,4.5-2.3,6.2c-2.1,2.3-6.2,3-9.4,3c-3.2,0.1-5.8-0.1-7.9-0.3"/>
	<line class="st10" x1="18.1" y1="111.8" x2="17.8" y2="116.8"/>
	<line class="st10" x1="30.3" y1="111.8" x2="29.9" y2="117.2"/>
	<path class="st25" d="M99.7,11.5c7.3,4.3,16.2,5.2,24.7,5.8c5.4,0.4,10.8,0.6,16.2-0.2"/>
	<path class="st28" d="M118.8,17.9c-0.5,2.6-0.9,5.2-0.3,7.7c0.6,2.5,2.5,4.9,5.1,5.2c2.1,0.2,4.2-1,5.4-2.8c1.2-1.8,1.6-3.9,1.8-6
		c0.1-1.2,0-2.5-0.4-3.6L118.8,17.9z"/>
	<path class="st25" d="M111.6,20.9c-2.8,2.2-5.3,4.7-7.5,7.5"/>
	<path class="st25" d="M104.3,20.8c2.9,2.5,5.5,4.8,7.3,8.2"/>
	<path class="st25" d="M110.5,44.3c-0.3,2.8-0.2,6.7,0,9.4"/>
	<path class="st25" d="M119.3,45.5c-0.2,2.4-0.2,4.7-0.1,7.1"/>
	<path class="st6" d="M35.7,111.4c-1.4,0.8-1.9,1.7-3.6,3.4"/>
</g>
<g id="Layer_14">
	<g id="Layer_15">
		<path class="st5" d="M216.6,96.2c8.5,4,14.2,18.7,13.9,81c-0.3,55.9-4.2,69.7-8.7,77.5c-12,20.6-53.9,22.9-158.9,20.7
			c-30.7-0.6-44.6-1.9-49.1-8.1c-6.1-8.2-8.8-30.7-10-78.5c-1-39.1-0.4-60.7,6.5-73c8.4-15.2,76.8-24.5,90.4-25.8
			C115.6,88.6,201.5,89.1,216.6,96.2z"/>
		<path class="st5" d="M209.5,109.1c8.2,6.6,9,27.8,9,69.4c0,39.7-2.4,61.4-8.1,69.1c-6.5,8.7-13.9,13.4-59.4,15.8
			c-30.3,1.6-48.1,1.9-58.1-4.2c-10.8-6.6-11.9-27.1-12.9-82.3c-0.8-47.1,0-55.9,7.4-65.5c6.5-8.4,20-9,61.3-8.4
			C194,103.6,204.7,105.2,209.5,109.1z"/>
		<path class="st29" d="M75.2,94.3c-11,1.6-18.8,4.2-25.1,10.1c-3,2.8-5.2,6.4-6.8,10.2c-3.1,7.6-3.6,15.9-4,24.1
			c-1.3,29-1.7,58.2,0,87.2c1,17.2,2.8,28.6,5.3,33.1c1.6,2.7,3.8,5.1,6.3,7c6.8,5.5,14.2,8.4,25.5,8.7"/>
		<path class="st30" d="M93.2,124.4c-2.6,4.7-2.9,10.3-3.1,15.7c-0.7,19.3,0,34.6,0,53.9c0,12,0.7,25.9,2.3,37.8
			c1.6,11.9,6.9,15.7,11.3,17.4c9.5,3.8,47.3,1.6,53.6,1.3c37.5-1.9,44.9-9,45.2-47.1c0.1-16-0.7-59.7-2-65.7
			c-1.4-6-2.5-10.7-7.3-14.7c-5.9-4.8-12.3-6.1-20.3-6.8c-14.9-1.2-28.4-1.6-44.2-1.3C112.5,115.2,99.1,113.6,93.2,124.4z"/>
		<polygon class="st31" points="127.8,143.6 117.2,144 119.4,215 130.1,214.4 		"/>
		<polygon class="st31" points="169.2,142.4 158.5,142.7 160.8,213.7 171.4,213.1 		"/>
		<polygon class="st32" points="157.2,227.6 135.6,228.2 135.9,237.3 157.5,236.6 		"/>
		<path class="st29" d="M49.3,122.3c0,7.9-0.1,15.7-0.1,23.6"/>
		<path class="st29" d="M56.5,121c0,5,0.1,9.9,0.1,14.9"/>
		<path class="st29" d="M63.9,120.4c0,2.6,0,5.2,0,7.7"/>
		<path class="st29" d="M201.2,121.2c1.4-1.5,2.7-3.1,4-4.8"/>
		<path class="st29" d="M199.8,243.4c1.4,1.2,1.5,1.7,2.9,2.9"/>
	</g>
	<g id="Layer_16">
		<path class="st5" d="M85,65c4.9-11.2,9.5-23.5,13.4-37.5c25.4-4.8,50.6-8,77-11.2c2.2-0.3,3.8,1.9,2.9,3.9
			c-5.2,12.1-10.5,22.8-17.1,34.1c-1.3,2.2-3.4,3.6-5.9,4c-22.3,3.1-44.6,6.4-67,9.4c-3.3,0.5-6.2-2-6.4-5.3c-1-16-2.5-32-4.6-48
			c-0.3-2.2,1.1-4.2,3.2-4.7c5.6-1.5,11.2-2.3,17-3.4c5.3-1,5.7,3.3,5.8,4.5c16.5-3.2,32.2-5.3,48.9-7.3c2.3-0.3,4.6,0.4,5.3,2.7
			c1.1,3.4,1.3,6.3,1.8,10.3"/>
	</g>
</g>
</svg>
