<?xml version="1.0" encoding="utf-8"?>
<!-- Generator: Adobe Illustrator 27.7.0, SVG Export Plug-In . SVG Version: 6.00 Build 0)  -->
<svg version="1.1" id="Layer_1" xmlns="http://www.w3.org/2000/svg" xmlns:xlink="http://www.w3.org/1999/xlink" x="0px" y="0px"
	 viewBox="0 0 199.5 179.9" style="enable-background:new 0 0 199.5 179.9;" xml:space="preserve">
<style type="text/css">
	.st0{fill:#FFFFFF;stroke:#000000;stroke-width:7;stroke-linecap:round;stroke-linejoin:round;stroke-miterlimit:10;}
	.st1{fill:none;stroke:#000000;stroke-width:7;stroke-linecap:round;stroke-linejoin:round;stroke-miterlimit:10;}
	.st2{fill:none;stroke:#000000;stroke-width:6.9991;stroke-linecap:round;stroke-linejoin:round;stroke-miterlimit:9.9995;}
	.st3{stroke:#000000;stroke-width:3.517;stroke-linecap:round;stroke-linejoin:round;stroke-miterlimit:10;}
</style>
<g id="Illustration">
	<g>
		<g>
			<path id="XMLID_00000001630386699626138990000006594000924267428267_" class="st0" d="M71.1,150.9c-7.2,6.7-12,13.2-20.9,13.9
				c-6.8,0.6-8.8,0-15.6,1c-1.7,0.3-7.1,4-10,6c-3.4,2.4-11.3,9-18.8,0.2c-4.9-5.7-1-12.9,2.7-16.2c6.6-5.9,8.2-8.5,10.9-15.8
				c1.6-4.2,0.5-5.2,2.7-9.1c2.5-4.3,10-12,13.9-15.1"/>
		</g>
	</g>
	<g>
		<g>
			<path id="XMLID_00000155111931581208008370000005886672226985888921_" class="st1" d="M193.5,40.5l-123,110.7
				c-5.3,5.5-17.6,2.2-27.5-7.3c-9.8-9.5-13.5-21.6-8.3-27.1l123-110.7"/>
		</g>
	</g>
	<g>
		<g>
			
				<ellipse id="XMLID_00000062173956560616398320000003949754021253070506_" transform="matrix(0.6937 -0.7202 0.7202 0.6937 36.9771 133.6993)" class="st2" cx="175.7" cy="23.4" rx="13.8" ry="24.8"/>
		</g>
	</g>
	<path class="st3" d="M174.6,57.6c-5.3,5.5-17.6,2.2-27.5-7.3c-9.8-9.5-13.5-21.6-8.3-27.1L122.5,37c-5.3,5.5-1.6,17.6,8.3,27.1
		s22.2,12.8,27.5,7.3L174.6,57.6z"/>
	<path class="st3" d="M97.2,128c-5.3,5.5-16.3,2.7-26.1-6.8s-14-22.4-8.7-27.9l-12.8,11c-5.3,5.5-1.6,17.6,8.3,27.1
		s22.2,12.8,27.5,7.3L97.2,128z"/>
</g>
</svg>
