<?xml version="1.0" encoding="utf-8"?>
<!-- Generator: Adobe Illustrator 27.7.0, SVG Export Plug-In . SVG Version: 6.00 Build 0)  -->
<svg version="1.1" id="Layer_1" xmlns="http://www.w3.org/2000/svg" xmlns:xlink="http://www.w3.org/1999/xlink" x="0px" y="0px"
	 viewBox="0 0 259.3 213" style="enable-background:new 0 0 259.3 213;" xml:space="preserve">
<style type="text/css">
	.st0{display:none;}
	.st1{display:inline;fill:#FFFFFF;}
	.st2{display:inline;fill:none;stroke:#000000;stroke-width:7;stroke-linecap:round;stroke-linejoin:round;}
	.st3{display:inline;}
	
		.st4{fill:none;stroke:#000000;stroke-width:5;stroke-linecap:round;stroke-linejoin:round;stroke-miterlimit:10;stroke-dasharray:12.0086;}
	.st5{fill:none;stroke:#000000;stroke-width:7;stroke-linecap:round;stroke-linejoin:round;stroke-miterlimit:10;}
	.st6{display:inline;fill:none;stroke:#000000;stroke-width:7;stroke-linecap:round;stroke-linejoin:round;stroke-miterlimit:10;}
	.st7{display:inline;stroke:#000000;stroke-width:5;stroke-linecap:round;stroke-linejoin:round;stroke-miterlimit:10;}
	
		.st8{display:inline;fill:#FFFFFF;stroke:#000000;stroke-width:5;stroke-linecap:round;stroke-linejoin:round;stroke-miterlimit:10;}
	.st9{display:inline;fill:none;stroke:#000000;stroke-width:5;stroke-linecap:round;stroke-linejoin:round;stroke-miterlimit:10;}
	
		.st10{display:inline;fill:none;stroke:#000000;stroke-width:6;stroke-linecap:round;stroke-linejoin:round;stroke-miterlimit:10;stroke-dasharray:9.0067;}
	
		.st11{display:inline;fill:#FFFFFF;stroke:#000000;stroke-width:6.6669;stroke-linecap:round;stroke-linejoin:round;stroke-miterlimit:10;}
	.st12{display:inline;stroke:#000000;stroke-width:5.2082;stroke-linecap:round;stroke-linejoin:round;stroke-miterlimit:10;}
	
		.st13{display:inline;fill:none;stroke:#000000;stroke-width:5.2082;stroke-linecap:round;stroke-linejoin:round;stroke-miterlimit:10;}
	
		.st14{display:inline;fill:none;stroke:#000000;stroke-width:7.2914;stroke-linecap:round;stroke-linejoin:round;stroke-miterlimit:10;}
	
		.st15{display:inline;fill:#FFFFFF;stroke:#000000;stroke-width:7.2914;stroke-linecap:round;stroke-linejoin:round;stroke-miterlimit:10;}
	
		.st16{display:inline;fill:#FFFFFF;stroke:#000000;stroke-width:5.2082;stroke-linecap:round;stroke-linejoin:round;stroke-miterlimit:10;}
	.st17{fill:none;stroke:#FFFFFF;stroke-width:5.2082;stroke-linecap:round;stroke-linejoin:round;stroke-miterlimit:10;}
	.st18{fill:none;stroke:#FFFFFF;stroke-width:3.1249;stroke-linecap:round;stroke-linejoin:round;stroke-miterlimit:10;}
	
		.st19{display:inline;fill:#FFFFFF;stroke:#000000;stroke-width:7;stroke-linecap:round;stroke-linejoin:round;stroke-miterlimit:10;}
	
		.st20{display:inline;fill:#FFFFFF;stroke:#000000;stroke-width:4.9993;stroke-linecap:round;stroke-linejoin:round;stroke-miterlimit:9.9992;}
	
		.st21{display:inline;fill:#FFFFFF;stroke:#000000;stroke-width:6.8393;stroke-linecap:round;stroke-linejoin:round;stroke-miterlimit:10;}
	.st22{display:inline;fill:none;stroke:#000000;stroke-width:7;stroke-miterlimit:10;}
	.st23{display:inline;fill:none;stroke:#000000;stroke-width:7.0002;stroke-miterlimit:10.0002;}
	.st24{display:inline;stroke:#000000;stroke-width:0.5798;stroke-miterlimit:10.0002;}
	.st25{display:inline;stroke:#000000;stroke-width:0.6254;stroke-miterlimit:10.0002;}
	.st26{display:inline;fill:none;stroke:#000000;stroke-width:3;stroke-linecap:round;stroke-linejoin:round;stroke-miterlimit:10;}
	.st27{fill:none;stroke:#000000;stroke-width:5.0002;stroke-linecap:round;stroke-linejoin:round;stroke-miterlimit:10.0005;}
	
		.st28{display:inline;fill:none;stroke:#000000;stroke-width:2.5869;stroke-linecap:round;stroke-linejoin:round;stroke-miterlimit:10;}
	.st29{display:inline;stroke:#000000;stroke-width:3;stroke-linecap:round;stroke-linejoin:round;stroke-miterlimit:10;}
	.st30{fill:none;stroke:#000000;stroke-width:5;stroke-linecap:round;stroke-linejoin:round;stroke-miterlimit:10;}
	.st31{stroke:#000000;stroke-width:5;stroke-linecap:round;stroke-linejoin:round;stroke-miterlimit:10;}
	.st32{fill:none;stroke:#FFFFFF;stroke-width:5;stroke-linecap:round;stroke-linejoin:round;stroke-miterlimit:10;}
	.st33{fill:none;stroke:#FFFFFF;stroke-width:4.2881;stroke-linecap:round;stroke-linejoin:round;stroke-miterlimit:10;}
	.st34{display:inline;fill:none;stroke:#000000;stroke-width:15;stroke-linecap:round;stroke-linejoin:round;stroke-miterlimit:10;}
	.st35{fill:#FFFFFF;stroke:#000000;stroke-width:7;stroke-linecap:round;stroke-linejoin:round;stroke-miterlimit:10;}
	.st36{fill:none;stroke:#000000;stroke-width:6.9991;stroke-linecap:round;stroke-linejoin:round;stroke-miterlimit:9.9995;}
	.st37{display:inline;stroke:#000000;stroke-width:3.517;stroke-linecap:round;stroke-linejoin:round;stroke-miterlimit:10;}
	.st38{display:inline;fill:none;stroke:#000000;stroke-width:20;stroke-linecap:round;stroke-linejoin:round;stroke-miterlimit:10;}
	
		.st39{display:inline;fill:none;stroke:#000000;stroke-width:21.283;stroke-linecap:round;stroke-linejoin:round;stroke-miterlimit:10;}
	
		.st40{display:inline;fill:none;stroke:#000000;stroke-width:20.5052;stroke-linecap:round;stroke-linejoin:round;stroke-miterlimit:10;}
	
		.st41{display:inline;fill:none;stroke:#000000;stroke-width:7.449;stroke-linecap:round;stroke-linejoin:round;stroke-miterlimit:10;}
	.st42{display:inline;stroke:#000000;stroke-width:7;stroke-linecap:round;stroke-linejoin:round;stroke-miterlimit:10;}
	.st43{fill:#FFFFFF;stroke:#000000;stroke-width:5;stroke-linecap:round;stroke-linejoin:round;stroke-miterlimit:10;}
	.st44{fill:none;stroke:#000000;stroke-width:3.5318;stroke-linecap:round;stroke-linejoin:round;stroke-miterlimit:9.9995;}
	.st45{stroke:#000000;stroke-width:1.7747;stroke-linecap:round;stroke-linejoin:round;stroke-miterlimit:10;}
	.st46{fill:none;stroke:#000000;stroke-width:3.5327;stroke-linecap:round;stroke-linejoin:round;stroke-miterlimit:10.0015;}
	.st47{fill:none;stroke:#000000;stroke-width:3.5323;stroke-linecap:round;stroke-linejoin:round;stroke-miterlimit:10.0008;}
	.st48{fill:none;stroke:#000000;stroke-width:3.5324;stroke-linecap:round;stroke-linejoin:round;stroke-miterlimit:10.0012;}
	.st49{fill:none;stroke:#000000;stroke-width:3.5319;stroke-linecap:round;stroke-linejoin:round;stroke-miterlimit:9.9993;}
	.st50{fill:none;stroke:#000000;stroke-width:3.5321;stroke-linecap:round;stroke-linejoin:round;stroke-miterlimit:10.0005;}
	.st51{fill:none;stroke:#000000;stroke-width:3.5322;stroke-linecap:round;stroke-linejoin:round;stroke-miterlimit:10.0007;}
	.st52{fill:none;stroke:#000000;stroke-width:3.5324;stroke-linecap:round;stroke-linejoin:round;stroke-miterlimit:10.001;}
	.st53{fill:none;stroke:#000000;stroke-width:3.5322;stroke-linecap:round;stroke-linejoin:round;stroke-miterlimit:10.0002;}
	.st54{fill:none;stroke:#000000;stroke-width:3.5321;stroke-linecap:round;stroke-linejoin:round;stroke-miterlimit:10.0002;}
	.st55{fill:#FFFFFF;}
	.st56{display:inline;stroke:#000000;stroke-width:3.0358;stroke-linecap:round;stroke-linejoin:round;stroke-miterlimit:10;}
	.st57{stroke:#000000;stroke-width:7;stroke-linecap:round;stroke-linejoin:round;stroke-miterlimit:10;}
	.st58{display:inline;stroke:#000000;stroke-width:5.3859;stroke-linecap:round;stroke-linejoin:round;stroke-miterlimit:10;}
	
		.st59{display:inline;fill:none;stroke:#000000;stroke-width:5.3859;stroke-linecap:round;stroke-linejoin:round;stroke-miterlimit:10;}
	.st60{fill:#FFFFFF;stroke:#000000;stroke-width:5;stroke-linecap:round;stroke-linejoin:round;stroke-miterlimit:10.0006;}
	.st61{stroke:#000000;stroke-width:1.9373;stroke-linecap:round;stroke-linejoin:round;stroke-miterlimit:10;}
	.st62{fill:#FFFFFF;stroke:#000000;stroke-width:5.0001;stroke-linecap:round;stroke-linejoin:round;stroke-miterlimit:10.0007;}
	.st63{fill:#FFFFFF;stroke:#000000;stroke-width:4.9997;stroke-linecap:round;stroke-linejoin:round;stroke-miterlimit:10;}
	.st64{display:inline;stroke:#000000;stroke-width:5.9995;stroke-linecap:round;stroke-linejoin:round;stroke-miterlimit:9.9991;}
	.st65{display:inline;fill:none;stroke:#000000;stroke-width:6;stroke-linecap:round;stroke-linejoin:round;}
	.st66{display:inline;fill:none;stroke:#000000;stroke-width:5;stroke-linecap:round;stroke-linejoin:round;}
	.st67{display:inline;fill:none;stroke:#000000;stroke-width:2;stroke-linecap:round;stroke-linejoin:round;stroke-miterlimit:10;}
	.st68{fill:none;stroke:#000000;stroke-width:6.9993;stroke-linecap:round;stroke-linejoin:round;stroke-miterlimit:9.9998;}
	.st69{stroke:#000000;stroke-width:3.517;stroke-linecap:round;stroke-linejoin:round;stroke-miterlimit:10;}
	.st70{fill:none;stroke:#000000;stroke-width:30;stroke-linecap:round;stroke-linejoin:round;stroke-miterlimit:10;}
	.st71{fill:none;stroke:#000000;stroke-width:20;stroke-linecap:round;stroke-linejoin:round;stroke-miterlimit:10;}
	
		.st72{display:inline;fill:none;stroke:#000000;stroke-width:20.7778;stroke-linecap:round;stroke-linejoin:round;stroke-miterlimit:10;}
	.st73{fill:none;stroke:#000000;stroke-width:2.4661;stroke-linecap:round;stroke-linejoin:round;stroke-miterlimit:10;}
	.st74{fill:none;stroke:#000000;stroke-width:9;stroke-linecap:round;stroke-linejoin:round;stroke-miterlimit:10;}
	.st75{fill:none;stroke:#FFFFFF;stroke-width:9;stroke-linecap:round;stroke-linejoin:round;stroke-miterlimit:10;}
	.st76{fill:none;stroke:#FFFFFF;stroke-width:7;stroke-linecap:round;stroke-linejoin:round;stroke-miterlimit:10;}
</style>
<g id="Decorative">
	<g id="Pointing_Hand" class="st0">
		<path class="st1" d="M32.1,2.5C20.6,15,10,69.6,33.4,101.5c13.2,17.9,38.4,14.8,43.9,15.9c5.1,3.9,38.5,52.9,52.4,66.6
			c10.1,10,31.3,20.6,40.1,13.4c9.3-7.7,6.2-19.9-1.3-29.4c-7.4-9.5-20.7-21.5-25-26.9c-4.3-5.5-18.7-22.2-19.9-24.9
			c4.5-2,12.8,0.1,17.8-4.3c4.4-4,4.3-12.4,7.4-16.3c2.4-3,10.5,3.1,19.1-1.6c6.3-3.5,5.4-15,7-16.2c3.7-2.9,11.6,3.6,18.7-4.9
			c12-14.3-8.9-38.5-15.6-45.1c-6.7-6.6-38.6-40.2-48.2-46.7c-11.4-7.6-29.5-15.9-48.7-8C70.3-22.7,42.2-8.3,32.1,2.5z"/>
		<path class="st2" d="M63.4,31.8c7.1,13.6,7.6,30.5,1.1,44.4c10.1-1.8,20.6-0.6,30.1,3.2c5.6,2.3,11.2,6,12.9,11.7
			c2.4,8.1-4,16.4-11.4,20.5c-13.4,7.6-30.3,6.7-44.9,1.6c-5.2-1.8-10.4-4.2-14.5-8c-5.5-4.9-8.7-12-11.1-19.1
			c-5.8-17.5-7.3-36.3-4.4-54.5c1.6-10,4.6-19.9,10.6-28s32.4-27,56.6-32.3c27.6-5,44.9,6.8,88.9,56.6"/>
		<path class="st2" d="M122.7,115.4c12.2,19.6,31.3,33.8,45.1,52.2c3.1,4.1,6.1,8.6,7.2,13.7c1.2,5.1,0.3,10.8-3.4,14.6
			c-5.9,5.9-15.9,4.2-23.4,0.4c-14.9-7.4-26.1-20.7-36.4-33.7c-11.3-14.3-22.2-29-32.7-44"/>
		<path class="st2" d="M106.8,100.9c3.2,4.8,6.5,8.6,11.4,11.6s11,4.6,16.6,2.9c9.3-2.8,14.2-13.8,13-23.3
			c-1.1-9.6-6.8-18.1-13.1-25.4c-5-6-10.8-11.9-18.2-14.6c-7.4-2.7-16.8-1.4-21.5,4.9c-4.8,6.5-3.2,15.9,1,22.9"/>
		<path class="st2" d="M148,92.3c5.5,3.5,12.7,5.6,18.4,2.5c6.1-3.3,8.1-11.3,7.5-18.1c-1.5-15.3-13.2-28.3-26.9-35.3
			c-5.7-3-12.3-5-18.5-3.5c-6.2,1.6-11.5,8.1-9.7,14.3"/>
		<path class="st2" d="M173.8,75.9c5.5,3.5,9.7,4.2,15.5,1c6.1-3.3,8.1-11.3,7.5-18.1c-1.5-15.3-13.2-28.3-26.9-35.3
			c-5.7-3-12.3-5-18.5-3.5c-6.2,1.6-12.1,9.4-9.5,16.6"/>
	</g>
	<g id="Newsletter" class="st0">
		<g id="dotted_line" class="st3">
			<path class="st4" d="M35.8,97.4c-25.3,32.7-13.4,79.6,31.9,77.4c61.1-10.7,20.4-71.4,79.7-111.7c40-30.7,85.1-7.2,85.3,21
				c0.5,56.6-77.8,29.3-80,77.9c-0.8,16.6,1.5,26,9.7,36.2"/>
		</g>
		<g id="plane" class="st3">
			<polyline class="st5" points="166.1,-36.6 43.7,123 48.5,71.3 172.5,-43 97.9,72.6 81.3,75.7 			"/>
			<path class="st5" d="M50.8,41.7L172.5-43l-111,53.2L50.8,41.7c0,0,18.9,8,19.6,8.3"/>
		</g>
	</g>
	<g id="LinkedIn_NOT" class="st0">
		<path class="st6" d="M3,30.2c28.6,50.6,59.6,136.7,69.4,175.4c51.2-9.7,76.6-16.8,127.3-37.1c10.8-3.8,31.5-45.3,31.1-55.7
			c-9-37.2-39.8-118.5-59.1-153C119.1-12.9,56.6,12.6,3,30.2z"/>
		<path class="st6" d="M198.1,168.8c7.7-3.9-7.1-35.3-1.4-42.7c4.7-4.5,29.5-2.6,33.2-12.9"/>
		<path class="st7" d="M69.6,75.8c3.5,8.9,18.7,49.7,22.9,66.3c6.9-0.3,16.2-3.9,20.4-6.2c-4-15-15-49.6-22-66.7
			C87.2,68.4,74.7,72.7,69.6,75.8z"/>
		<path class="st7" d="M102.7,65.2c7.7,19.5,18.6,51.8,22.9,66.3c6.9-0.3,16.2-3.9,20.4-6.2c-2.2-10.2-15-49.6-22-66.7
			C120.2,57.8,107.7,62.1,102.7,65.2z"/>
		<path class="st7" d="M126,66.6c1-2.8,1.2-11.6,17.5-17.8c31.1-11.7,36.1,28.6,47.5,61.6c-6.6,4.3-17.9,7.2-20.7,7.3
			c-3.9-14.2-8.3-28.1-11-34.7c-6-14.3-10.6-15.5-15.9-14c-6,1.8-10.8,7.3-10.5,12.7C132.2,86.7,126,66.6,126,66.6z"/>
		<path class="st7" d="M84.1,46.6c2.3,6.3,0.2,13-7.3,15.6c-6.3,2.2-13.5-0.8-15.7-7.1c-2.5-7.1,0.5-13.1,8-15.8
			C75.5,37,81.8,40.4,84.1,46.6z"/>
	</g>
	<g id="LinkedIn_00000150104747717848862800000002388172020763015823_" class="st0">
		<path class="st6" d="M7.9,56.7c61.5,72.4,86.5,108.7,95.6,182.7c6.6-4.6,14.6-9.9,22.3-16c0.7-8.5-0.8-17.3-5.4-33.5
			c1.2-1,13-11.5,17-14.5c6,14.3,6.3,25.5,7,35.6c5.8-4.6,14.7-11.2,20.7-16.2c0.8-10.8-2.2-21.7-7.7-35.5
			c3.4-2.9,17.3-14.6,20.7-17.6c6.7,13.5,6.6,25.6,7.8,34.5c8.3-7.4,17.5-14.8,22.2-20.5c-1.6-9.3-2.5-21.4-8.9-32.9
			c3.8-3.4,17.1-16.4,20.4-19.4c7.4,14.2,6.4,26.2,8.5,33.7c10.5-10,16.9-14.7,21-19.8c-0.2-22.1-32.2-97-119.7-181.6
			C74.7-22.5,42.6,15.1,7.9,56.7z"/>
		<path class="st7" d="M69.2,76.9c9.7,10.9,28.2,39.3,38.2,60.8c5.9-2.7,13-9.8,16-13.7c-6.3-14.8-25-46.9-37.6-61.5
			C82.4,63,72.7,71.9,69.2,76.9z"/>
		<path class="st7" d="M94.9,54c14.2,17,31,44.8,38.2,60.8c5.9-2.7,13-9.8,16-13.7c-4.6-11.9-26-47.1-37.6-61.5
			C108,40.1,98.4,49.1,94.9,54z"/>
		<path class="st7" d="M115.4,47.2c0.1-3.2-1-12,13.4-25c25.2-20,50.3,28.9,57.6,45.8c-4.5,6.8-13.6,13.8-15.9,15
			c-7.1-14.9-13.7-25.6-18-31.4c-9.1-12.8-17.2-11.7-21.4-8.2c-4.7,4-7.3,11.5-5.6,17C126.4,65.9,115.4,47.2,115.4,47.2z"/>
		<path class="st7" d="M73.7,41.4c3.7,5.7,3.7,13.4-2,18.8c-4.9,4.6-11.9,4-15.6-1.8c-4.1-6.5-3.3-13.8,2.5-19.3
			C63.6,34.6,69.9,35.7,73.7,41.4z"/>
		<line class="st6" x1="75.9" y1="3.3" x2="55.8" y2="5.9"/>
		<path class="st8" d="M52.5-3.8c4.4-1.6,8.6,0.6,10.5,7.5c1.6,5.7-0.8,10.9-5.4,12.2c-4,1.2-7.9-1.4-9.3-6.8
			C46.9,3.5,47.5-2.1,52.5-3.8z"/>
		<path class="st9" d="M80.4-8.3c-3.1,7-1.9,15.7,2.8,21.7"/>
		<path class="st9" d="M77.6,5c-2.7,1.7-4.4,5.1-4.1,8.2"/>
		<path class="st9" d="M76.2,0.3c-1.9-0.7-3.4-2.3-4.1-4.1"/>
		<path class="st10" d="M94.8,187.1c18.3-13.2,47.5-37.7,71.5-58.1c24.1-20.4,51.2-44.6,67.8-61.4"/>
	</g>
	<g id="Cara" class="st0">
		<path class="st11" d="M121.5,81.1c19.8-2.2,85.1-60.1,41.7-111.6C134.8-64,83.7-36,60.6-7.7c-21.1,25.7-46,69.6-3.1,137.9
			c62.5,99.4,217.4,16.9,185.2-58.9c-19.7-46.1-77.1-22.9-86.4-13.8"/>
	</g>
	<g id="instagram_NOT" class="st0">
		<path class="st12" d="M120.1-39.9c-1.3-2.1-2.2-3.9,0.6-7.9c3.3-4.9,22.1-20.2,29.5-20c7.3,0.3,22.1,19,22.5,26.2
			s-12.2,14.4-12.2,14.4L120.1-39.9z"/>
		<path class="st1" d="M189,24.8c-11-12.3-20.1-22.2-24.4-27.5c-3-3.5-10.7-10.6-6.9-19.1c3.9-8.5,6.2-13.9,6.9-18.3
			c0.6-3.7-9.8-17-14-18.7C146-60.6,127-45.4,124.3-43c-2.6,2.4-2,3.3-4.7,6.3c-4.4,4.8-5.2-1.7-22.5,8.3
			c-6.9,4-62.1,42.6-68.9,49.3c-10.1,9.8-17.6,18.7-17.6,28.6"/>
		<path class="st1" d="M169,0.6c5.1-0.5,30.5-0.4,33.5,3.4s21.9,29.2,19.2,35.9c-3.3,7.7-41,68.9-45.9,72.4
			c-5,3.6-104.5,58.9-106.8,58.4c-4.2-0.9-13.2-7.7-19.1-13.7c-6-5.9-16.6-19.4-16.1-22.2c0.6-3.7,15-33.4,15-33.4
			C43,94,18.2,62.9,13.9,56.9C7.7,48.2,14.1,40.7,31,27.7s60-43,71.3-49.5s21.8-8.4,31.9,2.4c10.4,11.1,38.5,47.4,46,57.3"/>
		<path class="st13" d="M189,24.8c-11-12.3-20.1-22.2-24.4-27.5c-3-3.5-10.7-10.6-6.9-19.1c3.9-8.5,6.2-13.9,6.9-18.3
			c0.6-3.7-9.8-17-14-18.7c-4.6-1.8-21.7,11.7-24.4,14.1c-1.4,1.3-4.1,4.6-5,6.1c-2.8,4.4-3.1-0.4-14,4.6c-2.6,1.2-5.8,2.9-10,5.5
			c-6.8,4.2-62.1,42.6-68.9,49.3c-10.2,9.9-17.7,18.8-17.7,28.7"/>
		<path class="st14" d="M169,0.6c5.1-0.5,30.5-0.4,33.5,3.4s21.9,29.2,19.2,35.9c-3.3,7.7-41,68.9-45.9,72.4
			c-5,3.6-104.5,58.9-106.8,58.4c-4.2-0.9-13.2-7.7-19.1-13.7c-6-5.9-16.6-19.4-16.1-22.2c0.6-3.7,15-33.4,15-33.4
			C43,94,18.2,62.9,13.9,56.9C7.7,48.2,14.1,40.7,31,27.7s60-43,71.3-49.5s21.8-8.4,31.9,2.4c10.4,11.1,38.5,47.4,46,57.3"/>
		<path class="st14" d="M202.6,3.9c-5.5,11.8-41.8,65.7-45.9,69.6C152.6,77.4,42,140.7,39,142.3"/>
		<path class="st14" d="M33.7,134.8C36.4,133,141,72.5,148.9,65.6c3.6-3.2,19.7-31.6,22.7-37.5"/>
		<path class="st14" d="M148.9,65.6c4.2,3.2,28.8,35,27.7,44.3"/>
		<line class="st14" x1="48.2" y1="102.8" x2="169" y2="27.3"/>
		<path class="st15" d="M70.3,142c-10,20.5-1.6,68.5,18.9,93c23.6-13.4,66.5-37.5,94.1-52.9c-33.2-38.7-30.4-70.2-27.9-83.5"/>
		<path class="st12" d="M83.1,134.1c-7.1,13.8-9.3,42.8,4.8,72.2c19.8-11.4,45.6-25.9,68.4-38.7c-14.1-22.9-18.3-49.3-12.1-68.4"/>
		<polyline class="st14" points="65.6,153.6 60.2,147.2 154.1,92.8 161.4,103.2 155.1,107.2 		"/>
		<polygon class="st13" points="94.8,-2.1 110.9,16.8 133.3,3.5 117,-15.9 		"/>
		<polyline class="st13" points="127.3,-2.1 113.5,6.3 102.7,-6.3 		"/>
		<path class="st13" d="M50,78.7c0.9-1.9,1.9-3.4,3.2-4.4c2-1.7,4.7-1.6,6.9,0.5c1.8,1.6,3,3.8,0.9,7c-0.4,0.6-0.9,1.6-2.5,3.2"/>
		<path class="st13" d="M58.3,77.8c2.1,2.2,2.4,5.3,0.2,7.1c-2.6,2.3-5.6,1.9-7.7-0.4c-2.1-2.2-1.6-5.4,0.4-7.3
			C53.2,75.4,56.2,75.6,58.3,77.8z"/>
		<path class="st12" d="M118.8,31.1c1.3-2.8,2.9-4.9,4.7-6.4c2.8-2.4,6.7-2.3,10,0.7c2.7,2.4,4.4,5.6,1.3,10.3
			c-0.6,0.9-1.4,2.3-3.7,4.6"/>
		<path class="st16" d="M130.7,29.8c3,3.3,3.4,7.7,0.3,10.5c-3.8,3.3-8.2,2.7-11.2-0.5c-3-3.3-2.4-8,0.6-10.7S127.7,26.5,130.7,29.8
			z"/>
		<path class="st14" d="M94.1,59.3c7-9,11.9-15,13.3-20.7c2.1-8.6-1-16-6.7-22.1c-9.6-10.4-23.1-13-35.5-2.3
			c-5.7,4.9-12.3,12.6-14.7,19.1"/>
		<path class="st14" d="M94,27.5c10,12.7,6.8,26.8-3.9,35.6c-12.1,9.8-27.3,4.9-36-6.2S47.7,31.5,58.6,23S85.3,16.5,94,27.5z"/>
		<path class="st12" d="M98.4,36.1c0.5,5.3-1.8,10.2-6.1,13.6C84.6,56,74.7,52.5,68.8,45s-4.5-16.8,2.4-22.2c3.8-3,8.6-3.8,13.2-2.8
			"/>
		<polyline class="st13" points="84.8,67.2 91.6,75.8 79.1,107.1 		"/>
		<polyline class="st13" points="103.9,52 112.8,63 113,86.7 		"/>
		<polyline class="st13" points="92.6,64.3 98.4,71.7 91.4,99.8 		"/>
		<polyline class="st13" points="98.8,59.1 105.4,67.5 102.8,92.5 		"/>
		<line class="st13" x1="147.4" y1="-50.4" x2="138.3" y2="-29.9"/>
		<line class="st13" x1="110.9" y1="16.8" x2="113.5" y2="6.3"/>
		<path class="st13" d="M109.2-34.8c5.4-2.2,14.4-2.2,18.8,0.7"/>
		<g id="Layer_7" class="st3">
			<path class="st17" d="M96.6,169.1c-2.2,0.2-4-1.2-5.4-2.9c-2.4-2.9-3.5-6.9-3.1-10.7c0.5-4.1,2.6-7.8,5.2-11.1
				c2.9-3.7,6.5-7.1,10.8-9.1c4.4-2,9.4-2.5,13.8-0.5c2.2,0.9,4.1,2.5,5.7,4.3c1.3,1.4,2.5,2.9,3.1,4.6c1.2,3.1,0.4,6.7-1.2,9.6
				c-1.6,2.9-4.1,5.2-6.8,7.3c-0.7,0.6-1.6,1.2-1.7,2.2c-0.1,0.5,0.1,1.1,0.1,1.5c0.5,2,1.2,4.1,2,6c0.6,0.9,0.3,1.8-0.4,2.4
				c-1.9,2.5-8.9,5.9-13.8,8.2C97.7,184.5,99.1,179.4,96.6,169.1z"/>
			<path class="st18" d="M97.8,158.2c1-3.9,1.6-5.2,3.9-8.5"/>
			<path class="st18" d="M95.8,152.7c3.2,1.1,4.4,1,7.2,3"/>
			<path class="st18" d="M110.1,152.5c1-3.9,1.6-5.2,3.9-8.5"/>
			<path class="st18" d="M108.1,146.9c3.2,1.1,4.4,1,7.2,3"/>
			<path class="st18" d="M110.5,167c0.7,3.1,1.7,6.2,2.9,9.1"/>
			<path class="st18" d="M104.3,169.7c0.6,3.1,1.5,6.1,2.7,9.2"/>
		</g>
	</g>
	<g id="Instagram" class="st0">
		<polygon class="st6" points="-15.3,88.6 58,185.5 244.2,120.8 165.9,20.3 		"/>
		<polyline class="st6" points="-15.3,88.6 13.7,43 184,-24.6 257.3,72.3 244.2,120.8 		"/>
		<line class="st6" x1="165.9" y1="20.3" x2="183.2" y2="-19.6"/>
		<path class="st8" d="M152.1-4.1c2.2,3.8-3.6,10.1-11.8,13.6s-15.8,4.2-17.9-1.1c-1.7-4.1,3.6-10.1,11.8-13.6
			C142.5-8.5,149.1-9.1,152.1-4.1z"/>
		<path class="st9" d="M122.5,8.5c0.9,2.1,5.5,8.6,5.5,8.6c2.9,3.2,8.5,1.9,16.7-1.5c8.2-3.5,13.5-9.5,11.8-13.6
			c-1.1-2.4-3.4-5.6-4.5-6.6"/>
		<path class="st8" d="M31.6,45.4c1.8,2.7-1.5,7.2-6.7,9.7c-5.1,2.6-10,3.2-11.8-0.6c-1.4-2.9,1.5-7.2,6.7-9.7
			C24.8,42.3,29.2,41.8,31.6,45.4z"/>
		<path class="st9" d="M13,54.6c0.7,1.5,4.3,6.2,4.3,6.2c2.1,2.3,5.7,1.3,10.8-1.3s8.2-7,6.7-9.7c-0.9-1.7-2.7-3.9-3.5-4.7"/>
		<polygon class="st9" points="189.1,-2.4 178.9,22.4 184.5,29.8 194.4,4.5 		"/>
		<polygon class="st9" points="136.2,46.8 163.1,36.4 176.8,54.6 149.8,65.4 		"/>
		<path class="st19" d="M36.8,112.8c6.6-11.6,16.3-27.7,23.4-34.7c18.9-18.8,52.7-17.3,74.6,5.4c16.9,17.4,23.1,42.3,13.9,60.6
			c-3.5,6.9-18.9,29.8-31.1,40.6"/>
		<path class="st19" d="M113.8,102.9c23.9,18.6,29.4,51.5,12.3,73.5c-17.1,22.1-48.3,20.5-72.1,1.9c-23.9-18.6-31.5-47.1-14.4-69.2
			C56.7,87.2,89.9,84.3,113.8,102.9z"/>
		<path class="st3" d="M127.2,151.9c-1.2,4.6-3.4,9-6.4,12.9c-13.4,17.2-37.1,15-55.8,0.5s-25.1-35.8-11.8-53
			c5-6.5,11.8-10.8,19.3-13c0,0,19.8-4.2,37.6,11.8C132.3,131,127.2,151.9,127.2,151.9z"/>
		<path class="st6" d="M109,109.2c20.1,15.7,24.7,43.4,10.3,62s-40.3,16.5-60.4,0.9S32,133,46.5,114.5
			C60.8,95.9,88.9,93.6,109,109.2z"/>
		
			<ellipse transform="matrix(0.7975 -0.6033 0.6033 0.7975 -25.6908 151.4163)" class="st20" cx="212.7" cy="114" rx="5.3" ry="6.5"/>
		<ellipse transform="matrix(0.7975 -0.6033 0.6033 0.7975 -57.5736 23.3969)" class="st20" cx="6.1" cy="97.5" rx="4.1" ry="5.2"/>
		<path class="st21" d="M92.3,105.6c10.8,3.7,31.6,24.7,32,41.8C95,116.7,84,115.1,75,109.3C76.3,107.1,89.1,105.1,92.3,105.6z"/>
	</g>
	<g id="Prints" class="st0">
		<path class="st6" d="M99.4-41.4c26.1,31,76.5,86.4,145.1,140.1c-47.6,44.7-65.6,64.6-102.2,110.4C111.8,190.3,47,129-0.2,68.9
			C30.5,29.1,58.4-5.8,99.4-41.4z"/>
		<path class="st3" d="M61.3,71.7c-1.7,0.7-2.9,3.1-1.9,4.8c1.5,2.7,1.3,6-1.7,7.6c-2.8,1.4-6.3-0.1-8.3-2.2
			c-2.7-2.7-4.5-7-5.2-10.7c-0.3-1.9,0-6.8,3.1-5c1.7,0.9,4.1-0.4,4.7-2.1c0.8-2.1-0.3-3.8-2.1-4.7c-6.2-3.4-12.5,2.4-13.2,8.5
			c-0.7,6.6,2.9,14.8,7.6,19.3c4.4,4.3,11.3,6.4,16.9,3.4c6-3.3,8.3-10.9,5-16.8C65.1,72,63.3,70.9,61.3,71.7z"/>
		<path class="st3" d="M72.3,43.8c-3.5-2.1-7.5-2.7-11.5-3c-1-0.1-1.9,0.3-2.6,0.8c-2.5,1-4.2,3.6-4.5,6.5c-0.4,3.6,1,7,2.7,10
			c3.7,6.4,9.5,13.5,17.9,11.9c8.5-1.6,10.2-10.9,6.2-17.5C78.5,49,75.7,45.8,72.3,43.8z M61.1,48.6C60.8,47.9,61.8,48.6,61.1,48.6
			L61.1,48.6z M74.3,62.3c-3.6,2.4-7.5-2.1-9.4-4.6c-1.2-1.6-2.2-3.3-3-5.1c-0.4-0.9-0.7-1.9-0.8-2.9c0-0.2,0.1-1,0-1.1l0,0
			c0.6,0.1,1.2,0,1.6-0.3c3.3,0.5,6.3,1.5,8.8,4.3C73.2,54.4,77.9,59.9,74.3,62.3z"/>
		<path class="st3" d="M81.2,20.5C81.2,20.5,81.2,20.4,81.2,20.5c-3.7-2-7.3,1.7-8.6,4.8c-1.4,3.1-1.3,6.8-0.3,10.1
			c1.3,4,4.1,7.5,7.1,10.5c3,2.9,6.2,4.2,10.3,3.9c3.9-0.2,6.9-1.5,8.6-5.3c1.5-3.4,1.4-7.7-0.1-11.1C95.4,27.3,88.1,21.8,81.2,20.5
			z M92,38.8c0.1,0.8-0.1,1.6-0.3,2.4c-0.3,1.2-0.1,1-1.1,1.2c-2,0.3-3.7,0.4-5.2-0.9c-1.8-1.4-3.3-3.3-4.6-5.3
			c-1-1.6-1.9-3.5-2-5.5c0-0.9,0.1-1.7,0.5-2.5c0-0.1,0.2-0.4,0.4-0.6c3.5,0.6,6.7,3,9.2,5.5C90.5,34.7,91.9,36.6,92,38.8z"/>
		<path class="st3" d="M114.9,16.6c-1.6,2.6-3.3,5-5.2,7.3c-0.1,0.1-0.2,0.2-0.4,0.4l-0.1-0.1c-1.1-0.9-2.2-1.8-3.2-2.7
			c-4.4-4.2-8.5-8.8-12.8-13.1c-1.4-1.5-3.5-1.9-5.1-0.6c-1.4,1.1-2,3.7-0.6,5.1c5.5,5.6,10.8,12.1,17,17c3,2.3,6.4,3.4,9.4,0.3
			c2.5-2.8,4.8-5.9,6.8-9.2C123.3,17,117.4,12.6,114.9,16.6z"/>
		<path class="st3" d="M109.8,107.6C101,100.4,91.3,94.3,81,89.3c-1.6-0.8-3.2,0-4.3,1.1c-4.8,4.5,0.7,12.7,3.1,17.1
			c3.6,6.6,7.6,12.9,12.4,18.9c2.9,3.7,8.8-0.6,5.9-4.3c-1.8-2.2-3.4-4.5-5-6.8c1.2-2.7,3-5.1,5.1-7.3c2.4,1.7,4.8,3.6,7.1,5.4
			C108.8,116.2,113.4,110.5,109.8,107.6z M88.5,108.1c-0.1-0.3-0.4-0.6-0.5-0.9c-1.4-2.4-2.7-4.9-4-7.4c-0.1-0.3-0.3-0.6-0.4-1
			c2.9,1.6,5.7,3.2,8.5,4.9C90.7,105.1,89.5,106.5,88.5,108.1z"/>
		<path class="st3" d="M129.3,84.4c-5.5-1-10.9-0.9-16.3-0.1c0.2-7.7-2-16.8-10.6-17.6c-9.3-0.9-14.7,9.7-13.4,17.7
			c0.6,3.3,4.4,3.9,6.3,2.3c4.9,4.6,10,9,15.2,13.2c0.2,0.4,0.5,0.8,0.9,1c0.5,0.3,0.9,0.5,1.3,0.8c3.9,2.4,8.4-2.6,4.6-5.7
			c-1.7-1.4-3.4-2.8-5.2-4.2c5.3-1.1,10.7-1,16-0.2C132.8,92.5,134,85.2,129.3,84.4z M96.7,78c0.2-0.5,0.4-0.9,0.6-1.3
			c0.9-1.4,2.6-3.1,4.4-2.7c2.3,0.5,3.5,3.9,3.8,5.8c0.4,2.1,0.3,4.3,0,6.3C102.6,83.4,99.6,80.7,96.7,78z"/>
		<path class="st3" d="M124.2,38.4c-6,6.3-11.7,12.9-16.9,19.9c-2.8,3.8,2.9,8.4,5.7,4.6c1.8-2.4,3.6-4.7,5.5-6.9
			c7,6.7,14.2,13.3,21.4,19.8c3.5,3.2,8.1-2.5,4.6-5.7c-7.1-6.4-14.2-13.1-21.1-19.7c2.2-2.5,4.5-4.9,6.8-7.3
			C133.1,39.6,127.4,34.9,124.2,38.4z"/>
		<path class="st3" d="M141.7,153.4c-8.9-6.4-17.4-13.1-25.7-20.2c-3.6-3.1-8,2.8-4.3,5.9c3.4,2.9,6.8,5.7,10.3,8.5
			c-1.8,3-3.6,6-5,9.2c-3.9-3.1-7.7-6.3-11.5-9.3c-3.6-3-8,2.9-4.3,5.9c8.5,7,17.1,14,25.7,20.9c3.6,3,8-2.9,4.3-5.9
			c-2.8-2.3-5.5-4.5-8.3-6.8c1.4-3.3,3-6.4,4.9-9.5c3.2,2.4,6.4,4.8,9.6,7.1C141.2,162,145.6,156.2,141.7,153.4z"/>
		<path class="st3" d="M157.9,132.6c-1.5-1-4.2-1-5.1,0.7c-1.1,2.1-2.3,4.1-3.4,6.2c-0.7,1.2-1.4,3.3-2.4,4.6
			c-1.6-0.8-4.5-3.8-5.5-4.6c-0.2-0.2-0.4-0.4-0.7-0.6c1.2-2.1,2.5-4.1,3.7-6.2c1-1.7,0.9-3.9-0.7-5.1c-1.5-1-4.1-0.9-5.1,0.7
			c-1.1,1.9-2.2,3.7-3.4,5.6c-0.4-0.4-0.7-0.6-1.1-1c-1.5-1.5-4.8-3.7-4.9-6c-0.1-2.7,2.6-5.1,4.3-6.9c1.3-1.5,0.7-4-0.7-5.1
			c-1.8-1.3-3.7-0.7-5.1,0.7c-3.6,3.9-7,8.9-5.2,14.5c0.9,2.6,3,4.4,4.9,6.3c2.3,2.2,4.5,4.3,6.8,6.4c2.2,2,4.4,3.8,6.7,5.7
			c2,1.6,4.3,3.4,7,3.1c3.2-0.3,4.6-3.4,6-5.8l4.6-8.2C159.6,136,159.6,133.9,157.9,132.6z"/>
		<path class="st3" d="M176.8,112.9c-4.9-0.3-9.9-0.2-14.9,0.1c0.8-6.7-2.1-13.6-8.7-16.8c-9.3-4.5-18.6,7.8-15.9,16.4
			c0.7,2.5,3.2,2.8,4.9,1.7c6.4,5.4,12.8,10.8,19.2,16.2c3.6,3.1,8-2.8,4.3-5.9c-1.7-1.4-3.3-2.9-5-4.3c5-0.4,10.1-0.5,15.2-0.2
			C180.6,120.4,181.6,113.1,176.8,112.9z M146.3,104.5c1.6-2.3,3.1-2.5,5.3-0.8c3,2.4,4,6.5,2.8,10c-0.3,0.1-0.6,0.3-0.9,0.5
			c-2.9-2.4-5.8-4.9-8.7-7.4C145.3,106,145.9,105.1,146.3,104.5z"/>
		<path class="st3" d="M190.4,94.6c-2-0.9-3.8,0.3-4.7,2.1c-0.8,1.5-1.8,2.9-2.8,4.2c-0.4,0.4-0.8,1.1-1.3,1.5
			c-0.1-0.1-0.2-0.1-0.2-0.2c-0.2-0.2-0.3-0.3-0.6-0.4c-1.6-1.2-3.3-2.5-4.9-3.9c1.2-1.6,2.5-3.3,3.5-5s0.9-3.9-0.7-5.1
			c-1.5-1.1-4-0.9-5.1,0.7c-1,1.5-2.1,3.1-3.2,4.5c-0.9-0.8-1.8-1.7-2.6-2.5c-0.7-0.7-1.3-1.4-1.9-2c-0.3-0.3-0.7-0.7-0.9-1
			c-0.1-0.1-0.1-0.1-0.1-0.1c0.2-0.3,0.3-0.7,0.5-1c0.3-0.7,0.8-1.4,1.2-2c1-1.4,2-2.7,3.3-3.9c3.4-3.1-1-9-4.5-5.8
			c-3.3,3-7.8,8-8,12.7c-0.1,2.9,2.2,5,4,6.9c2,2.1,4.2,4.1,6.4,6.1c2.1,1.8,4.3,3.6,6.4,5.4c1.9,1.6,4,3.5,6.5,3.9
			c5.6,0.7,9.5-6.3,11.7-10.4C193.3,97.6,192,95.3,190.4,94.6z"/>
		<path class="st3" d="M190.3,77.1c-6-5.4-11.8-10.8-17.5-16.3c-1.4-1.4-4-0.7-5.1,0.7c-1.3,1.8-0.7,3.7,0.7,5.1
			c5.8,5.5,11.7,11,17.5,16.3C189.4,86.2,193.7,80.2,190.3,77.1z"/>
		<path class="st3" d="M201.3,85.5c-1.4-1.1-3.5-1.2-5-0.2c-1.2,0.5-2.1,1.5-2.6,2.7s-0.3,2.6,0.5,3.6c0.9,1.1,2.2,2,3.7,2
			c1.2,0,2.2-0.2,3.2-0.8c0.7-0.5,1.2-1.2,1.6-2C203.4,88.9,202.8,86.7,201.3,85.5z"/>
	</g>
	<g id="Clothing" class="st0">
		<path class="st6" d="M35.7,81.8c15.3,16.8,31.6,36.2,46.4,55c14.7,18.8,35.3,51.6,37.8,55.1s4.7,9.5,8.9,11.3s34-6.3,63.4-30.2
			c29.4-23.8,45.1-51.2,42.3-57.9c-2.1-5.1-10.4-13-13.9-16.5c-10.5-10.5-28.6-30.6-41.9-46c-7.9-9.2-20.9-25-39.6-52.1"/>
		<path class="st6" d="M160.6,30.5c4.7-3.7,25.5-27.1,21.1-33.9s-43-34.4-51.2-37.4c-17.3-6.5-42.6,6.3-53.8,14.9
			C75-23.3,95.8-6.8,72.6,11.4c-26.4,20.7-39.5-1.6-43.8,1.7C22.7,17.8,0.5,40.8,0,59.8c2.5,19.6,14.8,52.7,22.2,62.9
			c4.5,5.8,30.6-8,37-13.6"/>
		<path class="st9" d="M21.7,18.6c6.2,7.1,31.6,23.4,57.2,2.6c25.7-20.8,12.6-44,5.8-52.1"/>
		<path class="st9" d="M114.5,105.1c-6.3,1.9-13.2,0.4-18.9-2.9s-10-8.4-13.4-14.1c-2.7-4.6-4.9-9.6-5.1-15
			c-0.2-6.3,2.5-12.4,5.6-17.9c3.4-6.2,8.2-10.9,13.7-15.3c5.6-4.4,12-8.3,19-7.5c5.9,0.7,11.2,4,16,7.6c5.3,4.1,10.1,8.8,13.1,14.8
			c3,5.9,4,13.1,1.5,19.3c-0.4,1.1-1,2.2-0.8,3.4c0.1,1,0.8,1.9,1.5,2.7c2.6,3.2,5.1,6.5,7.9,9.7c1.9,2.2,1.6,4.4,1,5.9
			c-3.8,9.4-11.7,17.8-20.9,22.4C125,123,125.6,118.3,114.5,105.1z"/>
		<path class="st9" d="M101.1,64.4c-1.8,7.7-2.1,15.8-0.6,23.5"/>
		<path class="st9" d="M89.3,74.4c7,0.5,13.9,1.7,20.7,3.5"/>
		<path class="st9" d="M109.5,58.6c7.9-0.5,15.8,0.6,23.2,3.3"/>
		<path class="st9" d="M121.3,48.6c-0.7,7-0.7,14-0.1,21"/>
		<path class="st9" d="M126.1,101c3.6,4.6,7.2,9.2,10.8,13.8"/>
		<path class="st9" d="M138,88.5c4.5,4.9,8.7,10,12.7,15.3"/>
		<path class="st6" d="M28.8,13.1c8.3-7.3,12.7-6.6,27.8-18.2C69-14.6,67.9-19.4,76.8-25.9"/>
	</g>
	<g id="Objects" class="st0">
		<path class="st22" d="M56.1,11.2c-61.8,35.7-52.5,113.4-32,138.1c22.4,27.1,59.6,47.1,85,42.5c17.9-3.3,53.9-20.3,81.1-48
			c27.2-27.8,61.1-91,31.3-124.7C193.7-12.3,117.8-24.3,56.1,11.2z"/>
		
			<ellipse transform="matrix(0.7866 -0.6175 0.6175 0.7866 -28.8519 90.0801)" class="st23" cx="115.9" cy="86.8" rx="28.9" ry="28.7"/>
		
			<ellipse transform="matrix(0.7866 -0.6175 0.6175 0.7866 -70.5187 65.9082)" class="st23" cx="60.1" cy="135" rx="21.2" ry="27.4"/>
		
			<ellipse transform="matrix(0.7866 -0.6175 0.6175 0.7866 -31.4678 95.7572)" class="st24" cx="122.8" cy="93.4" rx="14.2" ry="14.3"/>
		
			<ellipse transform="matrix(0.7866 -0.6175 0.6175 0.7866 -73.9516 70.0253)" class="st25" cx="64.3" cy="142" rx="12.9" ry="13.9"/>
		<path class="st9" d="M30,65.5c0.7-0.9,1.8-1.6,3-1.9c0.9-0.2,2-0.1,3-0.1c3.7,0,7.2-1.1,10.4-3.1"/>
		<path class="st9" d="M83.2,8.8c0.5,1.4,2.1,2.2,3.5,1.8c1.3-0.4,2.3-1.9,2-3.3"/>
		<path class="st9" d="M98.4,182.1c4.8-0.8,9.9-0.6,14.7,0.5"/>
		<path class="st9" d="M191.8,84.3c-2-1.5-2.5-4.5-1.7-6.9s2.6-4.3,4.2-6.2c-0.1-1-0.2-2-0.1-3"/>
		<path class="st9" d="M210.4,35.2c-1.2-1.1-1.7-2.8-1.4-4.4c0.1-0.7,0.3-1.2,0.3-1.9c-0.2-1.7-2.2-2.5-4-2.8"/>
		<path class="st9" d="M123.9,19.6c7.4,0,14.7-2.2,21.8-4.5"/>
		<path class="st9" d="M143.3,33.7c2.1,1,4.8-0.8,6.7,0.4c0.8,0.7,1.3,1.8,2,2.6c1.3,1.5,3.6,1.9,5.5,1.2c1.9-0.6,3.5-2,5-3.3"/>
		<path class="st9" d="M49.2,28.1c0.4-1.4,0.8-3,1.3-4.4"/>
		<path class="st9" d="M22.6,100.1c-0.2,2-2,3.5-3.9,4.1c-1.8,0.6-3.9,0.4-5.9,0.3"/>
		<path class="st9" d="M58,177.4c2,0.6,4.2,1.3,6.2,0.6c1.2-0.4,2.2-1.3,3.4-1.9c1.1-0.6,2.6-0.9,3.6-0.2"/>
		<path class="st9" d="M194.4,128.6c3.8,0,7.5-1,10.8-2.8"/>
		<path class="st9" d="M143.3,129.2c3.2-0.3,6.8-0.7,8.7-3.3c0.5-0.7,1.1-1.7,1.9-1.9"/>
	</g>
	<g id="Toys" class="st0">
		<path class="st6" d="M78.3,9.1c-0.4-0.5-0.7-1-0.7-1.6s0.3-1.2,0.6-1.8c3.2-6,1.1-14-4.1-18.4S61.4-18,54.9-16.1
			c-5.6,1.8-10.6,5.8-13.4,11s-3,11.8-0.5,17.2s7.8,9.5,13.6,10.2c0.9,0.2,1.9,0.2,2.7,0.6c0.7,0.4,1.3,1.1,1.8,1.7
			c0.9,1.2,1.9,2.3,2.7,3.3c0.6,0.8,1.3,1.6,2.2,2c1.4,0.5,3-0.1,4.3-0.6c3.2-1.4,6.3-2.8,9.1-5c2.2-1.6,4.8-4.8,5.8-7.4
			C84.2,14.7,81.6,13,78.3,9.1z"/>
		<path class="st6" d="M69,30.2c1.2,3.1,1.3,5.3-0.7,8"/>
		<path class="st6" d="M82.8,18.6c1.5,3,5,3.5,8,2"/>
		<path class="st6" d="M92.1,17.4c-0.3,1.3-0.3,2.7-0.1,4.1c0.7,6.2,2.5,12.2,5.4,17.7c0.5,0.9,1.1,1.9,1.3,2.9
			c0.8,3.7-2.4,7.1-5.4,9.5c-1.2,1-2.7,2.1-4.2,1.6c-0.8-0.3-1.4-0.8-2-1.4c-5.4-5.3-11.6-9.9-18.3-13.4c-0.9-0.5-2-1-3-1
			s-2,0.4-2.9,0.9c-3.4,2.1-5.7,5.9-6,10c9.2,2.8,17.2,8.2,24.8,14.1c4.1,3.3,8.1,6.9,10.1,11.7c1.9,4.8,1.1,11.2-3.2,14.1
			c3.5,2.8,6.7,4.3,10.4,5.6c0.6,0.2,2.7,0.9,4.7-2.4c2.2-2.5,3.6-5.8,3.7-9.1c0.2-3.3-0.7-6.8,0.9-9.7c1.3-2.4,3.9-3.6,6.6-4.2
			c2.6-0.5,5.3-0.3,8-0.6c5.5-0.4,10.8-2.4,15.1-5.7c0.7-0.5,1.4-1.1,1.6-1.8c0.4-0.9,0.4-1.9,0.1-2.9c-0.5-2.9-1.7-5.7-3.4-8.1
			c-3.4,5.5-11.9,5.8-17.1,2c-5.3-3.8-7.9-11.1-10-17.2c-2.4-7.3-4.4-14.8-3.4-24.9C100.9,8.9,93,13.3,92.1,17.4z"/>
		<path class="st6" d="M105.3,11.4c0.4-4.4,2.8-8.1,7-10.9c3.7-2.4,7.4-1.3,10.7,0c4.3,1.7,7.9,3.8,9.7,7.3c0.3,0.5,1,1.5,1.4,1.8
			c0.5,0.2,1-0.2,1.7-0.3c3.9-0.9,7.1-0.7,10.3,0.6s5.8,2.9,8,5.5c0.6,0.8,1.3,1.5,2.1,2c0.6,0.3,1.2,0.5,1.9,0.6
			c3.7-0.5,7.6,0.2,12.1,2.3"/>
		<path class="st6" d="M179.2,44.1c-4.4,0.8-8,0.6-13.9-1.4c-4.4-1.5-8.2-4.2-11.8-7.2c-0.4-0.4-0.9-0.7-1.4-0.9
			c-0.5-0.2-1-0.1-1.5,0c-8.1,0.8-16.5-1.3-23.4-5.8c4.5,6.4,7.2,15,6.3,22.3"/>
		<path class="st6" d="M89.5,86.5c-7.9-1.3-15.1-5.3-21.8-9.9c2.4,3.4,4,7.5,4.2,11.7c0.2,4.2-1,8.5-3.7,11.7
			c4.1,6.8,4.1,16.9-6.7,26.5"/>
		<path class="st6" d="M47.5,96.4C45,90.5,47,83,48.8,81c-4.1-4.1-6.2-10.4-4.8-16c1.4-5.7,5.4-10.5,10.9-11.3
			c0.5-2.3,1.4-3.1,2.8-4.3"/>
		<path class="st6" d="M136.3,66.8c-8,10.7-19.3,18.5-31,25.2c-1.2,0.6-2.5,1.5-2.8,2.9c-0.2,1,0.4,2,0.9,2.9
			c1.6,2.7,3.4,5.3,5.4,7.7c0.4,0.5,1,1.1,1.6,1.5c2.2,1.1,4.6-0.8,6.7-1.9c5.5-2.8,12.4-0.7,17,3.5c1.5,1.3,2.9,3,4.9,3.5
			c3.4,1,6.9-1.6,9.5-4.1c0.7-0.7,1.3-1.3,1.7-2.2c1.1-2.5-1-5.1-2.4-7.5c-3.7-6.1-3.5-14.3,0.5-20.2c0.7-1,1.5-2,1.5-3.3
			c0-0.6-0.2-1.1-0.5-1.8c-1.3-2.8-4.2-5.8-6.7-7.4C140.3,64.2,138.7,63.7,136.3,66.8z"/>
		<path class="st9" d="M144.1,67.3c-0.6,2.6-2.8,4.6-4.4,6.8c-2,2.6-3.2,5.7-3.4,9c-0.2,2.1,0.1,4.4-0.7,6.4
			c-0.5,1.4-1.7,2.5-2.8,3.5c-2,1.7-4.4,3.3-7.1,3.3c-2.7-0.1-5.3-1.7-7.9-1.4c-2.4,0.3-4.4,1.9-6.3,3.4s-3.9,2.7-6.3,2"/>
		<path class="st6" d="M149.9,74.7c9.1-3.1,19.8-0.7,26.8,5.8c4.2,3.9,7.2,9.3,12.1,12.2c4.5,2.6,9.9,3,14.8,4.7
			c5.8,1.9,10.8,5.7,14.4,10.6c2.4,3.3,4.1,7.1,6.3,10.5c2.3,3.5,5.2,6.6,9.2,7.8c3.9,1.2,9,0.6,11.2,4c0.5,0.9,0.8,2,0.9,3
			c0.2,3.6-1.4,7.4-4.3,9.6c-2.8,2.2-6.9,2.9-10.4,1.8c-4.3-1.4-7.3-5.2-11-7.8c-3.3-2.2-7.1-3.5-10.9-4.8
			c-8.2-2.8-16.8-6-22.5-12.6c-2.6-3.1-4.7-6.8-8.3-8.7c-3.5-1.9-7.5-1.6-11.4-2c-5.6-0.4-11-2.2-15.8-5"/>
		<path class="st6" d="M139.9,113.3c2.4,4.3,1.7,9.5,1.4,14.3c-0.3,4.9-0.1,10.4,3.4,13.7c1.3,1.2,2.8,2,4.3,2.9
			c6.4,4.1,11.1,10.9,12.6,18.5c0.9,4.5,1,9.8,4.7,12.7c1.1,0.8,2.4,1.3,3.4,2.2c3.4,3.1,1.4,8.8-0.7,12.9
			c-1.8,3.5-2.3,7.2-4.8,10.3c-1.3,1.8-3.1,3.3-5.2,4.2c-2.1,0.9-5.5,0.4-6.8-1.3c-2.3-3.2,1-7.2,1.7-11c1-5.9-4.4-10.7-9-14.6
			c-5.1-4.3-9.9-9.3-12.3-15.5c-0.9-2.3-1.5-4.8-2.9-6.9c-1.3-1.9-3.2-3.3-5-4.8c-12.3-10.5-17.3-27.4-12.3-42.8"/>
		<path class="st9" d="M194.5,124.8c9-3.5,18.1-14.8,14-24.6"/>
		<path class="st26" d="M200.9,129c9-3.5,18.1-14.8,14-24.6"/>
		<path class="st9" d="M136.1,167c8-2.7,17.3-9,17.7-17.7"/>
		<path class="st26" d="M140.7,172.7c8-2.7,17.3-9,17.7-17.7"/>
		<path class="st6" d="M209.4,43c4.1,11.9,4.5,20.1-0.1,22.4c-9.1,4.4-21.7-8.5-31-27.9c-10.8-22.4-11.9-37.8-5.2-41
			c5.1-2.5,13.9,4.6,22.1,16.9"/>
		<path class="st6" d="M206.7,26c4,8.2,5.8,15.3,3,16.7c-3.9,1.9-9.2-3.5-13.2-11.7c-4.5-9.4-5-15.9-2.2-17.3
			C197.1,12.3,202.7,17.8,206.7,26z"/>
		<path class="st9" d="M211.1,62.8c-8.4-0.7-18.6-12.4-26.5-28.7c-8.6-17.8-11.1-31.2-8.4-37.5"/>
		<g class="st3">
			<g>
				
					<ellipse id="XMLID_00000035512170180265652930000011673928177780478130_" transform="matrix(0.8648 -0.5022 0.5022 0.8648 -60.0901 47.4731)" class="st27" cx="58.1" cy="135.3" rx="5.8" ry="4"/>
			</g>
		</g>
		<path class="st6" d="M47.8,117.5c1.7-1.3,3.4-2.9,3.7-5c3.6,1,5.7,4.6,7.5,7.9c0.6,1.1,1.2,2.2,1.4,3.3c0.3,1.8-0.2,3.7-1.2,5.1
			c-1,1.4-2.4,2.7-4,3.6c-1.5,0.9-3.2,1.7-4.9,1.7c-2.2,0-4.3-1.3-5.7-3c-1.5-1.7-2.4-3.7-3.4-5.7c-0.4-1-1-2-1-3
			c-0.2-1.1,0-2.2,0.7-3C42.8,121.2,46.1,118.9,47.8,117.5z"/>
		<path class="st26" d="M47.9,124.1c3.2-1.3,6.9-3.9,7-7.5"/>
		<path class="st26" d="M50.4,127.5c3.2-1.3,6.9-3.9,7-7.5"/>
		<path class="st26" d="M57.3,97.2c1.2,0,1.4-0.1,3.4,0.6"/>
		<path class="st26" d="M52.8,75.7c2-0.8,4.2-0.6,6.2,0.3"/>
		<path class="st26" d="M56.4,55.2c-0.8,7.9,5.2,17.1,12.5,22.3"/>
		<path class="st26" d="M129.4,116.4c-0.1,2.6,0.2,5.2,0.7,7.8"/>
		<path class="st26" d="M129.3,154.4c2.9,1.5,4.7,0.1,6.8-1.4"/>
		<path class="st26" d="M190,109.9c2.9-1.2,4.9-4.4,4.7-7.5"/>
		<path class="st26" d="M158.5,95.3c2.9,0.5,5.7,1.1,8.5,2.1"/>
		<path class="st26" d="M154.4,23.1c-1,2.5-1.4,5.4-1,8"/>
		<path class="st26" d="M135.2,14.7c-1.7,1.8-2.7,4.2-2.7,6.7"/>
		<path class="st28" d="M107.5,11.4c1.7,10.6,11.9,16.4,19.4,17"/>
		<path class="st26" d="M73.8,72.1c1.5,0.5,2.9,0.9,4.3,1.3c1,0.3,2.1,0.6,3.3,0.5c2.9-0.1,5.4-2,7.3-4.3"/>
		<path class="st26" d="M116.5,47.1c3-2.7,4.1-7.2,2.6-11"/>
		<path class="st26" d="M93.1,47.9c-7-7.4-9.4-11.9-8.5-14.8"/>
		<path class="st26" d="M92.9,47.9c-5.7-6.7-10.3-10.6-13.3-9.9"/>
		<path class="st9" d="M39.5,98.5l2.1-6.6c0,0-27.8-41.5-29.2-43.7c-1.5-2.1-14.7-7.1-16.9-5.5C-6.3,44-7.7,56.9-5.6,60.1
			c3.9,6,29.9,43.7,29.9,43.7l6.3,1.1"/>
		<line class="st26" x1="-4.2" y1="43.2" x2="33.5" y2="98.9"/>
		<circle class="st9" cx="39.1" cy="106.8" r="7.6"/>
		<circle class="st29" cx="39.1" cy="106.8" r="2.2"/>
		<path class="st9" d="M30.8,110.1c-2.4,1.4-5.1,2.8-7.9,2.8c-2.8,0-5.5-1.1-7.6-2.9c-1.6,1.3,1.1,5.2,2.6,7.2
			c1.2,1.6,2.5,2.9,4.5,3.6c2.6,0.8,5.9-0.5,8.3-1.8c2.4-1.4,4.2-2.6,5.8-3.7"/>
		<path class="st9" d="M45.6,99.7c2.2-1.6,4.4-3.7,5.5-6.3c1-2.6,1-5.5,0.1-8.2c1.8-1,4.4,2.9,5.7,5c1.1,1.7,1.9,3.5,1.7,5.4
			c-0.2,2.7-2.6,5.3-4.8,7c-2.1,1.8-4,3-5.5,4"/>
		<line class="st9" x1="39.3" y1="115.6" x2="41.8" y2="119.2"/>
		<line class="st9" x1="47.5" y1="109.1" x2="50.2" y2="113"/>
		<path class="st26" d="M41.3,4.3c7.2-1,13.7-5.1,19.8-9.2c3.9-2.6,7.6-5.3,10.9-8.8"/>
		<path class="st29" d="M57.6-1.5c1,2,2.2,4,3.9,5.4c1.7,1.4,4.3,2,6.2,0.8c1.5-1,2.3-2.9,2.2-4.8c-0.1-1.9-1-3.5-2-5
			c-0.6-0.9-1.3-1.7-2.2-2.2L57.6-1.5z"/>
		<path class="st26" d="M54.3,4.2c-0.7,3-1.1,6-1.1,9.1"/>
		<path class="st26" d="M49.4,8.1c3.3,0.2,6.3,0.3,9.3,1.7"/>
		<path class="st26" d="M66.1,20.7c1.3,2.1,3.4,4.6,5,6.4"/>
		<path class="st26" d="M72.7,16.9c1.1,1.7,2.4,3.3,3.7,4.9"/>
		<path class="st6" d="M51.1,106c-0.5,1.3-0.4,2.2-0.6,4.2"/>
	</g>
	<g id="Digital_Stuff" class="st0">
		<g id="Layer_15" class="st3">
			<path class="st5" d="M165.6-0.5c7.9-1.8,19.6,5.1,52.5,47.5c29.5,38,34.2,49.5,35.3,57.1c2.8,20.3-24.3,44.2-96.7,98.6
				c-21.1,15.9-31.2,22.4-37.6,20.6c-8.5-2.3-22.3-16.1-48.5-47.9c-21.4-25.9-32.5-40.9-34.4-52.9c-2.3-14.7,39-57.5,47.5-65.6
				C93.1,48.1,151.5,2.7,165.6-0.5z"/>
			<path class="st5" d="M167.7,12c9.1,0.1,20.9,14.1,43,42.2c21.1,26.9,31,42.9,31.3,51.1c0.2,9.4-2.3,16.5-31.8,42.3
				c-19.7,17.2-31.6,26.9-41.6,28.1c-10.8,1.3-22.5-12-52.5-48.9C90.5,95.3,86.4,88.9,86.3,78.5c-0.1-9.2,8.8-16.7,37.1-38.3
				C154.2,16.5,162.3,11.9,167.7,12z"/>
			<path class="st30" d="M68.7,73.3c-6.6,6.9-10.5,12.8-11.6,20.2c-0.5,3.5-0.1,7.1,0.8,10.5c1.9,6.8,6,12.7,10.1,18.5
				c14.5,20.3,29.8,40.3,46.4,59.1c9.8,11.1,17.1,17.9,21.2,19.6c2.5,1,5.3,1.4,8,1.4c7.5,0.1,14.1-1.9,21.9-7.7"/>
			<path class="st31" d="M97,84.2c0.7,4.6,3.5,8.5,6.3,12.3c9.8,13.5,18.4,23.4,28.7,36.5c6.4,8.1,14.3,17.2,21.7,24.4
				s13,7,16.9,5.8c8.5-2.5,32.9-24.1,37-27.6c24.4-21.2,25.6-30,5.6-56c-8.4-10.9-32.2-40.1-36.3-43.5c-4.1-3.3-7.4-5.9-12.8-6.1
				c-6.6-0.1-11.6,2.4-17.4,6.2c-10.7,7.1-20.1,14-30.6,22.6C105.2,67.7,95.2,73.8,97,84.2z"/>
			<polygon class="st32" points="130.6,78.8 123.6,84.7 162.9,131.7 169.8,125.5 			"/>
			<polygon class="st32" points="158,55.9 151,61.9 190.3,108.8 197.1,102.7 			"/>
			<polygon class="st33" points="195.3,120.1 180.9,132 186,138 200.2,126.1 			"/>
			<path class="st30" d="M66.1,106.2c4.2,5.4,8.3,10.7,12.5,16"/>
			<path class="st30" d="M70.3,101.5c2.7,3.4,5.3,6.7,8,10"/>
			<path class="st30" d="M75,97.1c1.4,1.8,2.8,3.5,4.1,5.2"/>
			<path class="st30" d="M168.5,24.6c0.2-1.8,0.2-3.5,0.2-5.4"/>
			<path class="st30" d="M232.5,108.2c1.6,0.1,1.9,0.4,3.5,0.4"/>
		</g>
		<g id="Layer_16" class="st3">
			<path class="st5" d="M59.8,48.3c-2.6-10.2-6.1-21-10.9-32.5C63.6-1,79-16.5,95.2-32.8c1.3-1.4,3.6-0.7,4,1.1
				c2.9,11,5,21,6.6,32.2c0.3,2.2-0.4,4.2-1.9,5.8c-13.5,14-26.8,28.1-40.4,42c-2,2.1-5.3,1.9-7.2-0.2C47.1,37.8,37.6,27.7,27.6,18
				c-1.4-1.3-1.5-3.4-0.3-4.9c3-4,6.4-7.5,9.7-11.3c3.1-3.5,5.6-0.8,6.3,0c9.5-10.9,19-20.7,29.3-31c1.4-1.4,3.3-2.2,5-1
				c2.6,1.7,4.2,3.6,6.7,6"/>
		</g>
	</g>
	<g id="Illustration" class="st0">
		<path class="st34" d="M-12.4,62.8C-3.6,72.4,5.2,82,14.1,91.6"/>
		<path class="st34" d="M11,41.2c8.9,8.7,17.6,17.7,26.1,26.9"/>
		<path class="st34" d="M11.2,128.4c8,9.9,22.1,14,34.6,11.3c12.5-2.8,23.1-11.6,29.7-22.6c9.2-15.6,9.7-37.5-2.9-50.6
			c0.2-0.8,1.7,0.4,0.8,0.8"/>
		<g class="st3">
			<g>
				<path id="XMLID_00000001630386699626138990000006594000924267428267_" class="st35" d="M116.6,90.1c-8.4-1.3-15.3-1.1-20.5-6.8
					c-4-4.3-4.7-6-9-10c-1.1-1-6.5-2.7-9.4-3.6c-3.4-1-12.1-2.9-10.1-12.6c1.3-6.4,8.2-7.5,12.4-6.8c7.5,1.3,10.1,1,16.5-1
					c3.7-1.2,3.8-2.4,7.6-3c4.2-0.6,13.5,0.4,17.6,1.4"/>
			</g>
		</g>
		<g class="st3">
			<g>
				<path id="XMLID_00000155111931581208008370000005886672226985888921_" class="st5" d="M256.5,114.3L116,89.8
					c-6.5-0.7-10.9-10.8-9.7-22.5c1.2-11.7,7.5-20.6,13.9-20l140.5,24.5"/>
			</g>
		</g>
		<g class="st3">
			<g>
				
					<ellipse id="XMLID_00000062173956560616398320000003949754021253070506_" transform="matrix(0.1009 -0.9949 0.9949 0.1009 139.7949 341.002)" class="st36" cx="258.6" cy="93.2" rx="21.4" ry="11.9"/>
			</g>
		</g>
		<path class="st37" d="M234.9,110.6c-6.5-0.7-10.9-10.8-9.7-22.5s7.5-20.6,13.9-20l-18-3.7c-6.5-0.7-12.8,8.3-13.9,20
			s3.1,21.9,9.7,22.5L234.9,110.6z"/>
		<path class="st37" d="M146,95.6c-6.5-0.7-10.5-9.6-9.3-21.3s7.7-21.4,14.3-20.7l-14.3-2.8c-6.5-0.7-12.8,8.3-13.9,20
			c-1.2,11.8,3.1,21.9,9.7,22.5L146,95.6z"/>
	</g>
	<g id="About" class="st0">
		<path class="st38" d="M56.4,75c1.5,4.8,5.1,8.9,9.4,11.7c1.8,1.2,3.8,2.2,5.9,2.7c7.2,1.9,15.4-2.3,18.4-9.2
			c3-6.8,0.8-15.5-5-20.3C73.6,50.2,51.1,57.7,56.4,75z"/>
		<path class="st39" d="M80.1,27c11,7.8,22,15.7,33.1,23.6"/>
		<path class="st39" d="M95.2,4.4c11.8,8.2,23.7,16.5,35.5,24.7"/>
		<path class="st39" d="M100.6,36.9c3.1-5.4,6.6-10.6,10.4-15.5"/>
		<path class="st40" d="M101.7,121.2c12.5,8.2,24.9,16.3,37.3,24.4"/>
		<path class="st39" d="M117.5,96.5c13.1,8.8,26.3,17.4,39.4,26.2"/>
		<path class="st39" d="M125.8,130.1c2.9-5,5.8-10,8.7-15"/>
		<path class="st39" d="M144.1,59.3c-3.5,5.2-7,10.3-10.5,15.5c-0.4,0.6-0.8,1.4-0.6,2.1c0.2,0.5,0.7,0.9,1.1,1.2
			c11.9,8,23.7,16,35.5,23.9c3.9-5.7,8-11.4,12-17.2"/>
		<path class="st39" d="M154.7,86.3c2.1-2.9,4.1-5.8,6.1-8.7"/>
		<path class="st39" d="M154.9,43.5c8.2-0.5,16.3-1.8,24.2-3.9"/>
		<path class="st39" d="M171.8,19.2c8.8,15,16.6,30.5,23.3,46.6"/>
		<path class="st41" d="M54.8,134.2c-33.6-29-33.6-58.9-26.5-86.6c4.5-17.4,14.6-32.3,25.9-45.7C59.8-4.7,65.6-11,72.3-16.4
			c25-20.2,61.4-26.4,91.8-10.4c9.1,4.8,19.2,10.5,27.4,17c5.6,4.5,14.3,13,18.6,18.8c11.7,13.3,22.8,30.7,23.5,48.5
			s-2.7,31.7-12,48.9c-13.4,24.3-50.7,67.4-84.7,69.4c-18.2,1.4-38.7-5.1-51.7-16.7c-15.2,10.4-25.3,16.5-33.1,20.8
			c-1.7,0.9-3.7-0.6-3.4-2.6C51.3,160.6,52.5,154.3,54.8,134.2z"/>
	</g>
	<g id="Shop" class="st0">
		<path class="st42" d="M261.1,72.4c2,2.9,2.1,11.7-2.9,15.5l-166,130.3c-9.4,7.3-11.2,4.2-16.6-2.7l-48.4-61.7
			c-3.1-4.2-1.5-10.1,0.7-15.1"/>
		<path class="st19" d="M259.5,77.1L87.9,211.8c-1.8,1.4-4.6,1.2-6-0.7l-53.4-68c-1.4-1.8-1.2-4.6,0.7-6L200.8,2.3
			c1.8-1.4,4.6-1.2,6,0.7l53.4,68C261.7,72.9,261.4,75.6,259.5,77.1z"/>
		<path class="st6" d="M62.7,10.3c-0.7,2.5-0.3,6.6,2.6,9c2.4,1.9,6,2.3,8.5,0.5c0.9-0.6,2.2-1.8,2.8-2.7c0.7-1,2.4-3.4,1.5-7.4"/>
		<path class="st19" d="M65.7,17.4c2.4,1.9,6,2.3,8.5,0.5c0.9-0.6,2.2-1.8,2.8-2.7c0.7-1,2.2-3.4,0.9-6.6
			C72.7-4.2,55.6,9.1,65.7,17.4z"/>
		<line class="st9" x1="65.2" y1="21.7" x2="54.1" y2="116.3"/>
		<line class="st9" x1="80.5" y1="11.8" x2="170.9" y2="24.5"/>
		<path class="st38" d="M66.4,149.8c0.3,6.2,3.2,12,6.8,17.1c1.8,2.6,3.9,5,6.7,6.6c3.6,2,8.1,2.1,12,1c9.7-2.8,16.5-13.8,13.6-23.5
			c-2-6.6-11.5-18.6-20-20C74,129,65.9,139.8,66.4,149.8z"/>
		<path class="st38" d="M132.7,144.5c-8.8-10-17.7-20-26.5-29.9c-0.6-0.6-1.2-1.4-1.4-2.3c-0.3-1.3,0.3-2.6,0.8-3.8
			c3.1-6,8.7-11.5,15.4-11.2c6.4,0.2,11.8,6.2,12.4,12.5c0.6,6.4-2.7,12.7-7.6,16.8"/>
		<path class="st38" d="M158.9,67.7c-4,2.5-6.4,5.2-9.6,8c-1.7,1.5-3.5,3.3-3.9,5.5c-0.5,2.5,0.9,5.1,2.3,7.3
			c6.1,9.4,12.5,18.6,19.4,27.6c0.4,0.5,0.9,1.2,1.6,1.3c1,0.2,1.9-0.5,2.7-1.2c4.8-4.6,9.7-9.3,14.5-13.9"/>
		<path class="st38" d="M166.6,90.4c-2.8,2.4-5.4,4.8-7.6,7.3"/>
		<path class="st38" d="M202.2,88.2C193.1,76.5,174.7,53,179,51.3c16.2,6.2,29.8,17.6,46.3,22.9c4.2-2.4-1.7-9.5-4.6-12.9
			c-7.5-9.2-14.9-18.4-22.4-27.6"/>
	</g>
	<g id="All" class="st0">
		<g id="Layer_8" class="st3">
			<g id="Layer_5_copy_6">
				<g>
					<g>
						<path id="XMLID_00000026851119032004426630000013762290967966517683_" class="st43" d="M42.6,120.2c-4.2-0.6-7.8-0.6-10.3-3.4
							c-2-2.1-2.3-3-4.5-5.1c-0.6-0.5-3.3-1.4-4.7-1.8c-1.7-0.5-6.1-1.5-5.1-6.4c0.6-3.2,4.1-3.8,6.3-3.4c3.8,0.6,5.1,0.5,8.3-0.5
							c1.8-0.6,1.9-1.2,3.9-1.5c2.2-0.3,6.8,0.1,8.9,0.7"/>
					</g>
				</g>
				<g>
					<g>
						<path id="XMLID_00000136372431126472163560000015328398838871835818_" class="st43" d="M113.3,132.5l-70.9-12.3
							c-3.3-0.3-5.5-5.4-4.9-11.4c0.6-5.9,3.8-10.4,7-10.1l70.9,12.3"/>
					</g>
				</g>
				<g>
					<g>
						
							<ellipse id="XMLID_00000113331846856018391970000002562043483581015694_" transform="matrix(0.1009 -0.9949 0.9949 0.1009 -18.3811 223.1723)" class="st44" cx="114.3" cy="121.8" rx="10.8" ry="6"/>
					</g>
				</g>
				<path class="st45" d="M102.4,130.6c-3.3-0.3-5.5-5.4-4.9-11.4c0.6-5.9,3.8-10.4,7-10.1l-9.1-1.8c-3.3-0.3-6.5,4.2-7,10.1
					c-0.6,5.9,1.6,11,4.9,11.4L102.4,130.6z"/>
				<path class="st45" d="M57.5,123c-3.3-0.3-5.3-4.8-4.7-10.8c0.6-5.9,3.9-10.8,7.2-10.5l-7.3-1.4c-3.3-0.3-6.5,4.2-7,10.1
					c-0.6,5.9,1.6,11,4.9,11.4L57.5,123z"/>
			</g>
			<g id="Layer_5_copy_7">
				<g>
					<g>
						<path id="XMLID_00000052076666957195030280000006744017234170423958_" class="st43" d="M26.2,81.2c-2-1-5.9-3.5-7.4-5.1
							c-1.4-1.5-0.9-2-2-3.6c-1.9-2.8-2.7-3.8-6.2-5.7c-1.9-1-4.2-3.7-2.7-6.6c2.3-4.4,6.3-2.4,7.9-1.7c1.4,0.5,4.1,1.6,4.8,1.6
							c3-0.3,3.8-0.7,6.7-1.1c3.8-0.6,6.5,1.7,10.2,3.9"/>
					</g>
				</g>
				<g>
					<g>
						<path id="XMLID_00000078040448630111126650000002954490102820431250_" class="st43" d="M88.3,116L25.4,81
							c-2.7-1.8-2.4-7.3,0.9-12.3c3.3-5,8.2-7.6,10.9-5.7l62.9,35"/>
					</g>
				</g>
				<g>
					<g>
						
							<ellipse id="XMLID_00000061442076935462725120000008361617191682144680_" transform="matrix(0.548 -0.8365 0.8365 0.548 -46.733 127.1907)" class="st46" cx="94.3" cy="106.8" rx="10.8" ry="6"/>
					</g>
				</g>
				<path class="st45" d="M82.3,88.2c-2.8-1.9-7.7,0.8-10.9,5.7c-3.3,5-3.7,10.5-0.9,12.3l8.3,4.2c-2.7-1.8-2.4-7.3,0.9-12.3
					s8.2-7.6,10.9-5.7L82.3,88.2z"/>
				<path class="st45" d="M44.8,66.8c-2.8-1.9-7.7,0.8-10.9,5.7c-3.3,5-3.7,10.5-0.9,12.3l6.5,3.4c-2.8-1.9-2.2-7.7,1-12.7
					c3.2-4.9,7.6-7.2,10.4-5.4L44.8,66.8z"/>
			</g>
			<g id="Layer_5_copy_10">
				<g>
					<g>
						<path id="XMLID_00000092430902315439580300000001288642352838729088_" class="st43" d="M121.5-3.4c-1.1-1.9-3.1-6.1-3.5-8.2
							c-0.3-1.9,0.3-2.2,0.3-4.1c0-3.4-0.3-4.7-2.2-8.1c-1.1-1.9-1.6-5.4,1.3-7c4.4-2.5,6.6,1.4,7.7,2.8c0.9,1.3,2.6,3.6,3.2,3.9
							c2.7,1.4,3.6,1.5,6.2,2.7c3.6,1.6,4.6,5,6.6,8.8"/>
					</g>
				</g>
				<g>
					<g>
						<path id="XMLID_00000046341629099129139760000018364538508219863974_" class="st43" d="M155.1,59.3L121-4.1
							c-1.3-3,1.9-7.4,7.4-9.8c5.4-2.4,11-1.9,12.3,1.1l34.2,63.3"/>
					</g>
				</g>
				<g>
					<g>
						
							<ellipse id="XMLID_00000080198162918767403980000016946273822723961274_" transform="matrix(0.9123 -0.4096 0.4096 0.9123 -7.9969 72.4444)" class="st47" cx="165.1" cy="54.9" rx="10.8" ry="6"/>
					</g>
				</g>
				<path class="st45" d="M165,32.7c-1.4-3-6.9-3.5-12.3-1.1c-5.4,2.4-8.7,6.9-7.4,9.8l4.7,8c-1.3-3,1.9-7.4,7.4-9.8
					s11-1.9,12.3,1.1L165,32.7z"/>
				<path class="st45" d="M145-5.5c-1.4-3-6.9-3.5-12.3-1.1c-5.4,2.4-8.7,6.9-7.4,9.8l3.6,6.4c-1.4-3,2.3-7.7,7.7-10.2
					s10.3-2,11.7,1L145-5.5z"/>
			</g>
			<g id="Layer_5_copy_9">
				<g>
					<g>
						<path id="XMLID_00000023251232407051497130000009014476173381381282_" class="st43" d="M47.8,57.2c-1.4-1.6-3.9-5.6-4.7-7.6
							c-0.6-1.8,0-2.2-0.4-4.1c-0.5-3.3-1-4.6-3.3-7.7c-1.3-1.7-2.4-5.1,0.2-7.2c3.9-3.1,6.8,0.4,8,1.7c1.1,1.1,3.1,3.2,3.8,3.4
							c2.8,1,3.7,0.9,6.5,1.8c3.7,1,5.3,4.2,7.8,7.7"/>
					</g>
				</g>
				<g>
					<g>
						<path id="XMLID_00000133501158232537005230000008150153607201943451_" class="st43" d="M90.5,114.2L47.4,56.6
							c-1.8-2.8,0.8-7.6,5.8-10.8c5-3.2,10.6-3.6,12.3-0.8l43.1,57.6"/>
					</g>
				</g>
				<g>
					<g>
						
							<ellipse id="XMLID_00000014630187247591542000000014218896478204124064_" transform="matrix(0.8412 -0.5407 0.5407 0.8412 -42.747 71.0429)" class="st48" cx="99.6" cy="108.3" rx="10.8" ry="6"/>
					</g>
				</g>
				<path class="st45" d="M96.3,86.4c-1.8-2.8-7.3-2.5-12.3,0.8c-5,3.2-7.6,8-5.8,10.8l5.8,7.3c-1.8-2.8,0.8-7.6,5.8-10.8
					s10.6-3.6,12.3-0.8L96.3,86.4z"/>
				<path class="st45" d="M70.9,51.5c-1.8-2.8-7.3-2.5-12.3,0.8c-5,3.2-7.6,8-5.8,10.8l4.5,5.8c-1.8-2.8,1.1-8,6.1-11.1
					c5-3.3,9.9-3.5,11.7-0.7L70.9,51.5z"/>
			</g>
			<g id="Layer_5_copy_8">
				<g>
					<g>
						<path id="XMLID_00000142153344741413464880000009835587110510991039_" class="st43" d="M63.1,90.3c-1.2-1.8-3.2-6-3.6-8.1
							c-0.4-1.9,0.3-2.2,0.1-4.2c-0.1-3.4-0.4-4.7-2.3-8.1c-1.1-1.9-1.7-5.4,1.2-7c4.3-2.6,6.7,1.2,7.7,2.7c1,1.2,2.6,3.5,3.3,3.9
							c2.7,1.3,3.6,1.4,6.3,2.6c3.6,1.5,4.6,4.9,6.7,8.7"/>
					</g>
				</g>
				<g>
					<g>
						<path id="XMLID_00000016754011138624469410000003253043150219897001_" class="st43" d="M97.9,152.4L62.7,89.7
							c-1.4-3,1.8-7.5,7.2-10c5.4-2.5,10.9-2.2,12.4,0.8l35.2,62.7"/>
					</g>
				</g>
				<g>
					<g>
						
							<ellipse id="XMLID_00000150094467843864126650000005719910199885120662_" transform="matrix(0.9044 -0.4266 0.4266 0.9044 -52.7388 60.1127)" class="st49" cx="107.8" cy="147.8" rx="10.8" ry="6"/>
					</g>
				</g>
				<path class="st45" d="M107.3,125.5c-1.4-3.1-6.9-3.3-12.4-0.8c-5.4,2.5-8.6,7-7.2,10l4.8,7.9c-1.4-3,1.8-7.5,7.2-10
					c5.4-2.5,10.9-2.2,12.4,0.8L107.3,125.5z"/>
				<path class="st45" d="M86.6,87.7c-1.4-3.1-6.9-3.3-12.4-0.8c-5.4,2.5-8.6,7-7.2,10l3.7,6.3c-1.4-3.1,2.2-7.7,7.5-10.3
					s10.3-2.1,11.7,0.8L86.6,87.7z"/>
			</g>
			<g id="Layer_5_copy">
				<g>
					<g>
						<path id="XMLID_00000173881645766798522040000013340669308517914755_" class="st43" d="M158.5,3.8c-1.2-4.1-2.7-7.3-1.2-10.8
							c1.1-2.7,1.8-3.3,2.8-6.2c0.2-0.7-0.1-3.5-0.2-5.1c-0.2-1.8-1.2-6.2,3.7-7.3c3.2-0.7,5.1,2.2,5.7,4.3c1,3.7,1.6,4.9,3.9,7.3
							c1.3,1.5,1.9,1.3,2.9,2.9c1.1,1.9,2.6,6.3,3,8.4"/>
					</g>
				</g>
				<g>
					<g>
						<path id="XMLID_00000075164544809095540640000016665898497132006278_" class="st43" d="M176.4,73.2L158.5,3.5
							c-1-3.1,2.7-7.2,8.4-9.1c5.6-1.9,11-0.9,12.1,2.3l17.9,69.7"/>
					</g>
				</g>
				<g>
					<g>
						
							<ellipse id="XMLID_00000161590606362195609950000017213302886385152914_" transform="matrix(0.9484 -0.3172 0.3172 0.9484 -12.497 62.7943)" class="st50" cx="186.6" cy="69.8" rx="10.8" ry="6"/>
					</g>
				</g>
				<path class="st45" d="M173.5,62.5c-1-3.1,2.7-7.2,8.4-9.1c5.6-1.9,11-0.9,12.1,2.3l-2-9c-1-3.1-6.4-4.1-12.1-2.3
					c-5.6,1.9-9.4,6-8.4,9.1L173.5,62.5z"/>
				<path class="st45" d="M162,18.5c-1-3.1,2.2-6.8,7.9-8.7c5.6-1.9,11.5-0.9,12.5,2.2l-1.7-7.1c-1-3.1-6.4-4.1-12.1-2.3
					c-5.6,1.9-9.4,6-8.4,9.1L162,18.5z"/>
			</g>
			<g id="Layer_5_copy_2">
				<g>
					<g>
						<path id="XMLID_00000098194375559364107760000011630345850137789098_" class="st43" d="M127,18.4c-2.9-3.1-5.8-5.2-6.2-9
							c-0.3-2.9,0-3.8-0.5-6.8c-0.2-0.8-1.8-3.1-2.7-4.2c-1-1.5-4-4.8-0.2-8.2c2.5-2.2,5.6-0.6,7.1,1c2.7,2.8,3.7,3.5,6.9,4.6
							c1.8,0.6,2.2,0.2,4,1.2c1.9,1,5.3,4.3,6.6,6"/>
					</g>
				</g>
				<g>
					<g>
						<path id="XMLID_00000170977915547642804510000017242364576426670231_" class="st43" d="M175.8,70.9l-48.9-52.8
							c-2.4-2.3-1-7.6,3-12c4.1-4.3,9.3-6,11.7-3.7l48.9,52.8"/>
					</g>
				</g>
				<g>
					<g>
						
							<ellipse id="XMLID_00000176744912776786627360000012338400791798913675_" transform="matrix(0.6831 -0.7303 0.7303 0.6831 11.9617 153.7229)" class="st50" cx="183.1" cy="63.1" rx="10.8" ry="6"/>
					</g>
				</g>
				<path class="st45" d="M168.2,62.8c-2.4-2.3-1-7.6,3-12c4.1-4.3,9.3-6,11.7-3.7l-6.2-7c-2.4-2.3-7.7-0.6-11.7,3.7
					c-4,4.4-5.4,9.7-3,12L168.2,62.8z"/>
				<path class="st45" d="M137.1,29.6c-2.4-2.3-1.3-7.1,2.8-11.4s9.7-6.3,12.1-4l-4.9-5.5c-2.4-2.3-7.7-0.6-11.7,3.7
					c-4,4.4-5.4,9.7-3,12L137.1,29.6z"/>
			</g>
			<g id="Layer_5_copy_5">
				<g>
					<g>
						<path id="XMLID_00000039840165684843096840000017884055180486716289_" class="st43" d="M58.2,25.1c-3.1-2.9-6.1-4.8-6.6-8.7
							c-0.4-2.9-0.3-3.8-0.9-6.7c-0.2-0.8-1.9-3-2.9-4.2c-1.1-1.4-4.2-4.7-0.6-8.2C49.6-5,52.8-3.5,54.4-2c2.7,2.7,3.9,3.3,7.2,4.2
							c1.9,0.6,2.3,0.1,4,0.9c2,1,5.5,4,6.9,5.6"/>
					</g>
				</g>
				<g>
					<g>
						<path id="XMLID_00000075868655696783480630000017975363552922405775_" class="st43" d="M109.5,75.1L58.1,24.8
							c-2.6-2.1-1.4-7.5,2.4-12.2c3.9-4.6,9-6.4,11.5-4.3l51.4,50.3"/>
					</g>
				</g>
				<g>
					<g>
						
							<ellipse id="XMLID_00000140703063577948928170000008699709989270424738_" transform="matrix(0.6464 -0.763 0.763 0.6464 -9.8809 112.4917)" class="st51" cx="116.4" cy="66.9" rx="10.8" ry="6"/>
					</g>
				</g>
				<path class="st45" d="M101.6,67.4c-2.6-2.1-1.4-7.5,2.4-12.2c3.9-4.6,9-6.4,11.5-4.3l-6.4-6.7c-2.6-2.1-7.7-0.2-11.5,4.3
					c-3.9,4.6-4.9,10-2.4,12.2L101.6,67.4z"/>
				<path class="st45" d="M68.9,35.7c-2.6-2.1-1.7-7,2.2-11.5s9.3-6.7,11.9-4.5l-5.1-5.3c-2.6-2.1-7.7-0.2-11.5,4.3
					c-3.9,4.6-4.9,10-2.4,12.2L68.9,35.7z"/>
			</g>
			<g id="Layer_5_copy_3">
				<g>
					<g>
						<path id="XMLID_00000031191200402484740700000016091059530069043901_" class="st43" d="M91.6,10.1c-2.5-3.5-4.9-6-4.7-9.9
							c0.2-3,0.5-3.8,0.6-6.8c0-0.7-1.3-3.3-1.9-4.7c-0.8-1.6-3.2-5.4,1.1-8.1c2.8-1.8,5.7,0.4,6.9,2.2c2.1,3.3,3.2,4.1,6.1,5.7
							c1.7,0.9,2.2,0.6,3.8,1.7c1.7,1.3,4.5,5.1,5.7,6.9"/>
					</g>
				</g>
				<g>
					<g>
						<path id="XMLID_00000164483825644636481210000002586567882359470259_" class="st43" d="M131.4,69.7l-40-59.9
							c-2.1-2.6,0.2-7.7,4.9-11.4c4.7-3.6,10.2-4.5,12.2-1.9l40,59.9"/>
					</g>
				</g>
				<g>
					<g>
						
							<ellipse id="XMLID_00000081616945084094133530000010737233354301517480_" transform="matrix(0.7901 -0.613 0.613 0.7901 -9.3044 99.019)" class="st52" cx="139.9" cy="63.1" rx="10.8" ry="6"/>
					</g>
				</g>
				<path class="st45" d="M125.3,60.5c-2.1-2.6,0.2-7.7,4.9-11.4c4.7-3.6,10.2-4.5,12.2-1.9l-4.9-7.9c-2.1-2.6-7.5-1.8-12.2,1.9
					c-4.7,3.7-6.9,8.7-4.9,11.4L125.3,60.5z"/>
				<path class="st45" d="M99.8,22.7c-2.1-2.6-0.2-7.2,4.6-10.8s10.5-4.6,12.6-2l-4-6.2c-2.1-2.6-7.5-1.8-12.2,1.9
					s-6.9,8.7-4.9,11.4L99.8,22.7z"/>
			</g>
			<g id="Layer_5_copy_4">
				<g>
					<g>
						<path id="XMLID_00000083773839323747035400000014070671981083343545_" class="st43" d="M85.7,34.3c-1.2-4.1-2.9-7.2-1.5-10.8
							c1.1-2.8,1.7-3.4,2.6-6.3c0.2-0.7-0.3-3.5-0.4-5c-0.3-1.8-1.3-6.2,3.5-7.4c3.2-0.8,5.2,2,5.8,4.2c1,3.7,1.7,4.9,4.1,7.3
							c1.4,1.5,1.9,1.2,3,2.8c1.2,1.8,2.8,6.2,3.2,8.3"/>
					</g>
				</g>
				<g>
					<g>
						<path id="XMLID_00000031926757594660617630000005367484897423066793_" class="st43" d="M105.5,103.2L85.7,34.1
							c-1.2-3.1,2.5-7.3,8.1-9.3c5.6-2,11-1.2,12.2,2l19.8,69.1"/>
					</g>
				</g>
				<g>
					<g>
						
							<ellipse id="XMLID_00000065768881016882986250000000893919231545672115_" transform="matrix(0.9394 -0.3428 0.3428 0.9394 -27.1065 45.6526)" class="st53" cx="115.6" cy="99.5" rx="10.8" ry="6"/>
					</g>
				</g>
				<path class="st45" d="M102.4,92.6c-1.2-3.1,2.5-7.3,8.1-9.3c5.6-2,11-1.2,12.2,2l-2.3-9c-1.2-3.1-6.5-4-12.2-2
					c-5.6,2.1-9.2,6.3-8.1,9.3L102.4,92.6z"/>
				<path class="st45" d="M89.7,48.9c-1.2-3.1,2.1-6.9,7.6-8.9c5.6-2,11.4-1.2,12.6,1.9l-1.8-7.1c-1.2-3.1-6.5-4-12.2-2
					c-5.6,2.1-9.2,6.3-8.1,9.3L89.7,48.9z"/>
			</g>
			<g id="Layer_5_copy_11">
				<g>
					<g>
						<path id="XMLID_00000078729146179761497330000007385066882846072483_" class="st43" d="M127.4,45.2c-1.2-1.8-3.2-6-3.6-8.1
							c-0.4-1.9,0.3-2.2,0.1-4.2c-0.1-3.4-0.4-4.7-2.3-8.1c-1.1-1.9-1.7-5.4,1.2-7c4.3-2.6,6.7,1.2,7.7,2.7c1,1.2,2.6,3.5,3.3,3.9
							c2.7,1.3,3.6,1.4,6.3,2.6c3.6,1.5,4.6,4.9,6.7,8.7"/>
					</g>
				</g>
				<g>
					<g>
						<path id="XMLID_00000079451286813547216020000008415705171758025857_" class="st43" d="M162.2,107.4L127,44.7
							c-1.4-3,1.8-7.5,7.2-10s10.9-2.2,12.4,0.8l35.2,62.7"/>
					</g>
				</g>
				<g>
					<g>
						
							<ellipse id="XMLID_00000159462490132306391750000006393971619574838404_" transform="matrix(0.9044 -0.4266 0.4266 0.9044 -27.4008 83.2483)" class="st49" cx="172.1" cy="102.8" rx="10.8" ry="6"/>
					</g>
				</g>
				<path class="st45" d="M171.6,80.5c-1.4-3.1-6.9-3.3-12.4-0.8c-5.4,2.5-8.6,7-7.2,10l4.8,7.9c-1.4-3,1.8-7.5,7.2-10
					s10.9-2.2,12.4,0.8L171.6,80.5z"/>
				<path class="st45" d="M150.9,42.7c-1.4-3.1-6.9-3.3-12.4-0.8c-5.4,2.5-8.6,7-7.2,10l3.7,6.3c-1.4-3.1,2.2-7.7,7.5-10.3
					c5.3-2.5,10.3-2.1,11.7,0.8L150.9,42.7z"/>
			</g>
			<g id="Layer_5">
				<g>
					<g>
						<path id="XMLID_00000076591273443184792960000003540392528782546086_" class="st43" d="M87.5,68.6c-4.1-1.4-7.5-1.9-9.6-5.1
							c-1.6-2.5-1.8-3.4-3.5-5.8c-0.5-0.6-3-1.9-4.3-2.6c-1.6-0.8-5.8-2.5-4-7.2c1.2-3,4.7-3.1,6.8-2.3c3.6,1.3,4.9,1.4,8.3,0.9
							c1.9-0.2,2.1-0.9,4-0.9c2.1,0.1,6.6,1.4,8.6,2.2"/>
					</g>
				</g>
				<g>
					<g>
						<path id="XMLID_00000173873028057923494980000012044895501357837707_" class="st43" d="M155,92.8L87.3,68.4
							c-3.2-0.9-4.5-6.2-2.8-12c1.7-5.7,5.5-9.6,8.7-8.8L160.9,72"/>
					</g>
				</g>
				<g>
					<g>
						
							<ellipse id="XMLID_00000158708511020330363680000009725648612006525370_" transform="matrix(0.2708 -0.9626 0.9626 0.2708 35.6674 212.0825)" class="st54" cx="157.8" cy="82.5" rx="10.8" ry="6"/>
					</g>
				</g>
				<path class="st45" d="M144.5,89.1c-3.2-0.9-4.5-6.2-2.8-12c1.7-5.7,5.5-9.6,8.7-8.8l-8.6-3.4c-3.2-0.9-7.1,3-8.7,8.8
					c-1.6,5.8-0.4,11.1,2.8,12L144.5,89.1z"/>
				<path class="st45" d="M101.7,73.9c-3.2-0.9-4.3-5.7-2.8-11.4c1.7-5.7,5.7-10,8.9-9.1l-6.9-2.6c-3.2-0.9-7.1,3-8.7,8.8
					s-0.4,11.1,2.8,12L101.7,73.9z"/>
			</g>
		</g>
		<g id="Layer_9" class="st3">
			<path class="st55" d="M58.7,126.4l68.1-42.9L188.5,23l44.3,6.4L209,52.7c0,0,35,45.5,34.3,46s-55.5,60.5-55.5,60.5L107.5,204
				l-38.2-46.7c0,0-19.9,12.5-20.5,12.1s-0.7-5.6-0.7-5.6L38,169.9L58.7,126.4z"/>
		</g>
		<path class="st6" d="M118.2,89.1c3.3-2.1,6.5-4.3,9.5-6.7c4.6-3.7,8.6-8,12.7-12.2c14.5-15,29.6-29.5,44.7-44c1-1,2-1.9,3.3-2.4
			c1.4-0.5,2.8-0.5,4.3-0.3c13.3,0.9,26.6,3,39.7,6c-21.6,19.2-41.8,40.1-60.3,62.3c-15.8-2.2-31.6-4.5-47.3-6.7
			c-1.8,12.6-3.7,25.3-5.5,37.9c-0.1,1-0.3,2-0.8,2.9c-0.7,1.1-1.8,1.8-2.9,2.5c-22.4,13.7-44.8,27.5-67.2,41.2
			c0.4-2.2,1.8-9.1,2.2-10.7c0.8-3.7,1.7-7.5,2.6-11.2c0.9-3.5,1.8-7.1,2.7-10.7c0.8-3.2,1.6-7,2.9-10c0.3-0.8,2.1-1.8,7.4-5.2
			c3.2-2.1,6.7-4.2,9.9-6.1c6.8-4.1,13.5-8.3,20.2-12.4C103.5,98.6,110.9,93.9,118.2,89.1z"/>
		<path class="st6" d="M209.4,53.3c11.8,14.9,23.2,30.2,34.1,45.7c-13.6,19.2-30.8,36.4-46.7,52.3c-7.6,7.6-8.8,8.1-17.4,13.3
			c-23.3,14.1-47.6,27.5-71.9,39.5c-15.1-17.2-27.6-33.4-37.5-46.6"/>
		<path class="st6" d="M130.3,87c19.1,22.2,37.9,47.5,55.9,70.6"/>
		<path class="st6" d="M58.2,127.5c-9.1,14.3-14.7,25.8-20.1,43.3c3.6-2.8,7.3-5.4,10.9-8.2"/>
		<path class="st9" d="M213.3,131.6c-3.4-4.3-6.8-8.6-10.2-12.9c3.8-4.5,8-8.6,11.9-13.2c4.3,4.7,7.2,8.8,11.3,14"/>
	</g>
	<g id="_x33_D" class="st0">
		<path class="st6" d="M-1.7,121.9c-0.1-1.1,132.9-59.5,134.6-60.2c1.8-0.8,42.4-63.3,46.7-69.4c4.3-6.1,11.2-5.8,15.2-4.6
			c3.7,1.2,14.4,9.4,19,19.5c1.6,3.4-1,8.5-5.5,7.1c-3.7-1.2-10.4-13.3-13-11.4c-3.9,2.7-18.1,27.2-18.1,27.2l1.3,43.8
			c0,0-13.5,26.2-14.1,27.1s-5.4,2.9-6.4,3.7s0.2,4.8-0.8,5.4c-6.2,3.5-52.9,18.5-56.1,18.3c-3.9-0.2-17.9-9.6-20.2-10.8
			c-3.7-2.2-8.6,0.4-8.6,4.8c0,2.3,3.2,11.4,2.5,13.7c-1.3,4.4-40,17.1-43.2,16.8c-0.6-0.1-4.4-2.6-5.3-2.8c-0.9-0.3-1.9,1.9-2.9,1
			C22.2,149.8-1.6,122.9-1.7,121.9z"/>
		<path class="st6" d="M-2.1,121.6C1,117.7,75.7,47,80.4,42.7c4.9-4.6,10.9-5.8,14.4-5.4c2.7,0.3,18,6.3,21.9,15c1.4,3-1,7.6-4.7,6
			c-2.9-1.1-13.5-8.7-16.3-6.4C92.6,54.5,63,84.5,63,84.5l-4,9"/>
		<line class="st6" x1="132.9" y1="61.6" x2="162.1" y2="100.5"/>
		<path class="st9" d="M112.8,80.5c-2.5,0.7-25.1,9.9-27.2,11.5c-9.7,6.9,14.5,27.4,22.2,25.2c3.6-1,23.4-7.4,27.1-8.8
			C146.8,103.8,125.4,76.7,112.8,80.5z"/>
		<path class="st9" d="M38.4,111.9c-2.1,0.5-18.3,7.1-20.8,8.5c-8.7,5.2,11.6,25.3,18.2,23.4c3-0.9,18.3-6.7,21.5-7.9
			C67.7,131.9,49.4,109.1,38.4,111.9z"/>
	</g>
	<g id="_x33_D_copy" class="st0">
		<path class="st6" d="M-25.3,55.9c0.6-1.1,160.5,18.4,162.5,18.8C139.3,75,213.5,38.4,221,35c7.5-3.4,14,0.8,17,4.3
			c2.8,3.2,8.4,17.2,7,29.3c-0.4,4.2-5.8,7.5-9.3,3.5c-2.7-3.2-2.4-18.6-6-18.3c-5.3,0.4-32.6,15.7-32.6,15.7L173.6,112
			c0,0-27.7,17.5-28.8,17.9s-6.8-0.3-8.2-0.1c-1.4,0.1-2.6,4.7-3.8,4.6c-8-0.1-60.9-12.3-63.8-14.3c-3.6-2.5-11.7-19.3-13.1-21.8
			c-2.3-4.1-8.5-4.5-10.9-0.3c-1.2,2.2-3.5,12.7-5.5,14.5c-3.6,3.3-47.7-6.5-50.7-8.5c-0.5-0.4-2.7-5-3.4-5.8
			c-0.7-0.8-2.8,0.7-3.3-0.7C-18.3,96.1-25.8,56.9-25.3,55.9z"/>
		<path class="st6" d="M-25.5,55.4c5.1-2,116.4-27,123.3-28.5c7.3-1.6,13.7,0.7,16.8,3c2.4,1.8,13.6,16.2,12.4,26.7
			c-0.4,3.6-5.2,6.6-7.9,3c-2.1-2.7-8-16-11.9-15.3c-4.5,0.7-49.7,12.5-49.7,12.5l-8.9,6.3"/>
		<line class="st6" x1="137.2" y1="74.7" x2="143" y2="128.3"/>
		<path class="st9" d="M107.3,81.2c-2.9-0.7-29.5-4.7-32.4-4.5c-13.1,1.1-1.7,34.3,6.8,36.6c4,1,26.5,6.1,30.9,7
			C126.6,122.7,121.6,84.7,107.3,81.2z"/>
		<path class="st9" d="M18.6,69.1c-2.3-0.6-21.5-3.6-24.7-3.6C-17.4,65.6-9.3,96.2-2,98.1c3.4,0.9,21.3,4,25,4.7
			C35.2,104.8,30.8,72.6,18.6,69.1z"/>
	</g>
	<g id="Animation" class="st0">
		<polygon class="st6" points="110.8,-11 81,-24.2 6.3,130.3 32.5,142.8 		"/>
		<polygon class="st6" points="180.5,47.9 158,24.3 35.7,146 56.7,167.2 		"/>
		<polyline class="st6" points="179.5,49.9 232.8,105.8 110.6,219.6 59.6,165.6 		"/>
		<line class="st9" x1="180.4" y1="73" x2="82.3" y2="166.2"/>
		<line class="st9" x1="200.2" y1="93.7" x2="102.1" y2="186.8"/>
		<line class="st9" x1="211.9" y1="105.2" x2="113.8" y2="198.3"/>
		<line class="st9" x1="151.8" y1="101.9" x2="170" y2="120.9"/>
		<line class="st9" x1="107.9" y1="142.8" x2="125.7" y2="161.9"/>
		<path class="st9" d="M167.3,100.6c0.9-0.3,1.8-0.6,2.4-1.2c0.6-0.7,0.8-1.7,0.9-2.6c0.2-1,0.7-1.9,1.6-2.1
			c0.4-0.1,0.8-0.1,1.2-0.2c1.5-0.4,1.8-2.7,3.3-3.3c0.3-0.1,0.8-0.2,1.2-0.3c1.3-0.6,1.2-2.7,2.6-3.2"/>
		<path class="st9" d="M175,105.1c-0.1-1.3,0.6-2.8,1.9-3.3c0.3-0.1,0.7-0.2,1-0.4c0.3-0.3,0.5-0.7,0.8-1.1c0.7-0.8,1.9-0.9,2.7-1.6
			c0.6-0.5,0.7-1.4,1-2s1.2-1.2,1.9-0.8"/>
		<path class="st9" d="M147.1,120.3c-1.7,0-3.1,1.2-4,2.6s-1.6,2.9-2.9,4c-0.9,0.7-1.9,1.2-2.7,1.8c-1,0.7-1.8,1.6-2.5,2.5
			c-1.9,2.3-3.9,4.6-5.8,6.8c-0.6,0.7-1.3,1.4-2.1,1.8c-0.5,0.2-1.1,0.3-1.7,0.5c-1.7,0.9-1.9,3.6-3.6,4.4"/>
		<path class="st9" d="M129.1,148.2c0-1.5,1.1-2.7,2.4-3.5s2.7-1.3,4-2c1.3-0.8,2.3-1.9,3.4-3c1-1,2-2,2.5-3.2
			c0.2-0.5,0.4-0.9,0.7-1.4c0.4-0.6,1.1-0.9,1.7-1.3c2-1.1,3.7-2.8,4.9-4.7"/>
		<path class="st9" d="M94,171.6c0.4-2,0.9-4.2,2.5-5.5s4-1.4,5.2-3.1c0.5-0.9,0.8-2.1,1.8-2.2c0.4-0.1,0.8,0,1.2-0.1
			c0.3-0.1,0.5-0.4,0.8-0.7c0.7-1,1.5-2,2.1-3"/>
		<path class="st9" d="M113.7,187.2c-0.4-1.2,0.8-2.4,2.1-2.9c1.2-0.5,2.6-0.7,3.4-1.8c0.7-0.8,0.7-1.9,1.3-2.8
			c0.8-1.3,2.8-2.1,2.8-3.6c0.5,0.1,0.9,0.3,1.1,0.8c1.4-1.3,2.8-2.7,4.1-4.1"/>
		<path class="st9" d="M150.8,152.3c2-6.1,10.6-7.6,13.3-13.4c0.2-0.5,0.5-1,0.8-1.4c0.4-0.3,0.9-0.5,1.4-0.7
			c2.1-0.8,3.9-2.6,4.7-4.8c0.2-0.5,0.4-1.1,0.7-1.4c0.6-0.7,1.4-0.8,2.2-1.2c1.7-0.7,2.9-2,4.2-3.3c0.8-0.8,1.5-1.7,2.4-2.5
			c1.4-1.5,2.8-3,4.2-4.5"/>
		<polygon class="st3" points="109,-9 61.9,17.2 54.1,32.3 101.7,6.8 		"/>
		<polygon class="st3" points="88.7,-21 76.2,-14.2 68.9,1.1 99.7,-15.5 		"/>
		<polygon class="st3" points="95.5,21.7 48.3,47.8 40.7,63 88.1,37.5 		"/>
		<polygon class="st3" points="77.7,54.7 30.6,80.9 22.9,96.1 70.4,70.5 		"/>
		<polygon class="st3" points="60.3,87.5 13.2,113.7 5.5,128.9 53,103.3 		"/>
		<polygon class="st3" points="44.5,119.6 17,134.9 27.2,140.6 36.5,135.5 		"/>
		<polygon class="st3" points="157,26.6 146.5,79.5 134.4,91.4 144.2,38.4 		"/>
		<polygon class="st3" points="174.7,42.3 171.9,56.2 159.6,67.8 166,33.5 		"/>
		<polygon class="st3" points="132.1,49.2 121.5,102.1 109.5,114 119.3,61 		"/>
		<polygon class="st3" points="105.9,75.8 95.3,128.6 83.2,140.6 93.1,87.6 		"/>
		<polygon class="st3" points="79.9,102.4 69.3,155.2 57.3,167.2 67,114.2 		"/>
		<polygon class="st3" points="54.2,127.2 48.1,158 39.5,150.2 41.5,139.7 		"/>
		<line class="st9" x1="175.4" y1="-43.5" x2="146.8" y2="-12.7"/>
		<line class="st9" x1="189.4" y1="-4.3" x2="163" y2="6.5"/>
		<line class="st9" x1="137.7" y1="-55.3" x2="126.1" y2="-27.7"/>
		<path class="st56" d="M196.8-3"/>
		<path class="st3" d="M168.6,9"/>
	</g>
	<g id="Animation_00000011739293302612624920000014059660964061508243_" class="st0">
		<g id="outline" class="st3">
			<polygon class="st5" points="32.5,1.5 102.4,181.8 224.2,88.6 69.1,-26.6 			"/>
			<polygon class="st57" points="102.4,181.8 159.8,193.4 227.3,141.1 224.2,88.6 			"/>
			<polygon class="st5" points="71.1,-6.3 52.1,9.1 108,143.4 137.4,120.5 135.5,99.8 155.5,107.1 186.5,82.4 			"/>
		</g>
		<g id="ticker" class="st3">
			<line class="st5" x1="118.4" y1="-39.3" x2="117.6" y2="-44.4"/>
			<line class="st5" x1="139.7" y1="101.3" x2="122.1" y2="-15.6"/>
			<polygon class="st5" points="101.1,-33.9 111.3,-16 132.9,-19.7 136.7,-39.7 			"/>
		</g>
		<g id="measures" class="st3">
			<line class="st30" x1="72" y1="15.9" x2="135.5" y2="99.8"/>
			<line class="st30" x1="73" y1="28.3" x2="84.6" y2="19.2"/>
			<line class="st30" x1="84.6" y1="44.8" x2="96.3" y2="35.7"/>
			<line class="st30" x1="97.1" y1="60.9" x2="108.8" y2="51.8"/>
			<line class="st30" x1="109.2" y1="77.1" x2="121" y2="68"/>
			<line class="st30" x1="121" y1="94.4" x2="132.7" y2="85.3"/>
		</g>
	</g>
	<g id="_x32_D" class="st0">
		<path class="st6" d="M97.3,99.9c-0.9-4.1-3.4-6.5-2.3-11C101.2,63.8,110.4,29,115.2,8c2.2-9.5,7-26.8,9.3-36.2
			c3.3-13.1,3.2-12.7,6.4-15.3c3.4-2.7,15.3-11.5,20.4-14.8c6-3.8,5-4.2,8.5,2.4c3.2,6.2,4.2,8.7,7,15c5.1,11.5,4.7,8.2,0.5,24
			c-8.3,31.8-21.5,80.6-31.6,115.4c-1.7,5.7-1.8,5.2-7.2,8.8"/>
		<path class="st58" d="M155.4-58.6c1.4,0.8,4.4,8.2,4.8,9.7c0.2,0.8-3.8,1.6-7.5,0.6c-3.1-0.9-5.9-3.7-5.4-4.3
			C148.2-53.9,154.4-59.2,155.4-58.6z"/>
		<line class="st59" x1="107.6" y1="95.1" x2="139.3" y2="-30.9"/>
		<line class="st9" x1="121.8" y1="99.9" x2="156.2" y2="-25.9"/>
		<path class="st9" d="M129.5-41.4c-0.9,3.6,3.2,8.5,9.9,7.5c1.2,3.5,5,5.4,8.2,6.4s5.6,0.6,8.7-1c4.4,3.9,12.5,0.6,13.8-4.4"/>
		<path class="st6" d="M90.5,105.6c-5.6,6.9-6.1,17.2-1.7,24.8c4.4,7.6,13.5,12.2,22.2,11.5c2.5-0.2,5-0.7,7.2-2
			c3.1-1.5,5.6-4.2,7.5-7c4-5.8,5.9-13.4,3.9-20.1C125.1,97.3,100.4,93.4,90.5,105.6z"/>
		<path class="st9" d="M98.2,111.9c-3.2,3.9-3.5,9.8-1,14.1c2.5,4.4,7.7,6.9,12.7,6.6c1.4-0.1,2.8-0.5,4.2-1.1
			c1.7-0.9,3.2-2.4,4.3-4c2.3-3.3,3.4-7.6,2.2-11.5C117.9,107.1,103.9,104.9,98.2,111.9z"/>
		<path class="st6" d="M85.8,127.8c-13-4.8-24.4-8.1-37.8-11.3c-1.9-0.5-4.2-2.6-3.8-4.5c0.3-1.2,2-1.7,3.3-1.8
			c-3-5.4-3.4-12.2-1.1-18c2.4-5.8,7.3-10.3,13.2-12.1c1.6-0.5,3.9-0.4,4.3,1.3c0.2,0.9-0.4,1.9-0.9,2.8c-3.3,5.7-0.3,13.3,4.9,17.4
			c5.2,4.1,11.9,5.4,18.4,6.6"/>
		<path class="st6" d="M123.3,137.4c13.7,2.6,25.1,5.7,38.1,10.1c1.9,0.6,5-0.1,5.5-1.9c0.3-1.2-0.8-2.4-1.9-3.2
			c5.3-3.1,9.2-8.6,10.3-14.8c1-6.1-0.9-12.7-5-17.2c-1.1-1.2-3.1-2.4-4.3-1.2c-0.7,0.7-0.6,1.8-0.6,2.8
			c-0.2,6.6-6.7,11.5-13.3,12.3s-13-1.6-19.1-4"/>
		<path class="st6" d="M89.9,134.3c-1.1,20.5-5.6,44.3-14.5,64.6c-1.3,2.9-2.6,5.9-2.2,8.9c0.9,5,9.8,7.4,14.9,7.6
			c3.3,0.2,6.9-0.7,8.8-3.4c1.3-1.9,1.5-4.2,1.7-6.6c2-22.5,8.4-44.6,18.6-64.8"/>
		<path class="st9" d="M90.2,149.1c4.8,4,11.2,6.7,18.5,5.7"/>
		<path class="st9" d="M87.6,164.7c6.1,3.9,11,4.9,18.2,4.6"/>
		<path class="st9" d="M83.7,180.8c5.3,2.7,11.2,4.1,17.2,4"/>
		<path class="st6" d="M78.6,196.2c6,4,13.8,5.4,20.7,3.5"/>
		<path class="st9" d="M84.1,117.2c-5.7-1.3-11.4-2.9-17-4.6c-2.3-0.7-4.5-1.5-6.5-2.8c-3.8-2.4-6.3-6.5-6.7-10.9"/>
		<path class="st9" d="M130.6,129.3c5.6,1.8,11.3,3.3,16.9,4.7c2.3,0.6,4.7,1.1,7.1,1c4.4-0.1,8.8-2.4,11.4-6"/>
		<path class="st9" d="M100.2,126.5c4.9-5.4,11.4-9.5,18.4-11.4"/>
		<path class="st9" d="M102.1,111.8c4.5,5.1,8.3,10.9,11.3,17"/>
	</g>
	<g id="Everything" class="st0">
		<g id="heart" class="st3">
			<path class="st35" d="M42.8,40.5C31.2,53,27.7,72.1,33.1,88.2C37.9,103,49.2,115,62.5,123s28.5,12.4,43.7,15.4
				c18.5,3.6,37.4,5.2,56.1,3.3c5.4-0.5,11-1.5,15.5-4.6c4.2-3,6.9-7.6,9.1-12.2c13.1-27.6,13-59.9,6.8-89.9c-1.4-7-3.2-14-6.2-20.6
				c-7.2-16-22.1-28.9-39.5-31.5s-38.5,6.5-46,22.4c-1.7,3.8-2.4,6.3-3,10.4c-0.8,5.8-0.3,10.3-1.3,14.7c-1.6,6.2-11.3-1.8-16.4-2.8
				C67.5,25.1,52.4,30.2,42.8,40.5z"/>
		</g>
		<g id="Layer_23" class="st3">
			<g>
				<g>
					<path id="XMLID_00000154384741056905611480000009164331945301209278_" class="st55" d="M250.4,84.2l-77.3-13.9
						c-1.5-0.2-2.8-1.2-3.6-2.8c1.8-2.2,3.4-5.5,3.8-9.2c0.5-4.8,0.7-7.6-0.3-10.6c0.9-0.6,1.8-0.8,2.7-0.7L253,60.8"/>
				</g>
			</g>
			<g>
				<g>
					<path id="XMLID_00000044155461908980460110000008728632422358899640_" class="st30" d="M174.3,47.3c0.7-0.3,0.6-0.5,1.4-0.4
						L253,60.8"/>
					<path id="XMLID_00000050628200781200605040000008360177928360007077_" class="st30" d="M250.4,84.2l-77.3-13.9
						c-1.3-0.2-2.1-0.6-3-2"/>
				</g>
			</g>
			<g>
				<g>
					
						<ellipse id="XMLID_00000043419272542832784870000002033762770891514522_" transform="matrix(0.1067 -0.9943 0.9943 0.1067 152.5512 315.017)" class="st60" cx="251.6" cy="72.6" rx="11.8" ry="6.5"/>
				</g>
			</g>
			<path class="st61" d="M238.5,82.1c-3.6-0.4-6-5.9-5.3-12.4s4.1-11.3,7.8-11l-9.9-2.1c-3.6-0.4-7.1,4.6-7.8,11
				c-0.7,6.5,1.7,12,5.3,12.4L238.5,82.1z"/>
			<path class="st61" d="M189.6,73.5c-3.6-0.4-5.7-5.4-5.1-11.8c0.7-6.5,4.4-11.7,7.9-11.4l-7.8-1.6c-3.6-0.4-7.1,4.6-7.8,11
				c-0.7,6.5,1.7,12,5.3,12.4L189.6,73.5z"/>
		</g>
		<g id="Layer_27_copy_2" class="st3">
			<path class="st30" d="M159.7,75.8c6.7-1.3,9.9-5.8,12.3-12.1c1.8-5.1,2.7-10.5,2.2-15.8c-0.6-5.3-2-9.5-5.8-13.3"/>
			<path class="st30" d="M175,82.7c1.2-6.2-1.1-9.5-5-12.5"/>
			<path class="st30" d="M174.7,47.1c4.5-0.6,8.6-4.5,7.5-11.6"/>
		</g>
		<g id="Layer_23_copy" class="st3">
			<g>
				<g>
					<path id="XMLID_00000091002657052226280760000014981285410027381950_" class="st43" d="M129.6,111.2c0.8,2,1.5,2,2,4
						c0.6,2.3,0.5,7.4,0.2,9.7"/>
					<path id="XMLID_00000026122712618725891690000016661577392349640856_" class="st43" d="M108.3,124.4c0.3-4.7-0.2-8.5,2.6-11.6
						c1.4-1.7,2.4-2.4,3.4-3.5"/>
				</g>
			</g>
			<g>
				<g>
					<path id="XMLID_00000141420563084093370260000001184979726973597083_" class="st43" d="M102.3,202.4l6-78.3
						c0-3.6,5.3-6.5,11.9-6.5c6.5,0,11.7,3,11.7,6.6l-6,78.3"/>
				</g>
			</g>
			<g>
				<g>
					
						<ellipse id="XMLID_00000068665490834423270110000001614266894838992564_" transform="matrix(5.627066e-03 -1 1 5.627066e-03 -89.0427 315.2794)" class="st62" cx="114" cy="202.4" rx="6.5" ry="11.8"/>
				</g>
			</g>
			<path class="st61" d="M103.2,190.3c0-3.6,5.3-6.5,11.9-6.5c6.5,0,11.7,3,11.7,6.6l1.1-10.1c0-3.6-5.2-6.6-11.7-6.6
				s-11.8,2.8-11.9,6.5L103.2,190.3z"/>
			<path class="st61" d="M106.8,140.8c0-3.6,4.7-6.2,11.2-6.2s12.1,3.1,12.1,6.7l0.8-7.9c0-3.6-5.2-6.6-11.7-6.6s-11.8,2.8-11.9,6.5
				L106.8,140.8z"/>
		</g>
		<g id="Layer_27_copy_3" class="st3">
			<path class="st30" d="M102.4,102c6.1,7.7,35.1,10.4,43.8,4.5"/>
			<path class="st30" d="M99.8,112.9c6.3,0.6,7.9-0.6,10.4-4.7"/>
			<path class="st30" d="M133.7,110.9c1.4,3.7,5.4,6,12.3,6.5"/>
		</g>
		<g id="Layer_23_copy_2" class="st3">
			<g>
				<g>
					<path id="XMLID_00000031913609600418535380000017780927310963067066_" class="st55" d="M-3.7,104.6l55.3-25.5l11.9,20.4
						L7.7,125.2"/>
				</g>
			</g>
			<g>
				<g>
					<path id="XMLID_00000065037916043182766800000002181175471271369138_" class="st30" d="M63.4,99.5L7.6,125.2"/>
					<path id="XMLID_00000064320509432827778710000003987003283839990919_" class="st30" d="M-3.7,104.6l55.3-25.5"/>
				</g>
			</g>
			<g>
				<g>
					
						<ellipse id="XMLID_00000026874385010017141970000005539207354889540534_" transform="matrix(0.8761 -0.4821 0.4821 0.8761 -55.1082 15.136)" class="st63" cx="1.9" cy="114.8" rx="6.5" ry="11.8"/>
				</g>
			</g>
			<path class="st61" d="M7.2,99.5c3.2-1.8,8.3,1.5,11.5,7.2c3.1,5.7,3.1,11.7-0.1,13.4l9.4-4c3.2-1.8,3.2-7.8,0.1-13.4
				c-3.2-5.7-8.2-9-11.5-7.2L7.2,99.5z"/>
		</g>
		<g id="Layer_27_copy" class="st3">
			<path class="st30" d="M54.8,68.4c-4.1,5.4-3.5,10.9-1,17.2c2,5,4.9,9.6,9,13.2c4,3.5,7.8,5.7,13.1,6.1"/>
			<path class="st30" d="M38.8,73.4c3.2,5.4,7.2,6.4,12,6"/>
			<path class="st30" d="M62.8,99.8c-3,3.4-3.4,9.1,2.1,13.7"/>
		</g>
	</g>
	<g id="Cart" class="st0">
		<g id="XMLID_00000141414121396062475340000005628409339610063536_" class="st3">
			<g>
				<polygon class="st5" points="100.3,57.2 -2.8,115 80.9,25.9 179.2,-32.6 				"/>
			</g>
		</g>
		<g class="st3">
			<g id="XMLID_00000076601301826495710750000015137867375941634193_">
				<g>
					<polygon class="st5" points="100.3,57.2 179.3,-32.5 248.9,58.8 181.1,159.5 72.1,207 -2.8,115 					"/>
					<line class="st5" x1="100.3" y1="57.2" x2="181.1" y2="159.5"/>
				</g>
			</g>
		</g>
		<path id="XMLID_00000003085756882917894730000009234513899640500357_" class="st9" d="M37.3,92.2L53.1,84l10.8,13.8
			c-3.3,3.3-12.4,7.6-15.7,8L37.3,92.2z"/>
		<g class="st3">
			<g>
				<polygon id="XMLID_00000160898277922636178810000003287860956929497254_" class="st30" points="53.1,84 133.8,-5.5 116.3,5 
					37.3,92.2 				"/>
			</g>
		</g>
		<polygon class="st9" points="129.1,182.4 115.3,188 103.4,172.8 116.6,166.7 		"/>
	</g>
	<g id="murals" class="st0">
		
			<ellipse transform="matrix(0.8996 -0.4366 0.4366 0.8996 -25.7482 19.7482)" class="st64" cx="30.1" cy="65.9" rx="6.8" ry="18.5"/>
		<path class="st42" d="M125.4,122.3c-8.5,3-10.4,14.1-8.3,22c2.2,8.3,7.9,15.2,12.4,22.6c4.6,7.4,8.1,15.4,10.5,23.8
			c2.6,9,3.9,18.7,8.8,26.6c4.9,8,15.1,14,23.7,10.3c8.8-3.7,11.6-15.3,9.1-24.5s-8.7-16.8-13.7-24.9c-4.7-7.6-8.4-15.8-11-24.3
			c-2.4-8.2-4-17-9-24C143,123.1,133.7,119.4,125.4,122.3z"/>
		<path class="st19" d="M122.5,128.3c-2.6-4.9-3.7-8.8-5.4-13.1c-2.5-6.2-7.6-3.9-12.8-1.6c-5.2,2.2-25.4,11.5-48.4,19.8
			s-33.1,1.1-39.2-9c-3.9-6.5-9.8-19.5-14.2-31.4c-6.3-16,3.3-24.7,8.7-27.4c3.4-1.8,5.4-2.4,12.5-5.3c7-2.8,11.9,8.6,5.6,11.8
			c-5.3,2.8-5.4,2.4-9.6,4.4c-4.9,2.6-7.3,6.7-3.4,14.8c3,7.2,7.6,18.2,12.4,26.2c4.7,7.9,14.5,6.7,22.4,4.2
			c6.1-1.7,43.6-18,52.9-21.7s16.3-3.1,20.2,1.3c3.9,4.4,7.6,15.3,9.9,22.1C135.7,128.9,125.1,133.2,122.5,128.3z"/>
		<path class="st6" d="M11.7,64.7c-2.6-2.4-2.5-7.1,0.1-9.5C9,52.4,8.1,48,9.5,44.4c1.4-3.7,5.1-6.3,9-6.5c-1-3.1,0-6.8,2.5-9
			s6.3-2.6,9.3-1.2c0.9-6.3,9.1-10.1,14.5-6.9c1.7-5.6,9.3-8.4,14.3-5.4c2.4-6.2,10.5-9.5,16.6-6.7C79,3.2,86.5,0.9,92.3,3.5
			c2-6.1,10.1-9.1,15.6-5.9c2.1-4.9,8.5-7.6,13.4-5.6c2.8-4.8,10.2-6.1,14.5-2.6c2.1-5.6,10.1-7.7,14.6-3.9
			c3.4-4.5,11.9-2.9,13.4,2.5c2-0.9,4.7-0.3,6,1.5s1.2,4.5-0.3,6.2c3.5-1.2,7.8,0.3,9.7,3.5s1.5,8.8-1.3,11.3c4.3-1,8.4,3.3,8.6,7.7
			s-2.6,8.4-5.8,11.4c3.5,0.9,4.8,5.7,3.2,8.9s-5.4,4.9-9,5.2c0.6,3.2-1.1,6.6-3.9,8.2c-2.8,1.6-6.6,1.2-9-0.9
			c-1.8,5.2-8.6,8.1-13.6,5.7c-0.6,3.5-3.2,6.5-6.6,7.5c-3.4,1-7.3,0-9.7-2.6c0,3.2-2,6.3-4.9,7.7c-2.9,1.4-6.5,1.1-9.1-0.8
			c-2.3,6.8-11.5,10.2-17.6,6.4c-1.5,6.4-10.3,9.7-15.7,5.8c-0.3,3.1-2.5,6-5.5,7s-6.5,0-8.6-2.4C70.4,90.8,64,95,58.8,93
			c-0.8-0.3-1.6-0.7-2.4-0.6c-1.3,0.3-1.9,1.8-2.7,3c-2.6,4.2-9.7,4.4-12.5,0.3c-1.9,3.2-6.5,4.6-9.9,3c-3.4-1.5-5.2-5.8-4-9.3
			c-2.3,0.7-4.8-0.8-6.5-2.6c-2.6-3.2-3.5-6.3-2.2-9.5"/>
		<path class="st9" d="M35.7,40c4.9,0,10.1,5.8,9.3,8.7c-0.4,1.6-0.7,2.9,0.3,4.2c0.4,0.6,1,0.9,1.6,1.3c2.8,1.8,4.4,5.4,3.8,8.7
			c-0.1,0.4-0.2,0.8-0.1,1.3c0.2,0.6,0.7,1,1.3,1.3c3.3,2.3,3,8.5,0.5,12.1"/>
	</g>
	<g id="characters" class="st0">
		<path class="st3" d="M0,32.2l14.8,12.5c0,0,5.5-8.6,5.6-15.7s-4-19.3-4-19.3L-1.2,24.3C-3.7,26.6-2.8,30.1,0,32.2z"/>
		<path class="st2" d="M211.8-14.2L46-16.4L-1.5,24.7c-1.9,1.6-1.9,4.6-0.1,6.3l46.5,43l165.8,2.2l15-24.2l0.4-38.3L211.8-14.2z"/>
		<path class="st2" d="M14.3,44.3c7.2-9.2,7.8-21.1,2.9-31.6"/>
		<path class="st2" d="M44.6,72.2c7.7-4.6,15.6-16.5,10.4-23.8c7.7-9.9,7.5-25.1-0.4-34.8c6.6-8.4,0.9-21.1-6-29.3"/>
		<line class="st65" x1="56.6" y1="13.4" x2="224.5" y2="15.7"/>
		<line class="st66" x1="57" y1="48.5" x2="224.5" y2="50.7"/>
		<line class="st9" x1="161.8" y1="77.9" x2="161.8" y2="174.6"/>
		<line class="st9" x1="150.7" y1="77.9" x2="150.7" y2="179.1"/>
		<path class="st9" d="M150.1,180.4c-1.2-0.5-2.5-1.3-3.7-0.7c-0.5,0.3-0.8,0.7-1.1,1.2c-3.2,4.8-4.9,10.6-5.4,16.3
			c-0.6,5.8-0.1,11.6,0.6,17.4c0.2,1.3,0.4,2.6,1.1,3.7c0.7,1.1,1.9,1.8,3.1,2.3c4,1.7,8.5,1.9,12.6,3.1c6.1,1.9,11.2,6,17.1,8.6
			c8.4,3.8,18.3,4.1,27,0.9c2-0.7,3.9-1.7,5.6-3c4.4-3.5,6.4-9.6,5.5-15.1c-0.3-1.6-0.7-3.1-1.5-4.5c-2.2-3.8-6.7-5.6-11-6.6
			s-8.8-1.4-12.7-3.4c-3.5-1.8-6.3-4.7-7.8-8.3c-2.1-4.9-2-10.8-5.2-15.1c-0.6-0.8-1.3-1.5-2.2-1.9c-0.8-0.3-1.7-0.4-2.5-0.4
			c-2.8,0-5.6,0.6-8.1,1.8c-1.1,0.5-2.2,1.1-2.8,2.1c-0.5,0.8-0.3,1.7-1,2.2C155.9,182.4,151.7,181.2,150.1,180.4z"/>
		<path class="st26" d="M142.1,212.6c7.3,0.9,14.5,2.9,21.6,5.7c4.3,1.7,7.2,4.1,10.7,5.9c2.9,1.5,7.2,2.9,10.4,3.3
			c4.5,0.5,8.3,0,12.7-0.9c4.5-0.9,8-3.9,10.5-7.7c2.1-3.2,2.5-7.9-0.3-10.4"/>
		<path class="st26" d="M170.2,221c1.2-3.5,3.6-6.5,6.6-8.8s6.4-3.8,9.9-5.1c4.8-1.8,10.3-2.9,15.1-1.5"/>
		<path class="st26" d="M159.2,180.8c-0.1,3.6,1.1,7.2,1.8,10.6c0.4,1.9,1,3.8,1.8,5.5c1.3,3.1,3.6,5.8,6.1,8.1s5.3,4.3,8.1,6.2"/>
		<path class="st26" d="M178,192.2c-2.6-0.4-5.3,0-7.7,1.1s-4.4,3-5.6,5.3"/>
		<path class="st26" d="M168.2,203.4c0.2-2,1.6-3.8,3.3-4.9c1.7-1.1,3.8-1.5,5.8-1.9c1.3-0.2,2.7-0.4,3.8,0.2"/>
		<path class="st26" d="M171.5,206.6c0.8-2.4,2.8-4.4,5.1-5.5s4.9-1.4,7.5-1.3"/>
		<path class="st26" d="M189.7,202.8c-5.2-0.1-12.7,1.8-14.1,7.2"/>
		<path class="st26" d="M144.2,185.6c2.1,1.7,4.6,3.1,7.3,3.6c2.7,0.6,5.6,0.3,8-1"/>
		<path class="st26" d="M142.3,191.6c2.8,2,6.2,3.3,9.7,3.7c3,0.3,6.2-0.1,8.7-1.8"/>
		<line class="st9" x1="110.2" y1="77.9" x2="110.2" y2="174.6"/>
		<line class="st9" x1="121.8" y1="77.9" x2="121.8" y2="179.1"/>
		<path class="st9" d="M121.9,180.4c1.2-0.5,2.5-1.3,3.7-0.7c0.5,0.3,0.8,0.7,1.1,1.2c3.2,4.8,4.9,10.6,5.4,16.3
			c0.6,5.8,0.1,11.6-0.6,17.4c-0.2,1.3-0.4,2.6-1.1,3.7c-0.7,1.1-1.9,1.8-3.1,2.3c-4,1.7-8.5,1.9-12.6,3.1c-6.1,1.9-11.2,6-17.1,8.6
			c-8.4,3.8-18.3,4.1-27,0.9c-2-0.7-3.9-1.7-5.6-3c-4.4-3.5-6.4-9.6-5.5-15.1c0.3-1.6,0.7-3.1,1.5-4.5c2.2-3.8,6.7-5.6,11-6.6
			s8.8-1.4,12.7-3.4c3.5-1.8,6.3-4.7,7.8-8.3c2.1-4.9,2-10.8,5.2-15.1c0.6-0.8,1.3-1.5,2.2-1.9c0.8-0.3,1.7-0.4,2.5-0.4
			c2.8,0,5.6,0.6,8.1,1.8c1.1,0.5,2.2,1.1,2.8,2.1c0.5,0.8,0.3,1.7,1,2.2C116.2,182.4,120.3,181.2,121.9,180.4z"/>
		<path class="st26" d="M130,212.6c-7.3,0.9-14.5,2.9-21.6,5.7c-4.3,1.7-7.2,4.1-10.7,5.9c-2.9,1.5-7.2,2.9-10.4,3.3
			c-4.5,0.5-8.3,0-12.7-0.9c-4.5-0.9-8-3.9-10.5-7.7c-2.1-3.2-2.5-7.9,0.3-10.4"/>
		<path class="st26" d="M101.9,221c-1.2-3.5-3.6-6.5-6.6-8.8s-6.4-3.8-9.9-5.1c-4.8-1.8-10.3-2.9-15.1-1.5"/>
		<path class="st26" d="M112.9,180.8c0.1,3.6-1.1,7.2-1.8,10.6c-0.4,1.9-1,3.8-1.8,5.5c-1.3,3.1-3.6,5.8-6.1,8.1s-5.3,4.3-8.1,6.2"
			/>
		<path class="st26" d="M94,192.2c2.6-0.4,5.3,0,7.7,1.1c2.4,1.1,4.4,3,5.6,5.3"/>
		<path class="st26" d="M103.9,203.4c-0.2-2-1.6-3.8-3.3-4.9c-1.7-1.1-3.8-1.5-5.8-1.9c-1.3-0.2-2.7-0.4-3.8,0.2"/>
		<path class="st26" d="M100.6,206.6c-0.8-2.4-2.8-4.4-5.1-5.5c-2.3-1.1-4.9-1.4-7.5-1.3"/>
		<path class="st26" d="M82.4,202.8c5.2-0.1,12.7,1.8,14.1,7.2"/>
		<path class="st26" d="M127.9,185.6c-2.1,1.7-4.6,3.1-7.3,3.6s-5.6,0.3-8-1"/>
		<path class="st26" d="M129.7,191.6c-2.8,2-6.2,3.3-9.7,3.7c-3,0.3-6.2-0.1-8.7-1.8"/>
		<path class="st26" d="M105.1,181.1c-4.2-0.8-5,4.9-2,6.1C107.5,189,109,182.1,105.1,181.1z"/>
		<path class="st26" d="M166.8,180.7c4.2-0.8,5,4.9,2,6.1C164.4,188.6,162.9,181.7,166.8,180.7z"/>
		<path class="st8" d="M116.2,23c4.4-2,9.3-4.5,10.7-9.2c1.6-5.1-3-11.2-8.3-11c-5.4,0.1-9.7,6.2-8,11.3s8.9,7.4,13.2,4.2"/>
		<path class="st8" d="M161.6,24.5c-4.4-2-9.3-4.4-10.8-9.1c-1.6-5.1,2.8-11.2,8.2-11.2s9.8,6.1,8.2,11.2s-8.8,7.5-13.1,4.4"/>
		<path class="st3" d="M128.1,66.2c-5.6-1.2-11.3-2.9-15.8-6.6c-4.5-3.6-7.7-9.4-6.7-15c0.8-5.2,5.2-9.6,10.4-10.5
			c3.2-0.5,6.5,0.2,9.6,1.3c3.1,1.1,6,2.6,9.1,3.7c5.4,1.9,11.3,2.5,16.8,0.8c3.1-1,6.1-2.6,9.2-3.7s6.7-1.5,9.6,0.1
			c2.7,1.4,4.4,4.4,5.2,7.3c2,6.9-0.2,15.2-6.3,19c-2.9,1.9-5.4,2.7-6.9,3"/>
		<g class="st3">
			<g>
				<path id="XMLID_00000109749178673106510650000009165714078355767211_" class="st55" d="M115.7,62c-1-0.9,0-1.1,0.6-2.3
					c1.2-2.4,6.9-6.1,11.3-6.5c4.9-0.4,10,1.7,14,4.9c2.1-1,6.2-1.9,8.5-1.5c6.1,1.2,9.8,4.8,14.1,12.7c3.4,6.3,4.2,17,3,20.4
					c-1.2,3.4-3.2,10.7-14.9,11.1c-4.6,0.2-15.2-4-19.7-14.6c-2.4-5.6-2.4-18.4-4.3-19.9C126.4,64.8,117.2,63.4,115.7,62z"/>
			</g>
		</g>
		<g class="st3">
			<g>
				<path id="XMLID_00000009589110535574318770000016365680274453246387_" class="st55" d="M110,37.6c3.8-4.8,11.7-3.7,15.9-2
					s11,5.3,20.9,5.1c3.8-0.1,12.1-3.8,16.7-5.1c4.3-1.3,8.8,1.1,10.4,3.9c0.9,1.7-3,4.2-6.3,3.6s-5.1-4.5-6.2-5.7
					c-0.1,3.8-1.6,9.2-6.4,9.3c-3.4,0.2-6.3-1.2-8-5.6c-0.6-0.1-1.1,7.1-7.7,6.6c-7.2-0.1-10.4-7-10.2-9.8c-1.4,1.5-1.6,5.4-9.4,5.6
					C116.6,43.5,110.1,40.4,110,37.6z"/>
			</g>
		</g>
		<path class="st9" d="M128.1,66.2c-5.6-1.2-11.3-2.9-15.8-6.6c-4.5-3.6-7.7-9.4-6.7-15c0.8-5.2,5.2-9.6,10.4-10.5
			c3.2-0.5,6.5,0.2,9.6,1.3c3.1,1.1,6,2.6,9.1,3.7c5.4,1.9,11.3,2.5,16.8,0.8c3.1-1,6.1-2.6,9.2-3.7s6.7-1.5,9.6,0.1
			c2.7,1.4,4.4,4.4,5.2,7.3c2,6.9-0.2,15.2-6.3,19c-2.9,1.9-5.4,2.7-6.9,3"/>
		<path class="st9" d="M115.1,60.9c2.4-3.7,6-6.5,10.3-7.4c4-0.8,8.1,0,11.8,1.6c1.5,0.7,2.9,1.5,4.2,2.4c4.7,3.5,7.1,9.4,8,15.2"/>
		<path class="st9" d="M142.9,57.7c3.2-2.1,7.5-2,11-0.4s6.1,4.5,8.2,7.8c4,6,6,13.3,5.8,20.5c-0.1,2.3-0.3,4.6-1.1,6.7
			c-2.2,5.6-8.3,8.9-14.4,8.7c-6.1-0.2-12-3.3-15.7-8.1c-3.8-4.8-5.4-10.6-6.2-16.7c-0.7-4.9-1.2-10.2-3.9-14.3"/>
		<path class="st9" d="M174.1,42.4c-1.5,2.2-4.6,3.2-7.2,2.4c-2.6-0.8-4.8-3.6-5.3-6.3"/>
		<path class="st9" d="M161.3,38.3c1.9,4.9-1,8.5-4,9.8c-0.7,0.3-1.5,0.5-2.3,0.5c-1.7,0.1-3.4-0.1-4.9-1c-1.4-0.9-2.5-2.5-2.5-4.1"
			/>
		<path class="st9" d="M147.3,43.6c-0.1,5.1-5.6,6.1-8.7,5.9c-2.7-0.1-4.5-0.8-6.4-2.6c-2-1.8-3.1-4.5-3-7.2"/>
		<path class="st9" d="M129.3,39.3c-0.5,1.4-1.6,2.8-2.5,3.7c-1,0.8-2.3,1.4-3.6,1.7c-2.4,0.6-4.9,0.6-7.2-0.2s-4.4-2.3-5.7-4.4"/>
		<path class="st8" d="M70.5,170.4c-3,1.3-7.3,1.4-8.2-10.2c-0.5-6.5-0.1-12.4,4-17.4c2.5-3.1,6.1-5.3,7.3-7.6
			c1.9-3.4,1.3-8.5,1.2-12.8c-0.6-16.2-0.8-35.6,0-51.8c0.4-8.2,11.1-8.5,10.5,0.4c-1.1,17.1-0.6,38.2-0.4,55.3
			c0.1,6.5,0,9,5.2,12.9c4,3,6.9,7.8,7.2,13.2c0.1,1.5-0.2,5.9-1.3,6.9c-2.5,2.4-4.9,1.5-6.4-1c-0.7-1.1-0.4-3.3-0.7-4.5
			c-0.2-1.2-0.3-3.4-1.6-3.3c-1.8,2.9-2.2,9.8-0.8,12.9c1.4,3.1,1.7,3.4,2.4,6.7c0.5,2.6-0.3,5.2-3.5,5.4c-2.9,0.2-5-3.1-5.7-4.7
			c-2-4.4-2.7-8.3-2.5-13.1"/>
		<path class="st9" d="M69.3,155.5c0,3.3,0.2,6.6,0.8,9.8c0.4,2.1,1.5,4.4,2.9,6.1c1.4,1.7,3.9,2.7,6,1.9"/>
		<path class="st67" d="M78.3,147.7c0.8,1,1.5,2.1,2,3.2"/>
		<path class="st67" d="M81.2,148.3c-1.3,0.5-2.6,1.3-3.5,2.4"/>
		<path class="st67" d="M69.8,146c0.8,1,1.5,2.1,2,3.2"/>
		<path class="st67" d="M72.7,146.5c-1.3,0.5-2.6,1.3-3.5,2.4"/>
		<path class="st9" d="M247.6,46.4c-0.4-2.6-0.6-6.9-0.4-9.9c0.1-1.3,0-2.7-0.6-3.9c-0.6-1.2-1.6-2.2-3-2c-3,0.3-3.5,3.4-3.7,5.8
			c-0.4,4.7-0.2,7.6,0.4,12.3"/>
		<path class="st8" d="M254.6,34.7c0.6-2,2.3-2.4,3.6-2.3c1.3,0,2.2,0.9,2.8,2.1c0.5,1.2,0.6,2.6,0.5,3.9c-0.2,3-0.2,6.8,0.1,9.4
			c0.2,1.5,0.6,4.2,0.6,5.1c0.1,3.9-0.3,9.1-3,13.3c-2.6,3.9-2.1,8.4-2.2,13.5c-0.1,17.2-5.6,45.2-27.1,46.3
			c-19.8,1-41.9-16.1-40.4-52c0.3-6.6,9.1-6.4,9.3-0.8c1,28.2,12,41.1,28.2,41.8c19.2,0.8,20.3-34.5,19.9-39.4
			c-0.3-4.6-1.8-7-3.4-8.6c-3.1-3-6.7-4.7-7.2-9c-0.3-3.1,0.9-4.2,2.7-6.8c0.5-0.8,1.1-1.6,2-2c2.1-0.9,4.4-0.4,5.1,2
			c0.6,2.2-0.4,2.9-1.8,4.7c2,0.8,2.8,1.8,3.8,3.8"/>
		<path class="st9" d="M254.4,46.2c-0.4-2.6-0.3-6.4-0.1-9.4c0.1-1.3,0-2.7-0.5-3.9c-0.5-1.2-1.4-2-2.8-2.1c-1.4,0-3.5,0.8-3.8,3.2"
			/>
		<path class="st9" d="M245.9,48.8c2.7-0.8,6.8-1.1,9.7-0.1"/>
	</g>
	<g id="illo_photos" class="st0">
		<path class="st6" d="M3,83.3c2.9,13.6,43.9,148.3,46.7,159.4c37.2-24.1,117.1-53.6,161.6-62.1C201,157.6,154.2,39,148.9,25.8
			C121.8,15.8,14.8,57.4,3,83.3z"/>
		<path class="st6" d="M17.8,86.5c2.6,12.1,26.8,90.9,29.8,100.4c33.2-21.6,91.3-42.8,131-50.4c-8.2-21.5-33.3-86.4-38.1-98.2
			C117.2,31.7,29.1,65.7,17.8,86.5z"/>
		<path class="st9" d="M62.5,176c-3.3-5.8-6.7-11.7-8.2-18.2s-0.7-13.9,3.5-19c2-2.4,4.6-4.3,5.9-7.2c1.9-4.4-0.4-9.4-2.7-13.6
			c-3.3-5.9-7-11.7-9.3-18.1s-1.8-14.3,0.6-20.7c3.8-9.9,12.3-14.8,22.3-18.4c6.9-2.5,14.7-2.1,21.3-0.2c5.9,1.7,11,5.8,14.6,10.9
			s5.7,11,6.8,17.1c0.7,3.9,1.1,8,2.4,11.8s3.5,7.5,7.1,9.4c4.1,2.1,9.1,1.5,13.6,2.4c6,1.2,11.2,5.2,15,10
			c3.7,4.9,5.6,9.2,7.4,16.2"/>
		<path class="st9" d="M70.1,84.4c-3.1,5.5-4.7,9.1-6.7,15.1"/>
		<path class="st9" d="M59.4,89.1c5.1,1.5,10.1,3.8,14.6,6.7"/>
		<path class="st9" d="M91.3,75.3c2.8-0.4,5.7,1.8,6.1,4.7s-1.8,5.7-4.7,6.1c-2.8,0.4-5.7-1.8-6.1-4.7
			C86.3,78.6,88.5,75.7,91.3,75.3"/>
		<path class="st9" d="M69.9,110c0.4,2.9,3.2,5.3,6.1,5.3c0.9,0,1.8-0.2,2.7,0c1,0.2,1.9,0.9,2.8,1.4c4.1,2.3,9.8,0.8,12.4-3.1
			c1-1.6,1.6-3.5,3.1-4.6c2.2-1.6,5.3-0.9,7.8-2c2.3-1.1,3.6-3.8,3.6-6.4c0-2.6-1-5.1-2.1-7.4"/>
		<path class="st9" d="M104.3,116.8"/>
		<path class="st9" d="M48.1,128.3"/>
		<path class="st9" d="M36.7,107.5c0,4.4,0.1,6.5,0.5,10.9c1.9-2.2,4-4.3,6.3-6.1c1.1,5.6,1.8,10.3,2.7,16.6"/>
		<path class="st9" d="M115.6,60.9c-1.2-0.6-2-1.7-2.6-2.8c-0.9-1.5-1.4-3.3-1.3-5c0.1-2.4,1.4-4.7,3.2-6.4c1.8-1.7,4.1-2.7,6.4-3.5
			c2.5-0.8,5.2-1.3,7.6-0.3c2.6,1.1,4.3,3.9,4.4,6.7c0.1,2.8-1.2,5.6-3.1,7.6c1.1,2.2,2.2,4.5,3.3,6.8c-3.6,1.4-7.1,3.1-10.4,5.1
			c-0.9-2.1-2.1-4.8-3.1-6.9C119.6,61.9,117.9,62.1,115.6,60.9z"/>
		<path class="st9" d="M118.4,52.2c0.4,1,0.4,1.1,0.8,2.1"/>
		<path class="st9" d="M123.9,49.3c0.4,1.2,0.4,1.1,0.8,2.3"/>
		<path class="st9" d="M77,154.1c1.8,4.1,3.7,8.1,5.7,12.1"/>
		<path class="st9" d="M131,131.4c2.4,4.8,4.4,9.9,6,15"/>
		<path class="st9" d="M135.8,98.9c0.8,5.2,4.4,6.8,8.9,6.7c2.2-0.1,4.2-1.6,6.4-2c3.5-0.5,7.2,1.5,8.7,4.7c0.6,1.4,0.9,2.9,1.6,4.2
			c0.7,1.3,2.2,2.4,3.6,2"/>
		<path class="st9" d="M24.7,89.2c5-1.2,10-2.3,15-3.5"/>
		<path class="st9" d="M35.4,81c2.5,0.7,4.9,1.9,7,3.5c-0.9,2.5-2.2,4.8-3.7,6.9"/>
		<g id="Illustration_00000111164102676681167460000002213428338470021041_" class="st3">
			<g>
				<g>
					<path id="XMLID_00000126280959969285652970000018119541038997896878_" class="st35" d="M176.1,78.9c-4.1,4.8-6.6,9.3-12.3,10.5
						c-4.3,0.9-5.6,0.7-9.9,1.8c-1.1,0.3-4.2,3.1-5.9,4.6c-2,1.8-6.5,6.6-12,1.6c-3.6-3.3-1.6-8.2,0.5-10.5
						c3.8-4.3,4.6-6.1,5.7-10.9c0.7-2.8-0.1-3.4,1-6c1.3-2.9,5.5-8.4,7.7-10.7"/>
				</g>
			</g>
			<g>
				<g>
					<path id="XMLID_00000101071175492072465330000001081494338709757853_" class="st35" d="M245.7-1l-70,80.1
						c-3,3.9-11.1,2.8-18.1-2.5s-10.3-12.7-7.4-16.7l70-80.1"/>
				</g>
			</g>
			<g>
				<g>
					
						<ellipse id="XMLID_00000060030610177604936440000009888709644306114456_" transform="matrix(0.6027 -0.798 0.798 0.6027 100.9612 181.7635)" class="st68" cx="233" cy="-10.5" rx="8.9" ry="15.9"/>
				</g>
			</g>
			<path class="st69" d="M234.9,11.4c-3,3.9-11.1,2.8-18.1-2.5s-10.3-12.7-7.4-16.7l-9.3,10.1c-3,3.9,0.3,11.4,7.4,16.7
				c7,5.3,15.1,6.5,18.1,2.5L234.9,11.4z"/>
			<path class="st69" d="M191,62.2c-3,3.9-10.2,3-17.2-2.3s-10.7-13.2-7.7-17.1l-7.3,8c-3,3.9,0.3,11.4,7.4,16.7s15.1,6.5,18.1,2.5
				L191,62.2z"/>
		</g>
	</g>
	<g id="yay">
		<line class="st70" x1="15.8" y1="25.5" x2="57.6" y2="77.8"/>
		<line class="st70" x1="94.3" y1="15" x2="15" y2="187.2"/>
		<line class="st70" x1="163.6" y1="44.2" x2="197.8" y2="91"/>
		<line class="st70" x1="236.1" y1="28" x2="179" y2="146.5"/>
		<polyline class="st70" points="73.1,161.4 124,59.5 151.5,198 		"/>
		<line class="st70" x1="90.8" y1="142.3" x2="133.1" y2="139.1"/>
		<path class="st71" d="M249.3,86.9c-0.9,11.1-1.4,12.9-2.8,23.9"/>
		<path class="st71" d="M243.6,141.8c0-0.2-0.4-0.4-0.5-0.2s-0.1,0.5,0.2,0.5c-0.9,0.3-1.9-0.5-1.8-1.4c0.1-0.9,1.2-1.5,2-1.1
			c0.8,0.4,0.9,1.7,0.1,2.2"/>
	</g>
	<g id="yay_00000059288563277608870370000005574163110803836566_" class="st0">
		<line class="st72" x1="23.4" y1="31.7" x2="60" y2="79.3"/>
		<line class="st72" x1="94" y1="23.7" x2="19.8" y2="176.8"/>
		<line class="st72" x1="149.3" y1="55.5" x2="179.2" y2="98.1"/>
		<line class="st72" x1="214.7" y1="42.2" x2="155.2" y2="157.7"/>
		<polyline class="st72" points="67.9,154.6 112,61.6 137.6,188.8 		"/>
		<line class="st72" x1="84.3" y1="129.7" x2="122.2" y2="127.6"/>
		<path class="st72" d="M240.9,74.9c-1.7,16.9-3.8,33.7-6.2,50.4"/>
		<g class="st3">
			<g>
				<path class="st73" d="M117.9,35.6c3.6,0.8,6.9,2.3,9.8,4.4c2.2-3.1,5-5.7,8.5-7.6c4.7-2.7,10.2-3.9,15.7-3.4
					c7.9,0.7,14.9,4.8,19.4,11.2l8.4,11.9l11.4-22.2c6.7-13.1,22.8-18.2,35.9-11.5l0,0c10.7,5.5,16.1,17.3,14,28.6l0,0l0,0.4
					c0,0.3,0.2,0.6,0.6,0.6c0.7,0,1.3,0.1,2.1,0.2l0,0c7.1,0.7,13.5,4.1,18,9.7c4.5,5.5,6.6,12.4,5.9,19.5
					c-1.7,17.2-3.9,34.6-6.4,51.7c-0.8,5.3-3.1,10.2-6.5,14c2,3.8,3.2,8,3.4,12.5c0.4,9.9-4.2,19.1-12.3,24.7
					c-1.1,0.7-2.2,1.4-3.3,2c-1.1,0.6-2.3,1.1-3.4,1.5c-3.3,1.2-6.7,1.7-10.1,1.6l0,0c-6.2-0.1-12.1-2.2-17.1-6.1
					c-7.8-6.1-11.9-15.5-11-25.3c0.7-7.2,4.1-13.8,9.3-18.6c-1.8-4.4-2.5-9.2-1.8-14c0.6-4,1.1-7.8,1.6-11.8l-1.1,2.1l-30,58.2
					c-3.3,6.3-8.7,10.9-15.2,13.1l0.1,0.6c2.9,14.4-6.5,28.5-20.9,31.4c-1.9,0.4-3.9,0.6-5.8,0.5c-12.4-0.2-23.2-9.2-25.6-21.4
					l-7.8-38.8l-6.8,0.4L91.9,166c-3,6.4-8.4,11.3-15.1,13.7c-7.4,2.6-15.5,1.9-22.4-2.1c-1.2-0.7-2.3-1.5-3.3-2.3
					c-0.4-0.3-0.9-0.2-1.2,0.2l-0.2,0.4l0,0l-6,12.4c-4.5,9.3-14.2,15.3-24.6,15c-3.8-0.1-7.5-1-11-2.6c-5.8-2.8-10.4-7.6-12.9-13.6
					c-3-7.2-2.9-15.1,0.5-22.1l37.3-77L2.2,47.9C-2.2,42.2-4,35.2-3.1,28.1c0.9-7,4.5-13.4,10.2-17.7c11.7-9,28.4-6.8,37.4,4.9
					l14.6,19L69.9,12c6.8-14,24.2-19.4,37.8-11.2c4.7,2.8,8.4,7,10.6,12c3.1,7.1,3.1,14.9-0.1,21.9L117.9,35.6z"/>
			</g>
		</g>
		<path class="st72" d="M230.5,158.2c0-0.4-0.5-0.6-0.8-0.4c-0.3,0.2-0.1,0.8,0.3,0.8c-1.3,0.4-2.9-0.8-2.7-2.1
			c0.1-1.4,1.9-2.3,3.1-1.6c1.2,0.7,1.2,2.7,0.1,3.5"/>
	</g>
</g>
<g id="Functional" class="st0">
	<g id="Plus_line" class="st3">
		<path class="st30" d="M137.9,100.4c0,14.1-9.9,25.4-25,25.9c-14.2,0.5-25.5-8.2-25.8-23.7s10.4-27.4,25.7-27.7
			C127,74.8,137.9,85.2,137.9,100.4z"/>
		<path class="st74" d="M112.9,87.5c-0.6,8.9-0.8,17.9-0.4,26.8"/>
		<path class="st74" d="M99.5,100.6c8.6-0.6,17.3-0.9,26-0.9"/>
	</g>
	<g id="Plus_filled" class="st3">
		<path class="st31" d="M137.9,100.4c0,14.1-9.9,25.4-25,25.9c-14.2,0.5-25.5-8.2-25.8-23.7s10.4-27.4,25.7-27.7
			C127,74.8,137.9,85.2,137.9,100.4z"/>
		<path class="st75" d="M112.9,87.5c-0.6,8.9-0.8,17.9-0.4,26.8"/>
		<path class="st75" d="M99.5,100.6c8.6-0.6,17.3-0.9,26-0.9"/>
	</g>
	<g id="Minus_line" class="st3">
		<path class="st30" d="M137.9,100.4c0,14.1-9.9,25.4-25,25.9c-14.2,0.5-25.5-8.2-25.8-23.7s10.4-27.4,25.7-27.7
			C127,74.8,137.9,85.2,137.9,100.4z"/>
		<path class="st74" d="M99.5,100.6c8.6-0.6,17.3-0.9,26-0.9"/>
	</g>
	<g id="Minus_filled" class="st3">
		<path class="st31" d="M137.9,100.4c0,14.1-9.9,25.4-25,25.9c-14.2,0.5-25.5-8.2-25.8-23.7s10.4-27.4,25.7-27.7
			C127,74.8,137.9,85.2,137.9,100.4z"/>
		<path class="st75" d="M99.5,100.6c8.6-0.6,17.3-0.9,26-0.9"/>
	</g>
	<g id="Close_black" class="st3">
		<path class="st30" d="M137.9,100.4c0,14.1-9.9,25.4-25,25.9c-14.2,0.5-25.5-8.2-25.8-23.7s10.4-27.4,25.7-27.7
			C127,74.8,137.9,85.2,137.9,100.4z"/>
		<path class="st74" d="M121.1,111.2c-5.3-7.2-11.1-14.1-17.2-20.6"/>
		<path class="st74" d="M121.6,91.2c-6.5,5.4-13.2,12-18.5,18.5"/>
	</g>
	<g id="Close_white" class="st3">
		<path class="st32" d="M137.9,100.4c0,14.1-9.9,25.4-25,25.9c-14.2,0.5-25.5-8.2-25.8-23.7s10.4-27.4,25.7-27.7
			C127,74.8,137.9,85.2,137.9,100.4z"/>
		<path class="st75" d="M121.1,111.2c-5.3-7.2-11.1-14.1-17.2-20.6"/>
		<path class="st75" d="M121.6,91.2c-6.5,5.4-13.2,12-18.5,18.5"/>
	</g>
	<g id="Radio_unchecked" class="st3">
		<path class="st30" d="M137.9,100.4c0,14.1-9.9,25.4-25,25.9c-14.2,0.5-25.5-8.2-25.8-23.7s10.4-27.4,25.7-27.7
			C127,74.8,137.9,85.2,137.9,100.4z"/>
	</g>
	<g id="Radio_checked" class="st3">
		<path class="st30" d="M137.9,100.4c0,14.1-9.9,25.4-25,25.9c-14.2,0.5-25.5-8.2-25.8-23.7s10.4-27.4,25.7-27.7
			C127,74.8,137.9,85.2,137.9,100.4z"/>
		<path class="st31" d="M125.3,100.6c0,7.1-5,12.8-12.6,13c-7.1,0.3-12.8-4.1-13-11.9c-0.1-7.8,5.2-13.8,12.9-13.9
			C119.8,87.7,125.3,92.9,125.3,100.6z"/>
	</g>
	<g id="Error_Black" class="st3">
		<path class="st30" d="M137.9,100.4c0,14.1-9.9,25.4-25,25.9c-14.2,0.5-25.5-8.2-25.8-23.7s10.4-27.4,25.7-27.7
			C127,74.8,137.9,85.2,137.9,100.4z"/>
		<path class="st74" d="M112.3,84.7c0.1,6.6,0.2,11.1,0.3,17.7"/>
		<g>
			<path d="M112.7,120.5c-2.9,0-5.3-2.3-5.3-5.2s2.4-5.2,5.3-5.2c2.9,0,5.3,2.3,5.3,5.2S115.6,120.5,112.7,120.5z"/>
		</g>
	</g>
	<g id="Error_Black_copy" class="st3">
		<path class="st32" d="M137.9,100.4c0,14.1-9.9,25.4-25,25.9c-14.2,0.5-25.5-8.2-25.8-23.7s10.4-27.4,25.7-27.7
			C127,74.8,137.9,85.2,137.9,100.4z"/>
		<path class="st75" d="M112.3,84.7c0.1,6.6,0.2,11.1,0.3,17.7"/>
		<g>
			<path class="st55" d="M112.7,120.5c-2.9,0-5.3-2.3-5.3-5.2s2.4-5.2,5.3-5.2c2.9,0,5.3,2.3,5.3,5.2S115.6,120.5,112.7,120.5z"/>
		</g>
	</g>
	<g id="Menu_black" class="st3">
		<path class="st5" d="M94.5,78.7c12.8-0.5,26.4-0.3,39.2,0"/>
		<path class="st5" d="M94.5,98.7c12.8-0.5,26.4-0.3,39.2,0"/>
		<path class="st5" d="M94.5,118.8c12.8-0.5,26.4-0.3,39.2,0"/>
	</g>
	<g id="Menu_whiteopy" class="st3">
		<path class="st76" d="M94.5,78.7c12.8-0.5,26.4-0.3,39.2,0"/>
		<path class="st76" d="M94.5,98.7c12.8-0.5,26.4-0.3,39.2,0"/>
		<path class="st76" d="M94.5,118.8c12.8-0.5,26.4-0.3,39.2,0"/>
	</g>
	<g id="Drop_down" class="st3">
		<path class="st31" d="M95,83.8c-2.8,0.8,16.6,36,18.6,36.4c1.4,0.3,6.1-9.1,11.3-18.1c8.2-14.1,9.9-16.7,7.9-17.5
			C129.4,83.2,99.9,82.3,95,83.8z"/>
	</g>
	<g id="heckbox_unchecked" class="st3">
		<path class="st30" d="M134,79.8c-2.1-1.5-39.7-1.6-40.7,0.3c-1.4,2.8-2.3,39.8,0,42.6c1,1.2,39.2,1.7,40.4,0.3
			C135.1,121.3,136,81.2,134,79.8z"/>
	</g>
	<g id="heckbox_checked" class="st3">
		<path class="st30" d="M134,79.8c-2.1-1.5-39.7-1.6-40.7,0.3c-1.4,2.8-2.3,39.8,0,42.6c1,1.2,39.2,1.7,40.4,0.3
			C135.1,121.3,136,81.2,134,79.8z"/>
		<path class="st74" d="M102.6,104.4c4,2.5,7.7,5.3,11.3,8.5c7.9-15.8,16.4-29.6,24.9-41.8"/>
	</g>
</g>
</svg>
