<?xml version="1.0" encoding="utf-8"?>
<!-- Generator: Adobe Illustrator 27.7.0, SVG Export Plug-In . SVG Version: 6.00 Build 0)  -->
<svg version="1.1" id="Layer_1" xmlns="http://www.w3.org/2000/svg" xmlns:xlink="http://www.w3.org/1999/xlink" x="0px" y="0px"
	 viewBox="0 0 282.4 214.9" style="enable-background:new 0 0 282.4 214.9;" xml:space="preserve">
<style type="text/css">
	.st0{display:none;}
	.st1{display:inline;fill:#FFFFFF;}
	.st2{display:inline;fill:none;stroke:#000000;stroke-width:7;stroke-linecap:round;stroke-linejoin:round;}
	.st3{display:inline;}
	
		.st4{fill:none;stroke:#000000;stroke-width:5;stroke-linecap:round;stroke-linejoin:round;stroke-miterlimit:10;stroke-dasharray:12.0086;}
	.st5{fill:none;stroke:#000000;stroke-width:7;stroke-linecap:round;stroke-linejoin:round;stroke-miterlimit:10;}
	.st6{display:inline;fill:none;stroke:#000000;stroke-width:7;stroke-linecap:round;stroke-linejoin:round;stroke-miterlimit:10;}
	.st7{display:inline;stroke:#000000;stroke-width:5;stroke-linecap:round;stroke-linejoin:round;stroke-miterlimit:10;}
	
		.st8{display:inline;fill:#FFFFFF;stroke:#000000;stroke-width:5;stroke-linecap:round;stroke-linejoin:round;stroke-miterlimit:10;}
	.st9{display:inline;fill:none;stroke:#000000;stroke-width:5;stroke-linecap:round;stroke-linejoin:round;stroke-miterlimit:10;}
	
		.st10{display:inline;fill:none;stroke:#000000;stroke-width:6;stroke-linecap:round;stroke-linejoin:round;stroke-miterlimit:10;stroke-dasharray:9.0067;}
	
		.st11{display:inline;fill:#FFFFFF;stroke:#000000;stroke-width:6.6669;stroke-linecap:round;stroke-linejoin:round;stroke-miterlimit:10;}
	.st12{display:inline;stroke:#000000;stroke-width:5.2082;stroke-linecap:round;stroke-linejoin:round;stroke-miterlimit:10;}
	
		.st13{display:inline;fill:none;stroke:#000000;stroke-width:5.2082;stroke-linecap:round;stroke-linejoin:round;stroke-miterlimit:10;}
	
		.st14{display:inline;fill:none;stroke:#000000;stroke-width:7.2914;stroke-linecap:round;stroke-linejoin:round;stroke-miterlimit:10;}
	
		.st15{display:inline;fill:#FFFFFF;stroke:#000000;stroke-width:7.2914;stroke-linecap:round;stroke-linejoin:round;stroke-miterlimit:10;}
	
		.st16{display:inline;fill:#FFFFFF;stroke:#000000;stroke-width:5.2082;stroke-linecap:round;stroke-linejoin:round;stroke-miterlimit:10;}
	.st17{fill:none;stroke:#FFFFFF;stroke-width:5.2082;stroke-linecap:round;stroke-linejoin:round;stroke-miterlimit:10;}
	.st18{fill:none;stroke:#FFFFFF;stroke-width:3.1249;stroke-linecap:round;stroke-linejoin:round;stroke-miterlimit:10;}
	
		.st19{display:inline;fill:#FFFFFF;stroke:#000000;stroke-width:7;stroke-linecap:round;stroke-linejoin:round;stroke-miterlimit:10;}
	
		.st20{display:inline;fill:#FFFFFF;stroke:#000000;stroke-width:4.9998;stroke-linecap:round;stroke-linejoin:round;stroke-miterlimit:10.0001;}
	
		.st21{display:inline;fill:#FFFFFF;stroke:#000000;stroke-width:6.8393;stroke-linecap:round;stroke-linejoin:round;stroke-miterlimit:10;}
	.st22{display:inline;fill:none;stroke:#000000;stroke-width:7;stroke-miterlimit:10;}
	.st23{display:inline;stroke:#000000;stroke-width:0.5798;stroke-miterlimit:10;}
	.st24{display:inline;stroke:#000000;stroke-width:0.6254;stroke-miterlimit:10;}
	.st25{display:inline;fill:none;stroke:#000000;stroke-width:3;stroke-linecap:round;stroke-linejoin:round;stroke-miterlimit:10;}
	.st26{fill:none;stroke:#000000;stroke-width:5;stroke-linecap:round;stroke-linejoin:round;stroke-miterlimit:9.9999;}
	
		.st27{display:inline;fill:none;stroke:#000000;stroke-width:2.5869;stroke-linecap:round;stroke-linejoin:round;stroke-miterlimit:10;}
	.st28{display:inline;stroke:#000000;stroke-width:3;stroke-linecap:round;stroke-linejoin:round;stroke-miterlimit:10;}
	.st29{fill:none;stroke:#000000;stroke-width:5;stroke-linecap:round;stroke-linejoin:round;stroke-miterlimit:10;}
	.st30{stroke:#000000;stroke-width:5;stroke-linecap:round;stroke-linejoin:round;stroke-miterlimit:10;}
	.st31{fill:none;stroke:#FFFFFF;stroke-width:5;stroke-linecap:round;stroke-linejoin:round;stroke-miterlimit:10;}
	.st32{fill:none;stroke:#FFFFFF;stroke-width:4.2881;stroke-linecap:round;stroke-linejoin:round;stroke-miterlimit:10;}
	.st33{display:inline;fill:none;stroke:#000000;stroke-width:15;stroke-linecap:round;stroke-linejoin:round;stroke-miterlimit:10;}
	.st34{fill:#FFFFFF;stroke:#000000;stroke-width:7;stroke-linecap:round;stroke-linejoin:round;stroke-miterlimit:10;}
	.st35{fill:none;stroke:#000000;stroke-width:6.9997;stroke-linecap:round;stroke-linejoin:round;stroke-miterlimit:10.0005;}
	.st36{display:inline;stroke:#000000;stroke-width:3.517;stroke-linecap:round;stroke-linejoin:round;stroke-miterlimit:10;}
	.st37{display:inline;fill:none;stroke:#000000;stroke-width:20;stroke-linecap:round;stroke-linejoin:round;stroke-miterlimit:10;}
	
		.st38{display:inline;fill:none;stroke:#000000;stroke-width:21.283;stroke-linecap:round;stroke-linejoin:round;stroke-miterlimit:10;}
	
		.st39{display:inline;fill:none;stroke:#000000;stroke-width:20.5052;stroke-linecap:round;stroke-linejoin:round;stroke-miterlimit:10;}
	
		.st40{display:inline;fill:none;stroke:#000000;stroke-width:7.449;stroke-linecap:round;stroke-linejoin:round;stroke-miterlimit:10;}
	.st41{display:inline;stroke:#000000;stroke-width:7;stroke-linecap:round;stroke-linejoin:round;stroke-miterlimit:10;}
	.st42{fill:#FFFFFF;stroke:#000000;stroke-width:5;stroke-linecap:round;stroke-linejoin:round;stroke-miterlimit:10;}
	.st43{fill:none;stroke:#000000;stroke-width:3.5322;stroke-linecap:round;stroke-linejoin:round;stroke-miterlimit:10.0005;}
	.st44{stroke:#000000;stroke-width:1.7747;stroke-linecap:round;stroke-linejoin:round;stroke-miterlimit:10;}
	.st45{fill:#FFFFFF;}
	.st46{display:inline;stroke:#000000;stroke-width:3.0358;stroke-linecap:round;stroke-linejoin:round;stroke-miterlimit:10;}
	.st47{display:inline;fill:none;stroke:#000000;stroke-width:5.0451;stroke-linecap:round;stroke-linejoin:round;}
	.st48{display:inline;fill:none;stroke:#000000;stroke-width:5;stroke-linecap:round;stroke-linejoin:round;}
</style>
<g id="Pointing_Hand" class="st0">
	<path class="st1" d="M117.2-3.6C97.7-0.4,48.9,41.8,47.5,87.7c-0.8,25.8,24.5,41,28.7,46c1.8,7.2-2.8,75.9,0.1,98.3
		c2.1,16.4,13.8,41.3,27,40.9c14-0.4,19.9-13.7,19.9-27.7s-3.5-34.4-3.5-42.5c0-8.1-1.2-33.7-0.3-37c5.5,1.4,11.6,9.3,19.3,8.8
		c6.9-0.5,12.8-8.2,18.4-9.6c4.3-1,7.4,10.4,18.6,12.2c8.3,1.3,15.7-9.8,18-9.8c5.4,0,8,11.6,20.6,8.9c21.2-4.5,19.5-41.5,18.1-52.3
		s-6.4-64.4-10.5-77.2C217,31.6,206.4,11,183.2,4.5C170.2,0.8,134.2-6.3,117.2-3.6z"/>
	<path class="st2" d="M124.8,45.6c-3.2,17.5-14.9,33.3-30.8,41.3c10.5,5.6,19.3,14.2,25.2,24.5c3.5,6.1,5.9,13.5,3.4,20
		c-3.6,9.1-15.4,12.1-25.1,10.6c-17.7-2.7-32.4-15.6-42.1-30.7c-3.5-5.4-6.5-11.3-7.5-17.7c-1.5-8.4,0.6-17.2,3.6-25.4
		c7.2-20.1,19.3-38.4,35-52.9c8.6-8,18.5-14.9,29.7-18S165.1-4.1,191,8.4c28.8,15.2,36.1,38.4,40.6,115.4"/>
	<path class="st2" d="M119.1,164.4c-2.9,26.6,4.3,53.3,3.8,80c-0.1,6-0.6,12.2-3.2,17.7s-7.5,10.1-13.5,10.9
		c-9.6,1.2-17.5-7.6-21.7-16.4c-8.3-17.5-9-37.6-9.1-56.9c-0.1-21.2,0.5-42.4,1.7-63.6"/>
	<path class="st2" d="M114.9,139.8c-0.5,6.7-0.2,12.5,2.1,18.8s6.8,12.1,13.1,14.5c10.5,4.1,22.8-2.4,28.6-12
		c5.9-9.6,6.7-21.4,6.3-32.6c-0.3-9.1-1.3-18.6-6.1-26.4s-14.3-13.3-23.1-10.9c-9.1,2.5-14.3,12.2-15.5,21.6"/>
	<path class="st2" d="M158.7,161.5c2.5,7.1,7.6,14.2,15,15.5c7.9,1.4,15.5-4.5,19.8-11.2c9.6-15.1,8.3-35.3,0.8-51.5
		c-3.1-6.8-7.6-13.4-14.4-16.4s-16.3-0.8-19.1,6.1"/>
	<path class="st2" d="M194,164.9c2.5,7.1,5.9,10.8,13.4,12c7.9,1.4,15.5-4.5,19.8-11.2c9.6-15.1,8.3-35.3,0.8-51.5
		c-3.1-6.8-7.6-13.4-14.4-16.4s-17.8-0.1-20.6,8.3"/>
</g>
<g id="Newsletter" class="st0">
	<g id="dotted_line" class="st3">
		<path class="st4" d="M52.6,85.7c-46.5,11.7-69.3,63-26.4,93.5c63.4,34,69.8-50.6,152.8-44.9c58.5,0.6,82.9,54.4,62.8,80.3
			c-40.1,52-92.1-29-128.9,13.8c-12.6,14.6-17.2,24.8-17.1,40"/>
	</g>
	<g id="plane" class="st3">
		<polyline class="st5" points="267.6,56.7 41.5,114.7 82.9,71 278,55.5 127.1,107.6 109.7,98.4 		"/>
		<path class="st5" d="M106.2,45.6L278,55.5l-139.4-31L106.2,45.6c0,0,11.5,20.9,11.9,21.6"/>
	</g>
</g>
<g id="LinkedIn_NOT" class="st0">
	<path class="st6" d="M70.8,0.8C60.6,67.5,27.2,168.3,8.4,210.7c53.7,27.9,82,39.6,142.8,57.3c12.6,4.3,61.2-18.8,68.3-28.6
		c18.4-40.4,48.6-136.7,55.7-182C207.7,44.7,132.4,23.2,70.8,0.8z"/>
	<path class="st6" d="M149.6,267.2c9.8,2,18.8-37.3,29.4-40c7.5-0.8,28.8,18.8,39.6,12"/>
	<path class="st7" d="M99,90.2c-3.2,10.6-18.5,58.8-26.6,77c6.5,4.7,17.6,8.1,23.1,9c7.1-16.6,21.9-56,27.7-76.7
		C120.3,96,105.8,91,99,90.2z"/>
	<path class="st7" d="M136.8,104.2c-6.9,23.3-20.1,60.6-26.6,77c6.5,4.7,17.6,8.1,23.1,9c5.3-10.9,21.9-56,27.7-76.7
		C158.1,110,143.6,105,136.8,104.2z"/>
	<path class="st7" d="M157,122.2c2.9-1.8,9.4-9.7,28.8-3.7c36.8,11.6,12.4,52-0.8,90.3c-9.1-0.8-21.5-6.3-24.1-8.2
		c6.6-15.8,12.6-31.6,14.8-39.6c4.8-17.4,1.4-21.8-4.5-24.2c-6.8-2.7-15.1-1.1-18.7,4.1C148.3,145,157,122.2,157,122.2z"/>
	<path class="st7" d="M133.1,73.9c-2.4,7.4-9.1,12-17.8,9c-7.4-2.5-11.7-10.4-9.2-17.7c2.8-8.3,9.8-11.6,18.6-8.7
		C132.1,59,135.4,66.6,133.1,73.9z"/>
</g>
<g id="LinkedIn_00000150104747717848862800000002388172020763015823_" class="st0">
	<path class="st6" d="M56.3,28.5c4.2,110.2,1.1,161.2-43.6,235.3c9.3,0.5,20.4,1.4,31.8,1.4c6.7-7.3,11.7-16.4,19.1-34.4
		c1.8,0,20.1-1.2,25.9-1c-4.8,17.3-12.6,27.8-19.1,37.5c8.6-0.1,21.5,0.3,30.5,0c8.5-9.3,13.6-21.4,18.4-38
		c5.2-0.2,26.3-0.9,31.5-1.2c-3.5,17.1-12.3,28.1-17.6,37.1c12.9-0.8,26.6-1,34.9-2.8c5.2-9.7,13.1-21.3,15.4-36.4
		c5.9-0.4,27.3-2.7,32.6-3.1c-3.4,18.3-13,28.5-16.4,36.9c16.7-1.6,25.9-1.3,33.4-3c15.6-20.3,40.1-111.6,20.9-251.6
		C174.1,4.1,117.8,15.4,56.3,28.5z"/>
	<path class="st7" d="M97.8,90.9c1,16.9-2.4,56.1-8.7,82.9c7.3,1.7,18.9,0.4,24.4-1.1c4.9-18,10.8-60.8,9.8-83.1
		C119.8,87.6,104.6,88.9,97.8,90.9z"/>
	<path class="st7" d="M137.7,88.4c0.8,25.7-3.8,63.1-8.7,82.9c7.3,1.7,18.9,0.4,24.4-1.1c4.3-14.2,10-61.6,9.8-83.1
		C159.6,85.1,144.4,86.4,137.7,88.4z"/>
	<path class="st7" d="M161.3,96.9c2.4-2.9,7.7-11.7,30.1-13.2c37.4-0.2,25.2,62.5,19.8,83.1c-9,3-22.3,2.9-25.2,2.3
		c4.2-18.7,5.8-33.2,6.1-41.6c0.8-18.2-7.3-23-13.7-22.8c-7.2,0.3-14.9,5.2-17.3,11.5C157.9,121.8,161.3,96.9,161.3,96.9z"/>
	<path class="st7" d="M127.3,61.7c-0.7,7.9-6.2,14.9-15.3,15.8c-7.8,0.7-13.7-4.9-12.9-12.8c0.9-8.9,6.9-14.9,16.1-15.8
		C123,48.2,127.9,53.8,127.3,61.7z"/>
	<line class="st6" x1="156.6" y1="28.5" x2="136.4" y2="16.5"/>
	<path class="st8" d="M140.4,5.2c5.1,1.7,7.4,6.7,4.2,14.3c-2.6,6.3-8.5,9.4-13.7,7.3c-4.5-1.8-6.2-6.9-3.6-12.9
		C130,7.9,134.6,3.2,140.4,5.2z"/>
	<path class="st9" d="M169.1,21.1c-7.8,4.2-13,12.9-13,21.8"/>
	<path class="st9" d="M157,31.3c-3.7-0.4-7.7,1.5-9.6,4.6"/>
	<path class="st9" d="M159.1,26c-1.2-2-1.5-4.5-0.8-6.7"/>
	<path class="st10" d="M42.2,209.8c26.2,1.1,70.4-0.4,106.9-1.8c36.6-1.4,78.7-4.1,105.9-7.4"/>
</g>
<g id="Cara" class="st0">
	<path class="st11" d="M142.5,132.2c19.7,12.2,120.8,6.1,118-72c-1.8-50.9-68.5-62-110-52.7c-37.7,8.4-91.9,30.6-101.7,123.7
		c-14.2,135.6,186.4,171.2,211.3,78.9c15.1-56.2-54-76.2-69-74.6"/>
</g>
<g id="instagram_NOT" class="st0">
	<path class="st12" d="M228,20.7c0.3-2.9,0.8-5.1,6.2-6.8c6.5-2.1,34.7-2.6,41.2,2.9s6.5,33.2,1.8,40s-21.5,4.4-21.5,4.4L228,20.7z"
		/>
	<path class="st1" d="M244.5,129.2c-1.2-19.1-2.4-34.7-2.6-42.6c-0.2-5.3-2.2-17.4,7.4-22.4c9.7-5,15.6-8.3,19.4-11.8
		c3.2-2.9,3.2-22.5,0.6-27.1c-2.9-5-31.2-4.7-35.3-4.4s-4.2,1.6-8.8,2.4c-7.4,1.2-3.5-5.3-26.5-8.5c-9.1-1.3-87.2-5.6-98.2-4.4
		C84.2,12.1,71,14.8,63.9,23.9"/>
	<path class="st1" d="M243.6,92.7c5,3.2,28.2,21.5,28.2,27.1s-0.9,42.4-8.2,46.5c-8.5,4.7-86.8,33.5-93.8,33.2
		c-7.1-0.3-137.6-21.1-139.4-23.2c-3.2-3.8-6.5-16.5-7.6-26.2c-1.2-9.7-1.3-29.6,1.2-31.8c3.2-2.9,37.6-19.7,37.6-19.7
		c0-10.9-0.4-57.1,0-65.6c0.6-12.4,11.8-14.7,36.5-14.4c24.7,0.3,85.6,3.8,100.6,5.9s25.9,8,27.4,25c1.5,17.6,1.2,70.9,0.9,85.3"/>
	<path class="st13" d="M244.5,129.2c-1.2-19.1-2.4-34.7-2.6-42.6c-0.2-5.3-2.2-17.4,7.4-22.4c9.7-5,15.6-8.3,19.4-11.8
		c3.2-2.9,3.2-22.5,0.6-27.1c-2.9-5-28.2-4.9-32.4-4.6c-2.2,0.2-7,1.3-9,2c-5.7,2-2.6-2.6-16.1-5.9c-3.2-0.8-7.4-1.5-13.1-2.1
		c-9.2-1-87.2-5.6-98.2-4.4C84.2,12.1,71,14.8,63.9,23.9"/>
	<path class="st14" d="M243.6,92.7c5,3.2,28.2,21.5,28.2,27.1s-0.9,42.4-8.2,46.5c-8.5,4.7-86.8,33.5-93.8,33.2
		c-7.1-0.3-137.6-21.1-139.4-23.2c-3.2-3.8-6.5-16.5-7.6-26.2c-1.2-9.7-1.3-29.6,1.2-31.8c3.2-2.9,37.6-19.7,37.6-19.7
		c0-10.9-0.4-57.1,0-65.6c0.6-12.4,11.8-14.7,36.5-14.4c24.7,0.3,85.6,3.8,100.6,5.9s25.9,8,27.4,25c1.5,17.6,1.2,70.9,0.9,85.3"/>
	<path class="st14" d="M271.9,119.8c-13.5,6.8-85.3,30-91.8,30.6S27.2,129.5,23.3,128.9"/>
	<path class="st14" d="M23.9,118.3c3.8,0.3,142.6,20,154.7,19.4c5.6-0.3,40.6-14.7,47.6-17.9"/>
	<path class="st14" d="M178.6,137.7c1.5,5.9,1.2,52.6-6.5,60.3"/>
	<line class="st14" x1="60.1" y1="99.5" x2="224.5" y2="117.1"/>
	<path class="st15" d="M52.2,151.1c-23.8,11.6-50.6,61.4-49.4,98.4c31.2,4.7,87.6,13.5,123.8,19.1c-2.6-59.1,22.6-85.9,34.4-96.2"/>
	<path class="st12" d="M69.5,153.1c-16.4,7.5-39.1,32.4-47.4,69.4c26.2,3.8,60.2,9,90.2,13.7c3.5-31,18.6-58.1,38-71.1"/>
	<polyline class="st14" points="39.5,158.3 39.2,148.6 163.9,166.3 163.1,181 154.5,180.1 	"/>
	<polygon class="st13" points="177.8,37.1 178.9,65.9 208.9,69.8 208,40.4 	"/>
	<polyline class="st13" points="207.5,60.4 188.8,58.2 188,38.9 	"/>
	<path class="st13" d="M79,78.8c2.2-1.1,4.2-1.7,6.1-1.7c3-0.1,5.4,1.9,5.9,5.4c0.5,2.8,0,5.6-4.2,7.1c-0.8,0.3-2,0.8-4.6,1.1"/>
	<path class="st13" d="M87.2,83.9c0.3,3.5-1.6,6.5-4.9,6.7c-4,0.2-6.5-2.3-6.8-5.9c-0.3-3.5,2.4-6.1,5.6-6.4
		C84.3,78.1,86.9,80.4,87.2,83.9z"/>
	<path class="st12" d="M175.9,84.6c3.2-1.6,6.1-2.4,8.9-2.5c4.3-0.2,7.8,2.7,8.7,7.8c0.7,4.1,0,8.2-6.2,10.3c-1.2,0.4-3,1.1-6.7,1.6
		"/>
	<path class="st16" d="M187.7,91.9c0.4,5.2-2.4,9.5-7.2,9.8c-5.8,0.3-9.5-3.4-9.9-8.5c-0.4-5.2,3.5-9,8.2-9.3S187.3,86.8,187.7,91.9
		z"/>
	<path class="st14" d="M133.1,92.7c12.9-3.2,21.6-5.2,27-9.4c8.1-6.3,10.5-15.3,9.7-25C168.5,42,158,29.9,139,30.8
		c-8.7,0.4-20.3,2.7-27.1,6.9"/>
	<path class="st14" d="M155.8,63.6c0,18.8-13,29.4-29,29.7c-18.1,0.3-28.4-15.1-28.4-31.5S110.8,34,126.8,34S155.8,47.3,155.8,63.6z
		"/>
	<path class="st12" d="M153.7,74.6c-3.3,5.2-8.9,8-15.3,8.1c-11.5,0.2-18.1-10.1-18.1-21.1S128.2,43,138.4,43c5.6,0,10.6,2.7,14,6.9
		"/>
	<polyline class="st13" points="119,93.3 119,105.9 85.2,125.6 	"/>
	<polyline class="st13" points="147.3,93 147.6,109.5 130.8,131.2 	"/>
	<polyline class="st13" points="128.2,96.2 128.2,107.1 101.7,127.7 	"/>
	<polyline class="st13" points="137.6,95.9 137.6,108.3 117.3,129.2 	"/>
	<line class="st13" x1="260.4" y1="30.7" x2="237.5" y2="42.9"/>
	<line class="st13" x1="178.9" y1="65.9" x2="188.8" y2="58.2"/>
	<path class="st13" d="M214.4,17.6c6.5,1.9,14.7,8.3,16.6,14.1"/>
	<g id="Layer_7" class="st3">
		<path class="st17" d="M56.8,194.7c-2.1-1.4-2.8-4-2.8-6.5c-0.1-4.4,1.7-8.8,4.8-12c3.4-3.4,8-5.3,12.7-6.4
			c5.3-1.3,11-1.8,16.4-0.6c5.4,1.3,10.4,4.5,13,9.4c1.3,2.4,2,5.2,2.2,8c0.2,2.2,0.2,4.4-0.5,6.4c-1.2,3.7-4.5,6.4-8,7.9
			c-3.6,1.5-7.5,1.8-11.4,1.8c-1.1,0-2.3,0-3.1,0.8c-0.4,0.4-0.7,1-1,1.5c-1,2.2-1.8,4.6-2.4,6.9c-0.1,1.2-1,1.8-2.1,1.9
			c-3.5,0.9-12.4-1-18.5-2.4C46.7,209.5,51.6,205.9,56.8,194.7z"/>
		<path class="st18" d="M65.7,185.6c3.7-2.9,5.2-3.6,9.7-5"/>
		<path class="st18" d="M67.8,179.2c2.1,3.3,3.3,4.1,4.4,7.9"/>
		<path class="st18" d="M81,189.2c3.7-2.9,5.2-3.6,9.7-5"/>
		<path class="st18" d="M83.1,182.7c2.1,3.3,3.3,4.1,4.4,7.9"/>
		<path class="st18" d="M70.9,202.7c-1.6,3.3-2.9,6.8-3.9,10.4"/>
		<path class="st18" d="M63.3,200.8c-1.7,3.3-3,6.7-4.1,10.3"/>
	</g>
</g>
<g id="Instagram" class="st0">
	<polygon class="st6" points="12.3,41 9.8,182 226.1,256.4 226.7,108.5 	"/>
	<polyline class="st6" points="12.3,41 71.4,20.2 275.3,80.5 272.8,221.5 226.1,256.4 	"/>
	<line class="st6" x1="226.7" y1="108.5" x2="271.1" y2="84.5"/>
	<path class="st8" d="M231.5,76.4c-0.7,5-10.5,6.7-20.5,4s-17.4-7.5-15.6-13.8c1.4-4.9,10.5-6.7,20.5-4
		C225.9,65.4,232.4,69.7,231.5,76.4z"/>
	<path class="st9" d="M195.5,66.6c-0.7,2.5-1.2,11.8-1.2,11.8c0.3,5,6.4,7.8,16.3,10.6c10,2.7,19.2,1,20.5-4c0.7-3,0.9-7.5,0.6-9.3"
		/>
	<path class="st8" d="M86,35.2c-0.3,3.7-6.6,5.5-13.1,4.1c-6.5-1.3-11.4-4.3-10.4-9c0.8-3.6,6.6-5.5,13.1-4.1
		C82.1,27.5,86.4,30.2,86,35.2z"/>
	<path class="st9" d="M62.5,30.3C62.1,32.2,62,39,62,39c0.3,3.6,4.3,5.3,10.8,6.6s12.5-0.5,13.1-4.1c0.4-2.2,0.4-5.5,0.2-6.8"/>
	<polygon class="st9" points="264.1,104.5 237,119.8 236.8,130.5 264,114.5 	"/>
	<polygon class="st9" points="180.5,111.4 212.5,121.2 212,147.6 179.6,138.1 	"/>
	<path class="st19" d="M42.5,100.5c14.3-5.9,34.8-13.6,46.2-14.9c30.7-3.6,60.5,22,64.3,58.4c3,28-9.2,55.2-30.8,65.3
		c-8.1,3.8-38.6,13.7-57.5,14.7"/>
	<path class="st19" d="M119.9,146.6c8.5,34.1-10.1,68.1-41.5,75.9c-31.4,7.9-58.7-15.9-67.2-49.9c-8.5-34.1,5-65.6,36.4-73.5
		C79,91.3,111.4,112.5,119.9,146.6z"/>
	<path class="st3" d="M97,200.9c-4.4,3.3-9.5,5.8-15.1,7.2c-24.5,6.1-44.6-12.9-51.3-39.5s2.7-50.7,27.2-56.8
		c9.2-2.3,18.5-1.4,26.9,2c0,0,21.1,10.3,25.9,37.7C116.6,185.5,97,200.9,97,200.9z"/>
	<path class="st6" d="M111,148.9c7.1,28.7-8.5,57.3-35,64c-26.5,6.6-48.6-13.8-55.8-42.5s3.4-54.9,29.9-61.5
		C76.5,102.2,103.8,120.2,111,148.9z"/>
	
		<ellipse transform="matrix(1.795628e-02 -0.9998 0.9998 1.795628e-02 -28.9858 425.631)" class="st20" cx="202.2" cy="227.6" rx="7.6" ry="6.2"/>
	
		<ellipse transform="matrix(1.795628e-02 -0.9998 0.9998 1.795628e-02 -39.7041 88.7544)" class="st20" cx="25.3" cy="64.6" rx="6" ry="4.8"/>
	<path class="st21" d="M98.3,133.7c7.2,11.1,11.2,45.2-0.7,61.1c-4.8-49-13.6-58.4-17.7-70.1C82.6,123.6,95.8,130.9,98.3,133.7z"/>
</g>
<g id="Prints" class="st0">
	<path class="st6" d="M210.2,4.5c1.6,47,8,133.7,32,231.9c-75.5,6.7-106.2,12-172.4,27.5c-14.4-39-29.6-141.4-29.6-230
		C96.7,19.5,147.2,7.7,210.2,4.5z"/>
	<path class="st3" d="M94.3,80.5c-2-0.6-4.9,0.7-5.2,3c-0.6,3.5-3.1,6.4-7,5.7c-3.6-0.7-5.7-4.6-6-8c-0.5-4.4,0.9-9.6,2.9-13.5
		c1.1-2,4.8-6.2,6.4-2.4c0.9,2.1,4,2.6,5.8,1.5c2.2-1.3,2.4-3.7,1.5-5.8c-3.2-7.5-13.1-6.8-18.1-1.7c-5.4,5.5-7.9,15.6-6.9,23
		c0.9,7.1,5.7,13.9,13,15.2c7.8,1.3,15.4-4,16.6-11.8C97.6,83.5,96.7,81.2,94.3,80.5z"/>
	<path class="st3" d="M124.4,62.9c-1.7-4.4-4.9-7.9-8.4-11c-0.9-0.8-1.9-1.1-2.9-1.1c-3-0.9-6.4,0.3-8.7,2.7
		c-2.9,3-4.1,7.1-4.7,11.1c-1.2,8.5-1,19.2,7.8,23.7c8.9,4.6,17.1-2.7,18.2-11.6C126.3,72.1,126,67.1,124.4,62.9z M110.7,59.2
		C110.9,58.4,111.3,59.7,110.7,59.2L110.7,59.2z M112.9,81.2c-5-0.4-5.4-7.3-5.3-11c0.1-2.3,0.3-4.6,0.9-6.8
		c0.3-1.1,0.7-2.2,1.3-3.2c0.1-0.2,0.8-0.8,0.8-1l0,0c0.5,0.5,1.1,0.8,1.7,0.9c2.7,2.8,4.7,5.9,5,10.2
		C117.6,73.2,117.9,81.6,112.9,81.2z"/>
	<path class="st3" d="M149.2,48C149.2,48,149.2,47.9,149.2,48c-2-4.5-7.9-3.7-11.3-1.8c-3.5,1.9-6.1,5.3-7.5,9
		c-1.7,4.6-1.7,9.8-1.1,14.7c0.6,4.8,2.6,8.3,6.6,11c3.7,2.6,7.4,3.6,11.6,1.3c3.8-2.1,6.8-6,7.8-10.2
		C157.2,64.4,154.5,54.1,149.2,48z M145.9,72.5c-0.5,0.8-1.2,1.4-2,2c-1.2,0.9-0.8,0.9-1.9,0.3c-2-1.2-3.6-2.3-4.1-4.6
		c-0.6-2.6-0.6-5.4-0.4-8.1c0.2-2.2,0.8-4.6,2.1-6.4c0.6-0.8,1.3-1.5,2.2-1.9c0.1-0.1,0.5-0.2,0.8-0.3c2.8,3.1,4,7.5,4.5,11.6
		C147.5,67.6,147.4,70.3,145.9,72.5z"/>
	<path class="st3" d="M182.8,68.6c-3.3,1.2-6.6,2.2-10,2.9c-0.1,0-0.3,0-0.6,0.1v-0.1c-0.4-1.6-0.7-3.2-1-4.8
		c-1-7-1.5-14.1-2.3-21.1c-0.2-2.3-1.8-4.2-4.2-4.2c-2.1,0-4.5,2-4.2,4.2c1,9.1,1.2,18.8,3.4,27.7c1.1,4.3,3.4,7.7,8.4,7
		c4.3-0.7,8.6-2,12.8-3.5C190.1,75,187.9,66.8,182.8,68.6z"/>
	<path class="st3" d="M112.9,148c-2.9-12.9-7.3-25.4-13.2-37.3c-0.9-1.9-2.9-2.3-4.7-2.1c-7.6,0.7-8.4,12.1-9.4,17.8
		c-1.5,8.6-2.3,17.3-2.2,26.1c0,5.5,8.5,5.8,8.5,0.3c0-3.3,0.1-6.6,0.3-9.8c3.1-1.6,6.4-2.5,9.9-3c1,3.3,1.8,6.7,2.6,10
		C105.8,155.2,114.1,153.3,112.9,148z M93.1,133.2c0.1-0.4,0.1-0.8,0.2-1.2c0.5-3.2,1-6.4,1.7-9.6c0.1-0.4,0.2-0.8,0.3-1.2
		c1.5,3.5,2.9,7,4.2,10.6C97.2,132,95.1,132.5,93.1,133.2z"/>
	<path class="st3" d="M147.3,140.8c-4.3-4.8-9.3-8.7-14.8-11.8c5.7-6.9,10.2-16.8,2.9-23.7c-7.9-7.5-20.4-1.7-24.9,6.6
		c-1.8,3.4,1.2,6.7,4.1,6.6c1.2,7.7,2.7,15.4,4.4,23c-0.1,0.5-0.1,1.1,0.1,1.6c0.2,0.6,0.4,1.1,0.6,1.7c1.8,5,9.5,3.6,8.3-1.9
		c-0.6-2.5-1.1-5-1.7-7.6c5.6,2.8,10.5,6.7,14.7,11.3C144.7,150.7,151,144.9,147.3,140.8z M122.1,111.6c0.5-0.3,1-0.5,1.5-0.7
		c1.8-0.6,4.6-0.9,6,0.7c1.8,2.1,0.4,6-0.7,8c-1.2,2.2-2.8,4.1-4.5,5.8C123.6,120.8,122.8,116.2,122.1,111.6z"/>
	<path class="st3" d="M175.6,95.1c-10,1.4-19.9,3.4-29.7,6c-5.3,1.4-3.4,9.7,1.9,8.3c3.3-0.9,6.6-1.7,10-2.4
		c1.6,11.1,3.4,22.3,5.3,33.4c0.9,5.4,9.2,3.5,8.3-1.9c-1.9-11-3.6-22.1-5.2-33.1c3.8-0.7,7.6-1.3,11.4-1.8
		C182.9,102.6,181,94.3,175.6,95.1z"/>
	<path class="st3" d="M109.2,212.7c-3.5-12.2-6.5-24.4-9-36.8c-1.1-5.4-9.3-3.1-8.2,2.3c1,5.1,2.1,10.1,3.3,15.1
		c-3.8,1.4-7.6,2.9-11.2,4.8c-1.3-5.6-2.5-11.2-3.8-16.7c-1.2-5.3-9.4-3.1-8.2,2.3c2.8,12.5,5.6,25,8.5,37.5
		c1.2,5.3,9.4,3.1,8.2-2.3c-0.9-4.1-1.8-8.1-2.7-12.2c3.6-2,7.4-3.7,11.3-5.1c1.2,4.5,2.4,9,3.7,13.4
		C102.5,220.2,110.7,218,109.2,212.7z"/>
	<path class="st3" d="M138.9,205.3c-0.6-2-3.1-3.9-5.2-3c-2.5,1.1-5.1,2.1-7.6,3.2c-1.5,0.6-3.6,2-5.5,2.5c-0.9-1.9-1.4-6.7-1.7-8.1
		c-0.1-0.3-0.1-0.7-0.2-1c2.6-1,5.2-2,7.8-3c2.1-0.8,3.6-2.9,3-5.2c-0.6-2-3.1-3.8-5.2-3c-2.4,0.9-4.7,1.8-7.1,2.7
		c-0.1-0.6-0.2-1.1-0.3-1.7c-0.3-2.4-1.7-6.8-0.2-9c1.8-2.5,6-2.8,8.8-3.2c2.3-0.4,3.5-3.2,3-5.2c-0.7-2.4-2.9-3.3-5.2-3
		c-6.1,1-12.8,3.1-15.1,9.5c-1.1,3-0.4,6.2,0,9.3c0.5,3.6,1,7.2,1.6,10.7c0.6,3.4,1.3,6.7,2.1,10c0.7,2.9,1.5,6.2,4.2,7.9
		c3.2,2,6.6,0.2,9.6-1l10.1-4.2C138,209.6,139.5,207.7,138.9,205.3z"/>
	<path class="st3" d="M170.2,200.9c-4.3-3.8-8.9-7.3-13.6-10.6c5.5-5.5,7.8-13.9,4.1-21.6c-5.3-10.8-22.6-6.2-26.3,3.6
		c-1.1,2.8,0.9,4.8,3.3,5.1c2,9.5,3.9,19,5.9,28.6c1.1,5.4,9.3,3.1,8.2-2.3c-0.5-2.5-1-5-1.5-7.5c4.9,3.2,9.6,6.8,14.1,10.7
		C168.3,210.5,174.4,204.5,170.2,200.9z M148.4,171.4c3.1-0.9,4.6-0.1,5.4,3.1c1,4.4-1,8.8-4.6,11.2c-0.4-0.1-0.8-0.2-1.2-0.2
		c-0.9-4.3-1.8-8.7-2.7-13C146.4,172,147.6,171.6,148.4,171.4z"/>
	<path class="st3" d="M195.8,193.9c-1.2-2.2-3.7-2.5-5.8-1.5c-1.8,0.8-3.7,1.4-5.6,1.8c-0.6,0.1-1.5,0.4-2.3,0.4
		c0-0.1-0.1-0.2-0.1-0.3c-0.1-0.3-0.1-0.5-0.2-0.8c-0.6-2.3-1.2-4.7-1.7-7.1c2.3-0.6,4.6-1.2,6.8-2s3.6-2.9,3-5.2
		c-0.6-2.1-3-3.7-5.2-3c-2,0.7-4.1,1.3-6.1,1.8c-0.2-1.4-0.4-2.8-0.6-4.2c-0.1-1.1-0.2-2.2-0.3-3.2c0-0.5-0.1-1.1-0.1-1.6
		c0-0.1,0-0.1,0-0.2c0.4-0.2,0.8-0.4,1.2-0.6c0.8-0.4,1.7-0.7,2.5-1c1.9-0.6,3.8-1,5.8-1.2c5.4-0.4,5.5-8.9,0-8.5
		c-5.2,0.4-12.9,1.7-16.4,5.9c-2.2,2.6-1.6,6.1-1.3,9.2c0.3,3.4,0.9,6.8,1.5,10.2c0.6,3.2,1.3,6.4,2,9.5c0.6,2.8,1.1,6.1,3.2,8.2
		c4.6,4.7,13.2,1.1,18.2-1.1C196.3,198.7,196.8,195.7,195.8,193.9z"/>
	<path class="st3" d="M208.2,177.9c-1.6-9.2-3-18.3-4.3-27.5c-0.3-2.3-3.2-3.5-5.2-3c-2.4,0.7-3.3,2.9-3,5.2
		c1.3,9.2,2.8,18.4,4.3,27.5C200.9,185.5,209.1,183.2,208.2,177.9z"/>
	<path class="st3" d="M212.2,193.4c-0.5-2-2.3-3.6-4.4-3.8c-1.5-0.4-3-0.1-4.3,0.6c-1.3,0.7-2.1,2.2-2.1,3.7c0,1.6,0.6,3.4,1.9,4.5
		c1.1,0.9,2.2,1.4,3.5,1.5c1,0.1,2-0.2,2.9-0.7C211.7,198,212.7,195.6,212.2,193.4z"/>
</g>
<g id="Clothing" class="st0">
	<path class="st6" d="M63.7,71.4c2,26.3,2.9,55.7,2.9,83.5c0,27.7-4.7,72.4-5,77.4s-2.5,12.1,0,16.7c2.5,4.6,35.6,18.6,79.5,17.9
		c43.9-0.6,77.9-14.4,80.1-22.6c1.7-6.2-0.2-19.3-0.9-25c-2-17.1-4.2-48.4-5.3-72.1c-0.6-14-1.2-37.8,1.2-75.9"/>
	<path class="st6" d="M214.5,114.1c7,0,42.7-6.5,43.6-15.8s-14.6-62.2-19.9-70.8c-11.1-18.3-43.4-24.7-59.8-25
		c-3.4,1.1,3.8,31.1-30.5,31.1c-39,0-34.9-29.8-41.2-29.9c-9-0.1-45.8,5-59.9,22C35,45.4,22.6,84.4,22,99.1
		c0,8.5,33.7,14.6,43.5,14.1"/>
	<path class="st9" d="M96.2,3.6c0.6,10.9,12.1,44,50.4,43.4c38.4-0.6,43-31.1,42.7-43.4"/>
	<path class="st9" d="M119,149.1c-7.1-2.8-12.4-9.1-15.2-16.2c-2.8-7.1-3.1-14.9-2.1-22.5c0.8-6.1,2.4-12.3,6.1-17.3
		c4.4-5.9,11.2-9.5,17.9-12.3c7.6-3.2,15.3-4.1,23.5-4.1s16.9,1,22.7,6.8c4.9,4.9,7.4,11.7,9.1,18.4c1.9,7.5,2.9,15.3,1.4,22.9
		c-1.5,7.6-5.7,14.8-12.4,18.7c-1.2,0.7-2.5,1.3-3.2,2.5c-0.6,1-0.6,2.3-0.6,3.5c0.1,4.8,0,9.6,0.3,14.5c0.2,3.4-1.7,5.2-3.3,6.1
		c-10.2,5.9-23.4,7.9-35.1,5.5C115.7,173,119.6,169.1,119,149.1z"/>
	<path class="st9" d="M135.9,102.4c-7.2,5.7-13.2,12.9-17.4,21"/>
	<path class="st9" d="M117.9,103c6,5.5,11.5,11.5,16.4,18"/>
	<path class="st9" d="M147.7,103c7.6,5.2,14,11.9,18.8,19.7"/>
	<path class="st9" d="M165.7,102.4c-5.6,5.9-10.7,12.3-15.2,19.1"/>
	<path class="st9" d="M132.5,153.7c0,6.8,0,13.6,0,20.3"/>
	<path class="st9" d="M152.3,150.8c0.6,7.7,0.8,15.4,0.6,23.1"/>
	<path class="st6" d="M106.7,3.7C119.5,3,123,6.8,145.1,7c18.1,0.2,20.5-5,33.3-4.5"/>
</g>
<g id="Objects" class="st0">
	<path class="st22" d="M132.9,21.5C50.9,9.8,3.7,87.4,4.7,124.7c1,40.8,20.6,85.7,47.1,99.7c18.7,9.8,63.8,20.1,108.5,14.3
		c44.7-5.9,121-39.3,117.9-91.4C275.4,98.7,214.7,33.3,132.9,21.5z"/>
	<ellipse class="st22" cx="133.3" cy="133.4" rx="33.5" ry="33.3"/>
	<ellipse class="st22" cx="47.8" cy="137.4" rx="24.6" ry="31.8"/>
	<ellipse class="st23" cx="134.9" cy="144.4" rx="16.5" ry="16.6"/>
	<ellipse class="st24" cx="46.7" cy="146.8" rx="15" ry="16.1"/>
	<path class="st9" d="M70.2,52.4c1.3-0.3,2.8-0.2,4.1,0.4c1,0.5,1.9,1.3,2.8,2c3.4,2.6,7.4,4.2,11.7,4.6"/>
	<path class="st9" d="M159.4,38.8c-0.5,1.6,0.3,3.5,1.9,4.1c1.5,0.6,3.5-0.1,4.2-1.6"/>
	<path class="st9" d="M49.1,207.9c5,2.7,9.5,6.5,13,11"/>
	<path class="st9" d="M204.4,185.5c-0.8-2.8,1-5.9,3.4-7.5s5.5-2.1,8.3-2.6c0.6-1,1.3-2,2.1-2.8"/>
	<path class="st9" d="M256.6,154.1c-0.3-1.9,0.5-3.8,1.9-5c0.6-0.5,1.2-0.9,1.6-1.5c1.1-1.7-0.2-3.9-1.6-5.4"/>
	<path class="st9" d="M188.8,77.8c6.8,5.3,15,8.5,23.1,11.5"/>
	<path class="st9" d="M196.4,104.5c1.2,2.4,5,2.7,5.8,5.2c0.3,1.2-0.1,2.6-0.1,3.8c0.1,2.3,2,4.3,4.2,5c2.2,0.8,4.6,0.7,6.9,0.6"/>
	<path class="st9" d="M114.5,32c1.4-1,2.9-2.1,4.3-3.1"/>
	<path class="st9" d="M38.6,78.7c-1.6,1.7-4.3,1.8-6.5,1c-2.1-0.8-3.9-2.4-5.6-4"/>
	<path class="st9" d="M15.6,174.6c1.4,2,2.9,4.2,5.2,5c1.4,0.5,3,0.4,4.4,0.7c1.4,0.2,3,1,3.5,2.4"/>
	<path class="st9" d="M175,227.8c3.5,2.7,7.6,4.5,11.9,5.2"/>
	<path class="st9" d="M128,191.8c3.1,2,6.7,4.2,10.3,3.2c1-0.3,2.2-0.8,3.1-0.3"/>
</g>
<g id="Toys" class="st0">
	<path class="st6" d="M154.7,35.5c0-0.7,0.1-1.4,0.5-2s1.1-0.9,1.8-1.2c7.2-3.2,11-12,9.4-19.7s-7.8-14-15.1-16.8
		c-6.4-2.4-13.9-2.3-20.1,0.5C125-0.9,120,4.9,118.4,11.6c-1.6,6.7,0.3,14.2,5.1,19.1c0.7,0.8,1.6,1.5,2,2.5
		c0.4,0.9,0.4,1.9,0.4,2.8c0,1.7,0.1,3.4,0.1,5c0,1.2,0.1,2.4,0.6,3.4c0.9,1.5,2.8,2.1,4.4,2.5c3.9,1,7.8,2,11.9,2
		c3.1,0.1,7.8-0.9,10.6-2.6C156.1,44.9,154.9,41.5,154.7,35.5z"/>
	<path class="st6" d="M131.1,48.1c-1.1,3.7-2.6,5.8-6.3,6.8"/>
	<path class="st6" d="M152,47.4c-0.8,3.8,2,6.8,5.9,7.6"/>
	<path class="st6" d="M161.3,53c-1.2,1-2.2,2.3-3,3.7c-3.8,6.1-6.5,12.9-7.8,20c-0.2,1.2-0.4,2.5-0.9,3.6c-1.9,4-7.3,4.7-11.8,4.8
		c-1.8,0-4,0-5-1.5c-0.5-0.8-0.7-1.8-0.8-2.7c-1.1-8.7-3.5-17.4-7.1-25.4c-0.5-1.1-1.1-2.3-2-3.1c-0.9-0.7-2.1-1-3.3-1.2
		c-4.6-0.5-9.5,1.3-12.6,4.8c6.4,9.1,9.9,19.8,12.5,30.6c1.4,5.9,2.5,12.1,0.9,17.9c-1.7,5.8-7,11-13,10.6c1.2,5.1,3,8.7,5.5,12.6
		c0.4,0.6,1.8,2.8,6,1.2c3.8-0.7,7.4-2.7,9.9-5.7c2.5-2.9,4.2-6.7,7.7-8.2c2.9-1.2,6.2-0.5,9,0.9c2.7,1.4,5.1,3.5,7.7,5.2
		c5.3,3.5,11.6,5.5,17.9,5.6c1,0,2,0,2.8-0.5c1-0.6,1.7-1.5,2.2-2.6c1.6-3,2.5-6.4,2.7-9.8c-7,2.6-15-3.2-17.1-10.4
		c-2.1-7.2,0.7-15.8,3.2-22.9c3-8.4,6.6-16.6,14.7-25.2C175.5,51.5,165.1,49.9,161.3,53z"/>
	<path class="st6" d="M177.7,57c3.5-3.8,8.4-5.4,14.2-5c5.1,0.4,7.7,4.1,9.8,7.7c2.7,4.6,4.5,9.2,3.6,13.6c-0.1,0.6-0.2,2.1,0,2.6
		c0.3,0.6,1.1,0.5,1.8,0.9c4.2,2,7,4.4,9,7.9s3.2,6.8,3.4,10.8c0,1.2,0.1,2.3,0.5,3.4c0.3,0.7,0.8,1.3,1.3,1.9
		c3.8,2.2,6.8,5.6,9.4,10.8"/>
	<path class="st6" d="M221.7,139.8c-4.6-2.5-7.7-5.2-11.7-11.3c-2.9-4.5-4.5-9.7-5.6-15c-0.1-0.6-0.3-1.3-0.6-1.8s-0.9-0.8-1.4-1.1
		c-8-5.1-14.2-13-17.2-22.1c-0.5,9.1-4.2,18.8-10.2,24.9"/>
	<path class="st6" d="M109.5,114.2c-6.3-6.9-10-15.7-12.8-24.6c-0.3,4.8-1.7,9.7-4.5,13.7s-7,7-11.8,8c-1.1,9.1-8.4,18.4-25.1,19.4"
		/>
	<path class="st6" d="M64,93.2c2-7.2,9.2-12.6,12.2-13.1C75.4,73.4,78,66.2,83.3,62c5.3-4.2,12.4-5.7,18.1-2.5
		c2.1-1.8,3.5-1.8,5.6-1.9"/>
	<path class="st6" d="M166.3,129.8c-15,4-30.9,3.1-46.3,0.8c-1.6-0.3-3.4-0.4-4.6,0.6c-0.9,0.8-1.1,2.1-1.3,3.3
		c-0.5,3.6-0.7,7.2-0.6,10.9c0,0.8,0.1,1.7,0.4,2.5c1.2,2.6,4.8,2.6,7.5,3.1c7,1.4,11.8,8.3,13,15.4c0.4,2.3,0.5,4.8,1.9,6.7
		c2.4,3.4,7.5,3.5,11.6,3c1.1-0.1,2.1-0.2,3.1-0.8c2.8-1.5,2.8-5.4,3.2-8.6c1-8.2,7.1-15.6,14.9-18.1c1.3-0.4,2.8-0.8,3.7-1.9
		c0.4-0.6,0.6-1.2,0.8-2c0.8-3.5,0.3-8.3-0.8-11.6C171.8,130.3,170.7,128.6,166.3,129.8z"/>
	<path class="st9" d="M173,135.8c-2.4,2-5.8,2.2-8.9,3c-3.7,0.9-7,2.9-9.6,5.8c-1.7,1.8-3,4.1-5.2,5.3c-1.5,0.9-3.3,1.1-5.1,1.2
		c-3.1,0.1-6.4-0.2-8.8-2.1c-2.4-2-3.6-5.3-6.2-6.9c-2.4-1.5-5.4-1.4-8.2-1.4s-5.5-0.4-7.2-2.7"/>
	<path class="st6" d="M173.1,146.7c10.5,3.7,18.6,13.5,20.3,24.5c1,6.6-0.1,13.6,2.3,19.8c2.2,5.6,6.9,9.9,10.2,14.9
		c3.9,5.9,5.8,12.9,5.5,20c-0.2,4.7-1.4,9.4-1.8,14.1c-0.4,4.8,0,9.8,2.8,13.7c2.7,3.9,7.8,7,7.3,11.7c-0.2,1.2-0.7,2.4-1.4,3.4
		c-2.4,3.5-6.6,5.7-10.8,5.7s-8.4-2.3-10.8-5.8c-2.9-4.4-2.9-10-4.5-15c-1.4-4.4-4-8.3-6.5-12.2c-5.5-8.5-11-17.5-11.5-27.6
		c-0.2-4.7,0.6-9.6-1.3-13.9c-1.8-4.2-5.7-6.9-9-10c-4.8-4.4-8.5-9.9-10.9-15.9"/>
	<path class="st6" d="M136.3,174.8c-0.9,5.6-5.2,9.9-9,14.1c-3.8,4.2-7.5,9.4-6.7,15c0.3,2,1.1,3.8,1.8,5.7
		c2.9,8.4,2.3,17.9-1.7,25.9c-2.4,4.8-6.1,9.7-4.8,14.9c0.4,1.5,1.2,2.9,1.5,4.4c0.9,5.3-5,9-9.9,11.3c-4.2,1.9-7.3,4.9-11.8,6
		c-2.5,0.7-5.2,0.8-7.7,0.1c-2.5-0.7-5.3-3.5-5.3-6.1c0.2-4.5,6.1-5.9,9.4-8.8c5.1-4.7,3.6-12.9,2.2-19.8c-1.6-7.6-2.4-15.6-0.1-23
		c0.8-2.8,2.1-5.5,2.3-8.4c0.2-2.7-0.6-5.3-1.1-8c-3.7-18.4,3.8-37.4,19.4-47.9"/>
	<path class="st9" d="M177.9,224.4c10.7,3.3,27.1-0.5,30.4-12.4"/>
	<path class="st25" d="M180.7,232.9c10.7,3.3,27.1-0.5,30.4-12.4"/>
	<path class="st9" d="M94.3,221.1c9.2,3.3,22.3,4.2,28.9-3.5"/>
	<path class="st25" d="M94.4,229.6c9.2,3.3,22.3,4.2,28.9-3.5"/>
	<path class="st6" d="M250.1,160.5c-4.8,13.8-10.3,21.6-16.2,20.4c-11.4-2.5-13.7-23.3-8.3-47.7c6.2-28.2,16.2-43,24.6-41.2
		c6.4,1.4,9.4,14.2,8.1,31.3"/>
	<path class="st6" d="M259.8,142.9c-2.2,10.3-5.7,18.1-9.3,17.4c-4.9-1-5.9-9.8-3.7-20.1c2.6-11.8,6.9-18.1,10.4-17.3
		C260.8,123.6,262,132.6,259.8,142.9z"/>
	<path class="st9" d="M237.4,179.7c-7.2-6.7-8.1-24.6-3.6-45.2c4.9-22.4,12.2-36.4,19.2-40.2"/>
	<g class="st3">
		<g>
			
				<ellipse id="XMLID_00000035512170180265652930000011673928177780478130_" transform="matrix(0.139 -0.9903 0.9903 0.139 -95.6695 162.7015)" class="st26" cx="45.7" cy="136.4" rx="4.6" ry="6.7"/>
		</g>
	</g>
	<path class="st6" d="M49.2,112.6c2.5,0,5.2-0.2,6.9-1.9c2.5,3.5,1.9,8.3,1.2,12.6c-0.2,1.4-0.5,2.8-1.1,4c-1,1.9-2.8,3.2-4.8,3.8
		s-4.1,0.7-6.2,0.4c-2-0.2-4.1-0.7-5.7-2c-2-1.6-3-4.2-3.1-6.8c-0.1-2.6,0.4-5.1,1-7.6c0.3-1.2,0.5-2.5,1.2-3.5
		c0.6-1.1,1.6-2,2.8-2.2C42,112.4,46.6,112.7,49.2,112.6z"/>
	<path class="st25" d="M44.5,118.7c3.8,1.1,9.1,1.4,11.8-1.8"/>
	<path class="st25" d="M44.4,123.6c3.8,1.1,9.1,1.4,11.8-1.8"/>
	<path class="st25" d="M72.4,100.9c1.1,0.8,1.4,0.9,2.6,3"/>
	<path class="st25" d="M83.7,78.1c2.4,0.7,4.3,2.5,5.4,4.7"/>
	<path class="st25" d="M101.6,61.9c-6.4,6.6-7.5,19.4-4.5,29.3"/>
	<path class="st25" d="M124.5,170.1c-2,2.3-3.6,4.9-4.9,7.6"/>
	<path class="st25" d="M97.1,204.7c1.6,3.4,4.2,3.4,7.2,3.6"/>
	<path class="st25" d="M184.5,207.6c3.5,1,7.6-0.5,9.7-3.5"/>
	<path class="st25" d="M166.2,171.7c2.3,2.5,4.4,5.1,6.3,8"/>
	<path class="st25" d="M214.1,102.8c-2.7,1.6-5.1,3.9-6.7,6.6"/>
	<path class="st25" d="M202.6,81.4c-2.8,0.4-5.5,1.9-7.3,4.2"/>
	<path class="st27" d="M179.7,58.5c-6,10.9-0.9,23.5,5.5,29.4"/>
	<path class="st25" d="M105.5,89.8c1,1.5,2,2.9,3,4.2c0.7,1,1.5,2,2.6,2.8c2.7,2,6.4,2,9.7,1.3"/>
	<path class="st25" d="M162.4,97.6c4.6-0.3,8.9-3.7,10.2-8.2"/>
	<path class="st25" d="M140.4,81.6c-1.1-11.8-0.1-17.6,2.9-19.6"/>
	<path class="st25" d="M140.2,81.4c-0.4-10.2-1.8-17.1-5-18.6"/>
	<path class="st9" d="M55.2,89.4l6.6-4.5c0,0,4.4-57.8,4.6-60.8c0.2-3-8.3-17-11.5-17.2C52.3,6.8,41.8,17.6,41.4,22
		c-0.7,8.3-4,61.3-4,61.3l5,5.5"/>
	<line class="st25" x1="54.9" y1="7.5" x2="49.5" y2="85.4"/>
	<circle class="st9" cx="48.9" cy="96.6" r="8.8"/>
	<circle class="st28" cx="48.9" cy="96.6" r="2.5"/>
	<path class="st9" d="M38.9,93.7c-3.2-0.4-6.6-1.1-9.2-3.1c-2.5-2-4.2-4.9-4.8-8.1c-2.4,0.1-2.7,5.5-2.8,8.4
		c-0.1,2.3,0.2,4.5,1.5,6.5c1.8,2.6,5.7,3.8,8.9,4.3c3.2,0.5,5.7,0.6,7.9,0.8"/>
	<path class="st9" d="M59.9,94.8c3.2,0.1,6.7-0.2,9.5-1.8c2.8-1.6,4.9-4.3,5.9-7.4c2.4,0.4,1.9,5.8,1.6,8.7
		c-0.2,2.3-0.8,4.5-2.3,6.2c-2.1,2.3-6.2,3-9.4,3c-3.2,0.1-5.8-0.1-7.9-0.3"/>
	<line class="st9" x1="42.8" y1="104.8" x2="42.5" y2="109.9"/>
	<line class="st9" x1="54.9" y1="104.8" x2="54.6" y2="110.3"/>
	<path class="st25" d="M124.3,4.6c7.3,4.3,16.2,5.2,24.7,5.8c5.4,0.4,10.8,0.6,16.2-0.2"/>
	<path class="st28" d="M143.4,11c-0.5,2.6-0.9,5.2-0.3,7.7s2.5,4.9,5.1,5.2c2.1,0.2,4.2-1,5.4-2.8s1.6-3.9,1.8-6
		c0.1-1.2,0-2.5-0.4-3.6L143.4,11z"/>
	<path class="st25" d="M136.3,13.9c-2.8,2.2-5.3,4.7-7.5,7.5"/>
	<path class="st25" d="M129,13.9c2.9,2.5,5.5,4.8,7.3,8.2"/>
	<path class="st25" d="M135.2,37.4c-0.3,2.8-0.2,6.7,0,9.4"/>
	<path class="st25" d="M144,38.6c-0.2,2.4-0.2,4.7-0.1,7.1"/>
	<path class="st6" d="M60.4,104.5c-1.4,0.8-1.9,1.7-3.6,3.4"/>
</g>
<g id="Digital_Stuff" class="st0">
	<g id="Layer_15" class="st3">
		<path class="st5" d="M241.3,89.3c8.5,4,14.2,18.7,13.9,81c-0.3,55.9-4.2,69.7-8.7,77.5c-12,20.6-53.9,22.9-158.9,20.7
			c-30.7-0.6-44.6-1.9-49.1-8.1c-6.1-8.2-8.8-30.7-10-78.5c-1-39.1-0.4-60.7,6.5-73c8.4-15.1,76.8-24.5,90.4-25.8
			C140.3,81.7,226.1,82.2,241.3,89.3z"/>
		<path class="st5" d="M234.2,102.2c8.2,6.6,9,27.8,9,69.4c0,39.7-2.4,61.4-8.1,69.1c-6.5,8.7-13.9,13.4-59.4,15.8
			c-30.3,1.6-48.1,1.9-58.1-4.2c-10.8-6.6-11.9-27.1-12.9-82.3c-0.8-47.1,0-55.9,7.4-65.5c6.5-8.4,20-9,61.3-8.4
			C218.7,96.7,229.4,98.3,234.2,102.2z"/>
		<path class="st29" d="M99.9,87.3c-11,1.6-18.8,4.2-25.1,10.1c-3,2.8-5.2,6.4-6.8,10.2c-3.1,7.6-3.6,15.9-4,24.1
			c-1.3,29-1.7,58.2,0,87.2c1,17.2,2.8,28.6,5.3,33.1c1.6,2.7,3.8,5.1,6.3,7c6.8,5.5,14.2,8.4,25.5,8.7"/>
		<path class="st30" d="M117.9,117.5c-2.6,4.7-2.9,10.3-3.1,15.7c-0.7,19.3,0,34.6,0,53.9c0,12,0.7,25.9,2.3,37.8
			c1.6,11.9,6.9,15.7,11.3,17.4c9.5,3.8,47.3,1.6,53.6,1.3c37.5-1.9,44.9-9,45.2-47.1c0.1-16-0.7-59.7-2-65.7
			c-1.4-6-2.5-10.7-7.3-14.7c-5.9-4.8-12.3-6.1-20.3-6.8c-14.9-1.2-28.4-1.6-44.2-1.3C137.2,108.3,123.8,106.7,117.9,117.5z"/>
		<polygon class="st31" points="152.5,136.7 141.9,137 144.1,208.1 154.8,207.4 		"/>
		<polygon class="st31" points="193.9,135.4 183.2,135.8 185.5,206.8 196.1,206.1 		"/>
		<polygon class="st32" points="181.9,220.7 160.3,221.3 160.6,230.4 182.2,229.7 		"/>
		<path class="st29" d="M74,115.4c0,7.9-0.1,15.7-0.1,23.6"/>
		<path class="st29" d="M81.2,114.1c0,5,0.1,9.9,0.1,14.9"/>
		<path class="st29" d="M88.6,113.5c0,2.6,0,5.2,0,7.7"/>
		<path class="st29" d="M225.9,114.3c1.4-1.5,2.7-3.1,4-4.8"/>
		<path class="st29" d="M224.5,236.5c1.4,1.2,1.5,1.7,2.9,2.9"/>
	</g>
	<g id="Layer_16" class="st3">
		<path class="st5" d="M109.7,58.1c4.9-11.2,9.5-23.5,13.4-37.5c25.4-4.8,50.6-8,77-11.2c2.2-0.3,3.8,1.9,2.9,3.9
			c-5.2,12.1-10.5,22.8-17.1,34.1c-1.3,2.2-3.4,3.6-5.9,4c-22.3,3.1-44.6,6.4-67,9.4c-3.3,0.5-6.2-2-6.4-5.3c-1-16-2.5-32-4.6-48
			c-0.3-2.2,1.1-4.2,3.2-4.7c5.6-1.5,11.2-2.3,17-3.4c5.3-1,5.7,3.3,5.8,4.5c16.5-3.2,32.2-5.3,48.9-7.3c2.3-0.3,4.6,0.4,5.3,2.7
			c1.1,3.4,1.3,6.3,1.8,10.3"/>
	</g>
</g>
<g id="Illustration" class="st0">
	<path class="st33" d="M33.4,19.5c1.2,15.1,2.3,30.2,3.5,45.3"/>
	<path class="st33" d="M70.3,16.6c1.9,14.4,3.4,28.8,4.5,43.3"/>
	<path class="st33" d="M7.9,96.3c0.2,14.8,10.2,28.6,23.5,35.1c13.4,6.4,29.4,6,43.3,0.6c19.6-7.6,35.8-27.3,33.6-48.3
		c0.8-0.6,1.2,1.6,0.2,1.3"/>
	<g class="st3">
		<g>
			<path id="XMLID_00000001630386699626138990000006594000924267428267_" class="st34" d="M131.6,136.9c-6.7-7.2-13.2-12-13.9-20.9
				c-0.6-6.8,0-8.8-1-15.6c-0.3-1.7-4-7.1-6-10c-2.4-3.4-9-11.3-0.2-18.8c5.7-4.9,12.9-1,16.2,2.7c5.9,6.6,8.5,8.2,15.8,10.9
				c4.2,1.6,5.2,0.5,9.1,2.7c4.3,2.5,12,10,15.1,13.9"/>
		</g>
	</g>
	<g class="st3">
		<g>
			<path id="XMLID_00000155111931581208008370000005886672226985888921_" class="st5" d="M242,259.3l-110.7-123
				c-5.5-5.3-2.2-17.6,7.3-27.5c9.5-9.8,21.6-13.5,27.1-8.3l110.7,123"/>
		</g>
	</g>
	<g class="st3">
		<g>
			
				<ellipse id="XMLID_00000062173956560616398320000003949754021253070506_" transform="matrix(0.6937 -0.7202 0.7202 0.6937 -94.634 260.5326)" class="st35" cx="259" cy="241.5" rx="24.8" ry="13.8"/>
		</g>
	</g>
	<path class="st36" d="M224.9,240.4c-5.5-5.3-2.2-17.6,7.3-27.5c9.5-9.8,21.6-13.5,27.1-8.3l-13.8-16.3c-5.5-5.3-17.6-1.6-27.1,8.3
		c-9.5,9.9-12.8,22.2-7.3,27.5L224.9,240.4z"/>
	<path class="st36" d="M154.5,163c-5.5-5.3-2.7-16.3,6.8-26.1s22.4-14,27.9-8.7l-11-12.8c-5.5-5.3-17.6-1.6-27.1,8.3
		c-9.5,9.9-12.8,22.2-7.3,27.5L154.5,163z"/>
</g>
<g id="About" class="st0">
	<path class="st37" d="M87.4,80c-2.1,5.5-1.7,11.8,0.2,17.4c0.8,2.4,1.9,4.7,3.4,6.7c5.2,6.9,15.7,8.9,23.4,4.8
		c7.6-4.1,11.8-13.6,10-22.1C121,69.7,95,60.4,87.4,80z"/>
	<path class="st38" d="M143.5,53.2c4.4,15,8.8,30.1,13.3,45.2"/>
	<path class="st38" d="M173.5,43.3c4.9,16,9.8,32,14.7,48"/>
	<path class="st38" d="M155.1,76.9c6.7-2.7,13.6-5,20.6-6.7"/>
	<path class="st39" d="M95.7,154.6c5.5,16.4,11.1,32.7,16.6,49"/>
	<path class="st38" d="M127.8,143.4c5.7,17.4,11.5,34.7,17.2,52.1"/>
	<path class="st38" d="M111.3,180c6.2-2.5,12.5-5,18.7-7.5"/>
	<path class="st38" d="M178.8,128.5c-6.9,2.2-13.8,4.4-20.7,6.6c-0.8,0.3-1.8,0.7-2.1,1.5c-0.2,0.6,0,1.3,0.2,1.9
		c5.1,15.8,10.2,31.6,15.3,47.3c7.7-2.4,15.5-4.7,23.3-7.1"/>
	<path class="st38" d="M169.1,160.8c4-1.2,7.9-2.3,11.8-3.6"/>
	<path class="st38" d="M200,121.8c7.8,5.4,16.2,10,24.9,13.8"/>
	<path class="st38" d="M232.8,111.8c-2.7,20-6.7,39.8-12.1,59.2"/>
	<path class="st40" d="M43.6,132.9C33.7,82.4,55.1,55,81.5,34.8c16.6-12.6,36.5-19,56.4-23.1c9.8-2,19.7-3.6,29.6-3.7
		c37.3-0.5,75,19.9,91.3,56.3c4.9,10.9,10,23.4,12.8,35.2c1.9,8.1,3.8,22.1,3.5,30.5c1.1,20.5-1.2,44.3-13.3,61.1
		c-12.1,16.8-25.2,27-46,36.1c-29.7,12.6-94.6,25.2-127.1,2.7c-17.6-11.7-31.6-32.4-35.2-52.3c-21.4-1.6-34.9-3.3-45.1-4.9
		c-2.2-0.4-3-3.2-1.3-4.8C21.5,154.5,27.1,149.6,43.6,132.9z"/>
</g>
<g id="Shop" class="st0">
	<path class="st41" d="M276.2,224.4c-0.3,4.1-6.5,12.2-13.8,12.1h-245c-13.8,0-13.2-4.2-13.2-14.3v-91c0.2-6,5.9-10.3,11.5-13.3"/>
	<path class="st19" d="M271.4,227.4H18.2c-2.7,0-5-2.2-5-5V122.1c0-2.7,2.2-5,5-5h253.2c2.7,0,5,2.2,5,5v100.4
		C276.4,225.2,274.2,227.4,271.4,227.4z"/>
	<path class="st6" d="M139.6,25.5c-2.4,1.8-5,5.8-4.1,10.1c0.8,3.5,3.8,6.4,7.4,6.6c1.3,0.1,3.3,0,4.5-0.4c1.4-0.4,4.7-1.4,6.7-5.7"
		/>
	<path class="st19" d="M137.2,34.1c0.8,3.5,3.8,6.4,7.4,6.6c1.3,0.1,3.3,0,4.5-0.4c1.4-0.4,4.4-1.5,5.5-5.4
		C159.1,19.4,134,19.3,137.2,34.1z"/>
	<line class="st9" x1="133.7" y1="37.7" x2="55.8" y2="116"/>
	<line class="st9" x1="154.8" y1="39.6" x2="228.2" y2="116"/>
	<path class="st37" d="M43,155.4c-4.2,5.9-5.7,13.3-6.1,20.5c-0.2,3.7,0,7.4,1.4,10.8c1.9,4.4,5.9,7.7,10.3,9.5
		c10.8,4.4,25-0.8,29.3-11.7c2.9-7.4,2.8-25.2-3.9-32.6C64.9,142,49.7,146.1,43,155.4z"/>
	<path class="st37" d="M107.3,198.2c-0.9-15.4-1.8-30.9-2.7-46.3c-0.1-1-0.1-2.1,0.3-3.1c0.6-1.4,2.1-2.2,3.4-2.9
		c7.1-3.3,16.2-4.3,22.1,0.8c5.7,4.8,6.3,14.1,2.3,20.3s-11.6,9.7-19,9.9"/>
	<path class="st37" d="M186.2,146.8c-5.5-0.6-9.6,0.2-14.5,0.4c-2.6,0.1-5.5,0.5-7.5,2.2c-2.3,1.9-2.8,5.3-3.1,8.3
		c-1.2,13-1.9,26-2.1,39.1c0,0.8,0,1.7,0.5,2.3c0.7,0.9,2.1,0.9,3.3,0.8c7.7-0.8,15.5-1.6,23.2-2.3"/>
	<path class="st37" d="M177,173c-4.3,0.2-8.4,0.5-12.1,1.2"/>
	<path class="st37" d="M211,196.6c0.1-17.2,0.1-51.9,5.3-50.3c10.3,17.3,14.6,37.5,25.9,54.1c5.5,0.8,5.2-9.9,5.1-15.1
		c-0.2-13.8-0.4-27.5-0.7-41.3"/>
</g>
<g id="All" class="st0">
	<g id="Layer_8" class="st3">
		<g id="Layer_5_copy_6">
			<g>
				<g>
					<path id="XMLID_00000026851119032004426630000013762290967966517683_" class="st42" d="M42.4,111.5c-3.4-3.6-6.7-6.1-7-10.5
						c-0.3-3.4,0-4.4-0.5-7.9c-0.2-0.9-2-3.6-3-5c-1.2-1.7-4.5-5.7-0.1-9.5c2.9-2.5,6.5-0.5,8.2,1.4c3,3.3,4.3,4.1,8,5.5
						c2.1,0.8,2.6,0.3,4.6,1.4c2.2,1.3,6.1,5,7.6,7"/>
				</g>
			</g>
			<g>
				<g>
					<path id="XMLID_00000136372431126472163560000015328398838871835818_" class="st42" d="M98.1,173.3l-55.9-62.1
						c-2.8-2.7-1.1-8.9,3.7-13.9c4.8-4.9,10.9-6.8,13.7-4.2l55.9,62.1"/>
				</g>
			</g>
			<g>
				<g>
					
						<ellipse id="XMLID_00000113331846856018391970000002562043483581015694_" transform="matrix(0.6937 -0.7202 0.7202 0.6937 -85.6265 127.1954)" class="st43" cx="106.7" cy="164.3" rx="12.5" ry="7"/>
				</g>
			</g>
			<path class="st44" d="M89.5,163.7c-2.8-2.7-1.1-8.9,3.7-13.9c4.8-4.9,10.9-6.8,13.7-4.2l-7-8.2c-2.8-2.7-8.9-0.8-13.7,4.2
				c-4.8,5-6.5,11.2-3.7,13.9L89.5,163.7z"/>
			<path class="st44" d="M54,124.7c-2.8-2.7-1.4-8.2,3.4-13.2s11.3-7.1,14.1-4.4l-5.6-6.5c-2.8-2.7-8.9-0.8-13.7,4.2
				s-6.5,11.2-3.7,13.9L54,124.7z"/>
		</g>
		<g id="Layer_5_copy_7">
			<g>
				<g>
					<path id="XMLID_00000052076666957195030280000006744017234170423958_" class="st42" d="M55.3,64c-1.1-2.3-2.9-7.4-3.1-9.9
						c-0.2-2.3,0.6-2.5,0.7-4.7c0.3-3.9,0.2-5.4-1.6-9.6c-1-2.3-1.2-6.4,2.3-8c5.3-2.4,7.5,2.3,8.5,4.1c0.9,1.5,2.6,4.4,3.3,4.9
						c2.9,1.9,3.9,2.1,6.9,3.8C76.3,47,77,51,78.9,55.6"/>
				</g>
			</g>
			<g>
				<g>
					<path id="XMLID_00000078040448630111126650000002954490102820431250_" class="st42" d="M87.2,140.3l-32.3-77
						c-1.2-3.6,3.1-8.4,9.6-10.6c6.6-2.2,12.9-1.1,14.1,2.6l32.3,77"/>
				</g>
			</g>
			<g>
				<g>
					
						<ellipse id="XMLID_00000061442076935462725120000008361617191682144680_" transform="matrix(0.9476 -0.3196 0.3196 0.9476 -38.357 38.825)" class="st43" cx="99.1" cy="136.3" rx="12.5" ry="7"/>
				</g>
			</g>
			<path class="st44" d="M101.5,110.7c-1.2-3.7-7.6-4.8-14.1-2.6c-6.6,2.2-10.9,6.9-9.6,10.6l4.5,9.8c-1.2-3.6,3.1-8.4,9.6-10.6
				c6.6-2.2,12.9-1.1,14.1,2.6L101.5,110.7z"/>
			<path class="st44" d="M82.8,64.2c-1.2-3.7-7.6-4.8-14.1-2.6c-6.6,2.2-10.9,6.9-9.6,10.6l3.5,7.8c-1.2-3.7,3.5-8.6,10-10.9
				c6.5-2.2,12.1-1.1,13.4,2.5L82.8,64.2z"/>
		</g>
		<g id="Layer_5_copy_10">
			<g>
				<g>
					<path id="XMLID_00000092430902315439580300000001288642352838729088_" class="st42" d="M203,55.1c0.3-2.5,1.6-7.8,2.7-10
						c1.1-2,1.8-1.8,3.2-3.6c2.4-3.1,3.1-4.5,3.8-8.9c0.4-2.5,2.4-6.1,6.2-5.5c5.8,0.8,5.1,6,5,8.1c-0.1,1.8-0.2,5.1,0.1,5.9
						c1.4,3.2,2.2,3.9,3.8,6.9c2.1,4,0.6,7.8-0.3,12.7"/>
				</g>
			</g>
			<g>
				<g>
					<path id="XMLID_00000046341629099129139760000018364538508219863974_" class="st42" d="M188.8,136.5l14.3-82.3
						c1-3.7,7.1-5.4,13.8-3.7c6.7,1.7,11.4,6.1,10.5,9.8l-14.3,82.3"/>
				</g>
			</g>
			<g>
				<g>
					
						<ellipse id="XMLID_00000080198162918767403980000016946273822723961274_" transform="matrix(0.2411 -0.9705 0.9705 0.2411 17.1288 301.0109)" class="st43" cx="201" cy="139.6" rx="7" ry="12.5"/>
				</g>
			</g>
			<path class="st44" d="M216.9,119.2c0.9-3.7-3.8-8.1-10.5-9.8c-6.7-1.7-12.9,0-13.8,3.7l-1.5,10.7c1-3.7,7.1-5.4,13.8-3.7
				c6.7,1.7,11.4,6.1,10.5,9.8L216.9,119.2z"/>
			<path class="st44" d="M226.1,70c0.9-3.7-3.8-8.1-10.5-9.8c-6.7-1.7-12.9,0-13.8,3.7l-1.3,8.4c0.9-3.7,7.6-5.4,14.3-3.8
				c6.7,1.6,10.8,5.6,9.9,9.3L226.1,70z"/>
		</g>
		<g id="Layer_5_copy_9">
			<g>
				<g>
					<path id="XMLID_00000023251232407051497130000009014476173381381282_" class="st42" d="M92.4,57.6c-0.1-2.5,0.4-7.9,1.2-10.3
						c0.8-2.1,1.5-2,2.6-4c1.9-3.4,2.4-4.9,2.5-9.4c0-2.5,1.5-6.4,5.3-6.4c5.8,0,5.9,5.2,6.1,7.3c0.2,1.8,0.5,5.1,1,5.8
						c1.9,2.9,2.7,3.5,4.7,6.3c2.7,3.6,1.8,7.6,1.6,12.6"/>
				</g>
			</g>
			<g>
				<g>
					<path id="XMLID_00000133501158232537005230000008150153607201943451_" class="st42" d="M90.4,140.3l1.9-83.5
						c0.4-3.8,6.2-6.4,13.1-5.7c6.9,0.7,12.2,4.3,11.8,8.1l-1.9,83.5"/>
				</g>
			</g>
			<g>
				<g>
					
						<ellipse id="XMLID_00000014630187247591542000000014218896478204124064_" transform="matrix(9.410794e-02 -0.9956 0.9956 9.410794e-02 -47.5426 230.6659)" class="st43" cx="103" cy="141.5" rx="7" ry="12.5"/>
				</g>
			</g>
			<path class="st44" d="M115.6,119c0.4-3.8-4.9-7.5-11.8-8.1c-6.9-0.7-12.7,1.9-13.1,5.7l0.1,10.8c0.4-3.8,6.2-6.4,13.1-5.7
				c6.9,0.7,12.2,4.3,11.8,8.1L115.6,119z"/>
			<path class="st44" d="M117.4,69c0.4-3.8-4.9-7.5-11.8-8.1s-12.7,1.9-13.1,5.7l0,8.5c0.4-3.8,6.7-6.5,13.5-5.8
				c6.9,0.6,11.5,3.9,11.2,7.8L117.4,69z"/>
		</g>
		<g id="Layer_5_copy_8">
			<g>
				<g>
					<path id="XMLID_00000142153344741413464880000009835587110510991039_" class="st42" d="M82.6,98.7c0.2-2.5,1.4-7.8,2.5-10
						c1-2,1.8-1.8,3.1-3.7c2.3-3.2,3-4.6,3.7-9c0.4-2.5,2.3-6.1,6.1-5.6c5.8,0.7,5.2,5.9,5.1,8c0,1.8-0.1,5.1,0.2,5.9
						c1.5,3.1,2.3,3.8,3.9,6.9c2.2,4,0.7,7.8-0.1,12.7"/>
				</g>
			</g>
			<g>
				<g>
					<path id="XMLID_00000016754011138624469410000003253043150219897001_" class="st42" d="M69.9,180.4l12.8-82.5
						c0.9-3.7,7-5.5,13.7-4c6.7,1.6,11.5,5.8,10.7,9.6L94.3,186"/>
				</g>
			</g>
			<g>
				<g>
					
						<ellipse id="XMLID_00000150094467843864126650000005719910199885120662_" transform="matrix(0.2229 -0.9748 0.9748 0.2229 -114.7834 222.4855)" class="st43" cx="82.2" cy="183.2" rx="7" ry="12.5"/>
				</g>
			</g>
			<path class="st44" d="M97.6,162.6c0.9-3.8-3.9-8-10.7-9.6c-6.7-1.6-12.9,0.2-13.7,4l-1.3,10.7c0.9-3.7,7-5.5,13.7-4
				c6.7,1.6,11.5,5.8,10.7,9.6L97.6,162.6z"/>
			<path class="st44" d="M105.9,113.3c0.9-3.8-3.9-8-10.7-9.6c-6.7-1.6-12.9,0.2-13.7,4l-1.1,8.4c0.9-3.8,7.5-5.5,14.2-4
				c6.7,1.5,10.9,5.4,10.1,9.1L105.9,113.3z"/>
		</g>
		<g id="Layer_5_copy">
			<g>
				<g>
					<path id="XMLID_00000173881645766798522040000013340669308517914755_" class="st42" d="M231.6,88.2c1.9-4.6,2.8-8.6,6.7-10.7
						c3-1.7,4-1.8,7-3.7c0.7-0.5,2.4-3.3,3.4-4.8c1.1-1.8,3.3-6.5,8.6-4c3.4,1.6,3.1,5.7,2.1,8c-1.8,4.1-2,5.6-1.7,9.5
						c0.1,2.3,0.8,2.5,0.6,4.7c-0.3,2.5-2.1,7.6-3.3,9.8"/>
				</g>
			</g>
			<g>
				<g>
					<path id="XMLID_00000075164544809095540640000016665898497132006278_" class="st42" d="M198.2,164.4l33.6-76.4
						c1.3-3.6,7.6-4.7,14.2-2.3c6.5,2.3,10.7,7.1,9.4,10.7l-33.6,76.4"/>
				</g>
			</g>
			<g>
				<g>
					
						<ellipse id="XMLID_00000161590606362195609950000017213302886385152914_" transform="matrix(0.3361 -0.9418 0.9418 0.3361 -19.3489 309.5965)" class="st43" cx="209.9" cy="168.5" rx="7" ry="12.5"/>
				</g>
			</g>
			<path class="st44" d="M203.4,152.6c1.3-3.6,7.6-4.7,14.2-2.3c6.5,2.3,10.7,7.1,9.4,10.7l4.6-9.7c1.3-3.6-2.9-8.4-9.4-10.7
				c-6.5-2.3-12.9-1.3-14.2,2.3L203.4,152.6z"/>
			<path class="st44" d="M224.3,104.1c1.3-3.6,6.9-4.6,13.4-2.3c6.5,2.3,11.1,7.4,9.8,11l3.6-7.7c1.3-3.6-2.9-8.4-9.4-10.7
				c-6.5-2.3-12.9-1.3-14.2,2.3L224.3,104.1z"/>
		</g>
		<g id="Layer_5_copy_2">
			<g>
				<g>
					<path id="XMLID_00000098194375559364107760000011630345850137789098_" class="st42" d="M192.4,79c-0.5-4.9-1.6-8.9,0.8-12.6
						c1.8-2.9,2.7-3.5,4.4-6.6c0.4-0.8,0.6-4.1,0.6-5.8c0.1-2.1-0.2-7.3,5.7-7.6c3.8-0.2,5.5,3.5,5.7,6c0.4,4.5,0.9,5.9,3,9.2
						c1.2,1.9,1.9,1.8,2.8,3.9c1,2.3,1.8,7.7,1.8,10.2"/>
				</g>
			</g>
			<g>
				<g>
					<path id="XMLID_00000170977915547642804510000017242364576426670231_" class="st42" d="M199.3,161.9l-6.8-83.2
						c-0.6-3.8,4.5-7.7,11.3-8.8c6.8-1,12.8,1.2,13.4,5l6.8,83.2"/>
				</g>
			</g>
			<g>
				<g>
					
						<ellipse id="XMLID_00000176744912776786627360000012338400791798913675_" transform="matrix(0.9883 -0.1526 0.1526 0.9883 -21.9258 34.1579)" class="st43" cx="211.6" cy="160" rx="12.5" ry="7"/>
				</g>
			</g>
			<path class="st44" d="M198.2,149.1c-0.6-3.8,4.5-7.7,11.3-8.8c6.8-1,12.8,1.2,13.4,5l-0.6-10.8c-0.6-3.8-6.6-6-13.4-5
				c-6.8,1.1-11.9,5-11.3,8.8L198.2,149.1z"/>
			<path class="st44" d="M193.6,96.5c-0.6-3.8,3.9-7.4,10.7-8.4c6.8-1,13.3,1.2,13.9,5l-0.5-8.5c-0.6-3.8-6.6-6-13.4-5
				c-6.8,1.1-11.9,5-11.3,8.8L193.6,96.5z"/>
		</g>
		<g id="Layer_5_copy_5">
			<g>
				<g>
					<path id="XMLID_00000039840165684843096840000017884055180486716289_" class="st42" d="M124.9,35.8c-0.7-4.9-2.1-8.8,0.2-12.7
						c1.7-3,2.5-3.7,4-6.8c0.4-0.8,0.4-4.1,0.4-5.9c0-2.1-0.5-7.3,5.3-7.9c3.8-0.4,5.7,3.3,6,5.8c0.6,4.4,1.2,5.8,3.5,9
						c1.3,1.9,2,1.7,3,3.7c1.1,2.3,2.1,7.6,2.3,10.1"/>
				</g>
			</g>
			<g>
				<g>
					<path id="XMLID_00000075868655696783480630000017975363552922405775_" class="st42" d="M135.8,118.2l-10.9-82.8
						c-0.8-3.8,4.1-7.9,10.9-9.4c6.8-1.4,12.8,0.6,13.6,4.3l10.9,82.8"/>
				</g>
			</g>
			<g>
				<g>
					
						<ellipse id="XMLID_00000140703063577948928170000008699709989270424738_" transform="matrix(0.9796 -0.201 0.201 0.9796 -20.2334 32.1165)" class="st43" cx="148" cy="115.7" rx="12.5" ry="7"/>
				</g>
			</g>
			<path class="st44" d="M134.1,105.5c-0.8-3.8,4.1-7.9,10.9-9.4c6.8-1.4,12.8,0.6,13.6,4.3l-1.1-10.7c-0.8-3.8-6.9-5.7-13.6-4.3
				c-6.8,1.4-11.7,5.6-10.9,9.4L134.1,105.5z"/>
			<path class="st44" d="M126.9,53.1c-0.8-3.8,3.5-7.6,10.3-8.9c6.8-1.4,13.3,0.6,14.1,4.4l-0.9-8.5c-0.8-3.8-6.9-5.7-13.6-4.3
				s-11.7,5.6-10.9,9.4L126.9,53.1z"/>
		</g>
		<g id="Layer_5_copy_3">
			<g>
				<g>
					<path id="XMLID_00000031191200402484740700000016091059530069043901_" class="st42" d="M166.1,46.1c0.3-5-0.2-9,2.8-12.4
						c2.3-2.6,3.2-3.1,5.4-5.8c0.5-0.7,1.2-3.9,1.6-5.7c0.4-2.1,1-7.2,6.8-6.6c3.8,0.4,4.9,4.4,4.7,6.9c-0.4,4.5,0,6,1.5,9.6
						c0.9,2.1,1.6,2.1,2.2,4.3c0.6,2.4,0.5,7.9,0.2,10.4"/>
				</g>
			</g>
			<g>
				<g>
					<path id="XMLID_00000164483825644636481210000002586567882359470259_" class="st42" d="M159.8,129l6.4-83.3
						c0-3.9,5.7-6.9,12.6-6.9c6.9,0.1,12.5,3.2,12.5,7l-6.4,83.3"/>
				</g>
			</g>
			<g>
				<g>
					
						<ellipse id="XMLID_00000081616945084094133530000010737233354301517480_" transform="matrix(5.679417e-03 -1 1 5.679417e-03 42.1974 300.506)" class="st43" cx="172.2" cy="129" rx="7" ry="12.5"/>
				</g>
			</g>
			<path class="st44" d="M160.7,116.2c0-3.9,5.7-6.9,12.6-6.9c6.9,0.1,12.4,3.2,12.5,7l1.2-10.7c0-3.9-5.5-7-12.5-7
				c-6.9,0-12.6,3-12.6,6.9L160.7,116.2z"/>
			<path class="st44" d="M164.5,63.5c0-3.9,5-6.7,11.9-6.6s12.9,3.3,12.9,7.2l0.8-8.5c0-3.9-5.5-7-12.5-7c-6.9,0-12.6,3-12.6,6.9
				L164.5,63.5z"/>
		</g>
		<g id="Layer_5_copy_4">
			<g>
				<g>
					<path id="XMLID_00000083773839323747035400000014070671981083343545_" class="st42" d="M143.3,63.9c1.8-4.6,2.5-8.6,6.4-10.9
						c3-1.8,4-1.9,6.9-3.9c0.7-0.5,2.3-3.4,3.2-4.9c1-1.8,3.2-6.6,8.5-4.2c3.5,1.5,3.3,5.6,2.3,8c-1.7,4.1-1.9,5.7-1.5,9.6
						c0.2,2.3,0.9,2.5,0.8,4.7c-0.2,2.5-1.9,7.6-3,9.9"/>
				</g>
			</g>
			<g>
				<g>
					<path id="XMLID_00000031926757594660617630000005367484897423066793_" class="st42" d="M112,141l31.5-77.3
						c1.2-3.7,7.5-4.9,14.1-2.7c6.5,2.2,10.9,6.8,9.7,10.5l-31.5,77.3"/>
				</g>
			</g>
			<g>
				<g>
					
						<ellipse id="XMLID_00000065768881016882986250000000893919231545672115_" transform="matrix(0.3104 -0.9506 0.9506 0.3104 -52.2679 217.5917)" class="st43" cx="123.8" cy="144.8" rx="7" ry="12.5"/>
				</g>
			</g>
			<path class="st44" d="M116.8,129.1c1.2-3.7,7.5-4.9,14.1-2.7c6.5,2.2,10.9,6.8,9.7,10.5l4.4-9.9c1.2-3.7-3.1-8.3-9.7-10.5
				c-6.6-2.1-12.9-0.9-14.1,2.7L116.8,129.1z"/>
			<path class="st44" d="M136.5,80.1c1.2-3.7,6.8-4.8,13.3-2.7c6.5,2.2,11.3,7.1,10.1,10.8l3.4-7.8c1.2-3.7-3.1-8.3-9.7-10.5
				c-6.6-2.1-12.9-0.9-14.1,2.7L136.5,80.1z"/>
		</g>
		<g id="Layer_5_copy_11">
			<g>
				<g>
					<path id="XMLID_00000078729146179761497330000007385066882846072483_" class="st42" d="M173.6,103.7c0.2-2.5,1.4-7.8,2.5-10
						c1-2,1.8-1.8,3.1-3.7c2.3-3.2,3-4.6,3.7-9c0.4-2.5,2.3-6.1,6.1-5.6c5.8,0.7,5.2,5.9,5.1,8c0,1.8-0.1,5.1,0.2,5.9
						c1.5,3.1,2.3,3.8,3.9,6.9c2.2,4,0.7,7.8-0.1,12.7"/>
				</g>
			</g>
			<g>
				<g>
					<path id="XMLID_00000079451286813547216020000008415705171758025857_" class="st42" d="M160.9,185.4l12.8-82.5
						c0.9-3.7,7-5.5,13.7-4c6.7,1.6,11.5,5.8,10.7,9.6L185.3,191"/>
				</g>
			</g>
			<g>
				<g>
					
						<ellipse id="XMLID_00000159462490132306391750000006393971619574838404_" transform="matrix(0.2229 -0.9748 0.9748 0.2229 -48.9429 315.0811)" class="st43" cx="173.2" cy="188.2" rx="7" ry="12.5"/>
				</g>
			</g>
			<path class="st44" d="M188.6,167.6c0.9-3.8-3.9-8-10.7-9.6c-6.7-1.6-12.9,0.2-13.7,4l-1.3,10.7c0.9-3.7,7-5.5,13.7-4
				c6.7,1.6,11.5,5.8,10.7,9.6L188.6,167.6z"/>
			<path class="st44" d="M196.9,118.3c0.9-3.8-3.9-8-10.7-9.6c-6.7-1.6-12.9,0.2-13.7,4l-1.1,8.4c0.9-3.8,7.5-5.5,14.2-4
				c6.7,1.5,10.9,5.4,10.1,9.1L196.9,118.3z"/>
		</g>
		<g id="Layer_5">
			<g>
				<g>
					<path id="XMLID_00000076591273443184792960000003540392528782546086_" class="st42" d="M120.4,96.5c-2.7-4.2-5.5-7.1-5.1-11.6
						c0.3-3.4,0.8-4.4,0.9-7.8c0-0.9-1.4-3.9-2.1-5.5c-0.9-1.9-3.5-6.4,1.5-9.4c3.3-1.9,6.5,0.6,7.8,2.8c2.4,3.8,3.5,4.8,6.9,6.8
						c1.9,1.2,2.5,0.7,4.3,2.1c1.9,1.6,5.1,6,6.3,8.2"/>
				</g>
			</g>
			<g>
				<g>
					<path id="XMLID_00000173873028057923494980000012044895501357837707_" class="st42" d="M164.6,167l-44.3-70.8
						c-2.3-3.1,0.4-8.9,6-13c5.6-4,11.9-4.8,14.2-1.8l44.3,70.8"/>
				</g>
			</g>
			<g>
				<g>
					
						<ellipse id="XMLID_00000158708511020330363680000009725648612006525370_" transform="matrix(0.8074 -0.59 0.59 0.8074 -60.515 133.776)" class="st43" cx="174.7" cy="159.6" rx="12.5" ry="7"/>
				</g>
			</g>
			<path class="st44" d="M157.8,156.1c-2.3-3.1,0.4-8.9,6-13c5.6-4,11.9-4.8,14.2-1.8l-5.4-9.3c-2.3-3.1-8.6-2.3-14.2,1.8
				s-8.3,9.9-6,13L157.8,156.1z"/>
			<path class="st44" d="M129.5,111.5c-2.3-3.1,0.1-8.3,5.6-12.4c5.6-4,12.4-5,14.6-1.9l-4.4-7.3c-2.3-3.1-8.6-2.3-14.2,1.8
				c-5.6,4.1-8.3,9.9-6,13L129.5,111.5z"/>
		</g>
	</g>
	<g id="Layer_9" class="st3">
		<path class="st45" d="M52.6,128.7l92.9,9.6l99.7-11l35.9,37.6l-38.4,4.2c0,0-0.6,66.6-1.7,66.6s-94,15.5-94,15.5L41.6,234.6
			l-1.4-70c0,0-27.1-2.8-27.4-3.7s3.4-5.6,3.4-5.6l-13.6-1.7L52.6,128.7z"/>
	</g>
	<path class="st6" d="M133.8,137.2c4.5,0.4,9,0.7,13.5,0.7c6.8-0.1,13.6-1.1,20.3-2c24-3.3,48.2-5.7,72.3-8.1
		c1.6-0.2,3.2-0.3,4.7,0.2c1.6,0.5,2.9,1.6,4.1,2.8c11.5,10.4,22.2,21.8,31.9,33.9c-33.5,2-66.9,6.6-99.7,13.7
		c-12.8-13.3-25.6-26.7-38.4-40c-10.7,10.2-21.5,20.4-32.2,30.6c-0.8,0.8-1.7,1.6-2.8,2.1c-1.4,0.5-2.9,0.4-4.4,0.2
		c-30.3-3.5-60.6-7-90.9-10.5c1.9-1.7,8.2-7,9.7-8.2c3.4-2.8,6.9-5.6,10.4-8.4c3.3-2.6,6.7-5.2,10.1-7.8c3-2.3,6.5-5.2,9.8-7.1
		c0.9-0.5,3.2-0.1,10.5,0.5c4.4,0.4,9.1,1,13.4,1.5c9.1,1.1,18.2,2.1,27.3,3.1C113.5,135.4,123.6,136.3,133.8,137.2z"/>
	<path class="st6" d="M242.7,169.9c0.1,22.1-0.5,44.2-1.6,66.2c-26.2,7.8-54.2,11.1-80.1,14.3c-12.4,1.5-13.8,1.1-25.4-0.3
		c-31.4-3.8-63.1-9-94-15.5c-1.5-26.5-1.2-50.3-0.9-69.4"/>
	<path class="st6" d="M146.3,143.9c1.5,34,0.6,70.5,0.4,104.5"/>
	<path class="st6" d="M51.4,129.3c-18.6,6.5-31.9,13-49.4,25.1c5.3,0,10.5,0.3,15.8,0.3"/>
	<path class="st9" d="M190.1,244.1c0-6.4,0-12.7,0-19.1c6.7-1.4,13.5-2.1,20.3-3.5c0.5,7.4,0.2,13.2,0.3,20.9"/>
</g>
<g id="_x33_D" class="st0">
	<path class="st6" d="M0.7,81.2c0.7-1.1,164,40.9,166.1,41.5c2.2,0.6,84.1-27.4,92.4-29.9c8.3-2.5,14.4,2.7,17.1,6.7
		c2.5,3.7,6.4,18.9,3.4,31.4c-1,4.3-7,7-10.1,2.5c-2.5-3.7,0-19.6-3.7-19.8c-5.5-0.3-36,11.9-36,11.9l-30.2,40.9
		c0,0-31.1,14.3-32.3,14.6c-1.2,0.3-7-1.2-8.5-1.2c-1.5,0-3.3,4.5-4.6,4.3c-8.2-1.2-61.6-21-64.3-23.5c-3.4-3-9.5-21.6-10.7-24.4
		c-1.8-4.6-8.2-5.8-11.3-1.8c-1.6,2.1-5.3,12.7-7.6,14.3C56.3,151.6,11.8,135.4,9,133c-0.5-0.5-2.2-5.5-2.8-6.4
		c-0.6-0.9-3.1,0.3-3.4-1.2C2.5,123.9,0.1,82.1,0.7,81.2z"/>
	<path class="st6" d="M0.6,80.7C6.2,79.4,125,68.5,132.4,67.8c7.8-0.7,14.1,2.5,17,5.4c2.2,2.2,11.9,18.7,9.3,29.4
		c-0.9,3.7-6.3,6.2-8.6,2.1c-1.8-3.1-6.1-17.6-10.3-17.5c-4.7,0.1-53.2,6.3-53.2,6.3l-10.1,5.4"/>
	<line class="st6" x1="166.8" y1="122.7" x2="165.6" y2="179.1"/>
	<path class="st9" d="M134.9,125.4c-2.8-1.1-30-8.9-33-9c-13.8-0.7-6.4,35.4,2.2,38.9c4,1.6,26.7,10,31.1,11.4
		C149.4,171.1,149.2,131,134.9,125.4z"/>
	<path class="st9" d="M44.6,100.8c-2.3-1-21.8-6.7-25.1-7.1c-11.7-1.5-7.5,31.4-0.1,34.4c3.4,1.4,21.5,7,25.3,8.2
		C57,140.1,56.6,106.1,44.6,100.8z"/>
</g>
<g id="_x33_D_copy">
	<path class="st5" d="M26.5,4.1c1.3-0.6,133.3,131.8,134.9,133.6c1.7,1.8,95.7,21.5,105,23.8c9.3,2.3,12.2,10.7,12.5,16.1
		c0.3,4.9-4.6,21.7-14.6,31.8c-3.4,3.5-10.7,2.7-11-3.4c-0.2-4.9,11.1-18.7,7.7-21c-5.1-3.4-41-9-41-9l-51.9,21.9
		c0,0-37.8-3.9-39.1-4.3c-1.3-0.4-6-5.1-7.4-6c-1.4-0.9-5.7,2.4-6.8,1.5c-7.2-5.8-46.8-54.9-48-58.8c-1.5-4.8,3.1-26,3.6-29.3
		c0.8-5.4-4.5-10.2-9.7-8.1c-2.7,1.1-12.3,9.1-15.4,9.3c-5.8,0.5-39.1-40.1-40.3-44c-0.2-0.7,1.1-6.5,1-7.7C6,49.2,3,49,3.6,47.4
		C4,45.8,25.4,4.6,26.5,4.1z"/>
	<path class="st5" d="M26.6,3.5c6.1,1.9,125.6,58.8,133,62.3c7.8,3.8,12,10.4,13.2,14.8c0.9,3.4,0.8,24.5-7.8,33.3
		c-3,3-9.5,2.3-9.4-2.9c0-4,4.2-20.3,0.1-22.5c-4.6-2.6-54.3-24.2-54.3-24.2l-12.7-0.6"/>
	<line class="st5" x1="161.4" y1="137.6" x2="128.3" y2="190.7"/>
	<path class="st29" d="M129.4,122.2c-2.1-2.7-23.6-25.4-26.4-27.3c-12.7-8.4-26.1,30.1-20,38.3c2.9,3.8,19.8,24.6,23.2,28.5
		C117.3,174,139.9,135.6,129.4,122.2z"/>
	<path class="st29" d="M57.2,47.6c-1.6-2.2-17-18.7-19.9-21c-10.4-8-24.9,25.7-19.6,32.7c2.5,3.3,16.6,18.9,19.5,22.2
		C46.7,92.1,65.7,59.5,57.2,47.6z"/>
</g>
<g id="Animation" class="st0">
	<polygon class="st6" points="198.8,40.5 180.9,7.1 2,94.6 17,124.9 	"/>
	<polygon class="st6" points="220.2,144.2 216.5,106.5 17.7,130.1 21.7,164.5 	"/>
	<polyline class="st6" points="217.8,145.4 226.3,234.6 33.3,251 25.3,165.1 	"/>
	<line class="st9" x1="202" y1="167.1" x2="45.7" y2="181.8"/>
	<line class="st9" x1="205.4" y1="200.1" x2="49" y2="214.9"/>
	<line class="st9" x1="207.7" y1="219.1" x2="51.4" y2="233.8"/>
	<line class="st9" x1="155.2" y1="173.1" x2="158.2" y2="203.3"/>
	<line class="st9" x1="85.8" y1="178.8" x2="88.4" y2="209.1"/>
	<path class="st9" d="M170.4,182.9c1,0.4,2.1,0.8,3.1,0.6c1.1-0.2,1.9-1,2.7-1.7c0.9-0.7,2-1.2,3-0.8c0.4,0.2,0.8,0.5,1.2,0.7
		c1.7,0.7,3.6-1.2,5.4-0.7c0.4,0.1,0.8,0.4,1.3,0.6c1.6,0.4,3.1-1.6,4.7-1.1"/>
	<path class="st9" d="M174.2,192.5c0.8-1.3,2.6-2.1,4.1-1.7c0.4,0.1,0.8,0.3,1.2,0.3c0.5,0,1-0.3,1.5-0.4c1.2-0.3,2.4,0.5,3.6,0.4
		c0.9-0.1,1.6-0.8,2.4-1.1c0.8-0.3,2-0.2,2.3,0.6"/>
	<path class="st9" d="M137.8,186.4c-1.5-1.2-3.7-1.1-5.5-0.5c-1.8,0.6-3.6,1.5-5.5,1.6c-1.3,0-2.6-0.3-3.8-0.3
		c-1.4-0.1-2.8,0.2-4.1,0.5c-3.4,0.7-6.8,1.4-10.2,2c-1.1,0.2-2.2,0.4-3.2,0.1c-0.6-0.2-1.2-0.5-1.9-0.7c-2.2-0.4-4.3,2-6.4,1.4"/>
	<path class="st9" d="M101.3,199c1.1-1.4,3-1.7,4.7-1.5c1.7,0.2,3.4,0.8,5.1,1c1.8,0.2,3.5-0.1,5.2-0.3c1.6-0.2,3.2-0.4,4.6-1.1
		c0.6-0.3,1-0.6,1.6-0.8c0.8-0.2,1.6,0,2.5,0.1c2.6,0.4,5.4,0.1,7.9-0.8"/>
	<path class="st9" d="M52.5,195.1c1.8-1.5,3.8-3.2,6.2-3.2c2.4,0,4.7,1.6,6.9,0.9c1.1-0.4,2.2-1.3,3.2-0.7c0.4,0.2,0.7,0.6,1.2,0.8
		c0.4,0.1,0.8,0,1.2-0.1c1.4-0.4,2.8-0.8,4.1-1.2"/>
	<path class="st9" d="M59.3,223.5c0.5-1.4,2.5-1.6,4-1.2c1.5,0.4,2.9,1.2,4.4,0.8c1.2-0.3,2-1.2,3.2-1.6c1.7-0.6,4,0.1,5.2-1.3
		c0.4,0.4,0.6,0.9,0.5,1.5c2.2-0.2,4.5-0.5,6.7-0.8"/>
	<path class="st9" d="M118.2,218.3c6.2-4.1,15.1,0.6,21.8-2.7c0.6-0.3,1.2-0.6,1.8-0.7c0.6,0,1.2,0.2,1.8,0.4c2.5,0.8,5.4,0.4,7.7-1
		c0.6-0.3,1.1-0.7,1.7-0.8c1-0.2,1.9,0.3,2.9,0.5c2,0.6,4.1,0.3,6.2,0c1.3-0.2,2.6-0.4,4-0.6c2.4-0.4,4.7-0.7,7.1-1.1"/>
	<polygon class="st3" points="195.7,41.1 133.9,31.2 116,39.5 177.6,50.2 	"/>
	<polygon class="st3" points="185.7,15.5 169.5,12.9 151.8,21.6 191.8,28.5 	"/>
	<polygon class="st3" points="161.3,59.4 99.5,49.5 81.6,57.8 143.3,68.5 	"/>
	<polygon class="st3" points="121.5,76.8 59.7,66.9 41.8,75.2 103.4,86 	"/>
	<polygon class="st3" points="82,94.3 20.3,84.4 2.4,92.7 64,103.5 	"/>
	<polygon class="st3" points="44.5,112.2 8.6,106.5 13.8,118.9 25.8,121.1 	"/>
	<polygon class="st3" points="214,108 166.5,148.7 146.8,150.9 193.8,109.6 	"/>
	<polygon class="st3" points="218.8,134.9 206.4,145.6 186.8,147.5 217.2,120.7 	"/>
	<polygon class="st3" points="175,110.7 127.5,151.5 107.9,153.7 154.9,112.4 	"/>
	<polygon class="st3" points="132,116.2 84.5,156.9 64.9,159.2 111.8,117.8 	"/>
	<polygon class="st3" points="89.3,121.9 41.7,162.6 22.2,164.9 69.1,123.5 	"/>
	<polygon class="st3" points="48,126.2 20.3,149.9 18.2,136.6 27.4,128.5 	"/>
	<line class="st9" x1="281" y1="57.2" x2="232.7" y2="64.8"/>
	<line class="st9" x1="265.8" y1="102.9" x2="233.9" y2="93.9"/>
	<line class="st9" x1="255" y1="19.4" x2="224.6" y2="36.2"/>
	<path class="st46" d="M271.5,109.5"/>
	<path class="st3" d="M237.2,100.2"/>
</g>
<g id="Animation_00000011739293302612624920000014059660964061508243_" class="st0">
	<polygon class="st6" points="118.3,-4.2 52.8,210.5 230.8,212.7 171.9,-3.6 	"/>
	<polygon class="st41" points="52.8,210.5 96.9,262.2 196,262.9 230.8,212.7 	"/>
	<polygon class="st6" points="159,16.4 130.7,16.7 85.6,179.5 128.8,179.7 141.9,159.3 154.9,180.4 200.9,180 	"/>
	<line class="st6" x1="225.9" y1="20.1" x2="228.9" y2="14.9"/>
	<line class="st6" x1="144.6" y1="163.8" x2="212.3" y2="44.4"/>
	<polygon class="st6" points="206.4,12.6 202.8,36.3 225.1,48.5 242.9,32.9 	"/>
	<line class="st9" x1="144" y1="37.2" x2="141.9" y2="159.3"/>
	<line class="st9" x1="136" y1="49.2" x2="153.2" y2="49.4"/>
	<line class="st9" x1="134.9" y1="72.7" x2="152" y2="72.8"/>
	<line class="st9" x1="134.7" y1="96.3" x2="151.8" y2="96.4"/>
	<line class="st9" x1="134.2" y1="119.9" x2="151.3" y2="120"/>
	<line class="st9" x1="132.6" y1="144.1" x2="149.7" y2="144.2"/>
</g>
<g id="_x32_D" class="st0">
	<path class="st3" d="M276,162l-17.2-18.9c0,0-7.2,7.6-8.7,14.6c-1.5,7,0.2,20.1,0.2,20.1L276,162z"/>
	<polygon class="st2" points="21.9,157.8 215.6,198.2 275.2,164 234.4,108 40.7,67.6 20.9,88.9 13,127.1 	"/>
	<path class="st47" d="M259.1,143.7c-9,7.8-12,19.6-9.1,31"/>
	<path class="st2" d="M234.3,109.8c-8.6,3-18.8,13.4-15,21.7c-9.6,8.4-12.5,23.6-6.5,34.8c-8.3,7.1-5.1,20.9,0.2,30.5"/>
	<line class="st48" x1="210.8" y1="166.2" x2="15" y2="125.4"/>
	<line class="st48" x1="217.3" y1="131.1" x2="21.9" y2="90.4"/>
</g>
</svg>
