<?xml version="1.0" encoding="utf-8"?>
<!-- Generator: Adobe Illustrator 27.7.0, SVG Export Plug-In . SVG Version: 6.00 Build 0)  -->
<svg version="1.1" id="Layer_1" xmlns="http://www.w3.org/2000/svg" xmlns:xlink="http://www.w3.org/1999/xlink" x="0px" y="0px"
	 viewBox="0 0 453.6 318.1" style="enable-background:new 0 0 453.6 318.1;" xml:space="preserve">
<style type="text/css">
	.st0{fill:#FFFFFF;stroke:#000000;stroke-width:11;stroke-miterlimit:10;}
	.st1{fill:none;stroke:#000000;stroke-width:11;stroke-linecap:round;stroke-linejoin:round;stroke-miterlimit:10;}
	.st2{fill:none;stroke:#000000;stroke-width:7.9451;stroke-linecap:round;stroke-linejoin:round;stroke-miterlimit:10;}
	.st3{fill:#FFFFFF;stroke:#000000;stroke-width:5;stroke-linecap:round;stroke-linejoin:round;stroke-miterlimit:10;}
</style>
<path class="st0" d="M423.4,220.8c13.9-21.5,19.1-36.4,23.6-64.5c2-12.3,1.7-38.5-5.7-51.9c-12.2-21.7-20.6-30.3-38.2-43.1
	c-38.2-28-84-45.1-130.9-51.8C208.2,0.2,140.2,6.7,82.1,36c-15.2,7.7-29.6,17.3-41.5,29.6c-10.4,10.6-18.9,23.5-24.3,37.4l0,0
	c-23,54.1-8.1,122.1,35.4,161.7C94,303.2,155,313,212.1,312.5c48.8-0.4,98.3-7,142.9-26.9c13.1-5.8,25.9-12.8,36.5-22.3
	C404.9,251.6,415.7,236.8,423.4,220.8L423.4,220.8z M175.7,149.9c8.9-16.4,70.1-35.9,111-7.4C287.7,154.2,239.8,166.1,175.7,149.9z"
	/>
<path class="st1" d="M40.6,65.7C17.7,89.1,4,123.4,11.9,155.3c5.3,21.2,19.2,39.2,33.4,55.8c3.6,4.3,7.5,8.5,12.5,11
	c4.4,2.1,9.4,2.7,13.3,5.4c7.1,4.8,9.1,15.1,16.6,19.2c5,2.7,10.9,2,16.5,2.8c8.4,1.3,15.8,6.1,23.4,9.9c47.1,23.8,99.8,10,151.2,22
	c4,0.9,9.6,1.7,14.1,0.1c1.2-0.4,4.4-2.1,5.8-1.9c3.1,0.3,3.1,5.5,5.3,7.7c3.7,3.6,9.6,4.1,12.3-2.5c1.2-3,1.3-8.7,2.7-11.7
	c3.1-6.3,10-5.7,17-6.4c16.6-1.6,26.9-4.3,42.9-9.4c5.8-1.8,11.1-4.9,16.7-7.3c9.6-4.2,18.9-16.2,22.2-21.2
	c18.2-26.3,24-41.1,29-72.7c2-12.3,1.7-38.5-5.7-51.9c-12.1-21.7-20.5-30.2-38.1-43.1c-38.2-28-84-45.1-130.9-51.8
	C208.2,0.2,140.2,6.7,82.1,36C66.9,43.7,52.6,53.4,40.6,65.7z"/>
<path class="st2" d="M16.3,103.1c-23,54.1-8.1,122.1,35.4,161.7C94,303.2,155,313,212.1,312.5c48.8-0.4,98.3-7,142.9-26.9
	c13.1-5.8,25.9-12.8,36.5-22.3c13.3-11.8,24.1-26.6,32-42.6"/>
<path class="st1" d="M124.5,130.5c13.6,12,32,17,49.8,20.3c18.5,3.4,37.3,5.8,56,6.7c13.2,0.7,26.7,0.7,39.4-3.3
	c16.3-5,30.4-16.7,38.3-31.7"/>
<path class="st1" d="M150.3,143.6c10.6-2.9,8.3-15.7,20.4-18.1c4.2-0.9,5.9,8.3,14,4.1c2.3-1.2,1.6-7,1.7-9.6c0-2.6,0.5-6.3,3.1-6.8
	c2.7-0.5,5.6,2.2,7.2,4.4c3.4,4.5,8.4,3.2,10.2-0.6c0.6-1.4,0.7-3.1,1.1-4.4c2-8.3,10.4-7.9,18.8-9.4c3.9-0.6,8.1-1.2,11.5,0.6
	c5.4,2.9,6.4,10.3,14.2,11.6c2.7,0.5,6.5-0.7,7.5-5c0.5-2.1,3.7-1.3,5.5-0.8c4,0.9,12.2,3.5,15.4,6c6.2,4.7,10.5,14.8,18.1,17.8"/>
<path class="st2" d="M173.7,150.8c15.9-12.9,35.9-20.6,56.5-21.8c20.5-1.1,41.3,4.5,58.4,15.7"/>
<path class="st3" d="M275.3,209.7c-0.4,4.9,5.3,4.3,12,4.8c6.9,0.5,12.3,1.9,12.6-3.1c0.3-4.7-5.3-4.5-12-5
	C281.2,206,275.7,204.9,275.3,209.7z"/>
<path class="st3" d="M244.4,223.2c-4.9,0.6-3.3,5.9-2.6,12.7c0.8,6.8,0.3,12.4,5.3,11.9c4.7-0.5,3.5-6,2.7-12.7
	C249.1,228.2,249.2,222.6,244.4,223.2z"/>
<path class="st3" d="M237.2,186.2c-3.8,3.2,0.6,6.8,5,12s7.3,10,11.1,6.7c3.6-3.1-0.5-6.9-4.9-12.1
	C244,187.7,240.9,183.1,237.2,186.2z"/>
<path class="st3" d="M215.1,208.4c-0.9-4.8-6.2-2.8-12.9-1.5c-6.7,1.4-12.3,1.4-11.3,6.4c1,4.6,6.3,3,13,1.6
	C210.5,213.6,216,213.1,215.1,208.4z"/>
<path class="st3" d="M213.1,167.6c-3.8-3-6.6,1.9-10.8,7.2c-4.2,5.4-8.5,9.1-4.5,12.2c3.7,3,6.7-1.8,10.9-7.1
	C213,174.5,216.9,170.6,213.1,167.6z"/>
<path class="st3" d="M272.7,166.3c-4.2,2.4-0.7,6.8,2.6,12.8s5.3,11.2,9.6,8.7c4-2.3,0.9-6.9-2.5-12.8
	C279.1,169,276.9,163.9,272.7,166.3z"/>
<path class="st3" d="M322.5,227.5c-3.7,3.2,0.6,6.8,5.1,12c4.5,5.2,7.4,10,11.1,6.7c3.6-3.1-0.5-6.9-5-12.1
	C329.3,229,326.2,224.4,322.5,227.5z"/>
<path class="st3" d="M354.6,220.4c1,4.8,6.2,2.7,12.9,1.4c6.7-1.4,12.3-1.5,11.3-6.5c-1-4.6-6.3-2.9-13-1.5
	C359.2,215.1,353.6,215.7,354.6,220.4z"/>
<path class="st3" d="M395.2,173.6c-3.1-3.8-6.8,0.4-12.1,4.8c-5.3,4.3-10.1,7.1-7,11c3,3.6,6.9-0.3,12.2-4.7
	C393.6,180.3,398.3,177.4,395.2,173.6z"/>
<path class="st3" d="M345.9,159.8c-4.9-0.2-4.2,5.5-4.3,12.3c-0.2,6.8-1.4,12.4,3.6,12.5c4.7,0.1,4.3-5.5,4.6-12.2
	C349.9,165.5,350.7,160,345.9,159.8z"/>
<path class="st3" d="M324.9,139c-3.6-3.3-6.7,1.3-11.4,6.3c-4.7,5-9.2,8.3-5.5,11.8c3.4,3.2,6.8-1.2,11.5-6.2
	C324.1,145.9,328.4,142.3,324.9,139z"/>
<path class="st3" d="M354,131.4c-1.1,4.7,4.4,5.2,11.1,6.7c6.6,1.5,11.8,3.8,13-1c1.1-4.6-4.4-5.3-11.1-6.9
	C360.3,128.6,355.1,126.7,354,131.4z"/>
<path class="st3" d="M403.4,114.5c-2.4,4.3,2.9,6.2,8.8,9.5c5.9,3.3,10.3,7,12.7,2.5c2.3-4.1-2.7-6.3-8.7-9.7
	C410.3,113.6,405.8,110.3,403.4,114.5z"/>
<path class="st3" d="M365.3,99.1c0,4.9,5.6,3.9,12.4,4c6.8,0,12.3,1,12.3-4c0-4.7-5.6-4.1-12.4-4.1
	C370.8,94.9,365.2,94.2,365.3,99.1z"/>
<path class="st3" d="M391.2,69.3c-0.3,4.9,5.4,4.2,12.2,4.5c6.8,0.3,12.3,1.6,12.5-3.5c0.2-4.7-5.4-4.4-12.2-4.6
	C396.9,65.3,391.4,64.5,391.2,69.3z"/>
<path class="st3" d="M335.1,100.9c3.7,3.3,6.7-1.6,11.1-6.7s8.9-8.6,5.2-12c-3.6-3.2-6.8,1.4-11.3,6.6
	C335.4,94.1,331.4,97.8,335.1,100.9z"/>
<path class="st3" d="M300.3,104.1c4.5,2,5.9-3.5,8.6-9.7s5.9-10.9,1.4-12.9c-4.3-1.9-6,3.4-8.8,9.6
	C298.7,97.4,295.9,102.2,300.3,104.1z"/>
<path class="st3" d="M360.7,37.4c-4.9,0.5-3.4,5.9-2.8,12.7c0.6,6.8,0.1,12.4,5.1,12c4.7-0.4,3.6-5.9,3-12.7
	C365.5,42.5,365.5,36.9,360.7,37.4z"/>
<path class="st3" d="M332.9,45.2c-2.9-4-6.8,0.1-12.3,4.3c-5.5,4.2-10.5,6.6-7.5,10.7c2.8,3.8,6.9,0,12.4-4.1
	C330.9,51.9,335.7,49,332.9,45.2z"/>
<path class="st3" d="M265.4,80.4c1.6,4.6,6.5,1.9,13-0.3c6.4-2.2,12-3.1,10.4-7.8c-1.5-4.4-6.6-2.1-13.1,0.2
	C269.3,74.7,263.9,75.7,265.4,80.4z"/>
<path class="st3" d="M225.9,32.8c-3.1-3.8-6.8,0.4-12.1,4.8c-5.3,4.3-10.1,7.1-7,11c3,3.6,6.9-0.3,12.2-4.7
	C224.3,39.6,229,36.6,225.9,32.8z"/>
<path class="st3" d="M230.2,59.9c-4.8,0.8-2.9,6.2-1.8,12.9c1.2,6.7,1.2,12.4,6.1,11.5c4.6-0.8,3.1-6.2,1.9-12.9
	C235.3,64.7,234.9,59.1,230.2,59.9z"/>
<path class="st3" d="M167.4,90.4c0.1,4.9,5.6,3.9,12.5,3.7s12.4,0.7,12.3-4.3c-0.1-4.7-5.7-4.1-12.4-3.9
	C172.9,86.2,167.3,85.6,167.4,90.4z"/>
<path class="st3" d="M157.8,50.7c-1.3,4.7,4.3,5.3,11,7.1c6.6,1.8,11.7,4.2,13-0.6c1.2-4.5-4.3-5.4-10.9-7.2
	C164.3,48.1,159.2,46,157.8,50.7z"/>
<path class="st3" d="M173.4,23.3c-0.5,4.9,5.1,4.5,12,5.2c6.8,0.7,12.2,2.2,12.7-2.7c0.5-4.7-5.1-4.7-11.9-5.4
	C179.3,19.6,173.9,18.4,173.4,23.3z"/>
<path class="st3" d="M119.4,31.3c-3,3.8,1.9,6.6,7.2,10.8s9.1,8.5,12.2,4.5c3-3.7-1.8-6.7-7.1-10.9
	C126.3,31.5,122.4,27.5,119.4,31.3z"/>
<path class="st3" d="M137.3,63.2c-4.9,0.2-3.7,5.7-3.4,12.6c0.3,6.8-0.4,12.4,4.6,12.2c4.7-0.2,3.8-5.7,3.5-12.6
	C141.8,68.5,142.1,63,137.3,63.2z"/>
<path class="st3" d="M435.8,166.5c0.9-4.8-4.7-4.9-11.5-6.1c-6.7-1.2-12-3.2-12.9,1.8c-0.9,4.6,4.8,5,11.4,6.2
	C429.6,169.7,435,171.3,435.8,166.5z"/>
<path class="st3" d="M108.4,94.9c-3.6,3.4,0.9,6.8,5.6,11.7c4.7,5,7.7,9.7,11.4,6.2c3.5-3.2-0.8-6.9-5.4-11.9
	C115.2,96.1,111.9,91.6,108.4,94.9z"/>
<path class="st3" d="M81.1,73c-1.3,4.7,4.3,5.3,10.9,7.1c6.6,1.8,11.7,4.2,13-0.5c1.3-4.5-4.3-5.5-10.9-7.3
	C87.5,70.5,82.3,68.3,81.1,73z"/>
<path class="st3" d="M82,53.6c2.4,4.2,6.8,0.7,12.8-2.6c5.9-3.4,11.3-5.2,8.7-9.6c-2.3-4.1-6.9-0.9-12.8,2.5
	C84.7,47.3,79.7,49.4,82,53.6z"/>
<path class="st3" d="M41.5,82.5c0.1,4.9,5.6,3.9,12.5,3.7c6.8-0.2,12.4,0.8,12.3-4.3c-0.1-4.7-5.7-4.1-12.5-3.9
	C47,78.3,41.4,77.8,41.5,82.5z"/>
<path class="st3" d="M29,117.3c1.6,4.6,6.5,2,13-0.1c6.4-2.2,12.1-2.9,10.5-7.7c-1.5-4.4-6.6-2.1-13-0.1
	C32.9,111.6,27.5,112.7,29,117.3z"/>
<path class="st3" d="M64.1,132.5c3.4,3.6,6.8-0.9,11.7-5.6s9.7-7.7,6.2-11.4c-3.2-3.5-6.9,0.8-11.9,5.4
	C65.3,125.7,60.7,128.9,64.1,132.5z"/>
<path class="st3" d="M90.2,147c-1.3,4.7,4.2,5.3,10.8,7.2c6.6,1.8,11.6,4.3,13-0.5c1.3-4.5-4.2-5.6-10.8-7.4
	C96.6,144.4,91.4,142.3,90.2,147z"/>
<path class="st3" d="M160.1,168.6c-2.5-4.2-6.8-0.6-12.7,2.9c-5.8,3.5-11.2,5.5-8.6,9.8c2.4,4,6.9,0.8,12.7-2.7
	C157.5,175.1,162.5,172.7,160.1,168.6z"/>
<path class="st3" d="M134.4,211.6c-1.8,4.6,3.7,5.7,10.1,8.1c6.4,2.4,11.2,5.3,12.9,0.7c1.7-4.4-3.7-5.9-10.1-8.2
	C141.1,209.6,136.1,207,134.4,211.6z"/>
<path class="st3" d="M107.8,228.5c4-2.7,0.2-6.8-3.8-12.5c-3.9-5.7-6.2-10.8-10.3-7.9c-3.9,2.7-0.3,6.9,3.6,12.6
	C101.2,226.3,103.8,231.2,107.8,228.5z"/>
<path class="st3" d="M81.9,179c-1.4-4.7-6.5-2.3-13-0.4c-6.5,1.9-12.2,2.5-10.7,7.3c1.3,4.5,6.5,2.4,13,0.5
	C77.8,184.4,83.3,183.6,81.9,179z"/>
<path class="st3" d="M34.7,171.2c4.6-1.8,1.6-6.6-0.9-13c-2.5-6.3-3.6-11.9-8.3-10.1c-4.4,1.7-1.8,6.7,0.7,13S30.3,173,34.7,171.2z"
	/>
<path class="st3" d="M242.9,42.7c-0.2,4.9,5.5,4.2,12.2,4.5c6.8,0.2,12.3,1.5,12.5-3.5c0.1-4.7-5.4-4.3-12.2-4.6
	C248.5,38.7,243,37.9,242.9,42.7z"/>
<path class="st3" d="M271.6,21.7c-1.1,4.7,4.4,5.2,11.1,6.7s11.8,3.8,13-1c1.1-4.6-4.4-5.3-11.1-6.9C278,19,272.7,17,271.6,21.7z"/>
</svg>
