<?xml version="1.0" encoding="utf-8"?>
<!-- Generator: Adobe Illustrator 27.7.0, SVG Export Plug-In . SVG Version: 6.00 Build 0)  -->
<svg version="1.1" id="Layer_11" xmlns="http://www.w3.org/2000/svg" xmlns:xlink="http://www.w3.org/1999/xlink" x="0px" y="0px"
	 viewBox="0 0 965.3 629.1" style="enable-background:new 0 0 965.3 629.1;" xml:space="preserve">
<style type="text/css">
	.st0{fill:none;stroke:#000000;stroke-width:11;stroke-linecap:round;stroke-linejoin:round;stroke-miterlimit:10;}
	.st1{fill:none;stroke:#000000;stroke-width:7;stroke-linecap:round;stroke-linejoin:round;stroke-miterlimit:10;}
	.st2{fill:#FFFFFF;stroke:#000000;stroke-width:7;stroke-linecap:round;stroke-linejoin:round;stroke-miterlimit:10;}
</style>
<g id="Layer_2">
	<path class="st0" d="M866.8,266.6c0,71.6-146.5,139.7-327.2,136.1c-180.6-3.6-328.9-57.5-328.9-120.4
		c0-71.6,149.6-140.4,330.3-140.4S866.8,195,866.8,266.6z"/>
	<path class="st1" d="M232,320.5C217.4,225,370.2,170.8,542.1,168.8c194.4-2.2,321.3,60.7,309,136"/>
	<path class="st0" d="M210.7,285.7c1.7,25.5,7.9,53.9,13.5,60.7c48.2,66.9,174.7,100.8,315.5,103.6c180.7,3.6,307-65.4,321.6-115.9
		c2.3-7.9,5.6-25.8,5.6-67.4"/>
	<path class="st0" d="M845.5,360.9c-10.1,75.3-13.5,92.1-19.1,100c-24.7,39.3-100,119.1-288.8,120.2
		c-120.2,0.7-229.2-33.7-271.9-102.2c-12-19.3-13.5-38.2-32.6-120.2"/>
	<path class="st0" d="M833.1,441.8c6.7,1.1,15.9,23.2-3.4,56.2c-19.1,32.6-90.5,112.3-264,122.5c-208.8,12.3-289.9-87.6-302.2-111.2
		c-12.2-23.3-15.3-47.4-7.9-52.8"/>
</g>
<g id="Layer_3">
	<path class="st2" d="M403.7,556.5c0,0,6.3,57.6,6.8,62.1c1.1,10.5,12.8,9,12.4-3.4c-0.3-9.4-5.6-68.9-5.6-68.9"/>
	<path class="st2" d="M404.8,591.5c-3.8,0-2.3,3.8-1.1,18.8c0.8,8.7,25.6,6.8,25.6-3.4c-1.1-15.8-1.5-19.6-3.8-19.2
		C418.7,599.4,412.3,598.7,404.8,591.5z"/>
	<path class="st1" d="M415.4,536.9c1.1,12.4-6.3,18.6-15.8,17.5c-9.6-1.1-19.2-9.6-19.8-20.3c-0.5-10.4,5.1-18.6,16.9-17.5
		C406.3,517.5,414.2,524.5,415.4,536.9z"/>
	<path class="st1" d="M382.6,522.4c5.1-8.4,22-26,30.5-33.5c2.6-2.3,6.5-3.2,11.3-2.8c9.6,0.9,17.5,7.9,18.6,20.3
		c0.4,4.5,0,8.4-1.8,11c-6.8,9.4-24,28.7-30.5,33.9"/>
	<path class="st2" d="M399.9,503.1c-1.4-13.9-12.4-102.4-13.6-111.4c-2.3-17.3,11.3-18.4,13.2-3.4c2.2,17.7,12.8,106.1,12.8,114.4
		C412.3,508.7,400.7,510.6,399.9,503.1z"/>
	<path class="st2" d="M386.6,420.6c-3.8,0-1.7,4.1-0.6,19.2c0,9,26,10.2,25.8-4c-1.1-15.8-1.5-19.6-3.8-19.2
		C401.8,422.9,393.7,424.7,386.6,420.6z"/>
</g>
<g id="Layer_4">
	<path class="st2" d="M667.5,548.8c0,0-4.5,63.2-4.2,67.5c0.6,9.3,11.6,8.8,12.4,0.3c0.7-6.8,4.5-63.2,4.5-63.2"/>
	<path class="st2" d="M657.6,584.6c5.8,8.1,14.9,10.7,24.1,1.7c2.7-0.5,2.1,5,0.9,17.6c-1.1,12.1-25.3,9.3-26.8,1.8
		C656,588.6,656,585,657.6,584.6z"/>
	<path class="st1" d="M705.6,530.7c-0.6,10.7-10.2,21.5-22,22c-12,0.6-18.6-5.6-18.1-16.4c0.6-12.1,9.5-22.1,21.5-23.2
		C699.4,512.1,706.3,518.6,705.6,530.7z"/>
	<path class="st1" d="M704,521c-3.4-7.3-24.4-32.6-26-34.5c-2.8-3.3-8-4.3-14.2-3.8c-12,1.1-20.8,11-21.5,23.2
		c-0.2,3.2,0.5,5.9,1.4,8.4c0.9,2.4,16.8,27,26.4,34.9"/>
	<path class="st2" d="M672.3,499.1c0-15.8,3.4-88.1,4.5-105.6c1.1-18.1,17.5-19.8,16.4,0.6c-1.9,33.9-5.6,90.4-6.2,101.6
		S672.3,507,672.3,499.1z"/>
	<path class="st2" d="M671.2,416.1c6.2,9,15.8,11.9,25.4,1.7c2.8-0.6,2.3,5.6,1.1,19.8c-1.1,13.6-26.5,10.7-28.2,2.3
		C669.5,420.6,669.5,416.7,671.2,416.1z"/>
</g>
<g id="Layer_5">
	<path class="st2" d="M840.6,448.6c0,0-10.8,61.8-11.6,67.5c-1.4,10.2,10.4,9.6,12.4-1.4c1.5-8.2,11-63.2,11-63.2"/>
	<path class="st2" d="M828.2,490.6c4.5,3.7,11.9,7.1,19.8,2.5c2.3,0.3,1.7,2.5-0.8,15.8c-1.7,7.1-24.6,5.4-22.6-2.8
		C826.2,495.1,826.5,490.6,828.2,490.6z"/>
	<path class="st2" d="M871.8,413.5c-15.7-5.8-42.3-12.6-46.4-10.6c-2.8,1.4-7.7,7.1-10.3,17.6c-2.6,10.5-2,18.8,0.7,20.4
		c1.5,0.9,30.6,8.8,46.4,10.6"/>
	<ellipse transform="matrix(0.2447 -0.9696 0.9696 0.2447 235.5637 1167.3258)" class="st2" cx="867" cy="432.5" rx="19.6" ry="5"/>
	<path class="st2" d="M848.2,409.6c1.1-6.8,16.4-90.4,18.1-98.8c2.8-14.1,14.7-12.4,12.7,1.1c-1.3,9.1-17.9,96.8-18.6,100.5
		C859.2,418.3,847.1,416.4,848.2,409.6z"/>
	<path class="st2" d="M858.1,331.4c4.5,3.7,13,6.5,20.9,2c2.3,0.3,1.4,2.5-1.1,15.8c-1.7,7.1-25.1,5.1-23.2-3.1
		C856.4,335.1,856.4,331.4,858.1,331.4z"/>
</g>
<g id="Layer_6">
	<path class="st2" d="M248.7,456.1c0,0,14.2,58.3,15.3,63.9c2,10.1-9.9,10.2-12.5-0.7c-1.9-8.1-14.5-59.7-14.5-59.7"/>
	<path class="st2" d="M263.5,494.6c-4.3,3.9-11.5,7.7-19.6,3.6c-2.2,0.4-1.6,2.6,1.7,15.7c2.1,7,24.8,4,22.4-4.1
		C265.7,499,265.1,494.5,263.5,494.6z"/>
	<path class="st2" d="M215.6,422.7c15.4-6.7,41.5-14.9,45.7-13.1c2.9,1.2,8,6.7,11.3,17c3.2,10.3,3,18.6,0.4,20.4
		c-1.5,1-30.1,10.5-45.7,13.1"/>
	
		<ellipse transform="matrix(0.9547 -0.2975 0.2975 0.9547 -121.3203 85.8641)" class="st2" cx="221.4" cy="441.4" rx="5" ry="19.6"/>
	<path class="st2" d="M238.9,417.6c-1.5-6.7-21.3-89.3-23.5-97.7c-3.6-13.9-15.3-11.6-12.6,1.8c1.8,9,23.2,95.7,24.1,99.3
		C228.4,426.9,240.4,424.3,238.9,417.6z"/>
	<path class="st2" d="M224.8,340c-4.3,3.9-12.6,7.2-20.8,3.1c-2.2,0.4-1.3,2.6,2,15.7c2.1,7,25.4,3.7,22.9-4.4
		C226.7,343.6,226.5,339.9,224.8,340z"/>
</g>
<g id="Layer_7">
	<path class="st1" d="M853.9,235c0,0-0.8-10.2-0.4-14.7c0.8-7.5,11.7-9.4,12,7.2s0.4,28.6,0.4,28.6"/>
	<path class="st1" d="M221,250.8c0,0,0.8-10.2,0.4-14.7c-0.8-7.5-11.7-9.4-12,7.2s-0.4,28.6-0.4,28.6"/>
	<path class="st1" d="M603.2,144.3c0,0-0.4-3-0.4-7.9c0-8.7,13.6-9.8,14.3-0.8c0.8,9,0,10.9,0,10.9"/>
	<path class="st1" d="M474.3,146.7c0,0,0.3-3,0.1-7.9c-0.3-8.7-13.9-9.3-14.3-0.2c-0.4,9.1,0.4,10.9,0.4,10.9"/>
	<path class="st1" d="M325.6,179.4c0,0,0.3-3,0.1-7.9c-0.3-8.7-13.9-9.3-14.3-0.2s0.4,10.9,0.4,10.9"/>
</g>
<g id="Layer_8">
	<path class="st2" d="M550.9,276.6c4.5-5.1,34.4-22,50.3-29.9c15.8-7.9,327-158.1,343.3-165.5c16.4-7.3,22,10.2,13,15.2
		c-6.8,3.8-331.5,159.8-342.2,164.9c-10.7,5.1-56.5,22.6-59.9,23.2"/>
	<path class="st2" d="M532.6,289.7c-1.7-6.4,7.3-14.4,15.3-16.2c2-0.5,4,1,4.2,3.1c0.3,2.9,0.7,4.7,4.3,7.6c1.5,1.2,1.6,3.6,0.1,4.9
		C550.2,294.6,534.5,297,532.6,289.7z"/>
</g>
<g id="Layer_8_copy">
	<path class="st2" d="M453.4,61.8c-5.9-3.4-39.7-9.8-57.2-12.1C378.7,47.3,35.8,5.3,17.9,3.6S0.3,20.3,10.5,22.2
		c7.7,1.4,365.3,44.5,377.1,45.9c11.8,1.4,60.7,3.2,64.1,2.6"/>
	<path class="st2" d="M475,68.4c-0.4-6.7-11.5-11.3-19.7-10.4c-2.1,0.2-3.5,2.3-3,4.3c0.7,2.9,0.9,4.7-1.6,8.6
		c-1,1.7-0.4,3.9,1.4,4.7C459.8,78.6,475.5,75.8,475,68.4z"/>
</g>
<g id="Layer_10">
	<path class="st2" d="M550.8,295.1c0.9-4.4,10.1-10.4,19.3-7.5"/>
	<path class="st2" d="M517.3,307.4c5.6-13.8,39.2-19.2,50.3-7.1"/>
	<path class="st2" d="M534.2,293.5c-1.4-4.2-11.3-9-20-5.1"/>
</g>
</svg>
