<?xml version="1.0" encoding="UTF-8"?><svg id="Layer_3" xmlns="http://www.w3.org/2000/svg" width="41.87" height="41.72" viewBox="0 0 41.87 41.72"><defs><style>.cls-1{stroke-width:.65px;}.cls-1,.cls-2,.cls-3,.cls-4{stroke:#000;stroke-linecap:round;stroke-linejoin:round;}.cls-1,.cls-4{fill:none;}.cls-2,.cls-3,.cls-4{stroke-width:1.09px;}.cls-3{fill:#fff;}</style></defs><path class="cls-3" d="m15.89,1.9C8.95,4.24,3.31,10.27,1.71,17.43c-1.6,7.16,1.04,15.16,6.78,19.71,5.58,4.42,13.66,5.27,20.13,2.3,6.45-2.96,11.05-9.53,11.83-16.6C42.03,8.52,30.09-2.91,15.89,1.9Z"/><path class="cls-4" d="m21.64,27.59c11.01,4.52,18.19-12.62,7.76-17.77-10.73-5.31-19.47,12.99-7.76,17.77Z"/><path class="cls-2" d="m29.79,15.26c1.64,1.84,1.48,5-.35,6.66-1.82,1.65-4.97,1.54-6.66-.27-1.69-1.81-1.58-4.95.18-6.66s4.94-1.65,6.66.1l.17.17Z"/><path class="cls-1" d="m2.32,15.76c.71-1.57,1.52-3.26,3.08-3.99.86-.4,1.85-.47,2.71-.9,1.41-.73,2.12-2.31,3.18-3.49"/><path class="cls-1" d="m12.07,9.74c-.47.34-1,.69-1.55.56-.4-.08-.73-.41-1.13-.37"/><path class="cls-1" d="m4.93,32.58c.56-1.07,1.93-1.65,3.11-1.31.38.11.73.32,1.13.42.8.24,1.68.08,2.44-.28.76-.35,1.41-.88,2.06-1.41.21-.17.41-.32.62-.49"/><path class="cls-1" d="m11.7,31.57c.61.27,1.16.66,1.61,1.14.52.14.97-.41,1.5-.47.23-.01.42.04.62.1.38.11.76.25,1.14.42"/><path class="cls-1" d="m1.66,24.18c.1-.54.52-.95,1-1.21.47-.28.97-.48,1.43-.79.47-.32.85-.79,1.07-1.31"/><path class="cls-1" d="m3.95,22.52c.51.27,1.03.52,1.54.8.3.16.59.31.9.35.56.08,1.1-.18,1.58-.49.48-.3.93-.66,1.48-.82"/><path class="cls-1" d="m24.33,38.12c-.86.16-1.74.34-2.47.8-.35.23-.65.51-.99.75-.64.48-1.37.8-2.09,1.14"/><path class="cls-1" d="m15.12,38.21c-.49-.2-1.07-.3-1.6-.18-.32.06-.62.18-.92.3-.34.14-.68.25-1.02.4"/><path class="cls-1" d="m6.31,11.49c.64.07,1.21.47,1.51,1.02.06.1.1.23.16.32.37.64,1.17.83,1.89.83"/><path class="cls-1" d="m34.87,31.45c-.34.44-.55.99-.58,1.54-.01.34.01.68-.01,1.02-.07.69-.42,1.3-.76,1.89"/><path class="cls-1" d="m39.13,20.52c.3.07.59.14.85.32.24.18.45.51.35.81"/><path class="cls-1" d="m34.8,8.17c.25-.23.56-.67.7-.96"/><path class="cls-1" d="m36.31,10.07c.48-.56.51-1.47.06-2.06"/><path class="cls-1" d="m21.38,2.81c-.49-.73-1.48-.97-2.37-.96-.9.01-1.78.23-2.67.13.34.28,1.03,1.07,1.21,1.57.05.11.1.23.14.3"/><path class="cls-1" d="m5.57,29.17c-.82.3-1.45,1.02-1.65,1.86"/></svg>