<?xml version="1.0" encoding="utf-8"?>
<!-- Generator: Adobe Illustrator 27.7.0, SVG Export Plug-In . SVG Version: 6.00 Build 0)  -->
<svg version="1.1" id="Layer_1" xmlns="http://www.w3.org/2000/svg" xmlns:xlink="http://www.w3.org/1999/xlink" x="0px" y="0px"
	 viewBox="0 0 621.8 596.4" style="enable-background:new 0 0 621.8 596.4;" xml:space="preserve">
<style type="text/css">
	.st0{fill:none;stroke:#000000;stroke-width:11;stroke-linecap:round;stroke-linejoin:round;stroke-miterlimit:10;}
	.st1{fill:none;stroke:#000000;stroke-width:11;stroke-linecap:round;stroke-linejoin:round;stroke-miterlimit:10.0001;}
	.st2{fill:none;stroke:#FFFFFF;stroke-width:11;stroke-linecap:round;stroke-linejoin:round;stroke-miterlimit:10;}
</style>
<g>
	<g>
		<polygon id="XMLID_00000168797191456614292970000007932229050010670722_" points="108.4,238.3 616.3,162 157.9,15.5 		"/>
	</g>
	<g>
		<polygon id="XMLID_00000153706948216280847980000017385417500028012950_" class="st0" points="108.4,238.3 616.3,162 157.9,15.5 
					"/>
	</g>
</g>
<path class="st0" d="M41.1,586.5c0,0,121-546.2,125.5-563.5c4.4-17.3-26.2-24.8-30.9-8.6C131,30.7,5.7,577.2,5.7,577.2"/>
<ellipse transform="matrix(0.2552 -0.9669 0.9669 0.2552 -545.2852 455.9502)" class="st1" cx="23.3" cy="581.9" rx="7.9" ry="18.3"/>
<line class="st2" x1="174.1" y1="42.5" x2="210.3" y2="119.3"/>
<path class="st2" d="M246.4,64c-2.3,3.4-84.7,143.4-84.7,143.4"/>
<polyline class="st2" points="313.1,84.3 270.1,71.9 230.6,199.5 287.1,192.7 "/>
<line class="st2" x1="292.7" y1="139.6" x2="255.5" y2="136.2"/>
<polyline class="st2" points="306.3,191.6 354.9,95.6 362.8,185.9 "/>
<line class="st2" x1="328.9" y1="149.8" x2="357.1" y2="150.9"/>
<line class="st2" x1="396.6" y1="106.9" x2="384.2" y2="183.7"/>
<line class="st2" x1="446.3" y1="121.6" x2="437.3" y2="175.8"/>
<line class="st2" x1="391" y1="147.8" x2="438.4" y2="150.1"/>
<line class="st2" x1="482.5" y1="130.6" x2="479.1" y2="152.1"/>
<path class="st2" d="M474.6,171.3c0.4-0.4,0.8-0.7,1.2-1.1"/>
</svg>
