<?xml version="1.0" encoding="utf-8"?>
<!-- Generator: Adobe Illustrator 27.7.0, SVG Export Plug-In . SVG Version: 6.00 Build 0)  -->
<svg version="1.1" xmlns="http://www.w3.org/2000/svg" xmlns:xlink="http://www.w3.org/1999/xlink" x="0px" y="0px"
	 viewBox="0 0 46.2 47.4" style="enable-background:new 0 0 46.2 47.4;" xml:space="preserve">
<style type="text/css">
	.st0{display:none;}
	.st1{display:inline;fill:#FFFFFF;}
	.st2{display:inline;fill:none;stroke:#000000;stroke-width:7;stroke-linecap:round;stroke-linejoin:round;}
	.st3{display:inline;}
	
		.st4{fill:none;stroke:#000000;stroke-width:5;stroke-linecap:round;stroke-linejoin:round;stroke-miterlimit:10;stroke-dasharray:12.0086;}
	.st5{fill:none;stroke:#000000;stroke-width:7;stroke-linecap:round;stroke-linejoin:round;stroke-miterlimit:10;}
	.st6{display:inline;fill:none;stroke:#000000;stroke-width:7;stroke-linecap:round;stroke-linejoin:round;stroke-miterlimit:10;}
	.st7{display:inline;stroke:#000000;stroke-width:5;stroke-linecap:round;stroke-linejoin:round;stroke-miterlimit:10;}
	
		.st8{display:inline;fill:#FFFFFF;stroke:#000000;stroke-width:5;stroke-linecap:round;stroke-linejoin:round;stroke-miterlimit:10;}
	.st9{display:inline;fill:none;stroke:#000000;stroke-width:5;stroke-linecap:round;stroke-linejoin:round;stroke-miterlimit:10;}
	
		.st10{display:inline;fill:none;stroke:#000000;stroke-width:6;stroke-linecap:round;stroke-linejoin:round;stroke-miterlimit:10;stroke-dasharray:9.0067;}
	
		.st11{display:inline;fill:#FFFFFF;stroke:#000000;stroke-width:6.6669;stroke-linecap:round;stroke-linejoin:round;stroke-miterlimit:10;}
	.st12{display:inline;stroke:#000000;stroke-width:5.2082;stroke-linecap:round;stroke-linejoin:round;stroke-miterlimit:10;}
	
		.st13{display:inline;fill:none;stroke:#000000;stroke-width:5.2082;stroke-linecap:round;stroke-linejoin:round;stroke-miterlimit:10;}
	
		.st14{display:inline;fill:none;stroke:#000000;stroke-width:7.2914;stroke-linecap:round;stroke-linejoin:round;stroke-miterlimit:10;}
	
		.st15{display:inline;fill:#FFFFFF;stroke:#000000;stroke-width:7.2914;stroke-linecap:round;stroke-linejoin:round;stroke-miterlimit:10;}
	
		.st16{display:inline;fill:#FFFFFF;stroke:#000000;stroke-width:5.2082;stroke-linecap:round;stroke-linejoin:round;stroke-miterlimit:10;}
	.st17{fill:none;stroke:#FFFFFF;stroke-width:5.2082;stroke-linecap:round;stroke-linejoin:round;stroke-miterlimit:10;}
	.st18{fill:none;stroke:#FFFFFF;stroke-width:3.1249;stroke-linecap:round;stroke-linejoin:round;stroke-miterlimit:10;}
	
		.st19{display:inline;fill:#FFFFFF;stroke:#000000;stroke-width:7;stroke-linecap:round;stroke-linejoin:round;stroke-miterlimit:10;}
	
		.st20{display:inline;fill:#FFFFFF;stroke:#000000;stroke-width:4.9996;stroke-linecap:round;stroke-linejoin:round;stroke-miterlimit:9.9997;}
	
		.st21{display:inline;fill:#FFFFFF;stroke:#000000;stroke-width:6.8393;stroke-linecap:round;stroke-linejoin:round;stroke-miterlimit:10;}
	.st22{display:inline;fill:none;stroke:#000000;stroke-width:7;stroke-miterlimit:10;}
	.st23{display:inline;stroke:#000000;stroke-width:0.5798;stroke-miterlimit:10;}
	.st24{display:inline;stroke:#000000;stroke-width:0.6254;stroke-miterlimit:10;}
	.st25{display:inline;fill:none;stroke:#000000;stroke-width:3;stroke-linecap:round;stroke-linejoin:round;stroke-miterlimit:10;}
	.st26{fill:none;stroke:#000000;stroke-width:5;stroke-linecap:round;stroke-linejoin:round;stroke-miterlimit:10;}
	
		.st27{display:inline;fill:none;stroke:#000000;stroke-width:2.5869;stroke-linecap:round;stroke-linejoin:round;stroke-miterlimit:10;}
	.st28{display:inline;stroke:#000000;stroke-width:3;stroke-linecap:round;stroke-linejoin:round;stroke-miterlimit:10;}
	.st29{stroke:#000000;stroke-width:5;stroke-linecap:round;stroke-linejoin:round;stroke-miterlimit:10;}
	.st30{fill:none;stroke:#FFFFFF;stroke-width:5;stroke-linecap:round;stroke-linejoin:round;stroke-miterlimit:10;}
	.st31{fill:none;stroke:#FFFFFF;stroke-width:4.2881;stroke-linecap:round;stroke-linejoin:round;stroke-miterlimit:10;}
	.st32{display:inline;fill:none;stroke:#000000;stroke-width:15;stroke-linecap:round;stroke-linejoin:round;stroke-miterlimit:10;}
	.st33{fill:#FFFFFF;stroke:#000000;stroke-width:7;stroke-linecap:round;stroke-linejoin:round;stroke-miterlimit:10;}
	.st34{fill:none;stroke:#000000;stroke-width:6.9994;stroke-linecap:round;stroke-linejoin:round;stroke-miterlimit:10;}
	.st35{display:inline;stroke:#000000;stroke-width:3.517;stroke-linecap:round;stroke-linejoin:round;stroke-miterlimit:10;}
	.st36{display:inline;fill:none;stroke:#000000;stroke-width:20;stroke-linecap:round;stroke-linejoin:round;stroke-miterlimit:10;}
	
		.st37{display:inline;fill:none;stroke:#000000;stroke-width:21.283;stroke-linecap:round;stroke-linejoin:round;stroke-miterlimit:10;}
	
		.st38{display:inline;fill:none;stroke:#000000;stroke-width:20.5052;stroke-linecap:round;stroke-linejoin:round;stroke-miterlimit:10;}
	
		.st39{display:inline;fill:none;stroke:#000000;stroke-width:7.449;stroke-linecap:round;stroke-linejoin:round;stroke-miterlimit:10;}
	.st40{display:inline;stroke:#000000;stroke-width:7;stroke-linecap:round;stroke-linejoin:round;stroke-miterlimit:10;}
	.st41{fill:#FFFFFF;stroke:#000000;stroke-width:5;stroke-linecap:round;stroke-linejoin:round;stroke-miterlimit:10;}
	.st42{fill:none;stroke:#000000;stroke-width:3.532;stroke-linecap:round;stroke-linejoin:round;stroke-miterlimit:10;}
	.st43{stroke:#000000;stroke-width:1.7747;stroke-linecap:round;stroke-linejoin:round;stroke-miterlimit:10;}
	.st44{fill:none;stroke:#000000;stroke-width:3.5324;stroke-linecap:round;stroke-linejoin:round;stroke-miterlimit:10.0009;}
	.st45{fill:none;stroke:#000000;stroke-width:3.5322;stroke-linecap:round;stroke-linejoin:round;stroke-miterlimit:10.0005;}
	.st46{fill:none;stroke:#000000;stroke-width:3.5323;stroke-linecap:round;stroke-linejoin:round;stroke-miterlimit:10.0009;}
	.st47{fill:none;stroke:#000000;stroke-width:3.5321;stroke-linecap:round;stroke-linejoin:round;stroke-miterlimit:10.0001;}
	.st48{fill:none;stroke:#000000;stroke-width:3.5321;stroke-linecap:round;stroke-linejoin:round;stroke-miterlimit:10.0003;}
	.st49{fill:none;stroke:#000000;stroke-width:3.5322;stroke-linecap:round;stroke-linejoin:round;stroke-miterlimit:10.0006;}
	.st50{fill:none;stroke:#000000;stroke-width:3.5323;stroke-linecap:round;stroke-linejoin:round;stroke-miterlimit:10.0007;}
	.st51{fill:none;stroke:#000000;stroke-width:3.5322;stroke-linecap:round;stroke-linejoin:round;stroke-miterlimit:10.0004;}
	.st52{fill:#FFFFFF;}
	.st53{display:inline;stroke:#000000;stroke-width:3.0358;stroke-linecap:round;stroke-linejoin:round;stroke-miterlimit:10;}
	.st54{stroke:#000000;stroke-width:7;stroke-linecap:round;stroke-linejoin:round;stroke-miterlimit:10;}
	.st55{display:inline;stroke:#000000;stroke-width:5.3859;stroke-linecap:round;stroke-linejoin:round;stroke-miterlimit:10;}
	
		.st56{display:inline;fill:none;stroke:#000000;stroke-width:5.3859;stroke-linecap:round;stroke-linejoin:round;stroke-miterlimit:10;}
	.st57{fill:#FFFFFF;stroke:#000000;stroke-width:5;stroke-linecap:round;stroke-linejoin:round;stroke-miterlimit:10.0005;}
	.st58{stroke:#000000;stroke-width:1.9373;stroke-linecap:round;stroke-linejoin:round;stroke-miterlimit:10;}
	.st59{fill:#FFFFFF;stroke:#000000;stroke-width:4.9999;stroke-linecap:round;stroke-linejoin:round;stroke-miterlimit:10.0003;}
	.st60{display:inline;fill:none;stroke:#000000;stroke-width:9;stroke-linecap:round;stroke-linejoin:round;stroke-miterlimit:10;}
	.st61{display:inline;fill:none;stroke:#FFFFFF;stroke-width:9;stroke-linecap:round;stroke-linejoin:round;stroke-miterlimit:10;}
	.st62{display:inline;fill:none;stroke:#FFFFFF;stroke-width:5;stroke-linecap:round;stroke-linejoin:round;stroke-miterlimit:10;}
	.st63{display:inline;fill:none;stroke:#FFFFFF;stroke-width:7;stroke-linecap:round;stroke-linejoin:round;stroke-miterlimit:10;}
</style>
<g id="Decorative" class="st0">
	<g id="Pointing_Hand">
		<path class="st1" d="M-2.7-100.9C-22.2-97.7-71-55.5-72.4-9.6c-0.8,25.8,24.5,41,28.7,46c1.8,7.2-2.8,75.9,0.1,98.3
			c2.1,16.4,13.8,41.3,27,40.9c14-0.4,19.9-13.7,19.9-27.7s-3.5-34.4-3.5-42.5s-1.2-33.7-0.3-37c5.5,1.4,11.6,9.3,19.3,8.8
			c6.9-0.5,12.8-8.2,18.4-9.6c4.3-1,7.4,10.4,18.6,12.2c8.3,1.3,15.7-9.8,18-9.8c5.4,0,8,11.6,20.6,8.9
			c21.2-4.5,19.5-41.5,18.1-52.3s-6.4-64.4-10.5-77.2c-4.9-15.1-15.5-35.7-38.7-42.2C50.3-96.5,14.3-103.6-2.7-100.9z"/>
		<path class="st2" d="M4.9-51.7C1.7-34.2-10-18.4-25.9-10.4C-15.4-4.8-6.6,3.8-0.7,14.1c3.5,6.1,5.9,13.5,3.4,20
			c-3.6,9.1-15.4,12.1-25.1,10.6C-40.1,42-54.8,29.1-64.5,14C-68,8.6-71,2.7-72-3.7c-1.5-8.4,0.6-17.2,3.6-25.4
			c7.2-20.1,19.3-38.4,35-52.9c8.6-8,18.5-14.9,29.7-18c11.2-3.1,48.9-1.4,74.8,11.1c28.8,15.2,36.1,38.4,40.6,115.4"/>
		<path class="st2" d="M-0.8,67.1c-2.9,26.6,4.3,53.3,3.8,80c-0.1,6-0.6,12.2-3.2,17.7s-7.5,10.1-13.5,10.9
			c-9.6,1.2-17.5-7.6-21.7-16.4c-8.3-17.5-9-37.6-9.1-56.9C-44.6,81.2-44,60-42.8,38.8"/>
		<path class="st2" d="M-5,42.5C-5.5,49.2-5.2,55-2.9,61.3s6.8,12.1,13.1,14.5c10.5,4.1,22.8-2.4,28.6-12c5.9-9.6,6.7-21.4,6.3-32.6
			c-0.3-9.1-1.3-18.6-6.1-26.4S24.7-8.5,15.9-6.1C6.8-3.6,1.6,6.1,0.4,15.5"/>
		<path class="st2" d="M38.8,64.2c2.5,7.1,7.6,14.2,15,15.5c7.9,1.4,15.5-4.5,19.8-11.2c9.6-15.1,8.3-35.3,0.8-51.5
			C71.3,10.2,66.8,3.6,60,0.6S43.7-0.2,40.9,6.7"/>
		<path class="st2" d="M74.1,67.6c2.5,7.1,5.9,10.8,13.4,12c7.9,1.4,15.5-4.5,19.8-11.2c9.6-15.1,8.3-35.3,0.8-51.5
			c-3.1-6.8-7.6-13.4-14.4-16.4S75.9,0.4,73.1,8.8"/>
	</g>
	<g id="Newsletter">
		<g id="dotted_line" class="st3">
			<path class="st4" d="M-67.3-11.6c-46.5,11.7-69.3,63-26.4,93.5c63.4,34,69.8-50.6,152.8-44.9c58.5,0.6,82.9,54.4,62.8,80.3
				c-40.1,52-92.1-29-128.9,13.8c-12.6,14.6-17.2,24.8-17.1,40"/>
		</g>
		<g id="plane" class="st3">
			<polyline class="st5" points="147.7,-40.6 -78.4,17.4 -37,-26.3 158.1,-41.8 7.2,10.3 -10.2,1.1 			"/>
			<path class="st5" d="M-13.7-51.7l171.8,9.9l-139.4-31L-13.7-51.7c0,0,11.5,20.9,11.9,21.6"/>
		</g>
	</g>
	<g id="LinkedIn_NOT">
		<path class="st6" d="M-49.1-96.5C-59.3-29.8-92.7,71-111.5,113.4c53.7,27.9,82,39.6,142.8,57.3c12.6,4.3,61.2-18.8,68.3-28.6
			c18.4-40.4,48.6-136.7,55.7-182C87.8-52.6,12.5-74.1-49.1-96.5z"/>
		<path class="st6" d="M29.7,169.9c9.8,2,18.8-37.3,29.4-40c7.5-0.8,28.8,18.8,39.6,12"/>
		<path class="st7" d="M-20.9-7.1c-3.2,10.6-18.5,58.8-26.6,77c6.5,4.7,17.6,8.1,23.1,9c7.1-16.6,21.9-56,27.7-76.7
			C0.4-1.3-14.1-6.3-20.9-7.1z"/>
		<path class="st7" d="M16.9,6.9C10,30.2-3.2,67.5-9.7,83.9c6.5,4.7,17.6,8.1,23.1,9c5.3-10.9,21.9-56,27.7-76.7
			C38.2,12.7,23.7,7.7,16.9,6.9z"/>
		<path class="st7" d="M37.1,24.9c2.9-1.8,9.4-9.7,28.8-3.7c36.8,11.6,12.4,52-0.8,90.3c-9.1-0.8-21.5-6.3-24.1-8.2
			c6.6-15.8,12.6-31.6,14.8-39.6c4.8-17.4,1.4-21.8-4.5-24.2c-6.8-2.7-15.1-1.1-18.7,4.1C28.4,47.7,37.1,24.9,37.1,24.9z"/>
		<path class="st7" d="M13.2-23.4c-2.4,7.4-9.1,12-17.8,9c-7.4-2.5-11.7-10.4-9.2-17.7C-11-40.4-4-43.7,4.8-40.8
			C12.2-38.3,15.5-30.7,13.2-23.4z"/>
	</g>
	<g id="LinkedIn_00000150104747717848862800000002388172020763015823_">
		<path class="st6" d="M-63.6-68.8c4.2,110.2,1.1,161.2-43.6,235.3c9.3,0.5,20.4,1.4,31.8,1.4c6.7-7.3,11.7-16.4,19.1-34.4
			c1.8,0,20.1-1.2,25.9-1c-4.8,17.3-12.6,27.8-19.1,37.5c8.6-0.1,21.5,0.3,30.5,0c8.5-9.3,13.6-21.4,18.4-38
			c5.2-0.2,26.3-0.9,31.5-1.2c-3.5,17.1-12.3,28.1-17.6,37.1c12.9-0.8,26.6-1,34.9-2.8c5.2-9.7,13.1-21.3,15.4-36.4
			c5.9-0.4,27.3-2.7,32.6-3.1c-3.4,18.3-13,28.5-16.4,36.9c16.7-1.6,25.9-1.3,33.4-3c15.6-20.3,40.1-111.6,20.9-251.6
			C54.2-93.2-2.1-81.9-63.6-68.8z"/>
		<path class="st7" d="M-22.1-6.4c1,16.9-2.4,56.1-8.7,82.9c7.3,1.7,18.9,0.4,24.4-1.1c4.9-18,10.8-60.8,9.8-83.1
			C-0.1-9.7-15.3-8.4-22.1-6.4z"/>
		<path class="st7" d="M17.8-8.9C18.6,16.8,14,54.2,9.1,74c7.3,1.7,18.9,0.4,24.4-1.1c4.3-14.2,10-61.6,9.8-83.1
			C39.7-12.2,24.5-10.9,17.8-8.9z"/>
		<path class="st7" d="M41.4-0.4c2.4-2.9,7.7-11.7,30.1-13.2c37.4-0.2,25.2,62.5,19.8,83.1c-9,3-22.3,2.9-25.2,2.3
			c4.2-18.7,5.8-33.2,6.1-41.6C73,12,64.9,7.2,58.5,7.4c-7.2,0.3-14.9,5.2-17.3,11.5C38,24.5,41.4-0.4,41.4-0.4z"/>
		<path class="st7" d="M7.4-35.6C6.7-27.7,1.2-20.7-7.9-19.8c-7.8,0.7-13.7-4.9-12.9-12.8c0.9-8.9,6.9-14.9,16.1-15.8
			C3.1-49.1,8-43.5,7.4-35.6z"/>
		<line class="st6" x1="36.7" y1="-68.8" x2="16.5" y2="-80.8"/>
		<path class="st8" d="M20.5-92.1c5.1,1.7,7.4,6.7,4.2,14.3c-2.6,6.3-8.5,9.4-13.7,7.3c-4.5-1.8-6.2-6.9-3.6-12.9
			C10.1-89.4,14.7-94.1,20.5-92.1z"/>
		<path class="st9" d="M49.2-76.2c-7.8,4.2-13,12.9-13,21.8"/>
		<path class="st9" d="M37.1-66c-3.7-0.4-7.7,1.5-9.6,4.6"/>
		<path class="st9" d="M39.2-71.3c-1.2-2-1.5-4.5-0.8-6.7"/>
		<path class="st10" d="M-77.7,112.5c26.2,1.1,70.4-0.4,106.9-1.8c36.6-1.4,78.7-4.1,105.9-7.4"/>
	</g>
	<g id="Cara">
		<path class="st11" d="M22.6,34.9c19.7,12.2,120.8,6.1,118-72c-1.8-50.9-68.5-62-110-52.7C-7.1-81.4-61.3-59.2-71.1,33.9
			c-14.2,135.6,186.4,171.2,211.3,78.9c15.1-56.2-54-76.2-69-74.6"/>
	</g>
	<g id="instagram_NOT">
		<path class="st12" d="M108.1-76.6c0.3-2.9,0.8-5.1,6.2-6.8c6.5-2.1,34.7-2.6,41.2,2.9s6.5,33.2,1.8,40s-21.5,4.4-21.5,4.4
			L108.1-76.6z"/>
		<path class="st1" d="M124.6,31.9c-1.2-19.1-2.4-34.7-2.6-42.6c-0.2-5.3-2.2-17.4,7.4-22.4c9.7-5,15.6-8.3,19.4-11.8
			c3.2-2.9,3.2-22.5,0.6-27.1c-2.9-5-31.2-4.7-35.3-4.4c-4.1,0.3-4.2,1.6-8.8,2.4c-7.4,1.2-3.5-5.3-26.5-8.5
			c-9.1-1.3-87.2-5.6-98.2-4.4c-16.3,1.7-29.5,4.4-36.6,13.5"/>
		<path class="st1" d="M123.7-4.6c5,3.2,28.2,21.5,28.2,27.1S151,64.9,143.7,69c-8.5,4.7-86.8,33.5-93.8,33.2
			C42.8,101.9-87.7,81.1-89.5,79c-3.2-3.8-6.5-16.5-7.6-26.2c-1.2-9.7-1.3-29.6,1.2-31.8c3.2-2.9,37.6-19.7,37.6-19.7
			c0-10.9-0.4-57.1,0-65.6c0.6-12.4,11.8-14.7,36.5-14.4c24.7,0.3,85.6,3.8,100.6,5.9s25.9,8,27.4,25c1.5,17.6,1.2,70.9,0.9,85.3"/>
		<path class="st13" d="M124.6,31.9c-1.2-19.1-2.4-34.7-2.6-42.6c-0.2-5.3-2.2-17.4,7.4-22.4c9.7-5,15.6-8.3,19.4-11.8
			c3.2-2.9,3.2-22.5,0.6-27.1c-2.9-5-28.2-4.9-32.4-4.6c-2.2,0.2-7,1.3-9,2c-5.7,2-2.6-2.6-16.1-5.9c-3.2-0.8-7.4-1.5-13.1-2.1
			c-9.2-1-87.2-5.6-98.2-4.4c-16.3,1.8-29.5,4.5-36.6,13.6"/>
		<path class="st14" d="M123.7-4.6c5,3.2,28.2,21.5,28.2,27.1S151,64.9,143.7,69c-8.5,4.7-86.8,33.5-93.8,33.2
			C42.8,101.9-87.7,81.1-89.5,79c-3.2-3.8-6.5-16.5-7.6-26.2c-1.2-9.7-1.3-29.6,1.2-31.8c3.2-2.9,37.6-19.7,37.6-19.7
			c0-10.9-0.4-57.1,0-65.6c0.6-12.4,11.8-14.7,36.5-14.4c24.7,0.3,85.6,3.8,100.6,5.9s25.9,8,27.4,25c1.5,17.6,1.2,70.9,0.9,85.3"/>
		<path class="st14" d="M152,22.5c-13.5,6.8-85.3,30-91.8,30.6S-92.7,32.2-96.6,31.6"/>
		<path class="st14" d="M-96,21c3.8,0.3,142.6,20,154.7,19.4c5.6-0.3,40.6-14.7,47.6-17.9"/>
		<path class="st14" d="M58.7,40.4c1.5,5.9,1.2,52.6-6.5,60.3"/>
		<line class="st14" x1="-59.8" y1="2.2" x2="104.6" y2="19.8"/>
		<path class="st15" d="M-67.7,53.8c-23.8,11.6-50.6,61.4-49.4,98.4c31.2,4.7,87.6,13.5,123.8,19.1c-2.6-59.1,22.6-85.9,34.4-96.2"
			/>
		<path class="st12" d="M-50.4,55.8c-16.4,7.5-39.1,32.4-47.4,69.4c26.2,3.8,60.2,9,90.2,13.7c3.5-31,18.6-58.1,38-71.1"/>
		<polyline class="st14" points="-80.4,61 -80.7,51.3 44,69 43.2,83.7 34.6,82.8 		"/>
		<polygon class="st13" points="57.9,-60.2 59,-31.4 89,-27.5 88.1,-56.9 		"/>
		<polyline class="st13" points="87.6,-36.9 68.9,-39.1 68.1,-58.4 		"/>
		<path class="st13" d="M-40.9-18.5c2.2-1.1,4.2-1.7,6.1-1.7c3-0.1,5.4,1.9,5.9,5.4c0.5,2.8,0,5.6-4.2,7.1c-0.8,0.3-2,0.8-4.6,1.1"
			/>
		<path class="st13" d="M-32.7-13.4c0.3,3.5-1.6,6.5-4.9,6.7c-4,0.2-6.5-2.3-6.8-5.9c-0.3-3.5,2.4-6.1,5.6-6.4
			C-35.6-19.2-33-16.9-32.7-13.4z"/>
		<path class="st12" d="M56-12.7c3.2-1.6,6.1-2.4,8.9-2.5c4.3-0.2,7.8,2.7,8.7,7.8c0.7,4.1,0,8.2-6.2,10.3c-1.2,0.4-3,1.1-6.7,1.6"
			/>
		<path class="st16" d="M67.8-5.4c0.4,5.2-2.4,9.5-7.2,9.8c-5.8,0.3-9.5-3.4-9.9-8.5c-0.4-5.2,3.5-9,8.2-9.3S67.4-10.5,67.8-5.4z"/>
		<path class="st14" d="M13.2-4.6c12.9-3.2,21.6-5.2,27-9.4c8.1-6.3,10.5-15.3,9.7-25c-1.3-16.3-11.8-28.4-30.8-27.5
			C10.4-66.1-1.2-63.8-8-59.6"/>
		<path class="st14" d="M35.9-33.7c0,18.8-13,29.4-29,29.7c-18.1,0.3-28.4-15.1-28.4-31.5S-9.1-63.3,6.9-63.3S35.9-50,35.9-33.7z"/>
		<path class="st12" d="M33.8-22.7c-3.3,5.2-8.9,8-15.3,8.1C7-14.4,0.4-24.7,0.4-35.7s7.9-18.6,18.1-18.6c5.6,0,10.6,2.7,14,6.9"/>
		<polyline class="st13" points="-0.9,-4 -0.9,8.6 -34.7,28.3 		"/>
		<polyline class="st13" points="27.4,-4.3 27.7,12.2 10.9,33.9 		"/>
		<polyline class="st13" points="8.3,-1.1 8.3,9.8 -18.2,30.4 		"/>
		<polyline class="st13" points="17.7,-1.4 17.7,11 -2.6,31.9 		"/>
		<line class="st13" x1="140.5" y1="-66.6" x2="117.6" y2="-54.4"/>
		<line class="st13" x1="59" y1="-31.4" x2="68.9" y2="-39.1"/>
		<path class="st13" d="M94.5-79.7c6.5,1.9,14.7,8.3,16.6,14.1"/>
		<g id="Layer_7" class="st3">
			<path class="st17" d="M-63.1,97.4c-2.1-1.4-2.8-4-2.8-6.5c-0.1-4.4,1.7-8.8,4.8-12c3.4-3.4,8-5.3,12.7-6.4
				c5.3-1.3,11-1.8,16.4-0.6c5.4,1.3,10.4,4.5,13,9.4c1.3,2.4,2,5.2,2.2,8c0.2,2.2,0.2,4.4-0.5,6.4c-1.2,3.7-4.5,6.4-8,7.9
				c-3.6,1.5-7.5,1.8-11.4,1.8c-1.1,0-2.3,0-3.1,0.8c-0.4,0.4-0.7,1-1,1.5c-1,2.2-1.8,4.6-2.4,6.9c-0.1,1.2-1,1.8-2.1,1.9
				c-3.5,0.9-12.4-1-18.5-2.4C-73.2,112.2-68.3,108.6-63.1,97.4z"/>
			<path class="st18" d="M-54.2,88.3c3.7-2.9,5.2-3.6,9.7-5"/>
			<path class="st18" d="M-52.1,81.9c2.1,3.3,3.3,4.1,4.4,7.9"/>
			<path class="st18" d="M-38.9,91.9c3.7-2.9,5.2-3.6,9.7-5"/>
			<path class="st18" d="M-36.8,85.4c2.1,3.3,3.3,4.1,4.4,7.9"/>
			<path class="st18" d="M-49,105.4c-1.6,3.3-2.9,6.8-3.9,10.4"/>
			<path class="st18" d="M-56.6,103.5c-1.7,3.3-3,6.7-4.1,10.3"/>
		</g>
	</g>
	<g id="Instagram">
		<polygon class="st6" points="-107.6,-56.3 -110.1,84.7 106.2,159.1 106.8,11.2 		"/>
		<polyline class="st6" points="-107.6,-56.3 -48.5,-77.1 155.4,-16.8 152.9,124.2 106.2,159.1 		"/>
		<line class="st6" x1="106.8" y1="11.2" x2="151.2" y2="-12.8"/>
		<path class="st8" d="M111.6-20.9c-0.7,5-10.5,6.7-20.5,4s-17.4-7.5-15.6-13.8c1.4-4.9,10.5-6.7,20.5-4
			C106-31.9,112.5-27.6,111.6-20.9z"/>
		<path class="st9" d="M75.6-30.7c-0.7,2.5-1.2,11.8-1.2,11.8c0.3,5,6.4,7.8,16.3,10.6c10,2.7,19.2,1,20.5-4c0.7-3,0.9-7.5,0.6-9.3"
			/>
		<path class="st8" d="M-33.9-62.1c-0.3,3.7-6.6,5.5-13.1,4.1c-6.5-1.3-11.4-4.3-10.4-9c0.8-3.6,6.6-5.5,13.1-4.1
			C-37.8-69.8-33.5-67.1-33.9-62.1z"/>
		<path class="st9" d="M-57.4-67c-0.4,1.9-0.5,8.7-0.5,8.7c0.3,3.6,4.3,5.3,10.8,6.6s12.5-0.5,13.1-4.1c0.4-2.2,0.4-5.5,0.2-6.8"/>
		<polygon class="st9" points="144.2,7.2 117.1,22.5 116.9,33.2 144.1,17.2 		"/>
		<polygon class="st9" points="60.6,14.1 92.6,23.9 92.1,50.3 59.7,40.8 		"/>
		<path class="st19" d="M-77.4,3.2c14.3-5.9,34.8-13.6,46.2-14.9c30.7-3.6,60.5,22,64.3,58.4c3,28-9.2,55.2-30.8,65.3
			c-8.1,3.8-38.6,13.7-57.5,14.7"/>
		<path class="st19" d="M0,49.3c8.5,34.1-10.1,68.1-41.5,75.9c-31.4,7.9-58.7-15.9-67.2-49.9c-8.5-34.1,5-65.6,36.4-73.5
			C-40.9-6-8.5,15.2,0,49.3z"/>
		<path class="st3" d="M-22.9,103.6c-4.4,3.3-9.5,5.8-15.1,7.2c-24.5,6.1-44.6-12.9-51.3-39.5c-6.7-26.6,2.7-50.7,27.2-56.8
			c9.2-2.3,18.5-1.4,26.9,2c0,0,21.1,10.3,25.9,37.7C-3.3,88.2-22.9,103.6-22.9,103.6z"/>
		<path class="st6" d="M-8.9,51.6c7.1,28.7-8.5,57.3-35,64c-26.5,6.6-48.6-13.8-55.8-42.5c-7.2-28.7,3.4-54.9,29.9-61.5
			C-43.4,4.9-16.1,22.9-8.9,51.6z"/>
		
			<ellipse transform="matrix(1.795697e-02 -0.9998 0.9998 1.795697e-02 -49.2952 210.2355)" class="st20" cx="82.4" cy="130.2" rx="7.6" ry="6.2"/>
		
			<ellipse transform="matrix(1.795697e-02 -0.9998 0.9998 1.795697e-02 -59.9672 -126.7076)" class="st20" cx="-94.5" cy="-32.8" rx="6" ry="4.8"/>
		<path class="st21" d="M-21.6,36.4c7.2,11.1,11.2,45.2-0.7,61.1c-4.8-49-13.6-58.4-17.7-70.1C-37.3,26.3-24.1,33.6-21.6,36.4z"/>
	</g>
	<g id="Prints">
		<path class="st6" d="M90.3-92.8c1.6,47,8,133.7,32,231.9c-75.5,6.7-106.2,12-172.4,27.5c-14.4-39-29.6-141.4-29.6-230
			C-23.2-77.8,27.3-89.6,90.3-92.8z"/>
		<path class="st3" d="M-25.6-16.8c-2-0.6-4.9,0.7-5.2,3c-0.6,3.5-3.1,6.4-7,5.7c-3.6-0.7-5.7-4.6-6-8c-0.5-4.4,0.9-9.6,2.9-13.5
			c1.1-2,4.8-6.2,6.4-2.4c0.9,2.1,4,2.6,5.8,1.5c2.2-1.3,2.4-3.7,1.5-5.8c-3.2-7.5-13.1-6.8-18.1-1.7c-5.4,5.5-7.9,15.6-6.9,23
			c0.9,7.1,5.7,13.9,13,15.2c7.8,1.3,15.4-4,16.6-11.8C-22.3-13.8-23.2-16.1-25.6-16.8z"/>
		<path class="st3" d="M4.5-34.4c-1.7-4.4-4.9-7.9-8.4-11c-0.9-0.8-1.9-1.1-2.9-1.1c-3-0.9-6.4,0.3-8.7,2.7c-2.9,3-4.1,7.1-4.7,11.1
			c-1.2,8.5-1,19.2,7.8,23.7c8.9,4.6,17.1-2.7,18.2-11.6C6.4-25.2,6.1-30.2,4.5-34.4z M-9.2-38.1C-9-38.9-8.6-37.6-9.2-38.1
			L-9.2-38.1z M-7-16.1c-5-0.4-5.4-7.3-5.3-11c0.1-2.3,0.3-4.6,0.9-6.8c0.3-1.1,0.7-2.2,1.3-3.2c0.1-0.2,0.8-0.8,0.8-1l0,0
			c0.5,0.5,1.1,0.8,1.7,0.9c2.7,2.8,4.7,5.9,5,10.2C-2.3-24.1-2-15.7-7-16.1z"/>
		<path class="st3" d="M29.3-49.3C29.3-49.3,29.3-49.4,29.3-49.3c-2-4.5-7.9-3.7-11.3-1.8c-3.5,1.9-6.1,5.3-7.5,9
			c-1.7,4.6-1.7,9.8-1.1,14.7c0.6,4.8,2.6,8.3,6.6,11c3.7,2.6,7.4,3.6,11.6,1.3c3.8-2.1,6.8-6,7.8-10.2
			C37.3-32.9,34.6-43.2,29.3-49.3z M26-24.8c-0.5,0.8-1.2,1.4-2,2c-1.2,0.9-0.8,0.9-1.9,0.3c-2-1.2-3.6-2.3-4.1-4.6
			c-0.6-2.6-0.6-5.4-0.4-8.1c0.2-2.2,0.8-4.6,2.1-6.4c0.6-0.8,1.3-1.5,2.2-1.9c0.1-0.1,0.5-0.2,0.8-0.3c2.8,3.1,4,7.5,4.5,11.6
			C27.6-29.7,27.5-27,26-24.8z"/>
		<path class="st3" d="M62.9-28.7c-3.3,1.2-6.6,2.2-10,2.9c-0.1,0-0.3,0-0.6,0.1v-0.1c-0.4-1.6-0.7-3.2-1-4.8
			c-1-7-1.5-14.1-2.3-21.1c-0.2-2.3-1.8-4.2-4.2-4.2c-2.1,0-4.5,2-4.2,4.2c1,9.1,1.2,18.8,3.4,27.7c1.1,4.3,3.4,7.7,8.4,7
			c4.3-0.7,8.6-2,12.8-3.5C70.2-22.3,68-30.5,62.9-28.7z"/>
		<path class="st3" d="M-7,50.7c-2.9-12.9-7.3-25.4-13.2-37.3c-0.9-1.9-2.9-2.3-4.7-2.1c-7.6,0.7-8.4,12.1-9.4,17.8
			c-1.5,8.6-2.3,17.3-2.2,26.1c0,5.5,8.5,5.8,8.5,0.3c0-3.3,0.1-6.6,0.3-9.8c3.1-1.6,6.4-2.5,9.9-3c1,3.3,1.8,6.7,2.6,10
			C-14.1,57.9-5.8,56-7,50.7z M-26.8,35.9c0.1-0.4,0.1-0.8,0.2-1.2c0.5-3.2,1-6.4,1.7-9.6c0.1-0.4,0.2-0.8,0.3-1.2
			c1.5,3.5,2.9,7,4.2,10.6C-22.7,34.7-24.8,35.2-26.8,35.9z"/>
		<path class="st3" d="M27.4,43.5c-4.3-4.8-9.3-8.7-14.8-11.8c5.7-6.9,10.2-16.8,2.9-23.7C7.6,0.5-4.9,6.3-9.4,14.6
			c-1.8,3.4,1.2,6.7,4.1,6.6c1.2,7.7,2.7,15.4,4.4,23C-1,44.7-1,45.3-0.8,45.8c0.2,0.6,0.4,1.1,0.6,1.7c1.8,5,9.5,3.6,8.3-1.9
			c-0.6-2.5-1.1-5-1.7-7.6c5.6,2.8,10.5,6.7,14.7,11.3C24.8,53.4,31.1,47.6,27.4,43.5z M2.2,14.3c0.5-0.3,1-0.5,1.5-0.7
			c1.8-0.6,4.6-0.9,6,0.7c1.8,2.1,0.4,6-0.7,8c-1.2,2.2-2.8,4.1-4.5,5.8C3.7,23.5,2.9,18.9,2.2,14.3z"/>
		<path class="st3" d="M55.7-2.2c-10,1.4-19.9,3.4-29.7,6c-5.3,1.4-3.4,9.7,1.9,8.3c3.3-0.9,6.6-1.7,10-2.4
			c1.6,11.1,3.4,22.3,5.3,33.4c0.9,5.4,9.2,3.5,8.3-1.9c-1.9-11-3.6-22.1-5.2-33.1c3.8-0.7,7.6-1.3,11.4-1.8C63,5.3,61.1-3,55.7-2.2
			z"/>
		<path class="st3" d="M-10.7,115.4c-3.5-12.2-6.5-24.4-9-36.8c-1.1-5.4-9.3-3.1-8.2,2.3c1,5.1,2.1,10.1,3.3,15.1
			c-3.8,1.4-7.6,2.9-11.2,4.8c-1.3-5.6-2.5-11.2-3.8-16.7c-1.2-5.3-9.4-3.1-8.2,2.3c2.8,12.5,5.6,25,8.5,37.5
			c1.2,5.3,9.4,3.1,8.2-2.3c-0.9-4.1-1.8-8.1-2.7-12.2c3.6-2,7.4-3.7,11.3-5.1c1.2,4.5,2.4,9,3.7,13.4
			C-17.4,122.9-9.2,120.7-10.7,115.4z"/>
		<path class="st3" d="M19,108c-0.6-2-3.1-3.9-5.2-3c-2.5,1.1-5.1,2.1-7.6,3.2c-1.5,0.6-3.6,2-5.5,2.5c-0.9-1.9-1.4-6.7-1.7-8.1
			c-0.1-0.3-0.1-0.7-0.2-1c2.6-1,5.2-2,7.8-3c2.1-0.8,3.6-2.9,3-5.2c-0.6-2-3.1-3.8-5.2-3c-2.4,0.9-4.7,1.8-7.1,2.7
			C-2.8,92.5-2.9,92-3,91.4c-0.3-2.4-1.7-6.8-0.2-9c1.8-2.5,6-2.8,8.8-3.2c2.3-0.4,3.5-3.2,3-5.2c-0.7-2.4-2.9-3.3-5.2-3
			c-6.1,1-12.8,3.1-15.1,9.5c-1.1,3-0.4,6.2,0,9.3c0.5,3.6,1,7.2,1.6,10.7c0.6,3.4,1.3,6.7,2.1,10c0.7,2.9,1.5,6.2,4.2,7.9
			c3.2,2,6.6,0.2,9.6-1l10.1-4.2C18.1,112.3,19.6,110.4,19,108z"/>
		<path class="st3" d="M50.3,103.6C46,99.8,41.4,96.3,36.7,93c5.5-5.5,7.8-13.9,4.1-21.6c-5.3-10.8-22.6-6.2-26.3,3.6
			c-1.1,2.8,0.9,4.8,3.3,5.1c2,9.5,3.9,19,5.9,28.6c1.1,5.4,9.3,3.1,8.2-2.3c-0.5-2.5-1-5-1.5-7.5c4.9,3.2,9.6,6.8,14.1,10.7
			C48.4,113.2,54.5,107.2,50.3,103.6z M28.5,74.1c3.1-0.9,4.6-0.1,5.4,3.1c1,4.4-1,8.8-4.6,11.2c-0.4-0.1-0.8-0.2-1.2-0.2
			c-0.9-4.3-1.8-8.7-2.7-13C26.5,74.7,27.7,74.3,28.5,74.1z"/>
		<path class="st3" d="M75.9,96.6c-1.2-2.2-3.7-2.5-5.8-1.5c-1.8,0.8-3.7,1.4-5.6,1.8c-0.6,0.1-1.5,0.4-2.3,0.4
			c0-0.1-0.1-0.2-0.1-0.3c-0.1-0.3-0.1-0.5-0.2-0.8c-0.6-2.3-1.2-4.7-1.7-7.1c2.3-0.6,4.6-1.2,6.8-2s3.6-2.9,3-5.2
			c-0.6-2.1-3-3.7-5.2-3c-2,0.7-4.1,1.3-6.1,1.8c-0.2-1.4-0.4-2.8-0.6-4.2c-0.1-1.1-0.2-2.2-0.3-3.2c0-0.5-0.1-1.1-0.1-1.6
			c0-0.1,0-0.1,0-0.2c0.4-0.2,0.8-0.4,1.2-0.6c0.8-0.4,1.7-0.7,2.5-1c1.9-0.6,3.8-1,5.8-1.2c5.4-0.4,5.5-8.9,0-8.5
			c-5.2,0.4-12.9,1.7-16.4,5.9c-2.2,2.6-1.6,6.1-1.3,9.2c0.3,3.4,0.9,6.8,1.5,10.2c0.6,3.2,1.3,6.4,2,9.5c0.6,2.8,1.1,6.1,3.2,8.2
			c4.6,4.7,13.2,1.1,18.2-1.1C76.4,101.4,76.9,98.4,75.9,96.6z"/>
		<path class="st3" d="M88.3,80.6c-1.6-9.2-3-18.3-4.3-27.5c-0.3-2.3-3.2-3.5-5.2-3c-2.4,0.7-3.3,2.9-3,5.2
			c1.3,9.2,2.8,18.4,4.3,27.5C81,88.2,89.2,85.9,88.3,80.6z"/>
		<path class="st3" d="M92.3,96.1c-0.5-2-2.3-3.6-4.4-3.8c-1.5-0.4-3-0.1-4.3,0.6c-1.3,0.7-2.1,2.2-2.1,3.7c0,1.6,0.6,3.4,1.9,4.5
			c1.1,0.9,2.2,1.4,3.5,1.5c1,0.1,2-0.2,2.9-0.7C91.8,100.7,92.8,98.3,92.3,96.1z"/>
	</g>
	<g id="Clothing">
		<path class="st6" d="M-56.2-25.9c2,26.3,2.9,55.7,2.9,83.5c0,27.7-4.7,72.4-5,77.4s-2.5,12.1,0,16.7s35.6,18.6,79.5,17.9
			c43.9-0.6,77.9-14.4,80.1-22.6c1.7-6.2-0.2-19.3-0.9-25c-2-17.1-4.2-48.4-5.3-72.1c-0.6-14-1.2-37.8,1.2-75.9"/>
		<path class="st6" d="M94.6,16.8c7,0,42.7-6.5,43.6-15.8s-14.6-62.2-19.9-70.8c-11.1-18.3-43.4-24.7-59.8-25
			c-3.4,1.1,3.8,31.1-30.5,31.1c-39,0-34.9-29.8-41.2-29.9c-9-0.1-45.8,5-59.9,22C-84.9-51.9-97.3-12.9-97.9,1.8
			c0,8.5,33.7,14.6,43.5,14.1"/>
		<path class="st9" d="M-23.7-93.7c0.6,10.9,12.1,44,50.4,43.4c38.4-0.6,43-31.1,42.7-43.4"/>
		<path class="st9" d="M-0.9,51.8C-8,49-13.3,42.7-16.1,35.6s-3.1-14.9-2.1-22.5c0.8-6.1,2.4-12.3,6.1-17.3
			c4.4-5.9,11.2-9.5,17.9-12.3c7.6-3.2,15.3-4.1,23.5-4.1s16.9,1,22.7,6.8c4.9,4.9,7.4,11.7,9.1,18.4c1.9,7.5,2.9,15.3,1.4,22.9
			c-1.5,7.6-5.7,14.8-12.4,18.7c-1.2,0.7-2.5,1.3-3.2,2.5c-0.6,1-0.6,2.3-0.6,3.5c0.1,4.8,0,9.6,0.3,14.5c0.2,3.4-1.7,5.2-3.3,6.1
			c-10.2,5.9-23.4,7.9-35.1,5.5C-4.2,75.7-0.3,71.8-0.9,51.8z"/>
		<path class="st9" d="M16,5.1C8.8,10.8,2.8,18-1.4,26.1"/>
		<path class="st9" d="M-2,5.7c6,5.5,11.5,11.5,16.4,18"/>
		<path class="st9" d="M27.8,5.7c7.6,5.2,14,11.9,18.8,19.7"/>
		<path class="st9" d="M45.8,5.1C40.2,11,35.1,17.4,30.6,24.2"/>
		<path class="st9" d="M12.6,56.4c0,6.8,0,13.6,0,20.3"/>
		<path class="st9" d="M32.4,53.5c0.6,7.7,0.8,15.4,0.6,23.1"/>
		<path class="st6" d="M-13.2-93.6c12.8-0.7,16.3,3.1,38.4,3.3c18.1,0.2,20.5-5,33.3-4.5"/>
	</g>
	<g id="Objects">
		<path class="st22" d="M13-75.8C-69-87.5-116.2-9.9-115.2,27.4c1,40.8,20.6,85.7,47.1,99.7c18.7,9.8,63.8,20.1,108.5,14.3
			c44.7-5.9,121-39.3,117.9-91.4C155.5,1.4,94.8-64,13-75.8z"/>
		<ellipse class="st22" cx="13.4" cy="36.1" rx="33.5" ry="33.3"/>
		<ellipse class="st22" cx="-72.1" cy="40.1" rx="24.6" ry="31.8"/>
		<ellipse class="st23" cx="15" cy="47.1" rx="16.5" ry="16.6"/>
		<ellipse class="st24" cx="-73.2" cy="49.5" rx="15" ry="16.1"/>
		<path class="st9" d="M-49.7-44.9c1.3-0.3,2.8-0.2,4.1,0.4c1,0.5,1.9,1.3,2.8,2c3.4,2.6,7.4,4.2,11.7,4.6"/>
		<path class="st9" d="M39.5-58.5c-0.5,1.6,0.3,3.5,1.9,4.1c1.5,0.6,3.5-0.1,4.2-1.6"/>
		<path class="st9" d="M-70.8,110.6c5,2.7,9.5,6.5,13,11"/>
		<path class="st9" d="M84.5,88.2c-0.8-2.8,1-5.9,3.4-7.5s5.5-2.1,8.3-2.6c0.6-1,1.3-2,2.1-2.8"/>
		<path class="st9" d="M136.7,56.8c-0.3-1.9,0.5-3.8,1.9-5c0.6-0.5,1.2-0.9,1.6-1.5c1.1-1.7-0.2-3.9-1.6-5.4"/>
		<path class="st9" d="M68.9-19.5C75.7-14.2,83.9-11,92-8"/>
		<path class="st9" d="M76.5,7.2c1.2,2.4,5,2.7,5.8,5.2c0.3,1.2-0.1,2.6-0.1,3.8c0.1,2.3,2,4.3,4.2,5c2.2,0.8,4.6,0.7,6.9,0.6"/>
		<path class="st9" d="M-5.4-65.3c1.4-1,2.9-2.1,4.3-3.1"/>
		<path class="st9" d="M-81.3-18.6c-1.6,1.7-4.3,1.8-6.5,1c-2.1-0.8-3.9-2.4-5.6-4"/>
		<path class="st9" d="M-104.3,77.3c1.4,2,2.9,4.2,5.2,5c1.4,0.5,3,0.4,4.4,0.7c1.4,0.2,3,1,3.5,2.4"/>
		<path class="st9" d="M55.1,130.5c3.5,2.7,7.6,4.5,11.9,5.2"/>
		<path class="st9" d="M8.1,94.5c3.1,2,6.7,4.2,10.3,3.2c1-0.3,2.2-0.8,3.1-0.3"/>
	</g>
	<g id="Toys">
		<path class="st6" d="M34.8-61.8c0-0.7,0.1-1.4,0.5-2c0.4-0.6,1.1-0.9,1.8-1.2c7.2-3.2,11-12,9.4-19.7s-7.8-14-15.1-16.8
			c-6.4-2.4-13.9-2.3-20.1,0.5S0.1-92.4-1.5-85.7C-3.1-79-1.2-71.5,3.6-66.6c0.7,0.8,1.6,1.5,2,2.5C6-63.2,6-62.2,6-61.3
			c0,1.7,0.1,3.4,0.1,5c0,1.2,0.1,2.4,0.6,3.4c0.9,1.5,2.8,2.1,4.4,2.5c3.9,1,7.8,2,11.9,2c3.1,0.1,7.8-0.9,10.6-2.6
			C36.2-52.4,35-55.8,34.8-61.8z"/>
		<path class="st6" d="M11.2-49.2c-1.1,3.7-2.6,5.8-6.3,6.8"/>
		<path class="st6" d="M32.1-49.9c-0.8,3.8,2,6.8,5.9,7.6"/>
		<path class="st6" d="M41.4-44.3c-1.2,1-2.2,2.3-3,3.7c-3.8,6.1-6.5,12.9-7.8,20c-0.2,1.2-0.4,2.5-0.9,3.6c-1.9,4-7.3,4.7-11.8,4.8
			c-1.8,0-4,0-5-1.5c-0.5-0.8-0.7-1.8-0.8-2.7C11-25.1,8.6-33.8,5-41.8c-0.5-1.1-1.1-2.3-2-3.1c-0.9-0.7-2.1-1-3.3-1.2
			c-4.6-0.5-9.5,1.3-12.6,4.8C-6.5-32.2-3-21.5-0.4-10.7C1-4.8,2.1,1.4,0.5,7.2c-1.7,5.8-7,11-13,10.6c1.2,5.1,3,8.7,5.5,12.6
			c0.4,0.6,1.8,2.8,6,1.2c3.8-0.7,7.4-2.7,9.9-5.7c2.5-2.9,4.2-6.7,7.7-8.2c2.9-1.2,6.2-0.5,9,0.9c2.7,1.4,5.1,3.5,7.7,5.2
			c5.3,3.5,11.6,5.5,17.9,5.6c1,0,2,0,2.8-0.5c1-0.6,1.7-1.5,2.2-2.6c1.6-3,2.5-6.4,2.7-9.8c-7,2.6-15-3.2-17.1-10.4
			C39.7-1.1,42.5-9.7,45-16.8c3-8.4,6.6-16.6,14.7-25.2C55.6-45.8,45.2-47.4,41.4-44.3z"/>
		<path class="st6" d="M57.8-40.3c3.5-3.8,8.4-5.4,14.2-5c5.1,0.4,7.7,4.1,9.8,7.7c2.7,4.6,4.5,9.2,3.6,13.6c-0.1,0.6-0.2,2.1,0,2.6
			c0.3,0.6,1.1,0.5,1.8,0.9c4.2,2,7,4.4,9,7.9s3.2,6.8,3.4,10.8c0,1.2,0.1,2.3,0.5,3.4c0.3,0.7,0.8,1.3,1.3,1.9
			c3.8,2.2,6.8,5.6,9.4,10.8"/>
		<path class="st6" d="M101.8,42.5c-4.6-2.5-7.7-5.2-11.7-11.3c-2.9-4.5-4.5-9.7-5.6-15c-0.1-0.6-0.3-1.3-0.6-1.8s-0.9-0.8-1.4-1.1
			c-8-5.1-14.2-13-17.2-22.1C64.8,0.3,61.1,10,55.1,16.1"/>
		<path class="st6" d="M-10.4,16.9c-6.3-6.9-10-15.7-12.8-24.6C-23.5-2.9-24.9,2-27.7,6s-7,7-11.8,8c-1.1,9.1-8.4,18.4-25.1,19.4"/>
		<path class="st6" d="M-55.9-4.1c2-7.2,9.2-12.6,12.2-13.1c-0.8-6.7,1.8-13.9,7.1-18.1c5.3-4.2,12.4-5.7,18.1-2.5
			c2.1-1.8,3.5-1.8,5.6-1.9"/>
		<path class="st6" d="M46.4,32.5c-15,4-30.9,3.1-46.3,0.8c-1.6-0.3-3.4-0.4-4.6,0.6c-0.9,0.8-1.1,2.1-1.3,3.3
			c-0.5,3.6-0.7,7.2-0.6,10.9c0,0.8,0.1,1.7,0.4,2.5c1.2,2.6,4.8,2.6,7.5,3.1c7,1.4,11.8,8.3,13,15.4c0.4,2.3,0.5,4.8,1.9,6.7
			c2.4,3.4,7.5,3.5,11.6,3c1.1-0.1,2.1-0.2,3.1-0.8c2.8-1.5,2.8-5.4,3.2-8.6c1-8.2,7.1-15.6,14.9-18.1c1.3-0.4,2.8-0.8,3.7-1.9
			c0.4-0.6,0.6-1.2,0.8-2c0.8-3.5,0.3-8.3-0.8-11.6C51.9,33,50.8,31.3,46.4,32.5z"/>
		<path class="st9" d="M53.1,38.5c-2.4,2-5.8,2.2-8.9,3c-3.7,0.9-7,2.9-9.6,5.8c-1.7,1.8-3,4.1-5.2,5.3c-1.5,0.9-3.3,1.1-5.1,1.2
			c-3.1,0.1-6.4-0.2-8.8-2.1c-2.4-2-3.6-5.3-6.2-6.9c-2.4-1.5-5.4-1.4-8.2-1.4s-5.5-0.4-7.2-2.7"/>
		<path class="st6" d="M53.2,49.4c10.5,3.7,18.6,13.5,20.3,24.5c1,6.6-0.1,13.6,2.3,19.8c2.2,5.6,6.9,9.9,10.2,14.9
			c3.9,5.9,5.8,12.9,5.5,20c-0.2,4.7-1.4,9.4-1.8,14.1c-0.4,4.8,0,9.8,2.8,13.7c2.7,3.9,7.8,7,7.3,11.7c-0.2,1.2-0.7,2.4-1.4,3.4
			c-2.4,3.5-6.6,5.7-10.8,5.7s-8.4-2.3-10.8-5.8c-2.9-4.4-2.9-10-4.5-15c-1.4-4.4-4-8.3-6.5-12.2c-5.5-8.5-11-17.5-11.5-27.6
			c-0.2-4.7,0.6-9.6-1.3-13.9c-1.8-4.2-5.7-6.9-9-10c-4.8-4.4-8.5-9.9-10.9-15.9"/>
		<path class="st6" d="M16.4,77.5c-0.9,5.6-5.2,9.9-9,14.1c-3.8,4.2-7.5,9.4-6.7,15c0.3,2,1.1,3.8,1.8,5.7
			c2.9,8.4,2.3,17.9-1.7,25.9c-2.4,4.8-6.1,9.7-4.8,14.9c0.4,1.5,1.2,2.9,1.5,4.4c0.9,5.3-5,9-9.9,11.3c-4.2,1.9-7.3,4.9-11.8,6
			c-2.5,0.7-5.2,0.8-7.7,0.1c-2.5-0.7-5.3-3.5-5.3-6.1c0.2-4.5,6.1-5.9,9.4-8.8c5.1-4.7,3.6-12.9,2.2-19.8c-1.6-7.6-2.4-15.6-0.1-23
			c0.8-2.8,2.1-5.5,2.3-8.4c0.2-2.7-0.6-5.3-1.1-8c-3.7-18.4,3.8-37.4,19.4-47.9"/>
		<path class="st9" d="M58,127.1c10.7,3.3,27.1-0.5,30.4-12.4"/>
		<path class="st25" d="M60.8,135.6c10.7,3.3,27.1-0.5,30.4-12.4"/>
		<path class="st9" d="M-25.6,123.8c9.2,3.3,22.3,4.2,28.9-3.5"/>
		<path class="st25" d="M-25.5,132.3c9.2,3.3,22.3,4.2,28.9-3.5"/>
		<path class="st6" d="M130.2,63.2C125.4,77,119.9,84.8,114,83.6c-11.4-2.5-13.7-23.3-8.3-47.7c6.2-28.2,16.2-43,24.6-41.2
			c6.4,1.4,9.4,14.2,8.1,31.3"/>
		<path class="st6" d="M139.9,45.6c-2.2,10.3-5.7,18.1-9.3,17.4c-4.9-1-5.9-9.8-3.7-20.1c2.6-11.8,6.9-18.1,10.4-17.3
			C140.9,26.3,142.1,35.3,139.9,45.6z"/>
		<path class="st9" d="M117.5,82.4c-7.2-6.7-8.1-24.6-3.6-45.2c4.9-22.4,12.2-36.4,19.2-40.2"/>
		<g class="st3">
			<g>
				
					<ellipse id="XMLID_00000035512170180265652930000011673928177780478130_" transform="matrix(0.139 -0.9903 0.9903 0.139 -102.3399 -39.7993)" class="st26" cx="-74.1" cy="39" rx="4.6" ry="6.7"/>
			</g>
		</g>
		<path class="st6" d="M-70.7,15.3c2.5,0,5.2-0.2,6.9-1.9c2.5,3.5,1.9,8.3,1.2,12.6c-0.2,1.4-0.5,2.8-1.1,4c-1,1.9-2.8,3.2-4.8,3.8
			s-4.1,0.7-6.2,0.4c-2-0.2-4.1-0.7-5.7-2c-2-1.6-3-4.2-3.1-6.8s0.4-5.1,1-7.6c0.3-1.2,0.5-2.5,1.2-3.5c0.6-1.1,1.6-2,2.8-2.2
			C-77.9,15.1-73.3,15.4-70.7,15.3z"/>
		<path class="st25" d="M-75.4,21.4c3.8,1.1,9.1,1.4,11.8-1.8"/>
		<path class="st25" d="M-75.5,26.3c3.8,1.1,9.1,1.4,11.8-1.8"/>
		<path class="st25" d="M-47.5,3.6c1.1,0.8,1.4,0.9,2.6,3"/>
		<path class="st25" d="M-36.2-19.2c2.4,0.7,4.3,2.5,5.4,4.7"/>
		<path class="st25" d="M-18.3-35.4c-6.4,6.6-7.5,19.4-4.5,29.3"/>
		<path class="st25" d="M4.6,72.8c-2,2.3-3.6,4.9-4.9,7.6"/>
		<path class="st25" d="M-22.8,107.4c1.6,3.4,4.2,3.4,7.2,3.6"/>
		<path class="st25" d="M64.6,110.3c3.5,1,7.6-0.5,9.7-3.5"/>
		<path class="st25" d="M46.3,74.4c2.3,2.5,4.4,5.1,6.3,8"/>
		<path class="st25" d="M94.2,5.5c-2.7,1.6-5.1,3.9-6.7,6.6"/>
		<path class="st25" d="M82.7-15.9c-2.8,0.4-5.5,1.9-7.3,4.2"/>
		<path class="st27" d="M59.8-38.8c-6,10.9-0.9,23.5,5.5,29.4"/>
		<path class="st25" d="M-14.4-7.5c1,1.5,2,2.9,3,4.2c0.7,1,1.5,2,2.6,2.8c2.7,2,6.4,2,9.7,1.3"/>
		<path class="st25" d="M42.5,0.3c4.6-0.3,8.9-3.7,10.2-8.2"/>
		<path class="st25" d="M20.5-15.7c-1.1-11.8-0.1-17.6,2.9-19.6"/>
		<path class="st25" d="M20.3-15.9c-0.4-10.2-1.8-17.1-5-18.6"/>
		<path class="st9" d="M-64.7-7.9l6.6-4.5c0,0,4.4-57.8,4.6-60.8s-8.3-17-11.5-17.2c-2.6-0.1-13.1,10.7-13.5,15.1
			c-0.7,8.3-4,61.3-4,61.3l5,5.5"/>
		<line class="st25" x1="-65" y1="-89.8" x2="-70.4" y2="-11.9"/>
		<circle class="st9" cx="-71" cy="-0.7" r="8.8"/>
		<circle class="st28" cx="-71" cy="-0.7" r="2.5"/>
		<path class="st9" d="M-81-3.6c-3.2-0.4-6.6-1.1-9.2-3.1c-2.5-2-4.2-4.9-4.8-8.1c-2.4,0.1-2.7,5.5-2.8,8.4
			c-0.1,2.3,0.2,4.5,1.5,6.5c1.8,2.6,5.7,3.8,8.9,4.3c3.2,0.5,5.7,0.6,7.9,0.8"/>
		<path class="st9" d="M-60-2.5c3.2,0.1,6.7-0.2,9.5-1.8c2.8-1.6,4.9-4.3,5.9-7.4c2.4,0.4,1.9,5.8,1.6,8.7c-0.2,2.3-0.8,4.5-2.3,6.2
			c-2.1,2.3-6.2,3-9.4,3c-3.2,0.1-5.8-0.1-7.9-0.3"/>
		<line class="st9" x1="-77.1" y1="7.5" x2="-77.4" y2="12.6"/>
		<line class="st9" x1="-65" y1="7.5" x2="-65.3" y2="13"/>
		<path class="st25" d="M4.4-92.7c7.3,4.3,16.2,5.2,24.7,5.8c5.4,0.4,10.8,0.6,16.2-0.2"/>
		<path class="st28" d="M23.5-86.3c-0.5,2.6-0.9,5.2-0.3,7.7s2.5,4.9,5.1,5.2c2.1,0.2,4.2-1,5.4-2.8c1.2-1.8,1.6-3.9,1.8-6
			c0.1-1.2,0-2.5-0.4-3.6L23.5-86.3z"/>
		<path class="st25" d="M16.4-83.4c-2.8,2.2-5.3,4.7-7.5,7.5"/>
		<path class="st25" d="M9.1-83.4c2.9,2.5,5.5,4.8,7.3,8.2"/>
		<path class="st25" d="M15.3-59.9c-0.3,2.8-0.2,6.7,0,9.4"/>
		<path class="st25" d="M24.1-58.7c-0.2,2.4-0.2,4.7-0.1,7.1"/>
		<path class="st6" d="M-59.5,7.2c-1.4,0.8-1.9,1.7-3.6,3.4"/>
	</g>
	<g id="Digital_Stuff">
		<g id="Layer_15" class="st3">
			<path class="st5" d="M121.4-8c8.5,4,14.2,18.7,13.9,81c-0.3,55.9-4.2,69.7-8.7,77.5c-12,20.6-53.9,22.9-158.9,20.7
				c-30.7-0.6-44.6-1.9-49.1-8.1c-6.1-8.2-8.8-30.7-10-78.5c-1-39.1-0.4-60.7,6.5-73C-76.5-3.5-8.1-12.9,5.5-14.2
				C20.4-15.6,106.2-15.1,121.4-8z"/>
			<path class="st5" d="M114.3,4.9c8.2,6.6,9,27.8,9,69.4c0,39.7-2.4,61.4-8.1,69.1c-6.5,8.7-13.9,13.4-59.4,15.8
				c-30.3,1.6-48.1,1.9-58.1-4.2c-10.8-6.6-11.9-27.1-12.9-82.3c-0.8-47.1,0-55.9,7.4-65.5c6.5-8.4,20-9,61.3-8.4
				C98.8-0.6,109.5,1,114.3,4.9z"/>
			<path class="st26" d="M-20-10C-31-8.4-38.8-5.8-45.1,0.1c-3,2.8-5.2,6.4-6.8,10.2c-3.1,7.6-3.6,15.9-4,24.1
				c-1.3,29-1.7,58.2,0,87.2c1,17.2,2.8,28.6,5.3,33.1c1.6,2.7,3.8,5.1,6.3,7c6.8,5.5,14.2,8.4,25.5,8.7"/>
			<path class="st29" d="M-2,20.2c-2.6,4.7-2.9,10.3-3.1,15.7c-0.7,19.3,0,34.6,0,53.9c0,12,0.7,25.9,2.3,37.8
				c1.6,11.9,6.9,15.7,11.3,17.4c9.5,3.8,47.3,1.6,53.6,1.3c37.5-1.9,44.9-9,45.2-47.1c0.1-16-0.7-59.7-2-65.7
				c-1.4-6-2.5-10.7-7.3-14.7C92.1,14,85.7,12.7,77.7,12c-14.9-1.2-28.4-1.6-44.2-1.3C17.3,11,3.9,9.4-2,20.2z"/>
			<polygon class="st30" points="32.6,39.4 22,39.7 24.2,110.8 34.9,110.1 			"/>
			<polygon class="st30" points="74,38.1 63.3,38.5 65.6,109.5 76.2,108.8 			"/>
			<polygon class="st31" points="62,123.4 40.4,124 40.7,133.1 62.3,132.4 			"/>
			<path class="st26" d="M-45.9,18.1c0,7.9-0.1,15.7-0.1,23.6"/>
			<path class="st26" d="M-38.7,16.8c0,5,0.1,9.9,0.1,14.9"/>
			<path class="st26" d="M-31.3,16.2c0,2.6,0,5.2,0,7.7"/>
			<path class="st26" d="M106,17c1.4-1.5,2.7-3.1,4-4.8"/>
			<path class="st26" d="M104.6,139.2c1.4,1.2,1.5,1.7,2.9,2.9"/>
		</g>
		<g id="Layer_16" class="st3">
			<path class="st5" d="M-10.2-39.2c4.9-11.2,9.5-23.5,13.4-37.5c25.4-4.8,50.6-8,77-11.2c2.2-0.3,3.8,1.9,2.9,3.9
				C77.9-71.9,72.6-61.2,66-49.9c-1.3,2.2-3.4,3.6-5.9,4c-22.3,3.1-44.6,6.4-67,9.4c-3.3,0.5-6.2-2-6.4-5.3c-1-16-2.5-32-4.6-48
				c-0.3-2.2,1.1-4.2,3.2-4.7c5.6-1.5,11.2-2.3,17-3.4c5.3-1,5.7,3.3,5.8,4.5c16.5-3.2,32.2-5.3,48.9-7.3c2.3-0.3,4.6,0.4,5.3,2.7
				c1.1,3.4,1.3,6.3,1.8,10.3"/>
		</g>
	</g>
	<g id="Illustration">
		<path class="st32" d="M-86.5-77.8c1.2,15.1,2.3,30.2,3.5,45.3"/>
		<path class="st32" d="M-49.6-80.7c1.9,14.4,3.4,28.8,4.5,43.3"/>
		<path class="st32" d="M-112-1c0.2,14.8,10.2,28.6,23.5,35.1c13.4,6.4,29.4,6,43.3,0.6c19.6-7.6,35.8-27.3,33.6-48.3
			c0.8-0.6,1.2,1.6,0.2,1.3"/>
		<g class="st3">
			<g>
				<path id="XMLID_00000001630386699626138990000006594000924267428267_" class="st33" d="M11.7,39.6C5,32.4-1.5,27.6-2.2,18.7
					c-0.6-6.8,0-8.8-1-15.6c-0.3-1.7-4-7.1-6-10c-2.4-3.4-9-11.3-0.2-18.8c5.7-4.9,12.9-1,16.2,2.7c5.9,6.6,8.5,8.2,15.8,10.9
					c4.2,1.6,5.2,0.5,9.1,2.7c4.3,2.5,12,10,15.1,13.9"/>
			</g>
		</g>
		<g class="st3">
			<g>
				<path id="XMLID_00000155111931581208008370000005886672226985888921_" class="st5" d="M122.1,162L11.4,39
					c-5.5-5.3-2.2-17.6,7.3-27.5C28.2,1.7,40.3-2,45.8,3.2l110.7,123"/>
			</g>
		</g>
		<g class="st3">
			<g>
				
					<ellipse id="XMLID_00000062173956560616398320000003949754021253070506_" transform="matrix(0.6937 -0.7202 0.7202 0.6937 -61.1674 144.4337)" class="st34" cx="139.2" cy="144.1" rx="24.8" ry="13.8"/>
			</g>
		</g>
		<path class="st35" d="M105,143.1c-5.5-5.3-2.2-17.6,7.3-27.5c9.5-9.8,21.6-13.5,27.1-8.3L125.6,91c-5.5-5.3-17.6-1.6-27.1,8.3
			c-9.5,9.9-12.8,22.2-7.3,27.5L105,143.1z"/>
		<path class="st35" d="M34.6,65.7c-5.5-5.3-2.7-16.3,6.8-26.1s22.4-14,27.9-8.7l-11-12.8c-5.5-5.3-17.6-1.6-27.1,8.3
			s-12.8,22.2-7.3,27.5L34.6,65.7z"/>
	</g>
	<g id="About">
		<path class="st36" d="M-32.5-17.3c-2.1,5.5-1.7,11.8,0.2,17.4c0.8,2.4,1.9,4.7,3.4,6.7c5.2,6.9,15.7,8.9,23.4,4.8
			C2.1,7.5,6.3-2,4.5-10.5C1.1-27.6-24.9-36.9-32.5-17.3z"/>
		<path class="st37" d="M23.6-44.1C28-29.1,32.4-14,36.9,1.1"/>
		<path class="st37" d="M53.6-54c4.9,16,9.8,32,14.7,48"/>
		<path class="st37" d="M35.2-20.4c6.7-2.7,13.6-5,20.6-6.7"/>
		<path class="st38" d="M-24.2,57.3c5.5,16.4,11.1,32.7,16.6,49"/>
		<path class="st37" d="M7.9,46.1c5.7,17.4,11.5,34.7,17.2,52.1"/>
		<path class="st37" d="M-8.6,82.7c6.2-2.5,12.5-5,18.7-7.5"/>
		<path class="st37" d="M58.9,31.2c-6.9,2.2-13.8,4.4-20.7,6.6c-0.8,0.3-1.8,0.7-2.1,1.5c-0.2,0.6,0,1.3,0.2,1.9
			C41.4,57,46.5,72.8,51.6,88.5c7.7-2.4,15.5-4.7,23.3-7.1"/>
		<path class="st37" d="M49.2,63.5c4-1.2,7.9-2.3,11.8-3.6"/>
		<path class="st37" d="M80.1,24.5c7.8,5.4,16.2,10,24.9,13.8"/>
		<path class="st37" d="M112.9,14.5c-2.7,20-6.7,39.8-12.1,59.2"/>
		<path class="st39" d="M-76.3,35.6c-9.9-50.5,11.5-77.9,37.9-98.1c16.6-12.6,36.5-19,56.4-23.1c9.8-2,19.7-3.6,29.6-3.7
			c37.3-0.5,75,19.9,91.3,56.3c4.9,10.9,10,23.4,12.8,35.2c1.9,8.1,3.8,22.1,3.5,30.5c1.1,20.5-1.2,44.3-13.3,61.1
			c-12.1,16.8-25.2,27-46,36.1c-29.7,12.6-94.6,25.2-127.1,2.7c-17.6-11.7-31.6-32.4-35.2-52.3c-21.4-1.6-34.9-3.3-45.1-4.9
			c-2.2-0.4-3-3.2-1.3-4.8C-98.4,57.2-92.8,52.3-76.3,35.6z"/>
	</g>
	<g id="Shop">
		<path class="st40" d="M156.3,127c-0.3,4.1-6.5,12.2-13.8,12.1h-245c-13.8,0-13.2-4.2-13.2-14.3v-91c0.2-6,5.9-10.3,11.5-13.3"/>
		<path class="st19" d="M151.5,130.1h-253.2c-2.7,0-5-2.2-5-5V24.8c0-2.7,2.2-5,5-5h253.2c2.7,0,5,2.2,5,5v100.4
			C156.5,127.9,154.3,130.1,151.5,130.1z"/>
		<path class="st6" d="M19.7-71.9c-2.4,1.8-5,5.8-4.1,10.1c0.8,3.5,3.8,6.4,7.4,6.6c1.3,0.1,3.3,0,4.5-0.4c1.4-0.4,4.7-1.4,6.7-5.7"
			/>
		<path class="st19" d="M17.3-63.2c0.8,3.5,3.8,6.4,7.4,6.6c1.3,0.1,3.3,0,4.5-0.4c1.4-0.4,4.4-1.5,5.5-5.4
			C39.2-77.9,14.1-78,17.3-63.2z"/>
		<line class="st9" x1="13.8" y1="-59.6" x2="-64.1" y2="18.7"/>
		<line class="st9" x1="34.9" y1="-57.7" x2="108.3" y2="18.7"/>
		<path class="st36" d="M-76.9,58.1c-4.2,5.9-5.7,13.3-6.1,20.5c-0.2,3.7,0,7.4,1.4,10.8c1.9,4.4,5.9,7.7,10.3,9.5
			c10.8,4.4,25-0.8,29.3-11.7c2.9-7.4,2.8-25.2-3.9-32.6C-55,44.6-70.2,48.7-76.9,58.1z"/>
		<path class="st36" d="M-12.6,100.8c-0.9-15.4-1.8-30.9-2.7-46.3c-0.1-1-0.1-2.1,0.3-3.1c0.6-1.4,2.1-2.2,3.4-2.9
			c7.1-3.3,16.2-4.3,22.1,0.8c5.7,4.8,6.3,14.1,2.3,20.3c-4,6.3-11.6,9.7-19,9.9"/>
		<path class="st36" d="M66.4,49.5c-5.5-0.6-9.6,0.2-14.5,0.4c-2.6,0.1-5.5,0.5-7.5,2.2c-2.3,1.9-2.8,5.3-3.1,8.3
			c-1.2,13-1.9,26-2.1,39.1c0,0.8,0,1.7,0.5,2.3c0.7,0.9,2.1,0.9,3.3,0.8c7.7-0.8,15.5-1.6,23.2-2.3"/>
		<path class="st36" d="M57.2,75.7c-4.3,0.2-8.4,0.5-12.1,1.2"/>
		<path class="st36" d="M91.2,99.2c0.1-17.2,0.1-51.9,5.3-50.3c10.3,17.3,14.6,37.5,25.9,54.1c5.5,0.8,5.2-9.9,5.1-15.1
			c-0.2-13.8-0.4-27.5-0.7-41.3"/>
	</g>
	<g id="All">
		<g id="Layer_8" class="st3">
			<g id="Layer_5_copy_6">
				<g>
					<g>
						<path id="XMLID_00000026851119032004426630000013762290967966517683_" class="st41" d="M-77.4,14.1c-3.4-3.6-6.7-6.1-7-10.5
							c-0.3-3.4,0-4.4-0.5-7.9c-0.2-0.9-2-3.6-3-5c-1.2-1.7-4.5-5.7-0.1-9.5c2.9-2.5,6.5-0.5,8.2,1.4c3,3.3,4.3,4.1,8,5.5
							c2.1,0.8,2.6,0.3,4.6,1.4c2.2,1.3,6.1,5,7.6,7"/>
					</g>
				</g>
				<g>
					<g>
						<path id="XMLID_00000136372431126472163560000015328398838871835818_" class="st41" d="M-21.7,75.9l-55.9-62.1
							c-2.8-2.7-1.1-8.9,3.7-13.9C-69.1-5-63-6.9-60.2-4.3l55.9,62.1"/>
					</g>
				</g>
				<g>
					<g>
						
							<ellipse id="XMLID_00000113331846856018391970000002562043483581015694_" transform="matrix(0.6937 -0.7202 0.7202 0.6937 -52.1613 11.0653)" class="st42" cx="-13.1" cy="66.9" rx="12.5" ry="7"/>
					</g>
				</g>
				<path class="st43" d="M-30.3,66.4c-2.8-2.7-1.1-8.9,3.7-13.9c4.8-4.9,10.9-6.8,13.7-4.2l-7-8.2c-2.8-2.7-8.9-0.8-13.7,4.2
					c-4.8,5-6.5,11.2-3.7,13.9L-30.3,66.4z"/>
				<path class="st43" d="M-65.8,27.3c-2.8-2.7-1.4-8.2,3.4-13.2S-51.1,7-48.3,9.7l-5.6-6.5c-2.8-2.7-8.9-0.8-13.7,4.2
					s-6.5,11.2-3.7,13.9L-65.8,27.3z"/>
			</g>
			<g id="Layer_5_copy_7">
				<g>
					<g>
						<path id="XMLID_00000052076666957195030280000006744017234170423958_" class="st41" d="M-64.5-33.3c-1.1-2.3-2.9-7.4-3.1-9.9
							c-0.2-2.3,0.6-2.5,0.7-4.7c0.3-3.9,0.2-5.4-1.6-9.6c-1-2.3-1.2-6.4,2.3-8c5.3-2.4,7.5,2.3,8.5,4.1c0.9,1.5,2.6,4.4,3.3,4.9
							c2.9,1.9,3.9,2.1,6.9,3.8c3.9,2.2,4.7,6.2,6.5,10.8"/>
					</g>
				</g>
				<g>
					<g>
						<path id="XMLID_00000078040448630111126650000002954490102820431250_" class="st41" d="M-32.7,43L-65-34
							c-1.2-3.6,3.1-8.4,9.6-10.6c6.6-2.2,12.9-1.1,14.1,2.6L-9,35"/>
					</g>
				</g>
				<g>
					<g>
						
							<ellipse id="XMLID_00000061442076935462725120000008361617191682144680_" transform="matrix(0.9476 -0.3196 0.3196 0.9476 -13.5012 -4.5632)" class="st44" cx="-20.7" cy="38.9" rx="12.5" ry="7"/>
					</g>
				</g>
				<path class="st43" d="M-18.3,13.3c-1.2-3.7-7.6-4.8-14.1-2.6c-6.6,2.2-10.9,6.9-9.6,10.6l4.5,9.8c-1.2-3.6,3.1-8.4,9.6-10.6
					c6.6-2.2,12.9-1.1,14.1,2.6L-18.3,13.3z"/>
				<path class="st43" d="M-37.1-33.1c-1.2-3.7-7.6-4.8-14.1-2.6c-6.6,2.2-10.9,6.9-9.6,10.6l3.5,7.8c-1.2-3.7,3.5-8.6,10-10.9
					c6.5-2.2,12.1-1.1,13.4,2.5L-37.1-33.1z"/>
			</g>
			<g id="Layer_5_copy_10">
				<g>
					<g>
						<path id="XMLID_00000092430902315439580300000001288642352838729088_" class="st41" d="M83.2-42.3c0.3-2.5,1.6-7.8,2.7-10
							c1.1-2,1.8-1.8,3.2-3.6c2.4-3.1,3.1-4.5,3.8-8.9c0.4-2.5,2.4-6.1,6.2-5.5c5.8,0.8,5.1,6,5,8.1c-0.1,1.8-0.2,5.1,0.1,5.9
							c1.4,3.2,2.2,3.9,3.8,6.9c2.1,4,0.6,7.8-0.3,12.7"/>
					</g>
				</g>
				<g>
					<g>
						<path id="XMLID_00000046341629099129139760000018364538508219863974_" class="st41" d="M69,39.1l14.3-82.3
							c1-3.7,7.1-5.4,13.8-3.7c6.7,1.7,11.4,6.1,10.5,9.8L93.3,45.2"/>
					</g>
				</g>
				<g>
					<g>
						
							<ellipse id="XMLID_00000080198162918767403980000016946273822723961274_" transform="matrix(0.2411 -0.9705 0.9705 0.2411 20.7649 110.8452)" class="st45" cx="81.3" cy="42.1" rx="7" ry="12.5"/>
					</g>
				</g>
				<path class="st43" d="M97,21.9c0.9-3.7-3.8-8.1-10.5-9.8s-12.9,0-13.8,3.7l-1.5,10.7c1-3.7,7.1-5.4,13.8-3.7s11.4,6.1,10.5,9.8
					L97,21.9z"/>
				<path class="st43" d="M106.2-27.3c0.9-3.7-3.8-8.1-10.5-9.8c-6.7-1.7-12.9,0-13.8,3.7L80.6-25c0.9-3.7,7.6-5.4,14.3-3.8
					s10.8,5.6,9.9,9.3L106.2-27.3z"/>
			</g>
			<g id="Layer_5_copy_9">
				<g>
					<g>
						<path id="XMLID_00000023251232407051497130000009014476173381381282_" class="st41" d="M-27.5-39.7c-0.1-2.5,0.4-7.9,1.2-10.3
							c0.8-2.1,1.5-2,2.6-4c1.9-3.4,2.4-4.9,2.5-9.4c0-2.5,1.5-6.4,5.3-6.4c5.8,0,5.9,5.2,6.1,7.3c0.2,1.8,0.5,5.1,1,5.8
							c1.9,2.9,2.7,3.5,4.7,6.3c2.7,3.6,1.8,7.6,1.6,12.6"/>
					</g>
				</g>
				<g>
					<g>
						<path id="XMLID_00000133501158232537005230000008150153607201943451_" class="st41" d="M-29.4,42.9l1.9-83.5
							c0.4-3.8,6.2-6.4,13.1-5.7c6.9,0.7,12.2,4.3,11.8,8.1l-1.9,83.5"/>
					</g>
				</g>
				<g>
					<g>
						
							<ellipse id="XMLID_00000014630187247591542000000014218896478204124064_" transform="matrix(9.410438e-02 -0.9956 0.9956 9.410438e-02 -59.1095 23.2116)" class="st46" cx="-16.8" cy="44.1" rx="7" ry="12.5"/>
					</g>
				</g>
				<path class="st43" d="M-4.2,21.7c0.4-3.8-4.9-7.5-11.8-8.1c-6.9-0.7-12.7,1.9-13.1,5.7l0.1,10.8c0.4-3.8,6.2-6.4,13.1-5.7
					s12.2,4.3,11.8,8.1L-4.2,21.7z"/>
				<path class="st43" d="M-2.4-28.4c0.4-3.8-4.9-7.5-11.8-8.1c-6.9-0.7-12.7,1.9-13.1,5.7v8.5c0.4-3.8,6.7-6.5,13.5-5.8
					c6.9,0.6,11.5,3.9,11.2,7.8L-2.4-28.4z"/>
			</g>
			<g id="Layer_5_copy_8">
				<g>
					<g>
						<path id="XMLID_00000142153344741413464880000009835587110510991039_" class="st41" d="M-37.3,1.4c0.2-2.5,1.4-7.8,2.5-10
							c1-2,1.8-1.8,3.1-3.7c2.3-3.2,3-4.6,3.7-9c0.4-2.5,2.3-6.1,6.1-5.6c5.8,0.7,5.2,5.9,5.1,8c0,1.8-0.1,5.1,0.2,5.9
							c1.5,3.1,2.3,3.8,3.9,6.9c2.2,4,0.7,7.8-0.1,12.7"/>
					</g>
				</g>
				<g>
					<g>
						<path id="XMLID_00000016754011138624469410000003253043150219897001_" class="st41" d="M-50,83.1l12.8-82.5
							c0.9-3.7,7-5.5,13.7-4c6.7,1.6,11.5,5.8,10.7,9.6l-12.8,82.5"/>
					</g>
				</g>
				<g>
					<g>
						
							<ellipse id="XMLID_00000150094467843864126650000005719910199885120662_" transform="matrix(0.2229 -0.9748 0.9748 0.2229 -112.9311 30.0498)" class="st47" cx="-37.6" cy="85.9" rx="7" ry="12.5"/>
					</g>
				</g>
				<path class="st43" d="M-22.2,65.3c0.9-3.8-3.9-8-10.7-9.6c-6.7-1.6-12.9,0.2-13.7,4l-1.3,10.7c0.9-3.7,7-5.5,13.7-4
					c6.7,1.6,11.5,5.8,10.7,9.6L-22.2,65.3z"/>
				<path class="st43" d="M-14,15.9c0.9-3.8-3.9-8-10.7-9.6c-6.7-1.6-12.9,0.2-13.7,4l-1.1,8.4c0.9-3.8,7.5-5.5,14.2-4
					s10.9,5.4,10.1,9.1L-14,15.9z"/>
			</g>
			<g id="Layer_5_copy">
				<g>
					<g>
						<path id="XMLID_00000173881645766798522040000013340669308517914755_" class="st41" d="M111.8-9.2c1.9-4.6,2.8-8.6,6.7-10.7
							c3-1.7,4-1.8,7-3.7c0.7-0.5,2.4-3.3,3.4-4.8c1.1-1.8,3.3-6.5,8.6-4c3.4,1.6,3.1,5.7,2.1,8c-1.8,4.1-2,5.6-1.7,9.5
							c0.1,2.3,0.8,2.5,0.6,4.7c-0.3,2.5-2.1,7.6-3.3,9.8"/>
					</g>
				</g>
				<g>
					<g>
						<path id="XMLID_00000075164544809095540640000016665898497132006278_" class="st41" d="M78.4,67L112-9.4
							c1.3-3.6,7.6-4.7,14.2-2.3c6.5,2.3,10.7,7.1,9.4,10.7L102,75.4"/>
					</g>
				</g>
				<g>
					<g>
						
							<ellipse id="XMLID_00000161590606362195609950000017213302886385152914_" transform="matrix(0.3361 -0.9418 0.9418 0.3361 -7.1183 132.1486)" class="st48" cx="90.2" cy="71.1" rx="7" ry="12.5"/>
					</g>
				</g>
				<path class="st43" d="M83.5,55.2c1.3-3.6,7.6-4.7,14.2-2.3c6.5,2.3,10.7,7.1,9.4,10.7l4.6-9.7c1.3-3.6-2.9-8.4-9.4-10.7
					s-12.9-1.3-14.2,2.3L83.5,55.2z"/>
				<path class="st43" d="M104.5,6.8c1.3-3.6,6.9-4.6,13.4-2.3c6.5,2.3,11.1,7.4,9.8,11l3.6-7.7c1.3-3.6-2.9-8.4-9.4-10.7
					c-6.5-2.3-12.9-1.3-14.2,2.3L104.5,6.8z"/>
			</g>
			<g id="Layer_5_copy_2">
				<g>
					<g>
						<path id="XMLID_00000098194375559364107760000011630345850137789098_" class="st41" d="M72.6-18.4c-0.5-4.9-1.6-8.9,0.8-12.6
							c1.8-2.9,2.7-3.5,4.4-6.6c0.4-0.8,0.6-4.1,0.6-5.8c0.1-2.1-0.2-7.3,5.7-7.6c3.8-0.2,5.5,3.5,5.7,6c0.4,4.5,0.9,5.9,3,9.2
							c1.2,1.9,1.9,1.8,2.8,3.9c1,2.3,1.8,7.7,1.8,10.2"/>
					</g>
				</g>
				<g>
					<g>
						<path id="XMLID_00000170977915547642804510000017242364576426670231_" class="st41" d="M79.5,64.5l-6.8-83.2
							c-0.6-3.8,4.5-7.7,11.3-8.8c6.8-1,12.8,1.2,13.4,5l6.8,83.2"/>
					</g>
				</g>
				<g>
					<g>
						
							<ellipse id="XMLID_00000176744912776786627360000012338400791798913675_" transform="matrix(0.9883 -0.1526 0.1526 0.9883 -8.4686 14.7494)" class="st49" cx="91.9" cy="62.5" rx="12.5" ry="7"/>
					</g>
				</g>
				<path class="st43" d="M78.4,51.7c-0.6-3.8,4.5-7.7,11.3-8.8c6.8-1,12.8,1.2,13.4,5l-0.6-10.8c-0.6-3.8-6.6-6-13.4-5
					c-6.8,1.1-11.9,5-11.3,8.8L78.4,51.7z"/>
				<path class="st43" d="M73.8-0.9c-0.6-3.8,3.9-7.4,10.7-8.4s13.3,1.2,13.9,5l-0.5-8.5c-0.6-3.8-6.6-6-13.4-5
					c-6.8,1.1-11.9,5-11.3,8.8L73.8-0.9z"/>
			</g>
			<g id="Layer_5_copy_5">
				<g>
					<g>
						<path id="XMLID_00000039840165684843096840000017884055180486716289_" class="st41" d="M5-61.6c-0.7-4.9-2.1-8.8,0.2-12.7
							c1.7-3,2.5-3.7,4-6.8c0.4-0.8,0.4-4.1,0.4-5.9c0-2.1-0.5-7.3,5.3-7.9c3.8-0.4,5.7,3.3,6,5.8c0.6,4.4,1.2,5.8,3.5,9
							c1.3,1.9,2,1.7,3,3.7c1.1,2.3,2.1,7.6,2.3,10.1"/>
					</g>
				</g>
				<g>
					<g>
						<path id="XMLID_00000075868655696783480630000017975363552922405775_" class="st41" d="M16,20.8L5.1-62
							c-0.8-3.8,4.1-7.9,10.9-9.4c6.8-1.4,12.8,0.6,13.6,4.3l10.9,82.8"/>
					</g>
				</g>
				<g>
					<g>
						
							<ellipse id="XMLID_00000140703063577948928170000008699709989270424738_" transform="matrix(0.9796 -0.201 0.201 0.9796 -3.0934 6.0489)" class="st49" cx="28.2" cy="18.3" rx="12.5" ry="7"/>
					</g>
				</g>
				<path class="st43" d="M14.3,8.1c-0.8-3.8,4.1-7.9,10.9-9.4C32-2.7,38-0.7,38.8,3L37.7-7.7c-0.8-3.8-6.9-5.7-13.6-4.3
					c-6.8,1.4-11.7,5.6-10.9,9.4L14.3,8.1z"/>
				<path class="st43" d="M7.1-44.2c-0.8-3.8,3.5-7.6,10.3-8.9s13.3,0.6,14.1,4.4l-0.9-8.5c-0.8-3.8-6.9-5.7-13.6-4.3
					c-6.8,1.4-11.7,5.6-10.9,9.4L7.1-44.2z"/>
			</g>
			<g id="Layer_5_copy_3">
				<g>
					<g>
						<path id="XMLID_00000031191200402484740700000016091059530069043901_" class="st41" d="M46.2-51.3c0.3-5-0.2-9,2.8-12.4
							c2.3-2.6,3.2-3.1,5.4-5.8c0.5-0.7,1.2-3.9,1.6-5.7c0.4-2.1,1-7.2,6.8-6.6c3.8,0.4,4.9,4.4,4.7,6.9c-0.4,4.5,0,6,1.5,9.6
							c0.9,2.1,1.6,2.1,2.2,4.3c0.6,2.4,0.5,7.9,0.2,10.4"/>
					</g>
				</g>
				<g>
					<g>
						<path id="XMLID_00000164483825644636481210000002586567882359470259_" class="st41" d="M39.9,31.6l6.4-83.3
							c0-3.9,5.7-6.9,12.6-6.9c6.9,0.1,12.5,3.2,12.5,7L65,31.7"/>
					</g>
				</g>
				<g>
					<g>
						
							<ellipse id="XMLID_00000081616945084094133530000010737233354301517480_" transform="matrix(5.679325e-03 -1 1 5.679325e-03 20.5627 83.8661)" class="st50" cx="52.5" cy="31.6" rx="7" ry="12.5"/>
					</g>
				</g>
				<path class="st43" d="M40.9,18.8c0-3.9,5.7-6.9,12.6-6.9c6.9,0.1,12.5,3.2,12.5,7l1.2-10.7c0-3.9-5.5-7-12.5-7
					c-6.9,0-12.6,3-12.6,6.9L40.9,18.8z"/>
				<path class="st43" d="M44.7-33.9c0-3.9,5-6.7,11.9-6.6s12.9,3.3,12.9,7.2l0.8-8.5c0-3.9-5.5-7-12.5-7s-12.6,3-12.6,6.9
					L44.7-33.9z"/>
			</g>
			<g id="Layer_5_copy_4">
				<g>
					<g>
						<path id="XMLID_00000083773839323747035400000014070671981083343545_" class="st41" d="M23.5-33.4C25.3-38,26-42,29.9-44.3
							c3-1.8,4-1.9,6.9-3.9c0.7-0.5,2.3-3.4,3.2-4.9c1-1.8,3.2-6.6,8.5-4.2c3.5,1.5,3.3,5.6,2.3,8c-1.7,4.1-1.9,5.7-1.5,9.6
							c0.2,2.3,0.9,2.5,0.8,4.7c-0.2,2.5-1.9,7.6-3,9.9"/>
					</g>
				</g>
				<g>
					<g>
						<path id="XMLID_00000031926757594660617630000005367484897423066793_" class="st41" d="M-7.8,43.6l31.5-77.3
							c1.2-3.7,7.5-4.9,14.1-2.7c6.5,2.2,10.9,6.8,9.7,10.5L16,51.4"/>
					</g>
				</g>
				<g>
					<g>
						
							<ellipse id="XMLID_00000065768881016882986250000000893919231545672115_" transform="matrix(0.3104 -0.9506 0.9506 0.3104 -42.2661 36.5968)" class="st51" cx="4.1" cy="47.4" rx="7" ry="12.5"/>
					</g>
				</g>
				<path class="st43" d="M-3,31.7c1.2-3.7,7.5-4.9,14.1-2.7c6.5,2.2,10.9,6.8,9.7,10.5l4.4-9.9c1.2-3.7-3.1-8.3-9.7-10.5
					C8.9,17,2.6,18.2,1.4,21.8L-3,31.7z"/>
				<path class="st43" d="M16.7-17.3C17.9-21,23.5-22.1,30-20c6.5,2.2,11.3,7.1,10.1,10.8l3.4-7.8c1.2-3.7-3.1-8.3-9.7-10.5
					c-6.6-2.1-12.9-0.9-14.1,2.7L16.7-17.3z"/>
			</g>
			<g id="Layer_5_copy_11">
				<g>
					<g>
						<path id="XMLID_00000078729146179761497330000007385066882846072483_" class="st41" d="M53.7,6.4c0.2-2.5,1.4-7.8,2.5-10
							c1-2,1.8-1.8,3.1-3.7c2.3-3.2,3-4.6,3.7-9c0.4-2.5,2.3-6.1,6.1-5.6c5.8,0.7,5.2,5.9,5.1,8c0,1.8-0.1,5.1,0.2,5.9
							c1.5,3.1,2.3,3.8,3.9,6.9c2.2,4,0.7,7.8-0.1,12.7"/>
					</g>
				</g>
				<g>
					<g>
						<path id="XMLID_00000079451286813547216020000008415705171758025857_" class="st41" d="M41,88.1L53.8,5.6
							c0.9-3.7,7-5.5,13.7-4c6.7,1.6,11.5,5.8,10.7,9.6L65.4,93.7"/>
					</g>
				</g>
				<g>
					<g>
						
							<ellipse id="XMLID_00000159462490132306391750000006393971619574838404_" transform="matrix(0.2229 -0.9748 0.9748 0.2229 -47.0945 122.6467)" class="st47" cx="53.4" cy="90.9" rx="7" ry="12.5"/>
					</g>
				</g>
				<path class="st43" d="M68.8,70.3c0.9-3.8-3.9-8-10.7-9.6c-6.7-1.6-12.9,0.2-13.7,4l-1.3,10.7c0.9-3.7,7-5.5,13.7-4
					c6.7,1.6,11.5,5.8,10.7,9.6L68.8,70.3z"/>
				<path class="st43" d="M77,20.9c0.9-3.8-3.9-8-10.7-9.6c-6.7-1.6-12.9,0.2-13.7,4l-1.1,8.4c0.9-3.8,7.5-5.5,14.2-4
					s10.9,5.4,10.1,9.1L77,20.9z"/>
			</g>
			<g id="Layer_5">
				<g>
					<g>
						<path id="XMLID_00000076591273443184792960000003540392528782546086_" class="st41" d="M0.6-0.9C-2.1-5.1-4.9-8-4.5-12.5
							c0.3-3.4,0.8-4.4,0.9-7.8c0-0.9-1.4-3.9-2.1-5.5c-0.9-1.9-3.5-6.4,1.5-9.4c3.3-1.9,6.5,0.6,7.8,2.8c2.4,3.8,3.5,4.8,6.9,6.8
							c1.9,1.2,2.5,0.7,4.3,2.1c1.9,1.6,5.1,6,6.3,8.2"/>
					</g>
				</g>
				<g>
					<g>
						<path id="XMLID_00000173873028057923494980000012044895501357837707_" class="st41" d="M44.8,69.6L0.5-1.2
							c-2.3-3.1,0.4-8.9,6-13c5.6-4,11.9-4.8,14.2-1.8L65,54.8"/>
					</g>
				</g>
				<g>
					<g>
						
							<ellipse id="XMLID_00000158708511020330363680000009725648612006525370_" transform="matrix(0.8074 -0.59 0.59 0.8074 -26.1143 44.3286)" class="st45" cx="54.8" cy="62.2" rx="12.5" ry="7"/>
					</g>
				</g>
				<path class="st43" d="M37.9,58.7c-2.3-3.1,0.4-8.9,6-13c5.6-4,11.9-4.8,14.2-1.8l-5.4-9.3c-2.3-3.1-8.6-2.3-14.2,1.8
					c-5.6,4.1-8.3,9.9-6,13L37.9,58.7z"/>
				<path class="st43" d="M9.7,14.1C7.4,11,9.8,5.8,15.3,1.7c5.6-4,12.4-5,14.6-1.9l-4.4-7.3c-2.3-3.1-8.6-2.3-14.2,1.8
					c-5.6,4.1-8.3,9.9-6,13L9.7,14.1z"/>
			</g>
		</g>
		<g id="Layer_9" class="st3">
			<path class="st52" d="M-67.2,31.3l92.9,9.6l99.7-11l35.9,37.6l-38.4,4.2c0,0-0.6,66.6-1.7,66.6s-94,15.5-94,15.5l-105.4-16.6
				l-1.4-70c0,0-27.1-2.8-27.4-3.7c-0.3-0.8,3.4-5.6,3.4-5.6l-13.6-1.7L-67.2,31.3z"/>
		</g>
		<path class="st6" d="M13.9,39.8c4.5,0.4,9,0.7,13.5,0.7c6.8-0.1,13.6-1.1,20.3-2c24-3.3,48.2-5.7,72.3-8.1
			c1.6-0.2,3.2-0.3,4.7,0.2c1.6,0.5,2.9,1.6,4.1,2.8c11.5,10.4,22.2,21.8,31.9,33.9c-33.5,2-66.9,6.6-99.7,13.7
			C48.2,67.7,35.4,54.3,22.6,41C11.9,51.2,1.1,61.4-9.6,71.6c-0.8,0.8-1.7,1.6-2.8,2.1c-1.4,0.5-2.9,0.4-4.4,0.2
			c-30.3-3.5-60.6-7-90.9-10.5c1.9-1.7,8.2-7,9.7-8.2c3.4-2.8,6.9-5.6,10.4-8.4c3.3-2.6,6.7-5.2,10.1-7.8c3-2.3,6.5-5.2,9.8-7.1
			c0.9-0.5,3.2-0.1,10.5,0.5c4.4,0.4,9.1,1,13.4,1.5C-34.7,35-25.6,36-16.5,37C-6.3,38,3.8,39,13.9,39.8z"/>
		<path class="st6" d="M122.8,72.5c0.1,22.1-0.5,44.2-1.6,66.2C95,146.5,67,149.8,41.1,153c-12.4,1.5-13.8,1.1-25.4-0.3
			c-31.4-3.8-63.1-9-94-15.5c-1.5-26.5-1.2-50.3-0.9-69.4"/>
		<path class="st6" d="M26.5,46.6c1.5,34,0.6,70.5,0.4,104.5"/>
		<path class="st6" d="M-68.4,31.9c-18.6,6.5-31.9,13-49.4,25.1c5.3,0,10.5,0.3,15.8,0.3"/>
		<path class="st9" d="M70.3,146.8c0-6.4,0-12.7,0-19.1c6.7-1.4,13.5-2.1,20.3-3.5c0.5,7.4,0.2,13.2,0.3,20.9"/>
	</g>
	<g id="_x33_D">
		<path class="st6" d="M-119.1-16.1c0.7-1.1,164,40.9,166.1,41.5C49.2,26,131.1-2,139.4-4.5c8.3-2.5,14.4,2.7,17.1,6.7
			c2.5,3.7,6.4,18.9,3.4,31.4c-1,4.3-7,7-10.1,2.5c-2.5-3.7,0-19.6-3.7-19.8c-5.5-0.3-36,11.9-36,11.9L79.9,69.1
			c0,0-31.1,14.3-32.3,14.6s-7-1.2-8.5-1.2s-3.3,4.5-4.6,4.3c-8.2-1.2-61.6-21-64.3-23.5c-3.4-3-9.5-21.6-10.7-24.4
			c-1.8-4.6-8.2-5.8-11.3-1.8c-1.6,2.1-5.3,12.7-7.6,14.3c-4.3,3.1-48.8-13.1-51.5-15.6c-0.5-0.5-2.2-5.5-2.8-6.4
			c-0.6-0.9-3.1,0.3-3.4-1.2C-117.3,26.5-119.7-15.2-119.1-16.1z"/>
		<path class="st6" d="M-119.3-16.7C-113.7-18,5.2-29,12.5-29.6c7.8-0.7,14.1,2.5,17,5.4C31.7-22,41.4-5.5,38.8,5.2
			c-0.9,3.7-6.3,6.2-8.6,2.1c-1.8-3.1-6.1-17.6-10.3-17.5c-4.7,0.1-53.2,6.3-53.2,6.3l-10.1,5.4"/>
		<line class="st6" x1="47" y1="25.3" x2="45.8" y2="81.7"/>
		<path class="st9" d="M15.1,28.1c-2.8-1.1-30-8.9-33-9c-13.8-0.7-6.4,35.4,2.2,38.9c4,1.6,26.7,10,31.1,11.4
			C29.5,73.8,29.4,33.7,15.1,28.1z"/>
		<path class="st9" d="M-75.3,3.5c-2.3-1-21.8-6.7-25.1-7.1c-11.7-1.5-7.5,31.4-0.1,34.4c3.4,1.4,21.5,7,25.3,8.2
			C-62.9,42.8-63.2,8.8-75.3,3.5z"/>
	</g>
	<g id="_x33_D_copy">
		<path class="st6" d="M-93.4-93.3C-92.1-93.9,39.9,38.5,41.5,40.3c1.7,1.8,95.7,21.5,105,23.8c9.3,2.3,12.2,10.7,12.5,16.1
			c0.3,4.9-4.6,21.7-14.6,31.8c-3.4,3.5-10.7,2.7-11-3.4c-0.2-4.9,11.1-18.7,7.7-21c-5.1-3.4-41-9-41-9l-51.9,21.9
			c0,0-37.8-3.9-39.1-4.3c-1.3-0.4-6-5.1-7.4-6s-5.7,2.4-6.8,1.5c-7.2-5.8-46.8-54.9-48-58.8c-1.5-4.8,3.1-26,3.6-29.3
			c0.8-5.4-4.5-10.2-9.7-8.1c-2.7,1.1-12.3,9.1-15.4,9.3c-5.6,0.4-38.9-40.2-40.2-44.1c-0.2-0.7,1.1-6.5,1-7.7
			c-0.1-1.2-3.1-1.4-2.5-3C-115.8-51.6-94.5-92.8-93.4-93.3z"/>
		<path class="st6" d="M-93.2-93.9c6.1,1.9,125.6,58.8,133,62.3c7.8,3.8,12,10.4,13.2,14.8c0.9,3.4,0.8,24.5-7.8,33.3
			c-3,3-9.5,2.3-9.4-2.9c0-4,4.2-20.3,0.1-22.5c-4.6-2.6-54.3-24.2-54.3-24.2l-12.7-0.6"/>
		<line class="st6" x1="41.6" y1="40.3" x2="8.5" y2="93.4"/>
		<path class="st9" d="M9.6,24.8C7.5,22.1-14-0.6-16.8-2.5c-12.7-8.4-26.1,30.1-20,38.3c2.9,3.8,19.8,24.6,23.2,28.5
			C-2.5,76.6,20.1,38.3,9.6,24.8z"/>
		<path class="st9" d="M-62.7-49.8c-1.6-2.2-17-18.7-19.9-21c-10.4-8-24.9,25.7-19.6,32.7c2.5,3.3,16.6,18.9,19.5,22.2
			C-73.1-5.3-54.1-37.9-62.7-49.8z"/>
	</g>
	<g id="Animation">
		<polygon class="st6" points="78.9,-56.8 61.1,-90.2 -117.8,-2.8 -102.8,27.5 		"/>
		<polygon class="st6" points="100.3,46.9 96.7,9.2 -102.2,32.7 -98.2,67.1 		"/>
		<polyline class="st6" points="98,48 106.5,137.2 -86.6,153.6 -94.5,67.7 		"/>
		<line class="st9" x1="82.2" y1="69.7" x2="-74.1" y2="84.5"/>
		<line class="st9" x1="85.5" y1="102.8" x2="-70.8" y2="117.5"/>
		<line class="st9" x1="87.9" y1="121.7" x2="-68.4" y2="136.4"/>
		<line class="st9" x1="35.4" y1="75.7" x2="38.4" y2="106"/>
		<line class="st9" x1="-34" y1="81.5" x2="-31.4" y2="111.7"/>
		<path class="st9" d="M50.5,85.5c1,0.4,2.1,0.8,3.1,0.6c1.1-0.2,1.9-1,2.7-1.7c0.9-0.7,2-1.2,3-0.8c0.4,0.2,0.8,0.5,1.2,0.7
			c1.7,0.7,3.6-1.2,5.4-0.7c0.4,0.1,0.8,0.4,1.3,0.6c1.6,0.4,3.1-1.6,4.7-1.1"/>
		<path class="st9" d="M54.3,95.2c0.8-1.3,2.6-2.1,4.1-1.7c0.4,0.1,0.8,0.3,1.2,0.3c0.5,0,1-0.3,1.5-0.4c1.2-0.3,2.4,0.5,3.6,0.4
			c0.9-0.1,1.6-0.8,2.4-1.1s2-0.2,2.3,0.6"/>
		<path class="st9" d="M17.9,89.1c-1.5-1.2-3.7-1.1-5.5-0.5s-3.6,1.5-5.5,1.6c-1.3,0-2.6-0.3-3.8-0.3c-1.4-0.1-2.8,0.2-4.1,0.5
			c-3.4,0.7-6.8,1.4-10.2,2c-1.1,0.2-2.2,0.4-3.2,0.1c-0.6-0.2-1.2-0.5-1.9-0.7c-2.2-0.4-4.3,2-6.4,1.4"/>
		<path class="st9" d="M-18.5,101.6c1.1-1.4,3-1.7,4.7-1.5s3.4,0.8,5.1,1c1.8,0.2,3.5-0.1,5.2-0.3c1.6-0.2,3.2-0.4,4.6-1.1
			c0.6-0.3,1-0.6,1.6-0.8c0.8-0.2,1.6,0,2.5,0.1c2.6,0.4,5.4,0.1,7.9-0.8"/>
		<path class="st9" d="M-67.3,97.8c1.8-1.5,3.8-3.2,6.2-3.2c2.4,0,4.7,1.6,6.9,0.9c1.1-0.4,2.2-1.3,3.2-0.7c0.4,0.2,0.7,0.6,1.2,0.8
			c0.4,0.1,0.8,0,1.2-0.1c1.4-0.4,2.8-0.8,4.1-1.2"/>
		<path class="st9" d="M-60.5,126.2c0.5-1.4,2.5-1.6,4-1.2c1.5,0.4,2.9,1.2,4.4,0.8c1.2-0.3,2-1.2,3.2-1.6c1.7-0.6,4,0.1,5.2-1.3
			c0.4,0.4,0.6,0.9,0.5,1.5c2.2-0.2,4.5-0.5,6.7-0.8"/>
		<path class="st9" d="M-1.7,120.9c6.2-4.1,15.1,0.6,21.8-2.7c0.6-0.3,1.2-0.6,1.8-0.7c0.6,0,1.2,0.2,1.8,0.4c2.5,0.8,5.4,0.4,7.7-1
			c0.6-0.3,1.1-0.7,1.7-0.8c1-0.2,1.9,0.3,2.9,0.5c2,0.6,4.1,0.3,6.2,0c1.3-0.2,2.6-0.4,4-0.6c2.4-0.4,4.7-0.7,7.1-1.1"/>
		<polygon class="st3" points="75.8,-56.3 14,-66.2 -3.9,-57.9 57.8,-47.1 		"/>
		<polygon class="st3" points="65.9,-81.8 49.6,-84.5 32,-75.8 72,-68.9 		"/>
		<polygon class="st3" points="41.5,-38 -20.3,-47.9 -38.2,-39.5 23.4,-28.8 		"/>
		<polygon class="st3" points="1.6,-20.6 -60.2,-30.4 -78.1,-22.1 -16.4,-11.4 		"/>
		<polygon class="st3" points="-37.8,-3.1 -99.6,-12.9 -117.5,-4.6 -55.8,6.1 		"/>
		<polygon class="st3" points="-75.3,14.9 -111.3,9.1 -106.1,21.6 -94,23.7 		"/>
		<polygon class="st3" points="94.1,10.6 46.6,51.3 27,53.6 74,12.2 		"/>
		<polygon class="st3" points="99,37.6 86.5,48.3 67,50.1 97.4,23.3 		"/>
		<polygon class="st3" points="55.2,13.4 7.6,54.1 -11.9,56.4 35,15 		"/>
		<polygon class="st3" points="12.2,18.9 -35.4,59.5 -55,61.8 -8,20.5 		"/>
		<polygon class="st3" points="-30.6,24.5 -78.1,65.2 -97.7,67.5 -50.8,26.1 		"/>
		<polygon class="st3" points="-71.9,28.8 -99.5,52.5 -101.7,39.2 -92.4,31.1 		"/>
		<line class="st9" x1="161.2" y1="-40.2" x2="112.9" y2="-32.6"/>
		<line class="st9" x1="145.9" y1="5.6" x2="114" y2="-3.5"/>
		<line class="st9" x1="135.2" y1="-78" x2="104.8" y2="-61.2"/>
		<path class="st53" d="M151.7,12.1"/>
		<path class="st3" d="M117.3,2.9"/>
	</g>
	<g id="Animation_00000011739293302612624920000014059660964061508243_">
		<g id="outline" class="st3">
			<polygon class="st5" points="-1.6,-101.6 -67,113.1 111,115.4 52,-101 			"/>
			<polygon class="st54" points="-67,113.1 -22.9,164.9 76.2,165.5 111,115.4 			"/>
			<polygon class="st5" points="39.2,-81 10.9,-80.6 -34.3,82.1 8.9,82.3 22,62 35,83 81,82.7 			"/>
		</g>
		<g id="ticker" class="st3">
			<line class="st5" x1="106.1" y1="-77.3" x2="109" y2="-82.5"/>
			<line class="st5" x1="24.8" y1="66.4" x2="92.5" y2="-52.9"/>
			<polygon class="st5" points="86.5,-84.7 82.9,-61 105.3,-48.9 123.1,-64.4 			"/>
		</g>
		<g id="measures" class="st3">
			<line class="st26" x1="24.2" y1="-60.1" x2="22" y2="62"/>
			<line class="st26" x1="16.2" y1="-48.1" x2="33.3" y2="-48"/>
			<line class="st26" x1="15" y1="-24.7" x2="32.1" y2="-24.6"/>
			<line class="st26" x1="14.8" y1="-1" x2="32" y2="-0.9"/>
			<line class="st26" x1="14.3" y1="22.5" x2="31.5" y2="22.6"/>
			<line class="st26" x1="12.7" y1="46.7" x2="29.9" y2="46.8"/>
		</g>
	</g>
	<g id="_x32_D">
		<path class="st6" d="M-12.9,34.7c2.1-4.4,1.6-8.4,5.8-11.7c23.6-18.5,57-43.7,76.4-59.4c8.8-7.1,25.6-19.4,34.5-26.4
			c12.4-9.6,12-9.3,16.8-9.4c5,0,22.2,0.4,29.3,1.1c8.2,0.8,7.6-0.2,6,8.3c-1.5,7.9-2.4,10.9-4.4,18.7c-3.6,14.2-1.6,10.8-16.7,22.3
			C104.4,1.3,57.4,36.4,23.2,60.9c-5.6,4-5.4,3.5-12.9,2.9"/>
		<path class="st55" d="M153.7-68.4c0.7,1.7-1.9,10.6-2.6,12.3c-0.4,0.8-4.6-1.2-7.3-4.8c-2.2-3.1-2.8-7.6-1.9-7.8
			C143.7-69.2,153.3-69.6,153.7-68.4z"/>
		<line class="st56" x1="-0.1" y1="37.7" x2="119.1" y2="-54.6"/>
		<line class="st9" x1="9.5" y1="52.3" x2="131" y2="-37.9"/>
		<path class="st9" d="M117.7-71.2c-3.4,2.7-3.2,10.1,3.7,13.9c-1.4,4.1,0.7,8.5,2.9,11.7s4.7,4.6,8.7,5.3c1.2,6.7,11,9.5,15.7,5.9"
			/>
		<path class="st6" d="M-23.2,35.1c-10,2.3-17.9,11.3-19.3,21.4c-1.4,10.1,3.6,20.8,12.1,26.4c2.4,1.6,5.1,2.9,8,3.4
			c3.9,0.8,8.1,0.2,11.9-1c7.8-2.4,15-8,18-15.6C14.3,52.3-5.4,31-23.2,35.1z"/>
		<path class="st9" d="M-20.7,46.3c-5.7,1.3-10.2,6.4-11,12.2c-0.8,5.8,2.1,11.8,6.9,15.1c1.4,0.9,2.9,1.6,4.6,2
			c2.2,0.4,4.6,0.1,6.8-0.5c4.5-1.4,8.5-4.5,10.2-8.9C0.7,56.1-10.5,44-20.7,46.3z"/>
		<path class="st6" d="M-43.4,52c-8.4-13.7-16.4-24.9-26.4-37.4c-1.4-1.8-2-5.4-0.2-6.8c1.2-0.9,3-0.1,4.3,0.7
			c1.2-7.1,5.6-13.6,11.9-17.2s14.1-4.2,20.8-1.6c1.8,0.7,3.9,2.4,3,4.2c-0.5,1-1.7,1.4-2.8,1.9c-7.1,2.8-9.8,12-8,19.4
			s7,13.4,12.1,19.2"/>
		<path class="st6" d="M-16,87.6c10.6,12.2,18.8,23.2,27.6,36.5c1.3,1.9,4.6,3.5,6.4,2.2c1.2-0.9,1-2.8,0.6-4.3
			c7.1,1,14.6-1.3,20-6.1c5.3-4.9,8.3-12.2,7.8-19.3c-0.1-1.9-1.1-4.4-3.1-4.2c-1.1,0.1-1.9,1.2-2.6,2.1c-4.9,5.9-14.4,5.7-20.9,1.7
			S9.1,85.4,5.2,78.9"/>
		<path class="st6" d="M-44.3,60.8c-15.7,17.9-36.9,36.4-59.5,48.6c-3.2,1.7-6.6,3.5-8.4,6.6c-2.8,5.2,3.7,13.8,8.2,17.6
			c2.9,2.5,6.8,4.3,10.5,3.2c2.5-0.8,4.4-2.8,6.3-4.8c18-19.1,39.6-34.7,63.4-45.8"/>
		<path class="st9" d="M-54.7,74.6c1.5,7.1,5.4,14.1,12.8,18.4"/>
		<path class="st9" d="M-68.2,86.9c2.8,7.9,6.5,12.4,13.3,17.3"/>
		<path class="st9" d="M-83.3,98.9c2.9,6.3,7.3,11.8,12.8,16"/>
		<path class="st6" d="M-99,109.2c2.6,8,8.7,14.8,16.4,18.1"/>
		<path class="st9" d="M-37.4,41c-4.3-5.3-8.3-10.8-12.2-16.4c-1.6-2.3-3.1-4.6-4-7.2c-1.7-4.9-1.1-10.5,1.7-14.8"/>
		<path class="st9" d="M-3.6,85.5c3.8,5.6,7.9,11.1,12.1,16.4c1.7,2.2,3.5,4.3,5.7,6c4.1,3.1,9.7,4.1,14.7,2.7"/>
		<path class="st9" d="M-29.4,61.1c8.4-1.4,17.2-0.5,25,2.8"/>
		<path class="st9" d="M-17.1,49c0.4,7.9-0.2,15.9-1.9,23.6"/>
	</g>
	<g id="Everything">
		<g id="heart" class="st3">
			<path class="st33" d="M-20.1-58.6c-19.6,3.1-36.4,18-43.1,36.6c-6.2,16.9-4.5,36,1.9,52.9s17.1,31.7,28.9,45.4
				c14.3,16.5,30.4,31.5,48.8,43.2c5.3,3.4,11.1,6.5,17.4,6.9c6,0.3,11.8-2,17.1-4.6c31.8-15.8,54.8-45.4,70.7-77.2
				c3.7-7.4,7.1-15.1,9.1-23.2c4.9-19.8,0.5-42.2-13.5-57.1s-39.8-21.7-58-12.5c-4.3,2.2-6.7,4.1-10.2,7.4
				c-4.9,4.7-7.6,9.2-11.8,12.5c-5.9,4.5-9-9.7-13-14.3C13.4-54.9-4-61.1-20.1-58.6z"/>
		</g>
		<g id="Layer_23" class="st3">
			<g>
				<g>
					<path id="XMLID_00000154384741056905611480000009164331945301209278_" class="st52" d="M138.1,130.1L77.5,62
						c-1.2-1.2-1.7-3.1-1.3-5.2c3.2-0.7,7-2.6,10.1-5.7c3.9-4,6.1-6.4,7.3-9.9c1.2,0.1,2.2,0.5,3,1.3l60.6,68.1"/>
				</g>
			</g>
			<g>
				<g>
					<path id="XMLID_00000044155461908980460110000008728632422358899640_" class="st26" d="M95,41.9c0.9,0.2,0.9-0.1,1.6,0.6
						l60.6,68.1"/>
					<path id="XMLID_00000050628200781200605040000008360177928360007077_" class="st26" d="M138.1,130.1L77.5,62
						c-1.1-1.1-1.5-2-1.3-3.9"/>
				</g>
			</g>
			<g>
				<g>
					
						<ellipse id="XMLID_00000043419272542832784870000002033762770891514522_" transform="matrix(0.6979 -0.7162 0.7162 0.6979 -41.6218 142.0478)" class="st57" cx="147.6" cy="120.4" rx="13.7" ry="7.6"/>
				</g>
			</g>
			<path class="st58" d="M128.7,119.7c-3-2.9-1.2-9.7,4.1-15.1c5.3-5.4,11.9-7.4,15-4.5l-7.5-9c-3-2.9-9.7-0.9-15,4.5
				c-5.3,5.4-7.1,12.2-4.1,15.1L128.7,119.7z"/>
			<path class="st58" d="M90.2,76.8c-3-2.9-1.4-9,3.8-14.4c5.3-5.4,12.4-7.6,15.4-4.7l-6-7.1c-3-2.9-9.7-0.9-15,4.5
				s-7.1,12.2-4.1,15.1L90.2,76.8z"/>
		</g>
		<g id="Layer_27_copy_2" class="st3">
			<path class="st26" d="M61.3,57.4c7,3.6,13.2,1.8,19.9-2.3c5.3-3.3,10-7.6,13.3-12.9c3.3-5.3,5-10.1,4.3-16.3"/>
			<path class="st26" d="M70.3,74.7c5.5-4.8,5.8-9.5,4.4-15"/>
			<path class="st26" d="M95.6,42c4.5,2.7,11.1,2,15.2-5.2"/>
		</g>
		<g id="Layer_23_copy" class="st3">
			<g>
				<g>
					<path id="XMLID_00000091002657052226280760000014981285410027381950_" class="st41" d="M8.4,68.2c-0.7,2.4,0,2.9-1,5.1
						c-1.1,2.5-4.9,7.1-6.8,9"/>
					<path id="XMLID_00000026122712618725891690000016661577392349640856_" class="st41" d="M-20.5,65c3.6-4.1,5.9-7.9,10.7-8.7
						c2.5-0.5,3.9-0.5,5.6-0.8"/>
				</g>
			</g>
			<g>
				<g>
					<path id="XMLID_00000141420563084093370260000001184979726973597083_" class="st41" d="M-81.8,131.9l61.6-67.2
						c2.6-3.3,9.5-2.1,15.5,2.6c5.9,4.7,8.5,11.1,6,14.4l-61.6,67.2"/>
				</g>
			</g>
			<g>
				<g>
					
						<ellipse id="XMLID_00000068665490834423270110000001614266894838992564_" transform="matrix(0.6219 -0.7831 0.7831 0.6219 -136.7625 -2.6804)" class="st57" cx="-71.2" cy="140.3" rx="7.6" ry="13.7"/>
				</g>
			</g>
			<path class="st58" d="M-72.3,121.5c2.6-3.3,9.5-2.1,15.5,2.6c5.9,4.7,8.5,11.1,6,14.4l8.2-8.4c2.6-3.3,0-9.7-6-14.4
				c-5.9-4.7-12.8-5.9-15.5-2.6L-72.3,121.5z"/>
			<path class="st58" d="M-33.6,78.9c2.6-3.3,8.8-2.3,14.7,2.4C-13,86-10,92.8-12.7,96.1l6.4-6.7c2.6-3.3,0-9.7-6-14.4
				c-5.9-4.7-12.8-5.9-15.5-2.6L-33.6,78.9z"/>
		</g>
		<g id="Layer_27_copy_3" class="st3">
			<path class="st26" d="M-9.8,40.3C-9.8,51.7,14.8,75,27,75.8"/>
			<path class="st26" d="M-20,48.4c5.3,5,7.6,5.1,12.9,3.2"/>
			<path class="st26" d="M12.4,70.8C11,75.2,13,80.1,19,85.5"/>
		</g>
		<g id="Layer_23_copy_2" class="st3">
			<g>
				<g>
					<path id="XMLID_00000031913609600418535380000017780927310963067066_" class="st52" d="M-108.5-33.4L-39.7-17l-3.8,27.1
						l-69.4-16.5"/>
				</g>
			</g>
			<g>
				<g>
					<path id="XMLID_00000065037916043182766800000002181175471271369138_" class="st26" d="M-43.6,10.1L-113-6.4"/>
					<path id="XMLID_00000064320509432827778710000003987003283839990919_" class="st26" d="M-108.5-33.4L-39.7-17"/>
				</g>
			</g>
			<g>
				<g>
					
						<ellipse id="XMLID_00000026874385010017141970000005539207354889540534_" transform="matrix(0.1618 -0.9868 0.9868 0.1618 -72.9801 -126.0108)" class="st59" cx="-110.7" cy="-20" rx="13.7" ry="7.6"/>
				</g>
			</g>
			<path class="st58" d="M-94.9-30.2c4.2,0.7,6.5,7.3,5.3,14.8C-90.8-8-95.2-2.5-99.3-3.2l11.4,3.1c4.2,0.7,8.5-4.8,9.7-12.2
				c1.2-7.5-1.1-14.1-5.3-14.8L-94.9-30.2z"/>
		</g>
		<g id="Layer_27_copy" class="st3">
			<path class="st26" d="M-29.1-24.5c-7.6,2-11,7.4-13.3,15c-1.8,6-2.4,12.3-1.3,18.5c1.1,6.1,3,10.8,7.6,15"/>
			<path class="st26" d="M-47.3-31.4c-0.9,7.2,2,11,6.7,14.1"/>
			<path class="st26" d="M-44.3,9.9c-5.2,1-9.6,5.9-7.9,14"/>
		</g>
	</g>
</g>
<g id="Functional">
	<g id="Plus_line" class="st0">
		<path class="st9" d="M47,25.6c0,14.1-9.9,25.4-25,25.9C7.7,52.1-3.6,43.4-3.8,27.9C-4.1,12.3,6.6,0.5,21.9,0.2
			C36.1-0.1,47,10.4,47,25.6z"/>
		<path class="st60" d="M21.9,12.6c-0.6,8.9-0.8,17.9-0.4,26.8"/>
		<path class="st60" d="M8.6,25.8c8.6-0.6,17.3-0.9,26-0.9"/>
	</g>
	<g id="Plus_filled" class="st0">
		<path class="st7" d="M47,25.6c0,14.1-9.9,25.4-25,25.9C7.7,52.1-3.6,43.4-3.8,27.9C-4.1,12.3,6.6,0.5,21.9,0.2
			C36.1-0.1,47,10.4,47,25.6z"/>
		<path class="st61" d="M21.9,12.6c-0.6,8.9-0.8,17.9-0.4,26.8"/>
		<path class="st61" d="M8.6,25.8c8.6-0.6,17.3-0.9,26-0.9"/>
	</g>
	<g id="Minus_line" class="st0">
		<path class="st9" d="M47,25.6c0,14.1-9.9,25.4-25,25.9C7.7,52.1-3.6,43.4-3.8,27.9C-4.1,12.3,6.6,0.5,21.9,0.2
			C36.1-0.1,47,10.4,47,25.6z"/>
		<path class="st60" d="M8.6,25.8c8.6-0.6,17.3-0.9,26-0.9"/>
	</g>
	<g id="Minus_filled" class="st0">
		<path class="st7" d="M47,25.6c0,14.1-9.9,25.4-25,25.9C7.7,52.1-3.6,43.4-3.8,27.9C-4.1,12.3,6.6,0.5,21.9,0.2
			C36.1-0.1,47,10.4,47,25.6z"/>
		<path class="st61" d="M8.6,25.8c8.6-0.6,17.3-0.9,26-0.9"/>
	</g>
	<g id="Close_black" class="st0">
		<path class="st9" d="M47,25.6c0,14.1-9.9,25.4-25,25.9C7.7,52.1-3.6,43.4-3.8,27.9C-4.1,12.3,6.6,0.5,21.9,0.2
			C36.1-0.1,47,10.4,47,25.6z"/>
		<path class="st60" d="M30.1,36.4C24.8,29.2,19,22.3,12.9,15.8"/>
		<path class="st60" d="M30.6,16.3c-6.5,5.4-13.2,12-18.5,18.5"/>
	</g>
	<g id="Close_white" class="st0">
		<path class="st62" d="M47,25.6c0,14.1-9.9,25.4-25,25.9C7.7,52.1-3.6,43.4-3.8,27.9C-4.1,12.3,6.6,0.5,21.9,0.2
			C36.1-0.1,47,10.4,47,25.6z"/>
		<path class="st61" d="M30.1,36.4C24.8,29.2,19,22.3,12.9,15.8"/>
		<path class="st61" d="M30.6,16.3c-6.5,5.4-13.2,12-18.5,18.5"/>
	</g>
	<g id="Radio_unchecked" class="st0">
		<path class="st9" d="M47,25.6c0,14.1-9.9,25.4-25,25.9C7.7,52.1-3.6,43.4-3.8,27.9C-4.1,12.3,6.6,0.5,21.9,0.2
			C36.1-0.1,47,10.4,47,25.6z"/>
	</g>
	<g id="Radio_checked" class="st0">
		<path class="st9" d="M47,25.6c0,14.1-9.9,25.4-25,25.9C7.7,52.1-3.6,43.4-3.8,27.9C-4.1,12.3,6.6,0.5,21.9,0.2
			C36.1-0.1,47,10.4,47,25.6z"/>
		<path class="st7" d="M34.3,25.7c0,7.1-5,12.8-12.6,13c-7.1,0.3-12.8-4.1-13-11.9C8.7,19.1,14,13.1,21.7,13
			C28.8,12.8,34.3,18.1,34.3,25.7z"/>
	</g>
	<g id="Error_Black" class="st0">
		<path class="st9" d="M47,25.6c0,14.1-9.9,25.4-25,25.9C7.7,52.1-3.6,43.4-3.8,27.9C-4.1,12.3,6.6,0.5,21.9,0.2
			C36.1-0.1,47,10.4,47,25.6z"/>
		<path class="st60" d="M21.3,9.9c0.1,6.6,0.2,11.1,0.3,17.7"/>
		<g class="st3">
			<path d="M21.7,45.7c-2.9,0-5.3-2.3-5.3-5.2s2.4-5.2,5.3-5.2c2.9,0,5.3,2.3,5.3,5.2S24.6,45.7,21.7,45.7z"/>
		</g>
	</g>
	<g id="Error_Black_copy" class="st0">
		<path class="st62" d="M47,25.6c0,14.1-9.9,25.4-25,25.9C7.7,52.1-3.6,43.4-3.8,27.9C-4.1,12.3,6.6,0.5,21.9,0.2
			C36.1-0.1,47,10.4,47,25.6z"/>
		<path class="st61" d="M21.3,9.9c0.1,6.6,0.2,11.1,0.3,17.7"/>
		<g class="st3">
			<path class="st52" d="M21.7,45.7c-2.9,0-5.3-2.3-5.3-5.2s2.4-5.2,5.3-5.2c2.9,0,5.3,2.3,5.3,5.2S24.6,45.7,21.7,45.7z"/>
		</g>
	</g>
	<g id="Menu_black">
		<path class="st5" d="M3.5,3.8c12.8-0.5,26.4-0.3,39.2,0"/>
		<path class="st5" d="M3.5,23.9c12.8-0.5,26.4-0.3,39.2,0"/>
		<path class="st5" d="M3.5,43.9c12.8-0.5,26.4-0.3,39.2,0"/>
	</g>
	<g id="Menu_whiteopy" class="st0">
		<path class="st63" d="M3.5,3.8c12.8-0.5,26.4-0.3,39.2,0"/>
		<path class="st63" d="M3.5,23.9c12.8-0.5,26.4-0.3,39.2,0"/>
		<path class="st63" d="M3.5,43.9c12.8-0.5,26.4-0.3,39.2,0"/>
	</g>
	<g id="Drop_down" class="st0">
		<path class="st7" d="M4.1,8.9C1.2,9.8,20.7,45,22.7,45.4c1.4,0.3,6.1-9.1,11.3-18.1c8.2-14.1,9.9-16.7,7.9-17.5
			C38.4,8.3,8.9,7.5,4.1,8.9z"/>
	</g>
	<g id="heckbox_unchecked" class="st0">
		<path class="st9" d="M43,5C41,3.5,3.3,3.3,2.4,5.3C1,8.1,0.1,45.1,2.4,47.9c1,1.2,39.2,1.7,40.4,0.3C44.1,46.5,45,6.4,43,5z"/>
	</g>
	<g id="heckbox_checked" class="st0">
		<path class="st9" d="M43,5C41,3.5,3.3,3.3,2.4,5.3C1,8.1,0.1,45.1,2.4,47.9c1,1.2,39.2,1.7,40.4,0.3C44.1,46.5,45,6.4,43,5z"/>
		<path class="st60" d="M11.7,29.6c4,2.5,7.7,5.3,11.3,8.5C30.9,22.2,39.4,8.4,47.8-3.8"/>
	</g>
</g>
</svg>
