<?xml version="1.0" encoding="utf-8"?>
<!-- Generator: Adobe Illustrator 27.7.0, SVG Export Plug-In . SVG Version: 6.00 Build 0)  -->
<svg version="1.1" id="Layer_1" xmlns="http://www.w3.org/2000/svg" xmlns:xlink="http://www.w3.org/1999/xlink" x="0px" y="0px"
	 viewBox="0 0 499.9 518.7" style="enable-background:new 0 0 499.9 518.7;" xml:space="preserve">
<style type="text/css">
	.st0{fill:none;stroke:#000000;stroke-width:11;stroke-linecap:round;stroke-linejoin:round;stroke-miterlimit:10.0003;}
	.st1{fill:#FFFFFF;}
	.st2{fill:none;stroke:#000000;stroke-width:5;stroke-linecap:round;stroke-linejoin:round;stroke-miterlimit:9.9998;}
	.st3{display:none;fill:#B19F96;}
	.st4{fill:none;stroke:#000000;stroke-width:11;stroke-linecap:round;stroke-linejoin:round;stroke-miterlimit:10;}
	.st5{fill:#FFFFFF;stroke:#000000;stroke-width:11;stroke-linecap:round;stroke-linejoin:round;stroke-miterlimit:10.0003;}
</style>
<g>
	<g>
		
			<ellipse id="XMLID_00000110448848805800555930000007255181810449035418_" transform="matrix(0.9614 -0.2753 0.2753 0.9614 -101.2588 49.7995)" class="st0" cx="126.8" cy="385.6" rx="95" ry="129.9"/>
	</g>
</g>
<g>
	<g>
		
			<ellipse id="XMLID_00000026856874155076953340000012115779067324616891_" transform="matrix(0.9614 -0.2753 0.2753 0.9614 -103.4134 41.8246)" class="st1" cx="97.3" cy="389.3" rx="80.2" ry="113.1"/>
	</g>
</g>
<ellipse transform="matrix(0.9614 -0.2753 0.2753 0.9614 -103.4134 41.8246)" class="st0" cx="97.3" cy="389.3" rx="80.2" ry="113.1"/>
<ellipse transform="matrix(0.9694 -0.2453 0.2453 0.9694 -93.0123 33.9976)" class="st2" cx="90" cy="390.3" rx="52.4" ry="79.7"/>
<g>
	<g>
		<path id="XMLID_00000112604888049465020810000008042317638791187603_" class="st1" d="M137.3,33.6C95.2,53.4,47.3,137.4,65,211.4
			c10.1,67.2,61.7,180.2,28.8,195.8C61,422.8,37.1,321.6,24.6,295.7s-36.1-132.5,3.7-203.8C63.8,28,177.4,0.1,198.2,4.3
			C229.4,10.7,179.4,13.7,137.3,33.6z"/>
	</g>
</g>
<path class="st3" d="M298.9,179.1c5.3-17.4,43.5-107.5,75.7-147.4c36.9-45.6,86.3-56.9,99.9-58.9c13.6-2,35.9-7.3,16.3,11.5
	c-19.6,18.8-53.4,40.9-77.1,76.3c-22.2,33.4-42,66.4-49,90C359.1,169.1,298.9,179.1,298.9,179.1z"/>
<path class="st4" d="M306,21.1c-26.5-11-63.3-16.7-112.1-15.4c-43,1.2-86.2,13.9-120.3,40.1C39.5,72.1,14.3,110.6,7.6,153.1
	c-2.3,14.7-2.5,29.6-1.5,44.4C9.8,258,31.8,315.6,53.5,372.1c4,10.5,8.2,21.3,15.8,29.6c4.3,4.7,10,8.6,16.4,8.9
	c9.6,0.4,18.1-7.6,21.1-16.7c3-9.2,2.9-19.4,0.1-28.6c-22.4-74-52.5-137.5-45-208.8c3.8-35.8,19.7-70.1,44.6-96
	c25-25.8,58.7-43.1,94.2-48.1c17.7-2.5,35.7-2,53.5-0.7c22.7,1.8,45.7,5.2,66,15.4c22.8,11.4,40.8,30.6,56.4,50.7
	c30,39.2,54.9,85.7,67.6,135.6"/>
<path class="st4" d="M197.1,11.8c45.3-2.4,70.4,17.3,97.2,43c26.8,25.7,46.3,57.8,64.9,89.9c7.5,12.9,16.6,27.7,21.8,43.7"/>
<g>
	<g>
		<path id="XMLID_00000142898513911006068500000004463384356154752685_" class="st4" d="M386.3,445.8c19.8-0.9,37-1.7,54.2-6.7
			c45.4-13,66.2-79.5,46.4-148.5c-18-62.9-57.7-95.9-99.5-101.1c-4.2-0.6-41.6,1.2-45.8,1.9"/>
	</g>
</g>
<g>
	<g>
		
			<ellipse id="XMLID_00000011005230907914983190000011708905853856626332_" transform="matrix(0.9614 -0.2753 0.2753 0.9614 -73.5281 113.0715)" class="st0" cx="366" cy="318.4" rx="85.5" ry="129.9"/>
	</g>
</g>
<ellipse transform="matrix(0.9614 -0.2753 0.2753 0.9614 -74.6304 112.5946)" class="st5" cx="363.8" cy="322.1" rx="31.4" ry="63.4"/>
</svg>
