<?xml version="1.0" encoding="utf-8"?>
<!-- Generator: Adobe Illustrator 27.7.0, SVG Export Plug-In . SVG Version: 6.00 Build 0)  -->
<svg version="1.1" id="Layer_1" xmlns="http://www.w3.org/2000/svg" xmlns:xlink="http://www.w3.org/1999/xlink" x="0px" y="0px"
	 viewBox="0 0 242.4 206.5" style="enable-background:new 0 0 242.4 206.5;" xml:space="preserve">
<style type="text/css">
	.st0{display:none;}
	.st1{display:inline;fill:#FFFFFF;}
	.st2{display:inline;fill:none;stroke:#000000;stroke-width:7;stroke-linecap:round;stroke-linejoin:round;}
	.st3{display:inline;}
	
		.st4{fill:none;stroke:#000000;stroke-width:5;stroke-linecap:round;stroke-linejoin:round;stroke-miterlimit:10;stroke-dasharray:12.0086;}
	.st5{fill:none;stroke:#000000;stroke-width:7;stroke-linecap:round;stroke-linejoin:round;stroke-miterlimit:10;}
	.st6{display:inline;fill:none;stroke:#000000;stroke-width:7;stroke-linecap:round;stroke-linejoin:round;stroke-miterlimit:10;}
	.st7{display:inline;stroke:#000000;stroke-width:5;stroke-linecap:round;stroke-linejoin:round;stroke-miterlimit:10;}
	
		.st8{display:inline;fill:#FFFFFF;stroke:#000000;stroke-width:5;stroke-linecap:round;stroke-linejoin:round;stroke-miterlimit:10;}
	.st9{display:inline;fill:none;stroke:#000000;stroke-width:5;stroke-linecap:round;stroke-linejoin:round;stroke-miterlimit:10;}
	
		.st10{display:inline;fill:none;stroke:#000000;stroke-width:6;stroke-linecap:round;stroke-linejoin:round;stroke-miterlimit:10;stroke-dasharray:9.0067;}
	
		.st11{display:inline;fill:#FFFFFF;stroke:#000000;stroke-width:6.6669;stroke-linecap:round;stroke-linejoin:round;stroke-miterlimit:10;}
	.st12{display:inline;stroke:#000000;stroke-width:5.2082;stroke-linecap:round;stroke-linejoin:round;stroke-miterlimit:10;}
	
		.st13{display:inline;fill:none;stroke:#000000;stroke-width:5.2082;stroke-linecap:round;stroke-linejoin:round;stroke-miterlimit:10;}
	
		.st14{display:inline;fill:none;stroke:#000000;stroke-width:7.2914;stroke-linecap:round;stroke-linejoin:round;stroke-miterlimit:10;}
	
		.st15{display:inline;fill:#FFFFFF;stroke:#000000;stroke-width:7.2914;stroke-linecap:round;stroke-linejoin:round;stroke-miterlimit:10;}
	
		.st16{display:inline;fill:#FFFFFF;stroke:#000000;stroke-width:5.2082;stroke-linecap:round;stroke-linejoin:round;stroke-miterlimit:10;}
	.st17{fill:none;stroke:#FFFFFF;stroke-width:5.2082;stroke-linecap:round;stroke-linejoin:round;stroke-miterlimit:10;}
	.st18{fill:none;stroke:#FFFFFF;stroke-width:3.1249;stroke-linecap:round;stroke-linejoin:round;stroke-miterlimit:10;}
	
		.st19{display:inline;fill:#FFFFFF;stroke:#000000;stroke-width:7;stroke-linecap:round;stroke-linejoin:round;stroke-miterlimit:10;}
	
		.st20{display:inline;fill:#FFFFFF;stroke:#000000;stroke-width:4.9991;stroke-linecap:round;stroke-linejoin:round;stroke-miterlimit:9.999;}
	
		.st21{display:inline;fill:#FFFFFF;stroke:#000000;stroke-width:6.8393;stroke-linecap:round;stroke-linejoin:round;stroke-miterlimit:10;}
	.st22{display:inline;fill:none;stroke:#000000;stroke-width:7;stroke-miterlimit:10;}
	.st23{display:inline;fill:none;stroke:#000000;stroke-width:7.0006;stroke-miterlimit:10.0006;}
	.st24{display:inline;stroke:#000000;stroke-width:0.5798;stroke-miterlimit:10.0006;}
	.st25{display:inline;stroke:#000000;stroke-width:0.6254;stroke-miterlimit:10.0006;}
	.st26{display:inline;fill:none;stroke:#000000;stroke-width:3;stroke-linecap:round;stroke-linejoin:round;stroke-miterlimit:10;}
	.st27{fill:none;stroke:#000000;stroke-width:5.0006;stroke-linecap:round;stroke-linejoin:round;stroke-miterlimit:10.0013;}
	
		.st28{display:inline;fill:none;stroke:#000000;stroke-width:2.5869;stroke-linecap:round;stroke-linejoin:round;stroke-miterlimit:10;}
	.st29{display:inline;stroke:#000000;stroke-width:3;stroke-linecap:round;stroke-linejoin:round;stroke-miterlimit:10;}
	.st30{fill:none;stroke:#000000;stroke-width:5;stroke-linecap:round;stroke-linejoin:round;stroke-miterlimit:10;}
	.st31{stroke:#000000;stroke-width:5;stroke-linecap:round;stroke-linejoin:round;stroke-miterlimit:10;}
	.st32{fill:none;stroke:#FFFFFF;stroke-width:5;stroke-linecap:round;stroke-linejoin:round;stroke-miterlimit:10;}
	.st33{fill:none;stroke:#FFFFFF;stroke-width:4.2881;stroke-linecap:round;stroke-linejoin:round;stroke-miterlimit:10;}
	.st34{display:inline;fill:none;stroke:#000000;stroke-width:15;stroke-linecap:round;stroke-linejoin:round;stroke-miterlimit:10;}
	.st35{fill:#FFFFFF;stroke:#000000;stroke-width:7;stroke-linecap:round;stroke-linejoin:round;stroke-miterlimit:10;}
	.st36{fill:none;stroke:#000000;stroke-width:6.9991;stroke-linecap:round;stroke-linejoin:round;stroke-miterlimit:9.9995;}
	.st37{display:inline;stroke:#000000;stroke-width:3.517;stroke-linecap:round;stroke-linejoin:round;stroke-miterlimit:10;}
	.st38{display:inline;fill:none;stroke:#000000;stroke-width:20;stroke-linecap:round;stroke-linejoin:round;stroke-miterlimit:10;}
	
		.st39{display:inline;fill:none;stroke:#000000;stroke-width:21.283;stroke-linecap:round;stroke-linejoin:round;stroke-miterlimit:10;}
	
		.st40{display:inline;fill:none;stroke:#000000;stroke-width:20.5052;stroke-linecap:round;stroke-linejoin:round;stroke-miterlimit:10;}
	
		.st41{display:inline;fill:none;stroke:#000000;stroke-width:7.449;stroke-linecap:round;stroke-linejoin:round;stroke-miterlimit:10;}
	.st42{display:inline;stroke:#000000;stroke-width:7;stroke-linecap:round;stroke-linejoin:round;stroke-miterlimit:10;}
	.st43{fill:#FFFFFF;stroke:#000000;stroke-width:5;stroke-linecap:round;stroke-linejoin:round;stroke-miterlimit:10;}
	.st44{fill:none;stroke:#000000;stroke-width:3.5318;stroke-linecap:round;stroke-linejoin:round;stroke-miterlimit:9.9995;}
	.st45{stroke:#000000;stroke-width:1.7747;stroke-linecap:round;stroke-linejoin:round;stroke-miterlimit:10;}
	.st46{fill:none;stroke:#000000;stroke-width:3.5329;stroke-linecap:round;stroke-linejoin:round;stroke-miterlimit:10.0019;}
	.st47{fill:none;stroke:#000000;stroke-width:3.5325;stroke-linecap:round;stroke-linejoin:round;stroke-miterlimit:10.0014;}
	.st48{fill:none;stroke:#000000;stroke-width:3.5324;stroke-linecap:round;stroke-linejoin:round;stroke-miterlimit:10.001;}
	.st49{fill:none;stroke:#000000;stroke-width:3.5317;stroke-linecap:round;stroke-linejoin:round;stroke-miterlimit:9.9985;}
	.st50{fill:none;stroke:#000000;stroke-width:3.5323;stroke-linecap:round;stroke-linejoin:round;stroke-miterlimit:10.0013;}
	.st51{fill:none;stroke:#000000;stroke-width:3.5319;stroke-linecap:round;stroke-linejoin:round;stroke-miterlimit:10.0001;}
	.st52{fill:none;stroke:#000000;stroke-width:3.5322;stroke-linecap:round;stroke-linejoin:round;stroke-miterlimit:10.0007;}
	.st53{fill:none;stroke:#000000;stroke-width:3.5324;stroke-linecap:round;stroke-linejoin:round;stroke-miterlimit:10.0012;}
	.st54{fill:none;stroke:#000000;stroke-width:3.5322;stroke-linecap:round;stroke-linejoin:round;stroke-miterlimit:10;}
	.st55{fill:none;stroke:#000000;stroke-width:3.5319;stroke-linecap:round;stroke-linejoin:round;stroke-miterlimit:9.9996;}
	.st56{fill:#FFFFFF;}
	.st57{display:inline;stroke:#000000;stroke-width:3.0358;stroke-linecap:round;stroke-linejoin:round;stroke-miterlimit:10;}
	.st58{stroke:#000000;stroke-width:7;stroke-linecap:round;stroke-linejoin:round;stroke-miterlimit:10;}
	.st59{display:inline;stroke:#000000;stroke-width:5.3859;stroke-linecap:round;stroke-linejoin:round;stroke-miterlimit:10;}
	
		.st60{display:inline;fill:none;stroke:#000000;stroke-width:5.3859;stroke-linecap:round;stroke-linejoin:round;stroke-miterlimit:10;}
	.st61{fill:#FFFFFF;stroke:#000000;stroke-width:5;stroke-linecap:round;stroke-linejoin:round;stroke-miterlimit:10.0008;}
	.st62{stroke:#000000;stroke-width:1.9373;stroke-linecap:round;stroke-linejoin:round;stroke-miterlimit:10;}
	.st63{fill:#FFFFFF;stroke:#000000;stroke-width:5.0003;stroke-linecap:round;stroke-linejoin:round;stroke-miterlimit:10.0011;}
	.st64{fill:#FFFFFF;stroke:#000000;stroke-width:4.9995;stroke-linecap:round;stroke-linejoin:round;stroke-miterlimit:9.9998;}
	.st65{display:inline;stroke:#000000;stroke-width:5.9989;stroke-linecap:round;stroke-linejoin:round;stroke-miterlimit:9.9981;}
	.st66{display:inline;fill:none;stroke:#000000;stroke-width:6;stroke-linecap:round;stroke-linejoin:round;}
	.st67{display:inline;fill:none;stroke:#000000;stroke-width:5;stroke-linecap:round;stroke-linejoin:round;}
	.st68{display:inline;fill:none;stroke:#000000;stroke-width:2;stroke-linecap:round;stroke-linejoin:round;stroke-miterlimit:10;}
	.st69{fill:none;stroke:#000000;stroke-width:6.9997;stroke-linecap:round;stroke-linejoin:round;stroke-miterlimit:10.0004;}
	.st70{stroke:#000000;stroke-width:3.517;stroke-linecap:round;stroke-linejoin:round;stroke-miterlimit:10;}
	.st71{display:inline;fill:none;stroke:#000000;stroke-width:30;stroke-linecap:round;stroke-linejoin:round;stroke-miterlimit:10;}
	.st72{fill:none;stroke:#000000;stroke-width:20;stroke-linecap:round;stroke-linejoin:round;stroke-miterlimit:10;}
	.st73{fill:none;stroke:#000000;stroke-width:7.449;stroke-linecap:round;stroke-linejoin:round;stroke-miterlimit:10;}
	.st74{fill:none;stroke:#000000;stroke-width:9;stroke-linecap:round;stroke-linejoin:round;stroke-miterlimit:10;}
	.st75{fill:none;stroke:#FFFFFF;stroke-width:9;stroke-linecap:round;stroke-linejoin:round;stroke-miterlimit:10;}
	.st76{fill:none;stroke:#FFFFFF;stroke-width:7;stroke-linecap:round;stroke-linejoin:round;stroke-miterlimit:10;}
</style>
<g id="Decorative">
	<g id="Pointing_Hand" class="st0">
		<path class="st1" d="M14.1,1.5C2.6,14-8,68.6,15.4,100.5c13.2,17.9,38.4,14.8,43.9,15.9c5.1,3.9,38.5,52.9,52.4,66.6
			c10.1,10,31.3,20.6,40.1,13.4c9.3-7.7,6.2-19.9-1.3-29.4c-7.4-9.5-20.7-21.5-25-26.9c-4.3-5.5-18.7-22.2-19.9-24.9
			c4.5-2,12.8,0.1,17.8-4.3c4.4-4,4.3-12.4,7.4-16.3c2.4-3,10.5,3.1,19.1-1.6c6.3-3.5,5.4-15,7-16.2c3.7-2.9,11.6,3.6,18.7-4.9
			c12-14.3-8.9-38.5-15.6-45.1c-6.7-6.6-38.6-40.2-48.2-46.7c-11.4-7.6-29.5-15.9-48.7-8C52.3-23.7,24.2-9.3,14.1,1.5z"/>
		<path class="st2" d="M45.4,30.8c7.1,13.6,7.6,30.5,1.1,44.4c10.1-1.8,20.6-0.6,30.1,3.2c5.6,2.3,11.2,6,12.9,11.7
			c2.4,8.1-4,16.4-11.4,20.5c-13.4,7.6-30.3,6.7-44.9,1.6c-5.2-1.8-10.4-4.2-14.5-8c-5.5-4.9-8.7-12-11.1-19.1
			C1.8,67.6,0.3,48.8,3.2,30.6c1.6-10,4.6-19.9,10.6-28s32.4-27,56.6-32.3c27.6-5,44.9,6.8,88.9,56.6"/>
		<path class="st2" d="M104.7,114.4c12.2,19.6,31.3,33.8,45.1,52.2c3.1,4.1,6.1,8.6,7.2,13.7c1.2,5.1,0.3,10.8-3.4,14.6
			c-5.9,5.9-15.9,4.2-23.4,0.4c-14.9-7.4-26.1-20.7-36.4-33.7c-11.3-14.3-22.2-29-32.7-44"/>
		<path class="st2" d="M88.8,99.9c3.2,4.8,6.5,8.6,11.4,11.6s11,4.6,16.6,2.9c9.3-2.8,14.2-13.8,13-23.3
			c-1.1-9.6-6.8-18.1-13.1-25.4c-5-6-10.8-11.9-18.2-14.6C91.1,48.4,81.7,49.7,77,56c-4.8,6.5-3.2,15.9,1,22.9"/>
		<path class="st2" d="M130,91.3c5.5,3.5,12.7,5.6,18.4,2.5c6.1-3.3,8.1-11.3,7.5-18.1c-1.5-15.3-13.2-28.3-26.9-35.3
			c-5.7-3-12.3-5-18.5-3.5c-6.2,1.6-11.5,8.1-9.7,14.3"/>
		<path class="st2" d="M155.8,74.9c5.5,3.5,9.7,4.2,15.5,1c6.1-3.3,8.1-11.3,7.5-18.1c-1.5-15.3-13.2-28.3-26.9-35.3
			c-5.7-3-12.3-5-18.5-3.5c-6.2,1.6-12.1,9.4-9.5,16.6"/>
	</g>
	<g id="Newsletter" class="st0">
		<g id="dotted_line" class="st3">
			<path class="st4" d="M17.8,96.4C-7.5,129.1,4.4,176,49.7,173.8c61.1-10.7,20.4-71.4,79.7-111.7c40-30.7,85.1-7.2,85.3,21
				c0.5,56.6-77.8,29.3-80,77.9c-0.8,16.6,1.5,26,9.7,36.2"/>
		</g>
		<g id="plane" class="st3">
			<polyline class="st5" points="148.1,-37.6 25.7,122 30.5,70.3 154.5,-44 79.9,71.6 63.3,74.7 			"/>
			<path class="st5" d="M32.8,40.7L154.5-44L43.5,9.2L32.8,40.7c0,0,18.9,8,19.6,8.3"/>
		</g>
	</g>
	<g id="LinkedIn_NOT" class="st0">
		<path class="st6" d="M-15,29.2c28.6,50.6,59.6,136.7,69.4,175.4c51.2-9.7,76.6-16.8,127.3-37.1c10.8-3.8,31.5-45.3,31.1-55.7
			c-9-37.2-39.8-118.5-59.1-153C101.1-13.9,38.6,11.6-15,29.2z"/>
		<path class="st6" d="M180.1,167.8c7.7-3.9-7.1-35.3-1.4-42.7c4.7-4.5,29.5-2.6,33.2-12.9"/>
		<path class="st7" d="M51.6,74.8c3.5,8.9,18.7,49.7,22.9,66.3c6.9-0.3,16.2-3.9,20.4-6.2c-4-15-15-49.6-22-66.7
			C69.2,67.4,56.7,71.7,51.6,74.8z"/>
		<path class="st7" d="M84.7,64.2c7.7,19.5,18.6,51.8,22.9,66.3c6.9-0.3,16.2-3.9,20.4-6.2c-2.2-10.2-15-49.6-22-66.7
			C102.2,56.8,89.7,61.1,84.7,64.2z"/>
		<path class="st7" d="M108,65.6c1-2.8,1.2-11.6,17.5-17.8c31.1-11.7,36.1,28.6,47.5,61.6c-6.6,4.3-17.9,7.2-20.7,7.3
			c-3.9-14.2-8.3-28.1-11-34.7c-6-14.3-10.6-15.5-15.9-14c-6,1.8-10.8,7.3-10.5,12.7C114.2,85.7,108,65.6,108,65.6z"/>
		<path class="st7" d="M66.1,45.6c2.3,6.3,0.2,13-7.3,15.6c-6.3,2.2-13.5-0.8-15.7-7.1c-2.5-7.1,0.5-13.1,8-15.8
			C57.5,36,63.8,39.4,66.1,45.6z"/>
	</g>
	<g id="LinkedIn_00000150104747717848862800000002388172020763015823_" class="st0">
		<path class="st6" d="M-10.1,55.7c61.5,72.4,86.5,108.7,95.6,182.7c6.6-4.6,14.6-9.9,22.3-16c0.7-8.5-0.8-17.3-5.4-33.5
			c1.2-1,13-11.5,17-14.5c6,14.3,6.3,25.5,7,35.6c5.8-4.6,14.7-11.2,20.7-16.2c0.8-10.8-2.2-21.7-7.7-35.5
			c3.4-2.9,17.3-14.6,20.7-17.6c6.7,13.5,6.6,25.6,7.8,34.5c8.3-7.4,17.5-14.8,22.2-20.5c-1.6-9.3-2.5-21.4-8.9-32.9
			c3.8-3.4,17.1-16.4,20.4-19.4c7.4,14.2,6.4,26.2,8.5,33.7c10.5-10,16.9-14.7,21-19.8c-0.2-22.1-32.2-97-119.7-181.6
			C56.7-23.5,24.6,14.1-10.1,55.7z"/>
		<path class="st7" d="M51.2,75.9c9.7,10.9,28.2,39.3,38.2,60.8c5.9-2.7,13-9.8,16-13.7c-6.3-14.8-25-46.9-37.6-61.5
			C64.4,62,54.7,70.9,51.2,75.9z"/>
		<path class="st7" d="M76.9,53c14.2,17,31,44.8,38.2,60.8c5.9-2.7,13-9.8,16-13.7c-4.6-11.9-26-47.1-37.6-61.5
			C90,39.1,80.4,48.1,76.9,53z"/>
		<path class="st7" d="M97.4,46.2c0.1-3.2-1-12,13.4-25c25.2-20,50.3,28.9,57.6,45.8c-4.5,6.8-13.6,13.8-15.9,15
			c-7.1-14.9-13.7-25.6-18-31.4c-9.1-12.8-17.2-11.7-21.4-8.2c-4.7,4-7.3,11.5-5.6,17C108.4,64.9,97.4,46.2,97.4,46.2z"/>
		<path class="st7" d="M55.7,40.4c3.7,5.7,3.7,13.4-2,18.8c-4.9,4.6-11.9,4-15.6-1.8c-4.1-6.5-3.3-13.8,2.5-19.3
			C45.6,33.6,51.9,34.7,55.7,40.4z"/>
		<line class="st6" x1="57.9" y1="2.3" x2="37.8" y2="4.9"/>
		<path class="st8" d="M34.5-4.8c4.4-1.6,8.6,0.6,10.5,7.5c1.6,5.7-0.8,10.9-5.4,12.2c-4,1.2-7.9-1.4-9.3-6.8
			C28.9,2.5,29.5-3.1,34.5-4.8z"/>
		<path class="st9" d="M62.4-9.3c-3.1,7-1.9,15.7,2.8,21.7"/>
		<path class="st9" d="M59.6,4c-2.7,1.7-4.4,5.1-4.1,8.2"/>
		<path class="st9" d="M58.2-0.7c-1.9-0.7-3.4-2.3-4.1-4.1"/>
		<path class="st10" d="M76.8,186.1c18.3-13.2,47.5-37.7,71.5-58.1c24.1-20.4,51.2-44.6,67.8-61.4"/>
	</g>
	<g id="Cara" class="st0">
		<path class="st11" d="M103.5,80.1c19.8-2.2,85.1-60.1,41.7-111.6C116.8-65,65.7-37,42.6-8.7C21.5,17-3.4,60.9,39.5,129.2
			c62.5,99.4,217.4,16.9,185.2-58.9c-19.7-46.1-77.1-22.9-86.4-13.8"/>
	</g>
	<g id="instagram_NOT" class="st0">
		<path class="st12" d="M102.1-40.9c-1.3-2.1-2.2-3.9,0.6-7.9c3.3-4.9,22.1-20.2,29.5-20c7.3,0.3,22.1,19,22.5,26.2
			s-12.2,14.4-12.2,14.4L102.1-40.9z"/>
		<path class="st1" d="M171,23.8c-11-12.3-20.1-22.2-24.4-27.5c-3-3.5-10.7-10.6-6.9-19.1c3.9-8.5,6.2-13.9,6.9-18.3
			c0.6-3.7-9.8-17-14-18.7C128-61.6,109-46.4,106.3-44c-2.6,2.4-2,3.3-4.7,6.3c-4.4,4.8-5.2-1.7-22.5,8.3
			c-6.9,4-62.1,42.6-68.9,49.3C0.1,29.7-7.4,38.6-7.4,48.5"/>
		<path class="st1" d="M151-0.4c5.1-0.5,30.5-0.4,33.5,3.4s21.9,29.2,19.2,35.9c-3.3,7.7-41,68.9-45.9,72.4
			c-5,3.6-104.5,58.9-106.8,58.4c-4.2-0.9-13.2-7.7-19.1-13.7c-6-5.9-16.6-19.4-16.1-22.2c0.6-3.7,15-33.4,15-33.4
			C25,93,0.2,61.9-4.1,55.9c-6.2-8.7,0.2-16.2,17.1-29.2s60-43,71.3-49.5s21.8-8.4,31.9,2.4c10.4,11.1,38.5,47.4,46,57.3"/>
		<path class="st13" d="M171,23.8c-11-12.3-20.1-22.2-24.4-27.5c-3-3.5-10.7-10.6-6.9-19.1c3.9-8.5,6.2-13.9,6.9-18.3
			c0.6-3.7-9.8-17-14-18.7c-4.6-1.8-21.7,11.7-24.4,14.1c-1.4,1.3-4.1,4.6-5,6.1c-2.8,4.4-3.1-0.4-14,4.6c-2.6,1.2-5.8,2.9-10,5.5
			c-6.8,4.2-62.1,42.6-68.9,49.3C0.1,29.7-7.4,38.6-7.4,48.5"/>
		<path class="st14" d="M151-0.4c5.1-0.5,30.5-0.4,33.5,3.4s21.9,29.2,19.2,35.9c-3.3,7.7-41,68.9-45.9,72.4
			c-5,3.6-104.5,58.9-106.8,58.4c-4.2-0.9-13.2-7.7-19.1-13.7c-6-5.9-16.6-19.4-16.1-22.2c0.6-3.7,15-33.4,15-33.4
			C25,93,0.2,61.9-4.1,55.9c-6.2-8.7,0.2-16.2,17.1-29.2s60-43,71.3-49.5s21.8-8.4,31.9,2.4c10.4,11.1,38.5,47.4,46,57.3"/>
		<path class="st14" d="M184.6,2.9c-5.5,11.8-41.8,65.7-45.9,69.6C134.6,76.4,24,139.7,21,141.3"/>
		<path class="st14" d="M15.7,133.8C18.4,132,123,71.5,130.9,64.6c3.6-3.2,19.7-31.6,22.7-37.5"/>
		<path class="st14" d="M130.9,64.6c4.2,3.2,28.8,35,27.7,44.3"/>
		<line class="st14" x1="30.2" y1="101.8" x2="151" y2="26.3"/>
		<path class="st15" d="M52.3,141c-10,20.5-1.6,68.5,18.9,93c23.6-13.4,66.5-37.5,94.1-52.9c-33.2-38.7-30.4-70.2-27.9-83.5"/>
		<path class="st12" d="M65.1,133.1c-7.1,13.8-9.3,42.8,4.8,72.2c19.8-11.4,45.6-25.9,68.4-38.7c-14.1-22.9-18.3-49.3-12.1-68.4"/>
		<polyline class="st14" points="47.6,152.6 42.2,146.2 136.1,91.8 143.4,102.2 137.1,106.2 		"/>
		<polygon class="st13" points="76.8,-3.1 92.9,15.8 115.3,2.5 99,-16.9 		"/>
		<polyline class="st13" points="109.3,-3.1 95.5,5.3 84.7,-7.3 		"/>
		<path class="st13" d="M32,77.7c0.9-1.9,1.9-3.4,3.2-4.4c2-1.7,4.7-1.6,6.9,0.5c1.8,1.6,3,3.8,0.9,7c-0.4,0.6-0.9,1.6-2.5,3.2"/>
		<path class="st13" d="M40.3,76.8c2.1,2.2,2.4,5.3,0.2,7.1c-2.6,2.3-5.6,1.9-7.7-0.4c-2.1-2.2-1.6-5.4,0.4-7.3
			C35.2,74.4,38.2,74.6,40.3,76.8z"/>
		<path class="st12" d="M100.8,30.1c1.3-2.8,2.9-4.9,4.7-6.4c2.8-2.4,6.7-2.3,10,0.7c2.7,2.4,4.4,5.6,1.3,10.3
			c-0.6,0.9-1.4,2.3-3.7,4.6"/>
		<path class="st16" d="M112.7,28.8c3,3.3,3.4,7.7,0.3,10.5c-3.8,3.3-8.2,2.7-11.2-0.5c-3-3.3-2.4-8,0.6-10.7S109.7,25.5,112.7,28.8
			z"/>
		<path class="st14" d="M76.1,58.3c7-9,11.9-15,13.3-20.7c2.1-8.6-1-16-6.7-22.1c-9.6-10.4-23.1-13-35.5-2.3
			c-5.7,4.9-12.3,12.6-14.7,19.1"/>
		<path class="st14" d="M76,26.5c10,12.7,6.8,26.8-3.9,35.6c-12.1,9.8-27.3,4.9-36-6.2S29.7,30.5,40.6,22S67.3,15.5,76,26.5z"/>
		<path class="st12" d="M80.4,35.1c0.5,5.3-1.8,10.2-6.1,13.6C66.6,55,56.7,51.5,50.8,44s-4.5-16.8,2.4-22.2c3.8-3,8.6-3.8,13.2-2.8
			"/>
		<polyline class="st13" points="66.8,66.2 73.6,74.8 61.1,106.1 		"/>
		<polyline class="st13" points="85.9,51 94.8,62 95,85.7 		"/>
		<polyline class="st13" points="74.6,63.3 80.4,70.7 73.4,98.8 		"/>
		<polyline class="st13" points="80.8,58.1 87.4,66.5 84.8,91.5 		"/>
		<line class="st13" x1="129.4" y1="-51.4" x2="120.3" y2="-30.9"/>
		<line class="st13" x1="92.9" y1="15.8" x2="95.5" y2="5.3"/>
		<path class="st13" d="M91.2-35.8c5.4-2.2,14.4-2.2,18.8,0.7"/>
		<g id="Layer_7" class="st3">
			<path class="st17" d="M78.6,168.1c-2.2,0.2-4-1.2-5.4-2.9c-2.4-2.9-3.5-6.9-3.1-10.7c0.5-4.1,2.6-7.8,5.2-11.1
				c2.9-3.7,6.5-7.1,10.8-9.1c4.4-2,9.4-2.5,13.8-0.5c2.2,0.9,4.1,2.5,5.7,4.3c1.3,1.4,2.5,2.9,3.1,4.6c1.2,3.1,0.4,6.7-1.2,9.6
				c-1.6,2.9-4.1,5.2-6.8,7.3c-0.7,0.6-1.6,1.2-1.7,2.2c-0.1,0.5,0.1,1.1,0.1,1.5c0.5,2,1.2,4.1,2,6c0.6,0.9,0.3,1.8-0.4,2.4
				c-1.9,2.5-8.9,5.9-13.8,8.2C79.7,183.5,81.1,178.4,78.6,168.1z"/>
			<path class="st18" d="M79.8,157.2c1-3.9,1.6-5.2,3.9-8.5"/>
			<path class="st18" d="M77.8,151.7c3.2,1.1,4.4,1,7.2,3"/>
			<path class="st18" d="M92.1,151.5c1-3.9,1.6-5.2,3.9-8.5"/>
			<path class="st18" d="M90.1,145.9c3.2,1.1,4.4,1,7.2,3"/>
			<path class="st18" d="M92.5,166c0.7,3.1,1.7,6.2,2.9,9.1"/>
			<path class="st18" d="M86.3,168.7c0.6,3.1,1.5,6.1,2.7,9.2"/>
		</g>
	</g>
	<g id="Instagram" class="st0">
		<polygon class="st6" points="-33.3,87.6 40,184.5 226.2,119.8 147.9,19.3 		"/>
		<polyline class="st6" points="-33.3,87.6 -4.3,42 166,-25.6 239.3,71.3 226.2,119.8 		"/>
		<line class="st6" x1="147.9" y1="19.3" x2="165.2" y2="-20.6"/>
		<path class="st8" d="M134.1-5.1c2.2,3.8-3.6,10.1-11.8,13.6s-15.8,4.2-17.9-1.1c-1.7-4.1,3.6-10.1,11.8-13.6
			C124.5-9.5,131.1-10.1,134.1-5.1z"/>
		<path class="st9" d="M104.5,7.5c0.9,2.1,5.5,8.6,5.5,8.6c2.9,3.2,8.5,1.9,16.7-1.5c8.2-3.5,13.5-9.5,11.8-13.6
			c-1.1-2.4-3.4-5.6-4.5-6.6"/>
		<path class="st8" d="M13.6,44.4c1.8,2.7-1.5,7.2-6.7,9.7c-5.1,2.6-10,3.2-11.8-0.6c-1.4-2.9,1.5-7.2,6.7-9.7
			C6.8,41.3,11.2,40.8,13.6,44.4z"/>
		<path class="st9" d="M-5,53.6c0.7,1.5,4.3,6.2,4.3,6.2c2.1,2.3,5.7,1.3,10.8-1.3s8.2-7,6.7-9.7c-0.9-1.7-2.7-3.9-3.5-4.7"/>
		<polygon class="st9" points="171.1,-3.4 160.9,21.4 166.5,28.8 176.4,3.5 		"/>
		<polygon class="st9" points="118.2,45.8 145.1,35.4 158.8,53.6 131.8,64.4 		"/>
		<path class="st19" d="M18.8,111.8c6.6-11.6,16.3-27.7,23.4-34.7c18.9-18.8,52.7-17.3,74.6,5.4c16.9,17.4,23.1,42.3,13.9,60.6
			c-3.5,6.9-18.9,29.8-31.1,40.6"/>
		<path class="st19" d="M95.8,101.9c23.9,18.6,29.4,51.5,12.3,73.5C91,197.5,59.8,195.9,36,177.3c-23.9-18.6-31.5-47.1-14.4-69.2
			C38.7,86.2,71.9,83.3,95.8,101.9z"/>
		<path class="st3" d="M109.2,150.9c-1.2,4.6-3.4,9-6.4,12.9c-13.4,17.2-37.1,15-55.8,0.5s-25.1-35.8-11.8-53
			c5-6.5,11.8-10.8,19.3-13c0,0,19.8-4.2,37.6,11.8C114.3,130,109.2,150.9,109.2,150.9z"/>
		<path class="st6" d="M91,108.2c20.1,15.7,24.7,43.4,10.3,62s-40.3,16.5-60.4,0.9S14,132,28.5,113.5C42.8,94.9,70.9,92.6,91,108.2z
			"/>
		
			<ellipse transform="matrix(0.7975 -0.6033 0.6033 0.7975 -28.7352 140.3208)" class="st20" cx="194.7" cy="113" rx="5.3" ry="6.5"/>
		
			<ellipse transform="matrix(0.7975 -0.6033 0.6033 0.7975 -60.6049 12.349)" class="st20" cx="-11.9" cy="96.5" rx="4.1" ry="5.2"/>
		<path class="st21" d="M74.3,104.6c10.8,3.7,31.6,24.7,32,41.8C77,115.7,66,114.1,57,108.3C58.3,106.1,71.1,104.1,74.3,104.6z"/>
	</g>
	<g id="Prints" class="st0">
		<path class="st6" d="M81.4-42.4c26.1,31,76.5,86.4,145.1,140.1c-47.6,44.7-65.6,64.6-102.2,110.4C93.8,189.3,29,128-18.2,67.9
			C12.5,28.1,40.4-6.8,81.4-42.4z"/>
		<path class="st3" d="M43.3,70.7c-1.7,0.7-2.9,3.1-1.9,4.8c1.5,2.7,1.3,6-1.7,7.6c-2.8,1.4-6.3-0.1-8.3-2.2
			c-2.7-2.7-4.5-7-5.2-10.7c-0.3-1.9,0-6.8,3.1-5c1.7,0.9,4.1-0.4,4.7-2.1c0.8-2.1-0.3-3.8-2.1-4.7c-6.2-3.4-12.5,2.4-13.2,8.5
			c-0.7,6.6,2.9,14.8,7.6,19.3c4.4,4.3,11.3,6.4,16.9,3.4c6-3.3,8.3-10.9,5-16.8C47.1,71,45.3,69.9,43.3,70.7z"/>
		<path class="st3" d="M54.3,42.8c-3.5-2.1-7.5-2.7-11.5-3c-1-0.1-1.9,0.3-2.6,0.8c-2.5,1-4.2,3.6-4.5,6.5c-0.4,3.6,1,7,2.7,10
			c3.7,6.4,9.5,13.5,17.9,11.9c8.5-1.6,10.2-10.9,6.2-17.5C60.5,48,57.7,44.8,54.3,42.8z M43.1,47.6C42.8,46.9,43.8,47.6,43.1,47.6
			L43.1,47.6z M56.3,61.3c-3.6,2.4-7.5-2.1-9.4-4.6c-1.2-1.6-2.2-3.3-3-5.1c-0.4-0.9-0.7-1.9-0.8-2.9c0-0.2,0.1-1,0-1.1l0,0
			c0.6,0.1,1.2,0,1.6-0.3c3.3,0.5,6.3,1.5,8.8,4.3C55.2,53.4,59.9,58.9,56.3,61.3z"/>
		<path class="st3" d="M63.2,19.5C63.2,19.5,63.2,19.4,63.2,19.5c-3.7-2-7.3,1.7-8.6,4.8c-1.4,3.1-1.3,6.8-0.3,10.1
			c1.3,4,4.1,7.5,7.1,10.5c3,2.9,6.2,4.2,10.3,3.9c3.9-0.2,6.9-1.5,8.6-5.3c1.5-3.4,1.4-7.7-0.1-11.1C77.4,26.3,70.1,20.8,63.2,19.5
			z M74,37.8c0.1,0.8-0.1,1.6-0.3,2.4c-0.3,1.2-0.1,1-1.1,1.2c-2,0.3-3.7,0.4-5.2-0.9c-1.8-1.4-3.3-3.3-4.6-5.3
			c-1-1.6-1.9-3.5-2-5.5c0-0.9,0.1-1.7,0.5-2.5c0-0.1,0.2-0.4,0.4-0.6c3.5,0.6,6.7,3,9.2,5.5C72.5,33.7,73.9,35.6,74,37.8z"/>
		<path class="st3" d="M96.9,15.6c-1.6,2.6-3.3,5-5.2,7.3c-0.1,0.1-0.2,0.2-0.4,0.4l-0.1-0.1c-1.1-0.9-2.2-1.8-3.2-2.7
			c-4.4-4.2-8.5-8.8-12.8-13.1c-1.4-1.5-3.5-1.9-5.1-0.6c-1.4,1.1-2,3.7-0.6,5.1c5.5,5.6,10.8,12.1,17,17c3,2.3,6.4,3.4,9.4,0.3
			c2.5-2.8,4.8-5.9,6.8-9.2C105.3,16,99.4,11.6,96.9,15.6z"/>
		<path class="st3" d="M91.8,106.6C83,99.4,73.3,93.3,63,88.3c-1.6-0.8-3.2,0-4.3,1.1c-4.8,4.5,0.7,12.7,3.1,17.1
			c3.6,6.6,7.6,12.9,12.4,18.9c2.9,3.7,8.8-0.6,5.9-4.3c-1.8-2.2-3.4-4.5-5-6.8c1.2-2.7,3-5.1,5.1-7.3c2.4,1.7,4.8,3.6,7.1,5.4
			C90.8,115.2,95.4,109.5,91.8,106.6z M70.5,107.1c-0.1-0.3-0.4-0.6-0.5-0.9c-1.4-2.4-2.7-4.9-4-7.4c-0.1-0.3-0.3-0.6-0.4-1
			c2.9,1.6,5.7,3.2,8.5,4.9C72.7,104.1,71.5,105.5,70.5,107.1z"/>
		<path class="st3" d="M111.3,83.4c-5.5-1-10.9-0.9-16.3-0.1c0.2-7.7-2-16.8-10.6-17.6c-9.3-0.9-14.7,9.7-13.4,17.7
			c0.6,3.3,4.4,3.9,6.3,2.3c4.9,4.6,10,9,15.2,13.2c0.2,0.4,0.5,0.8,0.9,1c0.5,0.3,0.9,0.5,1.3,0.8c3.9,2.4,8.4-2.6,4.6-5.7
			c-1.7-1.4-3.4-2.8-5.2-4.2c5.3-1.1,10.7-1,16-0.2C114.8,91.5,116,84.2,111.3,83.4z M78.7,77c0.2-0.5,0.4-0.9,0.6-1.3
			c0.9-1.4,2.6-3.1,4.4-2.7c2.3,0.5,3.5,3.9,3.8,5.8c0.4,2.1,0.3,4.3,0,6.3C84.6,82.4,81.6,79.7,78.7,77z"/>
		<path class="st3" d="M106.2,37.4c-6,6.3-11.7,12.9-16.9,19.9c-2.8,3.8,2.9,8.4,5.7,4.6c1.8-2.4,3.6-4.7,5.5-6.9
			c7,6.7,14.2,13.3,21.4,19.8c3.5,3.2,8.1-2.5,4.6-5.7c-7.1-6.4-14.2-13.1-21.1-19.7c2.2-2.5,4.5-4.9,6.8-7.3
			C115.1,38.6,109.4,33.9,106.2,37.4z"/>
		<path class="st3" d="M123.7,152.4c-8.9-6.4-17.4-13.1-25.7-20.2c-3.6-3.1-8,2.8-4.3,5.9c3.4,2.9,6.8,5.7,10.3,8.5
			c-1.8,3-3.6,6-5,9.2c-3.9-3.1-7.7-6.3-11.5-9.3c-3.6-3-8,2.9-4.3,5.9c8.5,7,17.1,14,25.7,20.9c3.6,3,8-2.9,4.3-5.9
			c-2.8-2.3-5.5-4.5-8.3-6.8c1.4-3.3,3-6.4,4.9-9.5c3.2,2.4,6.4,4.8,9.6,7.1C123.2,161,127.6,155.2,123.7,152.4z"/>
		<path class="st3" d="M139.9,131.6c-1.5-1-4.2-1-5.1,0.7c-1.1,2.1-2.3,4.1-3.4,6.2c-0.7,1.2-1.4,3.3-2.4,4.6
			c-1.6-0.8-4.5-3.8-5.5-4.6c-0.2-0.2-0.4-0.4-0.7-0.6c1.2-2.1,2.5-4.1,3.7-6.2c1-1.7,0.9-3.9-0.7-5.1c-1.5-1-4.1-0.9-5.1,0.7
			c-1.1,1.9-2.2,3.7-3.4,5.6c-0.4-0.4-0.7-0.6-1.1-1c-1.5-1.5-4.8-3.7-4.9-6c-0.1-2.7,2.6-5.1,4.3-6.9c1.3-1.5,0.7-4-0.7-5.1
			c-1.8-1.3-3.7-0.7-5.1,0.7c-3.6,3.9-7,8.9-5.2,14.5c0.9,2.6,3,4.4,4.9,6.3c2.3,2.2,4.5,4.3,6.8,6.4c2.2,2,4.4,3.8,6.7,5.7
			c2,1.6,4.3,3.4,7,3.1c3.2-0.3,4.6-3.4,6-5.8l4.6-8.2C141.6,135,141.6,132.9,139.9,131.6z"/>
		<path class="st3" d="M158.8,111.9c-4.9-0.3-9.9-0.2-14.9,0.1c0.8-6.7-2.1-13.6-8.7-16.8c-9.3-4.5-18.6,7.8-15.9,16.4
			c0.7,2.5,3.2,2.8,4.9,1.7c6.4,5.4,12.8,10.8,19.2,16.2c3.6,3.1,8-2.8,4.3-5.9c-1.7-1.4-3.3-2.9-5-4.3c5-0.4,10.1-0.5,15.2-0.2
			C162.6,119.4,163.6,112.1,158.8,111.9z M128.3,103.5c1.6-2.3,3.1-2.5,5.3-0.8c3,2.4,4,6.5,2.8,10c-0.3,0.1-0.6,0.3-0.9,0.5
			c-2.9-2.4-5.8-4.9-8.7-7.4C127.3,105,127.9,104.1,128.3,103.5z"/>
		<path class="st3" d="M172.4,93.6c-2-0.9-3.8,0.3-4.7,2.1c-0.8,1.5-1.8,2.9-2.8,4.2c-0.4,0.4-0.8,1.1-1.3,1.5
			c-0.1-0.1-0.2-0.1-0.2-0.2c-0.2-0.2-0.3-0.3-0.6-0.4c-1.6-1.2-3.3-2.5-4.9-3.9c1.2-1.6,2.5-3.3,3.5-5s0.9-3.9-0.7-5.1
			c-1.5-1.1-4-0.9-5.1,0.7c-1,1.5-2.1,3.1-3.2,4.5c-0.9-0.8-1.8-1.7-2.6-2.5c-0.7-0.7-1.3-1.4-1.9-2c-0.3-0.3-0.7-0.7-0.9-1
			c-0.1-0.1-0.1-0.1-0.1-0.1c0.2-0.3,0.3-0.7,0.5-1c0.3-0.7,0.8-1.4,1.2-2c1-1.4,2-2.7,3.3-3.9c3.4-3.1-1-9-4.5-5.8
			c-3.3,3-7.8,8-8,12.7c-0.1,2.9,2.2,5,4,6.9c2,2.1,4.2,4.1,6.4,6.1c2.1,1.8,4.3,3.6,6.4,5.4c1.9,1.6,4,3.5,6.5,3.9
			c5.6,0.7,9.5-6.3,11.7-10.4C175.3,96.6,174,94.3,172.4,93.6z"/>
		<path class="st3" d="M172.3,76.1c-6-5.4-11.8-10.8-17.5-16.3c-1.4-1.4-4-0.7-5.1,0.7c-1.3,1.8-0.7,3.7,0.7,5.1
			c5.8,5.5,11.7,11,17.5,16.3C171.4,85.2,175.7,79.2,172.3,76.1z"/>
		<path class="st3" d="M183.3,84.5c-1.4-1.1-3.5-1.2-5-0.2c-1.2,0.5-2.1,1.5-2.6,2.7s-0.3,2.6,0.5,3.6c0.9,1.1,2.2,2,3.7,2
			c1.2,0,2.2-0.2,3.2-0.8c0.7-0.5,1.2-1.2,1.6-2C185.4,87.9,184.8,85.7,183.3,84.5z"/>
	</g>
	<g id="Clothing" class="st0">
		<path class="st6" d="M17.7,80.8c15.3,16.8,31.6,36.2,46.4,55c14.7,18.8,35.3,51.6,37.8,55.1s4.7,9.5,8.9,11.3s34-6.3,63.4-30.2
			c29.4-23.8,45.1-51.2,42.3-57.9c-2.1-5.1-10.4-13-13.9-16.5c-10.5-10.5-28.6-30.6-41.9-46c-7.9-9.2-20.9-25-39.6-52.1"/>
		<path class="st6" d="M142.6,29.5c4.7-3.7,25.5-27.1,21.1-33.9s-43-34.4-51.2-37.4c-17.3-6.5-42.6,6.3-53.8,14.9
			C57-24.3,77.8-7.8,54.6,10.4c-26.4,20.7-39.5-1.6-43.8,1.7C4.7,16.8-17.5,39.8-18,58.8c2.5,19.6,14.8,52.7,22.2,62.9
			c4.5,5.8,30.6-8,37-13.6"/>
		<path class="st9" d="M3.7,17.6c6.2,7.1,31.6,23.4,57.2,2.6c25.7-20.8,12.6-44,5.8-52.1"/>
		<path class="st9" d="M96.5,104.1c-6.3,1.9-13.2,0.4-18.9-2.9s-10-8.4-13.4-14.1c-2.7-4.6-4.9-9.6-5.1-15
			c-0.2-6.3,2.5-12.4,5.6-17.9c3.4-6.2,8.2-10.9,13.7-15.3c5.6-4.4,12-8.3,19-7.5c5.9,0.7,11.2,4,16,7.6c5.3,4.1,10.1,8.8,13.1,14.8
			c3,5.9,4,13.1,1.5,19.3c-0.4,1.1-1,2.2-0.8,3.4c0.1,1,0.8,1.9,1.5,2.7c2.6,3.2,5.1,6.5,7.9,9.7c1.9,2.2,1.6,4.4,1,5.9
			c-3.8,9.4-11.7,17.8-20.9,22.4C107,122,107.6,117.3,96.5,104.1z"/>
		<path class="st9" d="M83.1,63.4c-1.8,7.7-2.1,15.8-0.6,23.5"/>
		<path class="st9" d="M71.3,73.4c7,0.5,13.9,1.7,20.7,3.5"/>
		<path class="st9" d="M91.5,57.6c7.9-0.5,15.8,0.6,23.2,3.3"/>
		<path class="st9" d="M103.3,47.6c-0.7,7-0.7,14-0.1,21"/>
		<path class="st9" d="M108.1,100c3.6,4.6,7.2,9.2,10.8,13.8"/>
		<path class="st9" d="M120,87.5c4.5,4.9,8.7,10,12.7,15.3"/>
		<path class="st6" d="M10.8,12.1c8.3-7.3,12.7-6.6,27.8-18.2C51-15.6,49.9-20.4,58.8-26.9"/>
	</g>
	<g id="Objects" class="st0">
		<path class="st22" d="M38.1,10.2c-61.8,35.7-52.5,113.4-32,138.1c22.4,27.1,59.6,47.1,85,42.5c17.9-3.3,53.9-20.3,81.1-48
			c27.2-27.8,61.1-91,31.3-124.7C175.7-13.3,99.8-25.3,38.1,10.2z"/>
		
			<ellipse transform="matrix(0.7866 -0.6175 0.6175 0.7866 -32.0676 78.7501)" class="st23" cx="97.9" cy="85.8" rx="28.9" ry="28.7"/>
		
			<ellipse transform="matrix(0.7866 -0.6175 0.6175 0.7866 -73.7408 54.5823)" class="st23" cx="42.1" cy="134" rx="21.2" ry="27.4"/>
		
			<ellipse transform="matrix(0.7866 -0.6175 0.6175 0.7866 -34.6676 84.4128)" class="st24" cx="104.8" cy="92.4" rx="14.2" ry="14.3"/>
		
			<ellipse transform="matrix(0.7866 -0.6175 0.6175 0.7866 -77.1725 58.658)" class="st25" cx="46.3" cy="141" rx="12.9" ry="13.9"/>
		<path class="st9" d="M12,64.5c0.7-0.9,1.8-1.6,3-1.9c0.9-0.2,2-0.1,3-0.1c3.7,0,7.2-1.1,10.4-3.1"/>
		<path class="st9" d="M65.2,7.8c0.5,1.4,2.1,2.2,3.5,1.8c1.3-0.4,2.3-1.9,2-3.3"/>
		<path class="st9" d="M80.4,181.1c4.8-0.8,9.9-0.6,14.7,0.5"/>
		<path class="st9" d="M173.8,83.3c-2-1.5-2.5-4.5-1.7-6.9s2.6-4.3,4.2-6.2c-0.1-1-0.2-2-0.1-3"/>
		<path class="st9" d="M192.4,34.2c-1.2-1.1-1.7-2.8-1.4-4.4c0.1-0.7,0.3-1.2,0.3-1.9c-0.2-1.7-2.2-2.5-4-2.8"/>
		<path class="st9" d="M105.9,18.6c7.4,0,14.7-2.2,21.8-4.5"/>
		<path class="st9" d="M125.3,32.7c2.1,1,4.8-0.8,6.7,0.4c0.8,0.7,1.3,1.8,2,2.6c1.3,1.5,3.6,1.9,5.5,1.2c1.9-0.6,3.5-2,5-3.3"/>
		<path class="st9" d="M31.2,27.1c0.4-1.4,0.8-3,1.3-4.4"/>
		<path class="st9" d="M4.6,99.1c-0.2,2-2,3.5-3.9,4.1c-1.8,0.6-3.9,0.4-5.9,0.3"/>
		<path class="st9" d="M40,176.4c2,0.6,4.2,1.3,6.2,0.6c1.2-0.4,2.2-1.3,3.4-1.9c1.1-0.6,2.6-0.9,3.6-0.2"/>
		<path class="st9" d="M176.4,127.6c3.8,0,7.5-1,10.8-2.8"/>
		<path class="st9" d="M125.3,128.2c3.2-0.3,6.8-0.7,8.7-3.3c0.5-0.7,1.1-1.7,1.9-1.9"/>
	</g>
	<g id="Toys" class="st0">
		<path class="st6" d="M60.3,8.1c-0.4-0.5-0.7-1-0.7-1.6s0.3-1.2,0.6-1.8c3.2-6,1.1-14-4.1-18.4S43.4-19,36.9-17.1
			c-5.6,1.8-10.6,5.8-13.4,11s-3,11.8-0.5,17.2s7.8,9.5,13.6,10.2c0.9,0.2,1.9,0.2,2.7,0.6c0.7,0.4,1.3,1.1,1.8,1.7
			c0.9,1.2,1.9,2.3,2.7,3.3c0.6,0.8,1.3,1.6,2.2,2c1.4,0.5,3-0.1,4.3-0.6c3.2-1.4,6.3-2.8,9.1-5c2.2-1.6,4.8-4.8,5.8-7.4
			C66.2,13.7,63.6,12,60.3,8.1z"/>
		<path class="st6" d="M51,29.2c1.2,3.1,1.3,5.3-0.7,8"/>
		<path class="st6" d="M64.8,17.6c1.5,3,5,3.5,8,2"/>
		<path class="st6" d="M74.1,16.4c-0.3,1.3-0.3,2.7-0.1,4.1c0.7,6.2,2.5,12.2,5.4,17.7c0.5,0.9,1.1,1.9,1.3,2.9
			c0.8,3.7-2.4,7.1-5.4,9.5c-1.2,1-2.7,2.1-4.2,1.6c-0.8-0.3-1.4-0.8-2-1.4c-5.4-5.3-11.6-9.9-18.3-13.4c-0.9-0.5-2-1-3-1
			s-2,0.4-2.9,0.9c-3.4,2.1-5.7,5.9-6,10c9.2,2.8,17.2,8.2,24.8,14.1c4.1,3.3,8.1,6.9,10.1,11.7c1.9,4.8,1.1,11.2-3.2,14.1
			c3.5,2.8,6.7,4.3,10.4,5.6c0.6,0.2,2.7,0.9,4.7-2.4c2.2-2.5,3.6-5.8,3.7-9.1c0.2-3.3-0.7-6.8,0.9-9.7c1.3-2.4,3.9-3.6,6.6-4.2
			c2.6-0.5,5.3-0.3,8-0.6c5.5-0.4,10.8-2.4,15.1-5.7c0.7-0.5,1.4-1.1,1.6-1.8c0.4-0.9,0.4-1.9,0.1-2.9c-0.5-2.9-1.7-5.7-3.4-8.1
			c-3.4,5.5-11.9,5.8-17.1,2c-5.3-3.8-7.9-11.1-10-17.2c-2.4-7.3-4.4-14.8-3.4-24.9C82.9,7.9,75,12.3,74.1,16.4z"/>
		<path class="st6" d="M87.3,10.4c0.4-4.4,2.8-8.1,7-10.9c3.7-2.4,7.4-1.3,10.7,0c4.3,1.7,7.9,3.8,9.7,7.3c0.3,0.5,1,1.5,1.4,1.8
			c0.5,0.2,1-0.2,1.7-0.3c3.9-0.9,7.1-0.7,10.3,0.6c3.2,1.3,5.8,2.9,8,5.5c0.6,0.8,1.3,1.5,2.1,2c0.6,0.3,1.2,0.5,1.9,0.6
			c3.7-0.5,7.6,0.2,12.1,2.3"/>
		<path class="st6" d="M161.2,43.1c-4.4,0.8-8,0.6-13.9-1.4c-4.4-1.5-8.2-4.2-11.8-7.2c-0.4-0.4-0.9-0.7-1.4-0.9
			c-0.5-0.2-1-0.1-1.5,0c-8.1,0.8-16.5-1.3-23.4-5.8c4.5,6.4,7.2,15,6.3,22.3"/>
		<path class="st6" d="M71.5,85.5c-7.9-1.3-15.1-5.3-21.8-9.9c2.4,3.4,4,7.5,4.2,11.7c0.2,4.2-1,8.5-3.7,11.7
			c4.1,6.8,4.1,16.9-6.7,26.5"/>
		<path class="st6" d="M29.5,95.4C27,89.5,29,82,30.8,80c-4.1-4.1-6.2-10.4-4.8-16c1.4-5.7,5.4-10.5,10.9-11.3
			c0.5-2.3,1.4-3.1,2.8-4.3"/>
		<path class="st6" d="M118.3,65.8c-8,10.7-19.3,18.5-31,25.2c-1.2,0.6-2.5,1.5-2.8,2.9c-0.2,1,0.4,2,0.9,2.9
			c1.6,2.7,3.4,5.3,5.4,7.7c0.4,0.5,1,1.1,1.6,1.5c2.2,1.1,4.6-0.8,6.7-1.9c5.5-2.8,12.4-0.7,17,3.5c1.5,1.3,2.9,3,4.9,3.5
			c3.4,1,6.9-1.6,9.5-4.1c0.7-0.7,1.3-1.3,1.7-2.2c1.1-2.5-1-5.1-2.4-7.5c-3.7-6.1-3.5-14.3,0.5-20.2c0.7-1,1.5-2,1.5-3.3
			c0-0.6-0.2-1.1-0.5-1.8c-1.3-2.8-4.2-5.8-6.7-7.4C122.3,63.2,120.7,62.7,118.3,65.8z"/>
		<path class="st9" d="M126.1,66.3c-0.6,2.6-2.8,4.6-4.4,6.8c-2,2.6-3.2,5.7-3.4,9c-0.2,2.1,0.1,4.4-0.7,6.4
			c-0.5,1.4-1.7,2.5-2.8,3.5c-2,1.7-4.4,3.3-7.1,3.3c-2.7-0.1-5.3-1.7-7.9-1.4c-2.4,0.3-4.4,1.9-6.3,3.4s-3.9,2.7-6.3,2"/>
		<path class="st6" d="M131.9,73.7c9.1-3.1,19.8-0.7,26.8,5.8c4.2,3.9,7.2,9.3,12.1,12.2c4.5,2.6,9.9,3,14.8,4.7
			c5.8,1.9,10.8,5.7,14.4,10.6c2.4,3.3,4.1,7.1,6.3,10.5c2.3,3.5,5.2,6.6,9.2,7.8c3.9,1.2,9,0.6,11.2,4c0.5,0.9,0.8,2,0.9,3
			c0.2,3.6-1.4,7.4-4.3,9.6c-2.8,2.2-6.9,2.9-10.4,1.8c-4.3-1.4-7.3-5.2-11-7.8c-3.3-2.2-7.1-3.5-10.9-4.8
			c-8.2-2.8-16.8-6-22.5-12.6c-2.6-3.1-4.7-6.8-8.3-8.7c-3.5-1.9-7.5-1.6-11.4-2c-5.6-0.4-11-2.2-15.8-5"/>
		<path class="st6" d="M121.9,112.3c2.4,4.3,1.7,9.5,1.4,14.3c-0.3,4.9-0.1,10.4,3.4,13.7c1.3,1.2,2.8,2,4.3,2.9
			c6.4,4.1,11.1,10.9,12.6,18.5c0.9,4.5,1,9.8,4.7,12.7c1.1,0.8,2.4,1.3,3.4,2.2c3.4,3.1,1.4,8.8-0.7,12.9
			c-1.8,3.5-2.3,7.2-4.8,10.3c-1.3,1.8-3.1,3.3-5.2,4.2c-2.1,0.9-5.5,0.4-6.8-1.3c-2.3-3.2,1-7.2,1.7-11c1-5.9-4.4-10.7-9-14.6
			c-5.1-4.3-9.9-9.3-12.3-15.5c-0.9-2.3-1.5-4.8-2.9-6.9c-1.3-1.9-3.2-3.3-5-4.8c-12.3-10.5-17.3-27.4-12.3-42.8"/>
		<path class="st9" d="M176.5,123.8c9-3.5,18.1-14.8,14-24.6"/>
		<path class="st26" d="M182.9,128c9-3.5,18.1-14.8,14-24.6"/>
		<path class="st9" d="M118.1,166c8-2.7,17.3-9,17.7-17.7"/>
		<path class="st26" d="M122.7,171.7c8-2.7,17.3-9,17.7-17.7"/>
		<path class="st6" d="M191.4,42c4.1,11.9,4.5,20.1-0.1,22.4c-9.1,4.4-21.7-8.5-31-27.9c-10.8-22.4-11.9-37.8-5.2-41
			c5.1-2.5,13.9,4.6,22.1,16.9"/>
		<path class="st6" d="M188.7,25c4,8.2,5.8,15.3,3,16.7c-3.9,1.9-9.2-3.5-13.2-11.7c-4.5-9.4-5-15.9-2.2-17.3
			C179.1,11.3,184.7,16.8,188.7,25z"/>
		<path class="st9" d="M193.1,61.8c-8.4-0.7-18.6-12.4-26.5-28.7c-8.6-17.8-11.1-31.2-8.4-37.5"/>
		<g class="st3">
			<g>
				
					<ellipse id="XMLID_00000035512170180265652930000011673928177780478130_" transform="matrix(0.8648 -0.5022 0.5022 0.8648 -62.0047 38.2859)" class="st27" cx="40.1" cy="134.3" rx="5.8" ry="4"/>
			</g>
		</g>
		<path class="st6" d="M29.8,116.5c1.7-1.3,3.4-2.9,3.7-5c3.6,1,5.7,4.6,7.5,7.9c0.6,1.1,1.2,2.2,1.4,3.3c0.3,1.8-0.2,3.7-1.2,5.1
			s-2.4,2.7-4,3.6c-1.5,0.9-3.2,1.7-4.9,1.7c-2.2,0-4.3-1.3-5.7-3c-1.5-1.7-2.4-3.7-3.4-5.7c-0.4-1-1-2-1-3c-0.2-1.1,0-2.2,0.7-3
			C24.8,120.2,28.1,117.9,29.8,116.5z"/>
		<path class="st26" d="M29.9,123.1c3.2-1.3,6.9-3.9,7-7.5"/>
		<path class="st26" d="M32.4,126.5c3.2-1.3,6.9-3.9,7-7.5"/>
		<path class="st26" d="M39.3,96.2c1.2,0,1.4-0.1,3.4,0.6"/>
		<path class="st26" d="M34.8,74.7c2-0.8,4.2-0.6,6.2,0.3"/>
		<path class="st26" d="M38.4,54.2c-0.8,7.9,5.2,17.1,12.5,22.3"/>
		<path class="st26" d="M111.4,115.4c-0.1,2.6,0.2,5.2,0.7,7.8"/>
		<path class="st26" d="M111.3,153.4c2.9,1.5,4.7,0.1,6.8-1.4"/>
		<path class="st26" d="M172,108.9c2.9-1.2,4.9-4.4,4.7-7.5"/>
		<path class="st26" d="M140.5,94.3c2.9,0.5,5.7,1.1,8.5,2.1"/>
		<path class="st26" d="M136.4,22.1c-1,2.5-1.4,5.4-1,8"/>
		<path class="st26" d="M117.2,13.7c-1.7,1.8-2.7,4.2-2.7,6.7"/>
		<path class="st28" d="M89.5,10.4c1.7,10.6,11.9,16.4,19.4,17"/>
		<path class="st26" d="M55.8,71.1c1.5,0.5,2.9,0.9,4.3,1.3c1,0.3,2.1,0.6,3.3,0.5c2.9-0.1,5.4-2,7.3-4.3"/>
		<path class="st26" d="M98.5,46.1c3-2.7,4.1-7.2,2.6-11"/>
		<path class="st26" d="M75.1,46.9c-7-7.4-9.4-11.9-8.5-14.8"/>
		<path class="st26" d="M74.9,46.9c-5.7-6.7-10.3-10.6-13.3-9.9"/>
		<path class="st9" d="M21.5,97.5l2.1-6.6c0,0-27.8-41.5-29.2-43.7c-1.5-2.1-14.7-7.1-16.9-5.5c-1.8,1.3-3.2,14.2-1.1,17.4
			c3.9,6,29.9,43.7,29.9,43.7l6.3,1.1"/>
		<line class="st26" x1="-22.2" y1="42.2" x2="15.5" y2="97.9"/>
		<circle class="st9" cx="21.1" cy="105.8" r="7.6"/>
		<circle class="st29" cx="21.1" cy="105.8" r="2.2"/>
		<path class="st9" d="M12.8,109.1c-2.4,1.4-5.1,2.8-7.9,2.8c-2.8,0-5.5-1.1-7.6-2.9c-1.6,1.3,1.1,5.2,2.6,7.2
			c1.2,1.6,2.5,2.9,4.5,3.6c2.6,0.8,5.9-0.5,8.3-1.8c2.4-1.4,4.2-2.6,5.8-3.7"/>
		<path class="st9" d="M27.6,98.7c2.2-1.6,4.4-3.7,5.5-6.3c1-2.6,1-5.5,0.1-8.2c1.8-1,4.4,2.9,5.7,5c1.1,1.7,1.9,3.5,1.7,5.4
			c-0.2,2.7-2.6,5.3-4.8,7c-2.1,1.8-4,3-5.5,4"/>
		<line class="st9" x1="21.3" y1="114.6" x2="23.8" y2="118.2"/>
		<line class="st9" x1="29.5" y1="108.1" x2="32.2" y2="112"/>
		<path class="st26" d="M23.3,3.3c7.2-1,13.7-5.1,19.8-9.2c3.9-2.6,7.6-5.3,10.9-8.8"/>
		<path class="st29" d="M39.6-2.5c1,2,2.2,4,3.9,5.4c1.7,1.4,4.3,2,6.2,0.8c1.5-1,2.3-2.9,2.2-4.8c-0.1-1.9-1-3.5-2-5
			c-0.6-0.9-1.3-1.7-2.2-2.2L39.6-2.5z"/>
		<path class="st26" d="M36.3,3.2c-0.7,3-1.1,6-1.1,9.1"/>
		<path class="st26" d="M31.4,7.1c3.3,0.2,6.3,0.3,9.3,1.7"/>
		<path class="st26" d="M48.1,19.7c1.3,2.1,3.4,4.6,5,6.4"/>
		<path class="st26" d="M54.7,15.9c1.1,1.7,2.4,3.3,3.7,4.9"/>
		<path class="st6" d="M33.1,105c-0.5,1.3-0.4,2.2-0.6,4.2"/>
	</g>
	<g id="Digital_Stuff" class="st0">
		<g id="Layer_15" class="st3">
			<path class="st5" d="M147.6-1.5c7.9-1.8,19.6,5.1,52.5,47.5c29.5,38,34.2,49.5,35.3,57.1c2.8,20.3-24.3,44.2-96.7,98.6
				c-21.1,15.9-31.2,22.4-37.6,20.6c-8.5-2.3-22.3-16.1-48.5-47.9c-21.4-25.9-32.5-40.9-34.4-52.9c-2.3-14.7,39-57.5,47.5-65.6
				C75.1,47.1,133.5,1.7,147.6-1.5z"/>
			<path class="st5" d="M149.7,11c9.1,0.1,20.9,14.1,43,42.2c21.1,26.9,31,42.9,31.3,51.1c0.2,9.4-2.3,16.5-31.8,42.3
				c-19.7,17.2-31.6,26.9-41.6,28.1c-10.8,1.3-22.5-12-52.5-48.9C72.5,94.3,68.4,87.9,68.3,77.5c-0.1-9.2,8.8-16.7,37.1-38.3
				C136.2,15.5,144.3,10.9,149.7,11z"/>
			<path class="st30" d="M50.7,72.3c-6.6,6.9-10.5,12.8-11.6,20.2C38.6,96,39,99.6,39.9,103c1.9,6.8,6,12.7,10.1,18.5
				c14.5,20.3,29.8,40.3,46.4,59.1c9.8,11.1,17.1,17.9,21.2,19.6c2.5,1,5.3,1.4,8,1.4c7.5,0.1,14.1-1.9,21.9-7.7"/>
			<path class="st31" d="M79,83.2c0.7,4.6,3.5,8.5,6.3,12.3c9.8,13.5,18.4,23.4,28.7,36.5c6.4,8.1,14.3,17.2,21.7,24.4
				s13,7,16.9,5.8c8.5-2.5,32.9-24.1,37-27.6c24.4-21.2,25.6-30,5.6-56c-8.4-10.9-32.2-40.1-36.3-43.5c-4.1-3.3-7.4-5.9-12.8-6.1
				c-6.6-0.1-11.6,2.4-17.4,6.2c-10.7,7.1-20.1,14-30.6,22.6C87.2,66.7,77.2,72.8,79,83.2z"/>
			<polygon class="st32" points="112.6,77.8 105.6,83.7 144.9,130.7 151.8,124.5 			"/>
			<polygon class="st32" points="140,54.9 133,60.9 172.3,107.8 179.1,101.7 			"/>
			<polygon class="st33" points="177.3,119.1 162.9,131 168,137 182.2,125.1 			"/>
			<path class="st30" d="M48.1,105.2c4.2,5.4,8.3,10.7,12.5,16"/>
			<path class="st30" d="M52.3,100.5c2.7,3.4,5.3,6.7,8,10"/>
			<path class="st30" d="M57,96.1c1.4,1.8,2.8,3.5,4.1,5.2"/>
			<path class="st30" d="M150.5,23.6c0.2-1.8,0.2-3.5,0.2-5.4"/>
			<path class="st30" d="M214.5,107.2c1.6,0.1,1.9,0.4,3.5,0.4"/>
		</g>
		<g id="Layer_16" class="st3">
			<path class="st5" d="M41.8,47.3c-2.6-10.2-6.1-21-10.9-32.5C45.6-2,61-17.5,77.2-33.8c1.3-1.4,3.6-0.7,4,1.1
				c2.9,11,5,21,6.6,32.2c0.3,2.2-0.4,4.2-1.9,5.8c-13.5,14-26.8,28.1-40.4,42c-2,2.1-5.3,1.9-7.2-0.2C29.1,36.8,19.6,26.7,9.6,17
				c-1.4-1.3-1.5-3.4-0.3-4.9c3-4,6.4-7.5,9.7-11.3c3.1-3.5,5.6-0.8,6.3,0c9.5-10.9,19-20.7,29.3-31c1.4-1.4,3.3-2.2,5-1
				c2.6,1.7,4.2,3.6,6.7,6"/>
		</g>
	</g>
	<g id="Illustration" class="st0">
		<path class="st34" d="M-30.4,61.8c8.8,9.6,17.6,19.2,26.5,28.8"/>
		<path class="st34" d="M-7,40.2c8.9,8.7,17.6,17.7,26.1,26.9"/>
		<path class="st34" d="M-6.8,127.4c8,9.9,22.1,14,34.6,11.3c12.5-2.8,23.1-11.6,29.7-22.6c9.2-15.6,9.7-37.5-2.9-50.6
			c0.2-0.8,1.7,0.4,0.8,0.8"/>
		<g class="st3">
			<g>
				<path id="XMLID_00000001630386699626138990000006594000924267428267_" class="st35" d="M98.6,89.1c-8.4-1.3-15.3-1.1-20.5-6.8
					c-4-4.3-4.7-6-9-10c-1.1-1-6.5-2.7-9.4-3.6c-3.4-1-12.1-2.9-10.1-12.6c1.3-6.4,8.2-7.5,12.4-6.8c7.5,1.3,10.1,1,16.5-1
					c3.7-1.2,3.8-2.4,7.6-3c4.2-0.6,13.5,0.4,17.6,1.4"/>
			</g>
		</g>
		<g class="st3">
			<g>
				<path id="XMLID_00000155111931581208008370000005886672226985888921_" class="st5" d="M238.5,113.3L98,88.8
					c-6.5-0.7-10.9-10.8-9.7-22.5c1.2-11.7,7.5-20.6,13.9-20l140.5,24.5"/>
			</g>
		</g>
		<g class="st3">
			<g>
				
					<ellipse id="XMLID_00000062173956560616398320000003949754021253070506_" transform="matrix(0.1009 -0.9949 0.9949 0.1009 124.6579 322.1245)" class="st36" cx="240.6" cy="92.1" rx="21.4" ry="11.9"/>
			</g>
		</g>
		<path class="st37" d="M216.9,109.6c-6.5-0.7-10.9-10.8-9.7-22.5s7.5-20.6,13.9-20l-18-3.7c-6.5-0.7-12.8,8.3-13.9,20
			s3.1,21.9,9.7,22.5L216.9,109.6z"/>
		<path class="st37" d="M128,94.6c-6.5-0.7-10.5-9.6-9.3-21.3s7.7-21.4,14.3-20.7l-14.3-2.8c-6.5-0.7-12.8,8.3-13.9,20
			c-1.2,11.8,3.1,21.9,9.7,22.5L128,94.6z"/>
	</g>
	<g id="About" class="st0">
		<path class="st38" d="M38.4,74c1.5,4.8,5.1,8.9,9.4,11.7c1.8,1.2,3.8,2.2,5.9,2.7c7.2,1.9,15.4-2.3,18.4-9.2
			c3-6.8,0.8-15.5-5-20.3C55.6,49.2,33.1,56.7,38.4,74z"/>
		<path class="st39" d="M62.1,26c11,7.8,22,15.7,33.1,23.6"/>
		<path class="st39" d="M77.2,3.4c11.8,8.2,23.7,16.5,35.5,24.7"/>
		<path class="st39" d="M82.6,35.9c3.1-5.4,6.6-10.6,10.4-15.5"/>
		<path class="st40" d="M83.7,120.2c12.5,8.2,24.9,16.3,37.3,24.4"/>
		<path class="st39" d="M99.5,95.5c13.1,8.8,26.3,17.4,39.4,26.2"/>
		<path class="st39" d="M107.8,129.1c2.9-5,5.8-10,8.7-15"/>
		<path class="st39" d="M126.1,58.3c-3.5,5.2-7,10.3-10.5,15.5c-0.4,0.6-0.8,1.4-0.6,2.1c0.2,0.5,0.7,0.9,1.1,1.2
			c11.9,8,23.7,16,35.5,23.9c3.9-5.7,8-11.4,12-17.2"/>
		<path class="st39" d="M136.7,85.3c2.1-2.9,4.1-5.8,6.1-8.7"/>
		<path class="st39" d="M136.9,42.5c8.2-0.5,16.3-1.8,24.2-3.9"/>
		<path class="st39" d="M153.8,18.2c8.8,15,16.6,30.5,23.3,46.6"/>
		<path class="st41" d="M36.8,133.2c-33.6-29-33.6-58.9-26.5-86.6c4.5-17.4,14.6-32.3,25.9-45.7C41.8-5.7,47.6-12,54.3-17.4
			c25-20.2,61.4-26.4,91.8-10.4c9.1,4.8,19.2,10.5,27.4,17c5.6,4.5,14.3,13,18.6,18.8c11.7,13.3,22.8,30.7,23.5,48.5
			s-2.7,31.7-12,48.9c-13.4,24.3-50.7,67.4-84.7,69.4c-18.2,1.4-38.7-5.1-51.7-16.7c-15.2,10.4-25.3,16.5-33.1,20.8
			c-1.7,0.9-3.7-0.6-3.4-2.6C33.3,159.6,34.5,153.3,36.8,133.2z"/>
	</g>
	<g id="Shop" class="st0">
		<path class="st42" d="M243.1,71.4c2,2.9,2.1,11.7-2.9,15.5l-166,130.3c-9.4,7.3-11.2,4.2-16.6-2.7L9.2,152.8
			c-3.1-4.2-1.5-10.1,0.7-15.1"/>
		<path class="st19" d="M241.5,76.1L69.9,210.8c-1.8,1.4-4.6,1.2-6-0.7l-53.4-68c-1.4-1.8-1.2-4.6,0.7-6L182.8,1.3
			c1.8-1.4,4.6-1.2,6,0.7l53.4,68C243.7,71.9,243.4,74.6,241.5,76.1z"/>
		<path class="st6" d="M44.7,9.3c-0.7,2.5-0.3,6.6,2.6,9c2.4,1.9,6,2.3,8.5,0.5c0.9-0.6,2.2-1.8,2.8-2.7c0.7-1,2.4-3.4,1.5-7.4"/>
		<path class="st19" d="M47.7,16.4c2.4,1.9,6,2.3,8.5,0.5c0.9-0.6,2.2-1.8,2.8-2.7c0.7-1,2.2-3.4,0.9-6.6
			C54.7-5.2,37.6,8.1,47.7,16.4z"/>
		<line class="st9" x1="47.2" y1="20.7" x2="36.1" y2="115.3"/>
		<line class="st9" x1="62.5" y1="10.8" x2="152.9" y2="23.5"/>
		<path class="st38" d="M48.4,148.8c0.3,6.2,3.2,12,6.8,17.1c1.8,2.6,3.9,5,6.7,6.6c3.6,2,8.1,2.1,12,1c9.7-2.8,16.5-13.8,13.6-23.5
			c-2-6.6-11.5-18.6-20-20C56,128,47.9,138.8,48.4,148.8z"/>
		<path class="st38" d="M114.7,143.5c-8.8-10-17.7-20-26.5-29.9c-0.6-0.6-1.2-1.4-1.4-2.3c-0.3-1.3,0.3-2.6,0.8-3.8
			c3.1-6,8.7-11.5,15.4-11.2c6.4,0.2,11.8,6.2,12.4,12.5c0.6,6.4-2.7,12.7-7.6,16.8"/>
		<path class="st38" d="M140.9,66.7c-4,2.5-6.4,5.2-9.6,8c-1.7,1.5-3.5,3.3-3.9,5.5c-0.5,2.5,0.9,5.1,2.3,7.3
			c6.1,9.4,12.5,18.6,19.4,27.6c0.4,0.5,0.9,1.2,1.6,1.3c1,0.2,1.9-0.5,2.7-1.2c4.8-4.6,9.7-9.3,14.5-13.9"/>
		<path class="st38" d="M148.6,89.4c-2.8,2.4-5.4,4.8-7.6,7.3"/>
		<path class="st38" d="M184.2,87.2C175.1,75.5,156.7,52,161,50.3c16.2,6.2,29.8,17.6,46.3,22.9c4.2-2.4-1.7-9.5-4.6-12.9
			c-7.5-9.2-14.9-18.4-22.4-27.6"/>
	</g>
	<g id="All" class="st0">
		<g id="Layer_8" class="st3">
			<g id="Layer_5_copy_6">
				<g>
					<g>
						<path id="XMLID_00000026851119032004426630000013762290967966517683_" class="st43" d="M24.6,119.2c-4.2-0.6-7.8-0.6-10.3-3.4
							c-2-2.1-2.3-3-4.5-5.1c-0.6-0.5-3.3-1.4-4.7-1.8c-1.7-0.5-6.1-1.5-5.1-6.4c0.6-3.2,4.1-3.8,6.3-3.4c3.8,0.6,5.1,0.5,8.3-0.5
							c1.8-0.6,1.9-1.2,3.9-1.5c2.2-0.3,6.8,0.1,8.9,0.7"/>
					</g>
				</g>
				<g>
					<g>
						<path id="XMLID_00000136372431126472163560000015328398838871835818_" class="st43" d="M95.3,131.5l-70.9-12.3
							c-3.3-0.3-5.5-5.4-4.9-11.4c0.6-5.9,3.8-10.4,7-10.1L97.4,110"/>
					</g>
				</g>
				<g>
					<g>
						
							<ellipse id="XMLID_00000113331846856018391970000002562043483581015694_" transform="matrix(0.1009 -0.9949 0.9949 0.1009 -33.4966 204.4127)" class="st44" cx="96.3" cy="120.7" rx="10.8" ry="6"/>
					</g>
				</g>
				<path class="st45" d="M84.4,129.6c-3.3-0.3-5.5-5.4-4.9-11.4c0.6-5.9,3.8-10.4,7-10.1l-9.1-1.8c-3.3-0.3-6.5,4.2-7,10.1
					c-0.6,5.9,1.6,11,4.9,11.4L84.4,129.6z"/>
				<path class="st45" d="M39.5,122c-3.3-0.3-5.3-4.8-4.7-10.8c0.6-5.9,3.9-10.8,7.2-10.5l-7.3-1.4c-3.3-0.3-6.5,4.2-7,10.1
					c-0.6,5.9,1.6,11,4.9,11.4L39.5,122z"/>
			</g>
			<g id="Layer_5_copy_7">
				<g>
					<g>
						<path id="XMLID_00000052076666957195030280000006744017234170423958_" class="st43" d="M8.2,80.2c-2-1-5.9-3.5-7.4-5.1
							c-1.4-1.5-0.9-2-2-3.6c-1.9-2.8-2.7-3.8-6.2-5.7c-1.9-1-4.2-3.7-2.7-6.6c2.3-4.4,6.3-2.4,7.9-1.7c1.4,0.5,4.1,1.6,4.8,1.6
							c3-0.3,3.8-0.7,6.7-1.1c3.8-0.6,6.5,1.7,10.2,3.9"/>
					</g>
				</g>
				<g>
					<g>
						<path id="XMLID_00000078040448630111126650000002954490102820431250_" class="st43" d="M70.3,115L7.4,80
							C4.7,78.2,5,72.7,8.3,67.7c3.3-5,8.2-7.6,10.9-5.7l62.9,35"/>
					</g>
				</g>
				<g>
					<g>
						
							<ellipse id="XMLID_00000061442076935462725120000008361617191682144680_" transform="matrix(0.548 -0.8365 0.8365 0.548 -54.0039 111.5754)" class="st46" cx="76.2" cy="105.8" rx="10.8" ry="6"/>
					</g>
				</g>
				<path class="st45" d="M64.3,87.2c-2.8-1.9-7.7,0.8-10.9,5.7c-3.3,5-3.7,10.5-0.9,12.3l8.3,4.2c-2.7-1.8-2.4-7.3,0.9-12.3
					s8.2-7.6,10.9-5.7L64.3,87.2z"/>
				<path class="st45" d="M26.8,65.8c-2.8-1.9-7.7,0.8-10.9,5.7c-3.3,5-3.7,10.5-0.9,12.3l6.5,3.4c-2.8-1.9-2.2-7.7,1-12.7
					c3.2-4.9,7.6-7.2,10.4-5.4L26.8,65.8z"/>
			</g>
			<g id="Layer_5_copy_10">
				<g>
					<g>
						<path id="XMLID_00000092430902315439580300000001288642352838729088_" class="st43" d="M103.5-4.4c-1.1-1.9-3.1-6.1-3.5-8.2
							c-0.3-1.9,0.3-2.2,0.3-4.1c0-3.4-0.3-4.7-2.2-8.1c-1.1-1.9-1.6-5.4,1.3-7c4.4-2.5,6.6,1.4,7.7,2.8c0.9,1.3,2.6,3.6,3.2,3.9
							c2.7,1.4,3.6,1.5,6.2,2.7c3.6,1.6,4.6,5,6.6,8.8"/>
					</g>
				</g>
				<g>
					<g>
						<path id="XMLID_00000046341629099129139760000018364538508219863974_" class="st43" d="M137.1,58.3L103-5.1
							c-1.3-3,1.9-7.4,7.4-9.8c5.4-2.4,11-1.9,12.3,1.1l34.2,63.3"/>
					</g>
				</g>
				<g>
					<g>
						
							<ellipse id="XMLID_00000080198162918767403980000016946273822723961274_" transform="matrix(0.9123 -0.4096 0.4096 0.9123 -9.1588 64.9686)" class="st47" cx="147.1" cy="53.9" rx="10.8" ry="6"/>
					</g>
				</g>
				<path class="st45" d="M147,31.7c-1.4-3-6.9-3.5-12.3-1.1c-5.4,2.4-8.7,6.9-7.4,9.8l4.7,8c-1.3-3,1.9-7.4,7.4-9.8
					s11-1.9,12.3,1.1L147,31.7z"/>
				<path class="st45" d="M127-6.5c-1.4-3-6.9-3.5-12.3-1.1c-5.4,2.4-8.7,6.9-7.4,9.8l3.6,6.4c-1.4-3,2.3-7.7,7.7-10.2
					s10.3-2,11.7,1L127-6.5z"/>
			</g>
			<g id="Layer_5_copy_9">
				<g>
					<g>
						<path id="XMLID_00000023251232407051497130000009014476173381381282_" class="st43" d="M29.8,56.2c-1.4-1.6-3.9-5.6-4.7-7.6
							c-0.6-1.8,0-2.2-0.4-4.1c-0.5-3.3-1-4.6-3.3-7.7c-1.3-1.7-2.4-5.1,0.2-7.2c3.9-3.1,6.8,0.4,8,1.7c1.1,1.1,3.1,3.2,3.8,3.4
							c2.8,1,3.7,0.9,6.5,1.8c3.7,1,5.3,4.2,7.8,7.7"/>
					</g>
				</g>
				<g>
					<g>
						<path id="XMLID_00000133501158232537005230000008150153607201943451_" class="st43" d="M72.5,113.2L29.4,55.6
							c-1.8-2.8,0.8-7.6,5.8-10.8c5-3.2,10.6-3.6,12.3-0.8l43.1,57.6"/>
					</g>
				</g>
				<g>
					<g>
						
							<ellipse id="XMLID_00000014630187247591542000000014218896478204124064_" transform="matrix(0.8412 -0.5407 0.5407 0.8412 -45.0384 61.1406)" class="st48" cx="81.6" cy="107.3" rx="10.8" ry="6"/>
					</g>
				</g>
				<path class="st45" d="M78.3,85.4c-1.8-2.8-7.3-2.5-12.3,0.8c-5,3.2-7.6,8-5.8,10.8l5.8,7.3c-1.8-2.8,0.8-7.6,5.8-10.8
					s10.6-3.6,12.3-0.8L78.3,85.4z"/>
				<path class="st45" d="M52.9,50.5c-1.8-2.8-7.3-2.5-12.3,0.8c-5,3.2-7.6,8-5.8,10.8l4.5,5.8c-1.8-2.8,1.1-8,6.1-11.1
					c5-3.3,9.9-3.5,11.7-0.7L52.9,50.5z"/>
			</g>
			<g id="Layer_5_copy_8">
				<g>
					<g>
						<path id="XMLID_00000142153344741413464880000009835587110510991039_" class="st43" d="M45.1,89.3c-1.2-1.8-3.2-6-3.6-8.1
							c-0.4-1.9,0.3-2.2,0.1-4.2c-0.1-3.4-0.4-4.7-2.3-8.1c-1.1-1.9-1.7-5.4,1.2-7c4.3-2.6,6.7,1.2,7.7,2.7c1,1.2,2.6,3.5,3.3,3.9
							c2.7,1.3,3.6,1.4,6.3,2.6c3.6,1.5,4.6,4.9,6.7,8.7"/>
					</g>
				</g>
				<g>
					<g>
						<path id="XMLID_00000016754011138624469410000003253043150219897001_" class="st43" d="M79.9,151.4L44.7,88.7
							c-1.4-3,1.8-7.5,7.2-10c5.4-2.5,10.9-2.2,12.4,0.8l35.2,62.7"/>
					</g>
				</g>
				<g>
					<g>
						
							<ellipse id="XMLID_00000150094467843864126650000005719910199885120662_" transform="matrix(0.9044 -0.4266 0.4266 0.9044 -54.0292 52.3238)" class="st49" cx="89.8" cy="146.8" rx="10.8" ry="6"/>
					</g>
				</g>
				<path class="st45" d="M89.3,124.5c-1.4-3.1-6.9-3.3-12.4-0.8c-5.4,2.5-8.6,7-7.2,10l4.8,7.9c-1.4-3,1.8-7.5,7.2-10
					c5.4-2.5,10.9-2.2,12.4,0.8L89.3,124.5z"/>
				<path class="st45" d="M68.6,86.7c-1.4-3.1-6.9-3.3-12.4-0.8c-5.4,2.5-8.6,7-7.2,10l3.7,6.3c-1.4-3.1,2.2-7.7,7.5-10.3
					s10.3-2.1,11.7,0.8L68.6,86.7z"/>
			</g>
			<g id="Layer_5_copy">
				<g>
					<g>
						<path id="XMLID_00000173881645766798522040000013340669308517914755_" class="st43" d="M140.5,2.8c-1.2-4.1-2.7-7.3-1.2-10.8
							c1.1-2.7,1.8-3.3,2.8-6.2c0.2-0.7-0.1-3.5-0.2-5.1c-0.2-1.8-1.2-6.2,3.7-7.3c3.2-0.7,5.1,2.2,5.7,4.3c1,3.7,1.6,4.9,3.9,7.3
							c1.3,1.5,1.9,1.3,2.9,2.9c1.1,1.9,2.6,6.3,3,8.4"/>
					</g>
				</g>
				<g>
					<g>
						<path id="XMLID_00000075164544809095540640000016665898497132006278_" class="st43" d="M158.4,72.2L140.5,2.5
							c-1-3.1,2.7-7.2,8.4-9.1c5.6-1.9,11-0.9,12.1,2.3l17.9,69.7"/>
					</g>
				</g>
				<g>
					<g>
						
							<ellipse id="XMLID_00000161590606362195609950000017213302886385152914_" transform="matrix(0.9484 -0.3172 0.3172 0.9484 -13.1064 57.0243)" class="st50" cx="168.6" cy="68.8" rx="10.8" ry="6"/>
					</g>
				</g>
				<path class="st45" d="M155.5,61.5c-1-3.1,2.7-7.2,8.4-9.1c5.6-1.9,11-0.9,12.1,2.3l-2-9c-1-3.1-6.4-4.1-12.1-2.3
					c-5.6,1.9-9.4,6-8.4,9.1L155.5,61.5z"/>
				<path class="st45" d="M144,17.5c-1-3.1,2.2-6.8,7.9-8.7c5.6-1.9,11.5-0.9,12.5,2.2l-1.7-7.1c-1-3.1-6.4-4.1-12.1-2.3
					c-5.6,1.9-9.4,6-8.4,9.1L144,17.5z"/>
			</g>
			<g id="Layer_5_copy_2">
				<g>
					<g>
						<path id="XMLID_00000098194375559364107760000011630345850137789098_" class="st43" d="M109,17.4c-2.9-3.1-5.8-5.2-6.2-9
							c-0.3-2.9,0-3.8-0.5-6.8c-0.2-0.8-1.8-3.1-2.7-4.2c-1-1.5-4-4.8-0.2-8.2c2.5-2.2,5.6-0.6,7.1,1c2.7,2.8,3.7,3.5,6.9,4.6
							c1.8,0.6,2.2,0.2,4,1.2c1.9,1,5.3,4.3,6.6,6"/>
					</g>
				</g>
				<g>
					<g>
						<path id="XMLID_00000170977915547642804510000017242364576426670231_" class="st43" d="M157.8,69.9l-48.9-52.8
							c-2.4-2.3-1-7.6,3-12c4.1-4.3,9.3-6,11.7-3.7l48.9,52.8"/>
					</g>
				</g>
				<g>
					<g>
						
							<ellipse id="XMLID_00000176744912776786627360000012338400791798913675_" transform="matrix(0.6831 -0.7303 0.7303 0.6831 6.9752 140.2238)" class="st51" cx="165.1" cy="62.1" rx="10.8" ry="6"/>
					</g>
				</g>
				<path class="st45" d="M150.2,61.8c-2.4-2.3-1-7.6,3-12c4.1-4.3,9.3-6,11.7-3.7l-6.2-7c-2.4-2.3-7.7-0.6-11.7,3.7
					c-4,4.4-5.4,9.7-3,12L150.2,61.8z"/>
				<path class="st45" d="M119.1,28.6c-2.4-2.3-1.3-7.1,2.8-11.4s9.7-6.3,12.1-4l-4.9-5.5c-2.4-2.3-7.7-0.6-11.7,3.7
					c-4,4.4-5.4,9.7-3,12L119.1,28.6z"/>
			</g>
			<g id="Layer_5_copy_5">
				<g>
					<g>
						<path id="XMLID_00000039840165684843096840000017884055180486716289_" class="st43" d="M40.2,24.1c-3.1-2.9-6.1-4.8-6.6-8.7
							c-0.4-2.9-0.3-3.8-0.9-6.7c-0.2-0.8-1.9-3-2.9-4.2c-1.1-1.4-4.2-4.7-0.6-8.2C31.6-6,34.8-4.5,36.4-3c2.7,2.7,3.9,3.3,7.2,4.2
							c1.9,0.6,2.3,0.1,4,0.9c2,1,5.5,4,6.9,5.6"/>
					</g>
				</g>
				<g>
					<g>
						<path id="XMLID_00000075868655696783480630000017975363552922405775_" class="st43" d="M91.5,74.1L40.1,23.8
							c-2.6-2.1-1.4-7.5,2.4-12.2c3.9-4.6,9-6.4,11.5-4.3l51.4,50.3"/>
					</g>
				</g>
				<g>
					<g>
						
							<ellipse id="XMLID_00000140703063577948928170000008699709989270424738_" transform="matrix(0.6464 -0.763 0.763 0.6464 -15.4778 98.3385)" class="st52" cx="98.4" cy="65.9" rx="10.8" ry="6"/>
					</g>
				</g>
				<path class="st45" d="M83.6,66.4c-2.6-2.1-1.4-7.5,2.4-12.2c3.9-4.6,9-6.4,11.5-4.3l-6.4-6.7c-2.6-2.1-7.7-0.2-11.5,4.3
					c-3.9,4.6-4.9,10-2.4,12.2L83.6,66.4z"/>
				<path class="st45" d="M50.9,34.7c-2.6-2.1-1.7-7,2.2-11.5s9.3-6.7,11.9-4.5l-5.1-5.3c-2.6-2.1-7.7-0.2-11.5,4.3
					c-3.9,4.6-4.9,10-2.4,12.2L50.9,34.7z"/>
			</g>
			<g id="Layer_5_copy_3">
				<g>
					<g>
						<path id="XMLID_00000031191200402484740700000016091059530069043901_" class="st43" d="M73.6,9.1c-2.5-3.5-4.9-6-4.7-9.9
							c0.2-3,0.5-3.8,0.6-6.8c0-0.7-1.3-3.3-1.9-4.7c-0.8-1.6-3.2-5.4,1.1-8.1c2.8-1.8,5.7,0.4,6.9,2.2c2.1,3.3,3.2,4.1,6.1,5.7
							c1.7,0.9,2.2,0.6,3.8,1.7c1.7,1.3,4.5,5.1,5.7,6.9"/>
					</g>
				</g>
				<g>
					<g>
						<path id="XMLID_00000164483825644636481210000002586567882359470259_" class="st43" d="M113.4,68.7l-40-59.9
							c-2.1-2.6,0.2-7.7,4.9-11.4C83-6.2,88.5-7.1,90.5-4.5l40,59.9"/>
					</g>
				</g>
				<g>
					<g>
						
							<ellipse id="XMLID_00000081616945084094133530000010737233354301517480_" transform="matrix(0.7901 -0.613 0.613 0.7901 -12.4649 87.7347)" class="st53" cx="121.9" cy="62.1" rx="10.8" ry="6"/>
					</g>
				</g>
				<path class="st45" d="M107.3,59.5c-2.1-2.6,0.2-7.7,4.9-11.4c4.7-3.6,10.2-4.5,12.2-1.9l-4.9-7.9c-2.1-2.6-7.5-1.8-12.2,1.9
					c-4.7,3.7-6.9,8.7-4.9,11.4L107.3,59.5z"/>
				<path class="st45" d="M81.8,21.7c-2.1-2.6-0.2-7.2,4.6-10.8s10.5-4.6,12.6-2l-4-6.2c-2.1-2.6-7.5-1.8-12.2,1.9
					s-6.9,8.7-4.9,11.4L81.8,21.7z"/>
			</g>
			<g id="Layer_5_copy_4">
				<g>
					<g>
						<path id="XMLID_00000083773839323747035400000014070671981083343545_" class="st43" d="M67.7,33.3c-1.2-4.1-2.9-7.2-1.5-10.8
							c1.1-2.8,1.7-3.4,2.6-6.3c0.2-0.7-0.3-3.5-0.4-5c-0.3-1.8-1.3-6.2,3.5-7.4c3.2-0.8,5.2,2,5.8,4.2c1,3.7,1.7,4.9,4.1,7.3
							c1.4,1.5,1.9,1.2,3,2.8c1.2,1.8,2.8,6.2,3.2,8.3"/>
					</g>
				</g>
				<g>
					<g>
						<path id="XMLID_00000031926757594660617630000005367484897423066793_" class="st43" d="M87.5,102.2L67.7,33.1
							c-1.2-3.1,2.5-7.3,8.1-9.3c5.6-2,11-1.2,12.2,2l19.8,69.1"/>
					</g>
				</g>
				<g>
					<g>
						
							<ellipse id="XMLID_00000065768881016882986250000000893919231545672115_" transform="matrix(0.9394 -0.3428 0.3428 0.9394 -27.8388 39.4157)" class="st54" cx="97.6" cy="98.5" rx="10.8" ry="6"/>
					</g>
				</g>
				<path class="st45" d="M84.4,91.6c-1.2-3.1,2.5-7.3,8.1-9.3c5.6-2,11-1.2,12.2,2l-2.3-9c-1.2-3.1-6.5-4-12.2-2
					c-5.6,2.1-9.2,6.3-8.1,9.3L84.4,91.6z"/>
				<path class="st45" d="M71.7,47.9c-1.2-3.1,2.1-6.9,7.6-8.9c5.6-2,11.4-1.2,12.6,1.9l-1.8-7.1c-1.2-3.1-6.5-4-12.2-2
					c-5.6,2.1-9.2,6.3-8.1,9.3L71.7,47.9z"/>
			</g>
			<g id="Layer_5_copy_11">
				<g>
					<g>
						<path id="XMLID_00000078729146179761497330000007385066882846072483_" class="st43" d="M109.4,44.2c-1.2-1.8-3.2-6-3.6-8.1
							c-0.4-1.9,0.3-2.2,0.1-4.2c-0.1-3.4-0.4-4.7-2.3-8.1c-1.1-1.9-1.7-5.4,1.2-7c4.3-2.6,6.7,1.2,7.7,2.7c1,1.2,2.6,3.5,3.3,3.9
							c2.7,1.3,3.6,1.4,6.3,2.6c3.6,1.5,4.6,4.9,6.7,8.7"/>
					</g>
				</g>
				<g>
					<g>
						<path id="XMLID_00000079451286813547216020000008415705171758025857_" class="st43" d="M144.2,106.4L109,43.7
							c-1.4-3,1.8-7.5,7.2-10s10.9-2.2,12.4,0.8l35.2,62.7"/>
					</g>
				</g>
				<g>
					<g>
						
							<ellipse id="XMLID_00000159462490132306391750000006393971619574838404_" transform="matrix(0.9044 -0.4266 0.4266 0.9044 -28.6873 75.4525)" class="st49" cx="154.1" cy="101.8" rx="10.8" ry="6"/>
					</g>
				</g>
				<path class="st45" d="M153.6,79.5c-1.4-3.1-6.9-3.3-12.4-0.8c-5.4,2.5-8.6,7-7.2,10l4.8,7.9c-1.4-3,1.8-7.5,7.2-10
					s10.9-2.2,12.4,0.8L153.6,79.5z"/>
				<path class="st45" d="M132.9,41.7c-1.4-3.1-6.9-3.3-12.4-0.8c-5.4,2.5-8.6,7-7.2,10l3.7,6.3c-1.4-3.1,2.2-7.7,7.5-10.3
					c5.3-2.5,10.3-2.1,11.7,0.8L132.9,41.7z"/>
			</g>
			<g id="Layer_5">
				<g>
					<g>
						<path id="XMLID_00000076591273443184792960000003540392528782546086_" class="st43" d="M69.5,67.6c-4.1-1.4-7.5-1.9-9.6-5.1
							c-1.6-2.5-1.8-3.4-3.5-5.8c-0.5-0.6-3-1.9-4.3-2.6c-1.6-0.8-5.8-2.5-4-7.2c1.2-3,4.7-3.1,6.8-2.3c3.6,1.3,4.9,1.4,8.3,0.9
							c1.9-0.2,2.1-0.9,4-0.9c2.1,0.1,6.6,1.4,8.6,2.2"/>
					</g>
				</g>
				<g>
					<g>
						<path id="XMLID_00000173873028057923494980000012044895501357837707_" class="st43" d="M137,91.8L69.3,67.4
							c-3.2-0.9-4.5-6.2-2.8-12c1.7-5.7,5.5-9.6,8.7-8.8L142.9,71"/>
					</g>
				</g>
				<g>
					<g>
						
							<ellipse id="XMLID_00000158708511020330363680000009725648612006525370_" transform="matrix(0.2708 -0.9626 0.9626 0.2708 23.4548 193.9483)" class="st55" cx="139.7" cy="81.5" rx="10.8" ry="6"/>
					</g>
				</g>
				<path class="st45" d="M126.5,88.1c-3.2-0.9-4.5-6.2-2.8-12c1.7-5.7,5.5-9.6,8.7-8.8l-8.6-3.4c-3.2-0.9-7.1,3-8.7,8.8
					c-1.6,5.8-0.4,11.1,2.8,12L126.5,88.1z"/>
				<path class="st45" d="M83.7,72.9c-3.2-0.9-4.3-5.7-2.8-11.4c1.7-5.7,5.7-10,8.9-9.1l-6.9-2.6c-3.2-0.9-7.1,3-8.7,8.8
					s-0.4,11.1,2.8,12L83.7,72.9z"/>
			</g>
		</g>
		<g id="Layer_9" class="st3">
			<path class="st56" d="M40.7,125.4l68.1-42.9L170.5,22l44.3,6.4L191,51.7c0,0,35,45.5,34.3,46s-55.5,60.5-55.5,60.5L89.5,203
				l-38.2-46.7c0,0-19.9,12.5-20.5,12.1s-0.7-5.6-0.7-5.6L20,168.9L40.7,125.4z"/>
		</g>
		<path class="st6" d="M100.2,88.1c3.3-2.1,6.5-4.3,9.5-6.7c4.6-3.7,8.6-8,12.7-12.2c14.5-15,29.6-29.5,44.7-44c1-1,2-1.9,3.3-2.4
			c1.4-0.5,2.8-0.5,4.3-0.3c13.3,0.9,26.6,3,39.7,6c-21.6,19.2-41.8,40.1-60.3,62.3c-15.8-2.2-31.6-4.5-47.3-6.7
			c-1.8,12.6-3.7,25.3-5.5,37.9c-0.1,1-0.3,2-0.8,2.9c-0.7,1.1-1.8,1.8-2.9,2.5c-22.4,13.7-44.8,27.5-67.2,41.2
			c0.4-2.2,1.8-9.1,2.2-10.7c0.8-3.7,1.7-7.5,2.6-11.2c0.9-3.5,1.8-7.1,2.7-10.7c0.8-3.2,1.6-7,2.9-10c0.3-0.8,2.1-1.8,7.4-5.2
			c3.2-2.1,6.7-4.2,9.9-6.1c6.8-4.1,13.5-8.3,20.2-12.4C85.5,97.6,92.9,92.9,100.2,88.1z"/>
		<path class="st6" d="M191.4,52.3c11.8,14.9,23.2,30.2,34.1,45.7c-13.6,19.2-30.8,36.4-46.7,52.3c-7.6,7.6-8.8,8.1-17.4,13.3
			c-23.3,14.1-47.6,27.5-71.9,39.5c-15.1-17.2-27.6-33.4-37.5-46.6"/>
		<path class="st6" d="M112.3,86c19.1,22.2,37.9,47.5,55.9,70.6"/>
		<path class="st6" d="M40.2,126.5c-9.1,14.3-14.7,25.8-20.1,43.3c3.6-2.8,7.3-5.4,10.9-8.2"/>
		<path class="st9" d="M195.3,130.6c-3.4-4.3-6.8-8.6-10.2-12.9c3.8-4.5,8-8.6,11.9-13.2c4.3,4.7,7.2,8.8,11.3,14"/>
	</g>
	<g id="_x33_D" class="st0">
		<path class="st6" d="M-19.7,120.9c-0.1-1.1,132.9-59.5,134.6-60.2c1.8-0.8,42.4-63.3,46.7-69.4c4.3-6.1,11.2-5.8,15.2-4.6
			c3.7,1.2,14.4,9.4,19,19.5c1.6,3.4-1,8.5-5.5,7.1c-3.7-1.2-10.4-13.3-13-11.4c-3.9,2.7-18.1,27.2-18.1,27.2l1.3,43.8
			c0,0-13.5,26.2-14.1,27.1s-5.4,2.9-6.4,3.7s0.2,4.8-0.8,5.4c-6.2,3.5-52.9,18.5-56.1,18.3c-3.9-0.2-17.9-9.6-20.2-10.8
			c-3.7-2.2-8.6,0.4-8.6,4.8c0,2.3,3.2,11.4,2.5,13.7c-1.3,4.4-40,17.1-43.2,16.8c-0.6-0.1-4.4-2.6-5.3-2.8c-0.9-0.3-1.9,1.9-2.9,1
			C4.2,148.8-19.6,121.9-19.7,120.9z"/>
		<path class="st6" d="M-20.1,120.6c3.1-3.9,77.8-74.6,82.5-78.9c4.9-4.6,10.9-5.8,14.4-5.4c2.7,0.3,18,6.3,21.9,15
			c1.4,3-1,7.6-4.7,6c-2.9-1.1-13.5-8.7-16.3-6.4C74.6,53.5,45,83.5,45,83.5l-4,9"/>
		<line class="st6" x1="114.9" y1="60.6" x2="144.1" y2="99.5"/>
		<path class="st9" d="M94.8,79.5c-2.5,0.7-25.1,9.9-27.2,11.5c-9.7,6.9,14.5,27.4,22.2,25.2c3.6-1,23.4-7.4,27.1-8.8
			C128.8,102.8,107.4,75.7,94.8,79.5z"/>
		<path class="st9" d="M20.4,110.9c-2.1,0.5-18.3,7.1-20.8,8.5c-8.7,5.2,11.6,25.3,18.2,23.4c3-0.9,18.3-6.7,21.5-7.9
			C49.7,130.9,31.4,108.1,20.4,110.9z"/>
	</g>
	<g id="_x33_D_copy" class="st0">
		<path class="st6" d="M-43.3,54.9c0.6-1.1,160.5,18.4,162.5,18.8C121.3,74,195.5,37.4,203,34c7.5-3.4,14,0.8,17,4.3
			c2.8,3.2,8.4,17.2,7,29.3c-0.4,4.2-5.8,7.5-9.3,3.5c-2.7-3.2-2.4-18.6-6-18.3c-5.3,0.4-32.6,15.7-32.6,15.7L155.6,111
			c0,0-27.7,17.5-28.8,17.9s-6.8-0.3-8.2-0.1c-1.4,0.1-2.6,4.7-3.8,4.6c-8-0.1-60.9-12.3-63.8-14.3c-3.6-2.5-11.7-19.3-13.1-21.8
			c-2.3-4.1-8.5-4.5-10.9-0.3c-1.2,2.2-3.5,12.7-5.5,14.5c-3.6,3.3-47.7-6.5-50.7-8.5c-0.5-0.4-2.7-5-3.4-5.8
			c-0.7-0.8-2.8,0.7-3.3-0.7C-36.3,95.1-43.8,55.9-43.3,54.9z"/>
		<path class="st6" d="M-43.5,54.4c5.1-2,116.4-27,123.3-28.5c7.3-1.6,13.7,0.7,16.8,3c2.4,1.8,13.6,16.2,12.4,26.7
			c-0.4,3.6-5.2,6.6-7.9,3c-2.1-2.7-8-16-11.9-15.3C84.7,44,39.5,55.8,39.5,55.8l-8.9,6.3"/>
		<line class="st6" x1="119.2" y1="73.7" x2="125" y2="127.3"/>
		<path class="st9" d="M89.3,80.2c-2.9-0.7-29.5-4.7-32.4-4.5c-13.1,1.1-1.7,34.3,6.8,36.6c4,1,26.5,6.1,30.9,7
			C108.6,121.7,103.6,83.7,89.3,80.2z"/>
		<path class="st9" d="M0.6,68.1c-2.3-0.6-21.5-3.6-24.7-3.6c-11.3,0.1-3.2,30.7,4.1,32.6c3.4,0.9,21.3,4,25,4.7
			C17.2,103.8,12.8,71.6,0.6,68.1z"/>
	</g>
	<g id="Animation" class="st0">
		<polygon class="st6" points="92.8,-12 63,-25.2 -11.7,129.3 14.5,141.8 		"/>
		<polygon class="st6" points="162.5,46.9 140,23.3 17.7,145 38.7,166.2 		"/>
		<polyline class="st6" points="161.5,48.9 214.8,104.8 92.6,218.6 41.6,164.6 		"/>
		<line class="st9" x1="162.4" y1="72" x2="64.3" y2="165.2"/>
		<line class="st9" x1="182.2" y1="92.7" x2="84.1" y2="185.8"/>
		<line class="st9" x1="193.9" y1="104.2" x2="95.8" y2="197.3"/>
		<line class="st9" x1="133.8" y1="100.9" x2="152" y2="119.9"/>
		<line class="st9" x1="89.9" y1="141.8" x2="107.7" y2="160.9"/>
		<path class="st9" d="M149.3,99.6c0.9-0.3,1.8-0.6,2.4-1.2c0.6-0.7,0.8-1.7,0.9-2.6c0.2-1,0.7-1.9,1.6-2.1c0.4-0.1,0.8-0.1,1.2-0.2
			c1.5-0.4,1.8-2.7,3.3-3.3c0.3-0.1,0.8-0.2,1.2-0.3c1.3-0.6,1.2-2.7,2.6-3.2"/>
		<path class="st9" d="M157,104.1c-0.1-1.3,0.6-2.8,1.9-3.3c0.3-0.1,0.7-0.2,1-0.4c0.3-0.3,0.5-0.7,0.8-1.1c0.7-0.8,1.9-0.9,2.7-1.6
			c0.6-0.5,0.7-1.4,1-2s1.2-1.2,1.9-0.8"/>
		<path class="st9" d="M129.1,119.3c-1.7,0-3.1,1.2-4,2.6s-1.6,2.9-2.9,4c-0.9,0.7-1.9,1.2-2.7,1.8c-1,0.7-1.8,1.6-2.5,2.5
			c-1.9,2.3-3.9,4.6-5.8,6.8c-0.6,0.7-1.3,1.4-2.1,1.8c-0.5,0.2-1.1,0.3-1.7,0.5c-1.7,0.9-1.9,3.6-3.6,4.4"/>
		<path class="st9" d="M111.1,147.2c0-1.5,1.1-2.7,2.4-3.5s2.7-1.3,4-2c1.3-0.8,2.3-1.9,3.4-3c1-1,2-2,2.5-3.2
			c0.2-0.5,0.4-0.9,0.7-1.4c0.4-0.6,1.1-0.9,1.7-1.3c2-1.1,3.7-2.8,4.9-4.7"/>
		<path class="st9" d="M76,170.6c0.4-2,0.9-4.2,2.5-5.5s4-1.4,5.2-3.1c0.5-0.9,0.8-2.1,1.8-2.2c0.4-0.1,0.8,0,1.2-0.1
			c0.3-0.1,0.5-0.4,0.8-0.7c0.7-1,1.5-2,2.1-3"/>
		<path class="st9" d="M95.7,186.2c-0.4-1.2,0.8-2.4,2.1-2.9c1.2-0.5,2.6-0.7,3.4-1.8c0.7-0.8,0.7-1.9,1.3-2.8
			c0.8-1.3,2.8-2.1,2.8-3.6c0.5,0.1,0.9,0.3,1.1,0.8c1.4-1.3,2.8-2.7,4.1-4.1"/>
		<path class="st9" d="M132.8,151.3c2-6.1,10.6-7.6,13.3-13.4c0.2-0.5,0.5-1,0.8-1.4c0.4-0.3,0.9-0.5,1.4-0.7
			c2.1-0.8,3.9-2.6,4.7-4.8c0.2-0.5,0.4-1.1,0.7-1.4c0.6-0.7,1.4-0.8,2.2-1.2c1.7-0.7,2.9-2,4.2-3.3c0.8-0.8,1.5-1.7,2.4-2.5
			c1.4-1.5,2.8-3,4.2-4.5"/>
		<polygon class="st3" points="91,-10 43.9,16.2 36.1,31.3 83.7,5.8 		"/>
		<polygon class="st3" points="70.7,-22 58.2,-15.2 50.9,0.1 81.7,-16.5 		"/>
		<polygon class="st3" points="77.5,20.7 30.3,46.8 22.7,62 70.1,36.5 		"/>
		<polygon class="st3" points="59.7,53.7 12.6,79.9 4.9,95.1 52.4,69.5 		"/>
		<polygon class="st3" points="42.3,86.5 -4.8,112.7 -12.5,127.9 35,102.3 		"/>
		<polygon class="st3" points="26.5,118.6 -1,133.9 9.2,139.6 18.5,134.5 		"/>
		<polygon class="st3" points="139,25.6 128.5,78.5 116.4,90.4 126.2,37.4 		"/>
		<polygon class="st3" points="156.7,41.3 153.9,55.2 141.6,66.8 148,32.5 		"/>
		<polygon class="st3" points="114.1,48.2 103.5,101.1 91.5,113 101.3,60 		"/>
		<polygon class="st3" points="87.9,74.8 77.3,127.6 65.2,139.6 75.1,86.6 		"/>
		<polygon class="st3" points="61.9,101.4 51.3,154.2 39.3,166.2 49,113.2 		"/>
		<polygon class="st3" points="36.2,126.2 30.1,157 21.5,149.2 23.5,138.7 		"/>
		<line class="st9" x1="157.4" y1="-44.5" x2="128.8" y2="-13.7"/>
		<line class="st9" x1="171.4" y1="-5.3" x2="145" y2="5.5"/>
		<line class="st9" x1="119.7" y1="-56.3" x2="108.1" y2="-28.7"/>
		<path class="st57" d="M178.8-4"/>
		<path class="st3" d="M150.6,8"/>
	</g>
	<g id="Animation_00000011739293302612624920000014059660964061508243_" class="st0">
		<g id="outline" class="st3">
			<polygon class="st5" points="14.5,0.5 84.4,180.8 206.2,87.6 51.1,-27.6 			"/>
			<polygon class="st58" points="84.4,180.8 141.8,192.4 209.3,140.1 206.2,87.6 			"/>
			<polygon class="st5" points="53.1,-7.3 34.1,8.1 90,142.4 119.4,119.5 117.5,98.8 137.5,106.1 168.5,81.4 			"/>
		</g>
		<g id="ticker" class="st3">
			<line class="st5" x1="100.4" y1="-40.3" x2="99.6" y2="-45.4"/>
			<line class="st5" x1="121.7" y1="100.3" x2="104.1" y2="-16.6"/>
			<polygon class="st5" points="83.1,-34.9 93.3,-17 114.9,-20.7 118.7,-40.7 			"/>
		</g>
		<g id="measures" class="st3">
			<line class="st30" x1="54" y1="14.9" x2="117.5" y2="98.8"/>
			<line class="st30" x1="55" y1="27.3" x2="66.6" y2="18.2"/>
			<line class="st30" x1="66.6" y1="43.8" x2="78.3" y2="34.7"/>
			<line class="st30" x1="79.1" y1="59.9" x2="90.8" y2="50.8"/>
			<line class="st30" x1="91.2" y1="76.1" x2="103" y2="67"/>
			<line class="st30" x1="103" y1="93.4" x2="114.7" y2="84.3"/>
		</g>
	</g>
	<g id="_x32_D" class="st0">
		<path class="st6" d="M79.3,98.9c-0.9-4.1-3.4-6.5-2.3-11C83.2,62.8,92.4,28,97.2,7c2.2-9.5,7-26.8,9.3-36.2
			c3.3-13.1,3.2-12.7,6.4-15.3c3.4-2.7,15.3-11.5,20.4-14.8c6-3.8,5-4.2,8.5,2.4c3.2,6.2,4.2,8.7,7,15c5.1,11.5,4.7,8.2,0.5,24
			c-8.3,31.8-21.5,80.6-31.6,115.4c-1.7,5.7-1.8,5.2-7.2,8.8"/>
		<path class="st59" d="M137.4-59.6c1.4,0.8,4.4,8.2,4.8,9.7c0.2,0.8-3.8,1.6-7.5,0.6c-3.1-0.9-5.9-3.7-5.4-4.3
			C130.2-54.9,136.4-60.2,137.4-59.6z"/>
		<line class="st60" x1="89.6" y1="94.1" x2="121.3" y2="-31.9"/>
		<line class="st9" x1="103.8" y1="98.9" x2="138.2" y2="-26.9"/>
		<path class="st9" d="M111.5-42.4c-0.9,3.6,3.2,8.5,9.9,7.5c1.2,3.5,5,5.4,8.2,6.4c3.2,1,5.6,0.6,8.7-1c4.4,3.9,12.5,0.6,13.8-4.4"
			/>
		<path class="st6" d="M72.5,104.6c-5.6,6.9-6.1,17.2-1.7,24.8s13.5,12.2,22.2,11.5c2.5-0.2,5-0.7,7.2-2c3.1-1.5,5.6-4.2,7.5-7
			c4-5.8,5.9-13.4,3.9-20.1C107.1,96.3,82.4,92.4,72.5,104.6z"/>
		<path class="st9" d="M80.2,110.9c-3.2,3.9-3.5,9.8-1,14.1c2.5,4.4,7.7,6.9,12.7,6.6c1.4-0.1,2.8-0.5,4.2-1.1
			c1.7-0.9,3.2-2.4,4.3-4c2.3-3.3,3.4-7.6,2.2-11.5C99.9,106.1,85.9,103.9,80.2,110.9z"/>
		<path class="st6" d="M67.8,126.8c-13-4.8-24.4-8.1-37.8-11.3c-1.9-0.5-4.2-2.6-3.8-4.5c0.3-1.2,2-1.7,3.3-1.8
			c-3-5.4-3.4-12.2-1.1-18c2.4-5.8,7.3-10.3,13.2-12.1c1.6-0.5,3.9-0.4,4.3,1.3c0.2,0.9-0.4,1.9-0.9,2.8c-3.3,5.7-0.3,13.3,4.9,17.4
			c5.2,4.1,11.9,5.4,18.4,6.6"/>
		<path class="st6" d="M105.3,136.4c13.7,2.6,25.1,5.7,38.1,10.1c1.9,0.6,5-0.1,5.5-1.9c0.3-1.2-0.8-2.4-1.9-3.2
			c5.3-3.1,9.2-8.6,10.3-14.8c1-6.1-0.9-12.7-5-17.2c-1.1-1.2-3.1-2.4-4.3-1.2c-0.7,0.7-0.6,1.8-0.6,2.8
			c-0.2,6.6-6.7,11.5-13.3,12.3c-6.6,0.8-13-1.6-19.1-4"/>
		<path class="st6" d="M71.9,133.3c-1.1,20.5-5.6,44.3-14.5,64.6c-1.3,2.9-2.6,5.9-2.2,8.9c0.9,5,9.8,7.4,14.9,7.6
			c3.3,0.2,6.9-0.7,8.8-3.4c1.3-1.9,1.5-4.2,1.7-6.6c2-22.5,8.4-44.6,18.6-64.8"/>
		<path class="st9" d="M72.2,148.1c4.8,4,11.2,6.7,18.5,5.7"/>
		<path class="st9" d="M69.6,163.7c6.1,3.9,11,4.9,18.2,4.6"/>
		<path class="st9" d="M65.7,179.8c5.3,2.7,11.2,4.1,17.2,4"/>
		<path class="st6" d="M60.6,195.2c6,4,13.8,5.4,20.7,3.5"/>
		<path class="st9" d="M66.1,116.2c-5.7-1.3-11.4-2.9-17-4.6c-2.3-0.7-4.5-1.5-6.5-2.8c-3.8-2.4-6.3-6.5-6.7-10.9"/>
		<path class="st9" d="M112.6,128.3c5.6,1.8,11.3,3.3,16.9,4.7c2.3,0.6,4.7,1.1,7.1,1c4.4-0.1,8.8-2.4,11.4-6"/>
		<path class="st9" d="M82.2,125.5c4.9-5.4,11.4-9.5,18.4-11.4"/>
		<path class="st9" d="M84.1,110.8c4.5,5.1,8.3,10.9,11.3,17"/>
	</g>
	<g id="Everything" class="st0">
		<g id="heart" class="st3">
			<path class="st35" d="M24.8,39.5C13.2,52,9.7,71.1,15.1,87.2C19.9,102,31.2,114,44.5,122s28.5,12.4,43.7,15.4
				c18.5,3.6,37.4,5.2,56.1,3.3c5.4-0.5,11-1.5,15.5-4.6c4.2-3,6.9-7.6,9.1-12.2c13.1-27.6,13-59.9,6.8-89.9c-1.4-7-3.2-14-6.2-20.6
				c-7.2-16-22.1-28.9-39.5-31.5S91.5-11.6,84,4.3c-1.7,3.8-2.4,6.3-3,10.4c-0.8,5.8-0.3,10.3-1.3,14.7c-1.6,6.2-11.3-1.8-16.4-2.8
				C49.5,24.1,34.4,29.2,24.8,39.5z"/>
		</g>
		<g id="Layer_23" class="st3">
			<g>
				<g>
					<path id="XMLID_00000154384741056905611480000009164331945301209278_" class="st56" d="M232.4,83.2l-77.3-13.9
						c-1.5-0.2-2.8-1.2-3.6-2.8c1.8-2.2,3.4-5.5,3.8-9.2c0.5-4.8,0.7-7.6-0.3-10.6c0.9-0.6,1.8-0.8,2.7-0.7L235,59.8"/>
				</g>
			</g>
			<g>
				<g>
					<path id="XMLID_00000044155461908980460110000008728632422358899640_" class="st30" d="M156.3,46.3c0.7-0.3,0.6-0.5,1.4-0.4
						L235,59.8"/>
					<path id="XMLID_00000050628200781200605040000008360177928360007077_" class="st30" d="M232.4,83.2l-77.3-13.9
						c-1.3-0.2-2.1-0.6-3-2"/>
				</g>
			</g>
			<g>
				<g>
					
						<ellipse id="XMLID_00000043419272542832784870000002033762770891514522_" transform="matrix(0.1067 -0.9943 0.9943 0.1067 137.5045 296.1252)" class="st61" cx="233.6" cy="71.5" rx="11.8" ry="6.5"/>
				</g>
			</g>
			<path class="st62" d="M220.5,81.1c-3.6-0.4-6-5.9-5.3-12.4s4.1-11.3,7.8-11l-9.9-2.1c-3.6-0.4-7.1,4.6-7.8,11
				c-0.7,6.5,1.7,12,5.3,12.4L220.5,81.1z"/>
			<path class="st62" d="M171.6,72.5c-3.6-0.4-5.7-5.4-5.1-11.8c0.7-6.5,4.4-11.7,7.9-11.4l-7.8-1.6c-3.6-0.4-7.1,4.6-7.8,11
				c-0.7,6.5,1.7,12,5.3,12.4L171.6,72.5z"/>
		</g>
		<g id="Layer_27_copy_2" class="st3">
			<path class="st30" d="M141.7,74.8c6.7-1.3,9.9-5.8,12.3-12.1c1.8-5.1,2.7-10.5,2.2-15.8c-0.6-5.3-2-9.5-5.8-13.3"/>
			<path class="st30" d="M157,81.7c1.2-6.2-1.1-9.5-5-12.5"/>
			<path class="st30" d="M156.7,46.1c4.5-0.6,8.6-4.5,7.5-11.6"/>
		</g>
		<g id="Layer_23_copy" class="st3">
			<g>
				<g>
					<path id="XMLID_00000091002657052226280760000014981285410027381950_" class="st43" d="M111.6,110.2c0.8,2,1.5,2,2,4
						c0.6,2.3,0.5,7.4,0.2,9.7"/>
					<path id="XMLID_00000026122712618725891690000016661577392349640856_" class="st43" d="M90.3,123.4c0.3-4.7-0.2-8.5,2.6-11.6
						c1.4-1.7,2.4-2.4,3.4-3.5"/>
				</g>
			</g>
			<g>
				<g>
					<path id="XMLID_00000141420563084093370260000001184979726973597083_" class="st43" d="M84.3,201.4l6-78.3
						c0-3.6,5.3-6.5,11.9-6.5c6.5,0,11.7,3,11.7,6.6l-6,78.3"/>
				</g>
			</g>
			<g>
				<g>
					
						<ellipse id="XMLID_00000068665490834423270110000001614266894838992564_" transform="matrix(5.626888e-03 -1 1 5.626888e-03 -105.9637 296.1887)" class="st63" cx="95.9" cy="201.4" rx="6.5" ry="11.8"/>
				</g>
			</g>
			<path class="st62" d="M85.2,189.3c0-3.6,5.3-6.5,11.9-6.5c6.5,0,11.7,3,11.7,6.6l1.1-10.1c0-3.6-5.2-6.6-11.7-6.6
				s-11.8,2.8-11.9,6.5L85.2,189.3z"/>
			<path class="st62" d="M88.8,139.8c0-3.6,4.7-6.2,11.2-6.2s12.1,3.1,12.1,6.7l0.8-7.9c0-3.6-5.2-6.6-11.7-6.6s-11.8,2.8-11.9,6.5
				L88.8,139.8z"/>
		</g>
		<g id="Layer_27_copy_3" class="st3">
			<path class="st30" d="M84.4,101c6.1,7.7,35.1,10.4,43.8,4.5"/>
			<path class="st30" d="M81.8,111.9c6.3,0.6,7.9-0.6,10.4-4.7"/>
			<path class="st30" d="M115.7,109.9c1.4,3.7,5.4,6,12.3,6.5"/>
		</g>
		<g id="Layer_23_copy_2" class="st3">
			<g>
				<g>
					<path id="XMLID_00000031913609600418535380000017780927310963067066_" class="st56" d="M-21.7,103.6l55.3-25.5l11.9,20.4
						l-55.8,25.7"/>
				</g>
			</g>
			<g>
				<g>
					<path id="XMLID_00000065037916043182766800000002181175471271369138_" class="st30" d="M45.4,98.5l-55.8,25.7"/>
					<path id="XMLID_00000064320509432827778710000003987003283839990919_" class="st30" d="M-21.7,103.6l55.3-25.5"/>
				</g>
			</g>
			<g>
				<g>
					
						<ellipse id="XMLID_00000026874385010017141970000005539207354889540534_" transform="matrix(0.8761 -0.4821 0.4821 0.8761 -56.8401 6.3205)" class="st64" cx="-16.1" cy="113.8" rx="6.5" ry="11.8"/>
				</g>
			</g>
			<path class="st62" d="M-10.8,98.5c3.2-1.8,8.3,1.5,11.5,7.2c3.1,5.7,3.1,11.7-0.1,13.4l9.4-4c3.2-1.8,3.2-7.8,0.1-13.4
				c-3.2-5.7-8.2-9-11.5-7.2L-10.8,98.5z"/>
		</g>
		<g id="Layer_27_copy" class="st3">
			<path class="st30" d="M36.8,67.4c-4.1,5.4-3.5,10.9-1,17.2c2,5,4.9,9.6,9,13.2c4,3.5,7.8,5.7,13.1,6.1"/>
			<path class="st30" d="M20.8,72.4c3.2,5.4,7.2,6.4,12,6"/>
			<path class="st30" d="M44.8,98.8c-3,3.4-3.4,9.1,2.1,13.7"/>
		</g>
	</g>
	<g id="Cart" class="st0">
		<g id="XMLID_00000141414121396062475340000005628409339610063536_" class="st3">
			<g>
				<polygon class="st5" points="82.3,56.2 -20.8,114 62.9,24.9 161.2,-33.6 				"/>
			</g>
		</g>
		<g class="st3">
			<g id="XMLID_00000076601301826495710750000015137867375941634193_">
				<g>
					<polygon class="st5" points="82.3,56.2 161.3,-33.5 230.9,57.8 163.1,158.5 54.1,206 -20.8,114 					"/>
					<line class="st5" x1="82.3" y1="56.2" x2="163.1" y2="158.5"/>
				</g>
			</g>
		</g>
		<path id="XMLID_00000003085756882917894730000009234513899640500357_" class="st9" d="M19.3,91.2L35.1,83l10.8,13.8
			c-3.3,3.3-12.4,7.6-15.7,8L19.3,91.2z"/>
		<g class="st3">
			<g>
				<polygon id="XMLID_00000160898277922636178810000003287860956929497254_" class="st30" points="35.1,83 115.8,-6.5 98.3,4 
					19.3,91.2 				"/>
			</g>
		</g>
		<polygon class="st9" points="111.1,181.4 97.3,187 85.4,171.8 98.6,165.7 		"/>
	</g>
	<g id="murals" class="st0">
		
			<ellipse transform="matrix(0.8996 -0.4366 0.4366 0.8996 -27.1045 11.7819)" class="st65" cx="12.1" cy="64.9" rx="6.8" ry="18.5"/>
		<path class="st42" d="M107.4,121.3c-8.5,3-10.4,14.1-8.3,22c2.2,8.3,7.9,15.2,12.4,22.6c4.6,7.4,8.1,15.4,10.5,23.8
			c2.6,9,3.9,18.7,8.8,26.6c4.9,8,15.1,14,23.7,10.3c8.8-3.7,11.6-15.3,9.1-24.5s-8.7-16.8-13.7-24.9c-4.7-7.6-8.4-15.8-11-24.3
			c-2.4-8.2-4-17-9-24C125,122.1,115.7,118.4,107.4,121.3z"/>
		<path class="st19" d="M104.5,127.3c-2.6-4.9-3.7-8.8-5.4-13.1c-2.5-6.2-7.6-3.9-12.8-1.6c-5.2,2.2-25.4,11.5-48.4,19.8
			s-33.1,1.1-39.2-9c-3.9-6.5-9.8-19.5-14.2-31.4c-6.3-16,3.3-24.7,8.7-27.4c3.4-1.8,5.4-2.4,12.5-5.3c7-2.8,11.9,8.6,5.6,11.8
			c-5.3,2.8-5.4,2.4-9.6,4.4c-4.9,2.6-7.3,6.7-3.4,14.8c3,7.2,7.6,18.2,12.4,26.2c4.7,7.9,14.5,6.7,22.4,4.2
			c6.1-1.7,43.6-18,52.9-21.7s16.3-3.1,20.2,1.3c3.9,4.4,7.6,15.3,9.9,22.1C117.7,127.9,107.1,132.2,104.5,127.3z"/>
		<path class="st6" d="M-6.3,63.7c-2.6-2.4-2.5-7.1,0.1-9.5C-9,51.4-9.9,47-8.5,43.4c1.4-3.7,5.1-6.3,9-6.5c-1-3.1,0-6.8,2.5-9
			s6.3-2.6,9.3-1.2c0.9-6.3,9.1-10.1,14.5-6.9c1.7-5.6,9.3-8.4,14.3-5.4c2.4-6.2,10.5-9.5,16.6-6.7C61,2.2,68.5-0.1,74.3,2.5
			c2-6.1,10.1-9.1,15.6-5.9C92-8.3,98.4-11,103.3-9c2.8-4.8,10.2-6.1,14.5-2.6c2.1-5.6,10.1-7.7,14.6-3.9c3.4-4.5,11.9-2.9,13.4,2.5
			c2-0.9,4.7-0.3,6,1.5s1.2,4.5-0.3,6.2c3.5-1.2,7.8,0.3,9.7,3.5s1.5,8.8-1.3,11.3c4.3-1,8.4,3.3,8.6,7.7s-2.6,8.4-5.8,11.4
			c3.5,0.9,4.8,5.7,3.2,8.9s-5.4,4.9-9,5.2c0.6,3.2-1.1,6.6-3.9,8.2c-2.8,1.6-6.6,1.2-9-0.9c-1.8,5.2-8.6,8.1-13.6,5.7
			c-0.6,3.5-3.2,6.5-6.6,7.5c-3.4,1-7.3,0-9.7-2.6c0,3.2-2,6.3-4.9,7.7c-2.9,1.4-6.5,1.1-9.1-0.8c-2.3,6.8-11.5,10.2-17.6,6.4
			c-1.5,6.4-10.3,9.7-15.7,5.8c-0.3,3.1-2.5,6-5.5,7s-6.5,0-8.6-2.4C52.4,89.8,46,94,40.8,92c-0.8-0.3-1.6-0.7-2.4-0.6
			c-1.3,0.3-1.9,1.8-2.7,3c-2.6,4.2-9.7,4.4-12.5,0.3c-1.9,3.2-6.5,4.6-9.9,3c-3.4-1.5-5.2-5.8-4-9.3c-2.3,0.7-4.8-0.8-6.5-2.6
			c-2.6-3.2-3.5-6.3-2.2-9.5"/>
		<path class="st9" d="M17.7,39c4.9,0,10.1,5.8,9.3,8.7c-0.4,1.6-0.7,2.9,0.3,4.2c0.4,0.6,1,0.9,1.6,1.3c2.8,1.8,4.4,5.4,3.8,8.7
			c-0.1,0.4-0.2,0.8-0.1,1.3c0.2,0.6,0.7,1,1.3,1.3c3.3,2.3,3,8.5,0.5,12.1"/>
	</g>
	<g id="characters" class="st0">
		<path class="st3" d="M-18,31.2l14.8,12.5c0,0,5.5-8.6,5.6-15.7s-4-19.3-4-19.3l-17.6,14.6C-21.7,25.6-20.8,29.1-18,31.2z"/>
		<path class="st2" d="M193.8-15.2L28-17.4l-47.5,41.1c-1.9,1.6-1.9,4.6-0.1,6.3l46.5,43l165.8,2.2l15-24.2l0.4-38.3L193.8-15.2z"/>
		<path class="st2" d="M-3.7,43.3c7.2-9.2,7.8-21.1,2.9-31.6"/>
		<path class="st2" d="M26.6,71.2c7.7-4.6,15.6-16.5,10.4-23.8c7.7-9.9,7.5-25.1-0.4-34.8c6.6-8.4,0.9-21.1-6-29.3"/>
		<line class="st66" x1="38.6" y1="12.4" x2="206.5" y2="14.7"/>
		<line class="st67" x1="39" y1="47.5" x2="206.5" y2="49.7"/>
		<line class="st9" x1="143.8" y1="76.9" x2="143.8" y2="173.6"/>
		<line class="st9" x1="132.7" y1="76.9" x2="132.7" y2="178.1"/>
		<path class="st9" d="M132.1,179.4c-1.2-0.5-2.5-1.3-3.7-0.7c-0.5,0.3-0.8,0.7-1.1,1.2c-3.2,4.8-4.9,10.6-5.4,16.3
			c-0.6,5.8-0.1,11.6,0.6,17.4c0.2,1.3,0.4,2.6,1.1,3.7c0.7,1.1,1.9,1.8,3.1,2.3c4,1.7,8.5,1.9,12.6,3.1c6.1,1.9,11.2,6,17.1,8.6
			c8.4,3.8,18.3,4.1,27,0.9c2-0.7,3.9-1.7,5.6-3c4.4-3.5,6.4-9.6,5.5-15.1c-0.3-1.6-0.7-3.1-1.5-4.5c-2.2-3.8-6.7-5.6-11-6.6
			s-8.8-1.4-12.7-3.4c-3.5-1.8-6.3-4.7-7.8-8.3c-2.1-4.9-2-10.8-5.2-15.1c-0.6-0.8-1.3-1.5-2.2-1.9c-0.8-0.3-1.7-0.4-2.5-0.4
			c-2.8,0-5.6,0.6-8.1,1.8c-1.1,0.5-2.2,1.1-2.8,2.1c-0.5,0.8-0.3,1.7-1,2.2C137.9,181.4,133.7,180.2,132.1,179.4z"/>
		<path class="st26" d="M124.1,211.6c7.3,0.9,14.5,2.9,21.6,5.7c4.3,1.7,7.2,4.1,10.7,5.9c2.9,1.5,7.2,2.9,10.4,3.3
			c4.5,0.5,8.3,0,12.7-0.9c4.5-0.9,8-3.9,10.5-7.7c2.1-3.2,2.5-7.9-0.3-10.4"/>
		<path class="st26" d="M152.2,220c1.2-3.5,3.6-6.5,6.6-8.8s6.4-3.8,9.9-5.1c4.8-1.8,10.3-2.9,15.1-1.5"/>
		<path class="st26" d="M141.2,179.8c-0.1,3.6,1.1,7.2,1.8,10.6c0.4,1.9,1,3.8,1.8,5.5c1.3,3.1,3.6,5.8,6.1,8.1s5.3,4.3,8.1,6.2"/>
		<path class="st26" d="M160,191.2c-2.6-0.4-5.3,0-7.7,1.1s-4.4,3-5.6,5.3"/>
		<path class="st26" d="M150.2,202.4c0.2-2,1.6-3.8,3.3-4.9c1.7-1.1,3.8-1.5,5.8-1.9c1.3-0.2,2.7-0.4,3.8,0.2"/>
		<path class="st26" d="M153.5,205.6c0.8-2.4,2.8-4.4,5.1-5.5s4.9-1.4,7.5-1.3"/>
		<path class="st26" d="M171.7,201.8c-5.2-0.1-12.7,1.8-14.1,7.2"/>
		<path class="st26" d="M126.2,184.6c2.1,1.7,4.6,3.1,7.3,3.6c2.7,0.6,5.6,0.3,8-1"/>
		<path class="st26" d="M124.3,190.6c2.8,2,6.2,3.3,9.7,3.7c3,0.3,6.2-0.1,8.7-1.8"/>
		<line class="st9" x1="92.2" y1="76.9" x2="92.2" y2="173.6"/>
		<line class="st9" x1="103.8" y1="76.9" x2="103.8" y2="178.1"/>
		<path class="st9" d="M103.9,179.4c1.2-0.5,2.5-1.3,3.7-0.7c0.5,0.3,0.8,0.7,1.1,1.2c3.2,4.8,4.9,10.6,5.4,16.3
			c0.6,5.8,0.1,11.6-0.6,17.4c-0.2,1.3-0.4,2.6-1.1,3.7c-0.7,1.1-1.9,1.8-3.1,2.3c-4,1.7-8.5,1.9-12.6,3.1c-6.1,1.9-11.2,6-17.1,8.6
			c-8.4,3.8-18.3,4.1-27,0.9c-2-0.7-3.9-1.7-5.6-3c-4.4-3.5-6.4-9.6-5.5-15.1c0.3-1.6,0.7-3.1,1.5-4.5c2.2-3.8,6.7-5.6,11-6.6
			s8.8-1.4,12.7-3.4c3.5-1.8,6.3-4.7,7.8-8.3c2.1-4.9,2-10.8,5.2-15.1c0.6-0.8,1.3-1.5,2.2-1.9c0.8-0.3,1.7-0.4,2.5-0.4
			c2.8,0,5.6,0.6,8.1,1.8c1.1,0.5,2.2,1.1,2.8,2.1c0.5,0.8,0.3,1.7,1,2.2C98.2,181.4,102.3,180.2,103.9,179.4z"/>
		<path class="st26" d="M112,211.6c-7.3,0.9-14.5,2.9-21.6,5.7c-4.3,1.7-7.2,4.1-10.7,5.9c-2.9,1.5-7.2,2.9-10.4,3.3
			c-4.5,0.5-8.3,0-12.7-0.9c-4.5-0.9-8-3.9-10.5-7.7c-2.1-3.2-2.5-7.9,0.3-10.4"/>
		<path class="st26" d="M83.9,220c-1.2-3.5-3.6-6.5-6.6-8.8s-6.4-3.8-9.9-5.1c-4.8-1.8-10.3-2.9-15.1-1.5"/>
		<path class="st26" d="M94.9,179.8c0.1,3.6-1.1,7.2-1.8,10.6c-0.4,1.9-1,3.8-1.8,5.5c-1.3,3.1-3.6,5.8-6.1,8.1s-5.3,4.3-8.1,6.2"/>
		<path class="st26" d="M76,191.2c2.6-0.4,5.3,0,7.7,1.1c2.4,1.1,4.4,3,5.6,5.3"/>
		<path class="st26" d="M85.9,202.4c-0.2-2-1.6-3.8-3.3-4.9c-1.7-1.1-3.8-1.5-5.8-1.9c-1.3-0.2-2.7-0.4-3.8,0.2"/>
		<path class="st26" d="M82.6,205.6c-0.8-2.4-2.8-4.4-5.1-5.5c-2.3-1.1-4.9-1.4-7.5-1.3"/>
		<path class="st26" d="M64.4,201.8c5.2-0.1,12.7,1.8,14.1,7.2"/>
		<path class="st26" d="M109.9,184.6c-2.1,1.7-4.6,3.1-7.3,3.6s-5.6,0.3-8-1"/>
		<path class="st26" d="M111.7,190.6c-2.8,2-6.2,3.3-9.7,3.7c-3,0.3-6.2-0.1-8.7-1.8"/>
		<path class="st26" d="M87.1,180.1c-4.2-0.8-5,4.9-2,6.1C89.5,188,91,181.1,87.1,180.1z"/>
		<path class="st26" d="M148.8,179.7c4.2-0.8,5,4.9,2,6.1C146.4,187.6,144.9,180.7,148.8,179.7z"/>
		<path class="st8" d="M98.2,22c4.4-2,9.3-4.5,10.7-9.2c1.6-5.1-3-11.2-8.3-11c-5.4,0.1-9.7,6.2-8,11.3s8.9,7.4,13.2,4.2"/>
		<path class="st8" d="M143.6,23.5c-4.4-2-9.3-4.4-10.8-9.1c-1.6-5.1,2.8-11.2,8.2-11.2s9.8,6.1,8.2,11.2s-8.8,7.5-13.1,4.4"/>
		<path class="st3" d="M110.1,65.2c-5.6-1.2-11.3-2.9-15.8-6.6c-4.5-3.6-7.7-9.4-6.7-15c0.8-5.2,5.2-9.6,10.4-10.5
			c3.2-0.5,6.5,0.2,9.6,1.3c3.1,1.1,6,2.6,9.1,3.7c5.4,1.9,11.3,2.5,16.8,0.8c3.1-1,6.1-2.6,9.2-3.7s6.7-1.5,9.6,0.1
			c2.7,1.4,4.4,4.4,5.2,7.3c2,6.9-0.2,15.2-6.3,19c-2.9,1.9-5.4,2.7-6.9,3"/>
		<g class="st3">
			<g>
				<path id="XMLID_00000109749178673106510650000009165714078355767211_" class="st56" d="M97.7,61c-1-0.9,0-1.1,0.6-2.3
					c1.2-2.4,6.9-6.1,11.3-6.5c4.9-0.4,10,1.7,14,4.9c2.1-1,6.2-1.9,8.5-1.5c6.1,1.2,9.8,4.8,14.1,12.7c3.4,6.3,4.2,17,3,20.4
					c-1.2,3.4-3.2,10.7-14.9,11.1c-4.6,0.2-15.2-4-19.7-14.6c-2.4-5.6-2.4-18.4-4.3-19.9C108.4,63.8,99.2,62.4,97.7,61z"/>
			</g>
		</g>
		<g class="st3">
			<g>
				<path id="XMLID_00000009589110535574318770000016365680274453246387_" class="st56" d="M92,36.6c3.8-4.8,11.7-3.7,15.9-2
					s11,5.3,20.9,5.1c3.8-0.1,12.1-3.8,16.7-5.1c4.3-1.3,8.8,1.1,10.4,3.9c0.9,1.7-3,4.2-6.3,3.6s-5.1-4.5-6.2-5.7
					c-0.1,3.8-1.6,9.2-6.4,9.3c-3.4,0.2-6.3-1.2-8-5.6c-0.6-0.1-1.1,7.1-7.7,6.6c-7.2-0.1-10.4-7-10.2-9.8c-1.4,1.5-1.6,5.4-9.4,5.6
					C98.6,42.5,92.1,39.4,92,36.6z"/>
			</g>
		</g>
		<path class="st9" d="M110.1,65.2c-5.6-1.2-11.3-2.9-15.8-6.6c-4.5-3.6-7.7-9.4-6.7-15c0.8-5.2,5.2-9.6,10.4-10.5
			c3.2-0.5,6.5,0.2,9.6,1.3c3.1,1.1,6,2.6,9.1,3.7c5.4,1.9,11.3,2.5,16.8,0.8c3.1-1,6.1-2.6,9.2-3.7s6.7-1.5,9.6,0.1
			c2.7,1.4,4.4,4.4,5.2,7.3c2,6.9-0.2,15.2-6.3,19c-2.9,1.9-5.4,2.7-6.9,3"/>
		<path class="st9" d="M97.1,59.9c2.4-3.7,6-6.5,10.3-7.4c4-0.8,8.1,0,11.8,1.6c1.5,0.7,2.9,1.5,4.2,2.4c4.7,3.5,7.1,9.4,8,15.2"/>
		<path class="st9" d="M124.9,56.7c3.2-2.1,7.5-2,11-0.4s6.1,4.5,8.2,7.8c4,6,6,13.3,5.8,20.5c-0.1,2.3-0.3,4.6-1.1,6.7
			c-2.2,5.6-8.3,8.9-14.4,8.7c-6.1-0.2-12-3.3-15.7-8.1c-3.8-4.8-5.4-10.6-6.2-16.7c-0.7-4.9-1.2-10.2-3.9-14.3"/>
		<path class="st9" d="M156.1,41.4c-1.5,2.2-4.6,3.2-7.2,2.4c-2.6-0.8-4.8-3.6-5.3-6.3"/>
		<path class="st9" d="M143.3,37.3c1.9,4.9-1,8.5-4,9.8c-0.7,0.3-1.5,0.5-2.3,0.5c-1.7,0.1-3.4-0.1-4.9-1c-1.4-0.9-2.5-2.5-2.5-4.1"
			/>
		<path class="st9" d="M129.3,42.6c-0.1,5.1-5.6,6.1-8.7,5.9c-2.7-0.1-4.5-0.8-6.4-2.6c-2-1.8-3.1-4.5-3-7.2"/>
		<path class="st9" d="M111.3,38.3c-0.5,1.4-1.6,2.8-2.5,3.7c-1,0.8-2.3,1.4-3.6,1.7c-2.4,0.6-4.9,0.6-7.2-0.2s-4.4-2.3-5.7-4.4"/>
		<path class="st8" d="M52.5,169.4c-3,1.3-7.3,1.4-8.2-10.2c-0.5-6.5-0.1-12.4,4-17.4c2.5-3.1,6.1-5.3,7.3-7.6
			c1.9-3.4,1.3-8.5,1.2-12.8c-0.6-16.2-0.8-35.6,0-51.8c0.4-8.2,11.1-8.5,10.5,0.4c-1.1,17.1-0.6,38.2-0.4,55.3
			c0.1,6.5,0,9,5.2,12.9c4,3,6.9,7.8,7.2,13.2c0.1,1.5-0.2,5.9-1.3,6.9c-2.5,2.4-4.9,1.5-6.4-1c-0.7-1.1-0.4-3.3-0.7-4.5
			c-0.2-1.2-0.3-3.4-1.6-3.3c-1.8,2.9-2.2,9.8-0.8,12.9c1.4,3.1,1.7,3.4,2.4,6.7c0.5,2.6-0.3,5.2-3.5,5.4c-2.9,0.2-5-3.1-5.7-4.7
			c-2-4.4-2.7-8.3-2.5-13.1"/>
		<path class="st9" d="M51.3,154.5c0,3.3,0.2,6.6,0.8,9.8c0.4,2.1,1.5,4.4,2.9,6.1c1.4,1.7,3.9,2.7,6,1.9"/>
		<path class="st68" d="M60.3,146.7c0.8,1,1.5,2.1,2,3.2"/>
		<path class="st68" d="M63.2,147.3c-1.3,0.5-2.6,1.3-3.5,2.4"/>
		<path class="st68" d="M51.8,145c0.8,1,1.5,2.1,2,3.2"/>
		<path class="st68" d="M54.7,145.5c-1.3,0.5-2.6,1.3-3.5,2.4"/>
		<path class="st9" d="M229.6,45.4c-0.4-2.6-0.6-6.9-0.4-9.9c0.1-1.3,0-2.7-0.6-3.9c-0.6-1.2-1.6-2.2-3-2c-3,0.3-3.5,3.4-3.7,5.8
			c-0.4,4.7-0.2,7.6,0.4,12.3"/>
		<path class="st8" d="M236.6,33.7c0.6-2,2.3-2.4,3.6-2.3c1.3,0,2.2,0.9,2.8,2.1c0.5,1.2,0.6,2.6,0.5,3.9c-0.2,3-0.2,6.8,0.1,9.4
			c0.2,1.5,0.6,4.2,0.6,5.1c0.1,3.9-0.3,9.1-3,13.3c-2.6,3.9-2.1,8.4-2.2,13.5c-0.1,17.2-5.6,45.2-27.1,46.3
			c-19.8,1-41.9-16.1-40.4-52c0.3-6.6,9.1-6.4,9.3-0.8c1,28.2,12,41.1,28.2,41.8c19.2,0.8,20.3-34.5,19.9-39.4
			c-0.3-4.6-1.8-7-3.4-8.6c-3.1-3-6.7-4.7-7.2-9c-0.3-3.1,0.9-4.2,2.7-6.8c0.5-0.8,1.1-1.6,2-2c2.1-0.9,4.4-0.4,5.1,2
			c0.6,2.2-0.4,2.9-1.8,4.7c2,0.8,2.8,1.8,3.8,3.8"/>
		<path class="st9" d="M236.4,45.2c-0.4-2.6-0.3-6.4-0.1-9.4c0.1-1.3,0-2.7-0.5-3.9c-0.5-1.2-1.4-2-2.8-2.1c-1.4,0-3.5,0.8-3.8,3.2"
			/>
		<path class="st9" d="M227.9,47.8c2.7-0.8,6.8-1.1,9.7-0.1"/>
	</g>
	<g id="illo_photos" class="st0">
		<path class="st6" d="M-15,82.3c2.9,13.6,43.9,148.3,46.7,159.4c37.2-24.1,117.1-53.6,161.6-62.1C183,156.6,136.2,38,130.9,24.8
			C103.8,14.8-3.2,56.4-15,82.3z"/>
		<path class="st6" d="M-0.2,85.5c2.6,12.1,26.8,90.9,29.8,100.4c33.2-21.6,91.3-42.8,131-50.4c-8.2-21.5-33.3-86.4-38.1-98.2
			C99.2,30.7,11.1,64.7-0.2,85.5z"/>
		<path class="st9" d="M44.5,175c-3.3-5.8-6.7-11.7-8.2-18.2s-0.7-13.9,3.5-19c2-2.4,4.6-4.3,5.9-7.2c1.9-4.4-0.4-9.4-2.7-13.6
			c-3.3-5.9-7-11.7-9.3-18.1s-1.8-14.3,0.6-20.7c3.8-9.9,12.3-14.8,22.3-18.4c6.9-2.5,14.7-2.1,21.3-0.2c5.9,1.7,11,5.8,14.6,10.9
			s5.7,11,6.8,17.1c0.7,3.9,1.1,8,2.4,11.8s3.5,7.5,7.1,9.4c4.1,2.1,9.1,1.5,13.6,2.4c6,1.2,11.2,5.2,15,10
			c3.7,4.9,5.6,9.2,7.4,16.2"/>
		<path class="st9" d="M52.1,83.4c-3.1,5.5-4.7,9.1-6.7,15.1"/>
		<path class="st9" d="M41.4,88.1c5.1,1.5,10.1,3.8,14.6,6.7"/>
		<path class="st9" d="M73.3,74.3c2.8-0.4,5.7,1.8,6.1,4.7s-1.8,5.7-4.7,6.1c-2.8,0.4-5.7-1.8-6.1-4.7
			C68.3,77.6,70.5,74.7,73.3,74.3"/>
		<path class="st9" d="M51.9,109c0.4,2.9,3.2,5.3,6.1,5.3c0.9,0,1.8-0.2,2.7,0c1,0.2,1.9,0.9,2.8,1.4c4.1,2.3,9.8,0.8,12.4-3.1
			c1-1.6,1.6-3.5,3.1-4.6c2.2-1.6,5.3-0.9,7.8-2c2.3-1.1,3.6-3.8,3.6-6.4c0-2.6-1-5.1-2.1-7.4"/>
		<path class="st9" d="M86.3,115.8"/>
		<path class="st9" d="M30.1,127.3"/>
		<path class="st9" d="M18.7,106.5c0,4.4,0.1,6.5,0.5,10.9c1.9-2.2,4-4.3,6.3-6.1c1.1,5.6,1.8,10.3,2.7,16.6"/>
		<path class="st9" d="M97.6,59.9c-1.2-0.6-2-1.7-2.6-2.8c-0.9-1.5-1.4-3.3-1.3-5c0.1-2.4,1.4-4.7,3.2-6.4c1.8-1.7,4.1-2.7,6.4-3.5
			c2.5-0.8,5.2-1.3,7.6-0.3c2.6,1.1,4.3,3.9,4.4,6.7c0.1,2.8-1.2,5.6-3.1,7.6c1.1,2.2,2.2,4.5,3.3,6.8c-3.6,1.4-7.1,3.1-10.4,5.1
			c-0.9-2.1-2.1-4.8-3.1-6.9C101.6,60.9,99.9,61.1,97.6,59.9z"/>
		<path class="st9" d="M100.4,51.2c0.4,1,0.4,1.1,0.8,2.1"/>
		<path class="st9" d="M105.9,48.3c0.4,1.2,0.4,1.1,0.8,2.3"/>
		<path class="st9" d="M59,153.1c1.8,4.1,3.7,8.1,5.7,12.1"/>
		<path class="st9" d="M113,130.4c2.4,4.8,4.4,9.9,6,15"/>
		<path class="st9" d="M117.8,97.9c0.8,5.2,4.4,6.8,8.9,6.7c2.2-0.1,4.2-1.6,6.4-2c3.5-0.5,7.2,1.5,8.7,4.7c0.6,1.4,0.9,2.9,1.6,4.2
			c0.7,1.3,2.2,2.4,3.6,2"/>
		<path class="st9" d="M6.7,88.2c5-1.2,10-2.3,15-3.5"/>
		<path class="st9" d="M17.4,80c2.5,0.7,4.9,1.9,7,3.5c-0.9,2.5-2.2,4.8-3.7,6.9"/>
		<g id="Illustration_00000111164102676681167460000002213428338470021041_" class="st3">
			<g>
				<g>
					<path id="XMLID_00000126280959969285652970000018119541038997896878_" class="st35" d="M158.1,77.9c-4.1,4.8-6.6,9.3-12.3,10.5
						c-4.3,0.9-5.6,0.7-9.9,1.8c-1.1,0.3-4.2,3.1-5.9,4.6c-2,1.8-6.5,6.6-12,1.6c-3.6-3.3-1.6-8.2,0.5-10.5
						c3.8-4.3,4.6-6.1,5.7-10.9c0.7-2.8-0.1-3.4,1-6c1.3-2.9,5.5-8.4,7.7-10.7"/>
				</g>
			</g>
			<g>
				<g>
					<path id="XMLID_00000101071175492072465330000001081494338709757853_" class="st35" d="M227.7-2l-70,80.1
						c-3,3.9-11.1,2.8-18.1-2.5s-10.3-12.7-7.4-16.7l70-80.1"/>
				</g>
			</g>
			<g>
				<g>
					
						<ellipse id="XMLID_00000060030610177604936440000009888709644306114456_" transform="matrix(0.6027 -0.798 0.798 0.6027 94.6223 166.9666)" class="st69" cx="215" cy="-11.5" rx="8.9" ry="15.9"/>
				</g>
			</g>
			<path class="st70" d="M216.9,10.4c-3,3.9-11.1,2.8-18.1-2.5s-10.3-12.7-7.4-16.7l-9.3,10.1c-3,3.9,0.3,11.4,7.4,16.7
				c7,5.3,15.1,6.5,18.1,2.5L216.9,10.4z"/>
			<path class="st70" d="M173,61.2c-3,3.9-10.2,3-17.2-2.3s-10.7-13.2-7.7-17.1l-7.3,8c-3,3.9,0.3,11.4,7.4,16.7s15.1,6.5,18.1,2.5
				L173,61.2z"/>
		</g>
	</g>
	<g id="yay" class="st0">
		<line class="st71" x1="-2.2" y1="24.5" x2="39.6" y2="76.8"/>
		<line class="st71" x1="76.3" y1="14" x2="-3" y2="186.2"/>
		<line class="st71" x1="145.6" y1="43.2" x2="179.8" y2="90"/>
		<line class="st71" x1="218.1" y1="27" x2="161" y2="145.5"/>
		<polyline class="st71" points="55.1,160.4 106,58.5 133.5,197 		"/>
		<line class="st71" x1="72.8" y1="141.3" x2="115.1" y2="138.1"/>
		<path class="st38" d="M231.3,85.9c-0.9,11.1-1.4,12.9-2.8,23.9"/>
		<path class="st38" d="M225.6,140.8c0-0.2-0.4-0.4-0.5-0.2c-0.2,0.2-0.1,0.5,0.2,0.5c-0.9,0.3-1.9-0.5-1.8-1.4s1.2-1.5,2-1.1
			S226.4,140.3,225.6,140.8"/>
	</g>
	<g id="Hey2">
		<path class="st72" d="M66.1,46c-3.5,3.6-5.3,8.8-5.7,13.9c-0.2,2.2-0.1,4.4,0.5,6.5c1.8,7.2,9.4,12.4,16.9,11.7
			c7.4-0.6,14-6.8,15.4-14.2C96.1,49.1,78.7,33,66.1,46z"/>
		<path class="st72" d="M119.6,43.6C118,57,116.4,70.5,114.8,84"/>
		<path class="st72" d="M146.6,46c-1.5,14.3-3,28.7-4.5,43"/>
		<path class="st72" d="M120.8,66.4c6.2,0.1,12.5,0.7,18.6,1.6"/>
		<path class="st72" d="M47.4,108c-1.2,14.9-2.3,29.7-3.4,44.4"/>
		<path class="st72" d="M76.7,109.9c-1.4,15.7-2.6,31.4-4,47.1"/>
		<path class="st72" d="M51.2,133.4c5.8,0.1,11.6,0.3,17.3,0.4"/>
		<path class="st72" d="M122.1,115.3c-6.2-0.6-12.4-1.2-18.6-1.7c-0.7-0.1-1.6,0-2.1,0.5c-0.3,0.4-0.5,1-0.5,1.5
			c-1.3,14.3-2.6,28.5-3.8,42.6c6.9,0.7,13.8,1.5,20.9,2.2"/>
		<path class="st72" d="M103.5,136.6c3.6,0.4,7.1,0.8,10.6,1.2"/>
		<path class="st72" d="M141.1,117.1c4.4,6.9,9.4,13.4,15.1,19.3"/>
		<path class="st72" d="M170.6,120.2c-8.9,14.9-18.7,29.2-29.6,42.9"/>
		<path class="st73" d="M237.6,124.6c1.6,1.2,1.3,3.7-0.6,4.2c-8.6,2.5-20,5.3-38.1,8.7c-1,17.4-10.9,36.5-24.7,48.4
			c-25.5,22.6-82.3,18.5-109,10.8c-18.7-5.6-31-13-43.1-26.1S5.6,137.4,4.5,119.7c-1.1-7.1-0.9-19.3-0.1-26.4
			c1.2-10.4,4.3-21.6,7.4-31.4C21.9,29,52,7.7,84,4.3c8.6-0.9,17.1-0.6,25.7,0.1c17.5,1.5,35.1,4.9,50.6,14
			c24.6,14.6,45.7,35.7,42.5,80C218.7,111,224,114.6,237.6,124.6z"/>
	</g>
</g>
<g id="Functional" class="st0">
	<g id="Plus_line" class="st3">
		<path class="st30" d="M119.9,99.4c0,14.1-9.9,25.4-25,25.9c-14.2,0.5-25.5-8.2-25.8-23.7s10.4-27.4,25.7-27.7
			C109,73.8,119.9,84.2,119.9,99.4z"/>
		<path class="st74" d="M94.9,86.5c-0.6,8.9-0.8,17.9-0.4,26.8"/>
		<path class="st74" d="M81.5,99.6c8.6-0.6,17.3-0.9,26-0.9"/>
	</g>
	<g id="Plus_filled" class="st3">
		<path class="st31" d="M119.9,99.4c0,14.1-9.9,25.4-25,25.9c-14.2,0.5-25.5-8.2-25.8-23.7s10.4-27.4,25.7-27.7
			C109,73.8,119.9,84.2,119.9,99.4z"/>
		<path class="st75" d="M94.9,86.5c-0.6,8.9-0.8,17.9-0.4,26.8"/>
		<path class="st75" d="M81.5,99.6c8.6-0.6,17.3-0.9,26-0.9"/>
	</g>
	<g id="Minus_line" class="st3">
		<path class="st30" d="M119.9,99.4c0,14.1-9.9,25.4-25,25.9c-14.2,0.5-25.5-8.2-25.8-23.7s10.4-27.4,25.7-27.7
			C109,73.8,119.9,84.2,119.9,99.4z"/>
		<path class="st74" d="M81.5,99.6c8.6-0.6,17.3-0.9,26-0.9"/>
	</g>
	<g id="Minus_filled" class="st3">
		<path class="st31" d="M119.9,99.4c0,14.1-9.9,25.4-25,25.9c-14.2,0.5-25.5-8.2-25.8-23.7s10.4-27.4,25.7-27.7
			C109,73.8,119.9,84.2,119.9,99.4z"/>
		<path class="st75" d="M81.5,99.6c8.6-0.6,17.3-0.9,26-0.9"/>
	</g>
	<g id="Close_black" class="st3">
		<path class="st30" d="M119.9,99.4c0,14.1-9.9,25.4-25,25.9c-14.2,0.5-25.5-8.2-25.8-23.7s10.4-27.4,25.7-27.7
			C109,73.8,119.9,84.2,119.9,99.4z"/>
		<path class="st74" d="M103.1,110.2C97.8,103,92,96.1,85.9,89.6"/>
		<path class="st74" d="M103.6,90.2c-6.5,5.4-13.2,12-18.5,18.5"/>
	</g>
	<g id="Close_white" class="st3">
		<path class="st32" d="M119.9,99.4c0,14.1-9.9,25.4-25,25.9c-14.2,0.5-25.5-8.2-25.8-23.7s10.4-27.4,25.7-27.7
			C109,73.8,119.9,84.2,119.9,99.4z"/>
		<path class="st75" d="M103.1,110.2C97.8,103,92,96.1,85.9,89.6"/>
		<path class="st75" d="M103.6,90.2c-6.5,5.4-13.2,12-18.5,18.5"/>
	</g>
	<g id="Radio_unchecked" class="st3">
		<path class="st30" d="M119.9,99.4c0,14.1-9.9,25.4-25,25.9c-14.2,0.5-25.5-8.2-25.8-23.7s10.4-27.4,25.7-27.7
			C109,73.8,119.9,84.2,119.9,99.4z"/>
	</g>
	<g id="Radio_checked" class="st3">
		<path class="st30" d="M119.9,99.4c0,14.1-9.9,25.4-25,25.9c-14.2,0.5-25.5-8.2-25.8-23.7s10.4-27.4,25.7-27.7
			C109,73.8,119.9,84.2,119.9,99.4z"/>
		<path class="st31" d="M107.3,99.6c0,7.1-5,12.8-12.6,13c-7.1,0.3-12.8-4.1-13-11.9c-0.1-7.8,5.2-13.8,12.9-13.9
			C101.8,86.7,107.3,91.9,107.3,99.6z"/>
	</g>
	<g id="Error_Black" class="st3">
		<path class="st30" d="M119.9,99.4c0,14.1-9.9,25.4-25,25.9c-14.2,0.5-25.5-8.2-25.8-23.7s10.4-27.4,25.7-27.7
			C109,73.8,119.9,84.2,119.9,99.4z"/>
		<path class="st74" d="M94.3,83.7c0.1,6.6,0.2,11.1,0.3,17.7"/>
		<g>
			<path d="M94.7,119.5c-2.9,0-5.3-2.3-5.3-5.2s2.4-5.2,5.3-5.2c2.9,0,5.3,2.3,5.3,5.2S97.6,119.5,94.7,119.5z"/>
		</g>
	</g>
	<g id="Error_Black_copy" class="st3">
		<path class="st32" d="M119.9,99.4c0,14.1-9.9,25.4-25,25.9c-14.2,0.5-25.5-8.2-25.8-23.7s10.4-27.4,25.7-27.7
			C109,73.8,119.9,84.2,119.9,99.4z"/>
		<path class="st75" d="M94.3,83.7c0.1,6.6,0.2,11.1,0.3,17.7"/>
		<g>
			<path class="st56" d="M94.7,119.5c-2.9,0-5.3-2.3-5.3-5.2s2.4-5.2,5.3-5.2c2.9,0,5.3,2.3,5.3,5.2S97.6,119.5,94.7,119.5z"/>
		</g>
	</g>
	<g id="Menu_black" class="st3">
		<path class="st5" d="M76.5,77.7c12.8-0.5,26.4-0.3,39.2,0"/>
		<path class="st5" d="M76.5,97.7c12.8-0.5,26.4-0.3,39.2,0"/>
		<path class="st5" d="M76.5,117.8c12.8-0.5,26.4-0.3,39.2,0"/>
	</g>
	<g id="Menu_whiteopy" class="st3">
		<path class="st76" d="M76.5,77.7c12.8-0.5,26.4-0.3,39.2,0"/>
		<path class="st76" d="M76.5,97.7c12.8-0.5,26.4-0.3,39.2,0"/>
		<path class="st76" d="M76.5,117.8c12.8-0.5,26.4-0.3,39.2,0"/>
	</g>
	<g id="Drop_down" class="st3">
		<path class="st31" d="M77,82.8c-2.8,0.8,16.6,36,18.6,36.4c1.4,0.3,6.1-9.1,11.3-18.1c8.2-14.1,9.9-16.7,7.9-17.5
			C111.4,82.2,81.9,81.3,77,82.8z"/>
	</g>
	<g id="heckbox_unchecked" class="st3">
		<path class="st30" d="M116,78.8c-2.1-1.5-39.7-1.6-40.7,0.3c-1.4,2.8-2.3,39.8,0,42.6c1,1.2,39.2,1.7,40.4,0.3
			C117.1,120.3,118,80.2,116,78.8z"/>
	</g>
	<g id="heckbox_checked" class="st3">
		<path class="st30" d="M116,78.8c-2.1-1.5-39.7-1.6-40.7,0.3c-1.4,2.8-2.3,39.8,0,42.6c1,1.2,39.2,1.7,40.4,0.3
			C117.1,120.3,118,80.2,116,78.8z"/>
		<path class="st74" d="M84.6,103.4c4,2.5,7.7,5.3,11.3,8.5c7.9-15.8,16.4-29.6,24.9-41.8"/>
	</g>
</g>
</svg>
