<?xml version="1.0" encoding="utf-8"?>
<!-- Generator: Adobe Illustrator 27.7.0, SVG Export Plug-In . SVG Version: 6.00 Build 0)  -->
<svg version="1.1" xmlns="http://www.w3.org/2000/svg" xmlns:xlink="http://www.w3.org/1999/xlink" x="0px" y="0px"
	 viewBox="0 0 276.5 241.6" style="enable-background:new 0 0 276.5 241.6;" xml:space="preserve">
<style type="text/css">
	.st0{display:none;}
	.st1{display:inline;fill:#FFFFFF;}
	.st2{display:inline;fill:none;stroke:#000000;stroke-width:7;stroke-linecap:round;stroke-linejoin:round;}
	.st3{display:inline;}
	
		.st4{fill:none;stroke:#000000;stroke-width:5;stroke-linecap:round;stroke-linejoin:round;stroke-miterlimit:10;stroke-dasharray:12.0086;}
	.st5{fill:none;stroke:#000000;stroke-width:7;stroke-linecap:round;stroke-linejoin:round;stroke-miterlimit:10;}
	.st6{display:inline;fill:none;stroke:#000000;stroke-width:7;stroke-linecap:round;stroke-linejoin:round;stroke-miterlimit:10;}
	.st7{display:inline;stroke:#000000;stroke-width:5;stroke-linecap:round;stroke-linejoin:round;stroke-miterlimit:10;}
	
		.st8{display:inline;fill:#FFFFFF;stroke:#000000;stroke-width:7;stroke-linecap:round;stroke-linejoin:round;stroke-miterlimit:10;}
	
		.st9{display:inline;fill:#FFFFFF;stroke:#000000;stroke-width:5;stroke-linecap:round;stroke-linejoin:round;stroke-miterlimit:10;}
	.st10{display:inline;fill:none;stroke:#000000;stroke-width:5;stroke-linecap:round;stroke-linejoin:round;stroke-miterlimit:10;}
	
		.st11{display:inline;fill:none;stroke:#000000;stroke-width:6;stroke-linecap:round;stroke-linejoin:round;stroke-miterlimit:10;stroke-dasharray:9.0067;}
	
		.st12{display:inline;fill:#FFFFFF;stroke:#000000;stroke-width:6.6669;stroke-linecap:round;stroke-linejoin:round;stroke-miterlimit:10;}
	.st13{display:inline;stroke:#000000;stroke-width:5.2082;stroke-linecap:round;stroke-linejoin:round;stroke-miterlimit:10;}
	
		.st14{display:inline;fill:none;stroke:#000000;stroke-width:5.2082;stroke-linecap:round;stroke-linejoin:round;stroke-miterlimit:10;}
	
		.st15{display:inline;fill:none;stroke:#000000;stroke-width:7.2914;stroke-linecap:round;stroke-linejoin:round;stroke-miterlimit:10;}
	
		.st16{display:inline;fill:#FFFFFF;stroke:#000000;stroke-width:7.2914;stroke-linecap:round;stroke-linejoin:round;stroke-miterlimit:10;}
	
		.st17{display:inline;fill:#FFFFFF;stroke:#000000;stroke-width:5.2082;stroke-linecap:round;stroke-linejoin:round;stroke-miterlimit:10;}
	.st18{fill:none;stroke:#FFFFFF;stroke-width:5.2082;stroke-linecap:round;stroke-linejoin:round;stroke-miterlimit:10;}
	.st19{fill:none;stroke:#FFFFFF;stroke-width:3.1249;stroke-linecap:round;stroke-linejoin:round;stroke-miterlimit:10;}
	
		.st20{display:inline;fill:#FFFFFF;stroke:#000000;stroke-width:5;stroke-linecap:round;stroke-linejoin:round;stroke-miterlimit:10.0005;}
	
		.st21{display:inline;fill:#FFFFFF;stroke:#000000;stroke-width:6.8393;stroke-linecap:round;stroke-linejoin:round;stroke-miterlimit:10;}
	.st22{display:inline;fill:none;stroke:#000000;stroke-width:7;stroke-miterlimit:10;}
	.st23{display:inline;stroke:#000000;stroke-width:0.5798;stroke-miterlimit:10;}
	.st24{display:inline;stroke:#000000;stroke-width:0.6254;stroke-miterlimit:10;}
	.st25{display:inline;fill:none;stroke:#000000;stroke-width:3;stroke-linecap:round;stroke-linejoin:round;stroke-miterlimit:10;}
	.st26{fill:none;stroke:#000000;stroke-width:5;stroke-linecap:round;stroke-linejoin:round;stroke-miterlimit:9.9998;}
	
		.st27{display:inline;fill:none;stroke:#000000;stroke-width:2.5869;stroke-linecap:round;stroke-linejoin:round;stroke-miterlimit:10;}
	.st28{display:inline;stroke:#000000;stroke-width:3;stroke-linecap:round;stroke-linejoin:round;stroke-miterlimit:10;}
	.st29{fill:none;stroke:#000000;stroke-width:5;stroke-linecap:round;stroke-linejoin:round;stroke-miterlimit:10;}
	.st30{stroke:#000000;stroke-width:5;stroke-linecap:round;stroke-linejoin:round;stroke-miterlimit:10;}
	.st31{fill:none;stroke:#FFFFFF;stroke-width:5;stroke-linecap:round;stroke-linejoin:round;stroke-miterlimit:10;}
	.st32{fill:none;stroke:#FFFFFF;stroke-width:4.2881;stroke-linecap:round;stroke-linejoin:round;stroke-miterlimit:10;}
	.st33{display:inline;fill:none;stroke:#000000;stroke-width:15;stroke-linecap:round;stroke-linejoin:round;stroke-miterlimit:10;}
	.st34{fill:#FFFFFF;stroke:#000000;stroke-width:7;stroke-linecap:round;stroke-linejoin:round;stroke-miterlimit:10;}
	.st35{fill:none;stroke:#000000;stroke-width:7;stroke-linecap:round;stroke-linejoin:round;stroke-miterlimit:10.001;}
	.st36{display:inline;stroke:#000000;stroke-width:3.517;stroke-linecap:round;stroke-linejoin:round;stroke-miterlimit:10;}
	.st37{fill:none;stroke:#000000;stroke-width:20;stroke-linecap:round;stroke-linejoin:round;stroke-miterlimit:10;}
	.st38{fill:none;stroke:#000000;stroke-width:21.283;stroke-linecap:round;stroke-linejoin:round;stroke-miterlimit:10;}
	.st39{fill:none;stroke:#000000;stroke-width:20.5052;stroke-linecap:round;stroke-linejoin:round;stroke-miterlimit:10;}
	.st40{fill:none;stroke:#000000;stroke-width:7.449;stroke-linecap:round;stroke-linejoin:round;stroke-miterlimit:10;}
</style>
<g id="Pointing_Hand" class="st0">
	<path class="st1" d="M114.7-7.9C95.2-4.7,46.4,37.5,45,83.4c-0.8,25.8,24.5,41,28.7,46c1.8,7.2-2.8,75.9,0.1,98.3
		c2.1,16.4,13.8,41.3,27,40.9c14-0.4,19.9-13.7,19.9-27.7c0-14-3.5-34.4-3.5-42.5c0-8.1-1.2-33.7-0.3-37c5.5,1.4,11.6,9.3,19.3,8.8
		c6.9-0.5,12.8-8.2,18.4-9.6c4.3-1,7.4,10.4,18.6,12.2c8.3,1.3,15.7-9.8,18-9.8c5.4,0,8,11.6,20.6,8.9c21.2-4.5,19.5-41.5,18.1-52.3
		s-6.4-64.4-10.5-77.2c-4.9-15.1-15.5-35.7-38.7-42.2C167.7-3.5,131.7-10.6,114.7-7.9z"/>
	<path class="st2" d="M122.3,41.3c-3.2,17.5-14.9,33.3-30.8,41.3c10.5,5.6,19.3,14.2,25.2,24.5c3.5,6.1,5.9,13.5,3.4,20
		c-3.6,9.1-15.4,12.1-25.1,10.6C77.3,135,62.6,122.1,52.9,107c-3.5-5.4-6.5-11.3-7.5-17.7C43.9,80.9,46,72.1,49,63.9
		C56.2,43.8,68.3,25.5,84,11c8.6-8,18.5-14.9,29.7-18s48.9-1.4,74.8,11.1c28.8,15.2,36.1,38.4,40.6,115.4"/>
	<path class="st2" d="M116.6,160.1c-2.9,26.6,4.3,53.3,3.8,80c-0.1,6-0.6,12.2-3.2,17.7c-2.6,5.5-7.5,10.1-13.5,10.9
		c-9.6,1.2-17.5-7.6-21.7-16.4c-8.3-17.5-9-37.6-9.1-56.9c-0.1-21.2,0.5-42.4,1.7-63.6"/>
	<path class="st2" d="M112.4,135.5c-0.5,6.7-0.2,12.5,2.1,18.8s6.8,12.1,13.1,14.5c10.5,4.1,22.8-2.4,28.6-12
		c5.9-9.6,6.7-21.4,6.3-32.6c-0.3-9.1-1.3-18.6-6.1-26.4s-14.3-13.3-23.1-10.9c-9.1,2.5-14.3,12.2-15.5,21.6"/>
	<path class="st2" d="M156.2,157.2c2.5,7.1,7.6,14.2,15,15.5c7.9,1.4,15.5-4.5,19.8-11.2c9.6-15.1,8.3-35.3,0.8-51.5
		c-3.1-6.8-7.6-13.4-14.4-16.4s-16.3-0.8-19.1,6.1"/>
	<path class="st2" d="M191.5,160.6c2.5,7.1,5.9,10.8,13.4,12c7.9,1.4,15.5-4.5,19.8-11.2c9.6-15.1,8.3-35.3,0.8-51.5
		c-3.1-6.8-7.6-13.4-14.4-16.4s-17.8-0.1-20.6,8.3"/>
</g>
<g id="Newsletter" class="st0">
	<g id="dotted_line" class="st3">
		<path class="st4" d="M50.1,81.5c-46.5,11.7-69.3,63-26.4,93.5c63.4,34,69.8-50.6,152.8-44.9c58.5,0.6,82.9,54.4,62.8,80.3
			c-40.1,52-92.1-29-128.9,13.8c-12.6,14.6-17.2,24.8-17.1,40"/>
	</g>
	<g id="plane" class="st3">
		<polyline class="st5" points="265.1,52.4 39,110.4 80.4,66.8 275.4,51.3 124.6,103.4 107.2,94.2 		"/>
		<path class="st5" d="M103.6,41.4l171.8,9.9l-139.4-31L103.6,41.4c0,0,11.5,20.9,11.9,21.6"/>
	</g>
</g>
<g id="LinkedIn_NOT" class="st0">
	<path class="st6" d="M68.3-3.4C58.1,63.3,24.7,164.1,5.9,206.4c53.7,27.9,82,39.6,142.8,57.3c12.6,4.3,61.2-18.8,68.3-28.6
		c18.4-40.4,48.6-136.7,55.7-182C205.2,40.5,129.8,18.9,68.3-3.4z"/>
	<path class="st6" d="M147.1,262.9c9.8,2,18.8-37.3,29.4-40c7.5-0.8,28.8,18.8,39.6,12"/>
	<path class="st7" d="M96.5,85.9c-3.2,10.6-18.5,58.8-26.6,77c6.5,4.7,17.6,8.1,23.1,9c7.1-16.6,21.9-56,27.7-76.7
		C117.8,91.8,103.2,86.8,96.5,85.9z"/>
	<path class="st7" d="M134.3,99.9c-6.9,23.3-20.1,60.6-26.6,77c6.5,4.7,17.6,8.1,23.1,9c5.3-10.9,21.9-56,27.7-76.7
		C155.6,105.7,141.1,100.7,134.3,99.9z"/>
	<path class="st7" d="M154.5,117.9c2.9-1.8,9.4-9.7,28.8-3.7c36.8,11.6,12.4,52-0.8,90.3c-9.1-0.8-21.5-6.3-24.1-8.2
		c6.6-15.8,12.6-31.6,14.8-39.6c4.8-17.4,1.4-21.8-4.5-24.2c-6.8-2.7-15.1-1.1-18.7,4.1C145.8,140.7,154.5,117.9,154.5,117.9z"/>
	<path class="st7" d="M130.6,69.7c-2.4,7.4-9.1,12-17.8,9c-7.4-2.5-11.7-10.4-9.2-17.7c2.8-8.3,9.8-11.6,18.6-8.7
		C129.6,54.8,132.9,62.3,130.6,69.7z"/>
</g>
<g id="LinkedIn_00000150104747717848862800000002388172020763015823_" class="st0">
	<path class="st6" d="M53.8,24.3c4.2,110.2,1.1,161.2-43.6,235.3c9.3,0.5,20.4,1.4,31.8,1.4c6.7-7.3,11.7-16.4,19.1-34.4
		c1.8,0,20.1-1.2,25.9-1c-4.8,17.1-12.6,27.6-19.1,37.4c8.6-0.1,21.5,0.3,30.5,0c8.5-9.3,13.6-21.4,18.4-38
		c5.2-0.2,26.3-0.9,31.5-1.2c-3.5,17.1-12.3,28.1-17.6,37.1c12.9-0.8,26.6-1,34.9-2.8c5.2-9.7,13.1-21.3,15.4-36.4
		c5.9-0.4,27.3-2.7,32.6-3.1c-3.4,18.3-13,28.5-16.4,36.9c16.7-1.6,25.9-1.3,33.4-3c15.6-20.3,40.1-111.6,20.9-251.6
		C171.6-0.1,115.3,11.2,53.8,24.3z"/>
	<path class="st7" d="M95.3,86.7c1,16.9-2.4,56.1-8.7,82.9c7.3,1.7,18.9,0.4,24.4-1.1c4.9-18,10.8-60.8,9.8-83.1
		C117.3,83.4,102.1,84.7,95.3,86.7z"/>
	<path class="st7" d="M135.2,84.2c0.8,25.7-3.8,63.1-8.7,82.9c7.3,1.7,18.9,0.4,24.4-1.1c4.3-14.2,10-61.6,9.8-83.1
		C157.1,80.8,141.9,82.1,135.2,84.2z"/>
	<path class="st7" d="M158.8,92.7c2.4-2.9,7.7-11.7,30.1-13.2c37.4-0.2,25.2,62.5,19.8,83.1c-9,3-22.3,2.9-25.2,2.3
		c4.2-18.7,5.8-33.2,6.1-41.6c0.8-18.2-7.3-23-13.7-22.8c-7.2,0.3-14.9,5.2-17.3,11.5C155.4,117.6,158.8,92.7,158.8,92.7z"/>
	<path class="st7" d="M124.8,57.5c-0.7,7.9-6.2,14.9-15.3,15.8c-7.8,0.7-13.7-4.9-12.9-12.8c0.9-8.9,6.9-14.9,16.1-15.8
		C120.5,43.9,125.4,49.6,124.8,57.5z"/>
	<line class="st8" x1="154.1" y1="24.2" x2="133.9" y2="12.2"/>
	<path class="st9" d="M137.9,1c5.1,1.7,7.4,6.7,4.2,14.3c-2.6,6.3-8.5,9.4-13.7,7.3c-4.5-1.8-6.2-6.9-3.6-12.9
		C127.5,3.7,132.1-1,137.9,1z"/>
	<path class="st10" d="M166.6,16.9c-7.8,4.2-13,12.9-13,21.8"/>
	<path class="st10" d="M154.5,27.1c-3.7-0.4-7.7,1.5-9.6,4.6"/>
	<path class="st10" d="M156.6,21.7c-1.2-2-1.5-4.5-0.8-6.7"/>
	<path class="st11" d="M39.7,205.6c26.2,1.1,70.4-0.4,106.9-1.8c36.6-1.4,78.7-4.1,105.9-7.4"/>
</g>
<g id="Cara" class="st0">
	<path class="st12" d="M140,127.9c19.7,12.2,120.8,6.1,118-72c-1.8-50.9-68.5-62-110-52.7C110.2,11.7,56.1,33.8,46.3,127
		C32,262.6,232.7,298.2,257.6,205.8c15.1-56.2-54-76.2-69-74.6"/>
</g>
<g id="instagram_NOT" class="st0">
	<path class="st13" d="M225.5,16.4c0.3-2.9,0.8-5.1,6.2-6.8c6.5-2.1,34.7-2.6,41.2,2.9s6.5,33.2,1.8,40S253.2,57,253.2,57
		L225.5,16.4z"/>
	<path class="st1" d="M242,124.9c-1.2-19.1-2.4-34.7-2.6-42.6c-0.2-5.3-2.2-17.4,7.4-22.4c9.7-5,15.6-8.3,19.4-11.8
		c3.2-2.9,3.2-22.5,0.6-27.1c-2.9-5-31.2-4.7-35.3-4.4s-4.2,1.6-8.8,2.4c-7.4,1.2-3.5-5.3-26.5-8.5c-9.1-1.3-87.2-5.6-98.2-4.4
		c-16.2,1.8-29.4,4.4-36.5,13.5"/>
	<path class="st1" d="M241.1,88.5c5,3.2,28.2,21.5,28.2,27.1c0,5.6-0.9,42.4-8.2,46.5c-8.5,4.7-86.8,33.5-93.8,33.2
		c-7.1-0.3-137.6-21.1-139.4-23.2c-3.2-3.8-6.5-16.5-7.6-26.2c-1.2-9.7-1.3-29.6,1.2-31.8c3.2-2.9,37.6-19.7,37.6-19.7
		c0-10.9-0.4-57.1,0-65.6c0.6-12.4,11.8-14.7,36.5-14.4s85.6,3.8,100.6,5.9c15,2.1,25.9,8,27.4,25c1.5,17.6,1.2,70.9,0.9,85.3"/>
	<path class="st14" d="M242,124.9c-1.2-19.1-2.4-34.7-2.6-42.6c-0.2-5.3-2.2-17.4,7.4-22.4c9.7-5,15.6-8.3,19.4-11.8
		c3.2-2.9,3.2-22.5,0.6-27.1c-2.9-5-28.2-4.9-32.4-4.6c-2.2,0.2-7,1.3-9,2c-5.7,2-2.6-2.6-16.1-5.9c-3.2-0.8-7.4-1.5-13.1-2.1
		c-9.2-1-87.2-5.6-98.2-4.4c-16.2,1.8-29.4,4.4-36.5,13.5"/>
	<path class="st15" d="M241.1,88.5c5,3.2,28.2,21.5,28.2,27.1c0,5.6-0.9,42.4-8.2,46.5c-8.5,4.7-86.8,33.5-93.8,33.2
		c-7.1-0.3-137.6-21.1-139.4-23.2c-3.2-3.8-6.5-16.5-7.6-26.2c-1.2-9.7-1.3-29.6,1.2-31.8c3.2-2.9,37.6-19.7,37.6-19.7
		c0-10.9-0.4-57.1,0-65.6c0.6-12.4,11.8-14.7,36.5-14.4s85.6,3.8,100.6,5.9c15,2.1,25.9,8,27.4,25c1.5,17.6,1.2,70.9,0.9,85.3"/>
	<path class="st15" d="M269.4,115.5c-13.5,6.8-85.3,30-91.8,30.6c-6.5,0.6-152.9-20.9-156.8-21.5"/>
	<path class="st15" d="M21.4,114.1c3.8,0.3,142.6,20,154.7,19.4c5.6-0.3,40.6-14.7,47.6-17.9"/>
	<path class="st15" d="M176.1,133.5c1.5,5.9,1.2,52.6-6.5,60.3"/>
	<line class="st15" x1="57.6" y1="95.2" x2="222" y2="112.9"/>
	<path class="st16" d="M49.7,146.8c-23.8,11.6-50.6,61.4-49.4,98.4c31.2,4.7,87.6,13.5,123.8,19.1c-2.6-59.1,22.6-85.9,34.4-96.2"/>
	<path class="st13" d="M67,148.8c-16.4,7.5-39.1,32.4-47.4,69.4c26.2,3.8,60.2,9,90.2,13.7c3.5-31,18.6-58.1,38-71.1"/>
	<polyline class="st15" points="37,154.1 36.7,144.4 161.4,162 160.5,176.7 152,175.9 	"/>
	<polygon class="st14" points="175.2,32.9 176.4,61.7 206.4,65.5 205.5,36.1 	"/>
	<polyline class="st14" points="205,56.1 186.3,54 185.5,34.6 	"/>
	<path class="st14" d="M76.5,74.6c2.2-1.1,4.2-1.7,6.1-1.7c3-0.1,5.4,1.9,5.9,5.4c0.5,2.8,0,5.6-4.2,7.1c-0.8,0.3-2,0.8-4.6,1.1"/>
	<path class="st14" d="M84.7,79.6c0.3,3.5-1.6,6.5-4.9,6.7c-4,0.2-6.5-2.3-6.8-5.9c-0.3-3.5,2.4-6.1,5.6-6.4
		C81.8,73.9,84.4,76.1,84.7,79.6z"/>
	<path class="st13" d="M173.3,80.3c3.2-1.6,6.1-2.4,8.9-2.5c4.3-0.2,7.8,2.7,8.7,7.8c0.7,4.1,0,8.2-6.2,10.3c-1.2,0.4-3,1.1-6.7,1.6
		"/>
	<path class="st17" d="M185.2,87.7c0.4,5.2-2.4,9.5-7.2,9.8c-5.8,0.3-9.5-3.4-9.9-8.5c-0.4-5.2,3.5-9,8.2-9.3
		C181,79.3,184.8,82.5,185.2,87.7z"/>
	<path class="st15" d="M130.6,88.5c12.9-3.2,21.6-5.2,27-9.4c8.1-6.3,10.5-15.3,9.7-25c-1.3-16.3-11.8-28.4-30.8-27.5
		c-8.7,0.4-20.3,2.7-27.1,6.9"/>
	<path class="st15" d="M153.3,59.4c0,18.8-13,29.4-29,29.7C106.2,89.4,95.9,74,95.9,57.6s12.4-27.8,28.4-27.8S153.3,43,153.3,59.4z"
		/>
	<path class="st13" d="M151.2,70.4c-3.3,5.2-8.9,8-15.3,8.1c-11.5,0.2-18.1-10.1-18.1-21.1s7.9-18.6,18.1-18.6
		c5.6,0,10.6,2.7,14,6.9"/>
	<polyline class="st14" points="116.5,89.1 116.5,101.7 82.7,121.4 	"/>
	<polyline class="st14" points="144.8,88.8 145.1,105.2 128.3,127 	"/>
	<polyline class="st14" points="125.7,92 125.7,102.9 99.2,123.5 	"/>
	<polyline class="st14" points="135.1,91.7 135.1,104.1 114.8,124.9 	"/>
	<line class="st14" x1="257.9" y1="26.4" x2="235" y2="38.6"/>
	<line class="st13" x1="176.4" y1="61.7" x2="186.3" y2="54"/>
	<path class="st14" d="M211.9,13.4c6.5,1.9,14.7,8.3,16.6,14.1"/>
	<g id="Layer_7" class="st3">
		<path class="st18" d="M54.3,190.5c-2.1-1.4-2.8-4-2.8-6.5c-0.1-4.4,1.7-8.8,4.8-12c3.4-3.4,8-5.3,12.7-6.4
			c5.3-1.3,11-1.8,16.4-0.6c5.4,1.3,10.4,4.5,13,9.4c1.3,2.4,2,5.2,2.2,8c0.2,2.2,0.2,4.4-0.5,6.4c-1.2,3.7-4.5,6.4-8,7.9
			s-7.5,1.8-11.4,1.8c-1.1,0-2.3,0-3.1,0.8c-0.4,0.4-0.7,1-1,1.5c-1,2.2-1.8,4.6-2.4,6.9c-0.1,1.2-1,1.8-2.1,1.9
			c-3.5,0.9-12.4-1-18.5-2.4C44.2,205.2,49.1,201.7,54.3,190.5z"/>
		<path class="st19" d="M63.2,181.4c3.7-2.9,5.2-3.6,9.7-5"/>
		<path class="st19" d="M65.3,174.9c2.1,3.3,3.3,4.1,4.4,7.9"/>
		<path class="st19" d="M78.5,184.9c3.7-2.9,5.2-3.6,9.7-5"/>
		<path class="st19" d="M80.5,178.5c2.1,3.3,3.3,4.1,4.4,7.9"/>
		<path class="st19" d="M68.4,198.5c-1.6,3.3-2.9,6.8-3.9,10.4"/>
		<path class="st19" d="M60.7,196.6c-1.7,3.3-3,6.7-4.1,10.3"/>
	</g>
</g>
<g id="Instagram" class="st0">
	<polygon class="st6" points="9.8,36.8 7.3,177.8 223.6,252.2 224.2,104.2 	"/>
	<polyline class="st6" points="9.8,36.8 68.9,16 272.8,76.3 270.3,217.2 223.6,252.2 	"/>
	<line class="st6" x1="224.2" y1="104.2" x2="268.6" y2="80.3"/>
	<path class="st9" d="M229,72.2c-0.7,5-10.5,6.7-20.5,4c-10-2.7-17.4-7.5-15.6-13.8c1.4-4.9,10.5-6.7,20.5-4
		C223.4,61.1,229.9,65.4,229,72.2z"/>
	<path class="st10" d="M192.9,62.4c-0.7,2.5-1.2,11.8-1.2,11.8c0.3,5,6.4,7.8,16.3,10.6c10,2.7,19.2,1,20.5-4c0.7-3,0.9-7.5,0.6-9.3
		"/>
	<path class="st9" d="M83.5,31c-0.3,3.7-6.6,5.5-13.1,4.1c-6.5-1.3-11.4-4.3-10.4-9c0.8-3.6,6.6-5.5,13.1-4.1
		C79.5,23.3,83.9,26,83.5,31z"/>
	<path class="st10" d="M60,26.1c-0.4,1.9-0.5,8.7-0.5,8.7c0.3,3.6,4.3,5.3,10.8,6.6c6.5,1.3,12.5-0.5,13.1-4.1
		c0.4-2.2,0.4-5.5,0.2-6.8"/>
	<polygon class="st10" points="261.6,100.3 234.5,115.5 234.3,126.3 261.5,110.3 	"/>
	<polygon class="st10" points="177.9,107.2 210,117 209.5,143.4 177.1,133.9 	"/>
	<path class="st8" d="M40,96.3c14.3-5.9,34.8-13.6,46.2-14.9c30.7-3.6,60.5,22,64.3,58.4c3,28-9.2,55.2-30.8,65.3
		c-8.1,3.8-38.6,13.7-57.5,14.7"/>
	<path class="st8" d="M117.4,142.4c8.5,34.1-10.1,68.1-41.5,75.9c-31.4,7.9-58.7-15.9-67.2-49.9c-8.5-34.1,5-65.6,36.4-73.5
		C76.5,87,108.9,108.3,117.4,142.4z"/>
	<path class="st3" d="M94.5,196.7c-4.4,3.3-9.5,5.8-15.1,7.2c-24.5,6.1-44.6-12.9-51.3-39.5s2.7-50.7,27.2-56.8
		c9.2-2.3,18.5-1.4,26.9,2c0,0,21.1,10.3,25.9,37.7C114.1,181.2,94.5,196.7,94.5,196.7z"/>
	<path class="st6" d="M108.5,144.6c7.1,28.7-8.5,57.3-35,64c-26.5,6.6-48.6-13.8-55.8-42.5c-7.1-28.7,3.4-54.9,29.9-61.5
		C74,98,101.3,115.9,108.5,144.6z"/>
	
		<ellipse transform="matrix(1.795558e-02 -0.9998 0.9998 1.795558e-02 -27.1951 418.9331)" class="st20" cx="199.7" cy="223.3" rx="7.6" ry="6.2"/>
	
		<ellipse transform="matrix(1.795558e-02 -0.9998 0.9998 1.795558e-02 -37.9028 82.1132)" class="st20" cx="22.8" cy="60.4" rx="6" ry="4.8"/>
	<path class="st21" d="M95.8,129.5c7.2,11.1,11.2,45.2-0.7,61.1c-4.8-49-13.6-58.4-17.7-70.1C80,119.4,93.3,126.6,95.8,129.5z"/>
</g>
<g id="Prints" class="st0">
	<path class="st6" d="M207.7,0.2c1.6,47,8,133.7,32,231.9c-75.5,6.7-106.2,12-172.4,27.5c-14.4-39-29.6-141.4-29.6-230
		C94.2,15.3,144.7,3.4,207.7,0.2z"/>
	<path class="st3" d="M91.8,76.3c-2-0.6-4.9,0.7-5.2,3c-0.6,3.5-3.1,6.4-7,5.7c-3.6-0.7-5.7-4.6-6-8c-0.5-4.4,0.9-9.6,2.9-13.5
		c1.1-2,4.8-6.2,6.4-2.4c0.9,2.1,4,2.6,5.8,1.5c2.2-1.3,2.4-3.7,1.5-5.8c-3.2-7.5-13.1-6.8-18.1-1.7c-5.4,5.5-7.9,15.6-6.9,23
		c0.9,7.1,5.7,13.9,13,15.2c7.8,1.3,15.4-4,16.6-11.8C95.1,79.2,94.2,77,91.8,76.3z"/>
	<path class="st3" d="M121.8,58.6c-1.7-4.4-4.9-7.9-8.4-11c-0.9-0.8-1.9-1.1-2.9-1.1c-3-0.9-6.4,0.3-8.7,2.7
		c-2.9,3-4.1,7.1-4.7,11.1c-1.2,8.5-1,19.2,7.8,23.7c8.9,4.6,17.1-2.7,18.2-11.6C123.8,67.9,123.5,62.9,121.8,58.6z M108.2,55
		C108.4,54.2,108.8,55.4,108.2,55L108.2,55z M110.4,77c-5-0.4-5.4-7.3-5.3-11c0.1-2.3,0.3-4.6,0.9-6.8c0.3-1.1,0.7-2.2,1.3-3.2
		c0.1-0.2,0.8-0.8,0.8-1c0,0,0,0,0,0c0.5,0.5,1.1,0.8,1.7,0.9c2.7,2.8,4.7,5.9,5,10.2C115.1,69,115.4,77.3,110.4,77z"/>
	<path class="st3" d="M146.7,43.8C146.7,43.7,146.7,43.7,146.7,43.8c-2-4.5-7.9-3.7-11.3-1.8c-3.5,1.9-6.1,5.3-7.5,9
		c-1.7,4.6-1.7,9.8-1.1,14.7c0.6,4.8,2.6,8.3,6.6,11c3.7,2.6,7.4,3.6,11.6,1.3c3.8-2.1,6.8-6,7.8-10.2
		C154.7,60.2,152,49.8,146.7,43.8z M143.4,68.2c-0.5,0.8-1.2,1.4-2,2c-1.2,0.9-0.8,0.9-1.9,0.3c-2-1.2-3.6-2.3-4.1-4.6
		c-0.6-2.6-0.6-5.4-0.4-8.1c0.2-2.2,0.8-4.6,2.1-6.4c0.6-0.8,1.3-1.5,2.2-1.9c0.1-0.1,0.5-0.2,0.8-0.3c2.8,3.1,4,7.5,4.5,11.6
		C145,63.4,144.9,66.1,143.4,68.2z"/>
	<path class="st3" d="M180.2,64.4c-3.3,1.2-6.6,2.2-10,2.9c-0.1,0-0.3,0-0.6,0.1c0,0,0-0.1,0-0.1c-0.4-1.6-0.7-3.2-1-4.8
		c-1-7-1.5-14.1-2.3-21.1c-0.2-2.3-1.8-4.2-4.2-4.2c-2.1,0-4.5,2-4.2,4.2c1,9.1,1.2,18.8,3.4,27.7c1.1,4.3,3.4,7.7,8.4,7
		c4.3-0.7,8.6-2,12.8-3.5C187.6,70.7,185.4,62.5,180.2,64.4z"/>
	<path class="st3" d="M110.4,143.7c-2.9-12.9-7.3-25.4-13.2-37.3c-0.9-1.9-2.9-2.3-4.7-2.1c-7.6,0.7-8.4,12.1-9.4,17.8
		c-1.5,8.6-2.3,17.3-2.2,26.1c0,5.5,8.5,5.8,8.5,0.3c0-3.3,0.1-6.6,0.3-9.8c3.1-1.6,6.4-2.5,9.9-3c1,3.3,1.8,6.7,2.6,10
		C103.3,151,111.6,149.1,110.4,143.7z M90.6,129c0.1-0.4,0.1-0.8,0.2-1.2c0.5-3.2,1-6.4,1.7-9.6c0.1-0.4,0.2-0.8,0.3-1.2
		c1.5,3.5,2.9,7,4.2,10.6C94.7,127.8,92.6,128.3,90.6,129z"/>
	<path class="st3" d="M144.8,136.6c-4.3-4.8-9.3-8.7-14.8-11.8c5.7-6.9,10.2-16.8,2.9-23.7c-7.9-7.5-20.4-1.7-24.9,6.6
		c-1.8,3.4,1.2,6.7,4.1,6.6c1.2,7.7,2.7,15.4,4.4,23c-0.1,0.5-0.1,1.1,0.1,1.6c0.2,0.6,0.4,1.1,0.6,1.7c1.8,5,9.5,3.6,8.3-1.9
		c-0.6-2.5-1.1-5-1.7-7.6c5.6,2.8,10.5,6.7,14.7,11.3C142.2,146.4,148.5,140.7,144.8,136.6z M119.6,107.4c0.5-0.3,1-0.5,1.5-0.7
		c1.8-0.6,4.6-0.9,6,0.7c1.8,2.1,0.4,6-0.7,8c-1.2,2.2-2.8,4.1-4.5,5.8C121.1,116.6,120.3,112,119.6,107.4z"/>
	<path class="st3" d="M173.1,90.9c-10,1.4-19.9,3.4-29.7,6c-5.3,1.4-3.4,9.7,1.9,8.3c3.3-0.9,6.6-1.7,10-2.4
		c1.6,11.1,3.4,22.3,5.3,33.4c0.9,5.4,9.2,3.5,8.3-1.9c-1.9-11-3.6-22.1-5.2-33.1c3.8-0.7,7.6-1.3,11.4-1.8
		C180.4,98.4,178.4,90.1,173.1,90.9z"/>
	<path class="st3" d="M106.7,208.5c-3.5-12.2-6.5-24.4-9-36.8c-1.1-5.4-9.3-3.1-8.2,2.3c1,5.1,2.1,10.1,3.3,15.1
		c-3.8,1.4-7.6,2.9-11.2,4.8c-1.3-5.6-2.5-11.2-3.8-16.7c-1.2-5.3-9.4-3.1-8.2,2.3c2.8,12.5,5.6,25,8.5,37.5
		c1.2,5.3,9.4,3.1,8.2-2.3c-0.9-4.1-1.8-8.1-2.7-12.2c3.6-2,7.4-3.7,11.3-5.1c1.2,4.5,2.4,9,3.7,13.4
		C100,216,108.2,213.8,106.7,208.5z"/>
	<path class="st3" d="M136.4,201c-0.6-2-3.1-3.9-5.2-3c-2.5,1.1-5.1,2.1-7.6,3.2c-1.5,0.6-3.6,2-5.5,2.5c-0.9-1.9-1.4-6.7-1.7-8.1
		c-0.1-0.3-0.1-0.7-0.2-1c2.6-1,5.2-2,7.8-3c2.1-0.8,3.6-2.9,3-5.2c-0.6-2-3.1-3.8-5.2-3c-2.4,0.9-4.7,1.8-7.1,2.7
		c-0.1-0.6-0.2-1.1-0.3-1.7c-0.3-2.4-1.7-6.8-0.2-9c1.8-2.5,6-2.8,8.8-3.2c2.3-0.4,3.5-3.2,3-5.2c-0.7-2.4-2.9-3.3-5.2-3
		c-6.1,1-12.8,3.1-15.1,9.5c-1.1,3-0.4,6.2,0,9.3c0.5,3.6,1,7.2,1.6,10.7c0.6,3.4,1.3,6.7,2.1,10c0.7,2.9,1.5,6.2,4.2,7.9
		c3.2,2,6.6,0.2,9.6-1l10.1-4.2C135.5,205.4,137,203.4,136.4,201z"/>
	<path class="st3" d="M167.7,196.7c-4.3-3.8-8.9-7.3-13.6-10.6c5.5-5.5,7.8-13.9,4.1-21.6c-5.3-10.8-22.6-6.2-26.3,3.6
		c-1.1,2.8,0.9,4.8,3.3,5.1c2,9.5,3.9,19,5.9,28.6c1.1,5.4,9.3,3.1,8.2-2.3c-0.5-2.5-1-5-1.5-7.5c4.9,3.2,9.6,6.8,14.1,10.7
		C165.8,206.3,171.9,200.3,167.7,196.7z M145.9,167.2c3.1-0.9,4.6-0.1,5.4,3.1c1,4.4-1,8.8-4.6,11.2c-0.4-0.1-0.8-0.2-1.2-0.2
		c-0.9-4.3-1.8-8.7-2.7-13C143.9,167.7,145.1,167.4,145.9,167.2z"/>
	<path class="st3" d="M193.3,189.6c-1.2-2.2-3.7-2.5-5.8-1.5c-1.8,0.8-3.7,1.4-5.6,1.8c-0.6,0.1-1.5,0.4-2.3,0.4
		c0-0.1-0.1-0.2-0.1-0.3c-0.1-0.3-0.1-0.5-0.2-0.8c-0.6-2.3-1.2-4.7-1.7-7.1c2.3-0.6,4.6-1.2,6.8-2c2.2-0.8,3.6-2.9,3-5.2
		c-0.6-2.1-3-3.7-5.2-3c-2,0.7-4.1,1.3-6.1,1.8c-0.2-1.4-0.4-2.8-0.6-4.2c-0.1-1.1-0.2-2.2-0.3-3.2c0-0.5-0.1-1.1-0.1-1.6
		c0-0.1,0-0.1,0-0.2c0.4-0.2,0.8-0.4,1.2-0.6c0.8-0.4,1.7-0.7,2.5-1c1.9-0.6,3.8-1,5.8-1.2c5.4-0.4,5.5-8.9,0-8.5
		c-5.2,0.4-12.9,1.7-16.4,5.9c-2.2,2.6-1.6,6.1-1.3,9.2c0.3,3.4,0.9,6.8,1.5,10.2c0.6,3.2,1.3,6.4,2,9.5c0.6,2.8,1.1,6.1,3.2,8.2
		c4.6,4.7,13.2,1.1,18.2-1.1C193.8,194.5,194.3,191.5,193.3,189.6z"/>
	<path class="st3" d="M205.7,173.6c-1.6-9.2-3-18.3-4.3-27.5c-0.3-2.3-3.2-3.5-5.2-3c-2.4,0.7-3.3,2.9-3,5.2
		c1.3,9.2,2.8,18.4,4.3,27.5C198.4,181.3,206.6,179,205.7,173.6z"/>
	<path class="st3" d="M209.7,189.1c-0.5-2-2.3-3.6-4.4-3.8c-1.5-0.4-3-0.1-4.3,0.6c-1.3,0.7-2.1,2.2-2.1,3.7c0,1.6,0.6,3.4,1.9,4.5
		c1.1,0.9,2.2,1.4,3.5,1.5c1,0.1,2-0.2,2.9-0.7C209.2,193.7,210.2,191.4,209.7,189.1z"/>
</g>
<g id="Clothing" class="st0">
	<path class="st6" d="M61.2,67.2c2,26.3,2.9,55.7,2.9,83.5c0,27.7-4.7,72.4-5,77.4c-0.3,5-2.5,12.1,0,16.7
		c2.5,4.6,35.6,18.6,79.5,17.9c43.9-0.6,77.9-14.4,80.1-22.6c1.7-6.2-0.2-19.3-0.9-25c-2-17.1-4.2-48.4-5.3-72.1
		c-0.6-14-1.2-37.8,1.2-75.9"/>
	<path class="st6" d="M212,109.9c7,0,42.7-6.5,43.6-15.8c0.9-9.3-14.7-62.2-19.9-70.8C224.6,5,192.3-1.4,175.9-1.7
		c-3.4,1.1,3.8,31.1-30.5,31.1c-39,0-34.9-29.8-41.2-29.9c-9-0.1-45.8,5-59.9,22C32.5,41.2,20.1,80.1,19.5,94.8
		c0,8.5,33.7,14.6,43.5,14.1"/>
	<path class="st10" d="M93.7-0.6c0.6,10.9,12.1,44,50.4,43.4s43-31.1,42.7-43.4"/>
	<path class="st10" d="M116.5,144.9c-7.1-2.8-12.4-9.1-15.2-16.2c-2.7-7.1-3.1-14.9-2.1-22.5c0.8-6.1,2.4-12.3,6.1-17.3
		c4.4-5.9,11.2-9.5,17.9-12.3c7.6-3.2,15.3-4.1,23.5-4.1s16.9,1,22.7,6.8c4.9,4.9,7.4,11.7,9.1,18.4c1.9,7.5,2.9,15.3,1.4,22.9
		c-1.5,7.6-5.7,14.8-12.4,18.7c-1.2,0.7-2.5,1.3-3.2,2.5c-0.6,1-0.6,2.3-0.6,3.5c0.1,4.8,0,9.6,0.3,14.5c0.2,3.4-1.7,5.2-3.3,6.1
		c-10.2,5.9-23.4,7.9-35.1,5.5C113.2,168.7,117.1,164.9,116.5,144.9z"/>
	<path class="st10" d="M133.4,98.2c-7.2,5.7-13.2,12.9-17.4,21"/>
	<path class="st10" d="M115.3,98.8c6,5.5,11.5,11.5,16.4,18"/>
	<path class="st10" d="M145.1,98.8c7.6,5.2,14,11.9,18.8,19.7"/>
	<path class="st10" d="M163.2,98.2c-5.6,5.9-10.7,12.3-15.2,19.1"/>
	<path class="st10" d="M130,149.4c0,6.8,0,13.6,0,20.3"/>
	<path class="st10" d="M149.8,146.6c0.6,7.7,0.8,15.4,0.6,23.1"/>
	<path class="st6" d="M104.2-0.6c12.8-0.7,16.3,3.1,38.4,3.3c18.1,0.2,20.5-5,33.3-4.5"/>
</g>
<g id="Objects" class="st0">
	<path class="st22" d="M130.4,17.3C48.3,5.5,1.2,83.1,2.2,120.4c1,40.8,20.6,85.7,47.1,99.7c18.7,9.8,63.8,20.1,108.5,14.3
		c44.7-5.9,121-39.3,117.9-91.4C272.8,94.4,212.2,29.1,130.4,17.3z"/>
	<ellipse class="st22" cx="130.8" cy="129.1" rx="33.5" ry="33.3"/>
	<ellipse class="st22" cx="45.3" cy="133.1" rx="24.6" ry="31.8"/>
	<ellipse class="st23" cx="132.4" cy="140.2" rx="16.5" ry="16.6"/>
	<ellipse class="st24" cx="44.2" cy="142.6" rx="15" ry="16.1"/>
	<path class="st10" d="M67.7,48.1c1.3-0.3,2.8-0.2,4.1,0.4c1,0.5,1.9,1.3,2.8,2c3.4,2.6,7.4,4.2,11.7,4.6"/>
	<path class="st10" d="M156.9,34.6c-0.5,1.6,0.3,3.5,1.9,4.1c1.5,0.6,3.5-0.1,4.2-1.6"/>
	<path class="st10" d="M46.6,203.7c5,2.7,9.5,6.5,13,11"/>
	<path class="st10" d="M201.9,181.2c-0.8-2.8,1-5.9,3.4-7.5c2.4-1.6,5.5-2.1,8.3-2.6c0.6-1,1.3-2,2.1-2.8"/>
	<path class="st10" d="M254.1,149.9c-0.3-1.9,0.5-3.8,1.9-5c0.6-0.5,1.2-0.9,1.6-1.5c1.1-1.7-0.2-3.9-1.6-5.4"/>
	<path class="st10" d="M186.3,73.5c6.8,5.3,15,8.5,23.1,11.5"/>
	<path class="st10" d="M193.9,100.3c1.2,2.4,5,2.7,5.8,5.2c0.3,1.2-0.1,2.6-0.1,3.8c0.1,2.3,2,4.3,4.2,5c2.2,0.8,4.6,0.7,6.9,0.6"/>
	<path class="st10" d="M112,27.8c1.4-1,2.9-2.1,4.3-3.1"/>
	<path class="st10" d="M36.1,74.5c-1.6,1.7-4.3,1.8-6.5,1s-3.9-2.4-5.6-4"/>
	<path class="st10" d="M13.1,170.3c1.4,2,2.9,4.2,5.2,5c1.4,0.5,3,0.4,4.4,0.7c1.4,0.2,3,1,3.5,2.4"/>
	<path class="st10" d="M172.5,223.5c3.5,2.7,7.6,4.5,11.9,5.2"/>
	<path class="st10" d="M125.5,187.5c3.1,2,6.7,4.2,10.3,3.2c1-0.3,2.2-0.8,3.1-0.3"/>
</g>
<g id="Toys" class="st0">
	<path class="st6" d="M152.2,31.3c0-0.7,0.1-1.4,0.5-2c0.4-0.6,1.1-0.9,1.8-1.2c7.2-3.2,11-12,9.4-19.7s-7.8-14-15.1-16.8
		c-6.4-2.4-13.9-2.3-20.1,0.5s-11.2,8.6-12.8,15.3c-1.6,6.7,0.3,14.2,5.1,19.1c0.7,0.8,1.6,1.5,2,2.5c0.4,0.9,0.4,1.9,0.4,2.8
		c0,1.7,0.1,3.4,0.1,5c0,1.2,0.1,2.4,0.6,3.4c0.9,1.5,2.8,2.1,4.4,2.5c3.9,1,7.8,2,11.9,2c3.1,0.1,7.8-0.9,10.6-2.6
		C153.6,40.7,152.3,37.3,152.2,31.3z"/>
	<path class="st6" d="M128.6,43.8c-1.1,3.7-2.6,5.8-6.3,6.8"/>
	<path class="st6" d="M149.5,43.1c-0.8,3.8,2,6.8,5.9,7.6"/>
	<path class="st6" d="M158.8,48.8c-1.2,1-2.2,2.3-3,3.7c-3.8,6.1-6.5,12.9-7.8,20c-0.2,1.2-0.4,2.5-0.9,3.6c-1.9,4-7.3,4.7-11.8,4.8
		c-1.8,0-4,0-5-1.5c-0.5-0.8-0.7-1.8-0.8-2.7c-1.1-8.7-3.5-17.4-7.1-25.4c-0.5-1.1-1.1-2.3-2-3.1c-0.9-0.7-2.1-1-3.3-1.2
		c-4.6-0.5-9.5,1.3-12.6,4.8c6.4,9.1,9.9,19.8,12.5,30.6c1.4,5.9,2.5,12.1,0.9,17.9c-1.7,5.8-7,11-13,10.6c1.2,5.1,3,8.7,5.5,12.6
		c0.4,0.6,1.8,2.8,6,1.2c3.8-0.7,7.4-2.7,9.9-5.7c2.5-2.9,4.2-6.7,7.7-8.2c2.9-1.2,6.2-0.5,9,0.9c2.7,1.4,5.1,3.5,7.7,5.2
		c5.3,3.5,11.6,5.5,17.9,5.6c1,0,2,0,2.8-0.5c1-0.6,1.7-1.5,2.2-2.6c1.6-3,2.5-6.4,2.7-9.8c-7,2.6-15-3.2-17.1-10.4
		c-2.1-7.2,0.7-15.8,3.2-22.9c3-8.4,6.6-16.6,14.7-25.2C173,47.2,162.6,45.6,158.8,48.8z"/>
	<path class="st6" d="M175.1,52.8c3.5-3.8,8.4-5.4,14.2-5c5.1,0.4,7.7,4.1,9.8,7.7c2.7,4.6,4.5,9.2,3.6,13.6c-0.1,0.6-0.2,2.1,0,2.6
		c0.3,0.6,1.1,0.5,1.8,0.9c4.2,2,7,4.4,9,7.9c2,3.5,3.2,6.8,3.4,10.8c0,1.2,0.1,2.3,0.5,3.4c0.3,0.7,0.8,1.3,1.3,1.9
		c3.8,2.2,6.8,5.6,9.4,10.8"/>
	<path class="st6" d="M219.2,135.6c-4.6-2.5-7.7-5.2-11.7-11.3c-2.9-4.5-4.5-9.7-5.6-15c-0.1-0.6-0.3-1.3-0.6-1.8
		c-0.3-0.5-0.9-0.8-1.4-1.1c-8-5.1-14.2-13-17.2-22.1c-0.5,9.1-4.2,18.8-10.2,24.9"/>
	<path class="st6" d="M107,109.9c-6.3-6.9-10-15.7-12.8-24.6c-0.3,4.8-1.7,9.7-4.5,13.7s-7,7-11.8,8c-1.1,9.1-8.4,18.4-25.1,19.4"/>
	<path class="st6" d="M61.5,88.9c2-7.2,9.2-12.6,12.2-13.1c-0.8-6.7,1.8-13.9,7.1-18.1c5.3-4.2,12.4-5.7,18.1-2.5
		c2.1-1.8,3.5-1.8,5.6-1.9"/>
	<path class="st6" d="M163.8,125.6c-15,4-30.9,3.1-46.3,0.8c-1.6-0.3-3.4-0.4-4.6,0.6c-0.9,0.8-1.1,2.1-1.3,3.3
		c-0.5,3.6-0.7,7.2-0.6,10.9c0,0.8,0.1,1.7,0.4,2.5c1.2,2.6,4.8,2.6,7.5,3.1c7,1.4,11.8,8.3,13,15.4c0.4,2.3,0.5,4.8,1.9,6.7
		c2.4,3.4,7.5,3.5,11.6,3c1.1-0.1,2.1-0.2,3.1-0.8c2.8-1.5,2.8-5.4,3.2-8.6c1-8.2,7.1-15.6,14.9-18.1c1.3-0.4,2.8-0.8,3.7-1.9
		c0.4-0.6,0.6-1.2,0.8-2c0.8-3.5,0.3-8.3-0.8-11.6C169.2,126.1,168.1,124.4,163.8,125.6z"/>
	<path class="st10" d="M170.5,131.6c-2.4,2-5.8,2.2-8.9,3c-3.7,0.9-7,2.9-9.6,5.8c-1.7,1.8-3,4.1-5.2,5.3c-1.5,0.9-3.3,1.1-5.1,1.2
		c-3.1,0.1-6.4-0.2-8.8-2.1c-2.4-2-3.6-5.3-6.2-6.9c-2.4-1.5-5.4-1.4-8.2-1.4c-2.8,0-5.5-0.4-7.2-2.7"/>
	<path class="st6" d="M170.6,142.5c10.5,3.7,18.6,13.5,20.3,24.5c1,6.6-0.1,13.6,2.3,19.8c2.2,5.6,6.9,9.9,10.2,14.9
		c3.9,5.9,5.8,12.9,5.5,20c-0.2,4.7-1.4,9.4-1.8,14.1c-0.4,4.8,0,9.8,2.8,13.7c2.7,3.9,7.8,7,7.3,11.7c-0.2,1.2-0.7,2.4-1.4,3.4
		c-2.4,3.5-6.6,5.7-10.8,5.7s-8.4-2.3-10.8-5.8c-2.9-4.4-2.9-10-4.5-15c-1.4-4.4-4-8.3-6.5-12.2c-5.5-8.5-11-17.5-11.5-27.6
		c-0.2-4.7,0.6-9.6-1.3-13.9c-1.8-4.2-5.7-6.9-9-10c-4.8-4.4-8.5-9.9-10.9-15.9"/>
	<path class="st6" d="M133.8,170.6c-0.9,5.6-5.2,9.9-9,14.1c-3.8,4.2-7.5,9.4-6.7,15c0.3,2,1.1,3.8,1.8,5.7
		c2.9,8.4,2.3,17.9-1.7,25.9c-2.4,4.8-6.1,9.7-4.8,14.9c0.4,1.5,1.2,2.9,1.5,4.4c0.9,5.3-5,9-9.9,11.3c-4.2,1.9-7.3,4.9-11.8,6
		c-2.5,0.7-5.2,0.8-7.7,0.1c-2.5-0.7-5.3-3.5-5.3-6.1c0.2-4.5,6.1-5.9,9.4-8.8c5.1-4.7,3.6-12.9,2.2-19.8c-1.6-7.6-2.4-15.6-0.1-23
		c0.8-2.8,2.1-5.5,2.3-8.4c0.2-2.7-0.6-5.3-1.1-8c-3.7-18.4,3.8-37.4,19.4-47.9"/>
	<path class="st10" d="M175.4,220.2c10.7,3.3,27.1-0.5,30.4-12.4"/>
	<path class="st25" d="M178.2,228.7c10.7,3.3,27.1-0.5,30.4-12.4"/>
	<path class="st10" d="M91.8,216.8c9.2,3.3,22.3,4.2,28.9-3.5"/>
	<path class="st25" d="M91.9,225.3c9.2,3.3,22.3,4.2,28.9-3.5"/>
	<path class="st6" d="M247.6,156.2c-4.8,13.8-10.3,21.6-16.2,20.4c-11.4-2.5-13.7-23.3-8.3-47.7c6.2-28.2,16.2-43,24.6-41.2
		c6.4,1.4,9.4,14.2,8.1,31.3"/>
	<path class="st6" d="M257.3,138.7c-2.2,10.3-5.7,18.1-9.3,17.4c-4.9-1-5.9-9.8-3.7-20.1c2.6-11.8,6.9-18.1,10.4-17.3
		C258.2,119.4,259.5,128.3,257.3,138.7z"/>
	<path class="st10" d="M234.9,175.5c-7.2-6.7-8.1-24.6-3.6-45.2c4.9-22.4,12.2-36.4,19.2-40.2"/>
	<g class="st3">
		<g>
			
				<ellipse id="XMLID_00000035512170180265652930000011673928177780478130_" transform="matrix(0.139 -0.9903 0.9903 0.139 -93.5241 156.5062)" class="st26" cx="43.2" cy="132" rx="4.6" ry="6.7"/>
		</g>
	</g>
	<path class="st6" d="M46.7,108.4c2.5,0,5.2-0.2,6.9-1.9c2.5,3.5,1.9,8.3,1.2,12.6c-0.2,1.4-0.5,2.8-1.1,4c-1,1.9-2.8,3.2-4.8,3.8
		c-2,0.6-4.1,0.7-6.2,0.4c-2-0.2-4.1-0.7-5.7-2c-2-1.6-3-4.2-3.1-6.8c-0.1-2.6,0.4-5.1,1-7.6c0.3-1.2,0.5-2.5,1.2-3.5
		c0.6-1.1,1.6-2,2.8-2.2C39.5,108.2,44.1,108.4,46.7,108.4z"/>
	<path class="st25" d="M41.9,114.5c3.8,1.1,9.1,1.4,11.8-1.8"/>
	<path class="st25" d="M41.9,119.3c3.8,1.1,9.1,1.4,11.8-1.8"/>
	<path class="st25" d="M69.9,96.6c1.1,0.8,1.4,0.9,2.6,3"/>
	<path class="st25" d="M81.2,73.9c2.4,0.7,4.3,2.5,5.4,4.7"/>
	<path class="st25" d="M99.1,57.7c-6.4,6.6-7.5,19.4-4.5,29.3"/>
	<path class="st25" d="M122,165.9c-2,2.3-3.6,4.9-4.9,7.6"/>
	<path class="st25" d="M94.6,200.5c1.6,3.4,4.2,3.4,7.2,3.6"/>
	<path class="st25" d="M182,203.3c3.5,1,7.6-0.5,9.7-3.5"/>
	<path class="st25" d="M163.7,167.4c2.3,2.5,4.4,5.1,6.3,8"/>
	<path class="st25" d="M211.5,98.6c-2.7,1.6-5.1,3.9-6.7,6.6"/>
	<path class="st25" d="M200.1,77.2c-2.8,0.4-5.5,1.9-7.3,4.2"/>
	<path class="st27" d="M177.2,54.3c-6,10.9-0.9,23.5,5.5,29.4"/>
	<path class="st25" d="M102.9,85.5c1,1.5,2,2.9,3,4.2c0.7,1,1.5,2,2.6,2.8c2.7,2,6.4,2,9.7,1.3"/>
	<path class="st25" d="M159.9,93.4c4.6-0.3,8.9-3.7,10.2-8.2"/>
	<path class="st25" d="M137.9,77.4c-1.1-11.8-0.1-17.6,2.9-19.6"/>
	<path class="st25" d="M137.7,77.2c-0.4-10.2-1.8-17.1-5-18.6"/>
	<path class="st10" d="M52.7,85.2l6.6-4.5c0,0,4.4-57.8,4.6-60.8s-8.3-17-11.5-17.2c-2.6-0.2-13.2,10.6-13.6,15.1
		c-0.7,8.3-4,61.3-4,61.3l5,5.5"/>
	<line class="st25" x1="52.4" y1="3.3" x2="47" y2="81.2"/>
	<circle class="st10" cx="46.4" cy="92.3" r="8.8"/>
	<circle class="st28" cx="46.4" cy="92.3" r="2.5"/>
	<path class="st10" d="M36.4,89.5c-3.2-0.4-6.6-1.1-9.2-3.1c-2.5-2-4.2-4.9-4.8-8.1c-2.4,0.1-2.7,5.5-2.8,8.4
		c-0.1,2.3,0.2,4.5,1.5,6.5c1.8,2.6,5.7,3.8,8.9,4.3c3.2,0.5,5.7,0.6,7.9,0.8"/>
	<path class="st10" d="M57.4,90.5c3.2,0.1,6.7-0.2,9.5-1.8c2.8-1.6,4.9-4.3,5.9-7.4c2.4,0.4,1.9,5.8,1.6,8.7
		c-0.2,2.3-0.8,4.5-2.3,6.2c-2.1,2.3-6.2,3-9.4,3c-3.2,0.1-5.8-0.1-7.9-0.3"/>
	<line class="st10" x1="40.3" y1="100.6" x2="39.9" y2="105.7"/>
	<line class="st10" x1="52.4" y1="100.6" x2="52.1" y2="106.1"/>
	<path class="st25" d="M121.8,0.3c7.3,4.3,16.2,5.2,24.7,5.8c5.4,0.4,10.8,0.6,16.2-0.2"/>
	<path class="st28" d="M140.9,6.7c-0.5,2.6-0.9,5.2-0.3,7.7s2.5,4.9,5.1,5.2c2.1,0.2,4.2-1,5.4-2.8s1.6-3.9,1.8-6
		c0.1-1.2,0-2.5-0.4-3.6L140.9,6.7z"/>
	<path class="st25" d="M133.8,9.7c-2.8,2.2-5.3,4.7-7.5,7.5"/>
	<path class="st25" d="M126.5,9.6c2.9,2.5,5.5,4.8,7.3,8.2"/>
	<path class="st25" d="M132.7,33.1c-0.3,2.8-0.2,6.7,0,9.4"/>
	<path class="st25" d="M141.5,34.4c-0.2,2.4-0.2,4.7-0.1,7.1"/>
	<path class="st6" d="M57.9,100.2c-1.4,0.8-1.9,1.7-3.6,3.4"/>
</g>
<g id="Digital_Stuff" class="st0">
	<g id="Layer_15" class="st3">
		<path class="st5" d="M238.8,85c8.5,4,14.2,18.7,13.9,81c-0.3,55.9-4.2,69.7-8.7,77.5c-12,20.6-53.9,22.9-158.9,20.7
			c-30.7-0.6-44.6-1.9-49.1-8.1c-6.1-8.2-8.8-30.7-10-78.5c-1-39.1-0.4-60.7,6.5-73c8.4-15.2,76.8-24.5,90.4-25.8
			C137.8,77.5,223.6,77.9,238.8,85z"/>
		<path class="st5" d="M231.7,97.9c8.2,6.6,9,27.8,9,69.4c0,39.7-2.4,61.4-8.1,69.1c-6.5,8.7-13.9,13.4-59.4,15.8
			c-30.3,1.6-48.1,1.9-58.1-4.2c-10.8-6.6-11.9-27.1-12.9-82.3c-0.8-47.1,0-55.9,7.4-65.5c6.5-8.4,20-9,61.3-8.4
			C216.2,92.4,226.9,94.1,231.7,97.9z"/>
		<path class="st29" d="M97.4,83.1c-11,1.6-18.8,4.2-25.1,10.1c-3,2.8-5.2,6.4-6.8,10.2c-3.1,7.6-3.6,15.9-4,24.1
			c-1.3,29-1.7,58.2,0,87.2c1,17.2,2.8,28.6,5.3,33.1c1.6,2.7,3.8,5.1,6.3,7c6.8,5.5,14.2,8.4,25.5,8.7"/>
		<path class="st30" d="M115.4,113.2c-2.6,4.7-2.9,10.3-3.1,15.7c-0.7,19.3,0,34.6,0,53.9c0,12,0.7,25.9,2.3,37.8
			c1.6,11.9,6.9,15.7,11.3,17.4c9.5,3.8,47.3,1.6,53.6,1.3c37.5-1.9,44.9-9,45.2-47.1c0.1-16-0.7-59.7-2-65.7
			c-1.4-6-2.5-10.7-7.3-14.7c-5.9-4.8-12.3-6.1-20.3-6.8c-14.9-1.2-28.4-1.6-44.2-1.3C134.7,104.1,121.3,102.5,115.4,113.2z"/>
		<polygon class="st31" points="150,132.5 139.4,132.8 141.6,203.8 152.3,203.2 		"/>
		<polygon class="st31" points="191.3,131.2 180.7,131.5 183,202.5 193.6,201.9 		"/>
		<polygon class="st32" points="179.4,216.4 157.8,217.1 158.1,226.1 179.7,225.5 		"/>
		<path class="st29" d="M71.5,111.2c0,7.9-0.1,15.7-0.1,23.6"/>
		<path class="st29" d="M78.7,109.9c0,5,0.1,9.9,0.1,14.9"/>
		<path class="st29" d="M86.1,109.2c0,2.6,0,5.2,0,7.7"/>
		<path class="st29" d="M223.3,110c1.4-1.5,2.7-3.1,4-4.8"/>
		<path class="st29" d="M222,232.2c1.4,1.2,1.5,1.7,2.9,2.9"/>
	</g>
	<g id="Layer_16" class="st3">
		<path class="st5" d="M107.2,53.8c4.9-11.2,9.5-23.5,13.4-37.5c25.4-4.8,50.6-8,77-11.2c2.2-0.3,3.8,1.9,2.9,3.9
			c-5.2,12.1-10.5,22.8-17.1,34.1c-1.3,2.2-3.4,3.6-5.9,4c-22.3,3.1-44.6,6.4-67,9.4c-3.3,0.5-6.2-2-6.4-5.3c-1-16-2.5-32-4.6-48
			c-0.3-2.2,1.1-4.2,3.2-4.7c5.6-1.5,11.2-2.3,17-3.4c5.3-1,5.7,3.3,5.8,4.5c16.5-3.2,32.2-5.3,48.9-7.3c2.3-0.3,4.6,0.4,5.3,2.7
			c1.1,3.4,1.3,6.3,1.8,10.3"/>
	</g>
</g>
<g id="Illustration" class="st0">
	<path class="st33" d="M29.9,5.3c1.2,15.1,2.3,30.2,3.5,45.3"/>
	<path class="st33" d="M66.8,2.4c1.9,14.4,3.4,28.8,4.5,43.3"/>
	<path class="st33" d="M4.4,82.1c0.2,14.8,10.2,28.6,23.5,35.1c13.4,6.4,29.4,6,43.3,0.6c19.6-7.6,35.8-27.3,33.6-48.3
		c0.8-0.6,1.2,1.6,0.2,1.3"/>
	<g class="st3">
		<g>
			<path id="XMLID_00000001630386699626138990000006594000924267428267_" class="st34" d="M129.1,132.6c-6.7-7.2-13.2-12-13.9-20.9
				c-0.6-6.8,0-8.8-1-15.6c-0.3-1.7-4-7.1-6-10c-2.4-3.4-9-11.3-0.2-18.8c5.7-4.9,12.9-1,16.2,2.7c5.9,6.6,8.5,8.2,15.8,10.9
				c4.2,1.6,5.2,0.5,9.1,2.7c4.3,2.5,12,10,15.1,13.9"/>
		</g>
	</g>
	<g class="st3">
		<g>
			<path id="XMLID_00000155111931581208008370000005886672226985888921_" class="st5" d="M239.5,255.1l-110.7-123
				c-5.5-5.3-2.2-17.6,7.3-27.5c9.5-9.8,21.6-13.5,27.1-8.3l110.7,123"/>
		</g>
	</g>
	<g class="st3">
		<g>
			
				<ellipse id="XMLID_00000062173956560616398320000003949754021253070506_" transform="matrix(0.6937 -0.7202 0.7202 0.6937 -92.3229 257.4708)" class="st35" cx="256.6" cy="237.3" rx="24.8" ry="13.8"/>
		</g>
	</g>
	<path class="st36" d="M222.4,236.2c-5.5-5.3-2.2-17.6,7.3-27.5c9.5-9.8,21.6-13.5,27.1-8.3L243,184.1c-5.5-5.3-17.6-1.6-27.1,8.3
		c-9.5,9.9-12.8,22.2-7.3,27.5L222.4,236.2z"/>
	<path class="st36" d="M152,158.8c-5.5-5.3-2.7-16.3,6.8-26.1s22.4-14,27.9-8.7l-11-12.8c-5.5-5.3-17.6-1.6-27.1,8.3
		c-9.5,9.9-12.8,22.2-7.3,27.5L152,158.8z"/>
</g>
<g id="Layer_17">
	<path class="st37" d="M84.9,75.8c-2.1,5.5-1.7,11.8,0.2,17.4c0.8,2.4,1.9,4.7,3.4,6.7c5.2,6.9,15.7,8.9,23.4,4.8
		c7.6-4.1,11.8-13.6,10-22.1C118.5,65.4,92.5,56.2,84.9,75.8z"/>
	<path class="st38" d="M141,48.9c4.4,15,8.8,30.1,13.3,45.2"/>
	<path class="st38" d="M171,39.1c4.9,16,9.8,32,14.7,48"/>
	<path class="st38" d="M152.6,72.6c6.7-2.7,13.6-5,20.6-6.7"/>
	<path class="st39" d="M93.2,150.3c5.5,16.4,11.1,32.7,16.6,49"/>
	<path class="st38" d="M125.3,139.1c5.7,17.4,11.5,34.7,17.2,52.1"/>
	<path class="st38" d="M108.8,175.8c6.2-2.5,12.5-5,18.7-7.5"/>
	<path class="st38" d="M176.3,124.3c-6.9,2.2-13.8,4.4-20.7,6.6c-0.8,0.3-1.8,0.7-2.1,1.5c-0.2,0.6,0,1.3,0.2,1.9
		c5.1,15.8,10.2,31.6,15.3,47.3c7.7-2.4,15.5-4.7,23.3-7.1"/>
	<path class="st38" d="M166.6,156.5c4-1.2,7.9-2.3,11.8-3.6"/>
	<path class="st38" d="M197.5,117.6c7.8,5.4,16.2,10,24.9,13.8"/>
	<path class="st38" d="M230.2,107.6c-2.7,20-6.7,39.8-12.1,59.2"/>
	<path class="st40" d="M41.1,128.6C31.2,78.1,52.6,50.7,79,30.6c16.6-12.6,36.5-19,56.4-23.1c9.8-2,19.7-3.6,29.6-3.7
		c37.3-0.5,75,19.9,91.3,56.3c4.9,10.9,10,23.4,12.8,35.2c1.9,8.1,3.8,22.1,3.5,30.5c1.1,20.5-1.2,44.3-13.3,61.1
		c-12.1,16.8-25.2,27-46,36.1c-29.7,12.6-94.6,25.2-127.1,2.7c-17.6-11.7-31.6-32.4-35.2-52.3c-21.4-1.6-34.9-3.3-45.1-4.9
		c-2.2-0.4-3-3.2-1.3-4.8C19,150.3,24.6,145.4,41.1,128.6z"/>
</g>
</svg>
