<?xml version="1.0" encoding="UTF-8"?><svg id="Layer_1" xmlns="http://www.w3.org/2000/svg" viewBox="0 0 2990.92 3000"><defs><style>.cls-1,.cls-2,.cls-3,.cls-4,.cls-5,.cls-6{fill:none;}.cls-7,.cls-2{stroke-width:24px;}.cls-7,.cls-2,.cls-3,.cls-8,.cls-4,.cls-9,.cls-10,.cls-11,.cls-5,.cls-12,.cls-6{stroke-linecap:round;stroke-linejoin:round;}.cls-7,.cls-2,.cls-8,.cls-4,.cls-9,.cls-10,.cls-11,.cls-5,.cls-12,.cls-6{stroke:#000;}.cls-7,.cls-13,.cls-12{fill:#fff;}.cls-3{stroke:#fff;stroke-width:5px;}.cls-8,.cls-12,.cls-6{stroke-width:15px;}.cls-4{stroke-width:20px;}.cls-9{stroke-width:9px;}.cls-10{stroke-width:9px;}.cls-11,.cls-5{stroke-width:9px;}</style></defs><g id="bg"><rect class="cls-1" width="2990.92" height="3000"/></g><g id="Logo"><path class="cls-13" d="m1145.3,2470.84v-1154.75c-.8-66.07-39.82-109.18-70.26-167.72-22.02-42.35-50.82-120.28-49.13-154.16,2.12-42.33,76.24-140.61,101.65-172.8l-7.91,8.47c2.26-85.84,31.59-363.56,58.73-451.76,27.11-88.09,65.51-119.72,97.13-126.49,27.32-5.85,60.71,20.48,51.95,119.72-6.78,76.8-13.55,144.56-15.81,205.55s0,155.86,0,219.11l343.34-81.32c-2.26-51.95,0-241.69,6.78-338.82s45.18-128.75,85.84-126.49,70.02,58.73,76.8,124.24,20.95,510.49,20.95,580.52v1516.72h-700.05v-.02Z"/><ellipse class="cls-7" cx="1495.32" cy="2470.84" rx="350.02" ry="105.7"/><ellipse class="cls-8" cx="1496.87" cy="2471.85" rx="314.36" ry="76.99"/><ellipse class="cls-12" cx="1496.87" cy="2475.2" rx="122.49" ry="37.59"/><path class="cls-7" d="m1508.16,2699.05c-1.13,28.24-19.2,50.82-39.53,56.47-21.02,5.84-48.56-6.78-50.26-37.84-1.05-19.17,11.86-42.35,32.13-45.74v-183.45c0-8.62,20.64-15.62,46.11-15.62s46.11,6.99,46.11,15.62v172.16c12.97,3.07,35.94,20.37,34.33,54.21-1.13,23.72-19.4,46.49-44.05,49.69-13.1,1.71-32.75-1.13-41.79-22.59"/><path class="cls-2" d="m1145.3,2470.84v-1154.75c-.8-66.07-39.82-109.18-70.26-167.72-22.02-42.35-50.82-120.28-49.13-154.16,2.12-42.33,76.24-140.61,101.65-172.8s74.95-90.21,110.12-55.91c69.46,67.76-16.94,164.33-20.33,184.66-1.69,13.55,47.62,27.35,108.42,108.42,25.41,33.88,37.27,81.32,37.27,123.67"/><path class="cls-2" d="m1845.34,2470.84V954.11c0-70.02-14.17-515.01-20.95-580.52s-36.14-121.98-76.8-124.24-79.06,29.36-85.84,126.49-9.04,286.87-6.78,338.82"/><path class="cls-2" d="m1119.65,829.88c2.26-85.84,31.59-363.56,58.73-451.76,27.11-88.09,65.51-119.72,97.13-126.49,27.32-5.85,60.71,20.48,51.95,119.72-6.78,76.8-13.55,144.56-15.81,205.55s0,155.86,0,219.11"/><path class="cls-7" d="m1311.65,810.68c-4.52,99.39,28.24,158.12,88.09,169.41,51.64,9.74,68.89-62.12,75.67-117.46,5.25-42.83,4.52-144.56-2.26-177.32-7.35-35.55-25.89-52.35-53.08-53.08-41.79-1.13-70.02,25.98-84.71,62.12-11.05,27.21-21.82,74.57-23.72,116.33h0Z"/><path class="cls-7" d="m1654.99,801.64c-6.62,99.27-30.49,159.25-73.41,167.15-51.68,9.52-84.71-66.64-91.48-121.98-5.25-42.83-2.87-109.76,2.26-145.69,5.65-39.53,38.4-77.93,83.58-75.67,48.03,2.4,69.3,39.93,74.54,64.38,6.78,31.62,7.91,60.99,4.52,111.81h-.01Z"/><line class="cls-4" x1="1915.88" y1="1356.75" x2="1846.99" y2="1452.75"/><line class="cls-4" x1="1915.88" y1="1599.01" x2="1846.99" y2="1695.01"/><line class="cls-4" x1="1915.88" y1="1837.31" x2="1846.99" y2="1933.31"/><line class="cls-4" x1="1915.88" y1="2082.96" x2="1846.99" y2="2178.96"/><line class="cls-4" x1="1915.88" y1="2321.83" x2="1846.99" y2="2417.83"/><line class="cls-4" x1="1075.86" y1="1353.75" x2="1144.75" y2="1449.75"/><line class="cls-4" x1="1075.86" y1="1596.01" x2="1144.75" y2="1692.01"/><line class="cls-4" x1="1075.86" y1="1834.31" x2="1144.75" y2="1930.31"/><line class="cls-4" x1="1075.86" y1="2079.96" x2="1144.75" y2="2175.96"/><line class="cls-4" x1="1075.86" y1="2318.83" x2="1144.75" y2="2414.83"/><path d="m1392.4,2367.57c0-15.79-17.58-30.21-33.23-32.31-9.16-1.23-20.03.14-26.08-6.84-5.26-6.07-3.88-15.33-6.67-22.86-5.16-13.95-26.98-17.52-36.31-5.93-5.24,6.51-6.58,16-13.23,21.06-7.23,5.5-18.23,3.16-24.92-3s-9.96-15.12-12.43-23.87c-6.54-23.15-9.08-47.43-7.48-71.44,1.01-15.16,3.61-30.8-1.12-45.23-4.73-14.44-20.12-26.89-34.51-22.01-15.38,5.23-19.13,24.8-21.06,40.93-3.66,30.62-10.11,61.82-27.09,87.57v168.64c42.52-67.2,212.3-81.44,244.12-84.71h.01Z"/><path class="cls-5" d="m1148.28,2283.64c16.98-25.74,23.43-56.95,27.09-87.57,1.93-16.13,5.68-35.7,21.06-40.93,14.38-4.89,29.78,7.57,34.51,22.01s2.13,30.08,1.12,45.23c-1.61,24.01.93,48.28,7.48,71.44,2.47,8.75,5.75,17.71,12.43,23.87s17.68,8.5,24.92,3c6.65-5.06,7.99-14.55,13.23-21.06,9.33-11.58,31.15-8.01,36.31,5.93,2.79,7.53,1.41,16.79,6.67,22.86,6.05,6.98,16.93,5.61,26.08,6.84,15.65,2.09,29.46,14.33,33.42,29.61"/><path d="m1493.48,2364.75c22.04-22.04,23.48-50.45,20.54-75.75s-7.74-43.58,4.87-65.71c6.33-11.11,15.25-15.25,23.72-14.4,12.78,1.28,18.21,13.45,22.87,25.41s5.09,28.63,12.71,38.96c11.86,16.09,27.9,20.05,39.81,15.25,15.41-6.21,19.6-32.61,17.79-49.13-4.45-40.48-22.13-79.79-29.51-119.84-11.55-62.65-4.76-126.99,19.35-185.95,5.69-13.91,13.36-32.38,28.19-34.8,9.93-1.62,13.32,6,15.01,12.78,4.05,16.21-.85,28.37-5.29,44.47-13.44,48.68-18.47,92.8-6.57,141.88,1.65,6.81,4.91,17.79,14.4,17.79,5.93,0,5.08-11.86,17.79-9.32,10,2,13.77,19.17,13.55,27.11-.83,29.66-7.95,60.12-7.62,89.79.32,29.67,10.05,62.41,32.19,82.16,8.53,7.61,22.79,11.91,32.59,6.04,14.91-8.94,12.39-37.68,29.55-40.42,6.9-1.1,14.04,3.24,20.74,1.28,8.85-2.59,11.14-13.69,13.56-22.59,3.15-11.62,9.09-22.46,17.18-31.37v231.62c-45.3-66.07-271.74-93.74-347.41-85.27h-.01Z"/><path class="cls-5" d="m1840.89,2218.39c-8.09,8.91-14.04,19.76-17.18,31.37-2.41,8.9-4.7,20-13.56,22.59-6.71,1.96-13.84-2.38-20.74-1.28-17.16,2.74-14.65,31.48-29.55,40.42-9.8,5.88-24.06,1.57-32.59-6.04-22.14-19.75-31.86-52.5-32.19-82.16-.32-29.67,6.8-60.13,7.62-89.79.22-7.94-3.55-25.11-13.55-27.11-12.71-2.54-11.86,9.32-17.79,9.32-9.49,0-12.75-10.97-14.4-17.79-11.9-49.08-6.87-93.2,6.57-141.88,4.44-16.1,9.34-28.26,5.29-44.47-1.69-6.78-5.08-14.4-15.01-12.78-14.83,2.42-22.5,20.89-28.19,34.8-24.1,58.97-30.89,123.3-19.35,185.95,7.38,40.05,25.06,79.36,29.51,119.84,1.82,16.52-2.38,42.92-17.79,49.13-11.91,4.8-27.95.85-39.81-15.25-7.62-10.34-8.05-27-12.71-38.96-4.66-11.96-10.1-24.13-22.87-25.41-8.47-.85-17.39,3.29-23.72,14.4-12.61,22.13-7.81,40.41-4.87,65.71,2.94,25.3,2.33,54.57-20.54,75.75"/><polyline class="cls-6" points="1844.16 1618.77 1769.62 1547.05 1694.52 1565.12 1669.67 1743.01 1843.03 1733.97"/><polyline class="cls-6" points="1844.16 1621.6 1810.84 1685.97 1672.49 1740.75 1735.74 1610.87 1800.68 1578.11"/><polyline class="cls-6" points="1700.73 1564.56 1735.74 1610.87 1810.84 1685.97 1844.16 1708.56"/><path class="cls-11" d="m1578.39,1965.62c42.39-.03,30.65-121.63,29.86-141.1s-69.78-16.66-68.99,2.81-1.02,141.62,41.23,138.2"/><line class="cls-3" x1="1543.97" y1="1880.55" x2="1596.13" y2="1829.26"/><line class="cls-3" x1="1548.19" y1="1921.92" x2="1608.51" y2="1862.66"/><line class="cls-3" x1="1563.11" y1="1955.22" x2="1607.16" y2="1912.74"/><path class="cls-6" d="m1578.39,1965.62c42.39-.03,30.65-121.63,29.86-141.1s-5.53-156.61-10.05-184.4-32-108.91-36.71-120.58c0,0-24.95,95.12-27.2,123.18-2.25,28.07,4.18,165.14,4.97,184.61s-1.02,141.62,41.23,138.2"/><path class="cls-11" d="m1526.27,1799.89c-27.83,3.68-23.98,35.73.57,34.74,15.33-.62,85.48-3.48,97.26-5.66,17.67-3.26,21.65-30.55-.5-33.04-9.3-1.05-91.45,3.19-97.33,3.96h0Z"/><line class="cls-6" x1="1561.67" y1="1528.01" x2="1573.08" y2="1808.16"/><polyline class="cls-4" points="1243.6 2335.95 1302.05 2047.1 1366.42 2003.9 1485.01 2036.94 1520.59 2114.02 1404.54 2364.75"/><polyline class="cls-6" points="1267.32 2326.63 1324.92 2058.96 1364.73 2032.7 1465.53 2059.81 1491.79 2113.17 1383.36 2356.28"/><path class="cls-6" d="m1342.47,2122.41c4.29-14.78,8.57-29.57,12.86-44.35.24-.83.5-1.7,1.11-2.32.8-.82,2.02-1.03,3.15-1.2,6.23-.93,13.96-1.23,17.35,4.08,2.04,3.19,1.64,7.34.79,11.03-1.1,4.77-3.11,9.73-7.27,12.29-3.4,2.09-7.63,2.2-11.63,2.1-2.7-.07-5.41-.21-8.1-.41"/><path class="cls-6" d="m1421.52,2150.27c4.29-14.78,8.57-29.57,12.86-44.35.24-.83.5-1.7,1.11-2.32.8-.82,2.02-1.03,3.15-1.2,6.23-.93,13.96-1.23,17.35,4.08,2.04,3.19,1.64,7.34.79,11.03-1.1,4.77-3.11,9.73-7.27,12.29-3.4,2.09-7.63,2.2-11.63,2.1-2.7-.07-5.41-.21-8.1-.41"/><path class="cls-6" d="m1357.89,2105.59c4.72,7.49,8.84,15.37,12.3,23.52"/><path class="cls-6" d="m1396.88,2085.35c6.79,1.66,13.57,3.31,20.36,4.97"/><path class="cls-6" d="m1385.04,2137c6.42,1.86,11.69,3.37,18.75,4.7"/><path class="cls-6" d="m1396.34,2136.23c3.33-15.26,7.01-30.43,11.06-45.51"/><ellipse class="cls-9" cx="1794.57" cy="1961.84" rx="19.56" ry="23.38" transform="translate(-740.77 2762.7) rotate(-65.08)"/><ellipse class="cls-10" cx="1669.26" cy="2070.34" rx="19.56" ry="23.38" transform="translate(-747.24 959.81) rotate(-26.44)"/><polygon class="cls-6" points="1745.06 1981.03 1691.69 2028.46 1714.56 2069.12 1785.71 2004.75 1745.06 1981.03"/><path class="cls-6" d="m1843.31,2138.58s-105.04,86.4-113.51,93.18-24.56,20.33-42.35,0"/><path class="cls-6" d="m1843.31,2083.52s-112.66,94.02-121.13,100.8-24.56,20.33-42.35,0"/><line class="cls-5" x1="1576.49" y1="2034.39" x2="1609.53" y2="2086.91"/><path class="cls-6" d="m1841.34,1945.17s-40.78-20.62-50.82-25.13c-16.38-7.34-24.85-9.04-40.09,4.52-15.25,13.55-127.34,103.91-127.34,103.91"/><path class="cls-6" d="m1843.31,2015.76s-114.35,98.26-129.6,110.12-26.26,20.33-33.04,11.01"/><polyline class="cls-6" points="1733.2 2225.83 1735.74 2172.46 1713.72 2125.88"/><polyline class="cls-5" points="1842.47 2099.62 1789.95 2144.36 1789.95 2165.54 1841.62 2124.03"/><polygon class="cls-5" points="1775.55 2154.68 1749.29 2177.55 1748.44 2200.42 1775.55 2177.55 1775.55 2154.68"/><path d="m1762.29,2132.94c-1.55-.98-3.68-1.04-5.27-.11-1.58.93-2.63,2.76-2.49,4.62.16,2.1,1.44,3.96,3.52,4.57,2.1.62,4.52-.18,5.66-2.09.33-.55.52-1.13.62-1.73,0-.02.01-.03.01-.05.46-1.99-.31-4.11-2.06-5.21h.01Z"/><path d="m1745.07,2146.5c-1.55-.98-3.68-1.04-5.27-.11-1.58.93-2.63,2.76-2.49,4.62.16,2.1,1.44,3.96,3.52,4.57,2.1.62,4.52-.18,5.66-2.09.33-.55.52-1.13.62-1.73,0-.02.01-.03.01-.05.46-1.99-.31-4.11-2.06-5.21h.01Z"/><path d="m1596.83,2034.4c-1.55-.98-3.68-1.04-5.27-.11-1.58.93-2.63,2.76-2.49,4.62.16,2.1,1.44,3.96,3.52,4.57,2.1.62,4.52-.18,5.66-2.09.33-.55.52-1.13.62-1.73,0-.02.01-.03.01-.05.46-1.99-.31-4.11-2.06-5.21h.01Z"/><path d="m1765.12,1899.44c-1.55-.98-3.68-1.04-5.27-.11-1.58.93-2.63,2.76-2.49,4.62.16,2.1,1.44,3.96,3.52,4.57,2.1.62,4.52-.18,5.66-2.09.33-.55.52-1.13.62-1.73,0-.02.01-.03.01-.05.46-1.99-.31-4.11-2.06-5.21h.01Z"/><path class="cls-6" d="m1843.03,1927.1s-68-31.6-72.28-33.88c-8.47-4.52-12.99-3.39-18.07,1.13s-165.02,129.17-168.85,132.71c-7.34,6.78-7.91,5.65-10.16,19.2-1.97,11.82-3.24,23.55-4.14,28.99-1.51,9.04-.38,10.54,6.4,20.71,6.78,10.16,43.67,66.26,43.67,66.26"/><path class="cls-6" d="m1408.77,1632.51c7.53-9.04,22.96-13.93,36.52-3.76s10.54,28.24,2.45,39.72c-12.84,18.22-38.49,9.98-51.76-.56-6.78,11.01-187.74,277.7-198.12,292.8,10.16,5.08,22.16,10.11,22.87,32.19.85,26.26-21.18,33.88-33.04,31.34-15.93-3.41-26.26-22.02-20.33-38.96"/><path class="cls-6" d="m1164.82,1995.99c-10.16,6.78-20.33-1.69-20.33-7.91,0-16.94,0-29.93.56-33.32,1.34-8.03,9.04-16.38,19.2-14.12,6.84-10.97,192.26-283.12,202.73-298.16-3.95-8.47-5.48-17.15.56-27.11,9.6-15.81,24.85-18.07,34.45-15.25,10.64,3.13,16.94,10.73,16.94,22.59"/><path class="cls-6" d="m1448.74,1902.19c10.08,6.06,17.27,20.57,9.29,35.52-7.98,14.94-26.3,14.72-38.88,8.48-19.97-9.92-15.73-36.52-7.34-51.25-8.82-3.71-170.6-80.36-260.79-123.18"/><path class="cls-6" d="m1151.53,1728.49c86.4,40.94,268.2,127.67,280.97,133.92,7.77-5.2,16.12-8.03,26.87-3.58,17.09,7.08,21.65,21.8,20.32,31.72-1.47,11-8.02,18.38-19.74,20.19"/><path d="m1144.02,1751.43s30.59,82.14,38.32,103c18.36,49.5,179.65,3.19,165.28-49.5-12.03-44.12-50.9-170.94-58.29-190.83-10.38-27.95-39.12-32.74-53.49-38.32-14.37-5.59-28.74-14.37-36.73-39.92-7.98-25.55-26.35-90.22-27.95-95.81,22.36-7.98,15.97-35.13-20.76-23.15"/><path class="cls-13" d="m1158.39,1783.37c32.74,19.16,118.17,9.58,166.07-51.9l-34.33-109.39c-48.7,59.88-126.15,64.67-143.72,59.88l2.31,74.87,9.66,26.53h0Z"/><path class="cls-5" d="m1146.42,1681.97c17.57,4.79,95.01,0,143.72-59.88"/><path class="cls-5" d="m1158.39,1783.37c32.74,19.16,118.17,9.58,166.07-51.9"/><path class="cls-6" d="m1175.96,1769.48c-7.45-18.1-14.89-36.2-22.34-54.3,4.36-2.63,9.8-5.64,14.78-6.69s10.77.85,14.31,4.52c4.88,5.05,4.11,13.31,0,19.01s-10.7,6.99-16.94,10.23c4.86-2.11,10.8-4.78,16.09-4.95s11.72,2.4,14.4,6.96c3.13,5.32,2.06,11.98-2.07,16.56-4.13,4.58-12.07,7.16-17.88,9.22"/><path class="cls-6" d="m1225.98,1706.24l-19.59,7.09c4.95,18.12,9.89,36.24,14.84,54.36,7.2-2.58,14.41-5.17,21.61-7.75"/><path class="cls-5" d="m1232.77,1734.83c-4.7,1.38-9.4,2.76-14.09,4.14"/><path class="cls-6" d="m1259.37,1687.37c-6.08,4.51-12.17,9.01-18.25,13.52,7.39,18.75,14.79,37.5,22.18,56.25,5.93-4.23,11.65-8.74,17.15-13.51"/><path class="cls-5" d="m1268.73,1716.68c-3.83,2.89-8.59,6.43-12.42,9.32"/><path class="cls-6" d="m1294.04,1725.96c-6.22-16.9-12.43-33.79-18.65-50.69-.21-.58-.43-1.19-.35-1.8.09-.66.52-1.23.94-1.74,1.08-1.31,2.24-2.55,3.48-3.71,2.16-2.02,4.63-3.83,7.49-4.56,5.83-1.48,12.23,2.19,14.81,7.63,2.58,5.44,1.72,12.09-1.25,17.32s-7.82,9.19-13.06,12.14"/><path class="cls-5" d="m1293.96,1698.89c7.19,3.14,14.11,6.89,20.66,11.19"/><path class="cls-5" d="m1144.02,1751.43s30.59,82.14,38.32,103c18.36,49.5,179.65,3.19,165.28-49.5-12.03-44.12-50.9-170.94-58.29-190.83-10.38-27.95-39.12-32.74-53.49-38.32-14.37-5.59-28.74-14.37-36.73-39.92-7.98-25.55-26.35-90.22-27.95-95.81,22.36-7.98,15.97-35.13-20.76-23.15"/><path id="moustache" class="cls-11" d="m1364.73,1502.25c-13.55,1.95-28.67-2.47-37.65-12.8-7.78-8.95-9.79-17.51-9.79-29.36,0-9.79,6.83-31.72,14.31-32.75-3.07,12.31-4.11,26.47,5.27,35.01,6.37,5.8,17.69,7.94,25.6,4.52,7.91-3.42,17.4-13.83,22.59-20.71,11.25-14.91,14.96-31.67,28.61-44.42,8.23-7.69,18.56-11.89,29.74-10.54,13.74,1.65,25.65,12.5,34.26,23.34,6.12-10.54,12.29-21.92,22.21-28.99,9.93-7.07,21.26-8.4,33.13-5.65,11.52,2.67,20.19,10.52,28.61,18.82s19.22,22.42,30.49,25.98c14.31,4.52,30.49,2.26,36.14-13.18,7.97-21.77-12.05-36.14-12.49-42.1,7.22-4.58,16.79,1.98,22.66,10.1s9.63,18.61,9.04,28.61c-.63,10.56-2.58,20.45-8.28,29.36-10.95,17.12-27.25,24.46-47.06,28.99-26.35,6.02-88.47-2.26-109.18-18.82-6.47-5.18-9.13-3.88-16.19,4.14-5.05,5.74-14.65,15.23-21.08,19.95-25.11,18.42-50.1,26.05-80.94,30.49h0Z"/></g></svg>