<?xml version="1.0" encoding="utf-8"?>
<!-- Generator: Adobe Illustrator 27.7.0, SVG Export Plug-In . SVG Version: 6.00 Build 0)  -->
<svg version="1.1" id="Layer_1" xmlns="http://www.w3.org/2000/svg" xmlns:xlink="http://www.w3.org/1999/xlink" x="0px" y="0px"
	 viewBox="0 0 382 480.4" style="enable-background:new 0 0 382 480.4;" xml:space="preserve">
<style type="text/css">
	.st0{fill:none;stroke:#000000;stroke-width:6.8065;stroke-linecap:round;stroke-linejoin:round;stroke-miterlimit:10;}
	.st1{stroke:#000000;stroke-width:6.8065;stroke-linecap:round;stroke-linejoin:round;stroke-miterlimit:10;}
	.st2{stroke:#000000;stroke-width:6.8062;stroke-linecap:round;stroke-linejoin:round;stroke-miterlimit:9.9996;}
	.st3{stroke:#000000;stroke-width:6.8066;stroke-linecap:round;stroke-linejoin:round;stroke-miterlimit:10.0001;}
</style>
<polyline class="st0" points="21.3,255.2 64.4,202.3 124,252.1 80.4,303.2 "/>
<polygon class="st1" points="48.9,224.5 104.8,271.3 120.2,252.5 64.8,205.7 "/>
<ellipse transform="matrix(0.7175 -0.6965 0.6965 0.7175 -186.3815 134.0645)" class="st1" cx="72.1" cy="296.8" rx="11" ry="10.2"/>
<ellipse transform="matrix(0.7175 -0.6965 0.6965 0.7175 -168.5727 79.7387)" class="st1" cx="14" cy="247.7" rx="11" ry="10.2"/>
<polyline class="st1" points="205.2,461.5 184.6,396.4 228.1,381.9 235.7,403.9 193.8,417.8 184.6,396.4 "/>
<ellipse transform="matrix(0.9819 -0.1892 0.1892 0.9819 -84.6409 45.5085)" class="st2" cx="196" cy="466.1" rx="10.2" ry="11"/>
<polyline class="st1" points="308.4,210.5 330.8,146 374.3,160.4 367.4,182.5 325.4,168.6 330.8,146 "/>
<ellipse transform="matrix(0.4355 -0.9002 0.9002 0.4355 -19.4406 386.0253)" class="st3" cx="298.1" cy="208.5" rx="11" ry="10.2"/>
<path class="st0" d="M378.6,399.9c-15.6,8.8-30,19.9-42.6,32.8"/>
<path class="st0" d="M339.2,398.2c15.7,11.3,26.4,22.2,37.8,37.8"/>
<line class="st0" x1="362.7" y1="305.3" x2="357.2" y2="406.2"/>
<path class="st0" d="M198,77.6c-9.2,15.4-16.2,32.2-20.7,49.6"/>
<path class="st0" d="M162.9,95.7c19.2,2.1,34,6.1,51.6,14.1"/>
<line class="st0" x1="137.2" y1="3.4" x2="182.6" y2="93.7"/>
</svg>
