<?xml version="1.0" encoding="utf-8"?>
<!-- Generator: Adobe Illustrator 27.7.0, SVG Export Plug-In . SVG Version: 6.00 Build 0)  -->
<svg version="1.1" id="Layer_1" xmlns="http://www.w3.org/2000/svg" xmlns:xlink="http://www.w3.org/1999/xlink" x="0px" y="0px"
	 viewBox="0 0 197.7 289.3" style="enable-background:new 0 0 197.7 289.3;" xml:space="preserve">
<style type="text/css">
	.st0{fill:#FFFFFF;}
	.st1{fill:none;stroke:#000000;stroke-width:7;stroke-linecap:round;stroke-linejoin:round;}
</style>
<path class="st0" d="M74.7,6.9C55.2,10.1,6.4,52.3,5,98.2c-0.8,25.8,24.5,41,28.7,46c1.8,7.2-2.8,75.9,0.1,98.3
	c2.1,16.4,13.8,41.3,27,40.9c14-0.4,19.9-13.7,19.9-27.7c0-14-3.5-34.4-3.5-42.5c0-8.1-1.2-33.7-0.3-37c5.5,1.4,11.6,9.3,19.3,8.8
	c6.9-0.5,12.8-8.2,18.4-9.6c4.3-1,7.4,10.4,18.6,12.2c8.3,1.3,15.7-9.8,18-9.8c5.4,0,8,11.6,20.6,8.9c21.2-4.5,19.5-41.5,18.1-52.3
	c-1.4-10.8-6.4-64.4-10.5-77.2c-4.9-15.1-15.5-35.7-38.7-42.2C127.7,11.3,91.7,4.2,74.7,6.9z"/>
<path class="st1" d="M82.3,56.1c-3.2,17.5-14.9,33.3-30.8,41.3c10.5,5.6,19.3,14.2,25.2,24.5c3.5,6.1,5.9,13.5,3.4,20
	c-3.6,9.1-15.4,12.1-25.1,10.6c-17.7-2.7-32.4-15.6-42.1-30.7c-3.5-5.4-6.5-11.3-7.5-17.7C3.9,95.7,6,86.9,9,78.7
	c7.2-20.1,19.3-38.4,35-52.9c8.6-8,18.5-14.9,29.7-18s48.9-1.4,74.8,11.1c28.8,15.2,36.1,38.4,40.6,115.4"/>
<path class="st1" d="M76.6,174.9c-2.9,26.6,4.3,53.3,3.8,80c-0.1,6-0.6,12.2-3.2,17.7s-7.5,10.1-13.5,10.9
	c-9.6,1.2-17.5-7.6-21.7-16.4c-8.3-17.5-9-37.6-9.1-56.9c-0.1-21.2,0.5-42.4,1.7-63.6"/>
<path class="st1" d="M72.4,150.3c-0.5,6.7-0.2,12.5,2.1,18.8s6.8,12.1,13.1,14.5c10.5,4.1,22.8-2.4,28.6-12
	c5.9-9.6,6.7-21.4,6.3-32.6c-0.3-9.1-1.3-18.6-6.1-26.4c-4.8-7.8-14.3-13.3-23.1-10.9c-9.1,2.5-14.3,12.2-15.5,21.6"/>
<path class="st1" d="M116.2,172c2.5,7.1,7.6,14.2,15,15.5c7.9,1.4,15.5-4.5,19.8-11.2c9.6-15.1,8.3-35.3,0.8-51.5
	c-3.1-6.8-7.6-13.4-14.4-16.4s-16.3-0.8-19.1,6.1"/>
<path class="st1" d="M151.5,175.4c2.5,7.1,5.9,10.8,13.4,12c7.9,1.4,15.5-4.5,19.8-11.2c9.6-15.1,8.3-35.3,0.8-51.5
	c-3.1-6.8-7.6-13.4-14.4-16.4s-17.8-0.1-20.6,8.3"/>
</svg>
