<?xml version="1.0" encoding="utf-8"?>
<!-- Generator: Adobe Illustrator 27.7.0, SVG Export Plug-In . SVG Version: 6.00 Build 0)  -->
<svg version="1.1" xmlns="http://www.w3.org/2000/svg" xmlns:xlink="http://www.w3.org/1999/xlink" x="0px" y="0px"
	 viewBox="0 0 1038.6 456.7" style="enable-background:new 0 0 1038.6 456.7;" xml:space="preserve">
<style type="text/css">
	.st0{fill:none;stroke:#000000;stroke-width:3;stroke-linecap:round;stroke-linejoin:round;stroke-miterlimit:10;}
	.st1{fill:none;stroke:#000000;stroke-width:1.5;stroke-linecap:round;stroke-linejoin:round;stroke-miterlimit:10;}
	.st2{fill:#FFFFFF;stroke:#000000;stroke-width:3;stroke-linecap:round;stroke-linejoin:round;stroke-miterlimit:10;}
	.st3{stroke:#000000;stroke-width:5;stroke-linecap:round;stroke-linejoin:round;stroke-miterlimit:10;}
	.st4{fill:#FFFFFF;stroke:#000000;stroke-width:5;stroke-linecap:round;stroke-linejoin:round;stroke-miterlimit:10;}
	.st5{fill:none;stroke:#000000;stroke-width:15;stroke-linecap:round;stroke-linejoin:round;stroke-miterlimit:10;}
	.st6{fill:none;stroke:#000000;stroke-width:5;stroke-linecap:round;stroke-linejoin:round;stroke-miterlimit:10;}
</style>
<g id="Layer_6">
	<path class="st0" d="M56.3,229.2c8.2-6.8,140.9-115.8,140.9-115.8l14.4-5.3c0.3-0.1,0.6,0.2,0.5,0.5l-6.7,15
		c0,0-135.7,112.9-139.2,115.8C62.2,242.5,53,232,56.3,229.2z"/>
	<path class="st0" d="M209.2,114.2c-0.1-1.5-1.8-3.3-3.3-3.7l4.1-0.9L209.2,114.2z"/>
	<path class="st0" d="M205.2,123c-0.5-4.4-3.7-8.2-8-9.5"/>
	<path class="st0" d="M65,239c0.4-3.1-4.7-8.9-8.1-9.6"/>
	<path class="st0" d="M72.9,232.9c0.4-3.1-4.6-9.3-8.3-9.7"/>
	<path class="st0" d="M80.8,226.5c0.4-3.1-4.7-9.3-8.5-9.8"/>
	<path class="st0" d="M187,139.4c0.6,5.1,7,25,26,14.4c15.2-8.5,8.8-25.1,7.3-27.7c2.8-1.7,42.4,21.2,4.8,63.5
		c-39,43.8-71.2,10.7-72-5.9c5.9,4.8,16.7,5.1,24-1.1c13.3-11.3,4.8-23.7-7.1-29.1"/>
	<path class="st1" d="M223.1,135.2c9,6.6,21.9,24.3-2.1,51.4c-29.1,32.6-53.7,15.2-59.9,0.8"/>
	<line class="st1" x1="77" y1="218.1" x2="200.1" y2="116.2"/>
	<line class="st1" x1="80.5" y1="221.3" x2="203.6" y2="119.4"/>
	<line class="st1" x1="71.3" y1="222.8" x2="73.3" y2="221.1"/>
	<line class="st1" x1="74.3" y1="226.5" x2="76.3" y2="224.8"/>
	<path class="st2" d="M188.5,139.4c-1.7-5.3-6.6-10.6-10.5-11.5l-18.6,15.3c4.2,0.9,9,6.3,11,11L188.5,139.4z"/>
</g>
<g id="Layer_3_copy">
	<path class="st3" d="M953.4,403.4L832.6,164.3h-35.8l-10.9,9l-6.1-9.4l-37.3,0.4l-9.3,9c-8.2-7.1-17.5-10.1-25.8-10.1
		c-8.7,0-16.2,0-26.7,0.4c-6.6,0.2-12,3.4-15.6,8.7c-0.3,0.3-12.8,18.1-12.8,18.1l-5.4-25.7l-71.9-0.4l-5.9,22
		c-5.1-10.1-15.2-21.9-32.5-22.4c-5.7-0.1-12.3-0.1-18.1,0c-10,0.2-28,4-36.6,27.7l-5.2-27.3h-33.9l-4.3,32.6l-14.1-33l-35.4-0.4
		l-1.3,6c-0.2-0.4-3.4-5.6-3.6-6c-8.3,0-25.6,0.4-34.3,0.4c-0.3,1.2-2,7-4.6,16c-0.4-0.3-13.9-15.6-14.3-16c-9.8,0-26.4-0.4-35,0
		c-1.6,4.5-3.7,10.1-6.1,16.6c-4.9-4.3-9.9-8.6-15-12.7c-2.4-2.2-5.7-3.6-10.1-3.9c-6.6-0.5-36-0.8-60.2-0.4
		C180.2,210.8,82.3,401.9,82.3,401.9s72.6,37.4,96.6,50c18.1,0.1,48,0.5,55.6,0.5c16.7,0,29.7-10.1,40.9-29.4c0,0,0.1,0.1,0.1,0.1
		c0.4,0.3,21.3,19.1,26.4,23c5.9,4.6,12.8,7.6,22.6,7.7c18.6,0.2,31.3-5.4,40.7-19l11.7,16l37.8,0.8l4.6-35.6l16.2,36l37.5,0.4
		l3.4-62.5c0.1,0.3,3.7,19.7,5.1,25.9c4.3,20.3,13.1,37,29.1,38.1c7.3,0.5,28.4,0.6,34,0c11.6-1.2,19.3-9.9,23.7-25.5
		c5-17.7,6.6-24.6,6.7-24.9l3.3,50.1l81.8-1.1l-0.2-1l0.9,0l-0.2-1l0.9,0l-0.2-1l0.9,0l-0.2-1l0.9,0l-0.2-1l0.9,0l-0.2-1l0.9,0
		l-0.2-1l0.9,0l-0.2-1l0.9,0l-0.2-1l0.9,0l-0.2-1l0.9,0l-0.2-1l0.9,0l-0.2-1l0.9,0l-0.2-1l1,0l-0.2-1l1,0l-0.2-0.9
		c7.9,10.2,17.1,15.4,24.7,15.6c9.7,0.3,19.2-0.2,29.2-0.6c11.1-0.5,26.1-20.6,29.2-23.7l6.9,24.3h38.4l15.5-11l5,10.6l37.8,0.8
		L953.4,403.4z"/>
</g>
<g id="Layer_3">
	<path class="st4" d="M264.9,164c-6.6-0.5-36-0.8-60.2-0.4C180.2,210.8,82.3,401.9,82.3,401.9s62.5,0.6,71.5,0.8
		c49.3,0.8,72.7-56.5,103.9-141.9C270.5,225.7,297.2,166.2,264.9,164z M216.7,261.1c-30.9,73.8-34.7,85.3-47.1,85.5
		c-1.4,0-10.5-0.5-10.5-0.5l68.9-151c0,0,8.7,0.1,9.8,0.2C247.5,196,233.9,220,216.7,261.1z"/>
	<path class="st4" d="M296.1,164c-9.8,26.7-34.4,94.1-54.6,149.1c-23.7,64.8-13.6,90.4,27.9,90.7c47.4,0.4,64.7-22,79.4-84
		c14.3-60.2,27.9-122.7,35.4-156.2c-8.3,0-25.6,0.4-34.3,0.4c-1.5,5.6-34.3,119.7-48.2,166.8c-2.9,9.8-7.9,17.7-15.1,17.7
		c-9.8,0-8.8-9.4-6-18.8c14.3-48.6,47.8-155.1,50.4-165.6C321.3,164,304.8,163.6,296.1,164z"/>
	<polygon class="st4" points="336.8,400.8 389.1,163.6 424.5,164 430.9,255.5 442.9,164.3 476.8,164.3 460.3,402.3 412.1,401.9 
		407.9,266 385.3,401.5 	"/>
	<polygon class="st4" points="575.1,164.3 595.4,403.4 700.4,402.3 686.5,343.2 638.7,343.9 629.7,282.9 671.5,281.4 662,238.1 
		622.9,238.1 617.2,199.7 654.1,198.6 647,164.7 	"/>
	<polygon class="st4" points="742.6,164.3 829.2,403 878.5,403 820.9,264.5 904.9,402.7 953.4,403.4 832.6,164.3 796.8,164.3 
		839,255.1 779.9,164 	"/>
	<path class="st4" d="M536.7,228c0,0,37.1-0.2,39.2,0c1.1-0.4-1.5-23.3-2.3-29c-1-7.3-10.6-34.3-36.9-35c-5.7-0.1-12.3-0.1-18.1,0
		c-12.4,0.3-37.3,6-41,48.9c-1,11.7-7.6,118.2-8.3,129.1c-1.9,28.6,10.9,60.2,39.2,61.7c9.4,0.5,36.5,0.6,43.7,0
		c22.6-1.9,35.4-20.3,33.1-55.7c-0.7-11.7-7.9-102.8-7.9-102.8l-49.7,0.4l0.4,39.5c0,0,10.5,0,12,0c0.8,6.8,0.8,35,0.4,41
		c-0.8,9.8-3.4,20.7-10.9,21.5c-9,0.9-15.1-7.9-15.1-19.2c0-33.5-0.4-78.3,2.3-117.5c0.9-12.8,5.3-16.9,9.4-16.9
		c6.4,0,9.8,5.3,10.2,15.8C536.5,214.1,536.7,228,536.7,228z"/>
	<path class="st4" d="M801.7,339.8c-6.2-17.6-44.1-123.1-52.7-143.8c-9.8-23.7-27.1-32.8-41.4-32.8c-8.7,0-16.2,0-26.7,0.4
		c-15.8,0.6-24.1,17.7-20.7,39.9c2.7,17.7,29.5,133.9,33.9,149.5c9.4,33.1,33.5,49.7,51.2,50.1c12.4,0.3,24.8-0.9,37.6-1.9
		C808.5,399.3,808.1,357.9,801.7,339.8z M748.1,347.7c-10.2,0.9-13.6-2.6-21.1-29c-2.6-9-23.8-90.7-26.2-100.8
		c-3.1-12.9-7.3-22.7,2.9-22.7c7.2,0,9,4.7,13.6,19.2c3.9,12.4,27.4,91.7,30.5,102C753.8,336.8,756.4,346.9,748.1,347.7z"/>
</g>
<g id="the_drawing">
	<path class="st5" d="M251.1,57.8c-1.1,13.6,5.1,63.2,9.6,83.6"/>
	<path class="st5" d="M210.5,44.3c67.2-26.5,126.5-1.7,130.4,31.6c4,33.3-35.6,78.5-118.6,113.5"/>
	<path class="st5" d="M357.9,92.3c-4,31.1-2.3,89.8-1.1,103.9"/>
	<path class="st5" d="M348.3,99.6c6.8-13,37.3-59.9,66.1-36.1c28.8,23.7-19.2,61.6-52,83c39,18.1,62.1,29.9,81.3,44"/>
	<path class="st5" d="M444.3,167.9c11.3-48.6,13.6-133.8,23.2-132.7c9.6,1.1,9.6,61,39.5,149.1"/>
	<path class="st5" d="M441.4,132.9c11.9-9,45.7-19.2,74.5-23.2"/>
	<path class="st5" d="M546.7,69.7c-7.9,19.8-18.1,106.8-3.4,107.3c16.4,0.6,28.8-47.4,33.3-47.4s16.9,38.4,36.1,37.3
		c28.2-1.7,2.3-108.4,2.8-141.7"/>
	<path class="st5" d="M653.5,79.3c-2.3,10.2-4.5,53.6-3.4,75.7"/>
	<path class="st5" d="M673,142.5c-1.1-17.5,1.7-54.2,4-53.6c2.3,0.6,33.3,63.8,45.2,65.5c6.2,0.9-8.5-46.9,4.5-135"/>
	<path class="st5" d="M802.8,68.5c-1.3-2.5-1.1-32.6-16.4-33.3c-24.4-1.2-43.5,35.8-46.3,72.3c-2.6,34.3,13.6,68.1,35.6,67.2
		c27.7-1.1,41.8-53.6,39.5-63.2"/>
	<path class="st5" d="M782.5,116c9.6-0.6,56.5-9,67.2-11.3"/>
	<path class="st6" d="M514.6,5.4c-5.7,0.4-21.1,2.6-27.6,5.2"/>
	<path class="st6" d="M500.8,32.6c-0.4-5.3-0.3-17.5-0.1-24.5"/>
	<path class="st6" d="M514.4,14.9c-0.1,8.5,0.1,14.5,0.7,19.7"/>
	<path class="st6" d="M529.8,2.5c-0.2,3.8,0.1,25.5,0.8,37.4"/>
	<path class="st6" d="M515.3,24.5c2.2,0.1,11.9-2.4,13.5-3.2"/>
	<path class="st6" d="M555.3,6.9c-4.7,0-13.2,2-14.3,4c-1.1,2,1,5.9,1,10.7c0,4.5-1,9.3,0,11.3c1.2,2.3,10.2,2.2,15.8,0.1"/>
	<path class="st6" d="M551.1,20.9c-1.6,0.5-5.2,1.1-7.6,1.4"/>
</g>
<g id="Layer_5_copy">
	<path class="st0" d="M887,298.7c2.1-0.6,8.5-5.1,4.6-5.3c-12.5-0.8-19.7-17.9-15-28.7c1.4-3.3-5.4-1.8-7-0.3
		C860.4,272.8,872,301.3,887,298.7z"/>
	<path class="st2" d="M877.5,263.2c2.6-1.2,11.7-4.4,18.6,8.6c7.3,13.8-1,19.5-3.7,21.1"/>
	<path class="st2" d="M893.2,277.9c0,0,109.4-43.7,112.2-44.8c3.8-1.5,1.3-8.5-2.6-7c-2.2,0.8-112,44.6-112,44.6
		C887.8,271.9,890.4,278.9,893.2,277.9z"/>
	<polyline class="st0" points="973.6,237.7 977.9,223.8 1008.1,212.1 1004.2,224.9 	"/>
	<polyline class="st0" points="975.9,245 988.5,252.2 1018.3,240 1006.7,233.2 	"/>
	<path class="st0" d="M1004.1,225.8c-3.5,1.4-1.1,8,2.3,6.6"/>
</g>
</svg>
