<svg xmlns="http://www.w3.org/2000/svg" xmlns:xlink="http://www.w3.org/1999/xlink" preserveAspectRatio="xMidYMid meet" width="290" height="290" viewBox="0 0 290 290" style="width:100%;height:100%"><defs><animateTransform repeatCount="indefinite" dur="1.3333333s" begin="0s" xlink:href="#_R_G_L_0_G" fill="freeze" attributeName="transform" from="15" to="15" type="rotate" additive="sum" keyTimes="0;0.5;1" values="15;-72;15" keySplines="0.682 0 0.251 1;0.686 0 0.252 1" calcMode="spline"/><animateTransform repeatCount="indefinite" dur="1.3333333s" begin="0s" xlink:href="#_R_G_L_0_G" fill="freeze" attributeName="transform" from="-146 -183.5" to="-146 -183.5" type="translate" additive="sum" keyTimes="0;1" values="-146 -183.5;-146 -183.5" keySplines="0 0 1 1" calcMode="spline"/><animate attributeType="XML" attributeName="opacity" dur="1s" from="0" to="1" xlink:href="#time_group"/></defs><g id="_R_G"><g id="_R_G_L_1_G" transform=" translate(143, 145) translate(-145, -145)"><path id="_R_G_L_1_G_D_0_P_0" stroke="#000000" stroke-linecap="round" stroke-linejoin="round" fill="none" stroke-width="7" stroke-opacity="1" d=" M122.22 11.7 C122.22,11.7 56.78,226.4 56.78,226.4 C56.78,226.4 234.79,228.65 234.79,228.65 C234.79,228.65 175.83,12.33 175.83,12.33 C175.83,12.33 122.22,11.7 122.22,11.7z "/><path id="_R_G_L_1_G_D_1_P_0" fill="#000000" fill-opacity="1" fill-rule="nonzero" d=" M56.78 226.4 C56.78,226.4 100.86,278.18 100.86,278.18 C100.86,278.18 199.97,278.84 199.97,278.84 C199.97,278.84 234.79,228.65 234.79,228.65 C234.79,228.65 56.78,226.4 56.78,226.4z "/><path id="_R_G_L_1_G_D_2_P_0" stroke="#000000" stroke-linecap="round" stroke-linejoin="round" fill="none" stroke-width="7" stroke-opacity="1" d=" M56.78 226.4 C56.78,226.4 100.86,278.18 100.86,278.18 C100.86,278.18 199.97,278.84 199.97,278.84 C199.97,278.84 234.79,228.65 234.79,228.65 C234.79,228.65 56.78,226.4 56.78,226.4z "/><path id="_R_G_L_1_G_D_3_P_0" stroke="#000000" stroke-linecap="round" stroke-linejoin="round" fill="none" stroke-width="7" stroke-opacity="1" d=" M162.97 32.35 C162.97,32.35 134.65,32.66 134.65,32.66 C134.65,32.66 89.52,195.41 89.52,195.41 C89.52,195.41 132.73,195.61 132.73,195.61 C132.73,195.61 145.83,175.28 145.83,175.28 C145.83,175.28 158.84,196.3 158.84,196.3 C158.84,196.3 204.83,195.98 204.83,195.98 C204.83,195.98 162.97,32.35 162.97,32.35z "/><path id="_R_G_L_1_G_D_4_P_0" stroke="#000000" stroke-linecap="round" stroke-linejoin="round" fill="none" stroke-width="5" stroke-opacity="1" d=" M148 53.16 C148,53.16 145.83,175.28 145.83,175.28 "/><path id="_R_G_L_1_G_D_5_P_0" stroke="#000000" stroke-linecap="round" stroke-linejoin="round" fill="none" stroke-width="5" stroke-opacity="1" d=" M139.98 65.17 C139.98,65.17 157.12,65.32 157.12,65.32 "/><path id="_R_G_L_1_G_D_6_P_0" stroke="#000000" stroke-linecap="round" stroke-linejoin="round" fill="none" stroke-width="5" stroke-opacity="1" d=" M138.82 88.65 C138.82,88.65 155.93,88.75 155.93,88.75 "/><path id="_R_G_L_1_G_D_7_P_0" stroke="#000000" stroke-linecap="round" stroke-linejoin="round" fill="none" stroke-width="5" stroke-opacity="1" d=" M138.63 112.27 C138.63,112.27 155.78,112.38 155.78,112.38 "/><path id="_R_G_L_1_G_D_8_P_0" stroke="#000000" stroke-linecap="round" stroke-linejoin="round" fill="none" stroke-width="5" stroke-opacity="1" d=" M138.14 135.84 C138.14,135.84 155.28,135.95 155.28,135.95 "/><path id="_R_G_L_1_G_D_9_P_0" stroke="#000000" stroke-linecap="round" stroke-linejoin="round" fill="none" stroke-width="5" stroke-opacity="1" d=" M136.52 160 C136.52,160 153.67,160.1 153.67,160.1 "/></g><g id="_R_G_L_0_G" transform=" translate(144, 183.5)"><path id="_R_G_L_0_G_D_0_P_0" stroke="#000000" stroke-linecap="round" stroke-linejoin="round" fill="none" stroke-width="7" stroke-opacity="1" d=" M229.86 36.02 C229.86,36.02 232.82,30.85 232.82,30.85 "/><path id="_R_G_L_0_G_D_1_P_0" stroke="#000000" stroke-linecap="round" stroke-linejoin="round" fill="none" stroke-width="7" stroke-opacity="1" d=" M148.61 179.75 C148.61,179.75 216.26,60.38 216.26,60.38 "/><path id="_R_G_L_0_G_D_2_P_0" fill="#ffffff" fill-opacity="1" fill-rule="nonzero" d=" M210.34 28.57 C210.34,28.57 206.73,52.28 206.73,52.28 C206.73,52.28 229.11,64.44 229.11,64.44 C229.11,64.44 246.89,48.86 246.89,48.86 C246.89,48.86 210.34,28.57 210.34,28.57z "/><path id="_R_G_L_0_G_D_3_P_0" stroke="#000000" stroke-linecap="round" stroke-linejoin="round" fill="none" stroke-width="7" stroke-opacity="1" d=" M210.34 28.57 C210.34,28.57 206.73,52.28 206.73,52.28 C206.73,52.28 229.11,64.44 229.11,64.44 C229.11,64.44 246.89,48.86 246.89,48.86 C246.89,48.86 210.34,28.57 210.34,28.57z "/></g></g><g id="time_group"/></svg>