<?xml version="1.0" encoding="UTF-8"?><svg id="Layer_1" xmlns="http://www.w3.org/2000/svg" viewBox="0 0 752.3 335.07"><defs><style>.cls-1{fill:#fff;}.cls-2{stroke-width:10.99px;}.cls-2,.cls-3{stroke:#000;stroke-linecap:round;stroke-linejoin:round;}.cls-3{stroke-width:19.79px;}</style></defs><g id="sunnies"><path class="cls-3" d="m436.9,165.72S37.28,76.63,12.71,69.02c-.5,16.75-23.8,183.1,72.88,189.9,96.68,6.8,100.58-58.29,100.49-114.13,16.83-1.36,32.05,4.43,38.87,6.84-.49,74.46,17.15,164.51,108.15,172.94,91,8.43,104.82-73.14,103.8-158.86Z"/><path class="cls-2" d="m438.07,163.28s215.36-43.91,241.34-46.99c24.98-2.96,38.64-3.37,49.39,1.31,17.45,7.43,25.2,51.62,9.54,50.97-10.88-.44,5.96-29.01-19.78-33.69-19.71-3.51-268.62,51.1-276.2,52.05-7.58.95-4.29-23.64-4.29-23.64Z"/><path class="cls-2" d="m12.85,64.36S259.43,10.8,285.41,7.72c24.98-2.96,38.64-3.37,49.39,1.31,17.45,7.43,20.69,46.82,9.53,46.55-10.84-.24,6.35-30.85-19.14-35.37-19.71-3.51-268.9,53.84-274.13,53.42-7.56-.7-38.2-9.26-38.2-9.26Z"/><path class="cls-1" d="m295.43,162.8c.07-3.2-2.31-5.93-5.31-6.46-10.99-2.67-22.29-4.86-33.23-7.75-7.84-2.79-12.62,1.82-12.67,9.53-.71,11.05-.47,22.19.55,33.14,1.42,30.27,11.21,60.33,28.01,85.68,1.68,2.38,4.67,3.74,7.49,2.15,2.42-1.49,4.21-5.29,2.48-7.87-16.19-22.3-22.67-50.06-21.88-77.45.11-5.67.28-11.57,2.62-16.94.63-1.28,1.37-2.48,2.22-3.7.79-1.01,1.75-1.74,2.68-2.58.71-.47,1.44-.85,2.28-1.25.76-.28,1.83-.53,2.63-.61,1.94-.04,16.15.54,17.19.2,2.85-.56,5.02-3.12,4.95-6.08Z"/><path class="cls-1" d="m78.52,109c.07-3.2-2.31-5.93-5.31-6.46-10.99-2.67-22.29-4.86-33.23-7.75-7.84-2.79-12.62,1.82-12.67,9.53-.71,11.05-.47,22.19.55,33.14,1.34,30.39,10.72,60.45,26.91,86.24,1.68,2.38,4.67,3.74,7.49,2.15,2.42-1.49,4.21-5.29,2.48-7.87-14.55-23.2-21.67-50.6-20.78-78.02.11-5.67.28-11.57,2.62-16.94.63-1.28,1.37-2.48,2.22-3.7.79-1.01,1.75-1.74,2.68-2.58.71-.47,1.44-.85,2.28-1.25.76-.28,1.83-.53,2.63-.61,1.94-.04,16.15.54,17.19.2,2.85-.56,5.02-3.12,4.95-6.08Z"/></g></svg>