<?xml version="1.0" encoding="UTF-8"?><svg id="Layer_3" xmlns="http://www.w3.org/2000/svg" viewBox="0 0 833.28 875.52"><defs><style>.cls-1,.cls-2{fill:#fff;}.cls-3{fill:none;stroke-width:35px;}.cls-3,.cls-4{stroke:#000;}.cls-3,.cls-4,.cls-2{stroke-linecap:round;stroke-linejoin:round;}.cls-4{stroke-width:10.55px;}.cls-2{stroke:#fff;stroke-width:14.82px;}</style></defs><rect class="cls-4" x="31.17" y="527.76" width="778.22" height="342.49" rx="171.25" ry="171.25"/><circle class="cls-2" cx="634.35" cy="699" r="132.88"/><path class="cls-1" d="m191.39,613.02c16.33,0,30.35,3.31,42.06,9.94,11.71,6.62,20.57,16.04,26.59,28.25,6.02,12.21,9.02,26.55,9.02,43.02,0,12.18-1.65,23.24-4.94,33.19-3.29,9.96-8.24,18.58-14.82,25.89-6.59,7.3-14.68,12.89-24.28,16.76-9.6,3.87-20.59,5.8-32.98,5.8s-23.35-1.99-33.09-5.96c-9.74-3.97-17.87-9.58-24.38-16.81-6.52-7.23-11.44-15.93-14.77-26.1-3.33-10.17-5-21.16-5-32.98s1.74-23.2,5.21-33.3c3.47-10.1,8.5-18.69,15.09-25.78,6.59-7.09,14.61-12.51,24.06-16.27s20.2-5.64,32.23-5.64Zm45.33,81c0-11.53-1.86-21.52-5.59-29.97-3.72-8.45-9.04-14.84-15.95-19.17-6.91-4.33-14.84-6.5-23.79-6.5-6.38,0-12.26,1.2-17.67,3.6-5.41,2.4-10.06,5.89-13.96,10.47-3.9,4.58-6.98,10.44-9.24,17.56-2.26,7.13-3.38,15.13-3.38,24.01s1.13,17.04,3.38,24.28c2.26,7.23,5.44,13.23,9.56,17.99,4.12,4.76,8.84,8.33,14.18,10.69,5.33,2.36,11.19,3.54,17.56,3.54,8.16,0,15.67-2.04,22.5-6.12,6.84-4.08,12.28-10.38,16.33-18.91,4.04-8.52,6.07-19.01,6.07-31.47Z"/><path class="cls-1" d="m320.94,672.85v3.54c5.16-6.8,10.8-11.8,16.92-14.99,6.12-3.19,13.16-4.78,21.11-4.78s14.64,1.68,20.73,5.05c6.09,3.37,10.63,8.13,13.64,14.29,1.93,3.58,3.19,7.45,3.76,11.6.57,4.15.86,9.45.86,15.9v54.57c0,5.87-1.34,10.31-4.03,13.32s-6.18,4.51-10.47,4.51-7.91-1.54-10.63-4.62c-2.72-3.08-4.08-7.48-4.08-13.21v-48.88c0-9.67-1.34-17.06-4.03-22.18-2.69-5.12-8.04-7.68-16.06-7.68-5.23,0-9.99,1.56-14.29,4.67s-7.45,7.4-9.45,12.84c-1.43,4.37-2.15,12.53-2.15,24.49v36.74c0,5.95-1.38,10.4-4.14,13.37-2.76,2.97-6.32,4.46-10.69,4.46s-7.7-1.54-10.42-4.62c-2.72-3.08-4.08-7.48-4.08-13.21v-84.76c0-5.59,1.22-9.76,3.65-12.51,2.43-2.76,5.76-4.14,9.99-4.14,2.58,0,4.9.61,6.98,1.83,2.08,1.22,3.74,3.04,5,5.48,1.25,2.44,1.88,5.41,1.88,8.92Z"/><path class="cls-3" d="m17.5,32.73c24.81,44.8-.2,102.71,18.55,150.37,25.36,64.43,16.27,142.69,17.42,160.79s4.24,37.41,16.68,50.6,54.41,26.77,64.72,11.85c9.28-13.44,2.53-31.46-.91-47.43-4.03-18.71-.42-58.96.68-78.06.95-16.47,1.9-32.94,2.84-49.41"/><path class="cls-3" d="m355.05,48.04c-9.66-5.18-25.08-9.34-36.71-11.12-24.57-3.75-49.75,18.24-49.35,43.09.16,9.7,3.58,19,5.65,28.48,6.47,29.64-.32,60.32-2.82,90.56-2.05,24.78-1.19,147.9,2.57,172.48,1.99,13,5.91,27.46,17.45,33.75,16.5,8.98,33.56-5.72,70.2-.26"/><path class="cls-3" d="m142.3,386.58c4.89,12.8,23.15,31.62,48.56,18.07,10.14-5.41,18.12-25.84,19.34-37.27,2.98-27.85-9.63-145.62-6.4-173.44,1.69-14.51,6.71-28.41,9.63-42.73,8.94-43.72-1.95-88.79-12.93-132.04"/><path class="cls-3" d="m276.87,232.35c6.25-9.42,19.1-13.86,29.83-10.3,6.89,2.28,31.38,8.73,48.06,3.59"/><path class="cls-3" d="m413.41,40.66c-18.09,36.77-7.4,80.25-2.91,120.98,2,18.18,2.68,36.48,3.36,54.76,1.1,29.61,2.19,157.32,3.29,186.93"/><path class="cls-3" d="m479.86,403.11c5.13-31.73,10.25-162.29,4.55-193.92-2.11-11.72-5.68-23.12-8.32-34.74-8.38-36.83-7.31-75.06-6.2-112.82.31-10.67.88-22.1,7.3-30.64,11.96-15.91,25.71-17.38,46.38-6.36,13.01,6.94,16.47,19.94,38.86,26.53,11.21,3.3,20.29,12.08,24.68,22.91,4.39,10.83,13.99,40.38,12.75,64.6-3.39,66.07-37.27,45.74-66.29,84.9-7.67,10.35-23.67,14.18-43.24,5.9"/><path class="cls-3" d="m658.52,171.12c2.9-25.13,1.19-50.79-5.02-75.31-10.75-30.2-9.86-67.58,30.41-67.71,33.87,2.52,38.12,17.49,54.86,38.85,9.67,10.26,27.34,22.88,38.4,31.62,58.15,40.7,39.15,199.37,16.94,219.67-25.13,43.78,6.22,90.76-62.4,97.66-28.13,1.34-72.64-.51-82.95-28.59-13.33-36.31,5.55-179.72,9.76-216.2Z"/><path class="cls-3" d="m593.07,413.97c8.47-22.02,5.93-33.88-3.39-56.75-19.65-48.23-4.04-62.92-17.79-92.33-9.28-19.86-34.59-30.62-50.54-31.34"/></svg>